<?xml version="1.0" encoding="utf-8" ?>
<svg baseProfile="full" height="300mm" version="1.1" viewBox="0,0,200,300" width="200mm" xmlns="http://www.w3.org/2000/svg" xmlns:ev="http://www.w3.org/2001/xml-events" xmlns:xlink="http://www.w3.org/1999/xlink"><defs /><rect fill="#222222" height="300" width="200" x="0" y="0" /><text fill="#FFFFFF" style="font-size:12px; font-family:Arial; font-weight:bold;" x="10" y="20">Over 2km Runs</text><text fill="#FFFFFF" style="font-size:4px; font-family:Arial" x="10" y="280">ATHLETE</text><text fill="#FFFFFF" style="font-size:9px; font-family:Arial" x="10" y="290">作怪</text><text fill="#FFFFFF" style="font-size:4px; font-family:Arial" x="120" y="280">STATISTICS</text><text fill="#FFFFFF" style="font-size:3px; font-family:Arial" x="120" y="285">Number: 18</text><text fill="#FFFFFF" style="font-size:3px; font-family:Arial" x="120" y="290">Weekly: 3.6</text><text fill="#FFFFFF" style="font-size:3px; font-family:Arial" x="141" y="285">Total: 87.3 km</text><text fill="#FFFFFF" style="font-size:3px; font-family:Arial" x="141" y="290">Avg: 4.9 km</text><text fill="#FFFFFF" style="font-size:3px; font-family:Arial" x="167" y="285">Min: 2.0 km</text><text fill="#FFFFFF" style="font-size:3px; font-family:Arial" x="167" y="290">Max: 11.8 km</text><polyline fill="none" points="43.2951734950766,62.76004222407937 41.80618404690176,37.65002625784837 31.631422821432352,32.79000298958272 23.938310676254332,40.080035438295454 22.449321228079498,66.2700305399485 30.142433373257518,72.21000298880972 37.091050796210766,70.8600101089105 41.309854230843484,65.19003449799493 42.30251386202872,37.65002625784837 36.34655607212335,32.79000298958272 29.397938651032746,33.06000445387326 23.441980861127377,39.81003449880518 22.449321228079498,65.46003353921697 26.916289571672678,71.67000589775853 33.616742085665464,72.75 41.5580191379413,64.1100381333381 43.047008586116135,40.080035438295454 32.87224736157805,32.25 23.441980861127377,40.35003635729663 22.20115632098168,65.19003449799493 29.149773743003607,72.21000298880972 40.56535950675607,66.54002949874848 43.047008586116135,41.70004064892419 40.56535950675607,35.76001798687503 32.87224736157805,32.25 23.69014576729387,39.54003353929147 22.20115632098168,65.46003353921697 29.397938651032746,72.48000150453299 37.091050796210766,70.59001147234812 40.813524414785206,65.19003449799493 42.30251386202872,39.54003353929147 31.383257915265858,32.25 23.938310676254332,40.080035438295454 22.449321228079498,65.73003255878575 32.62408245354891,72.75 41.061689322814345,64.65003635641187 41.80618404690176,39.000031559728086 37.091050796210766,34.14001010917127 28.15711411088705,33.60000732168555 23.938310676254332,40.35003635729663 22.9456510450691,66.54002949874848 34.361236807890236,71.67000589775853 41.061689322814345,61.680045132292435 41.5580191379413,38.19002843950875 34.85756662487984,33.33000589767471 28.15711411088705,34.41001147287898 22.9456510450691,47.37005316186696 24.930970307439566,70.05001413845457 33.120412269607186,71.94000445352867 39.572699875570834,67.0800273581408 42.30251386202872,41.43003983073868 39.32453496661037,35.76001798687503 32.62408245354891,33.60000732168555 23.938310676254332,36.57002165284939 21.704826504923403,41.97004144731909" stroke="#4dd2ff" stroke-linecap="round" stroke-linejoin="round" stroke-width="0.5"><title>2024-04-17 3.1km</title><desc>1713344929000</desc></polyline><polyline fill="none" points="68.77544919215143,41.36254226532765 66.44890230987221,61.10629964922555 71.79996013827622,68.44689801638015 78.08163671940565,70.21876420197077 85.52658674120903,64.90316286194138 88.08578831143677,40.85629056044854 79.71021953690797,33.515632337424904 69.70606794394553,40.35003878059797 68.31013981532305,64.1437905607745 76.9183632787317,70.7250115131028 85.9918961180374,64.90316286194138 87.85313362441957,41.36254226532765 79.01225547213107,33.515632337424904 69.70606794394553,41.36254226532765 68.07748512737453,63.384418088477105 76.45305390283465,69.965640517883 85.9918961180374,64.39691467932425 87.85313362441957,41.61566808866337 80.87349297758192,34.275011513149366 70.17137731984258,39.84378692531027 68.07748512737453,63.89066642150283 76.68570859078318,70.21876420197077 85.9918961180374,64.1437905607745 88.08578831143677,42.12191967945546 79.94287422578782,34.021885140100494 70.17137731984258,40.096912862034515 68.31013981532305,62.87816967815161 70.8693413855508,67.68752650986426 77.61632734257728,70.21876420197077 85.9918961180374,64.39691467932425 87.85313362441957,40.096912862034515 77.84898203145713,33.768758748658 70.17137731984258,40.096912862034515 68.5427945042029,64.1437905607745 77.38367265556008,70.97813514037989 85.75924143008888,64.65003877971321 88.08578831143677,40.85629056044854 79.71021953690797,33.768758748658 70.63668669760227,40.35003878059797 68.07748512737453,62.87816967815161 72.26526951417327,68.95314559270628 78.54694609623402,70.47188786650077 85.9918961180374,64.39691467932425 87.3878242475912,40.60316468006931 78.31429140735418,33.768758748658 70.63668669760227,40.35003878059797 68.77544919215143,62.87816967815161 74.82447108533233,70.21876420197077 85.52658674120903,64.65003877971321 88.08578831143677,42.12191967945546 79.47756484895945,33.768758748658 70.63668669760227,39.84378692531027 68.5427945042029,62.371921193553135 74.82447108533233,70.21876420197077 85.52658674120903,65.15628692437895 88.55109768919647,41.86879389337264 80.40818360168487,34.528137867338955 70.63668669760227,39.84378692531027 68.07748512737453,63.13129389262758 76.2203992139548,70.7250115131028 85.75924143008888,64.39691467932425 87.85313362441957,40.60316468006931 79.94287422578782,34.021885140100494 73.89385233260691,35.28751681558788 70.63668669760227,40.35003878059797 68.5427945042029,64.65003877971321 77.15101796761155,70.7250115131028 86.22455080598593,63.89066642150283 87.85313362441957,40.35003878059797 78.31429140735418,34.275011513149366 70.17137731984258,40.60316468006931 68.77544919215143,64.1437905607745 76.9183632787317,70.21876420197077 85.9918961180374,63.63754226407036 87.85313362441957,40.85629056044854 79.71021953690797,34.021885140100494 70.63668669760227,39.59066096926108 68.31013981532305,64.39691467932425 75.9877445269376,70.47188786650077 85.2939320532605,65.15628692437895 88.08578831143677,41.10941642220132 78.54694609623402,34.021885140100494 69.2407585689798,38.831282986560836 66.44890230987221,63.13129389262758 73.19588826783001,71.23125874809921 80.17552891280502,71.48438233789057 86.6898601828143,66.92815483291633 88.78375237714499,46.4250551413279 83.43269454874098,33.009379459545016 77.15101796761155,32.25 70.63668669760227,37.059400364756584 65.98359293397516,59.081304194405675 68.5427945042029,69.71251681447029 74.35916170850396,72.75 82.26942110713571,71.23125874809921 89.01640706509352,61.61254832427949" stroke="#4dd2ff" stroke-linecap="round" stroke-linejoin="round" stroke-width="0.5"><title>2024-04-15 5.9km</title><desc>1713172666000</desc></polyline><polyline fill="none" points="126.39671856584027,36.53946710494347 126.67178105283529,44.7193428738974 128.68890595808625,46.61467278224882 131.34784333221614,46.41516449768096 133.73171821981668,43.622045379830524 134.19015569798648,34.5443678421434 130.0642183930613,32.25 126.9468435398303,35.54191784677096 126.58009355748072,44.22057139757089 128.2304684794508,46.41516449768096 130.5226558712311,46.714426913065836 133.8234057156369,44.02106275490951 133.91509321145713,33.74632730148733 130.5226558712311,32.3497552057961 127.58865600964054,34.24510269530583 126.39671856584027,43.522291017347015 128.59721846226603,46.51491864351556 131.8062808108516,46.41516449768096 133.91509321145713,44.32032570778392 134.55690568080172,35.04314293793868 131.34784333221614,32.44951040390879 127.03853103611618,35.14289793453645 126.30503107048571,43.12327349325642 129.05565594043583,46.714426913065836 133.45665573282167,45.018605670076795 134.55690568080172,35.34240790538024 131.9896558020264,32.649020777782425 127.58865600964054,34.24510269530583 126.39671856584027,43.82155408221297 128.96396844508126,46.714426913065836 133.18159324582666,45.41762262722477 134.64859317662194,35.940937639563344 132.8148432634771,32.848531121970154 130.61434336705133,32.44951040390879 127.68034350546077,34.045592560316436 126.4884060616605,43.32278227014467 128.78059345344082,46.61467278224882 133.18159324582666,45.41762262722477 133.91509321145713,33.74632730148733 129.69746841024607,32.649020777782425 127.13021853100508,35.34240790538024 126.67178105283529,44.32032570778392 130.61434336705133,46.714426913065836 133.8234057156369,44.12081707990728 134.37353068962693,35.14289793453645 131.07278084522113,32.54926559445448 127.13021853100508,35.14289793453645 126.4884060616605,44.32032570778392 129.78915590560064,46.714426913065836 133.5483432286419,44.22057139757089 134.37353068962693,35.242652923683636 130.79771835822612,32.3497552057961 127.22190602729097,34.943387933657505 126.4884060616605,44.42008001054637 129.51409341860563,46.714426913065836 132.17303079320118,46.31541034427937 133.8234057156369,44.22057139757089 134.46521818544716,34.943387933657505 130.98109334986657,32.44951040390879 127.22190602729097,35.04314293793868 126.67178105283529,44.02106275490951 129.69746841024607,46.714426913065836 133.45665573282167,44.918851411901414 134.55690568080172,35.04314293793868 130.98109334986657,32.44951040390879 127.3135935231112,34.6441228762269 126.58009355748072,43.72179973497987 129.33071842743084,46.714426913065836 133.45665573282167,44.8190971466247 134.46521818544716,35.44216287997551 131.5312183238566,32.54926559445448 127.49696851428598,34.344857751741074 126.4884060616605,44.22057139757089 129.51409341860563,46.81418103678152 133.5483432286419,44.918851411901414 134.46521818544716,35.34240790538024 131.5312183238566,32.54926559445448 126.39671856584027,34.5443678421434 125.84659359231591,44.7193428738974 123.64609369635582,48.50999999663327 124.83803113969043,55.293254270683974 116.67784402472898,57.088815803057514 114.2939691375941,66.7648557771463 110.35140682337806,71.05421186389867 115.2108440939337,72.75" stroke="#4dd2ff" stroke-linecap="round" stroke-linejoin="round" stroke-width="0.5"><title>2024-04-14 5.4km</title><desc>1713087921000</desc></polyline><polyline fill="none" points="155.47158850356936,59.52555917412974 161.29587196465582,71.09694749349728 172.18474974203855,71.64796507800929 177.75580348726362,62.556164391338825 178.009033203125,36.6581848654896 167.1201554266736,33.07653506426141 159.77649367041886,40.239831182407215 157.75065594445914,65.0357486223802 162.05556111223996,70.54592982702889 168.89276343677193,71.92347383964807 177.24934405554086,64.48473004833795 179.0219520656392,39.13778653298505 167.87984457425773,32.5255117083434 159.52326395455748,40.79085338418372 157.75065594445914,65.31125787831843 166.8669257108122,71.64796507800929 176.9961143406108,65.86227632802911 179.78164121322334,41.89289753930643 170.91860116180032,32.5255117083434 160.536182818003,38.035741552943364 158.2571153761819,64.76023934548721 167.1201554266736,72.19898258009925 176.7428846238181,66.6888038488105 179.2751817824319,41.066364453639835 169.65245258342475,32.80102339643054 160.2829531012103,39.13778653298505 157.49742622859776,64.2092207306996 165.60077713243663,72.75 176.9961143406108,66.13778552296571 179.78164121322334,42.16840852680616 171.93152002524585,33.07653506426141 160.536182818003,38.8622753189411 158.0038856593892,63.65820203279145 166.10723656322807,71.64796507800929 176.7428846238181,66.96431298158132 179.52841149643064,41.066364453639835 169.90568230021745,32.5255117083434 160.536182818003,38.58676408464089 158.0038856593892,63.93371139164083 164.08139883819968,71.64796507800929 172.69120917282999,71.09694749349728 177.24934405554086,66.41329469624907 179.2751817824319,40.51534229400568 169.90568230021745,32.5255117083434 160.536182818003,38.31125282892026 158.2571153761819,65.31125787831843 166.8669257108122,72.75 177.75580348726362,65.31125787831843 179.2751817824319,39.13778653298505 169.3992228684947,32.5255117083434 159.77649367041886,39.688808899139985 157.49742622859776,64.76023934548721 167.1201554266736,72.19898258009925 177.24934405554086,65.0357486223802 179.52841149643064,40.51534229400568 169.3992228684947,32.25 160.2829531012103,38.31125282892026 158.0038856593892,62.83167383191176 164.08139883819968,71.64796507800929 177.24934405554086,66.13778552296571 179.2751817824319,39.13778653298505 171.17183087859303,32.5255117083434 160.2829531012103,38.31125282892026 158.2571153761819,64.76023934548721 165.09431770071387,71.92347383964807 176.7428846238181,66.6888038488105 179.52841149643064,42.16840852680616 171.17183087859303,32.25 160.2829531012103,38.035741552943364 158.0038856593892,63.93371139164083 166.10723656322807,71.92347383964807 176.7428846238181,66.6888038488105 179.78164121322334,40.239831182407215 173.45089832041413,33.35204671067186 164.5878582689911,33.35204671067186 156.73773708194494,50.15821819193661 156.48450736608356,63.93371139164083 155.21835878677666,58.42352029518224" stroke="#4dd2ff" stroke-linecap="round" stroke-linejoin="round" stroke-width="0.5"><title>2024-04-13 4.9km</title><desc>1713000859000</desc></polyline><polyline fill="none" points="20.76353024877608,98.02553565707058 22.66033344063908,116.59875141317025 28.350743017159402,120.21019841521047 37.123457780107856,119.69427764648572 40.91706416383386,110.14972950192168 41.628365360200405,87.19111360167153 31.19594780448824,82.54777944274247 23.37163463793695,90.8025914025493 21.949032243341208,112.98730062856339 26.453939825296402,118.14651487767696 33.329851396381855,118.92039634939283 40.442863365635276,112.72933971392922 41.86546576023102,87.19111360167153 31.433048203587532,82.54777944274247 23.37163463793695,92.09240398649126 22.42323304153979,112.98730062856339 31.670148602686822,119.43631723383442 40.205762966535985,113.50322240102105 42.57676695752889,89.77074098819867 34.0411525927484,82.28981625009328 24.55713663250208,88.22296478739008 22.66033344063908,112.47137877903879 30.958847406320274,119.17835680069402 40.205762966535985,112.98730062856339 42.57676695752889,89.5127783366479 34.278252991847694,82.03185303858481 24.55713663250208,88.73889026534744 22.66033344063908,112.98730062856339 31.433048203587532,119.43631723383442 40.205762966535985,113.76118325837888 42.57676695752889,88.73889026534744 32.85565059725195,82.03185303858481 24.32003623433411,89.25481566507369 23.13453423883766,114.53506571403705 34.51535339187831,119.17835680069402 40.91706416383386,111.43953484878875 41.39126496203244,84.09555818978697 29.29914461262524,81.51592655782588 22.66033344063908,90.28666623355821 21.23773104697466,114.53506571403705 27.16524102166295,120.46815877081826 33.329851396381855,120.98407942405902 42.339666557498276,113.24526152433828 42.813867354765534,85.38537328247912 31.670148602686822,81.0 22.42323304153979,88.73889026534744 20.76353024877608,114.53506571403705 25.26843782979995,120.72611910710111 33.092750997282565,121.24203972192481 42.57676695752889,112.2134178255219 43.52516855299473,86.93315075710416 30.484646608121693,81.77388980798423 21.71193184517324,90.02870362065732 20.76353024877608,114.27710491418839 30.010445809923112,121.5 41.39126496203244,115.05098725412972 44.71067054755986,90.54462882806547 39.020260971970856,81.77388980798423 27.16524102166295,82.80574261513539 21.71193184517324,91.31851649424061 22.66033344063908,114.79302649386227 33.804052194580436,119.95223804097623 40.679963764734566,113.24526152433828 42.813867354765534,90.02870362065732 38.5460601747036,83.57963201822713 32.38144979998469,81.77388980798423 23.60873503703624,89.25481566507369 22.89743383973837,112.72933971392922 31.19594780448824,119.17835680069402 40.679963764734566,113.24526152433828 42.57676695752889,89.5127783366479 34.0411525927484,82.03185303858481 24.0829358343035,89.25481566507369 22.89743383973837,112.98730062856339 30.010445809923112,119.69427764648572 37.597658577375114,118.14651487767696 41.15416456293315,112.98730062856339 43.05096775479615,89.5127783366479 34.51535339187831,82.03185303858481 22.66033344063908,89.77074098819867 20.28932945150882,110.66565169813111" stroke="#4dd2ff" stroke-linecap="round" stroke-linejoin="round" stroke-width="0.5"><title>2024-04-12 5.1km</title><desc>1712913892000</desc></polyline><polyline fill="none" points="57.62500000046566,90.64225744310534 57.25,96.35418082267279 59.64999999990687,99.04693432769272 63.39999999990687,97.33336468454218 64.375,89.82626594719477 63.700000000186265,88.11268181877676 61.60000000009313,87.13348967942875 58.52499999990687,88.84707534621703 57.700000000186265,96.43577951123007 59.64999999990687,98.80213882919634 63.47500000009313,97.17016743519343 64.29999999981374,89.82626594719477 61.97500000009313,87.21508905803785 58.6750000002794,88.6838768273592 57.77500000037253,96.35418082267279 60.25000000046566,98.96533583430573 63.325000000186265,97.57816051249392 64.375,90.15266261884244 61.97500000009313,87.13348967942875 58.6750000002794,88.6838768273592 57.77500000037253,96.27258212782908 59.575000000186265,98.80213882919634 63.325000000186265,97.57816051249392 64.2250000005588,89.66306757472921 61.825000000186265,87.29668843047693 58.6750000002794,88.60227755858796 57.77500000037253,95.94618728756905 59.35000000009313,98.63894179952331 61.60000000009313,98.80213882919634 63.47500000009313,97.33336468454218 64.29999999981374,90.23426177143119 63.5500000002794,88.0310825072811 59.64999999990687,87.45988715690328 58.3000000002794,89.49986917799106 57.25,97.41496329999063 65.20000000018626,100.35250939178513 67.75,99.53652515972499 70.89999999990687,96.43577951123007 75.47500000009313,97.90455486462452 76.52499999990687,100.02611577231437 76.29999999981374,105.9011859818711 80.5749999997206,111.61302946129581 87.9250000002794,114.30574529996375 95.5,115.36651032062946 97.75,113.89775847888086 97.52499999990687,100.18931259418605 96.54999999981374,100.59730454231612 96.25,103.29004757280927" stroke="#4dd2ff" stroke-linecap="round" stroke-linejoin="round" stroke-width="0.5"><title>2024-04-11 3.0km</title><desc>1712828151000</desc></polyline><polyline fill="none" points="112.77353412657976,89.62261999282055 111.81289552152157,113.4000375685282 115.41529028955847,119.40968891256489 122.13976052310318,121.23871118319221 133.1871044775471,114.18390572117642 134.86822203639895,88.57745506730862 124.78151668515056,81.0 114.93497098702937,85.96454138378613 112.05305517278612,112.87745870254003 119.49800436012447,120.71613348950632 128.14375180192292,119.67097786720842 132.706785175018,114.96777369873598 135.10838168673217,90.40649348217994 127.18311319872737,81.78387542441487 119.7381640104577,82.30645894352347 114.69481133576483,87.53228982840665 111.3325762199238,112.61616923939437 121.17912191804498,121.5 132.706785175018,116.0129307275638 135.82886064052582,94.06456743972376 134.86822203639895,86.48712427704595 130.30518866330385,82.56775067304261 121.17912191804498,81.2612918280065 115.6554499398917,84.13550064247102 109.17113935854286,94.06456743972376 112.05305517278612,113.13874814496376 116.85624819621444,120.19355571712367 125.9823149414733,120.97742234542966 132.46662552375346,115.49035225249827 134.6280623851344,92.23553093988448 128.624071104452,81.78387542441487 121.41928156930953,81.0 114.93497098702937,84.91937536327168 112.05305517278612,112.87745870254003 118.53736575413495,120.71613348950632 127.18311319872737,120.45484461332671 133.42726412881166,113.13874814496376 135.58870098926127,91.45165786077268 131.98630622122437,84.65808380884118 125.02167633734643,81.2612918280065 114.69481133576483,85.70324990805238 111.81289552152157,112.3548797571566 118.77752540633082,120.45484461332671 127.18311319872737,120.19355571712367 133.66742377914488,113.4000375685282 135.34854133799672,91.45165786077268 128.86423075571656,81.78387542441487 116.61608854494989,82.82904238370247 113.01369377691299,89.88391117542051 112.77353412657976,115.75164149980992 124.54135703481734,120.97742234542966 132.706785175018,113.4000375685282 133.66742377914488,89.88391117542051 130.30518866330385,83.87420903029852 123.58071842975914,82.30645894352347 114.93497098702937,89.1000375689473 113.01369377691299,112.61616923939437 122.8602394759655,120.45484461332671 132.22646587248892,114.18390572117642 133.90758343134075,91.71294890646823 131.50598691869527,85.44195841229521 125.02167633734643,82.30645894352347 114.93497098702937,88.83874632744119 111.81289552152157,112.87745870254003 121.17912191804498,121.5 127.66343250032514,120.97742234542966 130.5453483145684,116.0129307275638 133.66742377914488,91.1903667957522 125.9823149414733,82.82904238370247 119.97832366172224,83.35162574588321 115.1751306373626,89.1000375689473 113.01369377691299,111.83230073470622 121.41928156930953,119.93226680229418 131.50598691869527,115.49035225249827 133.66742377914488,89.88391117542051 125.50199563894421,82.56775067304261 115.41529028955847,89.1000375689473 113.25385342817754,112.3548797571566 121.17912191804498,120.19355571712367 131.74614657089114,113.66132697300054 133.66742377914488,89.88391117542051 124.54135703481734,82.82904238370247 114.93497098702937,89.36132879066281 113.01369377691299,112.61616923939437 123.10039912816137,120.45484461332671 131.50598691869527,114.70648439228535 133.42726412881166,89.1000375689473 125.26183598861098,82.82904238370247 115.1751306373626,87.79358116723597 112.29321482405066,112.3548797571566 120.21848331391811,120.19355571712367 131.50598691869527,115.49035225249827 134.6280623851344,91.1903667957522 125.50199563894421,82.82904238370247 119.2578447079286,83.87420903029852 113.01369377691299,90.9290757109411 111.09241656772792,111.83230073470622" stroke="#4dd2ff" stroke-linecap="round" stroke-linejoin="round" stroke-width="0.5"><title>2024-04-09 5.6km</title><desc>1712653834000</desc></polyline><polyline fill="none" points="156.84763161372393,88.38682837155648 156.3793956404552,112.33023086609319 160.3594014113769,119.46227566013113 165.9782330878079,120.48113798210397 172.5335367107764,119.20756003120914 177.2158964406699,113.09437923692167 179.32295832037926,87.87739244638942 175.34295254945755,82.52831063326448 168.08529496658593,81.0 158.4864575183019,88.641546305269 156.84763161372393,113.34909532265738 167.38294100761414,120.99056902900338 177.2158964406699,113.09437923692167 178.8547223461792,89.15098211634904 173.2358906697482,82.27359224227257 168.3194129532203,81.76415540231392 158.4864575183019,89.15098211634904 155.91115966718644,111.82079852349125 160.3594014113769,118.95284438459203 167.14882302004844,120.99056902900338 177.4500144282356,112.83966313279234 179.5570763060823,90.16985350870527 170.66059281863272,81.25471848645248 161.7641093302518,83.03774735890329 157.7841035593301,88.132110418519 156.3793956404552,113.85852743685246 166.44646906014532,120.73585351509973 176.98177845496684,113.85852743685246 179.32295832037926,88.132110418519 176.04530650842935,83.29246569261886 168.78764892648906,81.25471848645248 158.01822154596448,88.641546305269 156.3793956404552,114.36795947398059 166.44646906014532,121.5 176.74766046833247,114.36795947398059 179.32295832037926,87.62267445586622 168.55353093985468,81.50943695451133 158.4864575183019,87.36795644601807 155.67704167962074,113.34909532265738 163.63705322239548,121.5 169.9582388587296,120.73585351509973 176.27942449506372,114.36795947398059 179.08884033374488,88.132110418519 176.04530650842935,83.29246569261886 168.08529496658593,81.25471848645248 157.7841035593301,88.89626422012225 156.14527765475214,114.36795947398059 160.12528342567384,119.71699126856402 166.44646906014532,121.24528452428058 176.74766046833247,114.62267546495423 179.5570763060823,88.89626422012225 176.5135424816981,83.54718400724232 168.55353093985468,81.50943695451133 158.01822154596448,87.36795644601807 155.44292369484901,111.82079852349125 163.16881724912673,120.73585351509973 170.42647483106703,120.73585351509973 176.27942449506372,115.64153923536651 179.79119429271668,93.73590098135173 175.10883456189185,82.27359224227257 161.0617553703487,83.29246569261886 157.31586758606136,89.66041785036214 156.61351362708956,115.13210738776252 161.9982273168862,120.48113798210397 168.55353093985468,120.99056902900338 177.68413241300732,112.07551470515318 179.32295832037926,89.66041785036214 175.5770705351606,83.54718400724232 166.44646906014532,81.25471848645248 157.7841035593301,88.132110418519 155.67704167962074,113.34909532265738 166.21235107444227,121.5 176.98177845496684,114.36795947398059 179.32295832037926,88.641546305269 176.74766046833247,84.05662058060989 168.78764892648906,81.0 161.7641093302518,83.54718400724232 157.31586758606136,90.16985350870527 157.54998557269573,113.09437923692167 166.68058704771101,119.46227566013113 175.5770705351606,113.60381138930097 177.2158964406699,88.89626422012225 169.49000288639218,82.52831063326448 157.08174959942698,90.93400685302913 155.20880570728332,110.29250103840604" stroke="#4dd2ff" stroke-linecap="round" stroke-linejoin="round" stroke-width="0.5"><title>2024-04-08 5.0km</title><desc>1712568268000</desc></polyline><polyline fill="none" points="20.96717390231788,144.658032894833 23.479274636134505,163.78991040377878 29.645340075716376,167.2684217481874 37.18164227809757,165.28070142609067 42.20584374573082,158.8206021648366 41.52072536479682,133.2285469940398 31.01557683944702,129.75 22.565783459693193,138.694827767089 22.109037871472538,163.54144516889937 27.818357722833753,168.0138165615499 37.638387866318226,166.7714917792473 41.749098158441484,159.56599887483753 41.97747095301747,133.47701449738815 29.18859448749572,130.74387094192207 22.109037871472538,141.6764316689223 21.880665078759193,162.79604935110547 28.503476104699075,167.76535164238885 37.18164227809757,166.7714917792473 42.20584374573082,159.56599887483753 41.749098158441484,132.98007947253063 29.645340075716376,130.74387094192207 22.794156254269183,137.94942637323402 21.19554669689387,161.55372261675075 31.243949633091688,168.7592112084385 41.52072536479682,161.0567917926237 43.11933492310345,137.70095920516178 39.23699742462486,131.48927395278588 33.07093198597431,130.24693550844677 26.676493752747774,131.98620920046233 23.25090184248984,137.45249201753177 21.880665078759193,162.29911871277727 25.99137536995113,167.2684217481874 34.89791433792561,167.76535164238885 41.749098158441484,161.0567917926237 42.43421654123813,135.21628649812192 34.669541544280946,129.9984677634202 23.479274636134505,136.7070903449785 21.423919490538538,161.0567917926237 25.30625698901713,166.7714917792473 31.01557683944702,168.0138165615499 41.29235257115215,162.54758404172026 43.57608051132411,138.694827767089 40.37886139471084,132.73161193262786 32.614186397753656,130.74387094192207 25.534629782661796,134.22241689520888 22.337410666048527,140.43409703532234 21.880665078759193,164.78377116005868 25.534629782661796,168.7592112084385 33.52767757419497,169.00767605379224 41.29235257115215,160.80832635308616 43.57608051132411,137.20402481174096 33.29930477961898,130.4954032341484 23.479274636134505,136.95555758778937 20.73880110681057,162.05065336613916 28.731848899275064,170.00153524777852 41.29235257115215,161.30525721400045 43.34770771674812,137.70095920516178 39.00862463004887,131.2408063011244 33.07093198597431,130.24693550844677 23.022529048845172,137.45249201753177 21.652292284183204,162.05065336613916 32.157440809533,168.26228146255016 41.29235257115215,160.31139541743323 43.11933492310345,135.96168850548565 33.29930477961898,130.74387094192207 23.022529048845172,137.94942637323402 21.423919490538538,161.0567917926237 25.99137536995113,166.7714917792473 32.842559192329645,168.26228146255016 41.52072536479682,160.31139541743323 43.11933492310345,135.96168850548565 39.00862463004887,131.48927395278588 30.3304584575817,130.74387094192207 22.109037871472538,141.17949787154794 21.423919490538538,164.53530599875376 25.30625698901713,169.00767605379224 34.669541544280946,168.51074634492397 41.749098158441484,159.56599887483753 41.97747095301747,133.97394944750704 31.700695222243667,129.75 22.794156254269183,137.94942637323402 21.423919490538538,161.30525721400045 28.04673051647842,167.76535164238885 34.669541544280946,167.5168867041357 41.97747095301747,159.31753332400694 43.11933492310345,136.45862308354117 39.23699742462486,131.48927395278588 31.472322427667677,130.4954032341484 22.565783459693193,138.694827767089 22.337410666048527,163.04451464186423 28.731848899275064,168.7592112084385 37.18164227809757,167.5168867041357 42.66258933581412,153.10588849941269 40.37886139471084,134.22241689520888 27.361612134613097,132.48314437363297 21.19554669689387,146.39729904057458 22.109037871472538,166.27456173556857 27.361612134613097,169.75307047762908 36.03977830801159,168.0138165615499 41.97747095301747,159.06906775361858 43.804453304968774,139.4402289937716 41.52072536479682,133.2285469940398 33.52767757419497,130.74387094192207 26.676493752747774,132.73161193262786 21.19554669689387,146.14883250417188 22.109037871472538,166.27456173556857 27.13323934096843,169.50460568792187 36.26815110165626,167.76535164238885 41.97747095301747,159.06906775361858 41.749098158441484,133.97394944750704 29.873712869361043,130.4954032341484 22.337410666048527,140.6825639992021 22.794156254269183,163.78991040377878 29.873712869361043,169.50460568792187 37.86676065996289,169.00767605379224 42.20584374573082,163.04451464186423 42.43421654123813,134.96781912492588 28.960221693851054,130.4954032341484 21.880665078759193,139.93716305145063 20.73880110681057,163.29297991492786 24.392765812575817,168.7592112084385 32.38581360317767,170.00153524777852 41.97747095301747,160.55986089422368 42.890962129458785,135.71322118793614 30.10208566300571,130.74387094192207 21.652292284183204,140.93103094492108 20.96717390231788,164.78377116005868 25.30625698901713,169.2561408802867 32.614186397753656,169.75307047762908 39.46537021826953,166.27456173556857 42.66258933581412,159.81446440774016 43.57608051132411,135.71322118793614 31.01557683944702,130.24693550844677 21.880665078759193,138.9432948611211 20.96717390231788,163.78991040377878 25.077884195372462,168.51074634492397 33.52767757419497,170.25 41.749098158441484,163.54144516889937 43.57608051132411,136.7070903449785 40.37886139471084,132.23467679601163 31.700695222243667,130.24693550844677 22.565783459693193,137.45249201753177 20.05368272587657,161.55372261675075 23.022529048845172,167.0199567724485 29.645340075716376,169.75307047762908 41.29235257115215,163.54144516889937 43.804453304968774,138.694827767089 33.756050367839634,130.24693550844677 23.479274636134505,136.7070903449785 20.96717390231788,161.0567917926237 31.92906801495701,169.75307047762908 42.20584374573082,163.78991040377878 44.48957168776542,139.93716305145063 40.15048860013485,132.98007947253063 33.756050367839634,130.74387094192207 23.022529048845172,137.45249201753177 20.73880110681057,161.8021880008746 24.164393017999828,167.2684217481874 31.92906801495701,169.75307047762908 42.43421654123813,162.29911871277727 44.03282609861344,139.93716305145063 41.06397977657616,133.97394944750704 33.29930477961898,130.24693550844677 22.794156254269183,137.70095920516178 21.19554669689387,162.54758404172026 24.849511400796473,167.5168867041357 31.92906801495701,169.50460568792187 41.52072536479682,163.29297991492786 43.57608051132411,138.9432948611211 33.07093198597431,130.74387094192207 22.794156254269183,138.694827767089 20.96717390231788,162.79604935110547 32.38581360317767,169.00767605379224 41.97747095301747,161.8021880008746 44.03282609861344,138.19789352314547 32.38581360317767,130.4954032341484 22.565783459693193,138.694827767089 21.19554669689387,161.8021880008746 32.157440809533,169.00767605379224 41.749098158441484,162.29911871277727 43.34770771674812,137.94942637323402 38.55187904275954,131.73774158628657 31.92906801495701,130.74387094192207 23.022529048845172,139.19176193629391 20.73880110681057,162.05065336613916 30.787204045802355,169.75307047762908 41.749098158441484,164.28684081928805 44.94631727505475,140.18563005304895 40.835606982931495,132.48314437363297 27.818357722833753,131.73774158628657 22.565783459693193,139.4402289937716 21.19554669689387,158.8206021648366" stroke="#4dd2ff" stroke-linecap="round" stroke-linejoin="round" stroke-width="0.5"><title>2024-04-06 11.8km</title><desc>1712394949000</desc></polyline><polyline fill="none" points="67.8312330134213,165.25327198463492 76.77484247554094,170.25 85.23501358833164,163.14938437961973 88.13564368430525,140.26952537568286 85.23501358833164,132.642872616183 76.291404126212,130.53896549507044 70.49014393426478,134.48379031475633 67.10607548896223,158.15264627174474 73.39077403023839,168.14611538592726 85.23501358833164,163.93834237894043 88.37736285943538,138.95458642556332 83.78469854034483,132.3798842949327 75.80796577688307,131.59091921313666 70.24842475913465,135.79873093706556 67.34779466409236,160.2565368670039 73.63249320536852,168.40910103125498 84.5098560648039,164.99028610251844 87.652205334045,139.48056206433102 82.33438349235803,131.8539075939916 74.59936990402639,131.8539075939916 70.00670558493584,136.587695075199 67.34779466409236,159.4675780411344 72.42389733158052,167.88312972034328 84.7515752390027,164.72730020130984 87.89392450917512,139.48056206433102 80.88406844437122,131.32793081342243 69.76498641073704,136.06171900290065 66.62263714056462,161.834453987889 75.56624660268426,168.9350722641684 85.47673276253045,162.88639834034257 88.13564368430525,139.74354985402897 84.99329441320151,133.43183746212162 78.95031504705548,130.80195395438932 69.03982888534665,136.85068308119662 66.62263714056462,159.99355061142705 74.59936990402639,168.6720866577234 85.71845193766057,162.62341228174046 87.89392450917512,139.21757425460964 78.70859587285668,130.80195395438932 69.52326723653823,136.587695075199 67.34779466409236,160.78250931878574 75.56624660268426,168.9350722641684 85.71845193766057,162.62341228174046 87.652205334045,137.6396469825413 77.98343834932894,131.0649423939176 69.52326723653823,136.85068308119662 67.58951383829117,161.57146784942597 77.01656165067106,168.6720866577234 86.20189028698951,162.09744010469876 88.13564368430525,138.42861070716754 79.43375339638442,131.0649423939176 69.03982888534665,137.6396469825413 67.34779466409236,161.57146784942597 76.04968495108187,168.9350722641684 85.9601711127907,162.88639834034257 88.13564368430525,138.6915985760279 78.46687669865787,131.0649423939176 69.03982888534665,137.6396469825413 67.10607548896223,161.57146784942597 77.01656165067106,168.9350722641684 85.71845193766057,162.88639834034257 87.89392450917512,138.6915985760279 79.67547257151455,130.80195395438932 69.2815480614081,136.587695075199 67.34779466409236,160.51952310232446 75.08280825335532,168.6720866577234 82.09266431815922,167.357158330502 85.9601711127907,162.62341228174046 88.13564368430525,137.90263491054066 79.43375339638442,130.80195395438932 69.76498641073704,136.32470704917796 67.10607548896223,160.51952310232446 74.35765072982758,168.6720866577234 85.47673276253045,163.67535639903508 87.89392450917512,138.95458642556332 80.15891091991216,130.27597701689228 70.00670558493584,135.79873093706556 67.10607548896223,160.78250931878574 75.32452742662281,168.6720866577234 82.81782184168696,167.09417260624468 86.44360946118832,161.834453987889 87.41048616077751,137.37665903521702 77.7417191741988,130.53896549507044 69.03982888534665,137.1136710678693 67.34779466409236,162.36042620264925 76.291404126212,168.9350722641684 85.9601711127907,162.09744010469876 87.89392450917512,138.6915985760279 78.70859587285668,130.80195395438932 68.79810971207917,138.16562281921506 67.34779466409236,160.78250931878574 76.04968495108187,168.6720866577234 85.71845193766057,163.14938437961973 87.89392450917512,138.95458642556332 77.98343834932894,130.80195395438932 69.2815480614081,137.37665903521702 67.34779466409236,161.834453987889 73.14905485603958,168.40910103125498 85.23501358833164,163.93834237894043 88.37736285943538,139.21757425460964 78.70859587285668,130.53896549507044 69.76498641073704,136.32470704917796 67.8312330134213,161.30848169210367 77.01656165067106,168.9350722641684 85.9601711127907,162.09744010469876 88.13564368430525,138.95458642556332 83.5429793652147,132.11689595435746 77.7417191741988,130.53896549507044 69.52326723653823,137.37665903521702 67.34779466409236,161.04549551592208 77.01656165067106,168.9350722641684 85.71845193766057,163.93834237894043 87.89392450917512,138.16562281921506 78.70859587285668,130.0129885179922 70.24842475913465,134.74677847861312 67.34779466409236,161.04549551592208 70.73186310939491,166.8311868624296 77.25828082486987,168.9350722641684 86.44360946118832,161.57146784942597 87.89392450917512,138.16562281921506 83.30126019194722,131.59091921313666 77.01656165067106,130.27597701689228 69.52326723653823,136.587695075199 67.58951383829117,161.834453987889 77.98343834932894,169.4610434176866 85.9601711127907,163.14938437961973 87.652205334045,138.16562281921506 78.22515752352774,129.75 69.2815480614081,136.587695075199 67.10607548896223,160.2565368670039 74.59936990402639,168.6720866577234 85.71845193766057,163.4123703991063 87.652205334045,138.42861070716754 79.43375339638442,130.53896549507044 73.14905485603958,131.32793081342243 69.2815480614081,137.6396469825413 67.34779466409236,161.04549551592208 76.53312330134213,168.9350722641684 86.20189028698951,162.62341228174046 87.652205334045,138.95458642556332 78.95031504705548,130.27597701689228 69.2815480614081,137.37665903521702 67.58951383829117,162.09744010469876 76.291404126212,169.4610434176866 85.9601711127907,162.62341228174046 87.652205334045,137.37665903521702 83.78469854034483,132.11689595435746 76.291404126212,130.53896549507044 69.2815480614081,137.37665903521702 67.8312330134213,162.09744010469876 77.7417191741988,168.9350722641684 86.20189028698951,161.30848169210367 87.89392450917512,137.6396469825413 77.25828082486987,130.27597701689228 70.49014393426478,135.00976662244648 66.86435631476343,143.9513518200256 66.62263714056462,164.20132833905518" stroke="#4dd2ff" stroke-linecap="round" stroke-linejoin="round" stroke-width="0.5"><title>2024-04-03 9.7km</title><desc>1712137473000</desc></polyline><polyline fill="none" points="108.02370883151889,154.36770230717957 114.5927821341902,153.04417428094894 112.15979202277958,160.19121973752044 117.51237026881427,168.39706894243136 129.92061984259635,168.39706894243136 136.9762911684811,142.4559322546702 133.08350698836148,131.33824402699247 123.83814456127584,129.75 117.2690712576732,133.45590162021108 114.34948312398046,159.92651460808702 117.75566928088665,168.9264779149089 126.2711346745491,168.9264779149089 132.59690896607935,164.42649912275374 135.27319808956236,140.0735734316986 129.43402182031423,132.13236577343196 117.51237026881427,136.8970925072208 114.34948312398046,162.0441550926771 121.89175247214735,169.45588680892251 132.59690896607935,163.8970894771628 134.78660006728023,139.80886679701507 127.97422775253654,131.33824402699247 117.2690712576732,136.8970925072208 114.5927821341902,162.8382699470967 122.86494851671159,169.98529562307522 132.59690896607935,164.16179430997 135.27319808956236,139.54416014254093 128.70412478689104,131.86765854386613 121.89175247214735,132.6617801708635 116.78247323539108,137.9559197986964 114.10618411190808,162.0441550926771 122.13505148328841,170.25 132.35360995586962,164.16179430997 135.02989907935262,138.75004005990922 128.70412478689104,131.86765854386613 116.78247323539108,137.6912130054552 114.10618411190808,160.72062993841246 117.2690712576732,167.60295533505268 124.0814435724169,169.98529562307522 133.32680599950254,163.1029748597648 135.02989907935262,139.014746773988 128.46082577481866,131.60295129544102 123.10824752785265,131.60295129544102 116.78247323539108,137.4265061924234 114.10618411190808,160.98533500847407 121.4051544489339,169.98529562307522 132.11031094379723,165.22061344329268 135.27319808956236,140.0735734316986 130.40721786487848,132.13236577343196 124.0814435724169,131.86765854386613 117.02577224746346,137.4265061924234 114.34948312398046,161.51474509085529 119.94536038208753,169.19118237216026 132.59690896607935,167.86765989055857" stroke="#4dd2ff" stroke-linecap="round" stroke-linejoin="round" stroke-width="0.5"><title>2024-04-02 3.0km</title><desc>1712049520000</desc></polyline><polyline fill="none" points="159.43029741756618,142.4948019622825 157.86841949820518,164.58569039520808 162.55405325628817,169.40035409969278 169.58250389248133,169.68356942152604 174.78876362368464,163.73604322387837 177.3918934892863,135.69757958804257 168.541251947172,129.75 160.21123637724668,136.54723305231892 157.60810651257634,163.73604322387837 162.03342728409916,169.11713875760324 169.32219090685248,169.68356942152604 174.78876362368464,163.45282745733857 177.3918934892863,135.98079743073322 168.80156493280083,129.75 160.21123637724668,136.26401525200345 157.34779352601618,162.88639586116187 166.45874805562198,170.25 174.78876362368464,164.01925896899775 177.65220647491515,137.11366858915426 169.8428168790415,129.75 160.21123637724668,136.26401525200345 157.34779352601618,163.16961167030968 165.67780909594148,170.25 174.52845063712448,164.58569039520808 177.65220647491515,137.39688632590696 170.10312986653298,129.75 160.21123637724668,135.98079743073322 157.34779352601618,162.88639586116187 165.15718312188983,170.25 174.52845063712448,164.58569039520808 177.9125194614753,137.96332173561677 170.88406882621348,130.03321828809567 160.47154936473817,135.41436172416434 157.34779352601618,162.31996418139897 165.67780909594148,170.25 174.52845063712448,164.58569039520808 177.65220647491515,137.39688632590696 169.8428168790415,129.75 160.47154936473817,135.41436172416434 157.34779352601618,162.88639586116187 165.93812208157033,170.25 174.78876362368464,163.73604322387837 177.65220647491515,137.6801040417049 169.58250389248133,129.75 160.21123637724668,136.54723305231892 157.34779352601618,163.16961167030968 165.93812208157033,170.25 174.78876362368464,164.01925896899775 177.65220647491515,136.83045083167963 169.32219090685248,129.75 160.21123637724668,136.54723305231892 157.34779352601618,162.60318003152497 160.73186235129833,168.2674926025793 167.7603129874915,169.96678472170606 174.78876362368464,163.73604322387837 177.65220647491515,137.11366858915426 168.80156493280083,129.75 160.21123637724668,136.54723305231892 157.34779352601618,162.31996418139897 165.15718312188983,170.25 174.52845063712448,164.58569039520808 177.9125194614753,138.52975706011057 170.623755838722,130.03321828809567 160.73186235129833,135.131143839797 157.34779352601618,162.31996418139897 163.33499221596867,169.68356942152604 174.52845063712448,164.58569039520808 177.9125194614753,137.96332173561677 171.144381810911,130.03321828809567 161.25248832348734,133.99827208812349 157.0874805385247,161.47031650110148 160.47154936473817,168.2674926025793 167.5,170.25 173.74751167744398,166.00176859134808 177.9125194614753,139.6626274564769 172.706259730272,130.59965479862876 162.81436624284834,132.01574570708908 158.38904547225684,165.43533737654798 163.855618189089,169.96678472170606 170.88406882621348,168.83392339362763 176.09032855648547,155.23956102016382" stroke="#4dd2ff" stroke-linecap="round" stroke-linejoin="round" stroke-width="0.5"><title>2024-03-30 4.8km</title><desc>1711782999000</desc></polyline><polyline fill="none" points="20.85143481940031,195.0306660379283 22.624042563140392,213.76533118472435 27.941865798085928,218.17347384011373 36.04521549027413,217.62245629681274 42.12272775731981,209.63269265345298 41.6162684019655,181.5306276618503 29.4612438660115,179.32653506379575 22.87727224174887,186.76534229377285 22.87727224174887,212.938803849509 29.967703220434487,219.0 37.81782323401421,217.07143867062405 42.375957435928285,209.63269265345298 44.14856518059969,188.96943043963984 41.36303872335702,180.97960463585332 32.49999999906868,178.5 26.422487731091678,182.3571620453149 21.864353529177606,209.0816738321446 24.39665030874312,215.41838529892266 31.740310966968536,219.0 42.12272775731981,211.56125787831843 43.13564646895975,183.73471894022077 32.24677032139152,179.0510233968962 23.383731596171856,187.04085338371806 23.383731596171856,215.14287633099593 33.00645935535431,218.72449130075984 40.350120012648404,214.31634930474684 43.64210582431406,189.24494136497378 41.86949807964265,182.3571620453149 36.29844516608864,178.7755117090419 24.90310966409743,183.4592076027766 21.61112385150045,210.73473004810512 27.941865798085928,218.17347384011373 40.09689033497125,213.76533118472435 43.64210582431406,188.96943043963984 38.324282590299845,180.15306994249113 24.90310966409743,180.15306994249113" stroke="#4dd2ff" stroke-linecap="round" stroke-linejoin="round" stroke-width="0.5"><title>2024-03-28 2.0km</title><desc>1711615120000</desc></polyline><polyline fill="none" points="67.26319372002035,195.71255923132412 64.70399214886129,196.21880964795128 67.26319372002035,198.24381055659615 64.47133746091276,196.97818513051607 67.26319372002035,197.73756044334732 67.96115778479725,213.68440263648517 73.07956092432141,218.24062945926562 81.22247501183301,218.4937529915478 88.20211565680802,209.88754226407036 89.36538909748197,183.30940036475658 83.78167658206075,179.0062529919669 76.80203593615443,179.0062529919669 68.65912184957415,188.11879389337264 67.0305390311405,211.15316286194138 75.871417183429,219.0 87.03884221613407,212.41878298553638 89.13273441046476,185.84066096926108 85.6429140875116,179.7656323374249 80.05920157022774,178.5 69.58974060136825,185.5875349934213 67.96115778479725,209.1281696781516 71.21832341887057,215.45626935223117 77.03469062410295,217.73438233789057 85.87556877639145,212.41878298553638 88.20211565680802,187.86566808866337 80.05920157022774,180.018758748658 70.75301404297352,185.84066096926108 69.1244312254712,210.9000387797132 77.5,217.73438233789057 86.5735328393057,210.9000387797132 87.9694609688595,185.08128298656084 79.59389219339937,179.5125059077982 70.75301404297352,186.60003878059797 68.89177653659135,210.14066642150283 76.10407187137753,217.73438233789057 86.34087815135717,210.9000387797132 87.9694609688595,186.8531646800693 78.66327344160527,179.0062529919669 70.98566872999072,185.84066096926108 68.4264671606943,210.14066642150283 76.5693812482059,217.73438233789057 86.80618752725422,210.9000387797132 88.66742503363639,186.8531646800693 80.52451094705611,179.5125059077982 71.21832341887057,185.5875349934213 68.65912184957415,209.88754226407036 70.28770466614515,215.20314559270628 76.10407187137753,217.2281351403799 86.5735328393057,211.65941096819006 88.66742503363639,188.37191967945546 80.75716563500464,180.52501151314937 70.98566872999072,185.33440899918787 68.65912184957415,210.9000387797132 77.03469062410295,217.4812587480992 86.5735328393057,211.15316286194138 88.43477034568787,185.84066096926108 79.82654688227922,180.018758748658 70.98566872999072,186.60003878059797 68.65912184957415,210.3937905607745 77.03469062410295,217.73438233789057 84.47964064683765,216.72188786650077 87.9694609688595,211.9125349931419 90.52866253908724,187.61254226532765" stroke="#4dd2ff" stroke-linecap="round" stroke-linejoin="round" stroke-width="0.5"><title>2024-03-26 3.7km</title><desc>1711445960000</desc></polyline><polyline fill="none" points="111.58073669858277,209.55004064831883 120.514679399319,219.0 131.18577762506902,212.79002949944697 133.1710982248187,185.52003255928867 127.71146657504141,178.5 114.80688267480582,183.09002283401787 111.33257162477821,208.74004298099317 113.56605729926378,214.9500204504002 121.25917462445796,218.730001504533 130.68944747373462,213.33002735790797 133.66742837429047,186.87003725557588 128.70412687398493,178.77000150457025 115.55137789901346,184.17002735869028 112.32523192465305,199.8300566454418 115.30321282334626,214.9500204504002 121.75550477392972,217.9200058982242 127.71146657504141,215.49001798639074 132.9229331491515,188.4900422245264 128.70412687398493,180.66001147241332 121.50733969919384,179.85000732145272 116.5440381988883,183.9000262580812 113.3178922245279,207.6600458091125 118.77752387337387,217.110010109609 128.95229194965214,213.87002513650805 132.9229331491515,187.4100389922969 127.21513642370701,179.58000589790754 116.5440381988883,184.17002735869028 113.3178922245279,208.20004443568178 119.02568894904107,217.110010109609 128.70412687398493,213.87002513650805 131.18577762506902,182.5500204502605 122.74816507380456,179.04000298911706 115.79954297281802,186.06003449857235 113.56605729926378,211.44003449799493 118.0330286482349,216.57001281599514 124.98165074922144,216.84001147234812" stroke="#4dd2ff" stroke-linecap="round" stroke-linejoin="round" stroke-width="0.5"><title>2024-03-25 2.1km</title><desc>1711359274000</desc></polyline><polyline fill="none" points="172.63033338356763,215.10578976827674 177.4027365297079,188.62504431023262 171.9144729115069,180.31731782038696 159.50622473005205,185.76926557230763 156.881403000094,207.8365856455639 164.0400077207014,217.44231643225066 174.53929464146495,213.28849016525783 177.4027365297079,188.62504431023262 170.4827519673854,180.57693457440473 159.50622473005205,186.02888191887178 156.881403000094,209.39427352510393 164.51724803447723,217.44231643225066 174.77791479974985,212.50964718684554 177.4027365297079,187.58657958637923 170.24413181003183,180.57693457440473 159.50622473005205,185.76926557230763 157.12002315744758,209.653888103785 159.2676045736298,215.10578976827674 165.9489689785987,217.70193040836602 175.0165349561721,211.47118961019441 177.4027365297079,189.14427655516192 171.19861243944615,180.57693457440473 159.50622473005205,184.73079999396577 157.12002315744758,209.653888103785 164.51724803447723,217.96154436608776 174.3006744850427,213.02887585875578 177.4027365297079,188.62504431023262 170.721372124739,180.0577010475099 159.74484488833696,184.47118355124258 156.881403000094,210.1731172024738 159.2676045736298,215.36540392017923 166.42620929237455,218.22115830378607 175.2551551135257,211.21157516818494 177.16411637235433,187.32696335669607 169.76689149532467,180.0577010475099 163.08552709035575,181.35578471934423 159.02898441627622,186.54811455169693 157.35864331480116,211.47118961019441 166.66482945065945,217.70193040836602 175.4937752718106,210.4327317236457 177.16411637235433,187.58657958637923 170.24413181003183,180.0577010475099 159.2676045736298,186.54811455169693 157.12002315744758,210.69234622386284 165.47172866482288,217.44231643225066 174.53929464146495,212.50964718684554 177.16411637235433,187.32696335669607 168.81241086684167,180.0577010475099 159.02898441627622,186.28849824517965 157.35864331480116,210.95196070545353 165.47172866482288,217.96154436608776 175.0165349561721,212.50964718684554 177.4027365297079,187.58657958637923 173.34619385562837,180.83655130909756 159.98346504569054,184.47118355124258 157.12002315744758,208.09620034042746 162.84690693300217,217.44231643225066 174.3006744850427,213.5481044522021 177.4027365297079,188.10581198707223 170.00551165267825,180.31731782038696 159.50622473005205,185.25003282236867 157.12002315744758,209.91350266244262 163.8013875624165,217.18270243611187 174.0620543276891,214.32694719778374 177.6413566879928,188.88466044235975 172.8689535409212,180.83655130909756 165.47172866482288,180.0577010475099 159.74484488833696,185.25003282236867 155.4496820550412,207.8365856455639 157.35864331480116,214.84617559798062 164.0400077207014,219.0 170.24413181003183,218.74038612097502 175.97101558558643,213.28849016525783 179.55031794589013,189.40389264840633 173.1075736982748,179.01923376019113 165.23310850653797,178.5 158.31312394421548,184.2115670889616 155.4496820550412,209.13465892663226 162.84690693300217,218.22115830378607 175.2551551135257,216.14424625807442" stroke="#4dd2ff" stroke-linecap="round" stroke-linejoin="round" stroke-width="0.5"><title>2024-03-24 4.9km</title><desc>1711273464000</desc></polyline><polyline fill="none" points="21.08136542327702,256.5690677543171 23.136719647794962,263.77456173603423 28.84603693615645,267.50153524801135 35.468844990246,266.25921120890416 40.949789587408304,260.7929799151607 43.23351650312543,234.70402481220663 41.40653496980667,230.23161193262786 34.55535422451794,227.9954032341484 27.019055403769016,229.7346767964773 22.90834695659578,234.95249201823026 21.538110807538033,259.79911871347576 25.877191945910454,265.5138165622484 33.64186345785856,267.2530704771634 41.86328035313636,258.05986089468934 42.091653044335544,231.47394944750704 33.87023614998907,227.9954032341484 25.420446563512087,230.72854699473828 21.9948561899364,236.6917619369924 20.624620040878654,258.55679179285653 27.932546170428395,267.75 35.92559037450701,266.25921120890416 40.7214168952778,261.0414451688994 44.60375265125185,238.18256399896927 41.63490766193718,230.23161193262786 35.240472299046814,227.74693550821394 25.64881925471127,230.72854699473828 22.223228882066905,236.19482776685618 21.9948561899364,263.02916653174907 28.61766424495727,267.75 35.240472299046814,267.2530704771634 42.091653044335544,258.05986089468934 42.091653044335544,231.47394944750704 31.129763851873577,227.25 22.45160157326609,235.94636065443046 20.85299273300916,259.5506533659063 25.19207387138158,266.010746344924 32.50000000093132,267.00460568768904 41.86328035313636,258.3083263535518 42.77677111886442,232.71628649812192 39.12280805595219,228.49233863083646 31.35813654307276,227.74693550821394 22.223228882066905,236.4432948611211 21.309738115407526,261.5383756214287 33.64186345785856,266.75614088005386 41.63490766193718,258.3083263535518 41.63490766193718,231.47394944750704 32.95674538332969,227.49846776365303 22.90834695659578,233.2132211884018 20.39624734967947,260.0475840414874 24.963701179251075,265.7622814630158 33.64186345785856,267.2530704771634 41.63490766193718,258.8052572142333 41.17816227860749,229.9831443738658 32.27162730880082,227.49846776365303 25.877191945910454,230.72854699473828 20.85299273300916,249.3635581403505 23.821837722323835,264.5199567724485 37.980944597162306,265.26535164238885 43.46188919432461,237.4371630519163 38.437689980491996,228.74080630065873 25.64881925471127,230.72854699473828 20.85299273300916,255.32673962507397 22.45160157326609,263.77456173603423 28.389291552826762,266.75614088005386 39.80792612954974,262.5322363025043 43.690261885523796,237.93409703532234 40.493044204078615,229.9831443738658 25.420446563512087,229.9831443738658 21.538110807538033,244.1457655588165 23.136719647794962,263.77456173603423 29.987900394015014,267.2530704771634 38.20931728836149,264.76842174795456 41.86328035313636,259.05372261744924 43.690261885523796,238.18256399896927 40.26467151287943,229.9831443738658 29.074409627355635,228.24387094192207 22.223228882066905,236.4432948611211 21.08136542327702,261.0414451688994 27.475800787098706,266.75614088005386 35.240472299046814,265.7622814630158 40.493044204078615,252.5936161072459 39.35118074622005,231.47394944750704 32.27162730880082,229.23774158605374 24.963701179251075,232.71628649812192 20.624620040878654,248.36969351908192" stroke="#4dd2ff" stroke-linecap="round" stroke-linejoin="round" stroke-width="0.5"><title>2024-03-22 5.0km</title><desc>1711100044000</desc></polyline><polyline fill="none" points="65.16929414588958,242.43755680741742 69.35708104074001,263.9531455927063 76.33672586362809,267.4968765054364 83.31637068651617,265.47188786650077 87.9694672357291,260.1562869239133 89.59805102739483,248.5125604425557 86.57353827077895,231.30002181371674 77.0346903456375,228.00937945931219 70.28770035039634,236.6156680881977 69.35708104074001,260.9156589983031 74.94079689867795,266.7375059078913 81.68778689391911,266.7375059078913 87.27150275278836,258.89066642173566 87.03884792514145,234.5906609685626 79.36123862024397,229.02188513986766 70.52035517711192,236.6156680881977 69.35708104074001,260.1562869239133 73.5448679337278,265.72501151286997 79.82654827460647,266.9906294597313 86.57353827077895,257.87816967861727 87.50415758043528,233.83128298586234 80.9898224119097,228.26250590826385 70.52035517711192,234.33753499365412 68.42646173015237,258.6375422643032 77.96530965529382,266.23125874856487 84.0143351694569,264.9656405176502 88.20212206244469,257.87816967861727 88.4347768900916,232.05940036429092 85.64291896019131,228.26250590826385 76.80203551892191,227.25 68.89177138544619,234.8437869248446 67.49584242142737,259.90316286170855 77.96530965529382,267.75 87.50415758043528,258.3844180877786 89.83070585504174,236.10941642220132 86.34088344313204,227.5031265055295 71.91628414206207,229.52813786664046 66.33256828412414,255.09380207257345" stroke="#4dd2ff" stroke-linecap="round" stroke-linejoin="round" stroke-width="0.5"><title>2024-03-21 2.2km</title><desc>1711013104000</desc></polyline></svg>