<?xml version="1.0" encoding="utf-8" ?>
<svg baseProfile="full" height="300mm" version="1.1" viewBox="0,0,200,300" width="200mm" xmlns="http://www.w3.org/2000/svg" xmlns:ev="http://www.w3.org/2001/xml-events" xmlns:xlink="http://www.w3.org/1999/xlink"><defs /><rect fill="#222222" height="300" width="200" x="0" y="0" /><text fill="#FFFFFF" style="font-size:12px; font-family:Arial; font-weight:bold;" x="10" y="20">Over 2km Runs</text><text fill="#FFFFFF" style="font-size:4px; font-family:Arial" x="10" y="280">ATHLETE</text><text fill="#FFFFFF" style="font-size:9px; font-family:Arial" x="10" y="290">作怪</text><text fill="#FFFFFF" style="font-size:4px; font-family:Arial" x="120" y="280">STATISTICS</text><text fill="#FFFFFF" style="font-size:3px; font-family:Arial" x="120" y="285">Number: 7</text><text fill="#FFFFFF" style="font-size:3px; font-family:Arial" x="120" y="290">Weekly: 3.5</text><text fill="#FFFFFF" style="font-size:3px; font-family:Arial" x="141" y="285">Total: 24.8 km</text><text fill="#FFFFFF" style="font-size:3px; font-family:Arial" x="141" y="290">Avg: 3.5 km</text><text fill="#FFFFFF" style="font-size:3px; font-family:Arial" x="167" y="285">Min: 2.0 km</text><text fill="#FFFFFF" style="font-size:3px; font-family:Arial" x="167" y="290">Max: 5.0 km</text><polyline fill="none" points="29.24039655737579,49.993069282732904 27.15789266489446,79.44758719345555 33.40540434233844,85.86713879927993 42.77667185664177,86.24475922854617 49.71835149824619,78.31472429819405 53.189191319048405,40.930106116924435 41.38833593018353,33.0 30.281648503616452,42.06297740293667 26.81080868281424,78.31472429819405 32.711236378178,85.48951834300533 42.42958787642419,86.24475922854617 49.71835149824619,77.93710327614099 53.189191319048405,41.30772990733385 41.735419910401106,33.0 30.281648503616452,41.68535366887227 26.46372470073402,77.18186114775017 38.61166407354176,87.0 49.71835149824619,78.69234529184178 53.536275301128626,42.81822478538379 43.12375583872199,33.0 30.281648503616452,41.68535366887227 26.46372470073402,77.55948222661391 37.5704121273011,87.0 49.37126751616597,79.44758719345555 53.536275301128626,43.195848434232175 43.47083982266486,33.0 30.281648503616452,41.30772990733385 26.46372470073402,77.18186114775017 36.876244163140655,87.0 49.37126751616597,79.44758719345555 53.8833592813462,43.95109564717859 44.51209176890552,33.37762438412756 30.628732485696673,40.55248229857534 26.46372470073402,76.42661890853196 37.5704121273011,87.0 49.37126751616597,79.44758719345555 53.536275301128626,43.195848434232175 43.12375583872199,33.0 30.628732485696673,40.55248229857534 26.46372470073402,77.18186114775017 37.91749610938132,87.0 49.71835149824619,78.31472429819405 53.536275301128626,43.57347205514088 42.77667185664177,33.0 30.281648503616452,42.06297740293667 26.46372470073402,77.55948222661391 37.91749610938132,87.0 49.71835149824619,78.69234529184178 53.536275301128626,42.44060110859573 42.42958787642419,33.0 30.281648503616452,42.06297740293667 26.46372470073402,76.80424004187807 30.975816467776895,84.35665680328384 40.347083983942866,86.62237962847576 49.71835149824619,78.31472429819405 53.536275301128626,42.81822478538379 41.735419910401106,33.0 30.281648503616452,42.06297740293667 26.46372470073402,76.42661890853196 36.876244163140655,87.0 49.37126751616597,79.44758719345555 53.8833592813462,44.70634274650365 44.165007784962654,33.37762438412756 30.975816467776895,40.17485845275223 26.46372470073402,76.42661890853196 34.446656288579106,86.24475922854617 49.37126751616597,79.44758719345555 53.8833592813462,43.95109564717859 44.8591757491231,33.37762438412756 31.669984431937337,38.664362783543766 26.116640718653798,75.29375533480197 30.628732485696673,84.35665680328384 40.0,87.0 48.33001556992531,81.33569145482033 53.8833592813462,46.21683660848066 46.94167964160442,34.13287306483835 33.752488324418664,36.020994275808334 27.852060629054904,80.58044983493164 35.14082425273955,86.62237962847576 44.51209176890552,85.11189785785973 51.4537714086473,66.98608135990798" stroke="#4dd2ff" stroke-linecap="round" stroke-linejoin="round" stroke-width="0.5"><title>2024-03-30 4.8km</title><desc>1711782999000</desc></polyline><polyline fill="none" points="144.4685797598213,55.040888050571084 146.83205675147474,80.02044157963246 153.922487732023,85.8979651206173 164.72695398703218,85.16327506257221 172.8303036764264,74.51025687111542 172.155024535954,37.04083688277751 155.94832515530288,34.10204675188288 147.16969632171094,44.02045639185235 147.16969632171094,78.91840513283387 156.6236042957753,87.0 167.09043097868562,84.4285848941654 173.16794324852526,74.51025687111542 175.53142024204135,46.95924058649689 171.8173849657178,36.306139514781535 160.0,33.0 151.89665030874312,38.142882727086544 145.81913803890347,73.77556510968134 149.19553374499083,82.22451373189688 158.98708128929138,87.0 172.8303036764264,77.08167717140168 174.18086195923388,39.97962525347248 159.6623604297638,33.734697862528265 147.84497546218336,44.38780451193452 147.84497546218336,81.85716844163835 160.6752791404724,86.632655067835 170.46682668291032,80.75513240648434 174.8561410997063,47.32658848678693 172.4926641061902,38.142882727086544 165.06459355540574,33.36734894569963 149.87081288546324,39.612276803702116 145.48149846866727,75.97964006429538 153.922487732023,85.8979651206173 170.12918711267412,80.02044157963246 174.8561410997063,46.95924058649689 167.76571012102067,35.20409325696528 149.87081288546324,35.20409325696528" stroke="#4dd2ff" stroke-linecap="round" stroke-linejoin="round" stroke-width="0.5"><title>2024-03-28 2.0km</title><desc>1711615120000</desc></polyline><polyline fill="none" points="26.350924961268902,115.95007897517644 22.938656199723482,116.62507953052409 26.350924961268902,119.32508074236102 22.628449948504567,117.63758017402142 26.350924961268902,118.65008059120737 27.281543713063,139.91253684880212 34.106081234291196,145.9875059458427 44.96330001577735,146.32500398880802 54.26948754303157,134.85005635209382 55.8205187972635,99.41253381967545 48.37556877732277,93.67500398936681 39.0693812482059,93.67500398936681 28.212162466719747,105.82505852449685 26.04071870818734,136.5375504824333 37.828556245192885,147.0 52.71845628879964,138.2250439808704 55.51031254790723,102.78754795901477 50.8572187833488,94.68750978331082 43.41226876154542,93.0 29.45298746973276,102.45004665805027 27.281543713063,133.83755957102403 31.62443122640252,142.27502580313012 39.379587499424815,145.31250978377648 51.167425034567714,138.2250439808704 54.26948754303157,105.48755745147355 43.41226876154542,95.02501166495495 31.00401872396469,102.78754795901477 28.83257496729493,136.20005170628428 40.0,145.31250978377648 52.09804378636181,136.20005170628428 53.9592812936753,101.77504398208112 42.79185625910759,94.35000787721947 31.00401872396469,103.80005170730874 28.522368716076016,135.18755522882566 38.1387624964118,145.31250978377648 51.787837537005544,136.20005170628428 53.9592812936753,104.13755290675908 41.551031256094575,93.67500398936681 31.314224975183606,102.78754795901477 27.90195621550083,135.18755522882566 38.75917499884963,145.31250978377648 52.40825003758073,136.20005170628428 54.8899000454694,104.13755290675908 44.03268126398325,94.35000787721947 31.62443122640252,102.45004665805027 28.212162466719747,134.85005635209382 30.38360622152686,141.9375274570193 38.1387624964118,144.6375135204289 52.09804378636181,137.21254795743152 54.8899000454694,106.16255957284011 44.342887515202165,95.70001535094343 31.314224975183606,102.11254533240572 28.212162466719747,136.20005170628428 39.379587499424815,144.9750116642099 52.09804378636181,136.5375504824333 54.57969379611313,102.78754795901477 43.102062510326505,95.02501166495495 31.314224975183606,103.80005170730874 28.212162466719747,135.52505408111028 39.379587499424815,145.31250978377648 49.30618752911687,143.96251715556718 53.9592812936753,137.5500466574449 57.37155005335808,105.1500563537702" stroke="#4dd2ff" stroke-linecap="round" stroke-linejoin="round" stroke-width="0.5"><title>2024-03-26 3.7km</title><desc>1711445960000</desc></polyline><polyline fill="none" points="145.44098226726055,134.40005419775844 157.35290586948395,147.0 171.5810368359089,138.72003933228552 174.2281309682876,102.36004341207445 166.94862210191786,93.0 149.74251023493707,99.12003044551238 145.11009550094604,133.32005730783567 148.0880764015019,141.6000272668898 158.34556616842747,146.64000200573355 170.91926330141723,139.4400364770554 174.8899045009166,104.16004967410117 168.2721691671759,93.36000200593844 150.73517053574324,100.56003647809848 146.43364256806672,121.4400755269453 150.40428376756608,141.6000272668898 159.00733970105648,145.5600078641437 166.94862210191786,142.32002398185432 173.89724420197308,106.32005629921332 168.2721691671759,95.88001529639587 158.67645293474197,94.8000097614713 152.05871760100126,100.20003501046449 147.7571896351874,131.88006107881665 155.0366985015571,144.480013479013 168.60305593535304,140.16003351518884 173.89724420197308,104.88005198957399 166.2868485674262,94.44000786356628 152.05871760100126,100.56003647809848 147.7571896351874,132.6000592475757 155.36758526787162,144.480013479013 168.2721691671759,140.16003351518884 171.5810368359089,98.40002726716921 160.33088676817715,93.72000398533419 151.0660573001951,103.0800459976308 148.0880764015019,136.9200459974818 154.04403820075095,143.76001708768308 163.308867668733,144.12001529661939" stroke="#4dd2ff" stroke-linecap="round" stroke-linejoin="round" stroke-width="0.5"><title>2024-03-25 2.1km</title><desc>1711359274000</desc></polyline><polyline fill="none" points="46.84044451080263,201.80771969119087 53.20364870503545,166.50005908031017 45.88596388138831,155.42309042718261 29.34163297340274,162.6923540965654 25.841870665550232,192.11544752772897 35.38667695969343,204.92308857664466 49.38572618737817,199.38465355383232 53.20364870503545,166.50005908031017 43.97700262255967,155.76924609951675 29.34163297340274,163.03850922500715 25.841870665550232,194.19236470013857 36.02299737930298,204.92308857664466 49.70388639904559,198.3461962491274 53.20364870503545,165.11543944850564 43.65884241275489,155.76924609951675 29.34163297340274,162.6923540965654 26.160030875355005,194.53851747186854 29.023472763597965,201.80771969119087 37.93195863813162,205.26924054464325 50.02204660885036,196.9615861470811 53.20364870503545,167.1923687402159 44.93148325197399,155.76924609951675 29.34163297340274,161.30773332575336 26.160030875355005,194.53851747186854 36.02299737930298,205.6153924879618 49.06756597943604,199.03850114531815 53.20364870503545,166.50005908031017 44.29516283236444,155.07693473016843 29.659793183207512,160.96157806832343 25.841870665550232,195.23082293663174 29.023472763597965,202.15387189388275 38.56827905587852,205.9615444052033 50.34020681679249,196.61543355789036 52.88548849709332,164.76928447559476 43.02252199314535,155.07693473016843 34.11403612047434,156.80771295912564 28.705312553793192,163.73081940272823 26.47819108515978,196.9615861470811 38.88643926754594,205.26924054464325 50.65836702845991,195.5769756315276 52.88548849709332,165.11543944850564 43.65884241275489,155.07693473016843 29.023472763597965,163.73081940272823 26.160030875355005,195.9231282984838 37.29563821852207,204.92308857664466 49.38572618737817,198.3461962491274 52.88548849709332,164.76928447559476 41.7498811557889,155.07693473016843 28.705312553793192,163.3846643269062 26.47819108515978,196.26928094075993 37.29563821852207,205.6153924879618 50.02204660885036,198.3461962491274 53.20364870503545,165.11543944850564 47.79492514021695,156.1154017453082 29.977953393012285,160.96157806832343 26.160030875355005,192.4616004540585 33.795875910669565,204.92308857664466 49.06756597943604,199.73080593626946 53.20364870503545,165.8077493160963 43.34068220295012,155.42309042718261 29.34163297340274,162.00004376331344 26.160030875355005,194.88467021659017 35.06851674988866,204.5769365816377 48.74940576963127,200.76926293037832 53.52180891670287,166.84621392330155 47.1586047206074,156.1154017453082 37.29563821852207,155.07693473016843 29.659793183207512,162.00004376331344 23.932909406721592,192.11544752772897 26.47819108515978,201.4615674642846 35.38667695969343,207.0 43.65884241275489,206.65384816145524 51.29468744620681,199.38465355383232 56.06709059327841,167.53852353105322 47.47676493041217,153.69231168041006 36.9774780087173,153.0 27.750831924378872,160.61542278528214 23.932909406721592,193.84621190233156 33.795875910669565,205.9615444052033 50.34020681679249,203.19232834409922" stroke="#4dd2ff" stroke-linecap="round" stroke-linejoin="round" stroke-width="0.5"><title>2024-03-24 4.9km</title><desc>1711273464000</desc></polyline><polyline fill="none" points="144.77515389956534,192.09209033916704 147.51562619768083,201.69941564812325 155.12804924882948,206.66871366393752 163.95845998823643,205.0122816117946 171.26638611778617,197.72397322021425 174.31135533750057,162.93869974953122 171.875379960984,156.97548257675953 162.74047229997814,153.9938709787093 152.6920738723129,156.31290239514783 147.21112927608192,163.26998935756274 145.3841477446258,196.3988249511458 151.1695892624557,204.01842208299786 161.52248461171985,206.33742730296217 172.48437380604446,194.07981452601962 172.78887072764337,158.63193259644322 161.8269815351814,153.9938709787093 150.56059541925788,157.63806265965104 145.99314158782363,165.58901591598988 144.16616005450487,194.74238905706443 153.9100615605712,207.0 164.5674538332969,205.0122816117946 170.9618891943246,198.05526022496633 176.13833686895669,167.5767519986257 172.17987688444555,156.97548257675953 163.65396306663752,153.66258067754097 150.8650923408568,157.63806265965104 146.2976385112852,164.9264370223973 145.99314158782363,200.70555537566543 154.82355232723057,207.0 163.65396306663752,206.33742730296217 172.78887072764337,194.07981452601962 172.78887072764337,158.63193259644322 158.17301847040653,153.0 146.60213543102145,164.595147539163 144.47065697796643,196.06753782136366 150.25609849579632,204.6809951264877 160.00000000186265,206.0061409168411 172.48437380604446,194.41110180481337 173.7023614924401,160.2883819974959 168.8304107412696,154.65645150770433 158.47751539200544,153.66258067754097 146.2976385112852,165.2577264814172 145.07965082116425,198.71783416182734 161.52248461171985,205.67485450673848 172.17987688444555,194.41110180481337 172.17987688444555,158.63193259644322 160.60899384506047,153.33129035145976 147.21112927608192,160.95096158445813 143.86166313290596,196.73011205531657 149.9516015741974,204.34970861743204 161.52248461171985,206.33742730296217 172.17987688444555,195.07367628556676 171.57088303938508,156.64419249864295 159.6955030784011,153.33129035145976 151.1695892624557,157.63806265965104 144.47065697796643,182.48474418721162 148.4291169643402,202.69327569683082 167.3079261314124,203.68713552318513 174.61585225909948,166.58288406929933 167.9169199746102,154.98774173436686 150.8650923408568,157.63806265965104 144.47065697796643,190.43565283319913 146.60213543102145,201.69941564812325 154.51905540376902,205.67485450673848 169.74390150606632,200.04298173682764 174.9203491806984,167.24546271376312 170.6573922727257,156.64419249864295 150.56059541925788,156.64419249864295 145.3841477446258,175.52768741175532 147.51562619768083,201.69941564812325 156.65053386054933,206.33742730296217 167.6124230530113,203.0245623306837 172.48437380604446,195.4049634898547 174.9203491806984,167.5767519986257 170.3528953511268,156.64419249864295 155.4325461704284,154.3251612558961 146.2976385112852,165.2577264814172 144.77515389956534,198.05526022496633 153.30106771737337,205.67485450673848 163.65396306663752,204.34970861743204 170.6573922727257,186.79148814291693 169.1349076628685,158.63193259644322 159.6955030784011,155.65032211481594 149.9516015741974,160.2883819974959 144.16616005450487,181.15959135862067" stroke="#4dd2ff" stroke-linecap="round" stroke-linejoin="round" stroke-width="0.5"><title>2024-03-22 5.0km</title><desc>1711100044000</desc></polyline><polyline fill="none" points="23.55905886180699,233.25007574330084 29.142774721607566,261.9375274570193 38.448967818170786,266.66250200755894 47.75516091659665,263.9625171555672 53.9592896476388,256.8750492320396 56.13073470257223,241.35008059022948 52.098051028326154,218.40002908511087 39.379587126895785,214.01250594574958 30.383600467815995,225.48755745124072 29.142774721607566,257.88754533138126 36.58772919885814,265.65000787726603 45.58371585793793,265.65000787726603 53.02867033705115,255.1875552290585 52.71846389956772,222.78754795808345 42.481651494279504,215.36251351982355 30.69380690343678,225.48755745124072 29.142774721607566,256.8750492320396 34.7264905795455,264.3000153505709 43.10206436738372,265.9875059465412 52.098051028326154,253.8375595714897 53.33887677453458,221.77504398138262 44.65309654921293,214.35000787791796 30.69380690343678,222.4500466582831 27.90194897353649,254.85005635255948 40.62041287496686,264.97501166467555 48.68578022532165,263.28752069035545 54.26949608325958,253.8375595714897 54.57970252074301,219.41253381920978 50.85722528025508,214.35000787791796 39.069380691275,213.0 28.522361846640706,223.12504923320375 26.661123229190707,256.53755048220046 40.62041287496686,267.0 53.33887677453458,254.5125574504491 56.440941140055656,224.81255522975698 51.787844590842724,213.33750200737268 32.555045522749424,216.03751715575345 25.110091045498848,250.12506943009794" stroke="#4dd2ff" stroke-linecap="round" stroke-linejoin="round" stroke-width="0.5"><title>2024-03-21 2.2km</title><desc>1711013104000</desc></polyline></svg>