<?xml version="1.0" encoding="utf-8" ?>
<svg baseProfile="full" height="300mm" version="1.1" viewBox="0,0,200,300" width="200mm" xmlns="http://www.w3.org/2000/svg" xmlns:ev="http://www.w3.org/2001/xml-events" xmlns:xlink="http://www.w3.org/1999/xlink"><defs /><rect fill="#222222" height="300" width="200" x="0" y="0" /><text fill="#FFFFFF" style="font-size:12px; font-family:Arial; font-weight:bold;" x="10" y="20">Over 2km Runs</text><text fill="#FFFFFF" style="font-size:4px; font-family:Arial" x="10" y="280">ATHLETE</text><text fill="#FFFFFF" style="font-size:9px; font-family:Arial" x="10" y="290">作怪</text><text fill="#FFFFFF" style="font-size:4px; font-family:Arial" x="120" y="280">STATISTICS</text><text fill="#FFFFFF" style="font-size:3px; font-family:Arial" x="120" y="285">Number: 8</text><text fill="#FFFFFF" style="font-size:3px; font-family:Arial" x="120" y="290">Weekly: 2.7</text><text fill="#FFFFFF" style="font-size:3px; font-family:Arial" x="141" y="285">Total: 27.8 km</text><text fill="#FFFFFF" style="font-size:3px; font-family:Arial" x="141" y="290">Avg: 3.5 km</text><text fill="#FFFFFF" style="font-size:3px; font-family:Arial" x="167" y="285">Min: 2.0 km</text><text fill="#FFFFFF" style="font-size:3px; font-family:Arial" x="167" y="290">Max: 5.0 km</text><polyline fill="none" points="20.698278442025185,65.82360307639465 29.457042844966054,64.05889904126525 26.213056029751897,73.58829298336059 33.34982702508569,84.52942525688559 49.89415979012847,84.52942525688559 59.301721557974815,49.94124300638214 54.11134265176952,35.11765870265663 41.78419275023043,33.0 33.02542834356427,37.94120216043666 29.132644165307283,73.23535281093791 33.67422570846975,85.23530388670042 45.02817956544459,85.23530388670042 53.46254528872669,79.23533216351643 57.030930787324905,46.7647645752877 49.24536242708564,36.176487697754055 33.34982702508569,42.52945667644963 29.132644165307283,76.0588734569028 39.18900329619646,85.94118241174147 53.46254528872669,78.5294526363723 56.38213342241943,46.411822396330535 47.298970337957144,35.11765870265663 33.02542834356427,42.52945667644963 29.457042844966054,77.11769326310605 40.486598022282124,86.64706083061174 53.46254528872669,78.88239241344854 57.030930787324905,46.05888019036502 48.27216638252139,35.82354472531006 39.18900329619646,36.882373561151326 32.37663098052144,43.941226398106664 28.808245483785868,76.0588734569028 39.513401977717876,87.0 53.13814660720527,78.88239241344854 56.70653210580349,45.0000534132123 48.27216638252139,35.82354472531006 32.37663098052144,43.588284007273614 28.808245483785868,74.29417325137183 33.02542834356427,83.4706071135588 42.1085914298892,86.64706083061174 54.435741333290935,77.47063314635307 56.70653210580349,45.35299569834024 47.94776769913733,35.47060172725469 40.81099670380354,35.47060172725469 32.37663098052144,43.23534158989787 28.808245483785868,74.64711334463209 38.54020593315363,86.64706083061174 52.813747925683856,80.29415125772357 57.030930787324905,46.7647645752877 50.5429571531713,36.176487697754055 42.1085914298892,35.82354472531006 32.7010296639055,43.23534158989787 29.132644165307283,75.3529934543185 36.59381384216249,85.58824316272512 53.46254528872669,83.82354652089998" stroke="#4dd2ff" stroke-linecap="round" stroke-linejoin="round" stroke-width="0.5"><title>2024-04-02 3.0km</title><desc>1712049520000</desc></polyline><polyline fill="none" points="149.2403965573758,49.993069282732904 147.15789266489446,79.44758719345555 153.40540434233844,85.86713879927993 162.77667185664177,86.24475922854617 169.7183514982462,78.31472429819405 173.1891913190484,40.930106116924435 161.38833593018353,33.0 150.28164850361645,42.06297740293667 146.81080868281424,78.31472429819405 152.711236378178,85.48951834300533 162.4295878764242,86.24475922854617 169.7183514982462,77.93710327614099 173.1891913190484,41.30772990733385 161.7354199104011,33.0 150.28164850361645,41.68535366887227 146.46372470073402,77.18186114775017 158.61166407354176,87.0 169.7183514982462,78.69234529184178 173.53627530112863,42.81822478538379 163.123755838722,33.0 150.28164850361645,41.68535366887227 146.46372470073402,77.55948222661391 157.5704121273011,87.0 169.37126751616597,79.44758719345555 173.53627530112863,43.195848434232175 163.47083982266486,33.0 150.28164850361645,41.30772990733385 146.46372470073402,77.18186114775017 156.87624416314065,87.0 169.37126751616597,79.44758719345555 173.8833592813462,43.95109564717859 164.51209176890552,33.37762438412756 150.62873248569667,40.55248229857534 146.46372470073402,76.42661890853196 157.5704121273011,87.0 169.37126751616597,79.44758719345555 173.53627530112863,43.195848434232175 163.123755838722,33.0 150.62873248569667,40.55248229857534 146.46372470073402,77.18186114775017 157.91749610938132,87.0 169.7183514982462,78.31472429819405 173.53627530112863,43.57347205514088 162.77667185664177,33.0 150.28164850361645,42.06297740293667 146.46372470073402,77.55948222661391 157.91749610938132,87.0 169.7183514982462,78.69234529184178 173.53627530112863,42.44060110859573 162.4295878764242,33.0 150.28164850361645,42.06297740293667 146.46372470073402,76.80424004187807 150.9758164677769,84.35665680328384 160.34708398394287,86.62237962847576 169.7183514982462,78.31472429819405 173.53627530112863,42.81822478538379 161.7354199104011,33.0 150.28164850361645,42.06297740293667 146.46372470073402,76.42661890853196 156.87624416314065,87.0 169.37126751616597,79.44758719345555 173.8833592813462,44.70634274650365 164.16500778496265,33.37762438412756 150.9758164677769,40.17485845275223 146.46372470073402,76.42661890853196 154.4466562885791,86.24475922854617 169.37126751616597,79.44758719345555 173.8833592813462,43.95109564717859 164.8591757491231,33.37762438412756 151.66998443193734,38.664362783543766 146.1166407186538,75.29375533480197 150.62873248569667,84.35665680328384 160.0,87.0 168.3300155699253,81.33569145482033 173.8833592813462,46.21683660848066 166.94167964160442,34.13287306483835 153.75248832441866,36.020994275808334 147.8520606290549,80.58044983493164 155.14082425273955,86.62237962847576 164.51209176890552,85.11189785785973 171.4537714086473,66.98608135990798" stroke="#4dd2ff" stroke-linecap="round" stroke-linejoin="round" stroke-width="0.5"><title>2024-03-30 4.8km</title><desc>1711782999000</desc></polyline><polyline fill="none" points="24.468579759821296,115.04088805057108 26.832056751474738,140.02044157963246 33.922487732023,145.8979651206173 44.726953987032175,145.1632750625722 52.83030367642641,134.51025687111542 52.155024535954,97.04083688277751 35.94832515530288,94.10204675188288 27.169696321710944,104.02045639185235 27.169696321710944,138.91840513283387 36.623604295775294,147.0 47.09043097868562,144.4285848941654 53.16794324852526,134.51025687111542 55.53142024204135,106.95924058649689 51.81738496571779,96.30613951478153 40.0,93.0 31.89665030874312,98.14288272708654 25.819138038903475,133.77556510968134 29.195533744990826,142.22451373189688 38.98708128929138,147.0 52.83030367642641,137.08167717140168 54.18086195923388,99.97962525347248 39.662360429763794,93.73469786252826 27.844975462183356,104.38780451193452 27.844975462183356,141.85716844163835 40.67527914047241,146.632655067835 50.46682668291032,140.75513240648434 54.85614109970629,107.32658848678693 52.492664106190205,98.14288272708654 45.064593555405736,93.36734894569963 29.870812885463238,99.61227680370212 25.48149846866727,135.97964006429538 33.922487732023,145.8979651206173 50.12918711267412,140.02044157963246 54.85614109970629,106.95924058649689 47.765710121020675,95.20409325696528 29.870812885463238,95.20409325696528" stroke="#4dd2ff" stroke-linecap="round" stroke-linejoin="round" stroke-width="0.5"><title>2024-03-28 2.0km</title><desc>1711615120000</desc></polyline><polyline fill="none" points="146.3509249612689,115.95007897517644 142.93865619972348,116.62507953052409 146.3509249612689,119.32508074236102 142.62844994850457,117.63758017402142 146.3509249612689,118.65008059120737 147.281543713063,139.91253684880212 154.1060812342912,145.9875059458427 164.96330001577735,146.32500398880802 174.26948754303157,134.85005635209382 175.8205187972635,99.41253381967545 168.37556877732277,93.67500398936681 159.0693812482059,93.67500398936681 148.21216246671975,105.82505852449685 146.04071870818734,136.5375504824333 157.82855624519289,147.0 172.71845628879964,138.2250439808704 175.51031254790723,102.78754795901477 170.8572187833488,94.68750978331082 163.41226876154542,93.0 149.45298746973276,102.45004665805027 147.281543713063,133.83755957102403 151.62443122640252,142.27502580313012 159.37958749942482,145.31250978377648 171.1674250345677,138.2250439808704 174.26948754303157,105.48755745147355 163.41226876154542,95.02501166495495 151.0040187239647,102.78754795901477 148.83257496729493,136.20005170628428 160.0,145.31250978377648 172.0980437863618,136.20005170628428 173.9592812936753,101.77504398208112 162.7918562591076,94.35000787721947 151.0040187239647,103.80005170730874 148.52236871607602,135.18755522882566 158.1387624964118,145.31250978377648 171.78783753700554,136.20005170628428 173.9592812936753,104.13755290675908 161.55103125609457,93.67500398936681 151.3142249751836,102.78754795901477 147.90195621550083,135.18755522882566 158.75917499884963,145.31250978377648 172.40825003758073,136.20005170628428 174.8899000454694,104.13755290675908 164.03268126398325,94.35000787721947 151.62443122640252,102.45004665805027 148.21216246671975,134.85005635209382 150.38360622152686,141.9375274570193 158.1387624964118,144.6375135204289 172.0980437863618,137.21254795743152 174.8899000454694,106.16255957284011 164.34288751520216,95.70001535094343 151.3142249751836,102.11254533240572 148.21216246671975,136.20005170628428 159.37958749942482,144.9750116642099 172.0980437863618,136.5375504824333 174.57969379611313,102.78754795901477 163.1020625103265,95.02501166495495 151.3142249751836,103.80005170730874 148.21216246671975,135.52505408111028 159.37958749942482,145.31250978377648 169.30618752911687,143.96251715556718 173.9592812936753,137.5500466574449 177.37155005335808,105.1500563537702" stroke="#4dd2ff" stroke-linecap="round" stroke-linejoin="round" stroke-width="0.5"><title>2024-03-26 3.7km</title><desc>1711445960000</desc></polyline><polyline fill="none" points="25.44098226726055,194.40005419775844 37.35290586948395,207.0 51.58103683590889,198.72003933228552 54.22813096828759,162.36004341207445 46.94862210191786,153.0 29.742510234937072,159.12003044551238 25.110095500946045,193.32005730783567 28.088076401501894,201.6000272668898 38.34556616842747,206.64000200573355 50.91926330141723,199.4400364770554 54.8899045009166,164.16004967410117 48.27216916717589,153.36000200593844 30.735170535743237,160.56003647809848 26.433642568066716,181.4400755269453 30.404283767566085,201.6000272668898 39.00733970105648,205.5600078641437 46.94862210191786,202.32002398185432 53.89724420197308,166.32005629921332 48.27216916717589,155.88001529639587 38.676452934741974,154.8000097614713 32.05871760100126,160.2000350104645 27.757189635187387,191.88006107881665 35.03669850155711,204.480013479013 48.60305593535304,200.16003351518884 53.89724420197308,164.88005198957399 46.286848567426205,154.44000786356628 32.05871760100126,160.56003647809848 27.757189635187387,192.6000592475757 35.36758526787162,204.480013479013 48.27216916717589,200.16003351518884 51.58103683590889,158.4000272671692 40.33088676817715,153.7200039853342 31.066057300195098,163.0800459976308 28.088076401501894,196.9200459974818 34.04403820075095,203.76001708768308 43.308867668733,204.12001529661939" stroke="#4dd2ff" stroke-linecap="round" stroke-linejoin="round" stroke-width="0.5"><title>2024-03-25 2.1km</title><desc>1711359274000</desc></polyline><polyline fill="none" points="166.84044451080263,201.80771969119087 173.20364870503545,166.50005908031017 165.8859638813883,155.42309042718261 149.34163297340274,162.6923540965654 145.84187066555023,192.11544752772897 155.38667695969343,204.92308857664466 169.38572618737817,199.38465355383232 173.20364870503545,166.50005908031017 163.97700262255967,155.76924609951675 149.34163297340274,163.03850922500715 145.84187066555023,194.19236470013857 156.02299737930298,204.92308857664466 169.7038863990456,198.3461962491274 173.20364870503545,165.11543944850564 163.6588424127549,155.76924609951675 149.34163297340274,162.6923540965654 146.160030875355,194.53851747186854 149.02347276359797,201.80771969119087 157.93195863813162,205.26924054464325 170.02204660885036,196.9615861470811 173.20364870503545,167.1923687402159 164.931483251974,155.76924609951675 149.34163297340274,161.30773332575336 146.160030875355,194.53851747186854 156.02299737930298,205.6153924879618 169.06756597943604,199.03850114531815 173.20364870503545,166.50005908031017 164.29516283236444,155.07693473016843 149.6597931832075,160.96157806832343 145.84187066555023,195.23082293663174 149.02347276359797,202.15387189388275 158.56827905587852,205.9615444052033 170.3402068167925,196.61543355789036 172.88548849709332,164.76928447559476 163.02252199314535,155.07693473016843 154.11403612047434,156.80771295912564 148.7053125537932,163.73081940272823 146.47819108515978,196.9615861470811 158.88643926754594,205.26924054464325 170.6583670284599,195.5769756315276 172.88548849709332,165.11543944850564 163.6588424127549,155.07693473016843 149.02347276359797,163.73081940272823 146.160030875355,195.9231282984838 157.29563821852207,204.92308857664466 169.38572618737817,198.3461962491274 172.88548849709332,164.76928447559476 161.7498811557889,155.07693473016843 148.7053125537932,163.3846643269062 146.47819108515978,196.26928094075993 157.29563821852207,205.6153924879618 170.02204660885036,198.3461962491274 173.20364870503545,165.11543944850564 167.79492514021695,156.1154017453082 149.97795339301229,160.96157806832343 146.160030875355,192.4616004540585 153.79587591066957,204.92308857664466 169.06756597943604,199.73080593626946 173.20364870503545,165.8077493160963 163.34068220295012,155.42309042718261 149.34163297340274,162.00004376331344 146.160030875355,194.88467021659017 155.06851674988866,204.5769365816377 168.74940576963127,200.76926293037832 173.52180891670287,166.84621392330155 167.1586047206074,156.1154017453082 157.29563821852207,155.07693473016843 149.6597931832075,162.00004376331344 143.9329094067216,192.11544752772897 146.47819108515978,201.4615674642846 155.38667695969343,207.0 163.6588424127549,206.65384816145524 171.2946874462068,199.38465355383232 176.0670905932784,167.53852353105322 167.47676493041217,153.69231168041006 156.9774780087173,153.0 147.75083192437887,160.61542278528214 143.9329094067216,193.84621190233156 153.79587591066957,205.9615444052033 170.3402068167925,203.19232834409922" stroke="#4dd2ff" stroke-linecap="round" stroke-linejoin="round" stroke-width="0.5"><title>2024-03-24 4.9km</title><desc>1711273464000</desc></polyline><polyline fill="none" points="24.77515389956534,252.09209033916704 27.51562619768083,261.69941564812325 35.128049248829484,266.6687136639375 43.95845998823643,265.0122816117946 51.26638611778617,257.72397322021425 54.31135533750057,222.93869974953122 51.87537996098399,216.97548257675953 42.74047229997814,213.9938709787093 32.6920738723129,216.31290239514783 27.21112927608192,223.26998935756274 25.384147744625807,256.3988249511458 31.169589262455702,264.01842208299786 41.52248461171985,266.33742730296217 52.48437380604446,254.07981452601962 52.78887072764337,218.63193259644322 41.8269815351814,213.9938709787093 30.56059541925788,217.63806265965104 25.99314158782363,225.58901591598988 24.16616005450487,254.74238905706443 33.910061560571194,267.0 44.567453833296895,265.0122816117946 50.96188919432461,258.05526022496633 56.138336868956685,227.5767519986257 52.17987688444555,216.97548257675953 43.653963066637516,213.66258067754097 30.86509234085679,217.63806265965104 26.297638511285186,224.9264370223973 25.99314158782363,260.7055553756654 34.82355232723057,267.0 43.653963066637516,266.33742730296217 52.78887072764337,254.07981452601962 52.78887072764337,218.63193259644322 38.17301847040653,213.0 26.602135431021452,224.595147539163 24.470656977966428,256.06753782136366 30.256098495796323,264.6809951264877 40.000000001862645,266.0061409168411 52.48437380604446,254.41110180481337 53.702361492440104,220.2883819974959 48.83041074126959,214.65645150770433 38.477515392005444,213.66258067754097 26.297638511285186,225.2577264814172 25.07965082116425,258.71783416182734 41.52248461171985,265.6748545067385 52.17987688444555,254.41110180481337 52.17987688444555,218.63193259644322 40.60899384506047,213.33129035145976 27.21112927608192,220.95096158445813 23.86166313290596,256.73011205531657 29.95160157419741,264.34970861743204 41.52248461171985,266.33742730296217 52.17987688444555,255.07367628556676 51.57088303938508,216.64419249864295 39.69550307840109,213.33129035145976 31.169589262455702,217.63806265965104 24.470656977966428,242.48474418721162 28.42911696434021,262.6932756968308 47.30792613141239,263.68713552318513 54.61585225909948,226.58288406929933 47.91691997461021,214.98774173436686 30.86509234085679,217.63806265965104 24.470656977966428,250.43565283319913 26.602135431021452,261.69941564812325 34.519055403769016,265.6748545067385 49.74390150606632,260.04298173682764 54.920349180698395,227.24546271376312 50.6573922727257,216.64419249864295 30.56059541925788,216.64419249864295 25.384147744625807,235.52768741175532 27.51562619768083,261.69941564812325 36.65053386054933,266.33742730296217 47.6124230530113,263.0245623306837 52.48437380604446,255.4049634898547 54.920349180698395,227.5767519986257 50.35289535112679,216.64419249864295 35.432546170428395,214.3251612558961 26.297638511285186,225.2577264814172 24.77515389956534,258.05526022496633 33.30106771737337,265.6748545067385 43.653963066637516,264.34970861743204 50.6573922727257,246.79148814291693 49.1349076628685,218.63193259644322 39.69550307840109,215.65032211481594 29.95160157419741,220.2883819974959 24.16616005450487,241.15959135862067" stroke="#4dd2ff" stroke-linecap="round" stroke-linejoin="round" stroke-width="0.5"><title>2024-03-22 5.0km</title><desc>1711100044000</desc></polyline><polyline fill="none" points="143.559058861807,233.25007574330084 149.14277472160757,261.9375274570193 158.4489678181708,266.66250200755894 167.75516091659665,263.9625171555672 173.9592896476388,256.8750492320396 176.13073470257223,241.35008059022948 172.09805102832615,218.40002908511087 159.37958712689579,214.01250594574958 150.383600467816,225.48755745124072 149.14277472160757,257.88754533138126 156.58772919885814,265.65000787726603 165.58371585793793,265.65000787726603 173.02867033705115,255.1875552290585 172.71846389956772,222.78754795808345 162.4816514942795,215.36251351982355 150.69380690343678,225.48755745124072 149.14277472160757,256.8750492320396 154.7264905795455,264.3000153505709 163.10206436738372,265.9875059465412 172.09805102832615,253.8375595714897 173.33887677453458,221.77504398138262 164.65309654921293,214.35000787791796 150.69380690343678,222.4500466582831 147.9019489735365,254.85005635255948 160.62041287496686,264.97501166467555 168.68578022532165,263.28752069035545 174.26949608325958,253.8375595714897 174.579702520743,219.41253381920978 170.85722528025508,214.35000787791796 159.069380691275,213.0 148.5223618466407,223.12504923320375 146.6611232291907,256.53755048220046 160.62041287496686,267.0 173.33887677453458,254.5125574504491 176.44094114005566,224.81255522975698 171.78784459084272,213.33750200737268 152.55504552274942,216.03751715575345 145.11009104549885,250.12506943009794" stroke="#4dd2ff" stroke-linecap="round" stroke-linejoin="round" stroke-width="0.5"><title>2024-03-21 2.2km</title><desc>1711013104000</desc></polyline></svg>