<?xml version="1.0" encoding="utf-8" ?>
<svg baseProfile="full" height="300mm" version="1.1" viewBox="0,0,200,300" width="200mm" xmlns="http://www.w3.org/2000/svg" xmlns:ev="http://www.w3.org/2001/xml-events" xmlns:xlink="http://www.w3.org/1999/xlink"><defs /><rect fill="#222222" height="300" width="200" x="0" y="0" /><text fill="#FFFFFF" style="font-size:12px; font-family:Arial; font-weight:bold;" x="10" y="20">Over 2km Runs</text><text fill="#FFFFFF" style="font-size:4px; font-family:Arial" x="10" y="280">ATHLETE</text><text fill="#FFFFFF" style="font-size:9px; font-family:Arial" x="10" y="290">作怪</text><text fill="#FFFFFF" style="font-size:4px; font-family:Arial" x="120" y="280">STATISTICS</text><text fill="#FFFFFF" style="font-size:3px; font-family:Arial" x="120" y="285">Number: 28</text><text fill="#FFFFFF" style="font-size:3px; font-family:Arial" x="120" y="290">Weekly: 3.5</text><text fill="#FFFFFF" style="font-size:3px; font-family:Arial" x="141" y="285">Total: 133.8 km</text><text fill="#FFFFFF" style="font-size:3px; font-family:Arial" x="141" y="290">Avg: 4.8 km</text><text fill="#FFFFFF" style="font-size:3px; font-family:Arial" x="167" y="285">Min: 2.0 km</text><text fill="#FFFFFF" style="font-size:3px; font-family:Arial" x="167" y="290">Max: 12.3 km</text><polyline fill="none" points="20.738875361159444,41.20004043378867 21.841831002384424,60.200021245051175 31.03312801476568,63.600003567989916 35.628776520490646,57.40003255568445 36.36408028006554,36.400023916270584 28.09191296994686,32.60000472771935 23.863916344940662,34.00001242570579 22.02565694320947,38.8000332522206 21.290353181771934,58.40002885297872 29.562520492821932,62.60000921576284 35.077298699878156,57.00003393297084 34.89347275905311,36.800025621661916 27.724261090159416,33.80001137102954 18.716790018603206,39.20003459881991 20.003571601584554,58.00003037904389 27.54043514933437,64.00000120420009 31.768431775271893,63.000007001450285 35.81260246038437,57.60003184527159 37.09938404150307,37.40002806810662 29.746346432715654,32.40000356850214 23.863916344940662,34.00001242570579 20.55504942126572,39.20003459881991 20.187397540546954,58.800027266843244 24.415394165553153,63.40000472730026 30.481650193221867,64.00000120420009 35.81260246038437,58.00003037904389 37.283209981396794,37.80002962425351 35.99642840027809,34.20001346594654 29.01104267220944,32.20000239391811 20.92270130198449,37.200027267448604 19.81974566075951,57.20003325142898 27.724261090159416,63.80000239354558 35.628776520490646,58.40002885297872 36.91555810160935,37.80002962425351 34.52582087833434,33.6000103012193 28.82721673231572,31.800000000046566 20.92270130198449,38.00003037950955 19.635919720865786,57.800031119491905 27.724261090159416,64.19999999995343 35.628776520490646,58.20002962346189 35.81260246038437,37.40002806810662 28.643390791490674,33.6000103012193 22.209482883103192,38.60003255633637 21.290353181771934,58.60002806736156 29.562520492821932,62.60000921576284 34.89347275905311,56.80003459821455 35.99642840027809,35.80002124560997 33.79051711689681,32.80000587226823 27.54043514933437,32.20000239391811 20.371223481372,38.8000332522206" stroke="#4dd2ff" stroke-linecap="round" stroke-linejoin="round" stroke-width="0.5"><title>2024-05-12 3.1km</title><desc>1715507107000</desc></polyline><polyline fill="none" points="55.53319314215332,41.96474580396898 58.06350323744118,61.65883693168871 65.65443352423608,64.19999999995343 71.1043321909383,58.270615958143026 72.07752838172019,36.67061191890389 64.09731961879879,32.435297682415694 57.47958552278578,38.57650125818327 57.09030704665929,61.23530953167938 64.68123733345419,64.19999999995343 70.90969295240939,57.42356008174829 71.2989714294672,36.24708078056574 66.43299047555774,32.85882939118892 59.036699429154396,35.400018313666806 55.53319314215332,55.7294475666713 58.842060189694166,62.92941875127144 64.09731961879879,64.19999999995343 69.35257904790342,61.023545808158815 71.88288914319128,43.658866555662826 71.49361066706479,37.30590850766748 67.79546514339745,33.91765838582069 62.5402057133615,33.28236103709787 58.25814247597009,36.24708078056574 55.922471618279815,57.84708805102855 61.956287999637425,63.77647298038937 70.32577523868531,59.964726951671764 72.46680685691535,41.11768504790962 68.18474361952394,33.91765838582069 63.513401905074716,32.85882939118892 58.452781713567674,36.03531518741511 55.922471618279815,57.63532407418825 61.37237028591335,63.988236498320475 70.52041447721422,59.329435447696596 72.07752838172019,39.423562774667516 66.04371200036258,31.800000000046566 57.67422476131469,34.76472129672766" stroke="#4dd2ff" stroke-linecap="round" stroke-linejoin="round" stroke-width="0.5"><title>2024-05-09 2.0km</title><desc>1715244227000</desc></polyline><polyline fill="none" points="90.00540357735008,41.12058420246467 91.63717442099005,59.09591389284469 102.24368491023779,63.53425013599917 108.15885422099382,57.0986604175996 109.9945964217186,40.23291077837348 107.75091150961816,34.46302704606205 101.63177084363997,31.800000000046566 93.88085933215916,34.68494585878216 91.22923171054572,57.0986604175996 98.77617186587304,64.19999999995343 107.34296879917383,59.761664752615616 109.79062506649643,38.457563132978976 102.44765626545995,32.2438380070962 93.47291662171483,35.57262094295584 91.43320306483656,58.873996906680986 97.96028644312173,63.97808339539915 106.1191406659782,61.093166024191305 109.58665371034294,39.56715553579852 103.05957033205777,32.465756985591725 92.65703119896352,36.682214425178245 91.22923171054572,57.98632879508659 97.14440102130175,63.53425013599917 107.34296879917383,59.09591389284469 109.17871099989861,38.23564460268244 102.24368491023779,32.02191901230253 93.47291662171483,36.01645838562399 91.63717442099005,57.542494639288634 97.5523437326774,63.312333481851965 106.73105473257601,59.5397478165105 108.97473964374512,38.01372605585493 103.05957033205777,32.465756985591725 92.86100255511701,33.79727050871588" stroke="#4dd2ff" stroke-linecap="round" stroke-linejoin="round" stroke-width="0.5"><title>2024-05-05 2.0km</title><desc>1714901559000</desc></polyline><polyline fill="none" points="127.70688987430185,45.12916029035114 128.2723292009905,59.89369295304641 132.60736403986812,63.789875810733065 138.45023708418012,63.789875810733065 145.047029228881,57.227880438324064 145.80094833206385,36.516479512210935 137.69631798099726,32.00506449514069 129.2147280788049,37.746864137006924 128.08384942542762,58.253193250857294 135.81152022443712,64.19999999995343 144.1046303510666,58.253193250857294 145.98942810762674,37.54180007125251 143.72767079994082,33.64557990641333 137.3193584298715,31.800000000046566 128.46080897562206,38.567120247520506 125.63361234217882,54.97219090163708 130.5340865077451,62.35444066557102 136.56543932668865,63.789875810733065 144.2931101275608,57.843068171758205 145.80094833206385,38.156992222648114 139.20415618550032,32.210128975100815 130.15712695661932,36.926607781788334 127.89536964986473,58.253193250857294 134.30368201993406,64.19999999995343 143.72767079994082,59.89369295304641 145.80094833206385,48.205111153190956 146.17790788318962,38.156992222648114 143.72767079994082,34.055708604864776 136.94239887874573,32.00506449514069 130.34560673311353,34.87596581946127 127.51841009873897,55.79244185704738 132.795843815431,63.584813692839816 137.69631798099726,63.789875810733065 143.35071124881506,59.48356811911799 146.3663876587525,39.59244003938511 144.85854945424944,34.87596581946127 140.52351461537182,32.620257889153436 135.0576011221856,32.41519344015978 129.4032078543678,36.72154365456663 126.76449099648744,56.40762991295196 129.02624830324203,61.534191673155874 137.3193584298715,63.99493791302666 144.48158990219235,56.40762991295196 145.4239887809381,36.311415354022756 139.95807528868318,32.620257889153436 133.36128314211965,33.44051553332247 128.64928875211626,39.7975039514713 129.2147280788049,61.12406708532944 138.82719663437456,63.37975156027824 143.9161505755037,59.27850567968562 145.23550900444388,52.921562439063564 144.85854945424944,35.08103008498438 138.2617573076859,32.00506449514069 131.4764853855595,34.055708604864776 128.2723292009905,39.7975039514713 128.08384942542762,60.50888008833863 137.50783820543438,63.789875810733065 144.48158990219235,57.02281783055514 145.61246855650097,35.6962227888871 136.0,32.00506449514069 128.08384942542762,39.38737611169927 128.46080897562206,61.12406708532944 132.98432359099388,64.19999999995343 139.20415618550032,63.37975156027824 145.23550900444388,54.767128124367446 145.61246855650097,35.6962227888871 141.65439326874912,32.210128975100815 134.68064157199115,32.41519344015978 128.08384942542762,39.38737611169927 128.08384942542762,60.30381772527471 137.69631798099726,64.19999999995343 144.67006967775524,57.227880438324064 145.98942810762674,37.13167189410888 142.7852719221264,33.235451145330444 136.3769595520571,32.41519344015978 128.46080897562206,37.746864137006924 128.2723292009905,59.68863054388203 137.13087865430862,64.19999999995343 144.48158990219235,56.81775520602241 145.4239887809381,36.106351180933416 140.52351461537182,32.210128975100815 133.9267224688083,32.620257889153436 128.2723292009905,39.7975039514713 126.57601122092456,58.458255767356604" stroke="#4dd2ff" stroke-linecap="round" stroke-linejoin="round" stroke-width="0.5"><title>2024-04-29 5.0km</title><desc>1714382183000</desc></polyline><polyline fill="none" points="164.0035715997219,59.20002562133595 170.06982762739062,63.80000239354558 178.8934727581218,59.8000230405014 181.65086186211556,40.40003827959299 179.44495057873428,35.20001844014041 173.01104267127812,33.00000700238161 165.47417912166566,39.20003459881991 163.63591971900314,59.000026451889426 166.76096070278436,63.000007001450285 172.09191296994686,63.80000239354558 178.70964681822807,59.40002477564849 179.62877651955932,39.400035249767825 173.5625204909593,33.80001137102954 164.92270130105317,39.60003588581458 164.0035715997219,58.60002806736156 172.64339079055935,62.800008116522804 179.07729869894683,57.800031119491905 179.62877651955932,37.80002962425351 171.54043514840305,33.6000103012193 163.63591971900314,42.80004402436316 162.34913813788444,48.000049081398174 166.02565694227815,61.60001449007541 172.09191296994686,63.2000058721751 176.6875614747405,60.80001844000071 179.81260245852172,39.400035249767825 175.03312801383436,33.80001137102954 165.65800506155938,37.200027267448604 163.8197456598282,54.80004043341614 168.96687198616564,62.20001137070358 177.7905171168968,58.800027266843244 180.1802543401718,39.20003459881991 175.76843177434057,33.80001137102954 170.98895732779056,33.4000092165079 166.2094828831032,37.80002962425351 164.37122348044068,57.40003255568445 167.68009040411562,61.60001449007541 172.8272167313844,62.20001137070358 180.1802543401718,55.40003883955069 175.58460583444685,31.800000000046566 165.1065272409469,37.40002806810662 163.08444189932197,55.800037702778354 169.3345238668844,64.19999999995343 178.8934727581218,59.8000230405014 181.2832099813968,40.80003938637674 178.8934727581218,35.60002032550983 173.5625204909593,33.00000700238161 168.7830460453406,34.00001242570579 164.18739753961563,39.20003459881991 162.90061595849693,57.40003255568445 169.3345238668844,63.80000239354558 175.21695395372808,63.2000058721751 178.8934727581218,59.40002477564849 181.09938404150307,39.60003588581458 173.93017237167805,32.80000587226823 164.5550494203344,37.60002885386348 163.08444189932197,56.40003588539548 166.57713476289064,61.60001449007541 171.7242610892281,63.000007001450285 179.81260245852172,55.800037702778354 180.91555810067803,38.200031120097265 178.70964681822807,34.800016495166346 171.35660920944065,33.00000700238161 164.18739753961563,38.60003255633637 162.90061595849693,57.40003255568445 169.1506979269907,64.19999999995343 178.52582087833434,59.40002477564849 181.2832099813968,39.60003588581458 178.52582087833434,34.60001550009474 173.19486861117184,32.80000587226823 164.18739753961563,38.60003255633637 162.7167900186032,56.600035248789936 168.7830460453406,63.80000239354558 178.8934727581218,58.40002885297872 181.09938404150307,38.60003255633637 174.29782425239682,32.60000472771935 164.5550494203344,37.60002885386348 163.08444189932197,56.600035248789936 169.51834980677813,64.00000120420009 178.70964681822807,58.60002806736156 180.36408028006554,39.20003459881991 173.74634643178433,33.2000081166625 164.37122348044068,38.60003255633637 163.08444189932197,57.00003393297084 165.84183100238442,62.20001137070358 171.1727832686156,63.600003567989916 178.3419949375093,56.600035248789936 179.81260245852172,39.00003393320367 172.8272167313844,33.2000081166625 165.1065272409469,39.20003459881991 164.0035715997219,57.60003184527159 170.98895732779056,62.60000921576284 178.15816899761558,57.40003255568445 179.62877651955932,39.00003393320367 173.19486861117184,33.6000103012193 164.92270130105317,39.00003393320367 162.34913813788444,56.600035248789936" stroke="#4dd2ff" stroke-linecap="round" stroke-linejoin="round" stroke-width="0.5"><title>2024-04-28 5.8km</title><desc>1714295019000</desc></polyline><polyline fill="none" points="18.275980371050537,86.48575791390613 20.504401536658406,101.25307944393717 25.366411350667477,104.55918606440537 31.646507360972464,103.67755799554288 36.1033496921882,98.608191476902 37.116268403828144,76.78777515236288 28.202583742327988,73.04081871756352 21.314736505039036,79.21227383520454 19.694066567346454,98.82859889790416 22.93540644366294,103.67755799554288 28.810334969311953,104.779593040701 36.1033496921882,98.608191476902 38.12918711453676,80.53472682158463 37.72401963081211,76.78777515236288 31.646507360972464,72.82040936755948 21.922487732023,77.44900226336904 20.099234051071107,97.94696911447681 22.530238959006965,102.79592966171913 27.594832515344024,104.55918606440537 35.49559846520424,99.93063575704582 36.91368466056883,77.44900226336904 28.202583742327988,72.60000000009313 23.13799018599093,75.24491131491959 21.11215276364237,80.31431803200394 21.314736505039036,101.69389387476258 29.012918712571263,105.0 33.87492852564901,102.35511539666913 37.5214358875528,80.31431803200394 32.659426072612405,73.2612280510366 27.18966503161937,73.04081871756352 22.327655216678977,77.00818420550786 19.896650309674442,96.8449315126054 26.379330062307417,104.779593040701 35.49559846520424,99.71022841823287 37.5214358875528,78.55104711954482 31.0387561339885,72.82040936755948 22.12507147528231,77.44900226336904 20.099234051071107,97.06533906585537 25.97416257765144,104.55918606440537 35.698182206600904,99.26941369124688 37.5214358875528,78.991864946438 33.87492852564901,73.2612280510366 23.745741412974894,74.58368370891549 19.694066567346454,97.28574660327286 26.176746320910752,104.55918606440537 35.29301472287625,99.48982106312178 37.5214358875528,79.21227383520454 32.659426072612405,73.04081871756352 27.392248773947358,72.60000000009313 21.922487732023,77.22859324258752 20.099234051071107,97.06533906585537 25.568995093926787,104.11837206268683 34.482679752632976,100.81226494791918 37.31885214429349,79.87350040255114 31.646507360972464,73.2612280510366 25.568995093926787,73.9224559541326 20.099234051071107,79.21227383520454 17.87081288639456,97.28574660327286" stroke="#4dd2ff" stroke-linecap="round" stroke-linejoin="round" stroke-width="0.5"><title>2024-04-26 3.3km</title><desc>1714123626000</desc></polyline><polyline fill="none" points="54.550640356726944,90.0462008304894 57.79587498214096,101.0538663752377 61.613798069767654,104.16923549259081 66.76799423899502,103.7538531459868 70.77681348193437,99.18464322690852 72.87667118106037,84.4385053764563 72.30398271698505,79.2461846715305 67.53157885745168,74.46924104704522 57.414082671515644,78.62310553435236 55.50512112863362,97.52311048284173 61.232005761004984,103.33847073675133 70.58591732755303,99.39233474992216 72.30398271698505,79.66157068591565 65.43172115832567,73.63846740336157 57.22318651806563,78.4154124581255 55.50512112863362,97.73080213065259 60.468421143479645,103.13077950873412 70.0132288634777,99.60002625756897 72.11308656260371,79.2461846715305 64.85903269518167,73.8461608379148 56.84139420930296,79.03849164163694 55.886913436464965,98.35387697978877 59.51394037064165,103.13077950873412 65.62261731177568,103.54616194870323 70.3950211731717,99.60002625756897 72.30398271698505,79.86926366901025 66.00440962146968,73.43077395414002 57.414082671515644,77.79233313421719 55.69601728301495,97.10772714181803 62.37738268729299,103.54616194870323 70.9677096363157,97.73080213065259 72.11308656260371,79.03849164163694 65.24082500394434,73.22308048862033 55.886913436464965,78.20771936583333 55.50512112863362,82.153885462787 55.69601728301495,100.22310068667866 60.086628834716976,104.37692664307542 66.19530577585101,103.96154432720505 72.11308656260371,97.73080213065259 72.4948788722977,77.3769468406681 63.71365576889366,72.60000000009313 59.13214806187898,73.63846740336157 55.886913436464965,79.03849164163694 54.550640356726944,98.76926013384946 59.13214806187898,103.96154432720505 64.28634423203766,105.0 71.73129425384104,98.97695168829523 73.44935964420438,79.66157068591565 67.91337116528302,72.8076935117133 61.04110960662365,72.60000000009313 56.84139420930296,75.71540104574524 54.74153651110828,99.39233474992216" stroke="#4dd2ff" stroke-linecap="round" stroke-linejoin="round" stroke-width="0.5"><title>2024-04-25 3.0km</title><desc>1714037269000</desc></polyline><polyline fill="none" points="90.9850302124396,95.74289350025356 98.07545588817447,104.11837206291966 107.19171747099608,101.25307944417 109.82530415058136,80.31431803223677 104.96329797245562,74.14286522264592 97.67028870712966,74.36327447416261 94.83411843702197,77.4490022638347 92.60569893848151,97.94696911447681 97.67028870712966,104.33877907227725 107.5968846520409,101.03267220407724 110.02788774017245,80.9755443520844 107.19171747099608,75.24491131515242 97.67028870712966,74.14286522264592 89.56694507785141,83.8408566901926 94.22636766452342,102.1347082387656 100.70904256869107,105.0 105.57104874495417,103.23674386180937 109.0149697875604,77.4490022638347 99.08837384264916,73.48163736891001 89.97211225889623,80.7551355951 93.21344971098006,101.03267220407724 97.46770511567593,104.5591860646382 104.76071438193321,103.45715093635954 109.0149697875604,98.16737658483908 110.02788774017245,80.09390922542661 105.57104874495417,73.70204667025246 98.88579025212675,73.48163736891001 94.42895125411451,77.4490022638347 92.20053175650537,96.62452394352295 97.46770511567593,104.33877907227725 107.79946824256331,100.59185767453164 110.02788774017245,79.65309156337753 102.93746206630021,73.26122805150226 93.8212004834786,78.55104711977765 91.79536457546055,97.50615412299521 97.46770511567593,104.5591860646382 106.58396669849753,102.79592966171913 110.23047133162618,80.31431803223677 104.15296361036599,73.04081871779636 95.03670202754438,76.34695699531585 92.20053175650537,96.8449315126054 97.46770511567593,104.11837206291966 106.98913388047367,101.69389387476258 110.43305492307991,81.8571792144794 108.812386197038,75.46532048401423 101.11420974973589,72.60000000009313 95.03670202754438,76.78777515236288 92.60569893848151,98.38778403890319 98.68320666067302,104.5591860646382 108.40721901506186,100.59185767453164 110.02788774017245,79.21227383520454 102.93746206630021,73.04081871779636 94.02378407400101,77.66941126761958 92.20053175650537,99.48982106358744 100.30387538578361,104.5591860646382 108.60980260651559,99.48982106358744 109.42013696953654,77.4490022638347 101.72196052130312,73.04081871779636 94.02378407400101,78.33063818141818 92.60569893848151,99.04900630260818 99.29095743224025,104.33877907227725 108.40721901506186,99.48982106358744 109.62272056005895,78.33063818141818 100.91162615828216,73.04081871779636 94.42895125411451,77.66941126761958 92.60569893848151,99.04900630260818 101.51937693078071,105.0 108.60980260651559,98.16737658483908 109.82530415058136,78.33063818141818 100.70904256869107,73.26122805150226 94.02378407400101,79.43268270744011 92.80828252900392,99.04900630260818 101.11420974973589,104.33877907227725 108.60980260651559,98.608191476902 110.02788774017245,79.21227383520454 106.38138310890645,74.14286522264592 100.50645897723734,73.26122805150226 94.02378407400101,79.21227383520454 94.02378407400101,100.37145038554445" stroke="#4dd2ff" stroke-linecap="round" stroke-linejoin="round" stroke-width="0.5"><title>2024-04-22 4.9km</title><desc>1713776322000</desc></polyline><polyline fill="none" points="127.084447234869,82.60004189261235 128.55505387671292,98.80003037978895 137.19486789777875,103.40000921627507 142.5258169732988,98.0000332519412 142.89346863422543,78.40002885367721 133.33452546223998,73.6000058723148 127.81975055672228,80.60003650654107 127.81975055672228,100.40002391603775 132.41539631132036,104.20000472804531 138.48164870776236,104.40000356826931 143.81259778421372,97.60003459849395 143.62877195421606,77.0000230409205 134.25365461409092,73.80000700219534 128.00357638578862,80.00003459933214 128.00357638578862,100.40002391603775 131.1286154994741,103.60000811656937 138.84930036962032,104.20000472804531 143.62877195421606,98.80003037978895 144.36407527513802,77.60002562194131 136.2757387459278,73.20000356808305 128.7388797076419,78.40002885367721 126.71679557487369,97.60003459849395 129.6580088576302,103.00001137075014 135.54043542500585,104.60000239405781 143.4449461242184,99.00002962374128 144.73172693606466,79.00003112037666 135.90808708500117,73.80000700219534 128.37122804671526,79.00003112037666 127.26827306579798,98.6000311197713 130.57713800948113,103.20001030131243 136.2757387459278,104.60000239405781 143.62877195421606,98.6000311197713 144.36407527513802,77.80002645240165 136.64339040685445,73.20000356808305 128.37122804671526,79.4000325568486 127.6359247257933,100.00002562161535 131.3124413304031,103.80000700172968 137.74634538777173,104.60000239405781 143.9964236151427,98.2000325564295 144.36407527513802,78.00002726796083 136.09191291593015,73.6000058723148 130.57713800948113,75.60001649521291 128.1874022167176,79.80003393325023 126.90062140394002,97.80003393255174 129.84183468855917,102.80001242551953 135.1727837640792,105.0 143.62877195421606,98.80003037978895 144.91555276606232,78.40002885367721 136.64339040685445,73.6000058723148 128.37122804671526,79.20003184583038 127.084447234869,98.80003037978895 135.35660959407687,105.0 143.0772944642231,100.40002391603775 145.46703025698662,82.80004234937951 143.9964236151427,77.0000230409205 140.13608118053526,74.40001030103303 129.6580088576302,76.4000203255564 126.5329697439447,96.20003884029575 129.84183468855917,102.60001346538775 136.2757387459278,104.60000239405781 141.60668782144785,101.80001747468486 145.46703025698662,82.80004234937951 141.23903616145253,74.40001030103303 131.1286154994741,74.80001242598519 127.6359247257933,80.60003650654107 127.6359247257933,100.6000230407808 134.98895793408155,105.0 140.68755867052823,103.00001137075014 143.9964236151427,97.80003393255174 145.09937859605998,80.20003525004722 136.8272162368521,72.5999999998603 128.55505387671292,78.60002962453291 126.90062140394002,98.6000311197713 135.54043542500585,105.0 143.62877195421606,99.60002726712264 145.09937859605998,79.80003393325023 137.19486789777875,73.6000058723148 128.1874022167176,78.40002885367721 126.5329697439447,96.60003770329058" stroke="#4dd2ff" stroke-linecap="round" stroke-linejoin="round" stroke-width="0.5"><title>2024-04-21 5.0km</title><desc>1713688153000</desc></polyline><polyline fill="none" points="172.58535809395835,78.8890206416254 173.24388594925404,83.58585991495056 175.21946951653808,84.22271788137732 177.04871355975047,83.18782349221874 178.14625998586416,75.54549530753866 177.12188332155347,73.55529666872462 174.85362070798874,73.07764844142366 173.24388594925404,74.27176860760665 172.292679047212,81.7548911383492 174.48777189897373,84.14311065652873 177.4877321301028,82.55096490652068 178.14625998586416,75.14745587762445 175.95116713363677,72.99804038286675 173.0243766643107,74.66980836493894 172.365848809015,81.9937133314088 174.85362070798874,84.22271788137732 177.4877321301028,82.47135755646741 178.14625998586416,75.14745587762445 175.43897880148143,72.99804038286675 173.0243766643107,74.82902422646293 172.365848809015,82.07332071691053 174.85362070798874,84.22271788137732 177.56090189190581,82.31214283849113 178.14625998586416,75.06784797384171 175.65848808689043,72.99804038286675 173.0243766643107,74.74941629864043 172.43901857035235,82.23253547068452 174.85362070798874,84.22271788137732 177.56090189190581,82.31214283849113 178.14625998586416,75.14745587762445 175.21946951653808,72.99804038286675 172.9512069025077,74.98824006388895 172.43901857035235,82.39175020041876 174.85362070798874,84.22271788137732 177.4877321301028,82.47135755646741 178.07309022406116,75.06784797384171 175.36580903967842,72.99804038286675 172.9512069025077,74.82902422646293 172.365848809015,82.1529280966497 174.99996023112908,84.22271788137732 177.56090189190581,82.1529280966497 178.07309022406116,75.06784797384171 175.14629975473508,72.99804038286675 172.9512069025077,74.90863214811543 172.58535809395835,82.71017958852462 174.63411142257974,84.22271788137732 176.97554379794747,83.34703807922779 178.07309022406116,76.50078933208715 176.53652522759512,73.2368645411334 173.1707161879167,74.43098452826962 172.292679047212,81.67528372863308 173.82924404367805,83.90428894589422 175.73165784822777,84.14311065652873 177.2682228446938,82.86939424701268 178.14625998586416,75.46588743350003 176.31701594218612,73.07764844142366 173.39022547286004,74.03294468153035 172.73169761756435,82.9490015671472 175.73165784822777,84.14311065652873 177.63407165324315,81.67528372863308 178.07309022406116,74.90863214811543 174.99996023112908,73.07764844142366 172.8780371407047,75.06784797384171 172.58535809395835,82.71017958852462 174.99996023112908,84.22271788137732 177.4877321301028,82.47135755646741 178.14625998586416,75.14745587762445 175.58531832508743,72.99804038286675 172.9512069025077,74.90863214811543 172.58535809395835,82.71017958852462 175.51214856328443,84.14311065652873 177.63407165324315,81.67528372863308 177.78041117684916,74.35137657099403 175.65848808689043,72.99804038286675 173.3170557115227,74.11255266272929 172.292679047212,81.67528372863308 173.53656499646604,83.82468169700587 170.31709547992796,87.00896700378507 170.39026524219662,91.30773705424508 164.9025331120938,91.78537709917873 163.73181692464277,92.9794762734673 162.48793097492307,100.94010319659719 159.487970743794,103.80591431242647 161.75623335782439,105.0 159.268461458385,103.64670278632548 162.56110073672608,100.06443714973284 163.58547740103677,92.74065654573496 170.24392571859062,90.9097035197774 171.63415119145066,85.17800411651842 180.1950133140199,86.2128965703887 184.731538541615,81.9937133314088 180.70720164617524,84.85957546683494 177.85358093865216,84.70036110613728 178.07309022406116,74.5902004254167 177.1950530828908,73.07764844142366 175.07312999293208,72.59999999997672 172.65852785576135,74.82902422646293 172.073169761803,82.71017958852462 175.14629975473508,84.38193231343757 177.4145623682998,81.9937133314088 177.92675070045516,74.51059247984085 176.97554379794747,72.91843231831444 174.48777189897373,72.83882424753392 172.512188332621,75.22706377547001 172.073169761803,83.18782349221874 175.07312999293208,84.30232510052156 177.1950530828908,81.91410593950422 177.85358093865216,74.43098452826962 176.82920427434146,72.99804038286675 174.56094166077673,72.83882424753392 172.146339523606,76.18235808593454 171.70732095325366,82.07332071691053 172.65852785576135,83.90428894589422 174.99996023112908,84.38193231343757 177.04871355975047,82.71017958852462 177.92675070045516,75.38627955352422 176.02433689543977,72.67960808851058 172.8780371407047,74.11255266272929 171.70732095325366,82.1529280966497 173.90241380501539,84.22271788137732 177.1950530828908,82.07332071691053 177.99992046225816,74.82902422646293 176.90237403614447,72.99804038286675 175.43897880148143,72.67960808851058 172.0,75.70471103792079 171.56098142964765,82.55096490652068 174.78045094618574,84.38193231343757 177.2682228446938,81.9937133314088 177.70724141551182,74.43098452826962 175.29263927834108,72.67960808851058 172.292679047212,74.98824006388895 171.70732095325366,82.31214283849113 174.48777189897373,84.46153952059103 177.2682228446938,81.91410593950422 177.70724141551182,74.35137657099403 175.21946951653808,72.67960808851058 172.43901857035235,74.51059247984085 171.70732095325366,82.07332071691053 174.48777189897373,84.30232510052156 177.12188332155347,82.47135755646741 177.78041117684916,74.51059247984085 175.21946951653808,72.67960808851058 172.146339523606,75.06784797384171 171.85366047685966,82.1529280966497 174.56094166077673,84.30232510052156 177.1950530828908,82.07332071691053 177.92675070045516,74.51059247984085 175.58531832508743,72.67960808851058 172.365848809015,74.51059247984085 171.41464190604165,81.91410593950422 174.34143237536773,84.30232510052156 177.1950530828908,82.55096490652068 177.70724141551182,74.51059247984085 174.99996023112908,72.67960808851058 172.219509285409,74.98824006388895 171.63415119145066,82.47135755646741 174.48777189897373,84.30232510052156 177.2682228446938,82.07332071691053 177.78041117684916,74.74941629864043 175.29263927834108,72.75921617099084 172.292679047212,74.43098452826962 171.48781166831031,81.67528372863308 174.34143237536773,84.14311065652873 177.2682228446938,81.9937133314088 177.85358093865216,74.5902004254167 175.14629975473508,72.67960808851058 172.365848809015,74.51059247984085 171.56098142964765,81.91410593950422 174.4146021376364,84.22271788137732 177.3413926064968,82.23253547068452 177.92675070045516,74.98824006388895 175.51214856328443,72.75921617099084 172.43901857035235,74.51059247984085 171.56098142964765,81.91410593950422 174.1950928522274,84.38193231343757 177.1950530828908,82.1529280966497 178.07309022406116,74.82902422646293 177.12188332155347,73.15725649421802 175.29263927834108,72.75921617099084 172.292679047212,74.43098452826962 171.56098142964765,81.9937133314088 174.1950928522274,84.22271788137732 177.3413926064968,82.07332071691053 177.70724141551182,74.5902004254167 176.97554379794747,73.2368645411334 174.92679046932608,72.75921617099084 172.073169761803,74.5902004254167 171.70732095325366,82.1529280966497 174.70728118391708,84.22271788137732 177.12188332155347,82.55096490652068 177.70724141551182,74.27176860760665 175.07312999293208,72.67960808851058 172.43901857035235,73.31647258187877 171.56098142964765,74.66980836493894" stroke="#4dd2ff" stroke-linecap="round" stroke-linejoin="round" stroke-width="0.5"><title>2024-04-18 12.3km</title><desc>1713432540000</desc></polyline><polyline fill="none" points="36.636138796806335,137.8080337792635 35.4449472380802,117.72002100641839 27.30513825826347,113.83200239157304 21.150648541748524,119.6640283507295 19.959456983953714,140.61602443200536 26.113946699537337,145.36800239095464 31.6728406380862,144.28800808708183 35.047883385792375,139.75202759820968 35.84201109036803,117.72002100641839 31.077244858257473,113.83200239157304 25.518350921571255,114.04800356319174 20.753584689460695,119.44802759890445 19.959456983953714,139.96802683128044 23.533031658269465,144.93600471806712 28.89339366927743,145.80000000004657 35.24641531147063,138.88803050667048 36.43760686926544,119.6640283507295 28.297797890380025,113.4000000001397 20.753584689460695,119.88002908579074 19.76092505734414,139.75202759820968 25.31981899496168,145.36800239095464 34.45228760596365,140.83202359895222 36.43760686926544,120.96003251918592 34.45228760596365,116.20801438950002 28.297797890380025,113.4000000001397 20.952116615138948,119.23202683124691 19.76092505734414,139.96802683128044 25.518350921571255,145.5840012037661 31.6728406380862,144.0720091778785 34.65081953257322,139.75202759820968 35.84201109036803,119.23202683124691 27.106606332585216,113.4000000001397 21.150648541748524,119.6640283507295 19.959456983953714,140.18402604712173 28.09926596377045,145.80000000004657 34.8493514591828,139.32002908503637 35.4449472380802,118.8000252477359 31.6728406380862,114.91200808738358 24.5256912894547,114.48000585730188 21.150648541748524,119.88002908579074 20.356520836241543,140.83202359895222 29.48898944724351,144.93600471806712 34.8493514591828,136.94403610564768 35.24641531147063,118.1520227517467 29.886053300462663,114.26400471827947 24.5256912894547,115.12800917821005 20.356520836241543,125.4960425295867 21.944776247255504,143.64001131081022 28.496329816058278,145.15200356277637 33.65815990138799,141.26402188651264 35.84201109036803,120.74403186468408 33.45962797384709,116.20801438950002 28.09926596377045,114.48000585730188 21.150648541748524,116.85601732227951 19.363861204124987,121.17603315785527" stroke="#4dd2ff" stroke-linecap="round" stroke-linejoin="round" stroke-width="0.5"><title>2024-04-17 3.1km</title><desc>1713344929000</desc></polyline><polyline fill="none" points="57.02035935316235,120.69003381230868 55.1591218477115,136.48503971938044 59.439968110993505,142.35751841310412 64.46530937589705,143.77501136157662 70.42126939352602,139.52253028959967 72.46863064914942,120.28503244835883 65.7681756298989,114.41250586998649 57.764854355715215,119.88003102457151 56.648111851885915,138.91503244871274 63.534690622240305,144.18000921071507 70.79351689480245,139.52253028959967 72.28250689897686,120.69003381230868 65.2098043775186,114.41250586998649 57.764854355715215,120.69003381230868 56.46198810171336,138.30753447092138 63.162443121895194,143.5725124143064 70.79351689480245,139.1175317435991 72.28250689897686,120.89253447111696 66.698794381693,115.02000921056606 58.137101856060326,119.47502954024822 56.46198810171336,138.7125331372954 63.34856687206775,143.77501136157662 70.79351689480245,138.91503244871274 72.46863064914942,121.2975357437972 65.95429938100278,114.81750811217353 58.137101856060326,119.67753028986044 56.648111851885915,137.90253574261442 58.69547310844064,141.75002120807767 64.09306187462062,143.77501136157662 70.79351689480245,139.1175317435991 72.28250689897686,119.67753028986044 64.2791856257245,114.61500699911267 58.137101856060326,119.67753028986044 56.83423560298979,138.91503244871274 63.90693812444806,144.38250811235048 70.60739314369857,139.32003102381714 72.46863064914942,120.28503244835883 65.7681756298989,114.61500699911267 58.50934935826808,119.88003102457151 56.46198810171336,137.90253574261442 59.812215611338615,142.7625164743513 64.83755687717348,143.97751029348 70.79351689480245,139.1175317435991 71.91025939770043,120.08253174414858 64.6514331260696,114.61500699911267 58.50934935826808,119.88003102457151 57.02035935316235,137.90253574261442 61.85957686789334,143.77501136157662 70.42126939352602,139.32003102381714 72.46863064914942,121.2975357437972 65.58205187879503,114.61500699911267 58.50934935826808,119.47502954024822 56.83423560298979,137.49753695493564 61.85957686789334,143.77501136157662 70.42126939352602,139.72502953954972 72.84087815135717,121.09503511479124 66.3265468813479,115.2225102938246 58.50934935826808,119.47502954024822 56.46198810171336,138.1050351143349 62.976319370791316,144.18000921071507 70.60739314369857,139.1175317435991 72.28250689897686,120.08253174414858 65.95429938100278,114.81750811217353 61.115081866271794,115.83001345256343 58.50934935826808,119.88003102457151 56.83423560298979,139.32003102381714 63.72081437334418,144.18000921071507 70.979640644975,138.7125331372954 72.28250689897686,119.88003102457151 64.6514331260696,115.02000921056606 58.137101856060326,120.08253174414858 57.02035935316235,138.91503244871274 63.534690622240305,143.77501136157662 70.79351689480245,138.51003381144255 72.28250689897686,120.28503244835883 65.7681756298989,114.81750811217353 58.50934935826808,119.272528775502 56.648111851885915,139.1175317435991 62.79019562155008,143.97751029348 70.23514564242214,139.72502953954972 72.46863064914942,120.48753313790075 64.83755687717348,114.81750811217353 57.39260685443878,118.66502638929524 55.1591218477115,138.1050351143349 60.55671061389148,144.58500699861906 66.14042313024402,144.78750587045215 71.35188814625144,141.14252386661246 73.02700190152973,124.74004411324859 68.74615563824773,114.00750356772915 63.72081437334418,113.4000000001397 58.50934935826808,117.24752029194497 54.78687434736639,134.86504335561767 56.83423560298979,143.37001345166937 61.487329366616905,145.80000000004657 67.8155368855223,144.58500699861906 73.21312565170228,136.8900386595633" stroke="#4dd2ff" stroke-linecap="round" stroke-linejoin="round" stroke-width="0.5"><title>2024-04-15 5.9km</title><desc>1713172666000</desc></polyline><polyline fill="none" points="103.11737485276535,116.83157368400134 103.33742484264076,123.37547429912956 104.95112476637587,124.89173822582234 107.07827466586605,124.73213159822626 108.98537457594648,122.4976363038877 109.35212455829605,115.23549427377293 106.05137471435592,113.40000000002328 103.5574748320505,116.03353427746333 103.26407484617084,122.97645711805671 104.58437478356063,124.73213159822626 106.41812469717115,124.97154153051088 109.05872457288206,122.81685020396253 109.13207456935197,114.59706184116658 106.41812469717115,113.4798041646718 104.07092480780557,114.99608215631451 103.11737485276535,122.41783281392418 104.87777476990595,124.81193491484737 107.44502464868128,124.73213159822626 109.13207456935197,123.05626056628535 109.64552454464138,115.63451435038587 107.07827466586605,113.55960832315031 103.63082482898608,115.71431834768737 103.04402485629544,122.09861879458185 105.24452475272119,124.97154153051088 108.76532458607107,123.61488453607308 109.64552454464138,115.8739263243624 107.59172464208677,113.71921662223758 104.07092480780557,114.99608215631451 103.11737485276535,122.65724326577038 105.17117475625128,124.97154153051088 108.54527459666133,123.9340981017449 109.71887454111129,116.35275011172052 108.25187461078167,113.87882489763433 106.49147469364107,113.55960832315031 104.14427480427548,114.836474048323 103.19072484970093,122.25822581618559 105.02447476284578,124.89173822582234 108.54527459666133,123.9340981017449 109.13207456935197,114.59706184116658 105.75797472847626,113.71921662223758 103.70417482499033,115.8739263243624 103.33742484264076,123.05626056628535 106.49147469364107,124.97154153051088 109.05872457288206,122.89665366394911 109.4988245521672,115.71431834768737 106.8582246764563,113.63941247557523 103.70417482499033,115.71431834768737 103.19072484970093,123.05626056628535 105.83132472494617,124.97154153051088 108.83867458300665,122.97645711805671 109.4988245521672,115.79412233905168 106.63817468704656,113.4798041646718 103.77752482192591,115.55471034691436 103.19072484970093,123.13606400846038 105.61127473507077,124.97154153051088 107.7384246350266,124.65232827543514 109.05872457288206,122.97645711805671 109.57217454863712,115.55471034691436 106.78487467998639,113.55960832315031 103.77752482192591,115.63451435038587 103.33742484264076,122.81685020396253 105.75797472847626,124.97154153051088 108.76532458607107,123.53508112957934 109.64552454464138,115.63451435038587 106.78487467998639,113.55960832315031 103.85087481839582,115.31529830105137 103.26407484617084,122.57743978808867 105.46457474213094,124.97154153051088 108.76532458607107,123.45527771738125 109.57217454863712,115.95373030402698 107.22497465927154,113.63941247557523 103.99757481133565,115.07588620146271 103.19072484970093,122.97645711805671 105.61127473507077,125.05134482949506 108.83867458300665,123.53508112957934 109.57217454863712,115.8739263243624 107.22497465927154,113.63941247557523 103.11737485276535,115.23549427377293 102.67727487394586,123.37547429912956 100.91687495680526,126.40799999731826 101.87042491184548,131.83460341655882 95.34227521996945,133.27105264249258 93.43517530988902,141.01188462181017 90.28112545888871,144.44336949114222 94.16867527551949,145.79999999998836" stroke="#4dd2ff" stroke-linecap="round" stroke-linejoin="round" stroke-width="0.5"><title>2024-04-14 5.4km</title><desc>1713087921000</desc></polyline><polyline fill="none" points="126.37727080285549,135.22044733911753 131.03669757116586,144.47755799465813 139.7477997932583,144.91837206226774 144.20464278943837,137.6449315128848 144.4072265625,116.92654789239168 135.69612434133887,114.061228051316 129.82119493652135,119.79186494578607 128.20052475482225,139.6285988977179 131.64444889035076,144.03674386139028 137.11421074904501,145.13877907162532 143.79947524424642,139.1877840384841 145.21756165195256,118.91022922634147 136.30387565959245,113.62040936644189 129.61861116345972,120.23268270725384 128.20052475482225,139.84900630265474 135.49354056827724,144.91837206226774 143.5968914721161,140.28982106223702 145.82531297020614,121.11431803135201 138.73488092888147,113.62040936644189 130.4289462538436,118.02859324240126 128.60569230094552,139.40819147625007 135.69612434133887,145.35918606398627 143.39430769905448,140.9510430789087 145.42014542594552,120.45309156295843 137.72196206636727,113.8408187169116 130.22636248078197,118.91022922634147 127.99794098269194,138.96737658441998 134.48062170576304,145.80000000004657 143.5968914721161,140.51022841827944 145.82531297020614,121.33472682139836 139.54521602019668,114.061228051316 130.4289462538436,118.68982025515288 128.4031085278839,138.52656162623316 134.88578925095499,144.91837206226774 143.39430769905448,141.17145038512535 145.6227291971445,120.45309156295843 137.92454584036022,113.62040936644189 130.4289462538436,118.46941126766615 128.4031085278839,138.7469691131264 133.2651190701872,144.91837206226774 140.15296733845025,144.47755799465813 143.79947524424642,140.73063575685956 145.42014542594552,120.01227383501828 137.92454584036022,113.62040936644189 130.4289462538436,118.24900226318277 128.60569230094552,139.84900630265474 135.49354056827724,145.80000000004657 144.20464278943837,139.84900630265474 145.42014542594552,118.91022922634147 137.51937829423696,113.62040936644189 129.82119493652135,119.35104711935855 127.99794098269194,139.40819147625007 135.69612434133887,145.35918606398627 143.79947524424642,139.6285988977179 145.6227291971445,120.01227383501828 137.51937829423696,113.39999999990687 130.22636248078197,118.24900226318277 128.4031085278839,137.86533906543627 133.2651190701872,144.91837206226774 143.79947524424642,140.51022841827944 145.42014542594552,118.91022922634147 138.93746470287442,113.62040936644189 130.22636248078197,118.24900226318277 128.60569230094552,139.40819147625007 134.0754541605711,145.13877907162532 143.39430769905448,140.9510430789087 145.6227291971445,121.33472682139836 138.93746470287442,113.39999999990687 130.22636248078197,118.02859324240126 128.4031085278839,138.7469691131264 134.88578925095499,145.13877907162532 143.39430769905448,140.9510430789087 145.82531297020614,119.79186494578607 140.7607186557725,114.28163736849092 133.67028661537915,114.28163736849092 127.39018966536969,127.72657455340959 127.18760589230806,138.7469691131264 126.17468702979386,134.3388162360061" stroke="#4dd2ff" stroke-linecap="round" stroke-linejoin="round" stroke-width="0.5"><title>2024-04-13 4.9km</title><desc>1713000859000</desc></polyline><polyline fill="none" points="162.6108241993934,127.0204285257496 164.12826675269753,141.87900113058276 168.68059441447258,144.76815873221494 175.6987662250176,144.3554221172817 178.73365133162588,136.7197836015839 179.30269228946418,118.3528908812441 170.95675824489444,114.63822355424054 164.69730771053582,121.24207312217914 163.55922579579055,138.9898405028507 167.16315186116844,143.11721190228127 172.663881117478,143.73631707951427 178.35429069399834,138.78347177105024 179.4923726087436,118.3528908812441 171.14643856324255,114.63822355424054 164.69730771053582,122.27392318914644 163.93858643434942,138.9898405028507 171.3361188834533,144.1490537871141 178.16461037378758,139.40257792081684 180.0614135665819,120.41659279051237 173.2329220753163,114.43185300007463 165.64570930600166,119.17837182991207 164.12826675269753,138.57710302318446 170.767077925615,143.94268544064835 178.16461037378758,138.9898405028507 180.0614135665819,120.21022266941145 173.42260239459574,114.22548243100755 165.64570930600166,119.59111221227795 164.12826675269753,138.9898405028507 171.14643856324255,144.1490537871141 178.16461037378758,139.60894660674967 180.0614135665819,119.59111221227795 172.28452047891915,114.22548243100755 165.45602898858488,120.00385253224522 164.50762739218771,140.22805257118307 173.61228271387517,143.94268544064835 178.73365133162588,137.75162787898444 179.11301197018474,115.87644655187614 169.4393156915903,113.81274124630727 164.12826675269753,120.82933298684657 162.99018483888358,140.22805257118307 167.73219281807542,144.97452701674774 172.663881117478,145.38726353924721 179.87173324730247,139.1962092195172 180.25109388493001,116.90829862607643 171.3361188834533,113.4000000001397 163.93858643434942,119.59111221227795 162.6108241993934,140.22805257118307 166.21475026477128,145.1808952856809 172.47420079819858,145.59363177744672 180.0614135665819,138.37073426041752 180.82013484369963,118.14652060554363 170.38771728798747,114.01911184657365 163.36954547744244,120.6229628964793 162.6108241993934,140.0216839313507 170.00835664849728,145.80000000004657 179.11301197018474,140.64078980335034 181.76853643916547,121.03570306254551 177.21620877832174,114.01911184657365 167.73219281807542,114.84459409234114 163.36954547744244,121.65481319534592 164.12826675269753,140.43442119495012 173.04324175603688,144.56179043278098 178.54397101234645,139.1962092195172 180.25109388493001,120.6229628964793 176.8368481406942,115.46370561467484 171.9051598412916,114.01911184657365 164.88698803074658,120.00385253224522 164.31794707290828,138.78347177105024 170.95675824489444,143.94268544064835 178.54397101234645,139.1962092195172 180.0614135665819,120.21022266941145 173.2329220753163,114.22548243100755 165.26634866837412,120.00385253224522 164.31794707290828,138.9898405028507 170.00835664849728,144.3554221172817 176.07812686264515,143.11721190228127 178.9233316509053,138.9898405028507 180.44077420420945,120.21022266941145 173.61228271387517,114.22548243100755 164.12826675269753,120.41659279051237 162.23146356176585,137.13252135855146" stroke="#4dd2ff" stroke-linecap="round" stroke-linejoin="round" stroke-width="0.5"><title>2024-04-12 5.1km</title><desc>1712913892000</desc></polyline><polyline fill="none" points="12.100000000325963,161.91380595450755 11.800000000046566,166.4833446581615 13.720000000204891,168.6375474621891 16.72000000020489,167.26669174764538 17.50000000023283,161.2610127577791 16.959999999962747,159.8901454550214 15.28000000026077,159.106791743543 12.820000000065193,160.47766027698526 12.160000000149012,166.54862360900734 13.720000000204891,168.44171106338035 16.78000000002794,167.1361339481664 17.43999999994412,161.2610127577791 15.580000000074506,159.17207124643028 12.940000000409782,160.347101461899 12.220000000204891,166.4833446581615 14.200000000186265,168.57226866745623 16.66000000014901,167.4625284099602 17.50000000023283,161.52213009505067 15.580000000074506,159.106791743543 12.940000000409782,160.347101461899 12.220000000204891,166.41806570230983 13.660000000149012,168.44171106338035 16.66000000014901,167.4625284099602 17.380000000353903,161.13045405980665 15.460000000195578,159.2373507444281 12.940000000409782,160.2818220469053 12.220000000204891,166.15694983006688 13.480000000214204,168.3111534396303 15.28000000026077,168.44171106338035 16.78000000002794,167.26669174764538 17.43999999994412,161.58740941714495 16.84000000008382,159.8248660058598 13.720000000204891,159.36790972552262 12.640000000130385,160.99989534239285 11.800000000046566,167.3319706399925 18.16000000014901,169.68200751347467 20.199999999953434,169.02922012779163 22.72000000020489,166.54862360900734 26.380000000121072,167.72364389174618 27.21999999997206,169.42089261789806 27.040000000037253,174.12094878550852 30.459999999962747,178.69042356905993 36.34000000008382,180.844596239971 42.39999999990687,181.69320825650357 44.199999999953434,180.5182067831047 44.02000000001863,169.55145007540705 43.23999999999069,169.87784363387618 43.0,172.0320380582707" stroke="#4dd2ff" stroke-linecap="round" stroke-linejoin="round" stroke-width="0.5"><title>2024-04-11 3.0km</title><desc>1712828151000</desc></polyline><polyline fill="none" points="56.21882730163634,161.09809599420987 55.45031641703099,180.12003005482256 58.33223223220557,184.9277511301916 63.71180841792375,186.3909689465072 72.54968358203769,180.74712457694113 73.8945776289329,160.2619640538469 65.82521334849298,154.19999999995343 57.947976789437234,158.17163310712203 55.64244413841516,179.7019669620786 61.59840348828584,185.97290679160506 68.51500144228339,185.13678229390644 72.16542814020067,181.37421895889565 74.08670534938574,161.72519478574395 67.74649055860937,154.82710033957846 61.790531208738685,155.24516715481877 57.75584906898439,159.42583186272532 55.0660609761253,179.49293539160863 62.94329753424972,186.60000000009313 72.16542814020067,182.21034458186477 74.66308851260692,164.65165395173244 73.8945776289329,158.58969942154363 70.24415093101561,155.45420053834096 62.94329753424972,154.4090334624052 58.52435995172709,156.7084005139768 53.33691148739308,164.65165395173244 55.64244413841516,179.91099851601757 59.484998556785285,185.5548445736058 66.78585195261985,186.1819378763903 71.97330041974783,181.79228180204518 73.70244990848005,163.18842475186102 68.8992568841204,154.82710033957846 63.13542525563389,154.19999999995343 57.947976789437234,157.33550029061735 55.64244413841516,179.7019669620786 60.82989260368049,185.97290679160506 67.74649055860937,185.76387569052167 72.74181130342185,179.91099851601757 74.47096079215407,162.56132628861815 71.5890449769795,157.12646704702638 66.01734106987715,154.4090334624052 57.75584906898439,157.96259992639534 55.45031641703099,179.283903805539 61.02202032506466,185.76387569052167 67.74649055860937,185.5548445736058 72.9339390238747,180.12003005482256 74.2788330707699,162.56132628861815 69.09138460457325,154.82710033957846 59.29287083633244,155.66323390696198 56.41095502115786,161.3071289404761 56.21882730163634,182.0013131997548 65.63308562804013,186.1819378763903 72.16542814020067,180.12003005482256 72.9339390238747,161.3071289404761 70.24415093101561,156.49936722405255 64.86457474436611,155.24516715481877 57.947976789437234,160.68003005511127 56.41095502115786,179.49293539160863 64.28819158114493,185.76387569052167 71.78117269836366,180.74712457694113 73.12606674525887,162.77035912498832 71.20478953514248,157.75356672983617 66.01734106987715,155.24516715481877 57.947976789437234,160.47099706204608 55.45031641703099,179.7019669620786 62.94329753424972,186.60000000009313 68.13074600044638,186.1819378763903 70.43627865239978,182.21034458186477 72.9339390238747,162.3522934364155 66.78585195261985,155.66323390696198 61.98265892919153,156.08130059670657 58.1401045108214,160.68003005511127 56.41095502115786,178.86584058776498 63.13542525563389,185.34581344178878 71.20478953514248,181.79228180204518 72.9339390238747,161.3071289404761 66.40159651171416,155.45420053834096 58.33223223220557,160.68003005511127 56.60308274347335,179.283903805539 62.94329753424972,185.5548445736058 71.39691725652665,180.32906157849357 72.9339390238747,161.3071289404761 65.63308562804013,155.66323390696198 57.947976789437234,160.88906303257681 56.41095502115786,179.49293539160863 64.4803193025291,185.76387569052167 71.20478953514248,181.1651875139214 72.74181130342185,160.68003005511127 66.20946879126132,155.66323390696198 58.1401045108214,159.63486493378878 55.834571859799325,179.283903805539 62.1747866505757,185.5548445736058 71.20478953514248,181.79228180204518 73.70244990848005,162.3522934364155 66.40159651171416,155.66323390696198 61.40627576690167,156.49936722405255 56.41095502115786,162.14326056884602 54.87393325474113,178.86584058776498" stroke="#4dd2ff" stroke-linecap="round" stroke-linejoin="round" stroke-width="0.5"><title>2024-04-09 5.6km</title><desc>1712653834000</desc></polyline><polyline fill="none" points="91.47810529079288,160.10946269729175 91.10351651255041,179.26418469287455 94.28752112854272,184.96982052829117 98.78258647024632,185.78491038572975 104.02682936843485,184.766048025107 107.77271715272218,179.8755033898633 109.45836665574461,159.70191395725124 106.27436203882098,155.42264850670472 100.46823597326875,154.20000000018626 92.78916601464152,160.31323704426177 91.47810529079288,180.07927625835873 99.90635280590504,186.19245522329584 107.77271715272218,179.8755033898633 109.08377787657082,160.7207856932655 104.58871253579855,155.21887379395775 100.65553036238998,154.8113243218977 92.78916601464152,160.7207856932655 90.72892773337662,178.85663881897926 94.28752112854272,184.5622755077202 99.71905841585249,186.19245522329584 107.96001154184341,179.67173050623387 109.64566104486585,161.53588280710392 102.52847425453365,154.40377478930168 95.41128746327013,155.83019788726233 92.22728284727782,159.9056883349549 91.10351651255041,180.4868219497148 99.15717524848878,185.98868281231262 107.58542276360095,180.4868219497148 109.45836665574461,159.9056883349549 106.83624520711601,156.0339725543745 101.03011914063245,154.40377478930168 92.41457723639905,160.31323704426177 91.10351651255041,180.89436757937074 99.15717524848878,186.60000000009313 107.39812837447971,180.89436757937074 109.45836665574461,159.49813956487924 100.84282475151122,154.60754956374876 92.78916601464152,159.2943651569076 90.54163334332407,180.07927625835873 96.90964257810265,186.60000000009313 101.96659108716995,185.98868281231262 107.02353959530592,180.89436757937074 109.27107226662338,159.9056883349549 106.83624520711601,156.0339725543745 100.46823597326875,154.40377478930168 92.22728284727782,160.51701137633063 90.91622212342918,180.89436757937074 94.10022673942149,185.17359301517718 99.15717524848878,186.39622761961073 107.39812837447971,181.09814037196338 109.64566104486585,160.51701137633063 107.21083398442715,156.237747205887 100.84282475151122,154.60754956374876 92.41457723639905,159.2943651569076 90.35433895513415,178.85663881897926 96.53505379892886,185.98868281231262 102.34117986448109,185.98868281231262 107.02353959530592,181.9132313884329 109.83295543398708,164.38872078526765 106.08706764969975,155.21887379395775 94.84940429590642,156.0339725543745 91.85269406903535,161.1283342805691 91.29081090074033,181.5056859103497 95.59858185332268,185.78491038572975 100.84282475151122,186.19245522329584 108.14730593003333,179.0604117643088 109.45836665574461,161.1283342805691 106.46165642794222,156.237747205887 99.15717524848878,154.40377478930168 92.22728284727782,159.9056883349549 90.54163334332407,180.07927625835873 98.96988085936755,186.60000000009313 107.58542276360095,180.89436757937074 109.45836665574461,160.31323704426177 107.39812837447971,156.64529646467417 101.03011914063245,154.20000000018626 95.41128746327013,156.237747205887 91.85269406903535,161.53588280710392 92.03998845815659,179.8755033898633 99.34446963761002,184.96982052829117 106.46165642794222,180.28304911172017 107.77271715272218,160.51701137633063 101.59200230892748,155.42264850670472 91.6653996789828,162.14720548246987 90.16704456601292,177.6340008310508" stroke="#4dd2ff" stroke-linecap="round" stroke-linejoin="round" stroke-width="0.5"><title>2024-04-08 5.0km</title><desc>1712568268000</desc></polyline><polyline fill="none" points="126.77373912092298,166.12642631609924 128.78341970779002,181.43192832311615 133.71627205982804,184.21473739854991 139.74531382136047,182.62456114101224 143.76467499602586,177.4564817319624 143.21658029127866,156.98283759551123 134.81246147025377,154.20000000018626 128.05262676719576,161.35586221376434 127.68723029643297,181.23315613530576 132.2546861777082,184.8110532492865 140.11071029212326,183.81719342363067 143.3992785261944,178.0527991000563 143.58197676204145,157.18161159800366 133.35087558906525,154.99509675358422 127.68723029643297,163.74114533537067 127.50453206244856,180.63683948107064 132.80278088338673,184.61228131409734 139.74531382136047,183.81719342363067 143.76467499602586,178.0527991000563 143.3992785261944,156.78406357811764 133.71627205982804,154.99509675358422 128.2353250021115,160.7595410987269 126.95643735677004,179.64297809358686 134.99515970610082,185.40736896684393 143.21658029127866,179.24543343414553 144.49546793755144,160.56076736422256 141.38959793932736,155.5914191622287 136.45674558822066,154.5975484070368 131.3411950012669,155.988967360463 128.60072147287428,160.36199361411855 127.50453206244856,180.23929497040808 130.79310029558837,184.21473739854991 137.91833146940917,184.61228131409734 143.3992785261944,179.24543343414553 143.94737323187292,158.5730291986838 137.73563323449343,154.3987742108293 128.78341970779002,159.76567227602936 127.13913559168577,179.24543343414553 130.24500558990985,183.81719342363067 134.81246147025377,184.8110532492865 143.03388205636293,180.43806723342277 144.86086440831423,161.35586221376434 142.30308911483735,156.58528954628855 136.09134911745787,154.99509675358422 130.4277038257569,157.7779335163068 127.86992853228003,162.74727762839757 127.50453206244856,182.22701692814007 130.4277038257569,185.40736896684393 136.82214205898345,185.60614084312692 143.03388205636293,179.0466610826552 144.86086440831423,160.16321984957904 136.6394438231364,154.79632258741185 128.78341970779002,159.9644460703712 126.59104088507593,180.0405226929579 132.98547911830246,186.40122819831595 143.03388205636293,179.44420577120036 144.67816617246717,160.56076736422256 141.2068997034803,155.39264504099265 136.45674558822066,154.5975484070368 128.41802323795855,160.36199361411855 127.3218338266015,180.0405226929579 135.72595264669508,185.00982517004013 143.03388205636293,178.64911633403972 144.49546793755144,159.16935080452822 136.6394438231364,154.99509675358422 128.41802323795855,160.7595410987269 127.13913559168577,179.24543343414553 130.79310029558837,183.81719342363067 136.27404735330492,185.00982517004013 143.21658029127866,178.64911633403972 144.49546793755144,159.16935080452822 141.2068997034803,155.5914191622287 134.26436676550657,154.99509675358422 127.68723029643297,163.34359829733148 127.13913559168577,182.028244799003 130.24500558990985,185.60614084312692 137.73563323449343,185.2085970758926 143.3992785261944,178.0527991000563 143.58197676204145,157.5791595580522 135.3605561768636,154.20000000018626 128.2353250021115,160.7595410987269 127.13913559168577,179.44420577120036 132.43738441262394,184.61228131409734 137.73563323449343,184.41350936354138 143.58197676204145,177.85402665939182 144.49546793755144,159.56689846678637 141.38959793932736,155.5914191622287 135.17785794101655,154.79632258741185 128.05262676719576,161.35586221376434 127.86992853228003,180.8356117135845 132.98547911830246,185.40736896684393 139.74531382136047,184.41350936354138 144.13007146771997,172.88471079966985 142.30308911483735,157.7779335163068 131.88928970694542,156.3865154988598 126.95643735677004,167.51783923245966 127.68723029643297,183.41964938864112 131.88928970694542,186.20245638210326 138.83182264585048,184.8110532492865 143.58197676204145,177.65525420289487 145.04356264322996,161.95218319515698 143.21658029127866,156.98283759551123 136.82214205898345,154.99509675358422 131.3411950012669,156.58528954628855 126.95643735677004,167.31906600343063 127.68723029643297,183.41964938864112 131.7065914720297,186.00368455052376 139.0145208807662,184.61228131409734 143.58197676204145,177.65525420289487 143.3992785261944,157.5791595580522 133.89897029474378,154.79632258741185 127.86992853228003,162.9460511994548 128.2353250021115,181.43192832311615 133.89897029474378,186.00368455052376 140.293408527039,185.60614084312692 143.76467499602586,180.8356117135845 143.94737323187292,158.37425530003384 133.16817735414952,154.79632258741185 127.50453206244856,162.34973044134676 126.59104088507593,181.03438393212855 129.5142126493156,185.40736896684393 135.90865088254213,186.40122819831595 143.58197676204145,178.84788871533237 144.3127697026357,158.97057695058174 134.0816685296595,154.99509675358422 127.3218338266015,163.14482475607656 126.77373912092298,182.22701692814007 130.24500558990985,185.80491270427592 136.09134911745787,186.20245638210326 141.5722961742431,183.41964938864112 144.13007146771997,178.25157152628526 144.86086440831423,158.97057695058174 134.81246147025377,154.5975484070368 127.50453206244856,161.55463588889688 126.77373912092298,181.43192832311615 130.06230735499412,185.2085970758926 136.82214205898345,186.60000000009313 143.3992785261944,181.23315613530576 144.86086440831423,159.76567227602936 142.30308911483735,156.18774143699557 135.3605561768636,154.5975484070368 128.05262676719576,160.36199361411855 126.04294618032873,179.64297809358686 128.41802323795855,184.01596541819163 133.71627205982804,186.20245638210326 143.03388205636293,181.23315613530576 145.04356264322996,161.35586221376434 137.00484029389918,154.5975484070368 128.78341970779002,159.76567227602936 126.77373912092298,179.24543343414553 135.54325441177934,186.20245638210326 143.76467499602586,181.43192832311615 145.59165734890848,162.34973044134676 142.12039087992162,156.78406357811764 137.00484029389918,154.99509675358422 128.41802323795855,160.36199361411855 126.59104088507593,179.84175040083937 129.33151441346854,184.21473739854991 135.54325441177934,186.20245638210326 143.94737323187292,180.23929497040808 145.2262608781457,162.34973044134676 142.85118382051587,157.5791595580522 136.6394438231364,154.5975484070368 128.2353250021115,160.56076736422256 126.95643735677004,180.43806723342277 129.87960911914706,184.41350936354138 135.54325441177934,186.00368455052376 143.21658029127866,181.03438393212855 144.86086440831423,161.55463588889688 136.45674558822066,154.99509675358422 128.2353250021115,161.35586221376434 126.77373912092298,180.63683948107064 135.90865088254213,185.60614084312692 143.58197676204145,179.84175040083937 145.2262608781457,160.95831481856294 135.90865088254213,154.79632258741185 128.05262676719576,161.35586221376434 126.95643735677004,179.84175040083937 135.72595264669508,185.60614084312692 143.3992785261944,180.23929497040808 144.67816617246717,160.7595410987269 140.84150323364884,155.7901932692621 135.54325441177934,154.99509675358422 128.41802323795855,161.75340954912826 126.59104088507593,180.0405226929579 134.62976323533803,186.20245638210326 143.3992785261944,181.82947265543044 145.95705381967127,162.54850404243916 142.66848558560014,156.3865154988598 132.2546861777082,155.7901932692621 128.05262676719576,161.95218319515698 126.95643735677004,177.4564817319624" stroke="#4dd2ff" stroke-linecap="round" stroke-linejoin="round" stroke-width="0.5"><title>2024-04-06 11.8km</title><desc>1712394949000</desc></polyline><polyline fill="none" points="164.26498641073704,182.6026175878942 171.41987398080528,186.60000000009313 178.18801087141037,180.91950750374235 180.50851494818926,162.61562030087225 178.18801087141037,156.51429809327237 171.03312330134213,154.83117239619605 166.39211514778435,157.98703225213103 163.68486039154232,176.9221170176752 168.71261922456324,184.91689230897464 178.18801087141037,181.5506739031989 180.70189028792083,161.5636691406835 177.02775883302093,156.30390743608586 170.64637262187898,155.6727353706956 166.19873980805278,159.03898474993184 163.8782357322052,178.60522949392907 168.90599456522614,185.12728082528338 177.60788485221565,182.39222888206132 180.1217642677948,161.98444965155795 175.86750679463148,155.88312607537955 169.6794959232211,155.88312607537955 166.0053644683212,159.67015606025234 163.8782357322052,177.97406243323348 167.93911786563694,184.70650377636775 177.8012601910159,182.18184016132727 180.31513960752636,161.98444965155795 174.70725475531071,155.46234465087764 165.81198912858963,159.24937520246021 163.29810971207917,179.86756319040433 170.4529972821474,185.54805781156756 178.38138621114194,180.70911867241375 180.50851494818926,162.19483988336287 177.99463553074747,157.145469969837 173.16025203838944,155.04156316374429 165.2318631093949,159.88054646505043 163.29810971207917,178.39484048937447 169.6794959232211,185.3376693262253 178.5747615499422,180.49872982571833 180.31513960752636,161.77405940392055 172.96687669865787,155.04156316374429 165.61861378978938,159.67015606025234 163.8782357322052,179.026007455308 170.4529972821474,185.54805781156756 178.5747615499422,180.49872982571833 180.1217642677948,160.51171758631244 172.38675067946315,155.2519539152272 165.61861378978938,159.88054646505043 164.07161107100546,179.6571742799133 171.61324932053685,185.3376693262253 178.96151223033667,180.07795208413154 180.50851494818926,161.14288856601343 173.54700271692127,155.2519539152272 165.2318631093949,160.51171758631244 163.8782357322052,179.6571742799133 170.83974796161056,185.54805781156756 178.7681368906051,180.70911867241375 180.50851494818926,161.35327886114828 172.7735013589263,155.2519539152272 165.2318631093949,160.51171758631244 163.68486039154232,179.6571742799133 171.61324932053685,185.54805781156756 178.5747615499422,180.70911867241375 180.31513960752636,161.35327886114828 173.74037805758417,155.04156316374429 165.42523844912648,159.67015606025234 163.8782357322052,178.81561848218553 170.06624660361558,185.3376693262253 175.6741314548999,184.28572666458786 178.7681368906051,180.49872982571833 180.50851494818926,160.72210792871192 173.54700271692127,155.04156316374429 165.81198912858963,159.45976563938893 163.68486039154232,178.81561848218553 169.48612058442086,185.3376693262253 178.38138621114194,181.34028511936776 180.31513960752636,161.5636691406835 174.127128736116,154.62078161374666 166.0053644683212,159.03898474993184 163.68486039154232,179.026007455308 170.25962194241583,185.3376693262253 176.25425747409463,184.075338085182 179.15488756913692,179.86756319040433 179.92838892899454,160.30132722854614 172.19337533973157,154.83117239619605 165.2318631093949,160.0909368544817 163.8782357322052,180.2883409622591 171.03312330134213,185.54805781156756 178.7681368906051,180.07795208413154 180.31513960752636,161.35327886114828 172.96687669865787,155.04156316374429 165.03848777059466,160.93249825551175 163.8782357322052,179.026007455308 170.83974796161056,185.3376693262253 178.5747615499422,180.91950750374235 180.31513960752636,161.5636691406835 172.38675067946315,155.04156316374429 165.42523844912648,160.30132722854614 163.8782357322052,179.86756319040433 168.51924388483167,185.12728082528338 178.18801087141037,181.5506739031989 180.70189028792083,161.77405940392055 172.96687669865787,154.83117239619605 165.81198912858963,159.45976563938893 164.26498641073704,179.44678535405546 171.61324932053685,185.54805781156756 178.7681368906051,180.07795208413154 180.50851494818926,161.5636691406835 176.83438349235803,156.09351676376536 172.19337533973157,154.83117239619605 165.61861378978938,160.30132722854614 163.8782357322052,179.23639641306363 171.61324932053685,185.54805781156756 178.5747615499422,181.5506739031989 180.31513960752636,160.93249825551175 172.96687669865787,154.41039081453346 166.19873980805278,158.19742278312333 163.8782357322052,179.23639641306363 166.58549048751593,183.8649494901765 171.80662466026843,185.54805781156756 179.15488756913692,179.6571742799133 180.31513960752636,160.93249825551175 176.64100815355778,155.6727353706956 171.61324932053685,154.62078161374666 165.61861378978938,159.67015606025234 164.07161107100546,179.86756319040433 172.38675067946315,185.96883473428898 178.7681368906051,180.91950750374235 180.1217642677948,160.93249825551175 172.58012601919472,154.20000000018626 165.42523844912648,159.67015606025234 163.68486039154232,178.60522949392907 169.6794959232211,185.3376693262253 178.5747615499422,181.1298963194713 180.1217642677948,161.14288856601343 173.54700271692127,154.83117239619605 168.51924388483167,155.46234465087764 165.42523844912648,160.51171758631244 163.8782357322052,179.23639641306363 171.22649864200503,185.54805781156756 178.96151223033667,180.49872982571833 180.1217642677948,161.5636691406835 173.16025203838944,154.62078161374666 165.42523844912648,160.30132722854614 164.07161107100546,180.07795208413154 171.03312330134213,185.96883473428898 178.7681368906051,180.49872982571833 180.1217642677948,160.30132722854614 177.02775883302093,156.09351676376536 171.03312330134213,154.83117239619605 165.42523844912648,160.30132722854614 164.26498641073704,180.07795208413154 172.19337533973157,185.54805781156756 178.96151223033667,179.44678535405546 180.31513960752636,160.51171758631244 171.80662466026843,154.62078161374666 166.39211514778435,158.4078132980503 163.49148505181074,165.5610814562533 163.29810971207917,181.7610626714304" stroke="#4dd2ff" stroke-linecap="round" stroke-linejoin="round" stroke-width="0.5"><title>2024-04-03 9.7km</title><desc>1712137473000</desc></polyline><polyline fill="none" points="16.418967065401375,214.6941618458368 21.674225707538426,213.63533942471258 19.72783361840993,219.35297579015605 24.009896215982735,225.91765515413135 33.93649587407708,225.91765515413135 39.58103293552995,205.16474580392241 36.466805591247976,196.2705952215474 29.070515650324523,195.0 23.815257006324828,197.96472129621543 21.479586499743164,219.14121168642305 24.204535425640643,226.34118233202025 31.016907739453018,226.34118233202025 36.07752717286348,222.74119929829612 38.21855847258121,203.25885874545202 33.54721745662391,196.905892618699 24.009896215982735,200.71767400577664 21.479586499743164,220.83532407414168 27.5134019786492,226.7647094472777 36.07752717286348,222.31767158163711 37.829280054196715,203.04709343775176 32.37938220240176,196.2705952215474 23.815257006324828,200.71767400577664 21.674225707538426,221.47061595786363 28.29195881448686,227.18823649850674 36.07752717286348,222.5294354481157 38.21855847258121,202.835328114219 32.963299829512835,196.69412683532573 27.5134019786492,197.32942413678393 23.425978588871658,201.56473583891056 21.284947290085256,220.83532407414168 27.708041187375784,227.39999999990687 35.88288796506822,222.5294354481157 38.02391926385462,202.20003204792738 32.963299829512835,196.69412683532573 23.425978588871658,201.35297040455043 21.284947290085256,219.7765039508231 23.815257006324828,225.2823642680887 29.26515485905111,227.18823649850674 36.66144479997456,221.68237988790497 38.02391926385462,202.4117974191904 32.76866061985493,196.4823610363528 28.486598023213446,196.4823610363528 23.425978588871658,201.14120495389216 21.284947290085256,219.98826800682582 27.124123560264707,227.18823649850674 35.688248755410314,223.376490754541 38.21855847258121,203.25885874545202 34.325774292461574,196.905892618699 29.26515485905111,196.69412683532573 23.620617798529565,201.14120495389216 21.479586499743164,220.4117960727308 25.956288306042552,226.55294589768164 36.07752717286348,225.49412791244686" stroke="#4dd2ff" stroke-linecap="round" stroke-linejoin="round" stroke-width="0.5"><title>2024-04-02 3.0km</title><desc>1712049520000</desc></polyline><polyline fill="none" points="57.54423793498427,205.1958415696863 56.294735599309206,222.8685523159802 60.043242605403066,226.72028327942826 65.66600311454386,226.94685553689487 69.83101089950651,222.18883457873017 71.91351479198784,199.7580636702478 64.83300155773759,194.99999999976717 58.168989102356136,200.43778644152917 56.08648520987481,222.18883457873017 59.626741827465594,226.49371100589633 65.45775272604078,226.94685553689487 69.83101089950651,221.96226196573116 71.91351479198784,199.9846379442606 65.04125194717199,194.99999999976717 58.168989102356136,200.2112122012768 55.878234821371734,221.5091166885104 63.166998444125056,227.39999999990687 69.83101089950651,222.41540717496537 72.12176518049091,200.890934871044 65.87425350397825,194.99999999976717 58.168989102356136,200.2112122012768 55.878234821371734,221.73568933596835 62.54224727675319,227.39999999990687 69.62276051007211,222.8685523159802 72.12176518049091,201.1175090605393 66.08250389341265,194.99999999976717 58.168989102356136,199.9846379442606 55.878234821371734,221.5091166885104 62.12574649788439,227.39999999990687 69.62276051007211,222.8685523159802 72.33001556992531,201.57065738830715 66.70725506171584,195.2265746302437 58.377239492721856,199.5314893790055 55.878234821371734,221.0559713449329 62.54224727675319,227.39999999990687 69.62276051007211,222.8685523159802 72.12176518049091,201.1175090605393 65.87425350397825,194.99999999976717 58.377239492721856,199.5314893790055 55.878234821371734,221.5091166885104 62.750497666187584,227.39999999990687 69.83101089950651,222.18883457873017 72.12176518049091,201.34408323303796 65.66600311454386,194.99999999976717 58.168989102356136,200.43778644152917 55.878234821371734,221.73568933596835 62.750497666187584,227.39999999990687 69.83101089950651,222.41540717496537 72.12176518049091,200.66436066525057 65.45775272604078,194.99999999976717 58.168989102356136,200.43778644152917 55.878234821371734,221.28254402498715 58.58548988122493,225.8139940816909 64.20825039036572,227.17342777713202 69.83101089950651,222.18883457873017 72.12176518049091,200.890934871044 65.04125194717199,194.99999999976717 58.168989102356136,200.43778644152917 55.878234821371734,221.0559713449329 62.12574649788439,227.39999999990687 69.62276051007211,222.8685523159802 72.33001556992531,202.02380564785562 66.49900467135012,195.2265746302437 58.58548988122493,199.3049150716979 55.878234821371734,221.0559713449329 60.66799377370626,226.94685553689487 69.62276051007211,222.8685523159802 72.33001556992531,201.57065738830715 66.9155054492876,195.2265746302437 59.0019906591624,198.39861767017283 55.669984431006014,220.37625320069492 58.377239492721856,225.8139940816909 64.00000000093132,227.39999999990687 68.99800934270024,224.00141487270594 72.33001556992531,202.93010196485557 68.16500778496265,195.67972383880988 60.25149299483746,196.8125965653453 56.711236378178,223.54826990095899 61.08449455164373,227.17342777713202 66.70725506171584,226.26713871466927 70.87226284574717,215.3916488159448" stroke="#4dd2ff" stroke-linecap="round" stroke-linejoin="round" stroke-width="0.5"><title>2024-03-30 4.8km</title><desc>1711782999000</desc></polyline><polyline fill="none" points="90.68114785570651,208.22453283029608 92.09923405013978,223.21226494782604 96.35349263902754,226.73877907218412 102.83617239259183,226.29796503763646 107.69818220566958,219.90615412266925 107.29301472194493,197.42450212943368 97.56899509299546,195.66122805094346 92.3018177933991,201.6122738351114 92.3018177933991,222.55104307970032 97.97416257672012,227.39999999990687 104.2542585870251,225.85715093649924 107.90076594892889,219.90615412266925 109.31885214429349,203.37554435175844 107.09043097868562,196.98368370882235 100.0,195.0 95.1379901850596,198.08572963625193 91.49148282315582,219.46533906576224 93.51732024736702,224.53470823913813 99.39224877394736,227.39999999990687 107.69818220566958,221.44900630274788 108.50851717591286,199.18777515226975 99.79741625767201,195.4408187174704 92.70698527712375,201.83268270711415 92.70698527712375,224.31430106493644 100.40516748465598,227.17959304060787 106.28009601030499,223.65307944384404 108.91368465963751,203.59595309197903 107.49559846427292,198.08572963625193 103.03875613305718,195.22040936746635 93.92248773109168,198.96736608212814 91.28889908175915,220.78778403857723 96.35349263902754,226.73877907218412 106.077512267977,223.21226494782604 108.91368465963751,203.37554435175844 104.65942607168108,196.32245595403947 93.92248773109168,196.32245595403947" stroke="#4dd2ff" stroke-linecap="round" stroke-linejoin="round" stroke-width="0.5"><title>2024-03-28 2.0km</title><desc>1711615120000</desc></polyline><polyline fill="none" points="127.81055497657508,208.77004738501273 125.76319371908903,209.17504771822132 127.81055497657508,210.79504844523035 125.57706996891648,209.78254810441285 127.81055497657508,210.3900483546313 128.36892622802407,223.147522109095 132.4636487402022,226.7925035674125 138.97798001021147,226.9950023931451 144.56169252563268,220.11003381130286 145.4923112783581,198.84752029180527 141.02534126583487,195.40500239352696 135.441628748551,195.40500239352696 128.92729747947305,202.69503511465155 127.6244312254712,221.12253028945997 134.69713374692947,227.39999999990687 143.63107377290726,222.1350263885688 145.30618752818555,200.8725287753623 142.51433127000928,196.0125058698468 138.04736125655472,195.0 129.6717924810946,200.6700279947836 128.36892622802407,219.50253574247472 130.97465873602778,224.56501548178494 135.6277524996549,226.38750587031245 142.70045502111316,222.1350263885688 144.56169252563268,202.49253447097726 138.04736125655472,196.21500699897297 130.60241123382002,200.8725287753623 129.2995449807495,220.92003102367744 136.0,226.38750587031245 143.25882627163082,220.92003102367744 144.37556877546012,200.26502638915554 137.6751137552783,195.81000472628511 130.60241123382002,201.4800310244318 129.1134212296456,220.3125331371557 134.88325749710202,226.38750587031245 143.07270252145827,220.92003102367744 144.37556877546012,201.68253174400888 136.93061875365674,195.40500239352696 130.7885349849239,200.8725287753623 128.74117372836918,220.3125331371557 135.25550499837846,226.38750587031245 143.4449500227347,220.92003102367744 144.9339400269091,201.68253174400888 138.41960875783116,195.81000472628511 130.97465873602778,200.6700279947836 128.92729747947305,220.11003381130286 130.2301637325436,224.3625164742116 134.88325749710202,225.98250811221078 143.25882627163082,221.52752877445891 144.9339400269091,202.8975357436575 138.6057325080037,196.62000921042636 130.7885349849239,200.46752719930373 128.92729747947305,220.92003102367744 135.6277524996549,226.18500699847937 143.25882627163082,221.12253028945997 144.74781627673656,200.8725287753623 137.86123750638217,196.21500699897297 130.7885349849239,201.4800310244318 128.92729747947305,220.51503244857304 135.6277524996549,226.38750587031245 141.58371251728386,225.5775102933403 144.37556877546012,221.7300279943738 146.42293003108352,202.29003381216899" stroke="#4dd2ff" stroke-linecap="round" stroke-linejoin="round" stroke-width="0.5"><title>2024-03-26 3.7km</title><desc>1711445960000</desc></polyline><polyline fill="none" points="163.26458935905248,219.8400325186085 170.41174352075905,227.39999999990687 178.94862210098654,222.432023599511 180.5368785802275,200.61602604738437 176.16917326115072,195.0 165.84550614003092,198.6720182672143 163.0660573001951,219.1920343847014 164.85284583922476,224.16001636022702 171.00733970012516,227.1840012036264 178.5515579795465,222.8640218861401 180.9339426998049,201.69602980441414 176.9633014993742,195.2160012035165 166.44110232032835,199.5360218868591 163.86018554028124,212.06404531630687 166.24257025960833,224.16001636022702 171.40440381970257,226.53600471862592 176.16917326115072,224.5920143891126 180.33834651950747,202.99203377962112 176.9633014993742,196.72800917783752 171.20587175991386,196.08000585692935 167.2352305604145,199.3200210062787 164.65431377943605,218.32803664729 169.02201909944415,225.88800808764063 177.16183356009424,223.29602010920644 180.33834651950747,202.1280311937444 175.77210913971066,195.86400471813977 167.2352305604145,199.5360218868591 164.65431377943605,218.76003554835916 169.22055116016418,225.88800808764063 176.9633014993742,223.29602010920644 178.94862210098654,198.2400163600687 172.1985320597887,195.4320023912005 166.63963437918574,201.04802759876475 164.85284583922476,221.3520275983028 168.42642291914672,225.45601025270298 173.98532059974968,225.67200917797163" stroke="#4dd2ff" stroke-linecap="round" stroke-linejoin="round" stroke-width="0.5"><title>2024-03-25 2.1km</title><desc>1711359274000</desc></polyline><polyline fill="none" points="32.104266706854105,265.0846318146214 35.92218922358006,243.90003544813953 31.531578328460455,237.25385425635614 21.604979784227908,241.6154124578461 19.505122399888933,259.2692685164511 25.232006176374853,266.9538531457074 33.63143571279943,263.63079213211313 35.92218922358006,243.90003544813953 30.3862015735358,237.46154765947722 21.604979784227908,241.8231055350043 19.505122399888933,260.51541882008314 25.613798427395523,266.9538531457074 33.82233183924109,263.00771774933673 35.92218922358006,243.06926366896369 30.195305448025465,237.46154765947722 21.604979784227908,241.6154124578461 19.69601852633059,260.723110483028 21.414083658717573,265.0846318146214 26.759175182320178,267.1615443266928 34.01322796475142,262.17695168801583 35.92218922358006,244.31542124412954 30.958889950998127,237.46154765947722 21.604979784227908,240.78463999531232 19.69601852633059,260.723110483028 25.613798427395523,267.3692354927771 33.44053958822042,263.42310068709776 35.92218922358006,243.90003544813953 30.577097699977458,237.04616083810106 21.795875909738243,240.5769468410872 19.505122399888933,261.13849376211874 21.414083658717573,265.2923231362365 27.14096743427217,267.57692664302886 34.20412409026176,261.9692601347342 35.73129309806973,242.86157068540342 29.813513196073472,237.04616083810106 24.468421672470868,238.08462777547538 21.223187532275915,242.23849164135754 19.886914651840925,262.17695168801583 27.331863560713828,267.1615443266928 34.395020216703415,261.3461853787303 35.73129309806973,243.06926366896369 30.195305448025465,237.04616083810106 21.414083658717573,242.23849164135754 19.69601852633059,261.5538769790437 26.377382931299508,266.9538531457074 33.63143571279943,263.00771774933673 35.73129309806973,242.86157068540342 29.04992869310081,237.04616083810106 21.223187532275915,242.03079859609716 19.886914651840925,261.76156856445596 26.377382931299508,267.3692354927771 34.01322796475142,263.00771774933673 35.92218922358006,243.06926366896369 32.67695508431643,237.66924104723148 21.9867720361799,240.5769468410872 19.69601852633059,259.4769602722954 24.27752554602921,266.9538531457074 33.44053958822042,263.8384835617617 35.92218922358006,243.48464958975092 30.00440932251513,237.25385425635614 21.604979784227908,241.20002625789493 19.69601852633059,260.93080212990753 25.041110049933195,266.7461619488895 33.24964346177876,264.4615577580407 36.11308535002172,244.10772835393436 32.29516283329576,237.66924104723148 26.377382931299508,237.04616083810106 21.795875909738243,241.20002625789493 18.359745644032955,259.2692685164511 19.886914651840925,264.87694047857076 25.232006176374853,268.19999999995343 30.195305448025465,267.99230889673345 34.77681246865541,263.63079213211313 37.64025435689837,244.52311411872506 32.4860589588061,236.2153870081529 26.18648680485785,235.80000000004657 20.650499154813588,240.3692536712624 18.359745644032955,260.3077271413058 24.27752554602921,267.57692664302886 34.20412409026176,265.91539700631984" stroke="#4dd2ff" stroke-linecap="round" stroke-linejoin="round" stroke-width="0.5"><title>2024-03-24 4.9km</title><desc>1711273464000</desc></polyline><polyline fill="none" points="54.865092338994145,259.25525420345366 56.50937571749091,265.01964938873425 61.07682954892516,268.0012281984091 66.3750759921968,267.0073689671699 70.75983166974038,262.63438393198885 72.58681320212781,241.76321984967217 71.12522797565907,238.18528954591602 65.64428337942809,236.39632258727215 59.61524432245642,237.7877414370887 56.326677564531565,241.9619936144445 55.23048864584416,261.83929497073404 58.70175355672836,266.4110532498453 64.91349076665938,267.80245638173074 71.49062428250909,260.44788871565834 71.67332243546844,239.1791595579125 65.09618891961873,236.39632258727215 58.33635725080967,238.5828375958372 55.595884951762855,243.35340954945423 54.49969603214413,260.84543343423866 60.34603693615645,268.19999999995343 66.74047229904681,267.0073689671699 70.57713351584971,262.83315613493323 73.68300212081522,244.54605119908229 71.30792612954974,238.18528954591602 66.19237783830613,236.19754840643145 58.519055403769016,238.5828375958372 55.778583105653524,242.9558622133918 55.595884951762855,264.4233332253061 60.894131395965815,268.19999999995343 66.19237783830613,267.80245638173074 71.67332243546844,260.44788871565834 71.67332243546844,239.1791595579125 62.9038110813126,235.80000000004657 55.96128125768155,242.7570885233581 54.6823941860348,261.6405226928182 58.153659096919,266.8085970757529 64.00000000093132,267.60368455015123 71.49062428250909,260.6466610827483 72.2214168952778,240.1730291985441 69.29824644420296,236.7938709044829 63.086509234271944,236.19754840643145 55.778583105653524,243.15463588875718 55.04779049195349,263.23070049704984 64.91349076665938,267.4049127041362 71.30792612954974,260.6466610827483 71.30792612954974,239.1791595579125 64.36539630685002,235.99877421092242 56.326677564531565,240.57057695067488 54.31699787918478,262.03806723305024 57.97096094302833,266.6098251703661 64.91349076665938,267.80245638173074 71.30792612954974,261.0442057712935 70.94252982269973,237.98651549918577 63.81730184704065,235.99877421092242 58.70175355672836,238.5828375958372 54.6823941860348,253.49084651237354 57.057470177300274,265.6159654180519 68.38475567754358,266.21228131395765 72.76951135508716,243.9497304414399 68.7501519843936,236.99264504062012 58.519055403769016,238.5828375958372 54.6823941860348,258.2613917000126 55.96128125768155,265.01964938873425 60.711433242075145,267.4049127041362 69.846340903081,264.02578904200345 72.95220950804651,244.34727762825787 70.39443536289036,237.98651549918577 58.33635725080967,237.98651549918577 55.23048864584416,249.3166124469135 56.50937571749091,265.01964938873425 61.99032031558454,267.80245638173074 68.56745383050293,265.8147373984102 71.49062428250909,261.2429780939128 72.95220950804651,244.54605119908229 70.21173720993102,237.98651549918577 61.25952770188451,236.59509675344452 55.778583105653524,243.15463588875718 54.865092338994145,262.83315613493323 59.980640629306436,267.4049127041362 66.19237783830613,266.6098251703661 70.39443536289036,256.07489288575016 69.48094459623098,239.1791595579125 63.81730184704065,237.39019326888956 57.97096094302833,240.1730291985441 54.49969603214413,252.69575481512584" stroke="#4dd2ff" stroke-linecap="round" stroke-linejoin="round" stroke-width="0.5"><title>2024-03-22 5.0km</title><desc>1711100044000</desc></polyline><polyline fill="none" points="90.13543531671166,247.95004544593394 93.48566483240575,265.16251647425815 99.069380691275,267.9975012044888 104.65309654921293,266.37751029315405 108.37557378783822,262.12502953922376 109.67844082135707,252.81004835409112 107.25883061625063,239.04001745092683 99.62775227613747,236.40750356740318 94.2301602801308,243.29253447055817 93.48566483240575,262.7325271987356 97.95263751875609,267.3900047263596 103.35022951476276,267.3900047263596 107.81720220204443,261.11253313720226 107.63107834011316,241.67252877471037 101.48899089638144,237.21750811184756 94.41628414206207,243.29253447055817 93.48566483240575,262.12502953922376 96.8358943471685,266.5800092101563 101.86123861931264,267.5925035676919 107.25883061625063,260.3025357427541 108.00332606397569,241.06502638873644 102.79185792896897,236.6100047265645 94.41628414206207,241.47002799483016 92.74116938374937,260.9100338113494 100.37224772479385,266.98500699875876 105.21146813500673,265.97251241421327 108.56169764976948,260.3025357427541 108.74782151170075,239.64752029138617 106.51433516759425,236.6100047265645 99.44162841513753,235.79999999981374 93.11341710854322,241.87502953992225 91.99667393695563,261.9225302892737 100.37224772479385,268.19999999995343 108.00332606397569,260.70753447012976 109.86456468328834,242.88753313780762 107.07270675431937,236.00250120437704 95.53302731364965,237.6225102932658 91.06605462729931,258.0750416580122" stroke="#4dd2ff" stroke-linecap="round" stroke-linejoin="round" stroke-width="0.5"><title>2024-03-21 2.2km</title><desc>1711013104000</desc></polyline></svg>