<?xml version="1.0" encoding="utf-8" ?>
<svg baseProfile="full" height="300mm" version="1.1" viewBox="0,0,200,300" width="200mm" xmlns="http://www.w3.org/2000/svg" xmlns:ev="http://www.w3.org/2001/xml-events" xmlns:xlink="http://www.w3.org/1999/xlink"><defs /><rect fill="#222222" height="300" width="200" x="0" y="0" /><text fill="#FFFFFF" style="font-size:12px; font-family:Arial; font-weight:bold;" x="10" y="20">Over 2km Runs</text><text fill="#FFFFFF" style="font-size:4px; font-family:Arial" x="10" y="280">ATHLETE</text><text fill="#FFFFFF" style="font-size:9px; font-family:Arial" x="10" y="290">作怪</text><text fill="#FFFFFF" style="font-size:4px; font-family:Arial" x="120" y="280">STATISTICS</text><text fill="#FFFFFF" style="font-size:3px; font-family:Arial" x="120" y="285">Number: 21</text><text fill="#FFFFFF" style="font-size:3px; font-family:Arial" x="120" y="290">Weekly: 3.5</text><text fill="#FFFFFF" style="font-size:3px; font-family:Arial" x="141" y="285">Total: 109.5 km</text><text fill="#FFFFFF" style="font-size:3px; font-family:Arial" x="141" y="290">Avg: 5.2 km</text><text fill="#FFFFFF" style="font-size:3px; font-family:Arial" x="167" y="285">Min: 2.0 km</text><text fill="#FFFFFF" style="font-size:3px; font-family:Arial" x="167" y="290">Max: 12.3 km</text><polyline fill="none" points="19.9833669019863,57.71432611113414 27.86161765269935,67.02041340293363 37.990797189064324,63.836754937889054 40.917004611343145,40.57146448013373 35.51477552484721,33.7142946915701 27.41143189650029,33.959193860180676 24.2601315965876,37.387780292890966 21.78410993143916,60.163299015956 27.41143189650029,67.26531008025631 38.44098294619471,63.59185800445266 41.142097488977015,41.30616039130837 37.990797189064324,34.9387903502211 27.41143189650029,33.7142946915701 18.407716752961278,44.48984076664783 23.5848529599607,64.81634248746559 30.787825075909495,68.0 36.190054160542786,66.0408265129663 40.016633096151054,37.387780292890966 28.987082046456635,32.97959707630798 18.85790250916034,41.06126177217811 22.459388567134738,63.59185800445266 27.186339017003775,67.51020673848689 35.28968264628202,66.28572326246649 40.016633096151054,60.40819620527327 41.142097488977015,40.32656580605544 36.190054160542786,33.22449630009942 28.761989167891443,32.97959707630798 23.80994583759457,37.387780292890966 21.333924173377454,58.69391549262218 27.186339017003775,67.26531008025631 38.6660758247599,63.10206408286467 41.142097488977015,39.83676840364933 33.26384674012661,32.73469783482142 23.134667202830315,38.6122745773755 20.883738417178392,59.67350458097644 27.186339017003775,67.51020673848689 37.31551855336875,65.55103295738809 41.36719036847353,40.57146448013373 34.61440401151776,32.48979857517406 24.485224474221468,36.163285550428554 21.333924173377454,58.938812791602686 27.186339017003775,67.02041340293363 37.765704311430454,64.32654874958098 41.59228324703872,42.28575468272902 39.791540218517184,35.183689426397905 31.238010832108557,32.0 24.485224474221468,36.653083502547815 21.78410993143916,60.65309337642975 28.536896288394928,67.51020673848689 39.34135446045548,63.10206408286467 41.142097488977015,39.346970927901566 33.26384674012661,32.48979857517406 23.359760081395507,37.63267918629572 21.333924173377454,61.87757895933464 30.337639316916466,67.51020673848689 39.56644733995199,61.87757895933464 40.46681885421276,37.387780292890966 31.913289467804134,32.48979857517406 23.359760081395507,38.36737575707957 21.78410993143916,61.38778478070162 29.212174925021827,67.26531008025631 39.34135446045548,61.87757895933464 40.69191173184663,38.36737575707957 31.012917952612042,32.48979857517406 23.80994583759457,37.63267918629572 21.78410993143916,61.38778478070162 31.68819658830762,68.0 39.56644733995199,60.40819620527327 40.917004611343145,38.36737575707957 30.787825075909495,32.73469783482142 23.359760081395507,39.59186967485584 22.00920280907303,61.38778478070162 31.238010832108557,67.26531008025631 39.56644733995199,60.8979905298911 41.142097488977015,39.346970927901566 37.09042567573488,33.7142946915701 30.56273219641298,32.73469783482142 23.359760081395507,39.346970927901566 23.359760081395507,62.85716709494591" stroke="#4dd2ff" stroke-linecap="round" stroke-linejoin="round" stroke-width="0.5"><title>2024-04-22 4.9km</title><desc>1713776322000</desc></polyline><polyline fill="none" points="66.76049692742527,43.11115765850991 68.39450430683792,61.11114486632869 77.99429766368121,66.22223246260546 83.91757441405207,60.22225916897878 84.32607625983655,38.44447650411166 73.70502829086035,33.11111763585359 67.57750061806291,40.88892945158295 67.57750061806291,62.88891546218656 72.68377367872745,67.11111636459827 79.42405411973596,67.33333729812875 85.34733087103814,59.77781622065231 85.14307994954288,36.88891448988579 74.72628290392458,33.33334111352451 67.78175153955817,40.22226066607982 67.78175153955817,62.88891546218656 71.25401722081006,66.44445346295834 79.83255596552044,67.11111636459827 85.14307994954288,61.11114486632869 85.9600836392492,37.55558402440511 76.97304305061698,32.666670631151646 68.59875523019582,38.44447650411166 66.3519950825721,59.77781622065231 69.6200098413974,65.77779041184112 76.15603936091065,67.55555821559392 84.9388290271163,61.33336624852382 86.36858548410237,39.11114568915218 76.56454120576382,33.33334111352451 68.19025338441133,39.11114568915218 66.96474785078317,60.88892346643843 70.64126445446163,66.00001144595444 76.97304305061698,67.55555821559392 85.14307994954288,60.88892346643843 85.9600836392492,37.77780716936104 77.38154489547014,32.666670631151646 68.19025338441133,39.55559172993526 67.37324969470501,62.444472912931815 71.45826814416796,66.6666744465474 78.60705043096095,67.55555821559392 85.55158179439604,60.444480618229136 85.9600836392492,38.000030297786 76.7687921281904,33.11111763585359 70.64126445446163,35.33335166145116 67.98600246198475,40.00003770366311 66.55624600406736,60.00003770273179 69.82426076475531,65.55556936189532 75.74753751605749,68.0 85.14307994954288,61.11114486632869 86.57283640652895,38.44447650411166 77.38154489547014,33.11111763585359 68.19025338441133,39.33336871769279 66.76049692742527,61.11114486632869 75.95178843755275,68.0 84.53032718133181,62.88891546218656 87.1855891738087,43.333380388095975 85.55158179439604,36.88891448988579 81.26231242250651,34.00001144572161 69.6200098413974,36.222244806354865 66.14774416014552,58.222265378106385 69.82426076475531,65.33334829495288 76.97304305061698,67.55555821559392 82.89631980191916,64.44446386094205 87.1855891738087,43.333380388095975 82.487817957066,34.00001144572161 71.25401722081006,34.44445825112052 67.37324969470501,40.88892945158295 67.37324969470501,63.111136712133884 75.54328659363091,68.0 81.87506518978626,65.77779041184112 85.55158179439604,60.00003770273179 86.77708732895553,40.44448361126706 77.58579581789672,32.0 68.39450430683792,38.66669958294369 66.55624600406736,60.88892346643843 76.15603936091065,68.0 85.14307994954288,62.000030296854675 86.77708732895553,40.00003770366311 77.99429766368121,33.11111763585359 67.98600246198475,38.44447650411166 66.14774416014552,58.6667085592635" stroke="#4dd2ff" stroke-linecap="round" stroke-linejoin="round" stroke-width="0.5"><title>2024-04-21 5.0km</title><desc>1713688153000</desc></polyline><polyline fill="none" points="123.9837312148884,38.987800713046454 124.71542883245274,44.20651101670228 126.91052168468013,44.914130979334004 128.9430150659755,43.76424832479097 130.16251109493896,35.27277256397065 129.02431480167434,33.06144074315671 126.5040230085142,32.53072049061302 124.71542883245274,33.857520675170235 123.6585322744213,42.17210126493592 126.0975243318826,44.82567850733176 129.43081347784027,43.05662767402828 130.16251109493896,34.83050653070677 127.72351903701201,32.442267092177644 124.47152962675318,34.29978707223199 123.73983200965449,42.4374592571985 126.5040230085142,44.914130979334004 129.43081347784027,42.96817506279331 130.16251109493896,34.83050653070677 127.1544208903797,32.442267092177644 124.47152962675318,34.47669358504936 123.73983200965449,42.52591190778185 126.5040230085142,44.914130979334004 129.5121132126078,42.79126982064918 130.16251109493896,34.74205330433324 127.39832009654492,32.442267092177644 124.47152962675318,34.388240331900306 123.82113174488768,42.70281718974002 126.5040230085142,44.914130979334004 129.5121132126078,42.79126982064918 130.16251109493896,34.83050653070677 126.91052168468013,32.442267092177644 124.39022989152,34.653600071091205 123.82113174488768,42.87972244503908 126.5040230085142,44.914130979334004 129.43081347784027,42.96817506279331 130.08121135970578,34.74205330433324 127.07312115514651,32.442267092177644 124.39022989152,34.47669358504936 123.73983200965449,42.61436455196235 126.66662247898057,44.914130979334004 129.5121132126078,42.61436455196235 130.08121135970578,34.74205330433324 126.82922194944695,32.442267092177644 124.39022989152,34.56514683132991 123.9837312148884,43.23353287624195 126.26012380234897,44.914130979334004 128.8617153307423,43.94115342141595 130.08121135970578,36.334210369037464 128.37391691934317,32.707627268042415 124.63412909768522,34.03442725376226 123.6585322744213,42.08364858746063 125.3658267147839,44.56032105104532 127.47961983131245,44.82567850733176 129.18691427167505,43.410438052378595 130.16251109493896,35.18431937065907 128.1300177136436,32.53072049061302 124.87802830291912,33.59216075728182 124.14633068582043,43.49889063031878 127.47961983131245,44.82567850733176 129.593412947841,42.08364858746063 130.08121135970578,34.56514683132991 126.66662247898057,32.53072049061302 124.3089301562868,34.74205330433324 123.9837312148884,43.23353287624195 126.66662247898057,44.914130979334004 129.43081347784027,42.96817506279331 130.16251109493896,34.83050653070677 127.31702036084607,32.442267092177644 124.39022989152,34.56514683132991 123.9837312148884,43.23353287624195 127.23572062561288,44.82567850733176 129.593412947841,42.08364858746063 129.75601241877303,33.945973967784084 127.39832009654492,32.442267092177644 124.7967285681516,33.68061406980269 123.6585322744213,42.08364858746063 125.04062777385116,44.47186855238397 121.46343942219391,48.00996333756484 121.5447391574271,52.78637450479437 115.44725901307538,53.31708566576708 114.14646324934438,54.64386252616532 112.76436774991453,63.489003551891074 109.43107860395685,66.67323812493123 111.95137039711699,68.0 109.18717939825729,66.49633642926347 112.84566748514771,62.51604127755854 113.98386377841234,54.378507273155265 121.38213968742639,52.34411502210423 122.92683465685695,45.975560129620135 132.43890368239954,47.12544063385576 137.47948726825416,42.4374592571985 133.00800182903185,45.621750518796034 129.8373121540062,45.44484567362815 130.08121135970578,34.21133380604442 129.10561453644186,32.53072049061302 126.74792221421376,32.0 124.06503095058724,34.47669358504936 123.41463306872174,43.23353287624195 126.82922194944695,45.09103590389714 129.34951374214143,42.4374592571985 129.9186118892394,34.12288053322118 128.8617153307423,32.353813687106594 126.0975243318826,32.26536027516704 123.90243148012087,34.918959750561044 123.41463306872174,43.76424832479097 126.74792221421376,45.00258344516624 129.10561453644186,42.349006599513814 129.8373121540062,34.03442725376226 128.69911586027592,32.442267092177644 126.17882406711578,32.26536027516704 123.49593280395493,35.98039787332527 123.0081343925558,42.52591190778185 124.06503095058724,44.56032105104532 126.66662247898057,45.09103590389714 128.9430150659755,43.23353287624195 129.9186118892394,35.0958661705954 127.80481877271086,32.08845343173016 124.3089301562868,33.68061406980269 123.0081343925558,42.61436455196235 125.4471264500171,44.914130979334004 129.10561453644186,42.52591190778185 129.9999116244726,34.47669358504936 128.7804155955091,32.442267092177644 127.1544208903797,32.08845343173016 123.33333333302289,35.44967893115245 122.84553492162377,43.05662767402828 126.42272327328101,45.09103590389714 129.18691427167505,42.4374592571985 129.67471268353984,34.03442725376226 126.99182141991332,32.08845343173016 123.6585322744213,34.653600071091205 123.0081343925558,42.79126982064918 126.0975243318826,45.17948835634161 129.18691427167505,42.349006599513814 129.67471268353984,33.945973967784084 126.91052168468013,32.08845343173016 123.82113174488768,34.12288053322118 123.0081343925558,42.52591190778185 126.0975243318826,45.00258344516624 129.02431480167434,42.96817506279331 129.75601241877303,34.12288053322118 126.91052168468013,32.08845343173016 123.49593280395493,34.74205330433324 123.17073386255652,42.61436455196235 126.17882406711578,45.00258344516624 129.10561453644186,42.52591190778185 129.9186118892394,34.12288053322118 127.31702036084607,32.08845343173016 123.73983200965449,34.12288053322118 122.68293545115739,42.349006599513814 125.93492486141622,45.00258344516624 129.10561453644186,43.05662767402828 129.67471268353984,34.12288053322118 126.66662247898057,32.08845343173016 123.57723253872246,34.653600071091205 122.92683465685695,42.96817506279331 126.0975243318826,45.00258344516624 129.18691427167505,42.52591190778185 129.75601241877303,34.388240331900306 126.99182141991332,32.17690685670823 123.6585322744213,34.03442725376226 122.76423518685624,42.08364858746063 125.93492486141622,44.82567850733176 129.18691427167505,42.4374592571985 129.8373121540062,34.21133380604442 126.82922194944695,32.08845343173016 123.73983200965449,34.12288053322118 122.84553492162377,42.349006599513814 126.01622459711507,44.914130979334004 129.26821400690824,42.70281718974002 129.9186118892394,34.653600071091205 127.23572062561288,32.17690685670823 123.82113174488768,34.12288053322118 122.84553492162377,42.349006599513814 125.7723253914155,45.09103590389714 129.10561453644186,42.61436455196235 130.08121135970578,34.47669358504936 129.02431480167434,32.61917388252914 126.99182141991332,32.17690685670823 123.6585322744213,34.03442725376226 122.84553492162377,42.4374592571985 125.7723253914155,44.914130979334004 129.26821400690824,42.52591190778185 129.67471268353984,34.21133380604442 128.8617153307423,32.707627268042415 126.58532274328172,32.17690685670823 123.41463306872174,34.21133380604442 123.0081343925558,42.61436455196235 126.34142353758216,44.914130979334004 129.02431480167434,43.05662767402828 129.67471268353984,33.857520675170235 126.74792221421376,32.08845343173016 123.82113174488768,32.79608064657077 122.84553492162377,34.29978707223199" stroke="#4dd2ff" stroke-linecap="round" stroke-linejoin="round" stroke-width="0.5"><title>2024-04-18 12.3km</title><desc>1713432540000</desc></polyline><polyline fill="none" points="179.59570977278054,59.120037532411516 178.27216359693557,36.80002334038727 169.22793139703572,32.48000265751034 162.38960948958993,38.96003150078468 161.06606331374496,62.24002714664675 167.90438522119075,67.52000265661627 174.08093404117972,66.32000898569822 177.83098153863102,61.28003066475503 178.71334565524012,36.80002334038727 173.41916095279157,32.48000265751034 167.24261213373393,32.720003959024325 161.9484274322167,38.720030665397644 161.06606331374496,61.52002981258556 165.03670184127986,67.04000524245203 170.99265963118523,68.0 178.0515725677833,60.32003389624879 179.37511874362826,38.96003150078468 170.3308865437284,32.0 161.9484274322167,39.200032317545265 160.845472285524,61.28003066475503 167.02202110551298,67.52000265661627 177.16920845024288,62.48002622113563 179.37511874362826,40.400036132428795 177.16920845024288,35.12001598835923 170.3308865437284,32.0 162.16901846043766,38.48002981254831 160.845472285524,61.52002981258556 167.24261213373393,67.76000133738853 174.08093404117972,66.08001019759104 177.38979947939515,61.28003066475503 178.71334565524012,38.48002981254831 169.00734036881477,32.0 162.38960948958993,38.96003150078468 161.06606331374496,61.76002894109115 170.11029551457614,68.0 177.61039050947875,60.800032316707075 178.27216359693557,38.00002805306576 174.08093404117972,33.68000898580067 166.13965698704123,33.200006508268416 162.38960948958993,39.200032317545265 161.50724537298083,62.48002622113563 171.65443271864206,67.04000524245203 177.61039050947875,58.160040117567405 178.0515725677833,37.280025279615074 172.0956147769466,32.96000524237752 166.13965698704123,33.92001019814052 161.50724537298083,45.440047255018726 163.27197360713035,65.60001256759278 170.55147757288069,67.28000395861454 176.28684433363378,62.960024318424985 178.71334565524012,40.16003540507518 176.06625330355018,35.12001598835923 170.11029551457614,33.200006508268416 162.38960948958993,35.84001924702898 160.40429022628814,40.640036842087284" stroke="#4dd2ff" stroke-linecap="round" stroke-linejoin="round" stroke-width="0.5"><title>2024-04-17 3.1km</title><desc>1713344929000</desc></polyline><polyline fill="none" points="22.244843726046383,80.10003756918013 20.176802053116262,97.65004413272254 24.933297901414335,104.17502045910805 30.51701041776687,105.7500126240775 37.134743770584464,101.02503365511075 39.40958961006254,79.65003605373204 31.964639589190483,73.12500652228482 23.072060395032167,79.20003447169438 21.83123539108783,100.35003605415113 29.48298958130181,106.20001023402438 37.54835210554302,101.02503365511075 39.20278544444591,80.10003756918013 31.344227086752653,73.12500652228482 23.072060395032167,80.10003756918013 21.624431224539876,99.67503830092028 29.069381247274578,105.52501379372552 37.54835210554302,100.57503527076915 39.20278544444591,80.32503830105998 32.99866042472422,73.80001023411751 23.485668729059398,78.7500328226015 21.624431224539876,100.12503681937233 29.27618541382253,105.7500126240775 37.54835210554302,100.35003605415113 39.40958961006254,80.77503971522674 32.17144375666976,73.57500901352614 23.485668729059398,78.97503365529701 21.83123539108783,99.22503971401602 24.10608123242855,103.50002356455661 30.103402082808316,105.7500126240775 37.54835210554302,100.57503527076915 39.20278544444591,78.97503365529701 30.310206251218915,73.35000777663663 23.485668729059398,78.97503365529701 22.03803955949843,100.35003605415113 29.89659791626036,106.4250090138521 37.34154793806374,100.80003447085619 39.40958961006254,79.65003605373204 31.964639589190483,73.35000777663663 23.899277064949274,79.20003447169438 21.624431224539876,99.22503971401602 25.346906235441566,104.62501830467954 30.930618752725422,105.97501143696718 37.54835210554302,100.57503527076915 38.789177109487355,79.42503527132794 30.723814585246146,73.35000777663663 23.899277064949274,79.20003447169438 22.244843726046383,99.22503971401602 27.621752075850964,105.7500126240775 37.134743770584464,100.80003447085619 39.40958961006254,80.77503971522674 31.757835421711206,73.35000777663663 23.899277064949274,78.7500328226015 22.03803955949843,98.77504106098786 27.621752075850964,105.7500126240775 37.134743770584464,101.25003282167017 39.823197945952415,80.55003901640885 32.58505209069699,74.02501143771224 23.899277064949274,78.7500328226015 21.624431224539876,99.45003901585005 28.86257707886398,106.20001023402438 37.34154793806374,100.57503527076915 39.20278544444591,79.42503527132794 32.17144375666976,73.57500901352614 26.79453540686518,74.7000149472151 23.899277064949274,79.20003447169438 22.03803955949843,100.80003447085619 29.689793748781085,106.20001023402438 37.75515627209097,100.12503681937233 39.20278544444591,79.20003447169438 30.723814585246146,73.80001023411751 23.485668729059398,79.42503527132794 22.244843726046383,100.35003605415113 29.48298958130181,105.7500126240775 37.54835210554302,99.90003756829537 39.20278544444591,79.65003605373204 31.964639589190483,73.57500901352614 23.899277064949274,78.52503197267652 21.83123539108783,100.57503527076915 28.655772912316024,105.97501143696718 36.92793960310519,101.25003282167017 39.40958961006254,79.87503681983799 30.930618752725422,73.57500901352614 22.658452061004937,77.85002932138741 20.176802053116262,99.45003901585005 26.174122905358672,106.65000777621754 32.378247923217714,106.87500652275048 38.168764607049525,102.82502651819959 40.03000211343169,84.60004901466891 35.27350626513362,72.6750039642211 29.689793748781085,72.0 23.899277064949274,76.27502254652791 19.76319371908903,95.85004817298613 22.03803955949843,105.3000149463769 27.20814374089241,108.0 34.23948542866856,106.65000777621754 40.236806279979646,98.10004295501858" stroke="#4dd2ff" stroke-linecap="round" stroke-linejoin="round" stroke-width="0.5"><title>2024-04-15 5.9km</title><desc>1713172666000</desc></polyline><polyline fill="none" points="80.13041650271043,75.81285964883864 80.37491649156436,83.08386033237912 82.16791640687734,84.76859802869149 84.53141629509628,84.59125733131077 86.65041619539261,82.10848478204571 87.05791617557406,74.03943808190525 83.39041634881869,72.0 80.61941647995263,74.92614919715561 80.29341649543494,82.64050790888723 81.76041642576456,84.59125733131077 83.79791632993147,84.8572683671955 86.73191619152203,82.46316689322703 86.81341618765146,73.33006871235557 83.79791632993147,72.08867129404098 81.1899164528586,73.77342461806256 80.13041650271043,82.01981423760299 82.08641641074792,84.67992768308613 84.93891627620906,84.59125733131077 86.81341618765146,82.72917840688024 87.38391616055742,74.48279372265097 84.53141629509628,72.17734258121345 80.70091647608206,74.57146483066026 80.04891650704667,81.66513199394103 82.49391639139503,84.8572683671955 86.40591620653868,83.34987170668319 87.38391616055742,74.74880702700466 85.1019162684679,72.3546851357678 81.1899164528586,73.77342461806256 80.13041650271043,82.28582585090771 82.41241639526561,84.8572683671955 86.1614162181504,83.70455344638322 87.46541615668684,75.28083345736377 85.83541623409837,72.53202766401228 83.87941632606089,72.17734258121345 81.27141644898802,73.59608227584977 80.21191649930552,81.84247312904336 82.24941640300676,84.76859802869149 86.1614162181504,83.70455344638322 86.81341618765146,73.33006871235557 83.064416364301,72.3546851357678 80.78241647221148,74.74880702700466 80.37491649156436,82.72917840688024 83.87941632606089,84.8572683671955 86.73191619152203,82.55183740437496 87.22091616876423,74.57146483066026 84.28691630670801,72.26601386175025 80.78241647221148,74.57146483066026 80.21191649930552,82.72917840688024 83.14591636043042,84.8572683671955 86.48741620313376,82.64050790888723 87.22091616876423,74.66013593226671 84.04241631831974,72.08867129404098 80.8639164683409,74.39412260765675 80.21191649930552,82.81784889823757 82.90141637204215,84.8572683671955 85.26491626072675,84.5025869726669 86.73191619152203,82.64050790888723 87.302416164428,74.39412260765675 84.20541631104425,72.17734258121345 80.8639164683409,74.48279372265097 80.37491649156436,82.46316689322703 83.064416364301,84.8572683671955 86.40591620653868,83.26120125502348 87.38391616055742,74.48279372265097 84.20541631104425,72.17734258121345 80.94541646493599,74.12810922332574 80.29341649543494,82.19715532008559 82.7384163797833,84.8572683671955 86.40591620653868,83.17253079707734 87.302416164428,74.8374781155726 84.69441628782079,72.26601386175025 81.10841645672917,73.86209577939007 80.21191649930552,82.64050790888723 82.90141637204215,84.94593869941309 86.48741620313376,83.26120125502348 87.302416164428,74.74880702700466 84.69441628782079,72.26601386175025 80.13041650271043,74.03943808190525 79.64141652639955,83.08386033237912 77.68541661882773,86.45333333034068 78.74491656851023,92.48289268498775 71.49141691066325,94.07894738053437 69.37241701083258,102.67987180198543 65.86791717633605,106.49263276788406 70.18741697259247,108.0" stroke="#4dd2ff" stroke-linecap="round" stroke-linejoin="round" stroke-width="0.5"><title>2024-04-14 5.4km</title><desc>1713087921000</desc></polyline><polyline fill="none" points="112.64141200296581,96.2449414881412 117.81855285726488,106.53061999403872 127.49755532573909,107.0204134027008 132.44960309937596,98.93881279206835 132.67469618003815,75.91838654712774 122.99569371156394,72.73469783482142 116.46799437329173,79.102072162088 114.6672497279942,101.14288766426034 118.49383210018277,106.04082651273347 124.57134527619928,107.26531007955782 131.99941693805158,100.65309337619692 133.57506850268692,78.12247691815719 123.67097295448184,72.24489929620177 116.24290129262954,79.59186967485584 114.6672497279942,101.38778478070162 122.77060063183308,107.0204134027008 131.7743238573894,101.87757895817049 134.2503477446735,80.5714644792024 126.37208992149681,72.24489929620177 117.1432736152783,77.1428813803941 115.11743588931859,100.89799052942544 122.99569371156394,107.5102067377884 131.5492307767272,102.6122700877022 133.8001615833491,79.83676840318367 125.24662451818585,72.48979857447557 116.91818053461611,78.12247691815719 114.44215664733201,100.40819620504044 121.64513522852212,108.0 131.7743238573894,102.12247602036223 134.2503477446735,80.81636313488707 127.27246224414557,72.73469783482142 117.1432736152783,77.87757806130685 114.8923428086564,99.91840180684812 122.0953213898465,107.0204134027008 131.5492307767272,102.85716709471308 134.02525466307998,79.83676840318367 125.47171759977937,72.24489929620177 117.1432736152783,77.63267918629572 114.8923428086564,100.16329901479185 120.29457674454898,107.0204134027008 127.94774148706347,106.53061999403872 131.99941693805158,102.36737306322902 133.8001615833491,79.34697092790157 125.47171759977937,72.24489929620177 117.1432736152783,77.3877802924253 115.11743588931859,101.38778478070162 122.77060063183308,108.0 132.44960309937596,101.38778478070162 133.8001615833491,78.12247691815719 125.02153143845499,72.24489929620177 116.46799437329173,78.61227457690984 114.44215664733201,100.89799052942544 122.99569371156394,107.5102067377884 131.99941693805158,101.14288766426034 134.02525466307998,79.34697092790157 125.02153143845499,72.0 116.91818053461611,77.3877802924253 114.8923428086564,99.18371007288806 120.29457674454898,107.0204134027008 131.99941693805158,102.12247602036223 133.8001615833491,78.12247691815719 126.597183002159,72.24489929620177 116.91818053461611,77.3877802924253 115.11743588931859,100.89799052942544 121.19494906719774,107.26531007955782 131.5492307767272,102.6122700877022 134.02525466307998,80.81636313488707 126.597183002159,72.0 116.91818053461611,77.1428813803941 114.8923428086564,100.16329901479185 122.0953213898465,107.26531007955782 131.5492307767272,102.6122700877022 134.2503477446735,79.102072162088 128.62302072905004,72.97959707607515 120.74476290494204,72.97959707607515 113.76687740534544,87.91841617063619 113.54178432468325,100.16329901479185 112.4163189213723,95.26535137346946" stroke="#4dd2ff" stroke-linecap="round" stroke-linejoin="round" stroke-width="0.5"><title>2024-04-13 4.9km</title><desc>1713000859000</desc></polyline><polyline fill="none" points="159.56758244428784,87.13380947289988 161.25362972542644,103.64333458943292 166.3117715716362,106.85350970248692 174.1097402498126,106.39491346362047 177.48183481302112,97.91087066824548 178.11410254333168,77.50321209034882 168.84084249380976,73.37580394907854 161.88589745666832,80.71341458009556 160.62136199511588,100.43315611430444 164.6257242904976,105.01912433560938 170.73764568567276,105.70701897703111 177.06032299250364,100.20385752338916 178.32485845405608,77.50321209034882 169.05159840360284,73.37580394907854 161.88589745666832,81.85991465463303 161.04287381563336,100.43315611430444 169.26235431432724,106.1656153188087 176.84956708177924,100.89175324537791 178.95712618529797,79.79621421173215 171.36991341691464,73.14650333323516 162.93967700656503,78.42041314439848 161.25362972542644,99.97455891454592 168.63008658401668,105.93631715606898 176.84956708177924,100.43315611430444 178.95712618529797,79.56691407691687 171.58066932670772,72.9172027008608 162.93967700656503,78.87901356909424 161.25362972542644,100.43315611430444 169.05159840360284,106.1656153188087 176.84956708177924,101.12105178507045 178.95712618529797,78.87901356909424 170.31613386515528,72.9172027008608 162.72892109770328,79.3376139246393 161.67514154594392,101.80894730123691 171.79142523743212,105.93631715606898 177.48183481302112,99.0573643099051 177.9033466335386,74.7516072797589 167.15479521267116,72.4586013846565 161.25362972542644,80.2548144296743 159.98909426480532,101.80894730123691 165.25799201987684,107.08280779630877 170.73764568567276,107.54140393226407 178.74637027457356,100.66245468822308 179.16788209415972,75.89810958434828 169.26235431432724,72.0 161.04287381563336,78.87901356909424 159.56758244428784,101.80894730123691 163.57194473873824,107.31210587290116 170.52688977587968,107.77070197486319 178.95712618529797,99.74526028940454 179.8001498254016,77.27391178393736 168.2085747634992,72.6879020514898 160.4106060853228,80.02551432931796 159.56758244428784,101.57964881253429 167.78706294298172,108.0 177.9033466335386,102.2675442257896 180.85392937622964,80.4841145137325 175.7957875309512,72.6879020514898 165.25799201987684,73.60510454676114 160.4106060853228,81.17201466136612 161.25362972542644,102.03824577224441 171.15915750712156,106.62421159190126 177.27107890229672,100.66245468822308 179.16788209415972,80.02551432931796 175.37427571136504,74.29300623829477 169.89462204556912,72.6879020514898 162.09665336739272,79.3376139246393 161.46438563615084,100.20385752338916 168.84084249380976,105.93631715606898 177.27107890229672,100.66245468822308 178.95712618529797,79.56691407691687 171.36991341691464,72.9172027008608 162.51816518697888,79.3376139246393 161.46438563615084,100.43315611430444 167.78706294298172,106.39491346362047 174.53125206939876,105.01912433560938 177.69259072374552,100.43315611430444 179.37863800488412,79.56691407691687 171.79142523743212,72.9172027008608 161.25362972542644,79.79621421173215 159.14607062377036,98.36946817603894" stroke="#4dd2ff" stroke-linecap="round" stroke-linejoin="round" stroke-width="0.5"><title>2024-04-12 5.1km</title><desc>1712913892000</desc></polyline><polyline fill="none" points="12.333333333721384,120.57089550502133 12.0,125.6481607313035 14.13333333353512,128.0417194024194 17.466666666790843,126.51854638621444 18.333333333488554,119.84556973085273 17.73333333339542,118.32238383888034 15.866666666930541,117.45199082617182 13.13333333330229,118.97517808555858 12.400000000139698,125.72069289890351 14.13333333353512,127.82412340369774 17.533333333441988,126.37348216457758 18.26666666660458,119.84556973085273 16.199999999953434,117.52452360716416 13.26666666707024,118.8301127353916 12.466666667023674,125.6481607313035 14.666666666977108,127.96918740827823 17.4000000001397,126.73614267772064 18.333333333488554,120.13570010563126 16.199999999953434,117.45199082617182 13.26666666707024,118.8301127353916 12.466666667023674,125.57562855805736 14.066666666883975,127.82412340369774 17.4000000001397,126.73614267772064 18.200000000419095,119.70050451083807 16.066666666883975,117.59705638268497 13.26666666707024,118.75758005207172 12.466666667023674,125.28549981117249 13.866666666930541,127.67905937734758 15.866666666930541,127.82412340369774 17.533333333441988,126.51854638621444 18.26666666660458,120.20823268569075 17.600000000325963,118.24985111760907 14.13333333353512,117.74212191725383 12.933333333581686,119.55543926928658 12.0,126.59107848885469 19.066666666651145,129.2022305704886 21.333333333255723,128.476911253063 24.13333333353512,125.72069289890351 28.199999999953434,127.02627099078381 29.13333333330229,128.91210290871095 28.933333333348855,134.13438753940864 32.73333333339542,139.21158174338052 39.26666666683741,141.60510693327524 46.0,142.54800917388638 48.0,141.2424519812339 47.800000000046566,129.0571667504264 46.933333333348855,129.41982625983655 46.66666666674428,131.81337562022964" stroke="#4dd2ff" stroke-linecap="round" stroke-linejoin="round" stroke-width="0.5"><title>2024-04-11 3.0km</title><desc>1712828151000</desc></polyline><polyline fill="none" points="68.02091922424734,119.66455110465176 67.16701824124902,140.8000333942473 70.3691469244659,146.14194570016116 76.3464537980035,147.76774327387102 86.16631509177387,141.49680508556776 87.66064180992544,118.73551561543718 78.69468149822205,112.0 69.94219643250108,116.41292567458004 67.38049348723143,140.33551884675398 73.99822609778494,147.30322976852767 81.68333493545651,146.37420254875906 85.73936459980905,142.19357662112452 87.87411705497652,120.36132753989659 80.82943395432085,112.6967781551648 74.21170134283602,113.16129683866166 69.72872118744999,117.80647984752432 66.74006775114685,140.1032615462318 75.4925528159365,148.0 85.73936459980905,143.1226050911937 88.51454279199243,123.61294883536175 87.66064180992544,116.87744380184449 83.60461214464158,113.3935561538674 75.4925528159365,112.23225940275006 70.58262216858566,114.78711168235168 64.81879054103047,123.61294883536175 67.38049348723143,140.56777612888254 71.64999839663506,146.8387161931023 79.76205772534013,147.53548652934842 85.52588935475796,142.65809089131653 87.44716656487435,121.98713861336 82.11028542649001,112.6967781551648 75.70602806098759,112.0 69.94219643250108,115.48388921190053 67.38049348723143,140.33551884675398 73.14432511478662,147.30322976852767 80.82943395432085,147.07097298954614 86.37979033682495,140.56777612888254 88.30106754694134,121.29036254296079 85.09893886372447,115.2516300524585 78.90815674420446,112.23225940275006 69.72872118744999,116.1806665849872 67.16701824124902,139.87100422848016 73.35780036076903,147.07097298954614 80.82943395432085,146.8387161931023 86.59326558187604,140.8000333942473 88.08759230002761,121.29036254296079 82.3237606715411,112.6967781551648 71.43652315158397,113.62581545230933 68.2343944683671,119.89680993393995 68.02091922424734,142.89034799975343 78.48120625317097,147.53548652934842 85.73936459980905,140.8000333942473 86.59326558187604,119.89680993393995 83.60461214464158,114.55485247145407 77.62730527110398,113.16129683866166 69.94219643250108,119.20003339461982 68.2343944683671,140.1032615462318 76.9868795350194,147.07097298954614 85.31241410877556,141.49680508556776 86.80674082785845,121.52262125024572 84.67198837175965,115.94840747769922 78.90815674420446,113.16129683866166 69.94219643250108,118.9677745134104 67.16701824124902,140.33551884675398 75.4925528159365,148.0 81.25638444442302,147.53548652934842 83.81808739155531,143.1226050911937 86.59326558187604,121.0581038184464 79.76205772534013,113.62581545230933 74.42517658788711,114.09033399634063 70.15567167848349,119.20003339461982 68.2343944683671,139.40648954198696 75.70602806098759,146.60645937989466 84.67198837175965,142.65809089131653 86.59326558187604,119.89680993393995 79.33510723523796,113.3935561538674 70.3691469244659,119.20003339461982 68.44786971434951,139.87100422848016 75.4925528159365,146.8387161931023 84.88546361867338,141.03229064284824 86.59326558187604,119.89680993393995 78.48120625317097,113.62581545230933 69.94219643250108,119.43229225859977 68.2343944683671,140.1032615462318 77.2003547810018,147.07097298954614 84.67198837175965,141.9613194600679 86.37979033682495,119.20003339461982 79.12163198925555,113.62581545230933 70.15567167848349,118.03873881534673 67.59396873228252,139.87100422848016 74.63865183386952,146.8387161931023 84.67198837175965,142.65809089131653 87.44716656487435,121.0581038184464 79.33510723523796,113.62581545230933 73.78475085180253,114.55485247145407 68.2343944683671,120.8258450764697 66.52659250423312,139.40648954198696" stroke="#4dd2ff" stroke-linecap="round" stroke-linejoin="round" stroke-width="0.5"><title>2024-04-09 5.6km</title><desc>1712653834000</desc></polyline><polyline fill="none" points="113.86456143390387,118.56606966350228 113.44835168030113,139.84909410309047 116.98613458778709,146.1886894754134 121.98065163288265,147.09434487274848 127.80758818611503,145.96227558329701 131.96968572493643,140.5283370995894 133.8426296170801,118.11323772999458 130.30484670959413,113.35849834070541 123.85359552595764,112.0 115.32129557151347,118.79248560452834 113.86456143390387,140.75475139776245 123.2292808946222,147.5471724702511 131.96968572493643,140.5283370995894 133.42641986347735,119.2453174367547 128.43190281745046,113.13208199315704 124.06170040275902,112.67924924637191 115.32129557151347,119.2453174367547 113.03214192576706,139.3962653542403 116.98613458778709,145.7358616751153 123.02117601688951,147.5471724702511 132.1777906017378,140.30192278441973 134.05073449388146,120.1509808965493 126.14274917170405,112.22641643229872 118.23476384859532,113.81133098574355 114.69698094110936,118.33965370524675 113.44835168030113,141.2075799438171 122.3968613864854,147.32075868011452 131.76158084813505,141.2075799438171 133.8426296170801,118.33965370524675 130.92916134092957,114.037747282302 124.47791015636176,112.22641643229872 114.90508581791073,118.79248560452834 113.44835168030113,141.66040842118673 122.3968613864854,148.0 131.55347597133368,141.66040842118673 133.8426296170801,117.88682173844427 124.26980527862906,112.4528328482993 115.32129557151347,117.66040572966449 112.82403704803437,140.75475139776245 119.89960286393762,148.0 125.51843454036862,147.32075868011452 131.13726621679962,141.66040842118673 133.63452474027872,118.33965370524675 130.92916134092957,114.037747282302 123.85359552595764,112.22641643229872 114.69698094110936,119.01890152902342 113.24024680349976,141.66040842118673 116.77802971098572,146.41510334983468 122.3968613864854,147.77358624362387 131.55347597133368,141.8868226353079 134.05073449388146,119.01890152902342 131.345371093601,114.26416356186382 124.26980527862906,112.4528328482993 114.90508581791073,117.66040572966449 112.61593217216432,139.3962653542403 119.48339310940355,147.32075868011452 125.93464429397136,147.32075868011452 131.13726621679962,142.79247932019643 134.25883937068284,123.32080087205395 130.09674183186144,113.13208199315704 117.61044921725988,114.037747282302 114.28077118750662,119.69814920029603 113.65645655617118,142.33965101116337 118.44286872539669,147.09434487274848 124.26980527862906,147.5471724702511 132.38589547760785,139.62267973762937 133.8426296170801,119.69814920029603 130.5129515863955,114.26416356186382 122.3968613864854,112.22641643229872 114.69698094110936,118.33965370524675 112.82403704803437,140.75475139776245 122.18875650968403,148.0 131.76158084813505,141.66040842118673 133.8426296170801,118.79248560452834 131.55347597133368,114.71699607139453 124.47791015636176,112.0 118.23476384859532,114.26416356186382 114.28077118750662,120.1509808965493 114.48887606430799,140.5283370995894 122.60496626421809,146.1886894754134 130.5129515863955,140.9811656794045 131.96968572493643,119.01890152902342 125.1022247876972,113.35849834070541 114.07266630977392,120.83022831380367 112.40782729536295,138.0377787007019" stroke="#4dd2ff" stroke-linecap="round" stroke-linejoin="round" stroke-width="0.5"><title>2024-04-08 5.0km</title><desc>1712568268000</desc></polyline><polyline fill="none" points="159.7485990235582,125.25158479553647 161.9815774532035,142.25769813661464 167.46252451092005,145.3497082204558 174.1614598017186,143.5828457120806 178.62741666287184,137.8405352574773 178.01842254586518,115.09204177255742 168.68051274493337,112.0 161.16958529688418,119.95095801516436 160.76358921825886,142.03684015013278 165.83854019735008,146.01228138781153 174.5674558803439,144.90799269266427 178.22142058517784,138.50311011075974 178.4244186244905,115.31290177535266 167.05652843229473,112.88344083726406 160.76358921825886,122.60127259464934 160.56059118080884,141.37426608987153 166.44753431528807,145.79142368212342 174.1614598017186,144.90799269266427 178.62741666287184,138.50311011075974 178.22142058517784,114.87118175323121 167.46252451092005,112.88344083726406 161.37258333619684,119.28837899840437 159.95159706287086,140.26997565920465 168.88351078424603,146.6748544073198 178.01842254586518,139.82825937122107 179.43940882012248,119.06751929339953 175.98844215460122,113.54602129128762 170.507495097816,112.44172045192681 164.8235500017181,113.98774151154794 161.77857941482216,118.84665957116522 160.56059118080884,140.93254996673204 164.21455588378012,145.3497082204558 172.13147941045463,145.79142368212342 178.22142058517784,139.82825937122107 178.8304147021845,116.85892133158632 171.9284813720733,112.22086023399606 161.9815774532035,118.18408030644059 160.15459510218352,139.82825937122107 163.60556176677346,144.90799269266427 168.68051274493337,146.01228138781153 177.81542450655252,141.15340803703293 179.8454048987478,119.95095801516436 177.0034323502332,114.65032171783969 170.10149901919067,112.88344083726406 163.80855980608612,115.9754816845525 160.96658725850284,121.49697514250875 160.56059118080884,143.1411299200263 163.80855980608612,146.6748544073198 170.9134911764413,146.89571204781532 177.81542450655252,139.60740120266564 179.8454048987478,118.62579983263277 170.71049313619733,112.66258065239526 161.9815774532035,118.404940078035 159.54560098331422,140.7116918808315 166.6505323536694,147.77914244239219 177.81542450655252,140.04911752347834 179.64240685850382,119.06751929339953 175.78544411435723,113.3251611564774 170.507495097816,112.44172045192681 161.5755813755095,118.84665957116522 160.35759314056486,140.7116918808315 169.69550294149667,146.23313907766715 177.81542450655252,139.16568481526338 179.43940882012248,117.5215008938685 170.71049313619733,112.88344083726406 161.5755813755095,119.28837899840437 160.15459510218352,139.82825937122107 164.21455588378012,144.90799269266427 170.30449705850333,146.23313907766715 178.01842254586518,139.16568481526338 179.43940882012248,117.5215008938685 175.78544411435723,113.54602129128762 168.07151862885803,112.88344083726406 160.76358921825886,122.1595536635723 160.15459510218352,142.920271998737 163.60556176677346,146.89571204781532 171.9284813720733,146.45399675075896 178.22142058517784,138.50311011075974 178.4244186244905,115.75462173111737 169.28950686380267,112.0 161.37258333619684,119.28837899840437 160.15459510218352,140.04911752347834 166.04153823666275,145.79142368212342 171.9284813720733,145.57056595920585 178.4244186244905,138.28225184348412 179.43940882012248,117.96322051854804 175.98844215460122,113.54602129128762 169.0865088235587,112.66258065239526 161.16958529688418,119.95095801516436 160.96658725850284,141.59512412617914 166.6505323536694,146.6748544073198 174.1614598017186,145.57056595920585 179.03341274242848,132.76078977715224 177.0034323502332,115.9754816845525 165.43254411872476,114.4294616652187 159.95159706287086,126.79759914707392 160.76358921825886,144.46627709828317 165.43254411872476,147.5582848689519 173.14646960701793,146.01228138781153 178.4244186244905,138.0613935587462 180.04840293712914,120.61353688314557 178.01842254586518,115.09204177255742 170.9134911764413,112.88344083726406 164.8235500017181,114.65032171783969 159.95159706287086,126.5767400036566 160.76358921825886,144.46627709828317 165.22954608034343,147.3374272780493 173.34946764539927,145.79142368212342 178.4244186244905,138.0613935587462 178.22142058517784,115.75462173111737 167.6655225502327,112.66258065239526 160.96658725850284,121.71783466590568 161.37258333619684,142.25769813661464 167.6655225502327,147.3374272780493 174.77045391965657,146.89571204781532 178.62741666287184,141.59512412617914 178.8304147021845,116.63806144427508 166.8535303939134,112.66258065239526 160.56059118080884,121.05525604565628 159.54560098331422,141.81598214642145 162.79356961045414,146.6748544073198 169.898500979878,147.77914244239219 178.4244186244905,139.38654301688075 179.23641078080982,117.30064105591737 167.86852058861405,112.88344083726406 160.35759314056486,121.93869417323731 159.7485990235582,143.1411299200263 163.60556176677346,147.1165696713142 170.10149901919067,147.5582848689519 176.19144019298255,144.46627709828317 179.03341274242848,138.7239683624357 179.8454048987478,117.30064105591737 168.68051274493337,112.44172045192681 160.56059118080884,120.1718176540453 159.7485990235582,142.25769813661464 163.40256372839212,146.45399675075896 170.9134911764413,148.0 178.22142058517784,142.03684015013278 179.8454048987478,118.18408030644059 177.0034323502332,114.20860159629956 169.28950686380267,112.44172045192681 161.16958529688418,118.84665957116522 158.93660686723888,140.26997565920465 161.5755813755095,145.12885046424344 167.46252451092005,147.5582848689519 177.81542450655252,142.03684015013278 180.04840293712914,119.95095801516436 171.11648921482265,112.44172045192681 161.9815774532035,118.18408030644059 159.7485990235582,139.82825937122107 169.4925049012527,147.5582848689519 178.62741666287184,142.25769813661464 180.65739705506712,121.05525604565628 176.80043431092054,114.87118175323121 171.11648921482265,112.88344083726406 161.5755813755095,118.84665957116522 159.54560098331422,140.49083377839997 162.59057157114148,145.3497082204558 169.4925049012527,147.5582848689519 178.8304147021845,140.93254996673204 180.2514009764418,121.05525604565628 177.61242646723986,115.75462173111737 170.71049313619733,112.44172045192681 161.37258333619684,119.06751929339953 159.95159706287086,141.15340803703293 163.19956568814814,145.57056595920585 169.4925049012527,147.3374272780493 178.01842254586518,141.81598214642145 179.8454048987478,120.1718176540453 170.507495097816,112.88344083726406 161.37258333619684,119.95095801516436 159.7485990235582,141.37426608987153 169.898500979878,146.89571204781532 178.4244186244905,140.49083377839997 180.2514009764418,119.50923868711106 169.898500979878,112.66258065239526 161.16958529688418,119.95095801516436 159.95159706287086,140.49083377839997 169.69550294149667,146.89571204781532 178.22142058517784,140.93254996673204 179.64240685850382,119.28837899840437 175.37944803666323,113.76688141003251 169.4925049012527,112.88344083726406 161.5755813755095,120.39267727662809 159.54560098331422,140.7116918808315 168.47751470655203,147.5582848689519 178.22142058517784,142.6994140613824 181.06339313276112,121.27611560258083 177.4094284279272,114.4294616652187 165.83854019735008,113.76688141003251 161.16958529688418,120.61353688314557 159.95159706287086,137.8405352574773" stroke="#4dd2ff" stroke-linecap="round" stroke-linejoin="round" stroke-width="0.5"><title>2024-04-06 11.8km</title><desc>1712394949000</desc></polyline><polyline fill="none" points="21.405540456064045,183.55846398649737 29.355415533296764,188.0 36.87556763458997,181.68834167066962 39.453905497677624,161.35068922280334 36.87556763458997,154.5714423255995 28.92569255735725,152.70130266225897 23.76901683025062,156.20781361334957 20.760955990292132,177.24679668596946 26.347354693338275,186.1298803430982 36.87556763458997,182.38963767001405 39.6687669865787,160.18185460055247 35.58639870304614,154.33767492882907 28.495969579555094,153.63637263397686 23.554155342280865,157.37664972199127 20.97581747919321,179.116921659559 26.562216183170676,186.36364536103792 36.23098316881806,183.3246987578459 39.02418251987547,160.64938850165345 34.297229771502316,153.87014008359984 27.421662136912346,153.87014008359984 23.339293853379786,158.07795117795467 20.97581747919321,178.4156249256339 25.487908739596605,185.89611530699767 36.44584465678781,183.09093351243064 39.239044008776546,160.64938850165345 33.008060839027166,153.40260516735725 23.12443236541003,157.61041689128615 20.331233013421297,180.5195146559272 28.281108091585338,186.83117534592748 37.090429122559726,181.4545763025526 39.453905497677624,160.88315542577766 36.66070614568889,155.2727444106713 31.289168931543827,152.93507018173113 22.479847898706794,158.311718294397 20.331233013421297,178.88315609912388 27.421662136912346,186.59741036244668 37.305290611460805,181.2208109172061 39.239044008776546,160.4156215598341 31.07430744264275,152.93507018173113 22.909570877440274,158.07795117795467 20.97581747919321,179.58445272780955 28.281108091585338,186.83117534592748 37.305290611460805,181.2208109172061 39.02418251987547,159.01301954011433 30.429722976870835,153.16883768350817 22.909570877440274,158.311718294397 21.19067896809429,180.28574919956736 29.570277023129165,186.59741036244668 37.73501358833164,180.75328009319492 39.453905497677624,159.71432062867098 31.71889190748334,153.16883768350817 22.479847898706794,159.01301954011433 20.97581747919321,180.28574919956736 28.71083106752485,186.83117534592748 37.520152100361884,181.4545763025526 39.453905497677624,159.94808762311004 30.859445954672992,153.16883768350817 22.479847898706794,159.01301954011433 20.760955990292132,180.28574919956736 29.570277023129165,186.83117534592748 37.305290611460805,181.4545763025526 39.239044008776546,159.94808762311004 31.93375339731574,152.93507018173113 22.694709387607872,158.07795117795467 20.97581747919321,179.35068720206618 27.851385114714503,186.59741036244668 34.08236828260124,185.42858518264256 37.520152100361884,181.2208109172061 39.453905497677624,159.24678658717312 31.71889190748334,152.93507018173113 23.12443236541003,157.8441840435844 20.760955990292132,179.35068720206618 27.20680064894259,186.59741036244668 37.090429122559726,182.1558723547496 39.239044008776546,160.18185460055247 32.36347637325525,152.46753512625583 23.339293853379786,157.37664972199127 20.760955990292132,179.58445272780955 28.066246601752937,186.59741036244668 34.72695274837315,185.19482009438798 37.94987507723272,180.5195146559272 38.80932103190571,158.77925247582607 30.21486148890108,152.70130266225897 22.479847898706794,158.54548539384268 20.97581747919321,180.987045513466 28.92569255735725,186.83117534592748 37.520152100361884,180.75328009319492 39.239044008776546,159.94808762311004 31.07430744264275,152.93507018173113 22.26498641166836,159.48055361700244 20.97581747919321,179.58445272780955 28.71083106752485,186.59741036244668 37.305290611460805,181.68834167066962 39.239044008776546,160.18185460055247 30.429722976870835,152.93507018173113 22.694709387607872,158.77925247582607 20.97581747919321,180.5195146559272 26.13249320536852,186.36364536103792 36.87556763458997,182.38963767001405 39.6687669865787,160.4156215598341 31.07430744264275,152.70130266225897 23.12443236541003,157.8441840435844 21.405540456064045,180.05198372644372 29.570277023129165,186.83117534592748 37.520152100361884,180.75328009319492 39.453905497677624,160.18185460055247 35.37153721321374,154.10390751506202 30.21486148890108,152.70130266225897 22.909570877440274,158.77925247582607 20.97581747919321,179.81821823655628 29.570277023129165,186.83117534592748 37.305290611460805,182.38963767001405 39.239044008776546,159.48055361700244 31.07430744264275,152.23376757162623 23.554155342280865,156.44158086995594 20.97581747919321,179.81821823655628 23.9838783191517,184.96105498890392 29.78513851109892,186.83117534592748 37.94987507723272,180.28574919956736 39.239044008776546,159.48055361700244 35.15667572617531,153.63637263397686 29.570277023129165,152.46753512625583 22.909570877440274,158.07795117795467 21.19067896809429,180.5195146559272 30.429722976870835,187.29870526026934 37.520152100361884,181.68834167066962 39.02418251987547,159.48055361700244 30.644584465771914,152.0 22.694709387607872,158.07795117795467 20.760955990292132,179.116921659559 27.421662136912346,186.59741036244668 37.305290611460805,181.92210702155717 39.02418251987547,159.71432062867098 31.71889190748334,152.70130266225897 26.13249320536852,153.40260516735725 22.694709387607872,159.01301954011433 20.97581747919321,179.81821823655628 29.14055404625833,186.83117534592748 37.73501358833164,181.2208109172061 39.02418251987547,160.18185460055247 31.289168931543827,152.46753512625583 22.694709387607872,158.77925247582607 21.19067896809429,180.75328009319492 28.92569255735725,187.29870526026934 37.520152100361884,181.2208109172061 39.02418251987547,158.77925247582607 35.58639870304614,154.10390751506202 28.92569255735725,152.70130266225897 22.694709387607872,158.77925247582607 21.405540456064045,180.75328009319492 30.21486148890108,186.83117534592748 37.73501358833164,180.05198372644372 39.239044008776546,159.01301954011433 29.78513851109892,152.46753512625583 23.76901683025062,156.67534810886718 20.546094502322376,164.6234238401521 20.331233013421297,182.62340296804905" stroke="#4dd2ff" stroke-linecap="round" stroke-linejoin="round" stroke-width="0.5"><title>2024-04-03 9.7km</title><desc>1712137473000</desc></polyline><polyline fill="none" points="63.798852294683456,173.88240205077454 69.63802856393158,172.70593269425444 67.47537068650126,179.05886198906228 72.23321801703423,186.35295017133467 83.26277319341898,186.35295017133467 89.53448103927076,163.29416200425476 86.07422843482345,153.41177246859297 77.85612849984318,152.0 72.0169522287324,155.29413477377966 69.42176277656108,178.82356854062527 72.44948380533606,186.82353592454456 80.0187863772735,186.82353592454456 85.6416968582198,182.82355477591045 88.02062052488327,161.1765097170137 82.83024161867797,154.1176584654022 72.23321801703423,158.3529711177107 69.42176277656108,180.7059156380128 76.12600219715387,187.29412160813808 85.6416968582198,182.3529684243258 87.58808894827962,160.94121493096463 81.53264689166099,153.41177246859297 72.0169522287324,158.3529711177107 69.63802856393158,181.41179550881498 76.99106534849852,187.76470722071826 85.6416968582198,182.5882616089657 88.02062052488327,160.70592012698762 82.18144425470382,153.88236315036193 76.12600219715387,154.58824904100038 71.5844206539914,159.29415093222633 69.20549698825926,180.7059156380128 76.34226798545569,188.0 85.42543107178062,182.5882616089657 87.80435473751277,160.0000356088858 82.18144425470382,153.88236315036193 71.5844206539914,159.0588560050819 69.20549698825926,179.5294488342479 72.0169522287324,185.6470714090392 78.07239428721368,187.76470722071826 86.29049422219396,181.6470887644682 87.80435473751277,160.23533046571538 81.965178466402,153.64706781809218 77.20733113586903,153.64706781809218 71.5844206539914,158.82356106000952 69.20549698825926,179.76474222983234 75.69347062148154,187.76470722071826 85.2091652834788,183.52943417197093 88.02062052488327,161.1765097170137 83.69530476909131,154.1176584654022 78.07239428721368,153.88236315036193 71.80068644229323,158.82356106000952 69.42176277656108,180.2353289697785 74.39587589446455,187.0588287753053 85.6416968582198,185.88236434734426" stroke="#4dd2ff" stroke-linecap="round" stroke-linejoin="round" stroke-width="0.5"><title>2024-04-02 3.0km</title><desc>1712049520000</desc></polyline><polyline fill="none" points="116.16026437096298,163.32871285523288 114.77192844264209,182.96505812904797 118.93693622760475,187.24475919967517 125.18444790504873,187.49650615244173 129.8122343318537,182.20981619879603 132.12612754572183,157.2867374115158 124.25889061950147,152.0 116.85443233512342,158.0419849352911 114.5405391221866,182.20981619879603 118.47415758576244,186.99301222898066 124.95305858366191,187.49650615244173 129.8122343318537,181.95806885091588 132.12612754572183,157.53848660504445 124.49027994088829,152.0 116.85443233512342,157.790235779481 114.30914980079979,181.45457409857772 122.40777604933828,188.0 129.8122343318537,182.46156352804974 132.35751686617732,158.54548319033347 125.41583722550422,152.0 116.85443233512342,157.790235779481 114.30914980079979,181.7063214846421 121.71360808424652,188.0 129.58084501046687,182.96505812904797 132.35751686617732,158.79723228956573 125.64722654782236,152.0 116.85443233512342,157.53848660504445 114.30914980079979,181.45457409857772 121.25082944147289,188.0 129.58084501046687,182.96505812904797 132.58890618756413,159.30073043168522 126.3413945119828,152.25174958934076 117.08582165744156,157.03498819912784 114.30914980079979,180.95107927243225 121.71360808424652,188.0 129.58084501046687,182.96505812904797 132.35751686617732,158.79723228956573 125.41583722550422,152.0 117.08582165744156,157.03498819912784 114.30914980079979,181.45457409857772 121.94499740563333,188.0 129.8122343318537,182.20981619879603 132.35751686617732,159.04898137017153 125.18444790504873,152.0 116.85443233512342,158.0419849352911 114.30914980079979,181.7063214846421 121.94499740563333,188.0 129.8122343318537,182.46156352804974 132.35751686617732,158.2937340727076 124.95305858366191,152.0 116.85443233512342,158.0419849352911 114.30914980079979,181.20282669458538 117.31721097882837,186.23777120211162 123.56472265534103,187.74825308588333 129.8122343318537,182.20981619879603 132.35751686617732,158.54548319033347 124.49027994088829,152.0 116.85443233512342,158.0419849352911 114.30914980079979,180.95107927243225 121.25082944147289,188.0 129.58084501046687,182.96505812904797 132.58890618756413,159.8042284976691 126.11000518966466,152.25174958934076 117.31721097882837,156.7832389685791 114.30914980079979,180.95107927243225 119.63110419176519,187.49650615244173 129.58084501046687,182.96505812904797 132.58890618756413,159.30073043168522 126.57278383243829,152.25174958934076 117.77998962067068,155.77624185592867 114.07776047848165,180.19583688979037 117.08582165744156,186.23777120211162 123.33333333302289,188.0 128.88667704630643,184.22379430336878 132.58890618756413,160.81122440565377 127.96111976075917,152.75524870981462 119.16832554899156,154.01399618387222 115.23470708634704,183.72029989003204 120.09388283453882,187.74825308588333 126.3413945119828,186.74126523872837 130.96918093878776,174.65738757350482" stroke="#4dd2ff" stroke-linecap="round" stroke-linejoin="round" stroke-width="0.5"><title>2024-03-30 4.8km</title><desc>1711782999000</desc></polyline><polyline fill="none" points="159.64571983925998,166.6939253672026 161.22137116640806,183.3469610530883 165.94832515437156,187.2653100802563 173.15130265709013,186.77551670838147 178.5535357836634,179.67350458097644 178.10334969032556,154.69389125495218 167.2988834362477,152.7346978345886 161.44646421447396,159.34697092790157 161.44646421447396,182.61227008863352 167.74906952958554,188.0 174.72695398516953,186.28572326269932 178.7786288317293,179.67350458097644 180.3542801598087,161.3061603908427 177.87825664319098,154.20409300969914 169.99999999906868,152.0 164.5977668715641,155.42858848464675 160.54609202593565,179.1837100731209 162.7970224963501,184.81634248793125 169.32472085859627,188.0 178.5535357836634,181.38778478093445 179.4539079722017,156.65308350254782 169.77490695286542,152.48979857494123 161.8966503078118,159.591869674623 161.8966503078118,184.57144562760368 170.45018609333783,187.75510337855667 176.977884455584,183.83675493765622 179.90409406553954,161.55105899111368 178.32844273746014,155.42858848464675 173.37639570329338,152.2448992971331 163.24720858968794,156.4081845358014 160.32099897880107,180.65309337619692 165.94832515437156,187.2653100802563 176.7527914084494,183.3469610530883 179.90409406553954,161.3061603908427 175.1771400794387,153.4693955045659 163.24720858968794,153.4693955045659" stroke="#4dd2ff" stroke-linecap="round" stroke-linejoin="round" stroke-width="0.5"><title>2024-03-28 2.0km</title><desc>1711615120000</desc></polyline><polyline fill="none" points="20.900616640225053,207.30005265027285 18.625770799815655,207.750053020427 20.900616640225053,209.55005382816307 18.418966632336378,208.42505344958045 20.900616640225053,209.10005372739397 21.521029142662883,223.27502456586808 26.070720822550356,227.32500396389514 33.30886667780578,227.55000265920535 39.51299169566482,219.90003756829537 40.54701253119856,196.2750225465279 35.58371251728386,192.45000265957788 29.379587499424815,192.45000265957788 22.14144164416939,200.55003901640885 20.693812472745776,221.02503365511075 28.55237083043903,228.0 38.47897085919976,222.15002932073548 40.34020836558193,198.52503197267652 37.238145855255425,193.12500652228482 32.27484584134072,192.0 22.96865831222385,198.30003110552207 21.521029142662883,219.22503971401602 24.41628748457879,224.85001720208675 29.58639166597277,226.87500652275048 37.444950023666024,222.15002932073548 39.51299169566482,200.32503830105998 32.27484584134072,193.35000777663663 24.002679149620235,198.52503197267652 22.55504997819662,220.8000344708562 30.0,226.87500652275048 38.06536252424121,220.8000344708562 39.306187528185546,197.8500293213874 31.861237506382167,192.90000525140204 24.002679149620235,199.20003447169438 22.348245810717344,220.12503681937233 28.759174996986985,226.87500652275048 37.858558357693255,220.8000344708562 39.306187528185546,199.42503527132794 31.034020837396383,192.45000265957788 24.20948331616819,198.52503197267652 21.934637476690114,220.12503681937233 29.17278333194554,226.87500652275048 38.272166691720486,220.8000344708562 39.926600030623376,199.42503527132794 32.68845417536795,192.90000525140204 24.41628748457879,198.30003110552207 22.14144164416939,219.90003756829537 23.58907081466168,224.62501830467954 28.759174996986985,226.4250090138521 38.06536252424121,221.47503197169863 39.926600030623376,200.77503971522674 32.89525834284723,193.8000102341175 24.20948331616819,198.0750302216038 22.14144164416939,220.8000344708562 29.58639166597277,226.65000777621754 38.06536252424121,221.02503365511075 39.7197958631441,198.52503197267652 32.068041673861444,193.35000777663663 24.20948331616819,199.20003447169438 22.14144164416939,220.35003605415113 29.58639166597277,226.87500652275048 36.20412501972169,225.97501143696718 39.306187528185546,221.70003110496327 41.581033368594944,200.10003756918013" stroke="#4dd2ff" stroke-linecap="round" stroke-linejoin="round" stroke-width="0.5"><title>2024-03-26 3.7km</title><desc>1711445960000</desc></polyline><polyline fill="none" points="66.96065484266728,219.60003613168374 74.90193724445999,228.0 84.38735788874328,222.4800262216013 86.1520873112604,198.24002894153818 81.29908140003681,192.0 69.82834015507251,196.08002029685304 66.74006366636604,218.88003820506856 68.72538426611573,224.40001817792654 75.56371077802032,227.7600013371557 83.94617553241551,222.96002431795932 86.59326966572553,199.44003311591223 82.18144611082971,192.2400013373699 70.49011368863285,197.04002431873232 67.62242837715894,210.96005035145208 70.26952251046896,224.40001817792654 76.00489313248545,227.04000524268486 81.29908140003681,224.88001598790288 85.93149613309652,200.8800375328865 82.18144611082971,193.92001019744202 75.78430195525289,193.20000650780275 71.37247839942575,196.80002334038727 68.50479308795184,217.92004071897827 73.35779899917543,226.32000898616388 82.4020372889936,223.44002234353684 85.93149613309652,199.92003465956077 80.85789904370904,192.96000524237752 71.37247839942575,197.04002431873232 68.50479308795184,218.40003949822858 73.57839017733932,226.32000898616388 82.18144611082971,223.44002234353684 84.38735788874328,195.60001817787997 76.88725784327835,192.48000265681185 70.71070486493409,198.7200306651648 68.72538426611573,221.28003066475503 72.6960254656151,225.84001139178872 78.87257844395936,226.08001019759104" stroke="#4dd2ff" stroke-linecap="round" stroke-linejoin="round" stroke-width="0.5"><title>2024-03-25 2.1km</title><desc>1711359274000</desc></polyline><polyline fill="none" points="127.89362967386842,224.53847979404964 132.13576580397785,201.00003938702866 127.25730925425887,193.61539361812174 116.2277553146705,198.46156939771026 113.89458044338971,218.07696501840837 120.25778463948518,226.61539238411933 129.59048412553966,222.92310236906633 132.13576580397785,201.00003938702866 125.98466841503978,193.84616406611167 116.2277553146705,198.6923394834157 113.89458044338971,219.46157646668144 120.68199825193733,226.61539238411933 129.80259093269706,222.23079749941826 132.13576580397785,200.0769596323371 125.7725616088137,193.84616406611167 116.2277553146705,198.46156939771026 114.10668725054711,219.69234498101287 116.01564850937575,224.53847979404964 121.95463909115642,226.84616036294028 130.01469773892313,221.30772409797646 132.13576580397785,201.46157916006632 126.62098883464932,193.84616406611167 116.2277553146705,197.53848888352513 114.10668725054711,219.69234498101287 120.68199825193733,227.07692832523026 129.3783773202449,222.69233409664594 132.13576580397785,201.00003938702866 126.19677522219718,193.384623153368 116.4398621218279,197.30771871237084 113.89458044338971,220.1538819577545 116.01564850937575,224.76924792909995 122.37885270360857,227.30769627005793 130.2268045451492,221.07695570518263 131.92365899775177,199.84618965047412 125.34834799543023,193.384623153368 119.40935741271824,194.53847530600615 115.80354170221835,199.15387960150838 114.31879405677319,221.30772409797646 122.59095951076597,226.84616036294028 130.4389113523066,220.38465042086318 131.92365899775177,200.0769596323371 125.7725616088137,193.384623153368 116.01564850937575,199.15387960150838 114.10668725054711,220.61541886557825 121.53042547870427,226.61539238411933 129.59048412553966,222.23079749941826 131.92365899775177,199.84618965047412 124.49992076959461,193.384623153368 115.80354170221835,198.9231095511932 114.31879405677319,220.84618729376234 121.53042547870427,227.07692832523026 130.01469773892313,222.23079749941826 132.13576580397785,200.0769596323371 128.52995009347796,194.07693449687213 116.6519689289853,197.30771871237084 114.10668725054711,218.30773363588378 119.19725060649216,226.61539238411933 129.3783773202449,223.15387062425725 132.13576580397785,200.53849954390898 125.56045480258763,193.61539361812174 116.2277553146705,198.00002917530946 114.10668725054711,219.92311347764917 120.04567783232778,226.38462438760325 129.1662705130875,223.84617528691888 132.34787261113524,201.2308092820458 128.10573648102582,194.07693449687213 121.53042547870427,193.384623153368 116.4398621218279,198.00002917530946 112.62193960417062,218.07696501840837 114.31879405677319,224.30771164270118 120.25778463948518,228.0 125.7725616088137,227.76923210755922 130.86312496475875,222.92310236906633 134.0447270628065,201.69234902062453 128.3178432872519,192.46154112019576 121.31831867154688,192.0 115.1672212826088,197.07694852352142 112.62193960417062,219.23080793465488 119.19725060649216,227.30769627005793 130.2268045451492,225.46155222924426" stroke="#4dd2ff" stroke-linecap="round" stroke-linejoin="round" stroke-width="0.5"><title>2024-03-24 4.9km</title><desc>1711273464000</desc></polyline><polyline fill="none" points="159.85010259784758,218.06139355921187 161.67708413023502,224.466277098516 166.75203283131123,227.77914244239219 172.6389733236283,226.67485440778546 177.51092407666147,221.81598214665428 179.54090355709195,198.6257998328656 177.91691997181624,194.65032171760686 171.82698153238744,192.66258065239526 165.12804924603552,194.2086015965324 161.47408618219197,198.84665957163088 160.256098494865,220.93254996743053 164.1130595067516,226.01228138851002 171.01498973928392,227.55828486848623 178.32291586883366,219.3865430173464 178.5259138159454,195.75462173088454 171.2179876882583,192.66258065239526 163.70706361159682,195.09204177302308 160.66209439001977,200.39267727709375 159.44410670176148,219.82825937122107 165.94004103913903,228.0 173.04496922064573,226.67485440778546 177.3079261276871,222.03684014989994 180.75889124441892,201.71783466567285 178.1199179207906,194.65032171760686 172.43597537558526,192.44172045146115 163.91006155870855,195.09204177302308 160.86509233899415,199.9509580146987 160.66209439001977,223.80370358354412 166.54903488326818,228.0 172.43597537558526,227.55828486848623 178.5259138159454,219.3865430173464 178.5259138159454,195.75462173088454 168.7820123117417,192.0 161.06809028610587,199.73009835928679 159.64710465073586,220.71169188059866 163.50406566262245,226.45399675075896 170.0,227.33742727781646 178.32291586883366,219.6074012031313 179.13490766100585,196.85892133158632 175.88694049231708,193.1043010049034 168.98501025885344,192.44172045146115 160.86509233899415,200.1718176540453 160.05310054589063,222.47855610772967 171.01498973928392,227.11656967108138 178.1199179207906,219.6074012031313 178.1199179207906,195.75462173088454 170.40599589515477,192.2208602342289 161.47408618219197,197.3006410561502 159.24110875464976,221.1534080368001 163.30106771364808,226.2331390781328 171.01498973928392,227.55828486848623 178.1199179207906,220.04911752347834 177.71392202470452,194.42946166568436 169.79700205102563,192.2208602342289 164.1130595067516,195.09204177302308 159.64710465073586,211.65649612457491 162.28607797436416,225.12885046424344 174.87195075210184,225.7914236818906 179.743901505135,201.05525604612194 175.27794664818794,193.32516115601175 163.91006155870855,195.09204177302308 159.64710465073586,216.9571018887218 161.06809028610587,224.466277098516 166.34603693522513,227.11656967108138 176.49593433644623,223.36198782431893 179.94689945224673,201.49697514227591 177.10492818057537,194.42946166568436 163.70706361159682,194.42946166568436 160.256098494865,207.01845827442594 161.67708413023502,224.466277098516 167.76702257152647,227.55828486848623 175.0749487001449,225.34970822022296 178.32291586883366,220.26997565990314 179.94689945224673,201.71783466567285 176.90193023253232,194.42946166568436 166.95503077935427,192.88344083703123 160.86509233899415,200.1718176540453 159.85010259784758,222.03684014989994 165.53404514305294,227.11656967108138 172.43597537558526,226.2331390781328 177.10492818057537,214.5276587617118 176.0899384394288,195.75462173088454 169.79700205102563,193.76688140979968 163.30106771364808,196.85892133158632 159.44410670176148,210.77306090574712" stroke="#4dd2ff" stroke-linecap="round" stroke-linejoin="round" stroke-width="0.5"><title>2024-03-22 5.0km</title><desc>1711100044000</desc></polyline><polyline fill="none" points="19.03937257360667,245.5000504956115 22.76184981316328,264.62501830467954 28.965978544205427,267.7750013382174 35.170107276178896,265.9750114369672 39.30619309749454,261.25003282143734 40.75382313504815,250.90005372674204 38.06536735128611,235.6000193899963 29.586391417309642,232.67500396375544 23.58906697668135,240.32503830082715 22.76184981316328,261.9250302207656 27.725152797996998,267.1000052515883 33.72247723862529,267.1000052515883 38.68578022439033,260.1250368193723 38.478975932113826,238.52503197221085 31.654434328898787,233.5750090132933 23.79587126802653,240.32503830082715 22.76184981316328,261.25003282143734 26.48432705178857,266.2000102335587 32.0680429097265,267.3250039643608 38.06536735128611,259.22503971424885 38.892584514804184,237.85002932092175 33.10206436458975,232.9000052518677 23.79587126802653,238.30003110552207 21.934632647782564,259.9000375682954 30.413608581759036,266.65000777645037 35.79052014928311,265.5250137934927 39.5129973879084,259.22503971424885 39.71980167925358,236.27502254606225 37.2381501859054,232.9000052518677 29.379587126895785,232.0 22.348241230472922,238.75003282213584 21.107415485195816,261.0250336548779 30.413608581759036,268.0 38.892584514804184,259.6750383002218 40.96062742546201,239.875036819838 37.85856305900961,232.22500133840367 25.03669701423496,234.02501143701375 20.073394029401243,256.75004628673196" stroke="#4dd2ff" stroke-linecap="round" stroke-linejoin="round" stroke-width="0.5"><title>2024-03-21 2.2km</title><desc>1711013104000</desc></polyline></svg>