<?xml version="1.0" encoding="utf-8" ?>
<svg baseProfile="full" height="300mm" version="1.1" viewBox="0,0,200,300" width="200mm" xmlns="http://www.w3.org/2000/svg" xmlns:ev="http://www.w3.org/2001/xml-events" xmlns:xlink="http://www.w3.org/1999/xlink"><defs /><rect fill="#222222" height="300" width="200" x="0" y="0" /><text fill="#FFFFFF" style="font-size:12px; font-family:Arial; font-weight:bold;" x="10" y="20">Over 2km Runs</text><text fill="#FFFFFF" style="font-size:4px; font-family:Arial" x="10" y="280">ATHLETE</text><text fill="#FFFFFF" style="font-size:9px; font-family:Arial" x="10" y="290">作怪</text><text fill="#FFFFFF" style="font-size:4px; font-family:Arial" x="120" y="280">STATISTICS</text><text fill="#FFFFFF" style="font-size:3px; font-family:Arial" x="120" y="285">Number: 12</text><text fill="#FFFFFF" style="font-size:3px; font-family:Arial" x="120" y="290">Weekly: 3.0</text><text fill="#FFFFFF" style="font-size:3px; font-family:Arial" x="141" y="285">Total: 60.0 km</text><text fill="#FFFFFF" style="font-size:3px; font-family:Arial" x="141" y="290">Avg: 5.0 km</text><text fill="#FFFFFF" style="font-size:3px; font-family:Arial" x="167" y="285">Min: 2.0 km</text><text fill="#FFFFFF" style="font-size:3px; font-family:Arial" x="167" y="290">Max: 11.8 km</text><polyline fill="none" points="27.031378837302327,44.49682665709406 25.75052736327052,76.20005009137094 30.553720388561487,84.21291855024174 39.51968069933355,86.65161491092294 54.249472638592124,77.24520762823522 56.49096271581948,43.10327342292294 43.04202224873006,33.0 29.91329465061426,39.619388511870056 26.070740232244134,75.50327827036381 35.99733914807439,85.95484465267509 47.52500240504742,84.561303823255 53.609046902507544,78.2903649318032 56.81117558479309,45.54199130972847 46.244150932878256,34.045167232863605 36.317552015185356,34.74194525834173 29.593081783503294,41.70971977105364 25.11010162718594,75.15489231934771 38.23882922530174,87.0 53.609046902507544,79.68390763690695 57.771814189851284,50.41942325280979 56.49096271581948,40.316165702883154 50.40691821835935,35.09033423056826 38.23882922530174,33.348389104474336 30.87393325380981,37.18066752329469 22.22818581201136,50.41942325280979 26.070740232244134,75.85166419344023 32.47499759681523,85.25807428965345 44.64308658987284,86.30322979437187 53.28883403353393,78.9871363369748 56.17074984870851,47.98070791969076 48.165428141132,34.045167232863605 38.559042094275355,33.0 29.91329465061426,38.2258338178508 26.070740232244134,75.50327827036381 34.71648767404258,85.95484465267509 46.244150932878256,85.60645948443562 54.56968550570309,75.85166419344023 57.45160132087767,46.93554381467402 52.64840829744935,37.87744507845491 43.362235117703676,33.348389104474336 29.593081783503294,39.27099987724796 25.75052736327052,74.80650634272024 35.036700543016195,85.60645948443562 46.244150932878256,85.25807428965345 54.889898374676704,76.20005009137094 57.13138845190406,46.93554381467402 48.48564101010561,34.045167232863605 32.154784727841616,35.43872317811474 27.351591704413295,44.84521490102634 27.031378837302327,79.33552199974656 42.721809381619096,86.30322979437187 53.609046902507544,76.20005009137094 54.889898374676704,44.84521490102634 50.40691821835935,36.83227870706469 41.44095790758729,34.74194525834173 29.91329465061426,43.800050091929734 27.351591704413295,75.15489231934771 40.4803193025291,85.60645948443562 52.96862116456032,77.24520762823522 55.21011124365032,47.28393187513575 52.007982559502125,38.92261121654883 43.362235117703676,34.74194525834173 29.91329465061426,43.45166177023202 25.75052736327052,75.50327827036381 38.23882922530174,87.0 46.884576668962836,86.30322979437187 50.727131087332964,79.68390763690695 54.889898374676704,46.5871557276696 44.64308658987284,35.43872317811474 36.63776488415897,36.13550099451095 30.23350751772523,43.800050091929734 27.351591704413295,74.10973431309685 38.559042094275355,84.90968906972557 52.007982559502125,78.9871363369748 54.889898374676704,44.84521490102634 44.00266085378826,35.09033423056826 30.553720388561487,43.800050091929734 27.671804573386908,74.80650634272024 38.23882922530174,85.25807428965345 52.32819542847574,76.54843596415594 54.889898374676704,44.84521490102634 42.721809381619096,35.43872317811474 29.91329465061426,44.148438388016075 27.351591704413295,75.15489231934771 40.800532173365355,85.60645948443562 52.007982559502125,77.94197918986902 54.56968550570309,43.800050091929734 43.68244798667729,35.43872317811474 30.23350751772523,42.058108223136514 26.390953101217747,74.80650634272024 36.95797775313258,85.25807428965345 52.007982559502125,78.9871363369748 56.17074984870851,46.5871557276696 44.00266085378826,35.43872317811474 35.677126279100776,36.83227870706469 27.351591704413295,46.2387676150538 24.789888758212328,74.10973431309685" stroke="#4dd2ff" stroke-linecap="round" stroke-linejoin="round" stroke-width="0.5"><title>2024-04-09 5.6km</title><desc>1712653834000</desc></polyline><polyline fill="none" points="85.7968421522528,42.849104495253414 85.17252751998603,74.7736411546357 90.47920188121498,84.28303421335295 97.97097744978964,85.64151730947196 106.71138228103518,83.94341337494552 112.95452858693898,75.79250564938411 115.76394442655146,42.169856595108286 110.45727006532252,35.03774751117453 100.78039328940213,33.0 87.98194335773587,43.18872840679251 85.7968421522528,76.1321270968765 99.84392134286463,86.32075870549306 112.95452858693898,75.79250564938411 115.1396297942847,43.867976155132055 107.64785422571003,34.69812298961915 101.09255060367286,34.01887386967428 87.98194335773587,43.867976155132055 84.54821288958192,74.09439803124405 90.47920188121498,83.60379251278937 99.53176402673125,86.32075870549306 113.26668590307236,75.45288417697884 116.0761017408222,45.226471344707534 104.21412375755608,33.33962464868091 92.35214577242732,35.71699647861533 87.04547141119838,42.50948055787012 85.17252751998603,76.81136991572566 98.59529208019376,85.9811380202882 112.64237127266824,76.81136991572566 115.76394442655146,42.50948055787012 111.39374201186001,36.056620923569426 101.71686523593962,33.33962464868091 87.35762872733176,43.18872840679251 85.17252751998603,77.49061263189651 98.59529208019376,87.0 112.33021395839751,77.49061263189651 115.76394442655146,41.830232607899234 101.40470791980624,33.67924927244894 87.98194335773587,41.49060859461315 84.23605557344854,76.1321270968765 94.84940429590642,87.0 103.27765181101859,85.9811380202882 111.70589932613075,77.49061263189651 115.45178711228073,42.50948055787012 111.39374201186001,36.056620923569426 100.78039328940213,33.33962464868091 87.04547141119838,43.52835229341872 84.8603702057153,77.49061263189651 90.16704456694424,84.62265502498485 98.59529208019376,86.66037936555222 112.33021395839751,77.83023395319469 116.0761017408222,43.52835229341872 112.01805664226413,36.39624534291215 101.40470791980624,33.67924927244894 87.35762872733176,41.49060859461315 83.9238982591778,74.09439803124405 94.22508966550231,85.9811380202882 103.9019664414227,85.9811380202882 111.70589932613075,79.1887189806439 116.38825905695558,49.98120130831376 110.14511274918914,34.69812298961915 91.41567382588983,36.056620923569426 86.42115678265691,44.54722380056046 85.48468483611941,78.50947651686147 92.6643030885607,85.64151730947196 101.40470791980624,86.32075870549306 113.57884321734309,74.4340196067933 115.76394442655146,44.54722380056046 110.76942737959325,36.39624534291215 98.59529208019376,33.33962464868091 87.04547141119838,42.50948055787012 84.23605557344854,76.1321270968765 98.28313476592302,87.0 112.64237127266824,77.49061263189651 115.76394442655146,43.18872840679251 112.33021395839751,37.07549410732463 101.71686523593962,33.0 92.35214577242732,36.39624534291215 86.42115678265691,45.226471344707534 86.73331409692764,75.79250564938411 98.90744939632714,84.28303421335295 110.76942737959325,76.47174851899035 112.95452858693898,43.52835229341872 102.65333718247712,35.03774751117453 86.10899946466088,46.24534247070551 83.61174094304442,72.05666805128567" stroke="#4dd2ff" stroke-linecap="round" stroke-linejoin="round" stroke-width="0.5"><title>2024-04-08 5.0km</title><desc>1712568268000</desc></polyline><polyline fill="none" points="144.62289853394032,52.877377193188295 147.9723661802709,78.38654720503837 156.19378676638007,83.0245623306837 166.24218970164657,80.37426856788807 172.9411249924451,71.76080288621597 172.02763381786644,37.63806265871972 158.02076911740005,33.0 146.75437794439495,44.926437022630125 146.1453838273883,78.05526022519916 153.75781029462814,84.0184220818337 166.85118382051587,82.3619890389964 172.33213087543845,72.75466516637243 172.63662793673575,37.969352663261816 155.58479264751077,34.32516125566326 146.1453838273883,48.90190889197402 145.84088676981628,77.06139913480729 154.67130147106946,83.68713552318513 166.24218970164657,82.3619890389964 172.9411249924451,72.75466516637243 172.33213087543845,37.306772629963234 156.19378676638007,34.32516125566326 147.0588750038296,43.93256849749014 144.92739559337497,75.40496348892339 158.32526617497206,85.01228161109611 172.02763381786644,74.7423890568316 174.15911322832108,43.601278939982876 168.9826632309705,35.31903193681501 160.76124264486134,33.662580678006634 152.23532500118017,35.98161226720549 147.66786912083626,43.26998935663141 145.84088676981628,76.39882495021448 151.32183382473886,83.0245623306837 163.19721911475062,83.68713552318513 172.33213087543845,74.7423890568316 173.24562205187976,40.28838199726306 162.89272205717862,33.331290350994095 147.9723661802709,42.27612045966089 145.23189265094697,74.7423890568316 150.4083426501602,82.3619890389964 158.02076911740005,84.0184220818337 171.72313676029444,76.73011205531657 174.76810734719038,44.926437022630125 170.50514852441847,36.97548257675953 160.15224852785468,34.32516125566326 150.7128397077322,38.96322252671234 146.44988088682294,47.24546271376312 145.84088676981628,79.71169487992302 150.7128397077322,85.01228161109611 161.37023676373065,85.34356807149015 171.72313676029444,74.41110180388205 174.76810734719038,42.93869974906556 161.065739704296,33.99387097870931 147.9723661802709,42.607410117052495 144.31840147450566,76.06753782136366 154.9757985305041,86.6687136637047 171.72313676029444,75.0736762851011 174.46361028775573,43.601278939982876 168.67816617153585,34.987741734599695 160.76124264486134,33.662580678006634 147.36337206326425,43.26998935663141 145.53638971038163,76.06753782136366 159.54325441084802,84.34970861650072 171.72313676029444,73.74852722301148 174.15911322832108,41.28225134056993 161.065739704296,34.32516125566326 147.36337206326425,43.93256849749014 145.23189265094697,74.7423890568316 151.32183382473886,82.3619890389964 160.45674558728933,84.34970861650072 172.02763381786644,73.74852722301148 174.15911322832108,41.28225134056993 168.67816617153585,35.31903193681501 157.10727794282138,34.32516125566326 146.1453838273883,48.23933049524203 145.23189265094697,79.38040799810551 150.4083426501602,85.34356807149015 162.89272205717862,84.68099512625486 172.33213087543845,72.75466516637243 172.63662793673575,38.63193259644322 158.93426029384136,33.0 147.0588750038296,43.93256849749014 145.23189265094697,75.0736762851011 154.0623073540628,83.68713552318513 162.89272205717862,83.35584893869236 172.63662793673575,72.4233777653426 174.15911322832108,41.94483077782206 168.9826632309705,35.31903193681501 158.6297632344067,33.99387097870931 146.75437794439495,44.926437022630125 146.44988088682294,77.3926861891523 154.9757985305041,85.01228161109611 166.24218970164657,83.35584893869236 173.55011911131442,64.14118466596119 170.50514852441847,38.96322252671234 153.14881617762148,36.64419249794446 144.92739559337497,55.19639872061089 146.1453838273883,81.69941564719193 153.14881617762148,86.33742730342783 164.7197044081986,84.0184220818337 172.63662793673575,72.09209033800289 175.0726044047624,45.920305324718356 172.02763381786644,37.63806265871972 161.37023676373065,34.32516125566326 152.23532500118017,36.97548257675953 144.92739559337497,54.865110005484894 146.1453838273883,81.69941564719193 152.84431911818683,86.00614091707394 165.02420146763325,83.68713552318513 172.63662793673575,72.09209033800289 172.33213087543845,38.63193259644322 156.49828382395208,33.99387097870931 146.44988088682294,47.576751998858526 147.0588750038296,78.38654720503837 156.49828382395208,86.00614091707394 167.15568087808788,85.34356807149015 172.9411249924451,77.3926861891523 173.24562205187976,39.95709216641262 155.28029558993876,33.99387097870931 145.84088676981628,46.58288406860083 144.31840147450566,77.72397321974859 149.19035441428423,85.01228161109611 159.84775147028267,86.6687136637047 172.63662793673575,74.07981452532113 173.85461617074907,40.950961583992466 156.8027808815241,34.32516125566326 145.53638971038163,47.90804125973955 144.62289853394032,79.71169487992302 150.4083426501602,85.67485450673848 160.15224852785468,86.33742730342783 169.2871602885425,81.69941564719193 173.55011911131442,73.08595254342072 174.76810734719038,40.950961583992466 158.02076911740005,33.662580678006634 145.84088676981628,45.25772648118436 144.62289853394032,78.38654720503837 150.10384559072554,84.68099512625486 161.37023676373065,87.0 172.33213087543845,78.05526022519916 174.76810734719038,42.27612045966089 170.50514852441847,36.31290239468217 158.93426029384136,33.662580678006634 146.75437794439495,43.26998935663141 143.404910299927,75.40496348892339 147.36337206326425,82.693275696598 156.19378676638007,86.33742730342783 171.72313676029444,78.05526022519916 175.0726044047624,44.926437022630125 161.67473382130265,33.662580678006634 147.9723661802709,42.27612045966089 144.62289853394032,74.7423890568316 159.23875735141337,86.33742730342783 172.9411249924451,78.38654720503837 175.9860955812037,46.58288406860083 170.20065146498382,37.306772629963234 161.67473382130265,34.32516125566326 147.36337206326425,43.26998935663141 144.31840147450566,75.73625066783279 148.88585735484958,83.0245623306837 159.23875735141337,86.33742730342783 173.24562205187976,76.39882495021448 175.37710146419704,46.58288406860083 171.41863970085979,38.63193259644322 161.065739704296,33.662580678006634 147.0588750038296,43.601278939982876 144.92739559337497,76.73011205531657 149.7993485312909,83.35584893869236 159.23875735141337,86.00614091707394 172.02763381786644,77.72397321974859 174.76810734719038,45.25772648118436 160.76124264486134,34.32516125566326 147.0588750038296,44.926437022630125 144.62289853394032,77.06139913480729 159.84775147028267,85.34356807149015 172.63662793673575,75.73625066783279 175.37710146419704,44.26385803055018 159.84775147028267,33.99387097870931 146.75437794439495,44.926437022630125 144.92739559337497,75.73625066783279 159.54325441084802,85.34356807149015 172.33213087543845,76.39882495021448 174.46361028775573,43.93256849749014 168.0691720545292,35.650322115048766 159.23875735141337,34.32516125566326 147.36337206326425,45.58901591482572 144.31840147450566,76.06753782136366 157.7162720579654,86.33742730342783 172.33213087543845,79.04912109230645 176.59508969821036,46.91417340398766 171.11414264142513,36.64419249794446 153.75781029462814,35.650322115048766 146.75437794439495,45.920305324718356 144.92739559337497,71.76080288621597" stroke="#4dd2ff" stroke-linecap="round" stroke-linejoin="round" stroke-width="0.5"><title>2024-04-06 11.8km</title><desc>1712394949000</desc></polyline><polyline fill="none" points="27.10831068456173,140.33769597951323 39.03312330134213,147.0 50.31335145235062,137.53251250600442 54.1808582469821,107.0260338340886 50.31335145235062,96.85716348839924 38.388538835570216,94.05195399327204 30.653525246307254,99.31172041967511 26.14143398590386,130.87019502883777 34.521032040938735,144.19482051441446 50.31335145235062,138.58445650478825 54.503150479868054,105.27278190059587 48.379598055034876,96.50651239277795 37.7439543697983,95.45455895084888 30.331233013421297,101.06497458275408 26.46372622065246,133.67538248933852 34.84332427382469,144.5454680416733 49.346474753692746,139.98704813653603 53.53627377934754,105.97408275213093 46.445844657719135,95.80521012516692 36.13249320536852,95.80521012516692 30.00894078053534,102.11692676693201 26.46372622065246,132.62343738833442 33.23186310939491,143.84417296014726 49.6687669865787,139.63640026841313 53.85856601409614,105.97408275213093 44.512091260403395,95.10390775091946 29.686648547649384,101.41562533704564 25.496849520131946,135.77927198354155 37.421662136912346,145.24676301842555 50.63564368523657,137.18186445347965 54.1808582469821,106.32473313855007 49.991059217602015,97.90911661600694 41.93375339731574,94.40260527236387 28.719771848991513,102.46757744112983 25.496849520131946,133.3247341485694 36.13249320536852,144.89611554332078 50.957935916259885,136.8312163753435 53.85856601409614,105.62343233963475 41.611461164429784,94.40260527236387 29.364356316626072,102.11692676693201 26.46372622065246,134.37667909171432 37.421662136912346,145.24676301842555 50.957935916259885,136.8312163753435 53.53627377934754,103.51952931005508 40.64458446577191,94.75325652491301 29.364356316626072,102.46757744112983 26.786018451675773,135.42862379923463 39.35541553422809,144.89611554332078 51.60252038389444,136.12992013944313 54.1808582469821,104.57148094289005 42.57833786122501,94.75325652491301 28.719771848991513,103.51952931005508 26.46372622065246,135.42862379923463 38.06624660268426,145.24676301842555 51.28022815100849,137.18186445347965 54.1808582469821,104.92213143454865 41.28916893154383,94.75325652491301 28.719771848991513,103.51952931005508 26.14143398590386,135.42862379923463 39.35541553422809,145.24676301842555 50.957935916259885,137.18186445347965 53.85856601409614,104.92213143454865 42.90063009597361,94.40260527236387 29.04206408187747,102.11692676693201 26.46372622065246,134.02603080309927 36.77707767300308,144.89611554332078 46.12355242483318,143.14287777384743 51.28022815100849,136.8312163753435 54.1808582469821,103.87017988041043 42.57833786122501,94.40260527236387 29.686648547649384,101.76627606526017 26.14143398590386,134.02603080309927 35.81020097434521,144.89611554332078 50.63564368523657,138.23380853189155 53.85856601409614,105.27278190059587 43.545214561745524,93.70130268903449 30.00894078053534,101.06497458275408 26.14143398590386,134.37667909171432 37.09936990402639,144.89611554332078 47.09042912349105,142.79223014134914 51.924812614917755,135.77927198354155 53.21398154832423,103.16887871362269 40.32229223288596,94.05195399327204 28.719771848991513,102.81822809064761 26.46372622065246,136.480568270199 38.388538835570216,145.24676301842555 51.28022815100849,136.12992013944313 53.85856601409614,104.92213143454865 41.611461164429784,94.40260527236387 28.3974796179682,104.22083042562008 26.46372622065246,134.37667909171432 38.06624660268426,144.89611554332078 50.957935916259885,137.53251250600442 53.85856601409614,105.27278190059587 40.64458446577191,94.40260527236387 29.04206408187747,103.16887871362269 26.46372622065246,135.77927198354155 34.19873980805278,144.5454680416733 50.31335145235062,138.58445650478825 54.503150479868054,105.62343233963475 41.611461164429784,94.05195399327204 29.686648547649384,101.76627606526017 27.10831068456173,135.07797558931634 39.35541553422809,145.24676301842555 51.28022815100849,136.12992013944313 54.1808582469821,105.27278190059587 48.057305820286274,96.15586127247661 40.32229223288596,94.05195399327204 29.364356316626072,103.16887871362269 26.46372622065246,134.727327354718 39.35541553422809,145.24676301842555 50.957935916259885,138.58445650478825 53.85856601409614,104.22083042562008 41.611461164429784,93.35065135732293 30.331233013421297,99.6623713048175 26.46372622065246,134.727327354718 30.97581747919321,142.44158248323947 39.67770776711404,145.24676301842555 51.924812614917755,135.42862379923463 53.85856601409614,104.22083042562008 47.73501358926296,95.45455895084888 39.35541553422809,93.70130268903449 29.364356316626072,102.11692676693201 26.786018451675773,135.77927198354155 40.64458446577191,145.94805788993835 51.28022815100849,137.53251250600442 53.53627377934754,104.22083042562008 40.96687669865787,93.0 29.04206408187747,102.11692676693201 26.14143398590386,133.67538248933852 36.13249320536852,144.89611554332078 50.957935916259885,137.8831605319865 53.53627377934754,104.57148094289005 42.57833786122501,94.05195399327204 34.19873980805278,95.10390775091946 29.04206408187747,103.51952931005508 26.46372622065246,134.727327354718 38.71083107031882,145.24676301842555 51.60252038389444,136.8312163753435 53.53627377934754,105.27278190059587 41.93375339731574,93.70130268903449 29.04206408187747,103.16887871362269 26.786018451675773,136.12992013944313 38.388538835570216,145.94805788993835 51.28022815100849,136.8312163753435 53.53627377934754,103.16887871362269 48.379598055034876,96.15586127247661 38.388538835570216,94.05195399327204 29.04206408187747,103.16887871362269 27.10831068456173,136.12992013944313 40.32229223288596,145.24676301842555 51.60252038389444,135.07797558931634 53.85856601409614,103.51952931005508 39.67770776711404,93.70130268903449 30.653525246307254,100.01302216295153 25.819141753017902,111.9351357598789 25.496849520131946,138.93510445207357" stroke="#4dd2ff" stroke-linecap="round" stroke-linejoin="round" stroke-width="0.5"><title>2024-04-03 9.7km</title><desc>1712137473000</desc></polyline><polyline fill="none" points="80.69827844202518,125.82360307639465 89.45704284496605,124.05889904126525 86.2130560297519,133.5882929833606 93.34982702508569,144.5294252568856 109.89415979012847,144.5294252568856 119.30172155797482,109.94124300638214 114.11134265176952,95.11765870265663 101.78419275023043,93.0 93.02542834356427,97.94120216043666 89.13264416530728,133.2353528109379 93.67422570846975,145.23530388670042 105.02817956544459,145.23530388670042 113.46254528872669,139.23533216351643 117.0309307873249,106.7647645752877 109.24536242708564,96.17648769775406 93.34982702508569,102.52945667644963 89.13264416530728,136.0588734569028 99.18900329619646,145.94118241174147 113.46254528872669,138.5294526363723 116.38213342241943,106.41182239633054 107.29897033795714,95.11765870265663 93.02542834356427,102.52945667644963 89.45704284496605,137.11769326310605 100.48659802228212,146.64706083061174 113.46254528872669,138.88239241344854 117.0309307873249,106.05888019036502 108.27216638252139,95.82354472531006 99.18900329619646,96.88237356115133 92.37663098052144,103.94122639810666 88.80824548378587,136.0588734569028 99.51340197771788,147.0 113.13814660720527,138.88239241344854 116.70653210580349,105.0000534132123 108.27216638252139,95.82354472531006 92.37663098052144,103.58828400727361 88.80824548378587,134.29417325137183 93.02542834356427,143.4706071135588 102.1085914298892,146.64706083061174 114.43574133329093,137.47063314635307 116.70653210580349,105.35299569834024 107.94776769913733,95.47060172725469 100.81099670380354,95.47060172725469 92.37663098052144,103.23534158989787 88.80824548378587,134.6471133446321 98.54020593315363,146.64706083061174 112.81374792568386,140.29415125772357 117.0309307873249,106.7647645752877 110.5429571531713,96.17648769775406 102.1085914298892,95.82354472531006 92.7010296639055,103.23534158989787 89.13264416530728,135.3529934543185 96.59381384216249,145.58824316272512 113.46254528872669,143.82354652089998" stroke="#4dd2ff" stroke-linecap="round" stroke-linejoin="round" stroke-width="0.5"><title>2024-04-02 3.0km</title><desc>1712049520000</desc></polyline><polyline fill="none" points="149.2403965573758,109.9930692827329 147.15789266489446,139.44758719345555 153.40540434233844,145.86713879927993 162.77667185664177,146.24475922854617 169.7183514982462,138.31472429819405 173.1891913190484,100.93010611692443 161.38833593018353,93.0 150.28164850361645,102.06297740293667 146.81080868281424,138.31472429819405 152.711236378178,145.48951834300533 162.4295878764242,146.24475922854617 169.7183514982462,137.937103276141 173.1891913190484,101.30772990733385 161.7354199104011,93.0 150.28164850361645,101.68535366887227 146.46372470073402,137.18186114775017 158.61166407354176,147.0 169.7183514982462,138.69234529184178 173.53627530112863,102.81822478538379 163.123755838722,93.0 150.28164850361645,101.68535366887227 146.46372470073402,137.5594822266139 157.5704121273011,147.0 169.37126751616597,139.44758719345555 173.53627530112863,103.19584843423218 163.47083982266486,93.0 150.28164850361645,101.30772990733385 146.46372470073402,137.18186114775017 156.87624416314065,147.0 169.37126751616597,139.44758719345555 173.8833592813462,103.95109564717859 164.51209176890552,93.37762438412756 150.62873248569667,100.55248229857534 146.46372470073402,136.42661890853196 157.5704121273011,147.0 169.37126751616597,139.44758719345555 173.53627530112863,103.19584843423218 163.123755838722,93.0 150.62873248569667,100.55248229857534 146.46372470073402,137.18186114775017 157.91749610938132,147.0 169.7183514982462,138.31472429819405 173.53627530112863,103.57347205514088 162.77667185664177,93.0 150.28164850361645,102.06297740293667 146.46372470073402,137.5594822266139 157.91749610938132,147.0 169.7183514982462,138.69234529184178 173.53627530112863,102.44060110859573 162.4295878764242,93.0 150.28164850361645,102.06297740293667 146.46372470073402,136.80424004187807 150.9758164677769,144.35665680328384 160.34708398394287,146.62237962847576 169.7183514982462,138.31472429819405 173.53627530112863,102.81822478538379 161.7354199104011,93.0 150.28164850361645,102.06297740293667 146.46372470073402,136.42661890853196 156.87624416314065,147.0 169.37126751616597,139.44758719345555 173.8833592813462,104.70634274650365 164.16500778496265,93.37762438412756 150.9758164677769,100.17485845275223 146.46372470073402,136.42661890853196 154.4466562885791,146.24475922854617 169.37126751616597,139.44758719345555 173.8833592813462,103.95109564717859 164.8591757491231,93.37762438412756 151.66998443193734,98.66436278354377 146.1166407186538,135.29375533480197 150.62873248569667,144.35665680328384 160.0,147.0 168.3300155699253,141.33569145482033 173.8833592813462,106.21683660848066 166.94167964160442,94.13287306483835 153.75248832441866,96.02099427580833 147.8520606290549,140.58044983493164 155.14082425273955,146.62237962847576 164.51209176890552,145.11189785785973 171.4537714086473,126.98608135990798" stroke="#4dd2ff" stroke-linecap="round" stroke-linejoin="round" stroke-width="0.5"><title>2024-03-30 4.8km</title><desc>1711782999000</desc></polyline><polyline fill="none" points="24.468579759821296,175.04088805057108 26.832056751474738,200.02044157963246 33.922487732023,205.8979651206173 44.726953987032175,205.1632750625722 52.83030367642641,194.51025687111542 52.155024535954,157.0408368827775 35.94832515530288,154.10204675188288 27.169696321710944,164.02045639185235 27.169696321710944,198.91840513283387 36.623604295775294,207.0 47.09043097868562,204.4285848941654 53.16794324852526,194.51025687111542 55.53142024204135,166.9592405864969 51.81738496571779,156.30613951478153 40.0,153.0 31.89665030874312,158.14288272708654 25.819138038903475,193.77556510968134 29.195533744990826,202.22451373189688 38.98708128929138,207.0 52.83030367642641,197.08167717140168 54.18086195923388,159.97962525347248 39.662360429763794,153.73469786252826 27.844975462183356,164.38780451193452 27.844975462183356,201.85716844163835 40.67527914047241,206.632655067835 50.46682668291032,200.75513240648434 54.85614109970629,167.32658848678693 52.492664106190205,158.14288272708654 45.064593555405736,153.36734894569963 29.870812885463238,159.61227680370212 25.48149846866727,195.97964006429538 33.922487732023,205.8979651206173 50.12918711267412,200.02044157963246 54.85614109970629,166.9592405864969 47.765710121020675,155.20409325696528 29.870812885463238,155.20409325696528" stroke="#4dd2ff" stroke-linecap="round" stroke-linejoin="round" stroke-width="0.5"><title>2024-03-28 2.0km</title><desc>1711615120000</desc></polyline><polyline fill="none" points="86.3509249612689,175.95007897517644 82.93865619972348,176.6250795305241 86.3509249612689,179.32508074236102 82.62844994850457,177.63758017402142 86.3509249612689,178.65008059120737 87.281543713063,199.91253684880212 94.1060812342912,205.9875059458427 104.96330001577735,206.32500398880802 114.26948754303157,194.85005635209382 115.8205187972635,159.41253381967545 108.37556877732277,153.67500398936681 99.0693812482059,153.67500398936681 88.21216246671975,165.82505852449685 86.04071870818734,196.5375504824333 97.82855624519289,207.0 112.71845628879964,198.2250439808704 115.51031254790723,162.78754795901477 110.8572187833488,154.68750978331082 103.41226876154542,153.0 89.45298746973276,162.45004665805027 87.281543713063,193.83755957102403 91.62443122640252,202.27502580313012 99.37958749942482,205.31250978377648 111.16742503456771,198.2250439808704 114.26948754303157,165.48755745147355 103.41226876154542,155.02501166495495 91.00401872396469,162.78754795901477 88.83257496729493,196.20005170628428 100.0,205.31250978377648 112.09804378636181,196.20005170628428 113.9592812936753,161.77504398208112 102.79185625910759,154.35000787721947 91.00401872396469,163.80005170730874 88.52236871607602,195.18755522882566 98.1387624964118,205.31250978377648 111.78783753700554,196.20005170628428 113.9592812936753,164.13755290675908 101.55103125609457,153.67500398936681 91.3142249751836,162.78754795901477 87.90195621550083,195.18755522882566 98.75917499884963,205.31250978377648 112.40825003758073,196.20005170628428 114.8899000454694,164.13755290675908 104.03268126398325,154.35000787721947 91.62443122640252,162.45004665805027 88.21216246671975,194.85005635209382 90.38360622152686,201.9375274570193 98.1387624964118,204.6375135204289 112.09804378636181,197.21254795743152 114.8899000454694,166.1625595728401 104.34288751520216,155.70001535094343 91.3142249751836,162.11254533240572 88.21216246671975,196.20005170628428 99.37958749942482,204.9750116642099 112.09804378636181,196.5375504824333 114.57969379611313,162.78754795901477 103.1020625103265,155.02501166495495 91.3142249751836,163.80005170730874 88.21216246671975,195.52505408111028 99.37958749942482,205.31250978377648 109.30618752911687,203.96251715556718 113.9592812936753,197.5500466574449 117.37155005335808,165.1500563537702" stroke="#4dd2ff" stroke-linecap="round" stroke-linejoin="round" stroke-width="0.5"><title>2024-03-26 3.7km</title><desc>1711445960000</desc></polyline><polyline fill="none" points="145.44098226726055,194.40005419775844 157.35290586948395,207.0 171.5810368359089,198.72003933228552 174.2281309682876,162.36004341207445 166.94862210191786,153.0 149.74251023493707,159.12003044551238 145.11009550094604,193.32005730783567 148.0880764015019,201.6000272668898 158.34556616842747,206.64000200573355 170.91926330141723,199.4400364770554 174.8899045009166,164.16004967410117 168.2721691671759,153.36000200593844 150.73517053574324,160.56003647809848 146.43364256806672,181.4400755269453 150.40428376756608,201.6000272668898 159.00733970105648,205.5600078641437 166.94862210191786,202.32002398185432 173.89724420197308,166.32005629921332 168.2721691671759,155.88001529639587 158.67645293474197,154.8000097614713 152.05871760100126,160.2000350104645 147.7571896351874,191.88006107881665 155.0366985015571,204.480013479013 168.60305593535304,200.16003351518884 173.89724420197308,164.88005198957399 166.2868485674262,154.44000786356628 152.05871760100126,160.56003647809848 147.7571896351874,192.6000592475757 155.36758526787162,204.480013479013 168.2721691671759,200.16003351518884 171.5810368359089,158.4000272671692 160.33088676817715,153.7200039853342 151.0660573001951,163.0800459976308 148.0880764015019,196.9200459974818 154.04403820075095,203.76001708768308 163.308867668733,204.12001529661939" stroke="#4dd2ff" stroke-linecap="round" stroke-linejoin="round" stroke-width="0.5"><title>2024-03-25 2.1km</title><desc>1711359274000</desc></polyline><polyline fill="none" points="46.84044451080263,261.80771969119087 53.20364870503545,226.50005908031017 45.88596388138831,215.42309042718261 29.34163297340274,222.6923540965654 25.841870665550232,252.11544752772897 35.38667695969343,264.92308857664466 49.38572618737817,259.3846535538323 53.20364870503545,226.50005908031017 43.97700262255967,215.76924609951675 29.34163297340274,223.03850922500715 25.841870665550232,254.19236470013857 36.02299737930298,264.92308857664466 49.70388639904559,258.3461962491274 53.20364870503545,225.11543944850564 43.65884241275489,215.76924609951675 29.34163297340274,222.6923540965654 26.160030875355005,254.53851747186854 29.023472763597965,261.80771969119087 37.93195863813162,265.26924054464325 50.02204660885036,256.9615861470811 53.20364870503545,227.1923687402159 44.93148325197399,215.76924609951675 29.34163297340274,221.30773332575336 26.160030875355005,254.53851747186854 36.02299737930298,265.6153924879618 49.06756597943604,259.03850114531815 53.20364870503545,226.50005908031017 44.29516283236444,215.07693473016843 29.659793183207512,220.96157806832343 25.841870665550232,255.23082293663174 29.023472763597965,262.15387189388275 38.56827905587852,265.9615444052033 50.34020681679249,256.61543355789036 52.88548849709332,224.76928447559476 43.02252199314535,215.07693473016843 34.11403612047434,216.80771295912564 28.705312553793192,223.73081940272823 26.47819108515978,256.9615861470811 38.88643926754594,265.26924054464325 50.65836702845991,255.5769756315276 52.88548849709332,225.11543944850564 43.65884241275489,215.07693473016843 29.023472763597965,223.73081940272823 26.160030875355005,255.9231282984838 37.29563821852207,264.92308857664466 49.38572618737817,258.3461962491274 52.88548849709332,224.76928447559476 41.7498811557889,215.07693473016843 28.705312553793192,223.3846643269062 26.47819108515978,256.2692809407599 37.29563821852207,265.6153924879618 50.02204660885036,258.3461962491274 53.20364870503545,225.11543944850564 47.79492514021695,216.1154017453082 29.977953393012285,220.96157806832343 26.160030875355005,252.4616004540585 33.795875910669565,264.92308857664466 49.06756597943604,259.73080593626946 53.20364870503545,225.8077493160963 43.34068220295012,215.42309042718261 29.34163297340274,222.00004376331344 26.160030875355005,254.88467021659017 35.06851674988866,264.5769365816377 48.74940576963127,260.7692629303783 53.52180891670287,226.84621392330155 47.1586047206074,216.1154017453082 37.29563821852207,215.07693473016843 29.659793183207512,222.00004376331344 23.932909406721592,252.11544752772897 26.47819108515978,261.4615674642846 35.38667695969343,267.0 43.65884241275489,266.65384816145524 51.29468744620681,259.3846535538323 56.06709059327841,227.53852353105322 47.47676493041217,213.69231168041006 36.9774780087173,213.0 27.750831924378872,220.61542278528214 23.932909406721592,253.84621190233156 33.795875910669565,265.9615444052033 50.34020681679249,263.1923283440992" stroke="#4dd2ff" stroke-linecap="round" stroke-linejoin="round" stroke-width="0.5"><title>2024-03-24 4.9km</title><desc>1711273464000</desc></polyline><polyline fill="none" points="84.77515389956534,252.09209033916704 87.51562619768083,261.69941564812325 95.12804924882948,266.6687136639375 103.95845998823643,265.0122816117946 111.26638611778617,257.72397322021425 114.31135533750057,222.93869974953122 111.87537996098399,216.97548257675953 102.74047229997814,213.9938709787093 92.6920738723129,216.31290239514783 87.21112927608192,223.26998935756274 85.3841477446258,256.3988249511458 91.1695892624557,264.01842208299786 101.52248461171985,266.33742730296217 112.48437380604446,254.07981452601962 112.78887072764337,218.63193259644322 101.8269815351814,213.9938709787093 90.56059541925788,217.63806265965104 85.99314158782363,225.58901591598988 84.16616005450487,254.74238905706443 93.9100615605712,267.0 104.5674538332969,265.0122816117946 110.96188919432461,258.05526022496633 116.13833686895669,227.5767519986257 112.17987688444555,216.97548257675953 103.65396306663752,213.66258067754097 90.86509234085679,217.63806265965104 86.29763851128519,224.9264370223973 85.99314158782363,260.7055553756654 94.82355232723057,267.0 103.65396306663752,266.33742730296217 112.78887072764337,254.07981452601962 112.78887072764337,218.63193259644322 98.17301847040653,213.0 86.60213543102145,224.595147539163 84.47065697796643,256.06753782136366 90.25609849579632,264.6809951264877 100.00000000186265,266.0061409168411 112.48437380604446,254.41110180481337 113.7023614924401,220.2883819974959 108.83041074126959,214.65645150770433 98.47751539200544,213.66258067754097 86.29763851128519,225.2577264814172 85.07965082116425,258.71783416182734 101.52248461171985,265.6748545067385 112.17987688444555,254.41110180481337 112.17987688444555,218.63193259644322 100.60899384506047,213.33129035145976 87.21112927608192,220.95096158445813 83.86166313290596,256.73011205531657 89.95160157419741,264.34970861743204 101.52248461171985,266.33742730296217 112.17987688444555,255.07367628556676 111.57088303938508,216.64419249864295 99.69550307840109,213.33129035145976 91.1695892624557,217.63806265965104 84.47065697796643,242.48474418721162 88.42911696434021,262.6932756968308 107.30792613141239,263.68713552318513 114.61585225909948,226.58288406929933 107.91691997461021,214.98774173436686 90.86509234085679,217.63806265965104 84.47065697796643,250.43565283319913 86.60213543102145,261.69941564812325 94.51905540376902,265.6748545067385 109.74390150606632,260.04298173682764 114.9203491806984,227.24546271376312 110.6573922727257,216.64419249864295 90.56059541925788,216.64419249864295 85.3841477446258,235.52768741175532 87.51562619768083,261.69941564812325 96.65053386054933,266.33742730296217 107.6124230530113,263.0245623306837 112.48437380604446,255.4049634898547 114.9203491806984,227.5767519986257 110.35289535112679,216.64419249864295 95.4325461704284,214.3251612558961 86.29763851128519,225.2577264814172 84.77515389956534,258.05526022496633 93.30106771737337,265.6748545067385 103.65396306663752,264.34970861743204 110.6573922727257,246.79148814291693 109.1349076628685,218.63193259644322 99.69550307840109,215.65032211481594 89.95160157419741,220.2883819974959 84.16616005450487,241.15959135862067" stroke="#4dd2ff" stroke-linecap="round" stroke-linejoin="round" stroke-width="0.5"><title>2024-03-22 5.0km</title><desc>1711100044000</desc></polyline><polyline fill="none" points="143.559058861807,233.25007574330084 149.14277472160757,261.9375274570193 158.4489678181708,266.66250200755894 167.75516091659665,263.9625171555672 173.9592896476388,256.8750492320396 176.13073470257223,241.35008059022948 172.09805102832615,218.40002908511087 159.37958712689579,214.01250594574958 150.383600467816,225.48755745124072 149.14277472160757,257.88754533138126 156.58772919885814,265.65000787726603 165.58371585793793,265.65000787726603 173.02867033705115,255.1875552290585 172.71846389956772,222.78754795808345 162.4816514942795,215.36251351982355 150.69380690343678,225.48755745124072 149.14277472160757,256.8750492320396 154.7264905795455,264.3000153505709 163.10206436738372,265.9875059465412 172.09805102832615,253.8375595714897 173.33887677453458,221.77504398138262 164.65309654921293,214.35000787791796 150.69380690343678,222.4500466582831 147.9019489735365,254.85005635255948 160.62041287496686,264.97501166467555 168.68578022532165,263.28752069035545 174.26949608325958,253.8375595714897 174.579702520743,219.41253381920978 170.85722528025508,214.35000787791796 159.069380691275,213.0 148.5223618466407,223.12504923320375 146.6611232291907,256.53755048220046 160.62041287496686,267.0 173.33887677453458,254.5125574504491 176.44094114005566,224.81255522975698 171.78784459084272,213.33750200737268 152.55504552274942,216.03751715575345 145.11009104549885,250.12506943009794" stroke="#4dd2ff" stroke-linecap="round" stroke-linejoin="round" stroke-width="0.5"><title>2024-03-21 2.2km</title><desc>1711013104000</desc></polyline></svg>