<?xml version="1.0" encoding="utf-8" ?>
<svg baseProfile="full" height="300mm" version="1.1" viewBox="0,0,200,300" width="200mm" xmlns="http://www.w3.org/2000/svg" xmlns:ev="http://www.w3.org/2001/xml-events" xmlns:xlink="http://www.w3.org/1999/xlink"><defs /><rect fill="#222222" height="300" width="200" x="0" y="0" /><text fill="#FFFFFF" style="font-size:12px; font-family:Arial; font-weight:bold;" x="10" y="20">Over 2km Runs</text><text fill="#FFFFFF" style="font-size:4px; font-family:Arial" x="10" y="280">ATHLETE</text><text fill="#FFFFFF" style="font-size:9px; font-family:Arial" x="10" y="290">作怪</text><text fill="#FFFFFF" style="font-size:4px; font-family:Arial" x="120" y="280">STATISTICS</text><text fill="#FFFFFF" style="font-size:3px; font-family:Arial" x="120" y="285">Number: 16</text><text fill="#FFFFFF" style="font-size:3px; font-family:Arial" x="120" y="290">Weekly: 4.0</text><text fill="#FFFFFF" style="font-size:3px; font-family:Arial" x="141" y="285">Total: 78.3 km</text><text fill="#FFFFFF" style="font-size:3px; font-family:Arial" x="141" y="290">Avg: 4.9 km</text><text fill="#FFFFFF" style="font-size:3px; font-family:Arial" x="167" y="285">Min: 2.0 km</text><text fill="#FFFFFF" style="font-size:3px; font-family:Arial" x="167" y="290">Max: 11.8 km</text><polyline fill="none" points="36.396718565840274,36.53946710494347 36.671781052835286,44.7193428738974 38.68890595808625,46.61467278224882 41.347843332216144,46.41516449768096 43.731718219816685,43.622045379830524 44.190155697986484,34.5443678421434 40.06421839306131,32.25 36.9468435398303,35.54191784677096 36.58009355748072,44.22057139757089 38.23046847945079,46.41516449768096 40.52265587123111,46.714426913065836 43.82340571563691,44.02106275490951 43.91509321145713,33.74632730148733 40.52265587123111,32.3497552057961 37.588656009640545,34.24510269530583 36.396718565840274,43.522291017347015 38.59721846226603,46.51491864351556 41.806280810851604,46.41516449768096 43.91509321145713,44.32032570778392 44.55690568080172,35.04314293793868 41.347843332216144,32.44951040390879 37.03853103611618,35.14289793453645 36.30503107048571,43.12327349325642 39.05565594043583,46.714426913065836 43.45665573282167,45.018605670076795 44.55690568080172,35.34240790538024 41.98965580202639,32.649020777782425 37.588656009640545,34.24510269530583 36.396718565840274,43.82155408221297 38.963968445081264,46.714426913065836 43.18159324582666,45.41762262722477 44.648593176621944,35.940937639563344 42.81484326347709,32.848531121970154 40.61434336705133,32.44951040390879 37.68034350546077,34.045592560316436 36.4884060616605,43.32278227014467 38.780593453440815,46.61467278224882 43.18159324582666,45.41762262722477 43.91509321145713,33.74632730148733 39.697468410246074,32.649020777782425 37.130218531005085,35.34240790538024 36.671781052835286,44.32032570778392 40.61434336705133,46.714426913065836 43.82340571563691,44.12081707990728 44.37353068962693,35.14289793453645 41.07278084522113,32.54926559445448 37.130218531005085,35.14289793453645 36.4884060616605,44.32032570778392 39.78915590560064,46.714426913065836 43.5483432286419,44.22057139757089 44.37353068962693,35.242652923683636 40.79771835822612,32.3497552057961 37.22190602729097,34.943387933657505 36.4884060616605,44.42008001054637 39.514093418605626,46.714426913065836 42.17303079320118,46.31541034427937 43.82340571563691,44.22057139757089 44.465218185447156,34.943387933657505 40.98109334986657,32.44951040390879 37.22190602729097,35.04314293793868 36.671781052835286,44.02106275490951 39.697468410246074,46.714426913065836 43.45665573282167,44.918851411901414 44.55690568080172,35.04314293793868 40.98109334986657,32.44951040390879 37.313593523111194,34.6441228762269 36.58009355748072,43.72179973497987 39.33071842743084,46.714426913065836 43.45665573282167,44.8190971466247 44.465218185447156,35.44216287997551 41.53121832385659,32.54926559445448 37.49696851428598,34.344857751741074 36.4884060616605,44.22057139757089 39.514093418605626,46.81418103678152 43.5483432286419,44.918851411901414 44.465218185447156,35.34240790538024 41.53121832385659,32.54926559445448 36.396718565840274,34.5443678421434 35.84659359231591,44.7193428738974 33.64609369635582,48.50999999663327 34.83803113969043,55.293254270683974 26.677844024728984,57.088815803057514 24.293969137594104,66.7648557771463 20.351406823378056,71.05421186389867 25.2108440939337,72.75" stroke="#4dd2ff" stroke-linecap="round" stroke-linejoin="round" stroke-width="0.5"><title>2024-04-14 5.4km</title><desc>1713087921000</desc></polyline><polyline fill="none" points="65.47158850356936,59.52555917412974 71.29587196465582,71.09694749349728 82.18474974203855,71.64796507800929 87.75580348726362,62.556164391338825 88.009033203125,36.6581848654896 77.12015542667359,33.07653506426141 69.77649367041886,40.239831182407215 67.75065594445914,65.0357486223802 72.05556111223996,70.54592982702889 78.89276343677193,71.92347383964807 87.24934405554086,64.48473004833795 89.0219520656392,39.13778653298505 77.87984457425773,32.5255117083434 69.52326395455748,40.79085338418372 67.75065594445914,65.31125787831843 76.86692571081221,71.64796507800929 86.9961143406108,65.86227632802911 89.78164121322334,41.89289753930643 80.91860116180032,32.5255117083434 70.536182818003,38.035741552943364 68.2571153761819,64.76023934548721 77.12015542667359,72.19898258009925 86.7428846238181,66.6888038488105 89.2751817824319,41.066364453639835 79.65245258342475,32.80102339643054 70.2829531012103,39.13778653298505 67.49742622859776,64.2092207306996 75.60077713243663,72.75 86.9961143406108,66.13778552296571 89.78164121322334,42.16840852680616 81.93152002524585,33.07653506426141 70.536182818003,38.8622753189411 68.0038856593892,63.65820203279145 76.10723656322807,71.64796507800929 86.7428846238181,66.96431298158132 89.52841149643064,41.066364453639835 79.90568230021745,32.5255117083434 70.536182818003,38.58676408464089 68.0038856593892,63.93371139164083 74.08139883819968,71.64796507800929 82.69120917282999,71.09694749349728 87.24934405554086,66.41329469624907 89.2751817824319,40.51534229400568 79.90568230021745,32.5255117083434 70.536182818003,38.31125282892026 68.2571153761819,65.31125787831843 76.86692571081221,72.75 87.75580348726362,65.31125787831843 89.2751817824319,39.13778653298505 79.39922286849469,32.5255117083434 69.77649367041886,39.688808899139985 67.49742622859776,64.76023934548721 77.12015542667359,72.19898258009925 87.24934405554086,65.0357486223802 89.52841149643064,40.51534229400568 79.39922286849469,32.25 70.2829531012103,38.31125282892026 68.0038856593892,62.83167383191176 74.08139883819968,71.64796507800929 87.24934405554086,66.13778552296571 89.2751817824319,39.13778653298505 81.17183087859303,32.5255117083434 70.2829531012103,38.31125282892026 68.2571153761819,64.76023934548721 75.09431770071387,71.92347383964807 86.7428846238181,66.6888038488105 89.52841149643064,42.16840852680616 81.17183087859303,32.25 70.2829531012103,38.035741552943364 68.0038856593892,63.93371139164083 76.10723656322807,71.92347383964807 86.7428846238181,66.6888038488105 89.78164121322334,40.239831182407215 83.45089832041413,33.35204671067186 74.58785826899111,33.35204671067186 66.73773708194494,50.15821819193661 66.48450736608356,63.93371139164083 65.21835878677666,58.42352029518224" stroke="#4dd2ff" stroke-linecap="round" stroke-linejoin="round" stroke-width="0.5"><title>2024-04-13 4.9km</title><desc>1713000859000</desc></polyline><polyline fill="none" points="110.76353024877608,49.27553565707058 112.66033344063908,67.84875141317025 118.3507430171594,71.46019841521047 127.12345778010786,70.94427764648572 130.91706416383386,61.39972950192168 131.6283653602004,38.44111360167153 121.19594780448824,33.79777944274247 113.37163463793695,42.0525914025493 111.94903224334121,64.23730062856339 116.4539398252964,69.39651487767696 123.32985139638186,70.17039634939283 130.44286336563528,63.97933971392922 131.86546576023102,38.44111360167153 121.43304820358753,33.79777944274247 113.37163463793695,43.34240398649126 112.42323304153979,64.23730062856339 121.67014860268682,70.68631723383442 130.20576296653599,64.75322240102105 132.5767669575289,41.02074098819867 124.0411525927484,33.53981625009328 114.55713663250208,39.47296478739008 112.66033344063908,63.72137877903879 120.95884740632027,70.42835680069402 130.20576296653599,64.23730062856339 132.5767669575289,40.7627783366479 124.2782529918477,33.28185303858481 114.55713663250208,39.988890265347436 112.66033344063908,64.23730062856339 121.43304820358753,70.68631723383442 130.20576296653599,65.01118325837888 132.5767669575289,39.988890265347436 122.85565059725195,33.28185303858481 114.32003623433411,40.50481566507369 113.13453423883766,65.78506571403705 124.5153533918783,70.42835680069402 130.91706416383386,62.68953484878875 131.39126496203244,35.34555818978697 119.29914461262524,32.76592655782588 112.66033344063908,41.53666623355821 111.23773104697466,65.78506571403705 117.16524102166295,71.71815877081826 123.32985139638186,72.23407942405902 132.33966655749828,64.49526152433828 132.81386735476553,36.63537328247912 121.67014860268682,32.25 112.42323304153979,39.988890265347436 110.76353024877608,65.78506571403705 115.26843782979995,71.97611910710111 123.09275099728256,72.49203972192481 132.5767669575289,63.4634178255219 133.52516855299473,38.18315075710416 120.4846466081217,33.02388980798423 111.71193184517324,41.278703620657325 110.76353024877608,65.52710491418839 120.01044580992311,72.75 131.39126496203244,66.30098725412972 134.71067054755986,41.79462882806547 129.02026097197086,33.02388980798423 117.16524102166295,34.05574261513539 111.71193184517324,42.56851649424061 112.66033344063908,66.04302649386227 123.80405219458044,71.20223804097623 130.67996376473457,64.49526152433828 132.81386735476553,41.278703620657325 128.5460601747036,34.82963201822713 122.3814497999847,33.02388980798423 113.60873503703624,40.50481566507369 112.89743383973837,63.97933971392922 121.19594780448824,70.42835680069402 130.67996376473457,64.49526152433828 132.5767669575289,40.7627783366479 124.0411525927484,33.28185303858481 114.0829358343035,40.50481566507369 112.89743383973837,64.23730062856339 120.01044580992311,70.94427764648572 127.59765857737511,69.39651487767696 131.15416456293315,64.23730062856339 133.05096775479615,40.7627783366479 124.5153533918783,33.28185303858481 112.66033344063908,41.02074098819867 110.28932945150882,61.915651698131114" stroke="#4dd2ff" stroke-linecap="round" stroke-linejoin="round" stroke-width="0.5"><title>2024-04-12 5.1km</title><desc>1712913892000</desc></polyline><polyline fill="none" points="147.62500000046566,41.892257443105336 147.25,47.60418082267279 149.64999999990687,50.296934327692725 153.39999999990687,48.583364684542175 154.375,41.07626594719477 153.70000000018626,39.362681818776764 151.60000000009313,38.38348967942875 148.52499999990687,40.097075346217025 147.70000000018626,47.685779511230066 149.64999999990687,50.05213882919634 153.47500000009313,48.420167435193434 154.29999999981374,41.07626594719477 151.97500000009313,38.46508905803785 148.6750000002794,39.9338768273592 147.77500000037253,47.60418082267279 150.25000000046566,50.21533583430573 153.32500000018626,48.82816051249392 154.375,41.40266261884244 151.97500000009313,38.38348967942875 148.6750000002794,39.9338768273592 147.77500000037253,47.52258212782908 149.57500000018626,50.05213882919634 153.32500000018626,48.82816051249392 154.2250000005588,40.91306757472921 151.82500000018626,38.546688430476934 148.6750000002794,39.85227755858796 147.77500000037253,47.196187287569046 149.35000000009313,49.88894179952331 151.60000000009313,50.05213882919634 153.47500000009313,48.583364684542175 154.29999999981374,41.48426177143119 153.5500000002794,39.2810825072811 149.64999999990687,38.70988715690328 148.3000000002794,40.74986917799106 147.25,48.66496329999063 155.20000000018626,51.602509391785134 157.75,50.78652515972499 160.89999999990687,47.685779511230066 165.47500000009313,49.154554864624515 166.52499999990687,51.27611577231437 166.29999999981374,57.151185981871095 170.5749999997206,62.86302946129581 177.9250000002794,65.55574529996375 185.5,66.61651032062946 187.75,65.14775847888086 187.52499999990687,51.43931259418605 186.54999999981374,51.847304542316124 186.25,54.54004757280927" stroke="#4dd2ff" stroke-linecap="round" stroke-linejoin="round" stroke-width="0.5"><title>2024-04-11 3.0km</title><desc>1712828151000</desc></polyline><polyline fill="none" points="22.77353412657976,105.87261999282055 21.81289552152157,129.6500375685282 25.41529028955847,135.6596889125649 32.13976052310318,137.4887111831922 43.18710447754711,130.43390572117642 44.86822203639895,104.82745506730862 34.781516685150564,97.25 24.934970987029374,102.21454138378613 22.053055172786117,129.12745870254003 29.49800436012447,136.96613348950632 38.14375180192292,135.92097786720842 42.70678517501801,131.21777369873598 45.10838168673217,106.65649348217994 37.18311319872737,98.03387542441487 29.738164010457695,98.55645894352347 24.694811335764825,103.78228982840665 21.332576219923794,128.86616923939437 31.179121918044984,137.75 42.70678517501801,132.2629307275638 45.82886064052582,110.31456743972376 44.86822203639895,102.73712427704595 40.30518866330385,98.81775067304261 31.179121918044984,97.5112918280065 25.655449939891696,100.38550064247102 19.17113935854286,110.31456743972376 22.053055172786117,129.38874814496376 26.856248196214437,136.44355571712367 35.982314941473305,137.22742234542966 42.466625523753464,131.74035225249827 44.6280623851344,108.48553093988448 38.624071104452014,98.03387542441487 31.419281569309533,97.25 24.934970987029374,101.16937536327168 22.053055172786117,129.12745870254003 28.537365754134953,136.96613348950632 37.18311319872737,136.7048446133267 43.42726412881166,129.38874814496376 45.58870098926127,107.70165786077268 41.98630622122437,100.90808380884118 35.021676337346435,97.5112918280065 24.694811335764825,101.95324990805238 21.81289552152157,128.6048797571566 28.777525406330824,136.7048446133267 37.18311319872737,136.44355571712367 43.66742377914488,129.6500375685282 45.34854133799672,107.70165786077268 38.86423075571656,98.03387542441487 26.61608854494989,99.07904238370247 23.013693776912987,106.13391117542051 22.77353412657976,132.00164149980992 34.54135703481734,137.22742234542966 42.70678517501801,129.6500375685282 43.66742377914488,106.13391117542051 40.30518866330385,100.12420903029852 33.580718429759145,98.55645894352347 24.934970987029374,105.3500375689473 23.013693776912987,128.86616923939437 32.8602394759655,136.7048446133267 42.226465872488916,130.43390572117642 43.907583431340754,107.96294890646823 41.50598691869527,101.69195841229521 35.021676337346435,98.55645894352347 24.934970987029374,105.08874632744119 21.81289552152157,129.12745870254003 31.179121918044984,137.75 37.66343250032514,137.22742234542966 40.5453483145684,132.2629307275638 43.66742377914488,107.4403667957522 35.982314941473305,99.07904238370247 29.978323661722243,99.60162574588321 25.1751306373626,105.3500375689473 23.013693776912987,128.08230073470622 31.419281569309533,136.18226680229418 41.50598691869527,131.74035225249827 43.66742377914488,106.13391117542051 35.50199563894421,98.81775067304261 25.41529028955847,105.3500375689473 23.253853428177536,128.6048797571566 31.179121918044984,136.44355571712367 41.74614657089114,129.91132697300054 43.66742377914488,106.13391117542051 34.54135703481734,99.07904238370247 24.934970987029374,105.61132879066281 23.013693776912987,128.86616923939437 33.10039912816137,136.7048446133267 41.50598691869527,130.95648439228535 43.42726412881166,105.3500375689473 35.26183598861098,99.07904238370247 25.1751306373626,104.04358116723597 22.293214824050665,128.6048797571566 30.218483313918114,136.44355571712367 41.50598691869527,131.74035225249827 44.6280623851344,107.4403667957522 35.50199563894421,99.07904238370247 29.257844707928598,100.12420903029852 23.013693776912987,107.1790757109411 21.092416567727923,128.08230073470622" stroke="#4dd2ff" stroke-linecap="round" stroke-linejoin="round" stroke-width="0.5"><title>2024-04-09 5.6km</title><desc>1712653834000</desc></polyline><polyline fill="none" points="66.84763161372393,104.63682837155648 66.37939564045519,128.5802308660932 70.3594014113769,135.71227566013113 75.9782330878079,136.73113798210397 82.53353671077639,135.45756003120914 87.2158964406699,129.34437923692167 89.32295832037926,104.12739244638942 85.34295254945755,98.77831063326448 78.08529496658593,97.25 68.4864575183019,104.891546305269 66.84763161372393,129.59909532265738 77.38294100761414,137.24056902900338 87.2158964406699,129.34437923692167 88.85472234617919,105.40098211634904 83.23589066974819,98.52359224227257 78.31941295322031,98.01415540231392 68.4864575183019,105.40098211634904 65.91115966718644,128.07079852349125 70.3594014113769,135.20284438459203 77.14882302004844,137.24056902900338 87.45001442823559,129.08966313279234 89.55707630608231,106.41985350870527 80.66059281863272,97.50471848645248 71.76410933025181,99.28774735890329 67.7841035593301,104.382110418519 66.37939564045519,130.10852743685246 76.44646906014532,136.98585351509973 86.98177845496684,130.10852743685246 89.32295832037926,104.382110418519 86.04530650842935,99.54246569261886 78.78764892648906,97.50471848645248 68.01822154596448,104.891546305269 66.37939564045519,130.6179594739806 76.44646906014532,137.75 86.74766046833247,130.6179594739806 89.32295832037926,103.87267445586622 78.55353093985468,97.75943695451133 68.4864575183019,103.61795644601807 65.67704167962074,129.59909532265738 73.63705322239548,137.75 79.9582388587296,136.98585351509973 86.27942449506372,130.6179594739806 89.08884033374488,104.382110418519 86.04530650842935,99.54246569261886 78.08529496658593,97.50471848645248 67.7841035593301,105.14626422012225 66.14527765475214,130.6179594739806 70.12528342567384,135.96699126856402 76.44646906014532,137.49528452428058 86.74766046833247,130.87267546495423 89.55707630608231,105.14626422012225 86.5135424816981,99.79718400724232 78.55353093985468,97.75943695451133 68.01822154596448,103.61795644601807 65.44292369484901,128.07079852349125 73.16881724912673,136.98585351509973 80.42647483106703,136.98585351509973 86.27942449506372,131.8915392353665 89.79119429271668,109.98590098135173 85.10883456189185,98.52359224227257 71.06175537034869,99.54246569261886 67.31586758606136,105.91041785036214 66.61351362708956,131.38210738776252 71.99822731688619,136.73113798210397 78.55353093985468,137.24056902900338 87.68413241300732,128.32551470515318 89.32295832037926,105.91041785036214 85.5770705351606,99.79718400724232 76.44646906014532,97.50471848645248 67.7841035593301,104.382110418519 65.67704167962074,129.59909532265738 76.21235107444227,137.75 86.98177845496684,130.6179594739806 89.32295832037926,104.891546305269 86.74766046833247,100.30662058060989 78.78764892648906,97.25 71.76410933025181,99.79718400724232 67.31586758606136,106.41985350870527 67.54998557269573,129.34437923692167 76.68058704771101,135.71227566013113 85.5770705351606,129.85381138930097 87.2158964406699,105.14626422012225 79.49000288639218,98.77831063326448 67.08174959942698,107.18400685302913 65.20880570728332,126.54250103840604" stroke="#4dd2ff" stroke-linecap="round" stroke-linejoin="round" stroke-width="0.5"><title>2024-04-08 5.0km</title><desc>1712568268000</desc></polyline><polyline fill="none" points="110.96717390231788,112.15803289483301 113.4792746361345,131.28991040377878 119.64534007571638,134.7684217481874 127.18164227809757,132.78070142609067 132.20584374573082,126.3206021648366 131.52072536479682,100.72854699403979 121.01557683944702,97.25 112.5657834596932,106.19482776708901 112.10903787147254,131.04144516889937 117.81835772283375,135.5138165615499 127.63838786631823,134.2714917792473 131.74909815844148,127.06599887483753 131.97747095301747,100.97701449738815 119.18859448749572,98.24387094192207 112.10903787147254,109.1764316689223 111.8806650787592,130.29604935110547 118.50347610469908,135.26535164238885 127.18164227809757,134.2714917792473 132.20584374573082,127.06599887483753 131.74909815844148,100.48007947253063 119.64534007571638,98.24387094192207 112.79415625426918,105.44942637323402 111.19554669689387,129.05372261675075 121.24394963309169,136.2592112084385 131.52072536479682,128.5567917926237 133.11933492310345,105.20095920516178 129.23699742462486,98.98927395278588 123.07093198597431,97.74693550844677 116.67649375274777,99.48620920046233 113.25090184248984,104.95249201753177 111.8806650787592,129.79911871277727 115.99137536995113,134.7684217481874 124.89791433792561,135.26535164238885 131.74909815844148,128.5567917926237 132.43421654123813,102.71628649812192 124.66954154428095,97.4984677634202 113.4792746361345,104.2070903449785 111.42391949053854,128.5567917926237 115.30625698901713,134.2714917792473 121.01557683944702,135.5138165615499 131.29235257115215,130.04758404172026 133.5760805113241,106.19482776708901 130.37886139471084,100.23161193262786 122.61418639775366,98.24387094192207 115.5346297826618,101.72241689520888 112.33741066604853,107.93409703532234 111.8806650787592,132.28377116005868 115.5346297826618,136.2592112084385 123.52767757419497,136.50767605379224 131.29235257115215,128.30832635308616 133.5760805113241,104.70402481174096 123.29930477961898,97.9954032341484 113.4792746361345,104.45555758778937 110.73880110681057,129.55065336613916 118.73184889927506,137.50153524777852 131.29235257115215,128.80525721400045 133.34770771674812,105.20095920516178 129.00862463004887,98.7408063011244 123.07093198597431,97.74693550844677 113.02252904884517,104.95249201753177 111.6522922841832,129.55065336613916 122.157440809533,135.76228146255016 131.29235257115215,127.81139541743323 133.11933492310345,103.46168850548565 123.29930477961898,98.24387094192207 113.02252904884517,105.44942637323402 111.42391949053854,128.5567917926237 115.99137536995113,134.2714917792473 122.84255919232965,135.76228146255016 131.52072536479682,127.81139541743323 133.11933492310345,103.46168850548565 129.00862463004887,98.98927395278588 120.3304584575817,98.24387094192207 112.10903787147254,108.67949787154794 111.42391949053854,132.03530599875376 115.30625698901713,136.50767605379224 124.66954154428095,136.01074634492397 131.74909815844148,127.06599887483753 131.97747095301747,101.47394944750704 121.70069522224367,97.25 112.79415625426918,105.44942637323402 111.42391949053854,128.80525721400045 118.04673051647842,135.26535164238885 124.66954154428095,135.0168867041357 131.97747095301747,126.81753332400694 133.11933492310345,103.95862308354117 129.23699742462486,98.98927395278588 121.47232242766768,97.9954032341484 112.5657834596932,106.19482776708901 112.33741066604853,130.54451464186423 118.73184889927506,136.2592112084385 127.18164227809757,135.0168867041357 132.66258933581412,120.60588849941269 130.37886139471084,101.72241689520888 117.3616121346131,99.98314437363297 111.19554669689387,113.89729904057458 112.10903787147254,133.77456173556857 117.3616121346131,137.25307047762908 126.03977830801159,135.5138165615499 131.97747095301747,126.56906775361858 133.80445330496877,106.9402289937716 131.52072536479682,100.72854699403979 123.52767757419497,98.24387094192207 116.67649375274777,100.23161193262786 111.19554669689387,113.64883250417188 112.10903787147254,133.77456173556857 117.13323934096843,137.00460568792187 126.26815110165626,135.26535164238885 131.97747095301747,126.56906775361858 131.74909815844148,101.47394944750704 119.87371286936104,97.9954032341484 112.33741066604853,108.1825639992021 112.79415625426918,131.28991040377878 119.87371286936104,137.00460568792187 127.86676065996289,136.50767605379224 132.20584374573082,130.54451464186423 132.43421654123813,102.46781912492588 118.96022169385105,97.9954032341484 111.8806650787592,107.43716305145063 110.73880110681057,130.79297991492786 114.39276581257582,136.2592112084385 122.38581360317767,137.50153524777852 131.97747095301747,128.05986089422368 132.89096212945879,103.21322118793614 120.10208566300571,98.24387094192207 111.6522922841832,108.43103094492108 110.96717390231788,132.28377116005868 115.30625698901713,136.7561408802867 122.61418639775366,137.25307047762908 129.46537021826953,133.77456173556857 132.66258933581412,127.31446440774016 133.5760805113241,103.21322118793614 121.01557683944702,97.74693550844677 111.8806650787592,106.4432948611211 110.96717390231788,131.28991040377878 115.07788419537246,136.01074634492397 123.52767757419497,137.75 131.74909815844148,131.04144516889937 133.5760805113241,104.2070903449785 130.37886139471084,99.73467679601163 121.70069522224367,97.74693550844677 112.5657834596932,104.95249201753177 110.05368272587657,129.05372261675075 113.02252904884517,134.5199567724485 119.64534007571638,137.25307047762908 131.29235257115215,131.04144516889937 133.80445330496877,106.19482776708901 123.75605036783963,97.74693550844677 113.4792746361345,104.2070903449785 110.96717390231788,128.5567917926237 121.92906801495701,137.25307047762908 132.20584374573082,131.28991040377878 134.48957168776542,107.43716305145063 130.15048860013485,100.48007947253063 123.75605036783963,98.24387094192207 113.02252904884517,104.95249201753177 110.73880110681057,129.3021880008746 114.16439301799983,134.7684217481874 121.92906801495701,137.25307047762908 132.43421654123813,129.79911871277727 134.03282609861344,107.43716305145063 131.06397977657616,101.47394944750704 123.29930477961898,97.74693550844677 112.79415625426918,105.20095920516178 111.19554669689387,130.04758404172026 114.84951140079647,135.0168867041357 121.92906801495701,137.00460568792187 131.52072536479682,130.79297991492786 133.5760805113241,106.4432948611211 123.07093198597431,98.24387094192207 112.79415625426918,106.19482776708901 110.96717390231788,130.29604935110547 122.38581360317767,136.50767605379224 131.97747095301747,129.3021880008746 134.03282609861344,105.69789352314547 122.38581360317767,97.9954032341484 112.5657834596932,106.19482776708901 111.19554669689387,129.3021880008746 122.157440809533,136.50767605379224 131.74909815844148,129.79911871277727 133.34770771674812,105.44942637323402 128.55187904275954,99.23774158628657 121.92906801495701,98.24387094192207 113.02252904884517,106.69176193629391 110.73880110681057,129.55065336613916 120.78720404580235,137.25307047762908 131.74909815844148,131.78684081928805 134.94631727505475,107.68563005304895 130.8356069829315,99.98314437363297 117.81835772283375,99.23774158628657 112.5657834596932,106.9402289937716 111.19554669689387,126.3206021648366" stroke="#4dd2ff" stroke-linecap="round" stroke-linejoin="round" stroke-width="0.5"><title>2024-04-06 11.8km</title><desc>1712394949000</desc></polyline><polyline fill="none" points="157.8312330134213,132.75327198463492 166.77484247554094,137.75 175.23501358833164,130.64938437961973 178.13564368430525,107.76952537568286 175.23501358833164,100.14287261618301 166.291404126212,98.03896549507044 160.49014393426478,101.98379031475633 157.10607548896223,125.65264627174474 163.3907740302384,135.64611538592726 175.23501358833164,131.43834237894043 178.37736285943538,106.45458642556332 173.78469854034483,99.87988429493271 165.80796577688307,99.09091921313666 160.24842475913465,103.29873093706556 157.34779466409236,127.75653686700389 163.63249320536852,135.90910103125498 174.5098560648039,132.49028610251844 177.652205334045,106.98056206433102 172.33438349235803,99.35390759399161 164.5993699040264,99.35390759399161 160.00670558493584,104.08769507519901 157.34779466409236,126.9675780411344 162.42389733158052,135.38312972034328 174.7515752390027,132.22730020130984 177.89392450917512,106.98056206433102 170.88406844437122,98.82793081342243 159.76498641073704,103.56171900290065 156.62263714056462,129.334453987889 165.56624660268426,136.4350722641684 175.47673276253045,130.38639834034257 178.13564368430525,107.24354985402897 174.9932944132015,100.93183746212162 168.95031504705548,98.30195395438932 159.03982888534665,104.35068308119662 156.62263714056462,127.49355061142705 164.5993699040264,136.1720866577234 175.71845193766057,130.12341228174046 177.89392450917512,106.71757425460964 168.70859587285668,98.30195395438932 159.52326723653823,104.08769507519901 157.34779466409236,128.28250931878574 165.56624660268426,136.4350722641684 175.71845193766057,130.12341228174046 177.652205334045,105.13964698254131 167.98343834932894,98.56494239391759 159.52326723653823,104.35068308119662 157.58951383829117,129.07146784942597 167.01656165067106,136.1720866577234 176.2018902869895,129.59744010469876 178.13564368430525,105.92861070716754 169.43375339638442,98.56494239391759 159.03982888534665,105.13964698254131 157.34779466409236,129.07146784942597 166.04968495108187,136.4350722641684 175.9601711127907,130.38639834034257 178.13564368430525,106.1915985760279 168.46687669865787,98.56494239391759 159.03982888534665,105.13964698254131 157.10607548896223,129.07146784942597 167.01656165067106,136.4350722641684 175.71845193766057,130.38639834034257 177.89392450917512,106.1915985760279 169.67547257151455,98.30195395438932 159.2815480614081,104.08769507519901 157.34779466409236,128.01952310232446 165.08280825335532,136.1720866577234 172.09266431815922,134.857158330502 175.9601711127907,130.12341228174046 178.13564368430525,105.40263491054066 169.43375339638442,98.30195395438932 159.76498641073704,103.82470704917796 157.10607548896223,128.01952310232446 164.35765072982758,136.1720866577234 175.47673276253045,131.17535639903508 177.89392450917512,106.45458642556332 170.15891091991216,97.77597701689228 160.00670558493584,103.29873093706556 157.10607548896223,128.28250931878574 165.3245274266228,136.1720866577234 172.81782184168696,134.59417260624468 176.44360946118832,129.334453987889 177.4104861607775,104.87665903521702 167.7417191741988,98.03896549507044 159.03982888534665,104.61367106786929 157.34779466409236,129.86042620264925 166.291404126212,136.4350722641684 175.9601711127907,129.59744010469876 177.89392450917512,106.1915985760279 168.70859587285668,98.30195395438932 158.79810971207917,105.66562281921506 157.34779466409236,128.28250931878574 166.04968495108187,136.1720866577234 175.71845193766057,130.64938437961973 177.89392450917512,106.45458642556332 167.98343834932894,98.30195395438932 159.2815480614081,104.87665903521702 157.34779466409236,129.334453987889 163.14905485603958,135.90910103125498 175.23501358833164,131.43834237894043 178.37736285943538,106.71757425460964 168.70859587285668,98.03896549507044 159.76498641073704,103.82470704917796 157.8312330134213,128.80848169210367 167.01656165067106,136.4350722641684 175.9601711127907,129.59744010469876 178.13564368430525,106.45458642556332 173.5429793652147,99.61689595435746 167.7417191741988,98.03896549507044 159.52326723653823,104.87665903521702 157.34779466409236,128.54549551592208 167.01656165067106,136.4350722641684 175.71845193766057,131.43834237894043 177.89392450917512,105.66562281921506 168.70859587285668,97.5129885179922 160.24842475913465,102.24677847861312 157.34779466409236,128.54549551592208 160.7318631093949,134.3311868624296 167.25828082486987,136.4350722641684 176.44360946118832,129.07146784942597 177.89392450917512,105.66562281921506 173.30126019194722,99.09091921313666 167.01656165067106,97.77597701689228 159.52326723653823,104.08769507519901 157.58951383829117,129.334453987889 167.98343834932894,136.9610434176866 175.9601711127907,130.64938437961973 177.652205334045,105.66562281921506 168.22515752352774,97.25 159.2815480614081,104.08769507519901 157.10607548896223,127.75653686700389 164.5993699040264,136.1720866577234 175.71845193766057,130.9123703991063 177.652205334045,105.92861070716754 169.43375339638442,98.03896549507044 163.14905485603958,98.82793081342243 159.2815480614081,105.13964698254131 157.34779466409236,128.54549551592208 166.53312330134213,136.4350722641684 176.2018902869895,130.12341228174046 177.652205334045,106.45458642556332 168.95031504705548,97.77597701689228 159.2815480614081,104.87665903521702 157.58951383829117,129.59744010469876 166.291404126212,136.9610434176866 175.9601711127907,130.12341228174046 177.652205334045,104.87665903521702 173.78469854034483,99.61689595435746 166.291404126212,98.03896549507044 159.2815480614081,104.87665903521702 157.8312330134213,129.59744010469876 167.7417191741988,136.4350722641684 176.2018902869895,128.80848169210367 177.89392450917512,105.13964698254131 167.25828082486987,97.77597701689228 160.49014393426478,102.50976662244648 156.86435631476343,111.4513518200256 156.62263714056462,131.70132833905518" stroke="#4dd2ff" stroke-linecap="round" stroke-linejoin="round" stroke-width="0.5"><title>2024-04-03 9.7km</title><desc>1712137473000</desc></polyline><polyline fill="none" points="18.02370883151889,186.86770230717957 24.5927821341902,185.54417428094894 22.159792022779584,192.69121973752044 27.512370268814266,200.89706894243136 39.92061984259635,200.89706894243136 46.97629116848111,174.9559322546702 43.08350698836148,163.83824402699247 33.83814456127584,162.25 27.269071257673204,165.95590162021108 24.349483123980463,192.42651460808702 27.75566928088665,201.4264779149089 36.2711346745491,201.4264779149089 42.596908966079354,196.92649912275374 45.27319808956236,172.5735734316986 39.43402182031423,164.63236577343196 27.512370268814266,169.3970925072208 24.349483123980463,194.5441550926771 31.891752472147346,201.95588680892251 42.596908966079354,196.3970894771628 44.78660006728023,172.30886679701507 37.974227752536535,163.83824402699247 27.269071257673204,169.3970925072208 24.5927821341902,195.3382699470967 32.86494851671159,202.48529562307522 42.596908966079354,196.66179430997 45.27319808956236,172.04416014254093 38.70412478689104,164.36765854386613 31.891752472147346,165.1617801708635 26.78247323539108,170.4559197986964 24.106184111908078,194.5441550926771 32.13505148328841,202.75 42.353609955869615,196.66179430997 45.02989907935262,171.25004005990922 38.70412478689104,164.36765854386613 26.78247323539108,170.1912130054552 24.106184111908078,193.22062993841246 27.269071257673204,200.10295533505268 34.0814435724169,202.48529562307522 43.32680599950254,195.6029748597648 45.02989907935262,171.514746773988 38.46082577481866,164.10295129544102 33.108247527852654,164.10295129544102 26.78247323539108,169.9265061924234 24.106184111908078,193.48533500847407 31.4051544489339,202.48529562307522 42.11031094379723,197.72061344329268 45.27319808956236,172.5735734316986 40.407217864878476,164.63236577343196 34.0814435724169,164.36765854386613 27.025772247463465,169.9265061924234 24.349483123980463,194.01474509085529 29.94536038208753,201.69118237216026 42.596908966079354,200.36765989055857" stroke="#4dd2ff" stroke-linecap="round" stroke-linejoin="round" stroke-width="0.5"><title>2024-04-02 3.0km</title><desc>1712049520000</desc></polyline><polyline fill="none" points="69.43029741756618,174.9948019622825 67.86841949820518,197.08569039520808 72.55405325628817,201.90035409969278 79.58250389248133,202.18356942152604 84.78876362368464,196.23604322387837 87.3918934892863,168.19757958804257 78.54125194717199,162.25 70.21123637724668,169.04723305231892 67.60810651257634,196.23604322387837 72.03342728409916,201.61713875760324 79.32219090685248,202.18356942152604 84.78876362368464,195.95282745733857 87.3918934892863,168.48079743073322 78.80156493280083,162.25 70.21123637724668,168.76401525200345 67.34779352601618,195.38639586116187 76.45874805562198,202.75 84.78876362368464,196.51925896899775 87.65220647491515,169.61366858915426 79.8428168790415,162.25 70.21123637724668,168.76401525200345 67.34779352601618,195.66961167030968 75.67780909594148,202.75 84.52845063712448,197.08569039520808 87.65220647491515,169.89688632590696 80.10312986653298,162.25 70.21123637724668,168.48079743073322 67.34779352601618,195.38639586116187 75.15718312188983,202.75 84.52845063712448,197.08569039520808 87.91251946147531,170.46332173561677 80.88406882621348,162.53321828809567 70.47154936473817,167.91436172416434 67.34779352601618,194.81996418139897 75.67780909594148,202.75 84.52845063712448,197.08569039520808 87.65220647491515,169.89688632590696 79.8428168790415,162.25 70.47154936473817,167.91436172416434 67.34779352601618,195.38639586116187 75.93812208157033,202.75 84.78876362368464,196.23604322387837 87.65220647491515,170.1801040417049 79.58250389248133,162.25 70.21123637724668,169.04723305231892 67.34779352601618,195.66961167030968 75.93812208157033,202.75 84.78876362368464,196.51925896899775 87.65220647491515,169.33045083167963 79.32219090685248,162.25 70.21123637724668,169.04723305231892 67.34779352601618,195.10318003152497 70.73186235129833,200.7674926025793 77.76031298749149,202.46678472170606 84.78876362368464,196.23604322387837 87.65220647491515,169.61366858915426 78.80156493280083,162.25 70.21123637724668,169.04723305231892 67.34779352601618,194.81996418139897 75.15718312188983,202.75 84.52845063712448,197.08569039520808 87.91251946147531,171.02975706011057 80.62375583872199,162.53321828809567 70.73186235129833,167.631143839797 67.34779352601618,194.81996418139897 73.33499221596867,202.18356942152604 84.52845063712448,197.08569039520808 87.91251946147531,170.46332173561677 81.144381810911,162.53321828809567 71.25248832348734,166.49827208812349 67.08748053852469,193.97031650110148 70.47154936473817,200.7674926025793 77.5,202.75 83.74751167744398,198.50176859134808 87.91251946147531,172.1626274564769 82.706259730272,163.09965479862876 72.81436624284834,164.51574570708908 68.38904547225684,197.93533737654798 73.855618189089,202.46678472170606 80.88406882621348,201.33392339362763 86.09032855648547,187.73956102016382" stroke="#4dd2ff" stroke-linecap="round" stroke-linejoin="round" stroke-width="0.5"><title>2024-03-30 4.8km</title><desc>1711782999000</desc></polyline><polyline fill="none" points="110.85143481940031,178.7806660379283 112.62404256314039,197.51533118472435 117.94186579808593,201.92347384011373 126.04521549027413,201.37245629681274 132.1227277573198,193.38269265345298 131.6162684019655,165.2806276618503 119.4612438660115,163.07653506379575 112.87727224174887,170.51534229377285 112.87727224174887,196.688803849509 119.96770322043449,202.75 127.81782323401421,200.82143867062405 132.37595743592829,193.38269265345298 134.1485651805997,172.71943043963984 131.36303872335702,164.72960463585332 122.49999999906868,162.25 116.42248773109168,166.1071620453149 111.8643535291776,192.8316738321446 114.39665030874312,199.16838529892266 121.74031096696854,202.75 132.1227277573198,195.31125787831843 133.13564646895975,167.48471894022077 122.24677032139152,162.8010233968962 113.38373159617186,170.79085338371806 113.38373159617186,198.89287633099593 123.00645935535431,202.47449130075984 130.3501200126484,198.06634930474684 133.64210582431406,172.99494136497378 131.86949807964265,166.1071620453149 126.29844516608864,162.5255117090419 114.90310966409743,167.2092076027766 111.61112385150045,194.48473004810512 117.94186579808593,201.92347384011373 130.09689033497125,197.51533118472435 133.64210582431406,172.71943043963984 128.32428259029984,163.90306994249113 114.90310966409743,163.90306994249113" stroke="#4dd2ff" stroke-linecap="round" stroke-linejoin="round" stroke-width="0.5"><title>2024-03-28 2.0km</title><desc>1711615120000</desc></polyline><polyline fill="none" points="157.26319372002035,179.46255923132412 154.7039921488613,179.96880964795128 157.26319372002035,181.99381055659615 154.47133746091276,180.72818513051607 157.26319372002035,181.48756044334732 157.96115778479725,197.43440263648517 163.0795609243214,201.99062945926562 171.222475011833,202.2437529915478 178.20211565680802,193.63754226407036 179.36538909748197,167.05940036475658 173.78167658206075,162.7562529919669 166.80203593615443,162.7562529919669 158.65912184957415,171.86879389337264 157.0305390311405,194.90316286194138 165.871417183429,202.75 177.03884221613407,196.16878298553638 179.13273441046476,169.59066096926108 175.6429140875116,163.5156323374249 170.05920157022774,162.25 159.58974060136825,169.3375349934213 157.96115778479725,192.8781696781516 161.21832341887057,199.20626935223117 167.03469062410295,201.48438233789057 175.87556877639145,196.16878298553638 178.20211565680802,171.61566808866337 170.05920157022774,163.768758748658 160.75301404297352,169.59066096926108 159.1244312254712,194.6500387797132 167.5,201.48438233789057 176.5735328393057,194.6500387797132 177.9694609688595,168.83128298656084 169.59389219339937,163.2625059077982 160.75301404297352,170.35003878059797 158.89177653659135,193.89066642150283 166.10407187137753,201.48438233789057 176.34087815135717,194.6500387797132 177.9694609688595,170.6031646800693 168.66327344160527,162.7562529919669 160.98566872999072,169.59066096926108 158.4264671606943,193.89066642150283 166.5693812482059,201.48438233789057 176.80618752725422,194.6500387797132 178.6674250336364,170.6031646800693 170.52451094705611,163.2625059077982 161.21832341887057,169.3375349934213 158.65912184957415,193.63754226407036 160.28770466614515,198.95314559270628 166.10407187137753,200.9781351403799 176.5735328393057,195.40941096819006 178.6674250336364,172.12191967945546 170.75716563500464,164.27501151314937 160.98566872999072,169.08440899918787 158.65912184957415,194.6500387797132 167.03469062410295,201.2312587480992 176.5735328393057,194.90316286194138 178.43477034568787,169.59066096926108 169.82654688227922,163.768758748658 160.98566872999072,170.35003878059797 158.65912184957415,194.1437905607745 167.03469062410295,201.48438233789057 174.47964064683765,200.47188786650077 177.9694609688595,195.6625349931419 180.52866253908724,171.36254226532765" stroke="#4dd2ff" stroke-linecap="round" stroke-linejoin="round" stroke-width="0.5"><title>2024-03-26 3.7km</title><desc>1711445960000</desc></polyline><polyline fill="none" points="21.58073669858277,258.3000406483188 30.514679399318993,267.75 41.18577762506902,261.540029499447 43.17109822481871,234.27003255928867 37.71146657504141,227.25 24.80688267480582,231.84002283401787 21.33257162477821,257.49004298099317 23.566057299263775,263.7000204504002 31.259174624457955,267.480001504533 40.68944747373462,262.08002735790797 43.667428374290466,235.62003725557588 38.70412687398493,227.52000150457025 25.55137789901346,232.92002735869028 22.325231924653053,248.5800566454418 25.303212823346257,263.7000204504002 31.755504773929715,266.6700058982242 37.71146657504141,264.24001798639074 42.922933149151504,237.2400422245264 38.70412687398493,229.41001147241332 31.507339699193835,228.60000732145272 26.544038198888302,232.6500262580812 23.317892224527895,256.4100458091125 28.777523873373866,265.860010109609 38.952291949652135,262.62002513650805 42.922933149151504,236.1600389922969 37.21513642370701,228.33000589790754 26.544038198888302,232.92002735869028 23.317892224527895,256.9500444356818 29.02568894904107,265.860010109609 38.70412687398493,262.62002513650805 41.18577762506902,231.3000204502605 32.74816507380456,227.79000298911706 25.799542972818017,234.81003449857235 23.566057299263775,260.19003449799493 28.033028648234904,265.32001281599514 34.981650749221444,265.5900114723481" stroke="#4dd2ff" stroke-linecap="round" stroke-linejoin="round" stroke-width="0.5"><title>2024-03-25 2.1km</title><desc>1711359274000</desc></polyline><polyline fill="none" points="82.63033338356763,263.85578976827674 87.40273652970791,237.37504431023262 81.91447291150689,229.06731782038696 69.50622473005205,234.51926557230763 66.881403000094,256.5865856455639 74.0400077207014,266.19231643225066 84.53929464146495,262.0384901652578 87.40273652970791,237.37504431023262 80.48275196738541,229.32693457440473 69.50622473005205,234.77888191887178 66.881403000094,258.1442735251039 74.51724803447723,266.19231643225066 84.77791479974985,261.25964718684554 87.40273652970791,236.33657958637923 80.24413181003183,229.32693457440473 69.50622473005205,234.51926557230763 67.12002315744758,258.403888103785 69.2676045736298,263.85578976827674 75.94896897859871,266.451930408366 85.01653495617211,260.2211896101944 87.40273652970791,237.89427655516192 81.19861243944615,229.32693457440473 69.50622473005205,233.48079999396577 67.12002315744758,258.403888103785 74.51724803447723,266.71154436608776 84.30067448504269,261.7788758587558 87.40273652970791,237.37504431023262 80.72137212473899,228.8077010475099 69.74484488833696,233.22118355124258 66.881403000094,258.9231172024738 69.2676045736298,264.11540392017923 76.42620929237455,266.97115830378607 85.25515511352569,259.96157516818494 87.16411637235433,236.07696335669607 79.76689149532467,228.8077010475099 73.08552709035575,230.10578471934423 69.02898441627622,235.29811455169693 67.35864331480116,260.2211896101944 76.66482945065945,266.451930408366 85.49377527181059,259.1827317236457 87.16411637235433,236.33657958637923 80.24413181003183,228.8077010475099 69.2676045736298,235.29811455169693 67.12002315744758,259.44234622386284 75.47172866482288,266.19231643225066 84.53929464146495,261.25964718684554 87.16411637235433,236.07696335669607 78.81241086684167,228.8077010475099 69.02898441627622,235.03849824517965 67.35864331480116,259.70196070545353 75.47172866482288,266.71154436608776 85.01653495617211,261.25964718684554 87.40273652970791,236.33657958637923 83.34619385562837,229.58655130909756 69.98346504569054,233.22118355124258 67.12002315744758,256.84620034042746 72.84690693300217,266.19231643225066 84.30067448504269,262.2981044522021 87.40273652970791,236.85581198707223 80.00551165267825,229.06731782038696 69.50622473005205,234.00003282236867 67.12002315744758,258.6635026624426 73.8013875624165,265.93270243611187 84.06205432768911,263.07694719778374 87.64135668799281,237.63466044235975 82.86895354092121,229.58655130909756 75.47172866482288,228.8077010475099 69.74484488833696,234.00003282236867 65.4496820550412,256.5865856455639 67.35864331480116,263.5961755979806 74.0400077207014,267.75 80.24413181003183,267.490386120975 85.97101558558643,262.0384901652578 89.55031794589013,238.15389264840633 83.10757369827479,227.76923376019113 75.23310850653797,227.25 68.31312394421548,232.9615670889616 65.4496820550412,257.88465892663226 72.84690693300217,266.97115830378607 85.25515511352569,264.8942462580744" stroke="#4dd2ff" stroke-linecap="round" stroke-linejoin="round" stroke-width="0.5"><title>2024-03-24 4.9km</title><desc>1711273464000</desc></polyline><polyline fill="none" points="111.08136542327702,256.5690677543171 113.13671964779496,263.77456173603423 118.84603693615645,267.50153524801135 125.468844990246,266.25921120890416 130.9497895874083,260.7929799151607 133.23351650312543,234.70402481220663 131.40653496980667,230.23161193262786 124.55535422451794,227.9954032341484 117.01905540376902,229.7346767964773 112.90834695659578,234.95249201823026 111.53811080753803,259.79911871347576 115.87719194591045,265.5138165622484 123.64186345785856,267.2530704771634 131.86328035313636,258.05986089468934 132.09165304433554,231.47394944750704 123.87023614998907,227.9954032341484 115.42044656351209,230.72854699473828 111.9948561899364,236.6917619369924 110.62462004087865,258.55679179285653 117.9325461704284,267.75 125.92559037450701,266.25921120890416 130.7214168952778,261.0414451688994 134.60375265125185,238.18256399896927 131.63490766193718,230.23161193262786 125.24047229904681,227.74693550821394 115.64881925471127,230.72854699473828 112.2232288820669,236.19482776685618 111.9948561899364,263.02916653174907 118.61766424495727,267.75 125.24047229904681,267.2530704771634 132.09165304433554,258.05986089468934 132.09165304433554,231.47394944750704 121.12976385187358,227.25 112.45160157326609,235.94636065443046 110.85299273300916,259.5506533659063 115.19207387138158,266.010746344924 122.50000000093132,267.00460568768904 131.86328035313636,258.3083263535518 132.77677111886442,232.71628649812192 129.1228080559522,228.49233863083646 121.35813654307276,227.74693550821394 112.2232288820669,236.4432948611211 111.30973811540753,261.5383756214287 123.64186345785856,266.75614088005386 131.63490766193718,258.3083263535518 131.63490766193718,231.47394944750704 122.95674538332969,227.49846776365303 112.90834695659578,233.2132211884018 110.39624734967947,260.0475840414874 114.96370117925107,265.7622814630158 123.64186345785856,267.2530704771634 131.63490766193718,258.8052572142333 131.1781622786075,229.9831443738658 122.27162730880082,227.49846776365303 115.87719194591045,230.72854699473828 110.85299273300916,249.3635581403505 113.82183772232383,264.5199567724485 127.9809445971623,265.26535164238885 133.4618891943246,237.4371630519163 128.437689980492,228.74080630065873 115.64881925471127,230.72854699473828 110.85299273300916,255.32673962507397 112.45160157326609,263.77456173603423 118.38929155282676,266.75614088005386 129.80792612954974,262.5322363025043 133.6902618855238,237.93409703532234 130.49304420407861,229.9831443738658 115.42044656351209,229.9831443738658 111.53811080753803,244.1457655588165 113.13671964779496,263.77456173603423 119.98790039401501,267.2530704771634 128.2093172883615,264.76842174795456 131.86328035313636,259.05372261744924 133.6902618855238,238.18256399896927 130.26467151287943,229.9831443738658 119.07440962735564,228.24387094192207 112.2232288820669,236.4432948611211 111.08136542327702,261.0414451688994 117.4758007870987,266.75614088005386 125.24047229904681,265.7622814630158 130.49304420407861,252.5936161072459 129.35118074622005,231.47394944750704 122.27162730880082,229.23774158605374 114.96370117925107,232.71628649812192 110.62462004087865,248.36969351908192" stroke="#4dd2ff" stroke-linecap="round" stroke-linejoin="round" stroke-width="0.5"><title>2024-03-22 5.0km</title><desc>1711100044000</desc></polyline><polyline fill="none" points="155.16929414588958,242.43755680741742 159.35708104074,263.9531455927063 166.3367258636281,267.4968765054364 173.31637068651617,265.47188786650077 177.9694672357291,260.1562869239133 179.59805102739483,248.5125604425557 176.57353827077895,231.30002181371674 167.0346903456375,228.00937945931219 160.28770035039634,236.6156680881977 159.35708104074,260.9156589983031 164.94079689867795,266.7375059078913 171.6877868939191,266.7375059078913 177.27150275278836,258.89066642173566 177.03884792514145,234.5906609685626 169.36123862024397,229.02188513986766 160.52035517711192,236.6156680881977 159.35708104074,260.1562869239133 163.5448679337278,265.72501151286997 169.82654827460647,266.9906294597313 176.57353827077895,257.87816967861727 177.50415758043528,233.83128298586234 170.9898224119097,228.26250590826385 160.52035517711192,234.33753499365412 158.42646173015237,258.6375422643032 167.96530965529382,266.23125874856487 174.0143351694569,264.9656405176502 178.2021220624447,257.87816967861727 178.4347768900916,232.05940036429092 175.6429189601913,228.26250590826385 166.8020355189219,227.25 158.8917713854462,234.8437869248446 157.49584242142737,259.90316286170855 167.96530965529382,267.75 177.50415758043528,258.3844180877786 179.83070585504174,236.10941642220132 176.34088344313204,227.5031265055295 161.91628414206207,229.52813786664046 156.33256828412414,255.09380207257345" stroke="#4dd2ff" stroke-linecap="round" stroke-linejoin="round" stroke-width="0.5"><title>2024-03-21 2.2km</title><desc>1711013104000</desc></polyline></svg>