<?xml version="1.0" encoding="utf-8" ?>
<svg baseProfile="full" height="300mm" version="1.1" viewBox="0,0,200,300" width="200mm" xmlns="http://www.w3.org/2000/svg" xmlns:ev="http://www.w3.org/2001/xml-events" xmlns:xlink="http://www.w3.org/1999/xlink"><defs /><rect fill="#222222" height="300" width="200" x="0" y="0" /><text fill="#FFFFFF" style="font-size:12px; font-family:Arial; font-weight:bold;" x="10" y="20">Over 2km Runs</text><text fill="#FFFFFF" style="font-size:4px; font-family:Arial" x="10" y="280">ATHLETE</text><text fill="#FFFFFF" style="font-size:9px; font-family:Arial" x="10" y="290">作怪</text><text fill="#FFFFFF" style="font-size:4px; font-family:Arial" x="120" y="280">STATISTICS</text><text fill="#FFFFFF" style="font-size:3px; font-family:Arial" x="120" y="285">Number: 11</text><text fill="#FFFFFF" style="font-size:3px; font-family:Arial" x="120" y="290">Weekly: 2.8</text><text fill="#FFFFFF" style="font-size:3px; font-family:Arial" x="141" y="285">Total: 54.3 km</text><text fill="#FFFFFF" style="font-size:3px; font-family:Arial" x="141" y="290">Avg: 4.9 km</text><text fill="#FFFFFF" style="font-size:3px; font-family:Arial" x="167" y="285">Min: 2.0 km</text><text fill="#FFFFFF" style="font-size:3px; font-family:Arial" x="167" y="290">Max: 11.8 km</text><polyline fill="none" points="25.796842152252793,42.849104495253414 25.172527519986033,74.7736411546357 30.479201881214976,84.28303421335295 37.97097744978964,85.64151730947196 46.711382281035185,83.94341337494552 52.95452858693898,75.79250564938411 55.76394442655146,42.169856595108286 50.45727006532252,35.03774751117453 40.78039328940213,33.0 27.981943357735872,43.18872840679251 25.796842152252793,76.1321270968765 39.84392134286463,86.32075870549306 52.95452858693898,75.79250564938411 55.1396297942847,43.867976155132055 47.647854225710034,34.69812298961915 41.09255060367286,34.01887386967428 27.981943357735872,43.867976155132055 24.54821288958192,74.09439803124405 30.479201881214976,83.60379251278937 39.53176402673125,86.32075870549306 53.26668590307236,75.45288417697884 56.076101740822196,45.226471344707534 44.21412375755608,33.33962464868091 32.35214577242732,35.71699647861533 27.045471411198378,42.50948055787012 25.172527519986033,76.81136991572566 38.59529208019376,85.9811380202882 52.64237127266824,76.81136991572566 55.76394442655146,42.50948055787012 51.39374201186001,36.056620923569426 41.71686523593962,33.33962464868091 27.357628727331758,43.18872840679251 25.172527519986033,77.49061263189651 38.59529208019376,87.0 52.33021395839751,77.49061263189651 55.76394442655146,41.830232607899234 41.40470791980624,33.67924927244894 27.981943357735872,41.49060859461315 24.23605557344854,76.1321270968765 34.849404295906425,87.0 43.277651811018586,85.9811380202882 51.70589932613075,77.49061263189651 55.451787112280726,42.50948055787012 51.39374201186001,36.056620923569426 40.78039328940213,33.33962464868091 27.045471411198378,43.52835229341872 24.8603702057153,77.49061263189651 30.16704456694424,84.62265502498485 38.59529208019376,86.66037936555222 52.33021395839751,77.83023395319469 56.076101740822196,43.52835229341872 52.01805664226413,36.39624534291215 41.40470791980624,33.67924927244894 27.357628727331758,41.49060859461315 23.923898259177804,74.09439803124405 34.22508966550231,85.9811380202882 43.9019664414227,85.9811380202882 51.70589932613075,79.1887189806439 56.388259056955576,49.98120130831376 50.14511274918914,34.69812298961915 31.415673825889826,36.056620923569426 26.421156782656908,44.54722380056046 25.484684836119413,78.50947651686147 32.6643030885607,85.64151730947196 41.40470791980624,86.32075870549306 53.57884321734309,74.4340196067933 55.76394442655146,44.54722380056046 50.76942737959325,36.39624534291215 38.59529208019376,33.33962464868091 27.045471411198378,42.50948055787012 24.23605557344854,76.1321270968765 38.28313476592302,87.0 52.64237127266824,77.49061263189651 55.76394442655146,43.18872840679251 52.33021395839751,37.07549410732463 41.71686523593962,33.0 32.35214577242732,36.39624534291215 26.421156782656908,45.226471344707534 26.733314096927643,75.79250564938411 38.90744939632714,84.28303421335295 50.76942737959325,76.47174851899035 52.95452858693898,43.52835229341872 42.65333718247712,35.03774751117453 26.108999464660883,46.24534247070551 23.611740943044424,72.05666805128567" stroke="#4dd2ff" stroke-linecap="round" stroke-linejoin="round" stroke-width="0.5"><title>2024-04-08 5.0km</title><desc>1712568268000</desc></polyline><polyline fill="none" points="84.62289853394032,52.877377193188295 87.97236618027091,78.38654720503837 96.19378676638007,83.0245623306837 106.24218970164657,80.37426856788807 112.94112499244511,71.76080288621597 112.02763381786644,37.63806265871972 98.02076911740005,33.0 86.75437794439495,44.926437022630125 86.14538382738829,78.05526022519916 93.75781029462814,84.0184220818337 106.85118382051587,82.3619890389964 112.33213087543845,72.75466516637243 112.63662793673575,37.969352663261816 95.58479264751077,34.32516125566326 86.14538382738829,48.90190889197402 85.84088676981628,77.06139913480729 94.67130147106946,83.68713552318513 106.24218970164657,82.3619890389964 112.94112499244511,72.75466516637243 112.33213087543845,37.306772629963234 96.19378676638007,34.32516125566326 87.0588750038296,43.93256849749014 84.92739559337497,75.40496348892339 98.32526617497206,85.01228161109611 112.02763381786644,74.7423890568316 114.15911322832108,43.601278939982876 108.9826632309705,35.31903193681501 100.76124264486134,33.662580678006634 92.23532500118017,35.98161226720549 87.66786912083626,43.26998935663141 85.84088676981628,76.39882495021448 91.32183382473886,83.0245623306837 103.19721911475062,83.68713552318513 112.33213087543845,74.7423890568316 113.24562205187976,40.28838199726306 102.89272205717862,33.331290350994095 87.97236618027091,42.27612045966089 85.23189265094697,74.7423890568316 90.4083426501602,82.3619890389964 98.02076911740005,84.0184220818337 111.72313676029444,76.73011205531657 114.76810734719038,44.926437022630125 110.50514852441847,36.97548257675953 100.15224852785468,34.32516125566326 90.7128397077322,38.96322252671234 86.44988088682294,47.24546271376312 85.84088676981628,79.71169487992302 90.7128397077322,85.01228161109611 101.37023676373065,85.34356807149015 111.72313676029444,74.41110180388205 114.76810734719038,42.93869974906556 101.06573970429599,33.99387097870931 87.97236618027091,42.607410117052495 84.31840147450566,76.06753782136366 94.97579853050411,86.6687136637047 111.72313676029444,75.0736762851011 114.46361028775573,43.601278939982876 108.67816617153585,34.987741734599695 100.76124264486134,33.662580678006634 87.36337206326425,43.26998935663141 85.53638971038163,76.06753782136366 99.54325441084802,84.34970861650072 111.72313676029444,73.74852722301148 114.15911322832108,41.28225134056993 101.06573970429599,34.32516125566326 87.36337206326425,43.93256849749014 85.23189265094697,74.7423890568316 91.32183382473886,82.3619890389964 100.45674558728933,84.34970861650072 112.02763381786644,73.74852722301148 114.15911322832108,41.28225134056993 108.67816617153585,35.31903193681501 97.10727794282138,34.32516125566326 86.14538382738829,48.23933049524203 85.23189265094697,79.38040799810551 90.4083426501602,85.34356807149015 102.89272205717862,84.68099512625486 112.33213087543845,72.75466516637243 112.63662793673575,38.63193259644322 98.93426029384136,33.0 87.0588750038296,43.93256849749014 85.23189265094697,75.0736762851011 94.0623073540628,83.68713552318513 102.89272205717862,83.35584893869236 112.63662793673575,72.4233777653426 114.15911322832108,41.94483077782206 108.9826632309705,35.31903193681501 98.62976323440671,33.99387097870931 86.75437794439495,44.926437022630125 86.44988088682294,77.3926861891523 94.97579853050411,85.01228161109611 106.24218970164657,83.35584893869236 113.55011911131442,64.14118466596119 110.50514852441847,38.96322252671234 93.14881617762148,36.64419249794446 84.92739559337497,55.19639872061089 86.14538382738829,81.69941564719193 93.14881617762148,86.33742730342783 104.7197044081986,84.0184220818337 112.63662793673575,72.09209033800289 115.07260440476239,45.920305324718356 112.02763381786644,37.63806265871972 101.37023676373065,34.32516125566326 92.23532500118017,36.97548257675953 84.92739559337497,54.865110005484894 86.14538382738829,81.69941564719193 92.84431911818683,86.00614091707394 105.02420146763325,83.68713552318513 112.63662793673575,72.09209033800289 112.33213087543845,38.63193259644322 96.49828382395208,33.99387097870931 86.44988088682294,47.576751998858526 87.0588750038296,78.38654720503837 96.49828382395208,86.00614091707394 107.15568087808788,85.34356807149015 112.94112499244511,77.3926861891523 113.24562205187976,39.95709216641262 95.28029558993876,33.99387097870931 85.84088676981628,46.58288406860083 84.31840147450566,77.72397321974859 89.19035441428423,85.01228161109611 99.84775147028267,86.6687136637047 112.63662793673575,74.07981452532113 113.85461617074907,40.950961583992466 96.80278088152409,34.32516125566326 85.53638971038163,47.90804125973955 84.62289853394032,79.71169487992302 90.4083426501602,85.67485450673848 100.15224852785468,86.33742730342783 109.28716028854251,81.69941564719193 113.55011911131442,73.08595254342072 114.76810734719038,40.950961583992466 98.02076911740005,33.662580678006634 85.84088676981628,45.25772648118436 84.62289853394032,78.38654720503837 90.10384559072554,84.68099512625486 101.37023676373065,87.0 112.33213087543845,78.05526022519916 114.76810734719038,42.27612045966089 110.50514852441847,36.31290239468217 98.93426029384136,33.662580678006634 86.75437794439495,43.26998935663141 83.404910299927,75.40496348892339 87.36337206326425,82.693275696598 96.19378676638007,86.33742730342783 111.72313676029444,78.05526022519916 115.07260440476239,44.926437022630125 101.67473382130265,33.662580678006634 87.97236618027091,42.27612045966089 84.62289853394032,74.7423890568316 99.23875735141337,86.33742730342783 112.94112499244511,78.38654720503837 115.9860955812037,46.58288406860083 110.20065146498382,37.306772629963234 101.67473382130265,34.32516125566326 87.36337206326425,43.26998935663141 84.31840147450566,75.73625066783279 88.88585735484958,83.0245623306837 99.23875735141337,86.33742730342783 113.24562205187976,76.39882495021448 115.37710146419704,46.58288406860083 111.41863970085979,38.63193259644322 101.06573970429599,33.662580678006634 87.0588750038296,43.601278939982876 84.92739559337497,76.73011205531657 89.79934853129089,83.35584893869236 99.23875735141337,86.00614091707394 112.02763381786644,77.72397321974859 114.76810734719038,45.25772648118436 100.76124264486134,34.32516125566326 87.0588750038296,44.926437022630125 84.62289853394032,77.06139913480729 99.84775147028267,85.34356807149015 112.63662793673575,75.73625066783279 115.37710146419704,44.26385803055018 99.84775147028267,33.99387097870931 86.75437794439495,44.926437022630125 84.92739559337497,75.73625066783279 99.54325441084802,85.34356807149015 112.33213087543845,76.39882495021448 114.46361028775573,43.93256849749014 108.06917205452919,35.650322115048766 99.23875735141337,34.32516125566326 87.36337206326425,45.58901591482572 84.31840147450566,76.06753782136366 97.7162720579654,86.33742730342783 112.33213087543845,79.04912109230645 116.59508969821036,46.91417340398766 111.11414264142513,36.64419249794446 93.75781029462814,35.650322115048766 86.75437794439495,45.920305324718356 84.92739559337497,71.76080288621597" stroke="#4dd2ff" stroke-linecap="round" stroke-linejoin="round" stroke-width="0.5"><title>2024-04-06 11.8km</title><desc>1712394949000</desc></polyline><polyline fill="none" points="147.10831068456173,80.33769597951323 159.03312330134213,87.0 170.31335145235062,77.53251250600442 174.1808582469821,47.026033834088594 170.31335145235062,36.85716348839924 158.38853883557022,34.051953993272036 150.65352524630725,39.31172041967511 146.14143398590386,70.87019502883777 154.52103204093874,84.19482051441446 170.31335145235062,78.58445650478825 174.50315047986805,45.272781900595874 168.37959805503488,36.50651239277795 157.7439543697983,35.45455895084888 150.3312330134213,41.064974582754076 146.46372622065246,73.67538248933852 154.8433242738247,84.5454680416733 169.34647475369275,79.98704813653603 173.53627377934754,45.974082752130926 166.44584465771914,35.80521012516692 156.13249320536852,35.80521012516692 150.00894078053534,42.11692676693201 146.46372622065246,72.62343738833442 153.2318631093949,83.84417296014726 169.6687669865787,79.63640026841313 173.85856601409614,45.974082752130926 164.5120912604034,35.10390775091946 149.68664854764938,41.41562533704564 145.49684952013195,75.77927198354155 157.42166213691235,85.24676301842555 170.63564368523657,77.18186445347965 174.1808582469821,46.32473313855007 169.99105921760201,37.90911661600694 161.93375339731574,34.40260527236387 148.7197718489915,42.46757744112983 145.49684952013195,73.3247341485694 156.13249320536852,84.89611554332078 170.95793591625988,76.8312163753435 173.85856601409614,45.623432339634746 161.61146116442978,34.40260527236387 149.36435631662607,42.11692676693201 146.46372622065246,74.37667909171432 157.42166213691235,85.24676301842555 170.95793591625988,76.8312163753435 173.53627377934754,43.51952931005508 160.6445844657719,34.75325652491301 149.36435631662607,42.46757744112983 146.78601845167577,75.42862379923463 159.3554155342281,84.89611554332078 171.60252038389444,76.12992013944313 174.1808582469821,44.57148094289005 162.578337861225,34.75325652491301 148.7197718489915,43.51952931005508 146.46372622065246,75.42862379923463 158.06624660268426,85.24676301842555 171.2802281510085,77.18186445347965 174.1808582469821,44.922131434548646 161.28916893154383,34.75325652491301 148.7197718489915,43.51952931005508 146.14143398590386,75.42862379923463 159.3554155342281,85.24676301842555 170.95793591625988,77.18186445347965 173.85856601409614,44.922131434548646 162.9006300959736,34.40260527236387 149.04206408187747,42.11692676693201 146.46372622065246,74.02603080309927 156.77707767300308,84.89611554332078 166.12355242483318,83.14287777384743 171.2802281510085,76.8312163753435 174.1808582469821,43.87017988041043 162.578337861225,34.40260527236387 149.68664854764938,41.76627606526017 146.14143398590386,74.02603080309927 155.8102009743452,84.89611554332078 170.63564368523657,78.23380853189155 173.85856601409614,45.272781900595874 163.54521456174552,33.70130268903449 150.00894078053534,41.064974582754076 146.14143398590386,74.37667909171432 157.0993699040264,84.89611554332078 167.09042912349105,82.79223014134914 171.92481261491776,75.77927198354155 173.21398154832423,43.16887871362269 160.32229223288596,34.051953993272036 148.7197718489915,42.81822809064761 146.46372622065246,76.480568270199 158.38853883557022,85.24676301842555 171.2802281510085,76.12992013944313 173.85856601409614,44.922131434548646 161.61146116442978,34.40260527236387 148.3974796179682,44.22083042562008 146.46372622065246,74.37667909171432 158.06624660268426,84.89611554332078 170.95793591625988,77.53251250600442 173.85856601409614,45.272781900595874 160.6445844657719,34.40260527236387 149.04206408187747,43.16887871362269 146.46372622065246,75.77927198354155 154.19873980805278,84.5454680416733 170.31335145235062,78.58445650478825 174.50315047986805,45.623432339634746 161.61146116442978,34.051953993272036 149.68664854764938,41.76627606526017 147.10831068456173,75.07797558931634 159.3554155342281,85.24676301842555 171.2802281510085,76.12992013944313 174.1808582469821,45.272781900595874 168.05730582028627,36.15586127247661 160.32229223288596,34.051953993272036 149.36435631662607,43.16887871362269 146.46372622065246,74.727327354718 159.3554155342281,85.24676301842555 170.95793591625988,78.58445650478825 173.85856601409614,44.22083042562008 161.61146116442978,33.35065135732293 150.3312330134213,39.6623713048175 146.46372622065246,74.727327354718 150.9758174791932,82.44158248323947 159.67770776711404,85.24676301842555 171.92481261491776,75.42862379923463 173.85856601409614,44.22083042562008 167.73501358926296,35.45455895084888 159.3554155342281,33.70130268903449 149.36435631662607,42.11692676693201 146.78601845167577,75.77927198354155 160.6445844657719,85.94805788993835 171.2802281510085,77.53251250600442 173.53627377934754,44.22083042562008 160.96687669865787,33.0 149.04206408187747,42.11692676693201 146.14143398590386,73.67538248933852 156.13249320536852,84.89611554332078 170.95793591625988,77.8831605319865 173.53627377934754,44.57148094289005 162.578337861225,34.051953993272036 154.19873980805278,35.10390775091946 149.04206408187747,43.51952931005508 146.46372622065246,74.727327354718 158.71083107031882,85.24676301842555 171.60252038389444,76.8312163753435 173.53627377934754,45.272781900595874 161.93375339731574,33.70130268903449 149.04206408187747,43.16887871362269 146.78601845167577,76.12992013944313 158.38853883557022,85.94805788993835 171.2802281510085,76.8312163753435 173.53627377934754,43.16887871362269 168.37959805503488,36.15586127247661 158.38853883557022,34.051953993272036 149.04206408187747,43.16887871362269 147.10831068456173,76.12992013944313 160.32229223288596,85.24676301842555 171.60252038389444,75.07797558931634 173.85856601409614,43.51952931005508 159.67770776711404,33.70130268903449 150.65352524630725,40.01302216295153 145.8191417530179,51.935135759878904 145.49684952013195,78.93510445207357" stroke="#4dd2ff" stroke-linecap="round" stroke-linejoin="round" stroke-width="0.5"><title>2024-04-03 9.7km</title><desc>1712137473000</desc></polyline><polyline fill="none" points="20.698278442025185,125.82360307639465 29.457042844966054,124.05889904126525 26.213056029751897,133.5882929833606 33.34982702508569,144.5294252568856 49.89415979012847,144.5294252568856 59.301721557974815,109.94124300638214 54.11134265176952,95.11765870265663 41.78419275023043,93.0 33.02542834356427,97.94120216043666 29.132644165307283,133.2353528109379 33.67422570846975,145.23530388670042 45.02817956544459,145.23530388670042 53.46254528872669,139.23533216351643 57.030930787324905,106.7647645752877 49.24536242708564,96.17648769775406 33.34982702508569,102.52945667644963 29.132644165307283,136.0588734569028 39.18900329619646,145.94118241174147 53.46254528872669,138.5294526363723 56.38213342241943,106.41182239633054 47.298970337957144,95.11765870265663 33.02542834356427,102.52945667644963 29.457042844966054,137.11769326310605 40.486598022282124,146.64706083061174 53.46254528872669,138.88239241344854 57.030930787324905,106.05888019036502 48.27216638252139,95.82354472531006 39.18900329619646,96.88237356115133 32.37663098052144,103.94122639810666 28.808245483785868,136.0588734569028 39.513401977717876,147.0 53.13814660720527,138.88239241344854 56.70653210580349,105.0000534132123 48.27216638252139,95.82354472531006 32.37663098052144,103.58828400727361 28.808245483785868,134.29417325137183 33.02542834356427,143.4706071135588 42.1085914298892,146.64706083061174 54.435741333290935,137.47063314635307 56.70653210580349,105.35299569834024 47.94776769913733,95.47060172725469 40.81099670380354,95.47060172725469 32.37663098052144,103.23534158989787 28.808245483785868,134.6471133446321 38.54020593315363,146.64706083061174 52.813747925683856,140.29415125772357 57.030930787324905,106.7647645752877 50.5429571531713,96.17648769775406 42.1085914298892,95.82354472531006 32.7010296639055,103.23534158989787 29.132644165307283,135.3529934543185 36.59381384216249,145.58824316272512 53.46254528872669,143.82354652089998" stroke="#4dd2ff" stroke-linecap="round" stroke-linejoin="round" stroke-width="0.5"><title>2024-04-02 3.0km</title><desc>1712049520000</desc></polyline><polyline fill="none" points="89.24039655737579,109.9930692827329 87.15789266489446,139.44758719345555 93.40540434233844,145.86713879927993 102.77667185664177,146.24475922854617 109.7183514982462,138.31472429819405 113.1891913190484,100.93010611692443 101.38833593018353,93.0 90.28164850361645,102.06297740293667 86.81080868281424,138.31472429819405 92.711236378178,145.48951834300533 102.4295878764242,146.24475922854617 109.7183514982462,137.937103276141 113.1891913190484,101.30772990733385 101.7354199104011,93.0 90.28164850361645,101.68535366887227 86.46372470073402,137.18186114775017 98.61166407354176,147.0 109.7183514982462,138.69234529184178 113.53627530112863,102.81822478538379 103.12375583872199,93.0 90.28164850361645,101.68535366887227 86.46372470073402,137.5594822266139 97.5704121273011,147.0 109.37126751616597,139.44758719345555 113.53627530112863,103.19584843423218 103.47083982266486,93.0 90.28164850361645,101.30772990733385 86.46372470073402,137.18186114775017 96.87624416314065,147.0 109.37126751616597,139.44758719345555 113.8833592813462,103.95109564717859 104.51209176890552,93.37762438412756 90.62873248569667,100.55248229857534 86.46372470073402,136.42661890853196 97.5704121273011,147.0 109.37126751616597,139.44758719345555 113.53627530112863,103.19584843423218 103.12375583872199,93.0 90.62873248569667,100.55248229857534 86.46372470073402,137.18186114775017 97.91749610938132,147.0 109.7183514982462,138.31472429819405 113.53627530112863,103.57347205514088 102.77667185664177,93.0 90.28164850361645,102.06297740293667 86.46372470073402,137.5594822266139 97.91749610938132,147.0 109.7183514982462,138.69234529184178 113.53627530112863,102.44060110859573 102.4295878764242,93.0 90.28164850361645,102.06297740293667 86.46372470073402,136.80424004187807 90.9758164677769,144.35665680328384 100.34708398394287,146.62237962847576 109.7183514982462,138.31472429819405 113.53627530112863,102.81822478538379 101.7354199104011,93.0 90.28164850361645,102.06297740293667 86.46372470073402,136.42661890853196 96.87624416314065,147.0 109.37126751616597,139.44758719345555 113.8833592813462,104.70634274650365 104.16500778496265,93.37762438412756 90.9758164677769,100.17485845275223 86.46372470073402,136.42661890853196 94.4466562885791,146.24475922854617 109.37126751616597,139.44758719345555 113.8833592813462,103.95109564717859 104.8591757491231,93.37762438412756 91.66998443193734,98.66436278354377 86.1166407186538,135.29375533480197 90.62873248569667,144.35665680328384 100.0,147.0 108.33001556992531,141.33569145482033 113.8833592813462,106.21683660848066 106.94167964160442,94.13287306483835 93.75248832441866,96.02099427580833 87.8520606290549,140.58044983493164 95.14082425273955,146.62237962847576 104.51209176890552,145.11189785785973 111.4537714086473,126.98608135990798" stroke="#4dd2ff" stroke-linecap="round" stroke-linejoin="round" stroke-width="0.5"><title>2024-03-30 4.8km</title><desc>1711782999000</desc></polyline><polyline fill="none" points="144.4685797598213,115.04088805057108 146.83205675147474,140.02044157963246 153.922487732023,145.8979651206173 164.72695398703218,145.1632750625722 172.8303036764264,134.51025687111542 172.155024535954,97.04083688277751 155.94832515530288,94.10204675188288 147.16969632171094,104.02045639185235 147.16969632171094,138.91840513283387 156.6236042957753,147.0 167.09043097868562,144.4285848941654 173.16794324852526,134.51025687111542 175.53142024204135,106.95924058649689 171.8173849657178,96.30613951478153 160.0,93.0 151.89665030874312,98.14288272708654 145.81913803890347,133.77556510968134 149.19553374499083,142.22451373189688 158.98708128929138,147.0 172.8303036764264,137.08167717140168 174.18086195923388,99.97962525347248 159.6623604297638,93.73469786252826 147.84497546218336,104.38780451193452 147.84497546218336,141.85716844163835 160.6752791404724,146.632655067835 170.46682668291032,140.75513240648434 174.8561410997063,107.32658848678693 172.4926641061902,98.14288272708654 165.06459355540574,93.36734894569963 149.87081288546324,99.61227680370212 145.48149846866727,135.97964006429538 153.922487732023,145.8979651206173 170.12918711267412,140.02044157963246 174.8561410997063,106.95924058649689 167.76571012102067,95.20409325696528 149.87081288546324,95.20409325696528" stroke="#4dd2ff" stroke-linecap="round" stroke-linejoin="round" stroke-width="0.5"><title>2024-03-28 2.0km</title><desc>1711615120000</desc></polyline><polyline fill="none" points="26.350924961268902,175.95007897517644 22.938656199723482,176.6250795305241 26.350924961268902,179.32508074236102 22.628449948504567,177.63758017402142 26.350924961268902,178.65008059120737 27.281543713063,199.91253684880212 34.106081234291196,205.9875059458427 44.96330001577735,206.32500398880802 54.26948754303157,194.85005635209382 55.8205187972635,159.41253381967545 48.37556877732277,153.67500398936681 39.0693812482059,153.67500398936681 28.212162466719747,165.82505852449685 26.04071870818734,196.5375504824333 37.828556245192885,207.0 52.71845628879964,198.2250439808704 55.51031254790723,162.78754795901477 50.8572187833488,154.68750978331082 43.41226876154542,153.0 29.45298746973276,162.45004665805027 27.281543713063,193.83755957102403 31.62443122640252,202.27502580313012 39.379587499424815,205.31250978377648 51.167425034567714,198.2250439808704 54.26948754303157,165.48755745147355 43.41226876154542,155.02501166495495 31.00401872396469,162.78754795901477 28.83257496729493,196.20005170628428 40.0,205.31250978377648 52.09804378636181,196.20005170628428 53.9592812936753,161.77504398208112 42.79185625910759,154.35000787721947 31.00401872396469,163.80005170730874 28.522368716076016,195.18755522882566 38.1387624964118,205.31250978377648 51.787837537005544,196.20005170628428 53.9592812936753,164.13755290675908 41.551031256094575,153.67500398936681 31.314224975183606,162.78754795901477 27.90195621550083,195.18755522882566 38.75917499884963,205.31250978377648 52.40825003758073,196.20005170628428 54.8899000454694,164.13755290675908 44.03268126398325,154.35000787721947 31.62443122640252,162.45004665805027 28.212162466719747,194.85005635209382 30.38360622152686,201.9375274570193 38.1387624964118,204.6375135204289 52.09804378636181,197.21254795743152 54.8899000454694,166.1625595728401 44.342887515202165,155.70001535094343 31.314224975183606,162.11254533240572 28.212162466719747,196.20005170628428 39.379587499424815,204.9750116642099 52.09804378636181,196.5375504824333 54.57969379611313,162.78754795901477 43.102062510326505,155.02501166495495 31.314224975183606,163.80005170730874 28.212162466719747,195.52505408111028 39.379587499424815,205.31250978377648 49.30618752911687,203.96251715556718 53.9592812936753,197.5500466574449 57.37155005335808,165.1500563537702" stroke="#4dd2ff" stroke-linecap="round" stroke-linejoin="round" stroke-width="0.5"><title>2024-03-26 3.7km</title><desc>1711445960000</desc></polyline><polyline fill="none" points="85.44098226726055,194.40005419775844 97.35290586948395,207.0 111.58103683590889,198.72003933228552 114.22813096828759,162.36004341207445 106.94862210191786,153.0 89.74251023493707,159.12003044551238 85.11009550094604,193.32005730783567 88.0880764015019,201.6000272668898 98.34556616842747,206.64000200573355 110.91926330141723,199.4400364770554 114.8899045009166,164.16004967410117 108.27216916717589,153.36000200593844 90.73517053574324,160.56003647809848 86.43364256806672,181.4400755269453 90.40428376756608,201.6000272668898 99.00733970105648,205.5600078641437 106.94862210191786,202.32002398185432 113.89724420197308,166.32005629921332 108.27216916717589,155.88001529639587 98.67645293474197,154.8000097614713 92.05871760100126,160.2000350104645 87.75718963518739,191.88006107881665 95.03669850155711,204.480013479013 108.60305593535304,200.16003351518884 113.89724420197308,164.88005198957399 106.2868485674262,154.44000786356628 92.05871760100126,160.56003647809848 87.75718963518739,192.6000592475757 95.36758526787162,204.480013479013 108.27216916717589,200.16003351518884 111.58103683590889,158.4000272671692 100.33088676817715,153.7200039853342 91.0660573001951,163.0800459976308 88.0880764015019,196.9200459974818 94.04403820075095,203.76001708768308 103.308867668733,204.12001529661939" stroke="#4dd2ff" stroke-linecap="round" stroke-linejoin="round" stroke-width="0.5"><title>2024-03-25 2.1km</title><desc>1711359274000</desc></polyline><polyline fill="none" points="166.84044451080263,201.80771969119087 173.20364870503545,166.50005908031017 165.8859638813883,155.42309042718261 149.34163297340274,162.6923540965654 145.84187066555023,192.11544752772897 155.38667695969343,204.92308857664466 169.38572618737817,199.38465355383232 173.20364870503545,166.50005908031017 163.97700262255967,155.76924609951675 149.34163297340274,163.03850922500715 145.84187066555023,194.19236470013857 156.02299737930298,204.92308857664466 169.7038863990456,198.3461962491274 173.20364870503545,165.11543944850564 163.6588424127549,155.76924609951675 149.34163297340274,162.6923540965654 146.160030875355,194.53851747186854 149.02347276359797,201.80771969119087 157.93195863813162,205.26924054464325 170.02204660885036,196.9615861470811 173.20364870503545,167.1923687402159 164.931483251974,155.76924609951675 149.34163297340274,161.30773332575336 146.160030875355,194.53851747186854 156.02299737930298,205.6153924879618 169.06756597943604,199.03850114531815 173.20364870503545,166.50005908031017 164.29516283236444,155.07693473016843 149.6597931832075,160.96157806832343 145.84187066555023,195.23082293663174 149.02347276359797,202.15387189388275 158.56827905587852,205.9615444052033 170.3402068167925,196.61543355789036 172.88548849709332,164.76928447559476 163.02252199314535,155.07693473016843 154.11403612047434,156.80771295912564 148.7053125537932,163.73081940272823 146.47819108515978,196.9615861470811 158.88643926754594,205.26924054464325 170.6583670284599,195.5769756315276 172.88548849709332,165.11543944850564 163.6588424127549,155.07693473016843 149.02347276359797,163.73081940272823 146.160030875355,195.9231282984838 157.29563821852207,204.92308857664466 169.38572618737817,198.3461962491274 172.88548849709332,164.76928447559476 161.7498811557889,155.07693473016843 148.7053125537932,163.3846643269062 146.47819108515978,196.26928094075993 157.29563821852207,205.6153924879618 170.02204660885036,198.3461962491274 173.20364870503545,165.11543944850564 167.79492514021695,156.1154017453082 149.97795339301229,160.96157806832343 146.160030875355,192.4616004540585 153.79587591066957,204.92308857664466 169.06756597943604,199.73080593626946 173.20364870503545,165.8077493160963 163.34068220295012,155.42309042718261 149.34163297340274,162.00004376331344 146.160030875355,194.88467021659017 155.06851674988866,204.5769365816377 168.74940576963127,200.76926293037832 173.52180891670287,166.84621392330155 167.1586047206074,156.1154017453082 157.29563821852207,155.07693473016843 149.6597931832075,162.00004376331344 143.9329094067216,192.11544752772897 146.47819108515978,201.4615674642846 155.38667695969343,207.0 163.6588424127549,206.65384816145524 171.2946874462068,199.38465355383232 176.0670905932784,167.53852353105322 167.47676493041217,153.69231168041006 156.9774780087173,153.0 147.75083192437887,160.61542278528214 143.9329094067216,193.84621190233156 153.79587591066957,205.9615444052033 170.3402068167925,203.19232834409922" stroke="#4dd2ff" stroke-linecap="round" stroke-linejoin="round" stroke-width="0.5"><title>2024-03-24 4.9km</title><desc>1711273464000</desc></polyline><polyline fill="none" points="24.77515389956534,252.09209033916704 27.51562619768083,261.69941564812325 35.128049248829484,266.6687136639375 43.95845998823643,265.0122816117946 51.26638611778617,257.72397322021425 54.31135533750057,222.93869974953122 51.87537996098399,216.97548257675953 42.74047229997814,213.9938709787093 32.6920738723129,216.31290239514783 27.21112927608192,223.26998935756274 25.384147744625807,256.3988249511458 31.169589262455702,264.01842208299786 41.52248461171985,266.33742730296217 52.48437380604446,254.07981452601962 52.78887072764337,218.63193259644322 41.8269815351814,213.9938709787093 30.56059541925788,217.63806265965104 25.99314158782363,225.58901591598988 24.16616005450487,254.74238905706443 33.910061560571194,267.0 44.567453833296895,265.0122816117946 50.96188919432461,258.05526022496633 56.138336868956685,227.5767519986257 52.17987688444555,216.97548257675953 43.653963066637516,213.66258067754097 30.86509234085679,217.63806265965104 26.297638511285186,224.9264370223973 25.99314158782363,260.7055553756654 34.82355232723057,267.0 43.653963066637516,266.33742730296217 52.78887072764337,254.07981452601962 52.78887072764337,218.63193259644322 38.17301847040653,213.0 26.602135431021452,224.595147539163 24.470656977966428,256.06753782136366 30.256098495796323,264.6809951264877 40.000000001862645,266.0061409168411 52.48437380604446,254.41110180481337 53.702361492440104,220.2883819974959 48.83041074126959,214.65645150770433 38.477515392005444,213.66258067754097 26.297638511285186,225.2577264814172 25.07965082116425,258.71783416182734 41.52248461171985,265.6748545067385 52.17987688444555,254.41110180481337 52.17987688444555,218.63193259644322 40.60899384506047,213.33129035145976 27.21112927608192,220.95096158445813 23.86166313290596,256.73011205531657 29.95160157419741,264.34970861743204 41.52248461171985,266.33742730296217 52.17987688444555,255.07367628556676 51.57088303938508,216.64419249864295 39.69550307840109,213.33129035145976 31.169589262455702,217.63806265965104 24.470656977966428,242.48474418721162 28.42911696434021,262.6932756968308 47.30792613141239,263.68713552318513 54.61585225909948,226.58288406929933 47.91691997461021,214.98774173436686 30.86509234085679,217.63806265965104 24.470656977966428,250.43565283319913 26.602135431021452,261.69941564812325 34.519055403769016,265.6748545067385 49.74390150606632,260.04298173682764 54.920349180698395,227.24546271376312 50.6573922727257,216.64419249864295 30.56059541925788,216.64419249864295 25.384147744625807,235.52768741175532 27.51562619768083,261.69941564812325 36.65053386054933,266.33742730296217 47.6124230530113,263.0245623306837 52.48437380604446,255.4049634898547 54.920349180698395,227.5767519986257 50.35289535112679,216.64419249864295 35.432546170428395,214.3251612558961 26.297638511285186,225.2577264814172 24.77515389956534,258.05526022496633 33.30106771737337,265.6748545067385 43.653963066637516,264.34970861743204 50.6573922727257,246.79148814291693 49.1349076628685,218.63193259644322 39.69550307840109,215.65032211481594 29.95160157419741,220.2883819974959 24.16616005450487,241.15959135862067" stroke="#4dd2ff" stroke-linecap="round" stroke-linejoin="round" stroke-width="0.5"><title>2024-03-22 5.0km</title><desc>1711100044000</desc></polyline><polyline fill="none" points="83.55905886180699,233.25007574330084 89.14277472160757,261.9375274570193 98.44896781817079,266.66250200755894 107.75516091659665,263.9625171555672 113.9592896476388,256.8750492320396 116.13073470257223,241.35008059022948 112.09805102832615,218.40002908511087 99.37958712689579,214.01250594574958 90.383600467816,225.48755745124072 89.14277472160757,257.88754533138126 96.58772919885814,265.65000787726603 105.58371585793793,265.65000787726603 113.02867033705115,255.1875552290585 112.71846389956772,222.78754795808345 102.4816514942795,215.36251351982355 90.69380690343678,225.48755745124072 89.14277472160757,256.8750492320396 94.7264905795455,264.3000153505709 103.10206436738372,265.9875059465412 112.09805102832615,253.8375595714897 113.33887677453458,221.77504398138262 104.65309654921293,214.35000787791796 90.69380690343678,222.4500466582831 87.90194897353649,254.85005635255948 100.62041287496686,264.97501166467555 108.68578022532165,263.28752069035545 114.26949608325958,253.8375595714897 114.57970252074301,219.41253381920978 110.85722528025508,214.35000787791796 99.069380691275,213.0 88.5223618466407,223.12504923320375 86.66112322919071,256.53755048220046 100.62041287496686,267.0 113.33887677453458,254.5125574504491 116.44094114005566,224.81255522975698 111.78784459084272,213.33750200737268 92.55504552274942,216.03751715575345 85.11009104549885,250.12506943009794" stroke="#4dd2ff" stroke-linecap="round" stroke-linejoin="round" stroke-width="0.5"><title>2024-03-21 2.2km</title><desc>1711013104000</desc></polyline></svg>