<?xml version="1.0" encoding="utf-8" ?>
<svg baseProfile="full" height="300mm" version="1.1" viewBox="0,0,200,300" width="200mm" xmlns="http://www.w3.org/2000/svg" xmlns:ev="http://www.w3.org/2001/xml-events" xmlns:xlink="http://www.w3.org/1999/xlink"><defs /><rect fill="#222222" height="300" width="200" x="0" y="0" /><text fill="#FFFFFF" style="font-size:12px; font-family:Arial; font-weight:bold;" x="10" y="20">Over 2km Runs</text><text fill="#FFFFFF" style="font-size:4px; font-family:Arial" x="10" y="280">ATHLETE</text><text fill="#FFFFFF" style="font-size:9px; font-family:Arial" x="10" y="290">作怪</text><text fill="#FFFFFF" style="font-size:4px; font-family:Arial" x="120" y="280">STATISTICS</text><text fill="#FFFFFF" style="font-size:3px; font-family:Arial" x="120" y="285">Number: 24</text><text fill="#FFFFFF" style="font-size:3px; font-family:Arial" x="120" y="290">Weekly: 4.0</text><text fill="#FFFFFF" style="font-size:3px; font-family:Arial" x="141" y="285">Total: 121.7 km</text><text fill="#FFFFFF" style="font-size:3px; font-family:Arial" x="141" y="290">Avg: 5.1 km</text><text fill="#FFFFFF" style="font-size:3px; font-family:Arial" x="167" y="285">Min: 2.0 km</text><text fill="#FFFFFF" style="font-size:3px; font-family:Arial" x="167" y="290">Max: 12.3 km</text><polyline fill="none" points="21.115079555660486,62.444472912698984 27.855364031158388,67.55555821512826 37.65941417589784,63.111136711901054 40.72317984700203,41.55559808854014 38.272167310118675,35.77779826708138 31.12338074669242,33.33334111375734 22.749087913893163,40.22226066561416 20.706577465869486,62.22225161315873 24.178845225833356,66.66667444631457 30.10212552268058,67.55555821512826 37.455163131468,62.6666941952426 38.47641835547984,40.4444836108014 31.736133879981935,34.22223485680297 22.136334779672325,40.666706539923325 21.115079555660486,61.77780896378681 30.71487865690142,66.44445346295834 37.863665221259,60.8889234662056 38.47641835547984,38.66669958271086 29.489372388459742,34.00001144595444 20.706577465869486,44.22227113833651 19.276820153929293,50.00005453499034 23.361841048114,65.11112721124664 30.10212552268058,66.8888954136055 35.20840163901448,64.2222427111119 38.68066939897835,40.4444836108014 33.37014223728329,34.22223485680297 22.95333895739168,38.000030297320336 20.910828511230648,57.55560048180632 26.62985776271671,65.77779041207395 36.43390790745616,62.00003029638901 39.089171489700675,40.22226066561416 34.18714641593397,34.22223485680297 28.876619254238904,33.77778801834211 23.56609209254384,38.66669958271086 21.523581645451486,60.444480617530644 25.200100449845195,65.11112721124664 30.91912970226258,65.77779041207395 39.089171489700675,58.22226537740789 33.98289537150413,32.0 22.340585824102163,38.22225340898149 20.09382433257997,58.666708558797836 27.03835985250771,68.0 37.65941417589784,63.111136711901054 40.31467775721103,42.00004376284778 37.65941417589784,36.222244806354865 31.736133879981935,33.33334111375734 26.425606718286872,34.44445825088769 21.319330600090325,40.22226066561416 19.88957328815013,60.444480617530644 27.03835985250771,67.55555821512826 33.57439328171313,66.8888954136055 37.65941417589784,62.6666941952426 40.11042671278119,40.666706539923325 32.144635969772935,33.11111763608642 21.727832689881325,38.44447650434449 20.09382433257997,59.33337320596911 23.974594181403518,65.11112721124664 29.693623433820903,66.66667444631457 38.68066939897835,58.666708558797836 39.90617566835135,39.11114568915218 37.455163131468,35.33335166145116 29.285121344961226,33.33334111375734 21.319330600090325,39.5555917294696 19.88957328815013,60.444480617530644 26.834108808077872,68.0 37.25091208703816,62.6666941952426 40.31467775721103,40.666706539923325 37.25091208703816,35.11112833349034 31.327631791122258,33.11111763608642 21.319330600090325,39.5555917294696 19.68532224278897,59.55559472111054 26.425606718286872,67.55555821512826 37.65941417589784,61.55558761465363 40.11042671278119,39.5555917294696 32.55313805863261,32.88889414211735 21.727832689881325,38.44447650434449 20.09382433257997,59.55559472111054 27.24261089693755,67.77777911582962 37.455163131468,61.77780896378681 39.293422534130514,40.22226066561416 31.940384925343096,33.55556457396597 21.523581645451486,39.5555917294696 20.09382433257997,60.00003770343028 23.15759000275284,65.77779041207395 29.080870299600065,67.33333729789592 37.046661041677,59.55559472111054 38.68066939897835,40.00003770389594 30.91912970226258,33.55556457396597 22.340585824102163,40.22226066561416 21.115079555660486,60.666702050482854 28.876619254238904,66.2222324621398 36.84240999724716,60.444480617530644 38.47641835547984,40.00003770389594 31.327631791122258,34.00001144595444 22.136334779672325,40.00003770389594 19.276820153929293,59.55559472111054" stroke="#4dd2ff" stroke-linecap="round" stroke-linejoin="round" stroke-width="0.5"><title>2024-04-28 5.8km</title><desc>1714295019000</desc></polyline><polyline fill="none" points="65.86220041103661,47.42861990421079 68.33822392858565,63.836754937656224 73.74045705609024,67.51020673825406 80.71834151167423,66.53061999497004 85.67038854584098,60.8979905298911 86.79585378058255,36.653083502547815 76.89175971318036,32.48979857494123 69.23859611619264,39.346970927901566 67.43785174097866,61.14288766426034 71.03934049140662,66.53061999497004 77.5670388545841,67.75510337855667 85.67038854584098,60.8979905298911 87.92131901532412,40.81636313488707 87.47113292198628,36.653083502547815 80.71834151167423,32.24489929713309 69.91387525759637,37.387780292658135 67.88803783431649,60.16329901618883 70.58915439806879,65.55103295738809 76.21648057177663,67.51020673825406 84.99510940443724,62.367373063229024 86.57076073344797,37.387780292658135 76.89175971318036,32.0 71.26443353947252,34.93879034998827 69.01350306905806,40.5714644799009 69.23859611619264,64.32654874958098 77.79213190171868,68.0 83.19436502829194,65.06123932939954 87.24603987392038,40.5714644799009 81.84380674734712,32.73469783458859 75.7662944784388,32.48979857494123 70.36406135186553,36.89798245043494 67.66294478718191,58.938812791602686 74.8659222908318,67.75510337855667 84.99510940443724,62.1224760201294 87.24603987392038,38.61227457714267 80.04306237027049,32.24489929713309 70.13896830473095,37.387780292658135 67.88803783431649,59.18371007312089 74.41573619656265,67.51020673825406 85.22020245157182,61.63268187921494 87.24603987392038,39.1020721627865 83.19436502829194,32.73469783458859 71.93971267994493,34.204093009699136 67.43785174097866,59.42860733671114 74.64082924462855,67.51020673825406 84.77001635823399,61.87757895910181 87.24603987392038,39.346970927901566 81.84380674734712,32.48979857494123 75.99138752557337,32.0 69.91387525759637,37.14288138062693 67.88803783431649,59.18371007312089 73.96555010322481,67.02041340293363 83.86964416876435,63.34696105308831 87.0209468267858,40.081667114049196 80.71834151167423,32.73469783458859 73.96555010322481,33.46939550456591 67.88803783431649,39.346970927901566 65.41201431769878,59.42860733671114" stroke="#4dd2ff" stroke-linecap="round" stroke-linejoin="round" stroke-width="0.5"><title>2024-04-26 3.3km</title><desc>1714123626000</desc></polyline><polyline fill="none" points="112.83404484018683,51.38466758932918 116.43986108992249,63.61540708364919 120.68199785519391,67.07692832499743 126.40888248663396,66.61539238435216 130.86312609072775,61.53849247423932 133.1963013112545,45.15389486285858 132.55998079665005,39.38464963505976 127.2573098409921,34.076934496639296 116.01564741227776,38.692339482717216 113.89457903150469,59.692344980780035 120.2577841784805,66.15385637409054 130.65101925190538,61.76926083327271 132.55998079665005,39.84618965070695 124.92413462046534,33.15385267045349 115.80354057531804,38.461569397710264 113.89457903150469,59.92311347858049 119.40935682598501,65.92308834288269 130.01469873730093,62.000029175076634 132.3478739578277,39.38464963505976 124.28781410586089,33.38462315313518 115.37932689860463,39.15387960174121 114.31879270728678,60.61541886627674 118.34882263373584,65.92308834288269 125.13624145742506,66.38462438737042 130.43891241401434,62.000029175076634 132.55998079665005,40.07695963210426 125.56045513413846,32.92308217124082 116.01564741227776,37.76925903791562 114.10668586939573,59.23080793512054 121.5304252076894,66.38462438737042 131.0752329286188,59.92311347858049 132.3478739578277,39.15387960174121 124.71202778164297,32.692311653867364 114.31879270728678,38.23079929524101 113.89457903150469,42.61542829172686 114.10668586939573,62.692334096180275 118.98514314927161,67.30769627005793 125.77256197202951,66.84616036340594 132.3478739578277,59.92311347858049 132.77208763547242,37.30771871190518 123.01517307572067,32.0 117.92460895702243,33.15385267045349 114.31879270728678,39.15387960174121 112.83404484018683,61.076955704251304 117.92460895702243,66.84616036340594 123.65149359032512,68.0 131.9236602820456,61.30772409820929 133.83262182585895,39.84618965070695 127.68152351677418,32.2307705685962 120.04567734058946,32.0 115.37932689860463,35.46155671728775 113.04615167807788,61.76926083327271" stroke="#4dd2ff" stroke-linecap="round" stroke-linejoin="round" stroke-width="0.5"><title>2024-04-25 3.0km</title><desc>1714037269000</desc></polyline><polyline fill="none" points="159.9833669019863,57.71432611113414 167.86161765269935,67.02041340293363 177.99079718906432,63.836754937889054 180.91700461134315,40.57146448013373 175.5147755248472,33.7142946915701 167.4114318965003,33.959193860180676 164.2601315965876,37.387780292890966 161.78410993143916,60.163299015956 167.4114318965003,67.26531008025631 178.4409829461947,63.59185800445266 181.14209748897702,41.30616039130837 177.99079718906432,34.9387903502211 167.4114318965003,33.7142946915701 158.40771675296128,44.48984076664783 163.5848529599607,64.81634248746559 170.7878250759095,68.0 176.1900541605428,66.0408265129663 180.01663309615105,37.387780292890966 168.98708204645663,32.97959707630798 158.85790250916034,41.06126177217811 162.45938856713474,63.59185800445266 167.18633901700377,67.51020673848689 175.28968264628202,66.28572326246649 180.01663309615105,60.40819620527327 181.14209748897702,40.32656580605544 176.1900541605428,33.22449630009942 168.76198916789144,32.97959707630798 163.80994583759457,37.387780292890966 161.33392417337745,58.69391549262218 167.18633901700377,67.26531008025631 178.6660758247599,63.10206408286467 181.14209748897702,39.83676840364933 173.2638467401266,32.73469783482142 163.13466720283031,38.6122745773755 160.8837384171784,59.67350458097644 167.18633901700377,67.51020673848689 177.31551855336875,65.55103295738809 181.36719036847353,40.57146448013373 174.61440401151776,32.48979857517406 164.48522447422147,36.163285550428554 161.33392417337745,58.938812791602686 167.18633901700377,67.02041340293363 177.76570431143045,64.32654874958098 181.59228324703872,42.28575468272902 179.79154021851718,35.183689426397905 171.23801083210856,32.0 164.48522447422147,36.653083502547815 161.78410993143916,60.65309337642975 168.53689628839493,67.51020673848689 179.34135446045548,63.10206408286467 181.14209748897702,39.346970927901566 173.2638467401266,32.48979857517406 163.3597600813955,37.63267918629572 161.33392417337745,61.87757895933464 170.33763931691647,67.51020673848689 179.566447339952,61.87757895933464 180.46681885421276,37.387780292890966 171.91328946780413,32.48979857517406 163.3597600813955,38.36737575707957 161.78410993143916,61.38778478070162 169.21217492502183,67.26531008025631 179.34135446045548,61.87757895933464 180.69191173184663,38.36737575707957 171.01291795261204,32.48979857517406 163.80994583759457,37.63267918629572 161.78410993143916,61.38778478070162 171.68819658830762,68.0 179.566447339952,60.40819620527327 180.91700461134315,38.36737575707957 170.7878250759095,32.73469783482142 163.3597600813955,39.59186967485584 162.00920280907303,61.38778478070162 171.23801083210856,67.26531008025631 179.566447339952,60.8979905298911 181.14209748897702,39.346970927901566 177.09042567573488,33.7142946915701 170.56273219641298,32.73469783482142 163.3597600813955,39.346970927901566 163.3597600813955,62.85716709494591" stroke="#4dd2ff" stroke-linecap="round" stroke-linejoin="round" stroke-width="0.5"><title>2024-04-22 4.9km</title><desc>1713776322000</desc></polyline><polyline fill="none" points="20.093830260448158,83.11115765850991 21.72783763986081,101.11114486632869 31.3276309967041,106.22223246260546 37.25090774707496,100.22225916897878 37.65940959285945,78.44447650411166 27.038361623883247,73.11111763585359 20.910833951085806,80.88892945158295 20.910833951085806,102.88891546218656 26.01710701175034,107.11111636459827 32.75738745275885,107.33333729812875 38.68066420406103,99.77781622065231 38.47641328256577,76.88891448988579 28.059616236947477,73.33334111352451 21.115084872581065,80.22226066607982 21.115084872581065,102.88891546218656 24.587350553832948,106.44445346295834 33.165889298543334,107.11111636459827 38.47641328256577,101.11114486632869 39.2934169722721,77.5555840244051 30.306376383639872,72.66667063115165 21.932088563218713,78.44447650411166 19.685328415594995,99.77781622065231 22.953343174420297,105.77779041184112 29.489372693933547,107.55555821559392 38.27216236013919,101.33336624852382 39.70191881712526,79.11114568915218 29.89787453878671,73.33334111352451 21.523586717434227,79.11114568915218 20.29808118380606,100.88892346643843 23.974597787484527,106.00001144595444 30.306376383639872,107.55555821559392 38.47641328256577,100.88892346643843 39.2934169722721,77.77780716936104 30.714878228493035,72.66667063115165 21.523586717434227,79.55559172993526 20.706583027727902,102.44447291293181 24.791601477190852,106.6666744465474 31.940383763983846,107.55555821559392 38.884915127418935,100.44448061822914 39.2934169722721,78.000030297786 30.10212546121329,73.11111763585359 23.974597787484527,75.33335166145116 21.319335795007646,80.00003770366311 19.889579337090254,100.00003770273179 23.1575940977782,105.55556936189532 29.080870849080384,108.0 38.47641328256577,101.11114486632869 39.90616973955184,78.44447650411166 30.714878228493035,73.11111763585359 21.523586717434227,79.33336871769279 20.093830260448158,101.11114486632869 29.285121770575643,108.0 37.863660514354706,102.88891546218656 40.518922506831586,83.33338038809597 38.884915127418935,76.88891448988579 34.595645755529404,74.00001144572161 22.953343174420297,76.22224480635487 19.481077493168414,98.22226537810639 23.1575940977782,105.33334829495288 30.306376383639872,107.55555821559392 36.229653134942055,104.44446386094205 40.518922506831586,83.33338038809597 35.82115129008889,74.00001144572161 24.587350553832948,74.44445825112052 20.706583027727902,80.88892945158295 20.706583027727902,103.11113671213388 28.876619926653802,108.0 35.20839852280915,105.77779041184112 38.884915127418935,100.00003770273179 40.110420661978424,80.44448361126706 30.919129150919616,72.0 21.72783763986081,78.66669958294369 19.889579337090254,100.88892346643843 29.489372693933547,108.0 38.47641328256577,102.00003029685467 40.110420661978424,80.00003770366311 31.3276309967041,73.11111763585359 21.319335795007646,78.44447650411166 19.481077493168414,98.6667085592635" stroke="#4dd2ff" stroke-linecap="round" stroke-linejoin="round" stroke-width="0.5"><title>2024-04-21 5.0km</title><desc>1713688153000</desc></polyline><polyline fill="none" points="77.31706454837695,78.98780071304645 78.0487621659413,84.20651101670228 80.24385501816869,84.914130979334 82.27634839946404,83.76424832479097 83.49584442842752,75.27277256397065 82.35764813516289,73.06144074315671 79.83735634200275,72.53072049061302 78.0487621659413,73.85752067517024 76.99186560790986,82.17210126493592 79.43085766537115,84.82567850733176 82.76414681132883,83.05662767402828 83.49584442842752,74.83050653070677 81.05685237050056,72.44226709217764 77.80486296024173,74.299787072232 77.07316534314305,82.4374592571985 79.83735634200275,84.914130979334 82.76414681132883,82.9681750627933 83.49584442842752,74.83050653070677 80.48775422386825,72.44226709217764 77.80486296024173,74.47669358504936 77.07316534314305,82.52591190778185 79.83735634200275,84.914130979334 82.84544654609635,82.79126982064918 83.49584442842752,74.74205330433324 80.73165343003348,72.44226709217764 77.80486296024173,74.3882403319003 77.15446507837623,82.70281718974002 79.83735634200275,84.914130979334 82.84544654609635,82.79126982064918 83.49584442842752,74.83050653070677 80.24385501816869,72.44226709217764 77.72356322500855,74.6536000710912 77.15446507837623,82.87972244503908 79.83735634200275,84.914130979334 82.76414681132883,82.9681750627933 83.41454469319433,74.74205330433324 80.40645448863506,72.44226709217764 77.72356322500855,74.47669358504936 77.07316534314305,82.61436455196235 79.99995581246912,84.914130979334 82.84544654609635,82.61436455196235 83.41454469319433,74.74205330433324 80.1625552829355,72.44226709217764 77.72356322500855,74.56514683132991 77.31706454837695,83.23353287624195 79.59345713583753,84.914130979334 82.19504866423085,83.94115342141595 83.41454469319433,76.33421036903746 81.70725025283173,72.70762726804242 77.96746243117377,74.03442725376226 76.99186560790986,82.08364858746063 78.69916004827246,84.56032105104532 80.812953164801,84.82567850733176 82.5202476051636,83.4104380523786 83.49584442842752,75.18431937065907 81.46335104713216,72.53072049061302 78.21136163640767,73.59216075728182 77.47966401930898,83.49889063031878 80.812953164801,84.82567850733176 82.92674628132954,82.08364858746063 83.41454469319433,74.56514683132991 79.99995581246912,72.53072049061302 77.64226348977536,74.74205330433324 77.31706454837695,83.23353287624195 79.99995581246912,84.914130979334 82.76414681132883,82.9681750627933 83.49584442842752,74.83050653070677 80.65035369433463,72.44226709217764 77.72356322500855,74.56514683132991 77.31706454837695,83.23353287624195 80.56905395910144,84.82567850733176 82.92674628132954,82.08364858746063 83.08934575226158,73.94597396778408 80.73165343003348,72.44226709217764 78.13006190164015,73.68061406980269 76.99186560790986,82.08364858746063 78.37396110733971,84.47186855238397 74.79677275568247,88.00996333756484 74.87807249091566,92.78637450479437 68.78059234656394,93.31708566576708 67.47979658283293,94.64386252616532 66.09770108340308,103.48900355189107 62.7644119374454,106.67323812493123 65.28470373060554,108.0 62.52051273174584,106.49633642926347 66.17900081863627,102.51604127755854 67.3171971119009,94.37850727315526 74.71547302091494,92.34411502210423 76.26016799034551,85.97556012962013 85.7722370158881,87.12544063385576 90.81282060174271,82.4374592571985 86.34133516252041,85.62175051879603 83.17064548749477,85.44484567362815 83.41454469319433,74.21133380604442 82.43894786993042,72.53072049061302 80.08125554770231,72.0 77.3983642840758,74.47669358504936 76.7479664022103,83.23353287624195 80.1625552829355,85.09103590389714 82.68284707562998,82.4374592571985 83.25194522272795,74.12288053322118 82.19504866423085,72.3538136871066 79.43085766537115,72.26536027516704 77.23576481360942,74.91895975056104 76.7479664022103,83.76424832479097 80.08125554770231,85.00258344516624 82.43894786993042,82.34900659951381 83.17064548749477,74.03442725376226 82.03244919376448,72.44226709217764 79.51215740060434,72.26536027516704 76.82926613744348,75.98039787332527 76.34146772604436,82.52591190778185 77.3983642840758,84.56032105104532 79.99995581246912,85.09103590389714 82.27634839946404,83.23353287624195 83.25194522272795,75.0958661705954 81.13815210619941,72.08845343173016 77.64226348977536,73.68061406980269 76.34146772604436,82.61436455196235 78.78045978350565,84.914130979334 82.43894786993042,82.52591190778185 83.33324495796114,74.47669358504936 82.11374892899767,72.44226709217764 80.48775422386825,72.08845343173016 76.66666666651145,75.44967893115245 76.17886825511232,83.05662767402828 79.75605660676956,85.09103590389714 82.5202476051636,82.4374592571985 83.00804601702839,74.03442725376226 80.32515475340188,72.08845343173016 76.99186560790986,74.6536000710912 76.34146772604436,82.79126982064918 79.43085766537115,85.17948835634161 82.5202476051636,82.34900659951381 83.00804601702839,73.94597396778408 80.24385501816869,72.08845343173016 77.15446507837623,74.12288053322118 76.34146772604436,82.52591190778185 79.43085766537115,85.00258344516624 82.35764813516289,82.9681750627933 83.08934575226158,74.12288053322118 80.24385501816869,72.08845343173016 76.82926613744348,74.74205330433324 76.50406719604507,82.61436455196235 79.51215740060434,85.00258344516624 82.43894786993042,82.52591190778185 83.25194522272795,74.12288053322118 80.65035369433463,72.08845343173016 77.07316534314305,74.12288053322118 76.01626878464594,82.34900659951381 79.26825819490477,85.00258344516624 82.43894786993042,83.05662767402828 83.00804601702839,74.12288053322118 79.99995581246912,72.08845343173016 76.91056587221101,74.6536000710912 76.26016799034551,82.9681750627933 79.43085766537115,85.00258344516624 82.5202476051636,82.52591190778185 83.08934575226158,74.3882403319003 80.32515475340188,72.17690685670823 76.99186560790986,74.03442725376226 76.0975685203448,82.08364858746063 79.26825819490477,84.82567850733176 82.5202476051636,82.4374592571985 83.17064548749477,74.21133380604442 80.1625552829355,72.08845343173016 77.07316534314305,74.12288053322118 76.17886825511232,82.34900659951381 79.34955793060362,84.914130979334 82.60154734039679,82.70281718974002 83.25194522272795,74.6536000710912 80.56905395910144,72.17690685670823 77.15446507837623,74.12288053322118 76.17886825511232,82.34900659951381 79.10565872490406,85.09103590389714 82.43894786993042,82.61436455196235 83.41454469319433,74.47669358504936 82.35764813516289,72.61917388252914 80.32515475340188,72.17690685670823 76.99186560790986,74.03442725376226 76.17886825511232,82.4374592571985 79.10565872490406,84.914130979334 82.60154734039679,82.52591190778185 83.00804601702839,74.21133380604442 82.19504866423085,72.70762726804242 79.91865607677028,72.17690685670823 76.7479664022103,74.21133380604442 76.34146772604436,82.61436455196235 79.67475687107071,84.914130979334 82.35764813516289,83.05662767402828 83.00804601702839,73.85752067517024 80.08125554770231,72.08845343173016 77.15446507837623,72.79608064657077 76.17886825511232,74.299787072232" stroke="#4dd2ff" stroke-linecap="round" stroke-linejoin="round" stroke-width="0.5"><title>2024-04-18 12.3km</title><desc>1713432540000</desc></polyline><polyline fill="none" points="132.92904310673475,99.12003753241152 131.60549693088979,76.80002334038727 122.56126473098993,72.48000265751034 115.72294282354414,78.96003150078468 114.39939664769918,102.24002714664675 121.23771855514497,107.52000265661627 127.41426737513393,106.32000898569822 131.16431487258524,101.28003066475503 132.04667898919433,76.80002334038727 126.75249428674579,72.48000265751034 120.57594546768814,72.72000395902433 115.28176076617092,78.72003066539764 114.39939664769918,101.52002981258556 118.37003517523408,107.04000524245203 124.32599296513945,108.0 131.3849059017375,100.32003389624879 132.70845207758248,78.96003150078468 123.66421987768263,72.0 115.28176076617092,79.20003231754526 114.17880561947823,101.28003066475503 120.35535443946719,107.52000265661627 130.5025417841971,102.48002622113563 132.70845207758248,80.4000361324288 130.5025417841971,75.12001598835923 123.66421987768263,72.0 115.50235179439187,78.48002981254831 114.17880561947823,101.52002981258556 120.57594546768814,107.76000133738853 127.41426737513393,106.08001019759104 130.72313281334937,101.28003066475503 132.04667898919433,78.48002981254831 122.34067370276898,72.0 115.72294282354414,78.96003150078468 114.39939664769918,101.76002894109115 123.44362884853035,108.0 130.94372384343296,100.80003231670707 131.60549693088979,78.00002805306576 127.41426737513393,73.68000898580067 119.47299032099545,73.20000650826842 115.72294282354414,79.20003231754526 114.84057870693505,102.48002622113563 124.98776605259627,107.04000524245203 130.94372384343296,98.1600401175674 131.3849059017375,77.28002527961507 125.42894811090082,72.96000524237752 119.47299032099545,73.92001019814052 114.84057870693505,85.44004725501873 116.60530694108456,105.60001256759278 123.8848109068349,107.28000395861454 129.620177667588,102.96002431842498 132.04667898919433,80.16003540507518 129.3995866375044,75.12001598835923 123.44362884853035,73.20000650826842 115.72294282354414,75.84001924702898 113.73762356024235,80.64003684208728" stroke="#4dd2ff" stroke-linecap="round" stroke-linejoin="round" stroke-width="0.5"><title>2024-04-17 3.1km</title><desc>1713344929000</desc></polyline><polyline fill="none" points="162.24484372604638,80.10003756918013 160.17680205311626,97.65004413272254 164.93329790141433,104.17502045910805 170.51701041776687,105.7500126240775 177.13474377058446,101.02503365511075 179.40958961006254,79.65003605373204 171.96463958919048,73.12500652228482 163.07206039503217,79.20003447169438 161.83123539108783,100.35003605415113 169.4829895813018,106.20001023402438 177.54835210554302,101.02503365511075 179.2027854444459,80.10003756918013 171.34422708675265,73.12500652228482 163.07206039503217,80.10003756918013 161.62443122453988,99.67503830092028 169.06938124727458,105.52501379372552 177.54835210554302,100.57503527076915 179.2027854444459,80.32503830105998 172.99866042472422,73.80001023411751 163.4856687290594,78.7500328226015 161.62443122453988,100.12503681937233 169.27618541382253,105.7500126240775 177.54835210554302,100.35003605415113 179.40958961006254,80.77503971522674 172.17144375666976,73.57500901352614 163.4856687290594,78.97503365529701 161.83123539108783,99.22503971401602 164.10608123242855,103.50002356455661 170.10340208280832,105.7500126240775 177.54835210554302,100.57503527076915 179.2027854444459,78.97503365529701 170.31020625121891,73.35000777663663 163.4856687290594,78.97503365529701 162.03803955949843,100.35003605415113 169.89659791626036,106.4250090138521 177.34154793806374,100.80003447085619 179.40958961006254,79.65003605373204 171.96463958919048,73.35000777663663 163.89927706494927,79.20003447169438 161.62443122453988,99.22503971401602 165.34690623544157,104.62501830467954 170.93061875272542,105.97501143696718 177.54835210554302,100.57503527076915 178.78917710948735,79.42503527132794 170.72381458524615,73.35000777663663 163.89927706494927,79.20003447169438 162.24484372604638,99.22503971401602 167.62175207585096,105.7500126240775 177.13474377058446,100.80003447085619 179.40958961006254,80.77503971522674 171.7578354217112,73.35000777663663 163.89927706494927,78.7500328226015 162.03803955949843,98.77504106098786 167.62175207585096,105.7500126240775 177.13474377058446,101.25003282167017 179.82319794595242,80.55003901640885 172.585052090697,74.02501143771224 163.89927706494927,78.7500328226015 161.62443122453988,99.45003901585005 168.86257707886398,106.20001023402438 177.34154793806374,100.57503527076915 179.2027854444459,79.42503527132794 172.17144375666976,73.57500901352614 166.79453540686518,74.7000149472151 163.89927706494927,79.20003447169438 162.03803955949843,100.80003447085619 169.68979374878109,106.20001023402438 177.75515627209097,100.12503681937233 179.2027854444459,79.20003447169438 170.72381458524615,73.80001023411751 163.4856687290594,79.42503527132794 162.24484372604638,100.35003605415113 169.4829895813018,105.7500126240775 177.54835210554302,99.90003756829537 179.2027854444459,79.65003605373204 171.96463958919048,73.57500901352614 163.89927706494927,78.52503197267652 161.83123539108783,100.57503527076915 168.65577291231602,105.97501143696718 176.9279396031052,101.25003282167017 179.40958961006254,79.87503681983799 170.93061875272542,73.57500901352614 162.65845206100494,77.85002932138741 160.17680205311626,99.45003901585005 166.17412290535867,106.65000777621754 172.3782479232177,106.87500652275048 178.16876460704952,102.82502651819959 180.0300021134317,84.60004901466891 175.27350626513362,72.6750039642211 169.68979374878109,72.0 163.89927706494927,76.27502254652791 159.76319371908903,95.85004817298613 162.03803955949843,105.3000149463769 167.2081437408924,108.0 174.23948542866856,106.65000777621754 180.23680627997965,98.10004295501858" stroke="#4dd2ff" stroke-linecap="round" stroke-linejoin="round" stroke-width="0.5"><title>2024-04-15 5.9km</title><desc>1713172666000</desc></polyline><polyline fill="none" points="33.463749836198986,115.81285964883864 33.70824982505292,123.08386033237912 35.50124974036589,124.76859802869149 37.86474962858483,124.59125733131077 39.98374952888116,122.10848478204571 40.39124950906262,114.03943808190525 36.72374968230724,112.0 33.95274981344119,114.92614919715561 33.626749828923494,122.64050790888723 35.093749759253114,124.59125733131077 37.13124966342002,124.8572683671955 40.065249525010586,122.46316689322703 40.14674952114001,113.33006871235557 37.13124966342002,112.08867129404098 34.52324978634715,113.77342461806256 33.463749836198986,122.01981423760299 35.41974974423647,124.67992768308613 38.27224960969761,124.59125733131077 40.14674952114001,122.72917840688024 40.71724949404597,114.48279372265097 37.86474962858483,112.17734258121345 34.03424980957061,114.57146483066026 33.38224984053522,121.66513199394103 35.827249724883586,124.8572683671955 39.73924954002723,123.34987170668319 40.71724949404597,114.74880702700466 38.43524960195646,112.3546851357678 34.52324978634715,113.77342461806256 33.463749836198986,122.28582585090771 35.74574972875416,124.8572683671955 39.49474955163896,123.70455344638322 40.798749490175396,115.28083345736377 39.16874956758693,112.53202766401228 37.212749659549445,112.17734258121345 34.604749782476574,113.59608227584977 33.54524983279407,121.84247312904336 35.582749736495316,124.76859802869149 39.49474955163896,123.70455344638322 40.14674952114001,113.33006871235557 36.39774969778955,112.3546851357678 34.115749805700034,114.74880702700466 33.70824982505292,122.72917840688024 37.212749659549445,124.8572683671955 40.065249525010586,122.55183740437496 40.55424950225279,114.57146483066026 37.62024964019656,112.26601386175025 34.115749805700034,114.57146483066026 33.54524983279407,122.72917840688024 36.47924969391897,124.8572683671955 39.820749536622316,122.64050790888723 40.55424950225279,114.66013593226671 37.37574965180829,112.08867129404098 34.19724980182946,114.39412260765675 33.54524983279407,122.81784889823757 36.2347497055307,124.8572683671955 38.598249594215304,124.5025869726669 40.065249525010586,122.64050790888723 40.63574949791655,114.39412260765675 37.5387496445328,112.17734258121345 34.19724980182946,114.48279372265097 33.70824982505292,122.46316689322703 36.39774969778955,124.8572683671955 39.73924954002723,123.26120125502348 40.71724949404597,114.48279372265097 37.5387496445328,112.17734258121345 34.27874979842454,114.12810922332574 33.626749828923494,122.19715532008559 36.071749713271856,124.8572683671955 39.73924954002723,123.17253079707734 40.63574949791655,114.8374781155726 38.02774962130934,112.26601386175025 34.44174979021773,113.86209577939007 33.54524983279407,122.64050790888723 36.2347497055307,124.94593869941309 39.820749536622316,123.26120125502348 40.63574949791655,114.74880702700466 38.02774962130934,112.26601386175025 33.463749836198986,114.03943808190525 32.97474985988811,123.08386033237912 31.018749952316284,126.45333333034068 32.07824990199879,132.48289268498775 24.8247502441518,134.07894738053437 22.70575034432113,142.67987180198543 19.201250509824604,146.49263276788406 23.520750306081027,148.0" stroke="#4dd2ff" stroke-linecap="round" stroke-linejoin="round" stroke-width="0.5"><title>2024-04-14 5.4km</title><desc>1713087921000</desc></polyline><polyline fill="none" points="65.97474533692002,136.2449414881412 71.15188619121909,146.53061999403872 80.8308886596933,147.0204134027008 85.78293643333018,138.93881279206835 86.00802951399237,115.91838654712774 76.32902704551816,112.73469783482142 69.80132770724595,119.102072162088 68.00058306194842,141.14288766426034 71.82716543413699,146.04082651273347 77.9046786101535,147.26531007955782 85.3327502720058,140.65309337619692 86.90840183664113,118.12247691815719 77.00430628843606,112.24489929620177 69.57623462658376,119.59186967485584 68.00058306194842,141.38778478070162 76.10393396578729,147.0204134027008 85.1076571913436,141.8775789581705 87.5836810786277,120.5714644792024 79.70542325545102,112.24489929620177 70.47660694923252,117.1428813803941 68.4507692232728,140.89799052942544 76.32902704551816,147.5102067377884 84.88256411068141,142.6122700877022 87.13349491730332,119.83676840318367 78.57995785214007,112.48979857447557 70.25151386857033,118.12247691815719 67.77548998128623,140.40819620504044 74.97846856247634,148.0 85.1076571913436,142.12247602036223 87.5836810786277,120.81636313488707 80.60579557809979,112.73469783482142 70.47660694923252,117.87757806130685 68.22567614261061,139.91840180684812 75.42865472380072,147.0204134027008 84.88256411068141,142.85716709471308 87.35858799703419,119.83676840318367 78.80505093373358,112.24489929620177 70.47660694923252,117.63267918629572 68.22567614261061,140.16329901479185 73.62791007850319,147.0204134027008 81.28107482101768,146.53061999403872 85.3327502720058,142.36737306322902 87.13349491730332,119.34697092790157 78.80505093373358,112.24489929620177 70.47660694923252,117.3877802924253 68.4507692232728,141.38778478070162 76.10393396578729,148.0 85.78293643333018,141.38778478070162 87.13349491730332,118.12247691815719 78.3548647724092,112.24489929620177 69.80132770724595,118.61227457690984 67.77548998128623,140.89799052942544 76.32902704551816,147.5102067377884 85.3327502720058,141.14288766426034 87.35858799703419,119.34697092790157 78.3548647724092,112.0 70.25151386857033,117.3877802924253 68.22567614261061,139.18371007288806 73.62791007850319,147.0204134027008 85.3327502720058,142.12247602036223 87.13349491730332,118.12247691815719 79.93051633611321,112.24489929620177 70.25151386857033,117.3877802924253 68.4507692232728,140.89799052942544 74.52828240115196,147.26531007955782 84.88256411068141,142.6122700877022 87.35858799703419,120.81636313488707 79.93051633611321,112.0 70.25151386857033,117.1428813803941 68.22567614261061,140.16329901479185 75.42865472380072,147.26531007955782 84.88256411068141,142.6122700877022 87.5836810786277,119.102072162088 81.95635406300426,112.97959707607515 74.07809623889625,112.97959707607515 67.10021073929965,127.91841617063619 66.87511765863746,140.16329901479185 65.74965225532651,135.26535137346946" stroke="#4dd2ff" stroke-linecap="round" stroke-linejoin="round" stroke-width="0.5"><title>2024-04-13 4.9km</title><desc>1713000859000</desc></polyline><polyline fill="none" points="112.90091577731073,127.13380947289988 114.58696305844933,143.64333458943292 119.64510490465909,146.85350970248692 127.4430735828355,146.39491346362047 130.81516814604402,137.91087066824548 131.44743587635458,117.50321209034882 122.17417582683265,113.37580394907854 115.21923078969121,120.71341458009556 113.95469532813877,140.43315611430444 117.9590576235205,145.01912433560938 124.07097901869565,145.7070189770311 130.39365632552654,140.20385752338916 131.65819178707898,117.50321209034882 122.38493173662573,113.37580394907854 115.21923078969121,121.85991465463303 114.37620714865625,140.43315611430444 122.59568764735013,146.1656153188087 130.18290041480213,140.8917532453779 132.29045951832086,119.79621421173215 124.70324674993753,113.14650333323516 116.27301033958793,118.42041314439848 114.58696305844933,139.97455891454592 121.96341991703957,145.93631715606898 130.18290041480213,140.43315611430444 132.29045951832086,119.56691407691687 124.91400265973061,112.9172027008608 116.27301033958793,118.87901356909424 114.58696305844933,140.43315611430444 122.38493173662573,146.1656153188087 130.18290041480213,141.12105178507045 132.29045951832086,118.87901356909424 123.64946719817817,112.9172027008608 116.06225443072617,119.3376139246393 115.00847487896681,141.8089473012369 125.12475857045501,145.93631715606898 130.81516814604402,139.0573643099051 131.2366799665615,114.7516072797589 120.48812854569405,112.4586013846565 114.58696305844933,120.2548144296743 113.32242759782821,141.8089473012369 118.59132535289973,147.08280779630877 124.07097901869565,147.54140393226407 132.07970360759646,140.66245468822308 132.50121542718261,115.89810958434828 122.59568764735013,112.0 114.37620714865625,118.87901356909424 112.90091577731073,141.8089473012369 116.90527807176113,147.31210587290116 123.86022310890257,147.7707019748632 132.29045951832086,139.74526028940454 133.1334831584245,117.27391178393736 121.54190809652209,112.6879020514898 113.74393941834569,120.02551432931796 112.90091577731073,141.5796488125343 121.12039627600461,148.0 131.2366799665615,142.2675442257896 134.18726270925254,120.4841145137325 129.1291208639741,112.6879020514898 118.59132535289973,113.60510454676114 113.74393941834569,121.17201466136612 114.58696305844933,142.0382457722444 124.49249084014446,146.62421159190126 130.60441223531961,140.66245468822308 132.50121542718261,120.02551432931796 128.70760904438794,114.29300623829477 123.22795537859201,112.6879020514898 115.42998670041561,119.3376139246393 114.79771896917373,140.20385752338916 122.17417582683265,145.93631715606898 130.60441223531961,140.66245468822308 132.29045951832086,119.56691407691687 124.70324674993753,112.9172027008608 115.85149852000177,119.3376139246393 114.79771896917373,140.43315611430444 121.12039627600461,146.39491346362047 127.86458540242165,145.01912433560938 131.02592405676842,140.43315611430444 132.71197133790702,119.56691407691687 125.12475857045501,112.9172027008608 114.58696305844933,119.79621421173215 112.47940395679325,138.36946817603894" stroke="#4dd2ff" stroke-linecap="round" stroke-linejoin="round" stroke-width="0.5"><title>2024-04-12 5.1km</title><desc>1712913892000</desc></polyline><polyline fill="none" points="152.33333333372138,120.57089550502133 152.0,125.6481607313035 154.13333333353512,128.0417194024194 157.46666666679084,126.51854638621444 158.33333333348855,119.84556973085273 157.73333333339542,118.32238383888034 155.86666666693054,117.45199082617182 153.1333333333023,118.97517808555858 152.4000000001397,125.72069289890351 154.13333333353512,127.82412340369774 157.533333333442,126.37348216457758 158.26666666660458,119.84556973085273 156.19999999995343,117.52452360716416 153.26666666707024,118.8301127353916 152.46666666702367,125.6481607313035 154.6666666669771,127.96918740827823 157.4000000001397,126.73614267772064 158.33333333348855,120.13570010563126 156.19999999995343,117.45199082617182 153.26666666707024,118.8301127353916 152.46666666702367,125.57562855805736 154.06666666688398,127.82412340369774 157.4000000001397,126.73614267772064 158.2000000004191,119.70050451083807 156.06666666688398,117.59705638268497 153.26666666707024,118.75758005207172 152.46666666702367,125.28549981117249 153.86666666693054,127.67905937734758 155.86666666693054,127.82412340369774 157.533333333442,126.51854638621444 158.26666666660458,120.20823268569075 157.60000000032596,118.24985111760907 154.13333333353512,117.74212191725383 152.9333333335817,119.55543926928658 152.0,126.59107848885469 159.06666666665114,129.2022305704886 161.33333333325572,128.476911253063 164.13333333353512,125.72069289890351 168.19999999995343,127.02627099078381 169.1333333333023,128.91210290871095 168.93333333334886,134.13438753940864 172.73333333339542,139.21158174338052 179.2666666668374,141.60510693327524 186.0,142.54800917388638 188.0,141.2424519812339 187.80000000004657,129.0571667504264 186.93333333334886,129.41982625983655 186.66666666674428,131.81337562022964" stroke="#4dd2ff" stroke-linecap="round" stroke-linejoin="round" stroke-width="0.5"><title>2024-04-11 3.0km</title><desc>1712828151000</desc></polyline><polyline fill="none" points="21.35425255820155,159.66455110465176 20.50035157520324,180.8000333942473 23.70248025842011,186.14194570016116 29.67978713195771,187.76774327387102 39.49964842572808,181.49680508556776 40.99397514387965,158.73551561543718 32.02801483217627,152.0 23.275529766455293,156.41292567458004 20.71382682118565,180.33551884675398 27.33155943173915,187.30322976852767 35.01666826941073,186.37420254875906 39.072697933763266,182.19357662112452 41.20745038893074,160.3613275398966 34.16276728827506,152.6967781551648 27.545034676790237,153.16129683866166 23.062054521404207,157.80647984752432 20.073401085101068,180.1032615462318 28.82588614989072,188.0 39.072697933763266,183.1226050911937 41.84787612594664,163.61294883536175 40.99397514387965,156.8774438018445 36.93794547859579,153.3935561538674 28.82588614989072,152.23225940275006 23.915955502539873,154.78711168235168 18.15212387498468,163.61294883536175 20.71382682118565,180.56777612888254 24.98333173058927,186.8387161931023 33.09539105929434,187.53548652934842 38.85922268871218,182.65809089131653 40.780499898828566,161.98713861336 35.443618760444224,152.6967781551648 29.039361394941807,152.0 23.275529766455293,155.48388921190053 20.71382682118565,180.33551884675398 26.47765844874084,187.30322976852767 34.16276728827506,187.07097298954614 39.71312367077917,180.56777612888254 41.634400880895555,161.2903625429608 38.432272197678685,155.2516300524585 32.24149007815868,152.23225940275006 23.062054521404207,156.1806665849872 20.50035157520324,179.87100422848016 26.69113369472325,187.07097298954614 34.16276728827506,186.8387161931023 39.926598915830255,180.8000333942473 41.420925633981824,161.2903625429608 35.65709400549531,152.6967781551648 24.769856485538185,153.62581545230933 21.567727802321315,159.89680993393995 21.35425255820155,182.89034799975343 31.814539587125182,187.53548652934842 39.072697933763266,180.8000333942473 39.926598915830255,159.89680993393995 36.93794547859579,154.55485247145407 30.960638605058193,153.16129683866166 23.275529766455293,159.20003339461982 21.567727802321315,180.1032615462318 30.320212868973613,187.07097298954614 38.64574744272977,181.49680508556776 40.14007416181266,161.52262125024572 38.00532170571387,155.94840747769922 32.24149007815868,153.16129683866166 23.275529766455293,158.9677745134104 20.50035157520324,180.33551884675398 28.82588614989072,188.0 34.589717778377235,187.53548652934842 37.151420725509524,183.1226050911937 39.926598915830255,161.0581038184464 33.09539105929434,153.62581545230933 27.758509921841323,154.09033399634063 23.4890050124377,159.20003339461982 21.567727802321315,179.40648954198696 29.039361394941807,186.60645937989466 38.00532170571387,182.65809089131653 39.926598915830255,159.89680993393995 32.66844056919217,153.3935561538674 23.70248025842011,159.20003339461982 21.781203048303723,179.87100422848016 28.82588614989072,186.8387161931023 38.2187969526276,181.03229064284824 39.926598915830255,159.89680993393995 31.814539587125182,153.62581545230933 23.275529766455293,159.43229225859977 21.567727802321315,180.1032615462318 30.53368811495602,187.07097298954614 38.00532170571387,181.9613194600679 39.71312367077917,159.20003339461982 32.45496532320976,153.62581545230933 23.4890050124377,158.03873881534673 20.927302066236734,179.87100422848016 27.971985167823732,186.8387161931023 38.00532170571387,182.65809089131653 40.780499898828566,161.0581038184464 32.66844056919217,153.62581545230933 27.118084185756743,154.55485247145407 21.567727802321315,160.8258450764697 19.859925838187337,179.40648954198696" stroke="#4dd2ff" stroke-linecap="round" stroke-linejoin="round" stroke-width="0.5"><title>2024-04-09 5.6km</title><desc>1712653834000</desc></polyline><polyline fill="none" points="67.19789476785809,158.56606966350228 66.78168501425534,179.84909410309047 70.3194679217413,186.1886894754134 75.31398496683687,187.09434487274848 81.14092152006924,185.96227558329701 85.30301905889064,180.5283370995894 87.17596295103431,158.11323772999458 83.63818004354835,153.3584983407054 77.18692885991186,152.0 68.65462890546769,158.79248560452834 67.19789476785809,180.75475139776245 76.56261422857642,187.5471724702511 85.30301905889064,180.5283370995894 86.75975319743156,159.2453174367547 81.76523615140468,153.13208199315704 77.39503373671323,152.6792492463719 68.65462890546769,159.2453174367547 66.36547525972128,179.3962653542403 70.3194679217413,185.7358616751153 76.35450935084373,187.5471724702511 85.51112393569201,180.30192278441973 87.38406782783568,160.1509808965493 79.47608250565827,152.22641643229872 71.56809718254954,153.81133098574355 68.03031427506357,158.33965370524675 66.78168501425534,181.2075799438171 75.73019472043961,187.32075868011452 85.09491418208927,181.2075799438171 87.17596295103431,158.33965370524675 84.26249467488378,154.037747282302 77.81124349031597,152.22641643229872 68.23841915186495,158.79248560452834 66.78168501425534,181.66040842118673 75.73019472043961,188.0 84.8868093052879,181.66040842118673 87.17596295103431,157.88682173844427 77.60313861258328,152.4528328482993 68.65462890546769,157.6604057296645 66.15737038198858,180.75475139776245 73.23293619789183,188.0 78.85176787432283,187.32075868011452 84.47059955075383,181.66040842118673 86.96785807423294,158.33965370524675 84.26249467488378,154.037747282302 77.18692885991186,152.22641643229872 68.03031427506357,159.01890152902342 66.57358013745397,181.66040842118673 70.11136304493994,186.41510334983468 75.73019472043961,187.77358624362387 84.8868093052879,181.8868226353079 87.38406782783568,159.01890152902342 84.6787044275552,154.26416356186382 77.60313861258328,152.4528328482993 68.23841915186495,157.6604057296645 65.94926550611854,179.3962653542403 72.81672644335777,187.32075868011452 79.26797762792557,187.32075868011452 84.47059955075383,182.79247932019643 87.59217270463705,163.32080087205395 83.43007516581565,153.13208199315704 70.9437825512141,154.037747282302 67.61410452146083,159.69814920029603 66.9897898901254,182.33965101116337 71.77620205935091,187.09434487274848 77.60313861258328,187.5471724702511 85.71922881156206,179.62267973762937 87.17596295103431,159.69814920029603 83.84628492034972,154.26416356186382 75.73019472043961,152.22641643229872 68.03031427506357,158.33965370524675 66.15737038198858,180.75475139776245 75.52208984363824,188.0 85.09491418208927,181.66040842118673 87.17596295103431,158.79248560452834 84.8868093052879,154.71699607139453 77.81124349031597,152.0 71.56809718254954,154.26416356186382 67.61410452146083,160.1509808965493 67.8222093982622,180.5283370995894 75.9382995981723,186.1886894754134 83.84628492034972,180.9811656794045 85.30301905889064,159.01890152902342 78.43555812165141,153.3584983407054 67.40599964372814,160.83022831380367 65.74116062931716,178.0377787007019" stroke="#4dd2ff" stroke-linecap="round" stroke-linejoin="round" stroke-width="0.5"><title>2024-04-08 5.0km</title><desc>1712568268000</desc></polyline><polyline fill="none" points="113.08193235658109,165.25158479553647 115.31491078622639,182.25769813661464 120.79585784394294,185.3497082204558 127.49479313474149,183.5828457120806 131.96074999589473,177.8405352574773 131.35175587888807,155.09204177255742 122.01384607795626,152.0 114.50291862990707,159.95095801516436 114.09692255128175,182.03684015013278 119.17187353037298,186.01228138781153 127.9007892133668,184.90799269266427 131.55475391820073,178.50311011075974 131.7577519575134,155.31290177535266 120.38986176531762,152.88344083726406 114.09692255128175,162.60127259464934 113.89392451383173,181.37426608987153 119.78086764831096,185.79142368212342 127.49479313474149,184.90799269266427 131.96074999589473,178.50311011075974 131.55475391820073,154.8711817532312 120.79585784394294,152.88344083726406 114.70591666921973,159.28837899840437 113.28493039589375,180.26997565920465 122.21684411726892,186.6748544073198 131.35175587888807,179.82825937122107 132.77274215314537,159.06751929339953 129.3217754876241,153.54602129128762 123.84082843083888,152.4417204519268 118.156883334741,153.98774151154794 115.11191274784505,158.84665957116522 113.89392451383173,180.93254996673204 117.54788921680301,185.3497082204558 125.46481274347752,185.79142368212342 131.55475391820073,179.82825937122107 132.1637480352074,156.85892133158632 125.26181470509619,152.22086023399606 115.31491078622639,158.1840803064406 113.48792843520641,179.82825937122107 116.93889509979635,184.90799269266427 122.01384607795626,186.01228138781153 131.1487578395754,181.15340803703293 133.1787382317707,159.95095801516436 130.3367656832561,154.6503217178397 123.43483235221356,152.88344083726406 117.14189313910902,155.9754816845525 114.29992059152573,161.49697514250875 113.89392451383173,183.1411299200263 117.14189313910902,186.6748544073198 124.2468245094642,186.89571204781532 131.1487578395754,179.60740120266564 133.1787382317707,158.62579983263277 124.04382646922022,152.66258065239526 115.31491078622639,158.404940078035 112.87893431633711,180.7116918808315 119.9838656866923,187.77914244239219 131.1487578395754,180.04911752347834 132.9757401915267,159.06751929339953 129.11877744738013,153.3251611564774 123.84082843083888,152.4417204519268 114.9089147085324,158.84665957116522 113.69092647358775,180.7116918808315 123.02883627451956,186.23313907766715 131.1487578395754,179.16568481526338 132.77274215314537,157.5215008938685 124.04382646922022,152.88344083726406 114.9089147085324,159.28837899840437 113.48792843520641,179.82825937122107 117.54788921680301,184.90799269266427 123.63783039152622,186.23313907766715 131.35175587888807,179.16568481526338 132.77274215314537,157.5215008938685 129.11877744738013,153.54602129128762 121.40485196188092,152.88344083726406 114.09692255128175,162.1595536635723 113.48792843520641,182.920271998737 116.93889509979635,186.89571204781532 125.26181470509619,186.45399675075896 131.55475391820073,178.50311011075974 131.7577519575134,155.75462173111737 122.62284019682556,152.0 114.70591666921973,159.28837899840437 113.48792843520641,180.04911752347834 119.37487156968564,185.79142368212342 125.26181470509619,185.57056595920585 131.7577519575134,178.28225184348412 132.77274215314537,157.96322051854804 129.3217754876241,153.54602129128762 122.41984215658158,152.66258065239526 114.50291862990707,159.95095801516436 114.29992059152573,181.59512412617914 119.9838656866923,186.6748544073198 127.49479313474149,185.57056595920585 132.36674607545137,172.76078977715224 130.3367656832561,155.9754816845525 118.76587745174766,154.4294616652187 113.28493039589375,166.79759914707392 114.09692255128175,184.46627709828317 118.76587745174766,187.5582848689519 126.47980294004083,186.01228138781153 131.7577519575134,178.0613935587462 133.38173627015203,160.61353688314557 131.35175587888807,155.09204177255742 124.2468245094642,152.88344083726406 118.156883334741,154.6503217178397 113.28493039589375,166.5767400036566 114.09692255128175,184.46627709828317 118.56287941336632,187.3374272780493 126.68280097842216,185.79142368212342 131.7577519575134,178.0613935587462 131.55475391820073,155.75462173111737 120.9988558832556,152.66258065239526 114.29992059152573,161.71783466590568 114.70591666921973,182.25769813661464 120.9988558832556,187.3374272780493 128.10378725267947,186.89571204781532 131.96074999589473,181.59512412617914 132.1637480352074,156.63806144427508 120.18686372693628,152.66258065239526 113.89392451383173,161.05525604565628 112.87893431633711,181.81598214642145 116.12690294347703,186.6748544073198 123.2318343129009,187.77914244239219 131.7577519575134,179.38654301688075 132.5697441138327,157.30064105591737 121.20185392163694,152.88344083726406 113.69092647358775,161.9386941732373 113.08193235658109,183.1411299200263 116.93889509979635,187.1165696713142 123.43483235221356,187.5582848689519 129.52477352600545,184.46627709828317 132.36674607545137,178.7239683624357 133.1787382317707,157.30064105591737 122.01384607795626,152.4417204519268 113.89392451383173,160.1718176540453 113.08193235658109,182.25769813661464 116.73589706141502,186.45399675075896 124.2468245094642,188.0 131.55475391820073,182.03684015013278 133.1787382317707,158.1840803064406 130.3367656832561,154.20860159629956 122.62284019682556,152.4417204519268 114.50291862990707,158.84665957116522 112.26994020026177,180.26997565920465 114.9089147085324,185.12885046424344 120.79585784394294,187.5582848689519 131.1487578395754,182.03684015013278 133.38173627015203,159.95095801516436 124.44982254784554,152.4417204519268 115.31491078622639,158.1840803064406 113.08193235658109,179.82825937122107 122.82583823427558,187.5582848689519 131.96074999589473,182.25769813661464 133.99073038809001,161.05525604565628 130.13376764394343,154.8711817532312 124.44982254784554,152.88344083726406 114.9089147085324,158.84665957116522 112.87893431633711,180.49083377839997 115.92390490416437,185.3497082204558 122.82583823427558,187.5582848689519 132.1637480352074,180.93254996673204 133.5847343094647,161.05525604565628 130.94575980026275,155.75462173111737 124.04382646922022,152.4417204519268 114.70591666921973,159.06751929339953 113.28493039589375,181.15340803703293 116.53289902117103,185.57056595920585 122.82583823427558,187.3374272780493 131.35175587888807,181.81598214642145 133.1787382317707,160.1718176540453 123.84082843083888,152.88344083726406 114.70591666921973,159.95095801516436 113.08193235658109,181.37426608987153 123.2318343129009,186.89571204781532 131.7577519575134,180.49083377839997 133.5847343094647,159.50923868711106 123.2318343129009,152.66258065239526 114.50291862990707,159.95095801516436 113.28493039589375,180.49083377839997 123.02883627451956,186.89571204781532 131.55475391820073,180.93254996673204 132.9757401915267,159.28837899840437 128.71278136968613,153.7668814100325 122.82583823427558,152.88344083726406 114.9089147085324,160.3926772766281 112.87893431633711,180.7116918808315 121.81084803957492,187.5582848689519 131.55475391820073,182.6994140613824 134.396726465784,161.27611560258083 130.7427617609501,154.4294616652187 119.17187353037298,153.7668814100325 114.50291862990707,160.61353688314557 113.28493039589375,177.8405352574773" stroke="#4dd2ff" stroke-linecap="round" stroke-linejoin="round" stroke-width="0.5"><title>2024-04-06 11.8km</title><desc>1712394949000</desc></polyline><polyline fill="none" points="161.40554045606405,183.55846398649737 169.35541553329676,188.0 176.87556763458997,181.68834167066962 179.45390549767762,161.35068922280334 176.87556763458997,154.5714423255995 168.92569255735725,152.70130266225897 163.76901683025062,156.20781361334957 160.76095599029213,177.24679668596946 166.34735469333827,186.1298803430982 176.87556763458997,182.38963767001405 179.6687669865787,160.18185460055247 175.58639870304614,154.33767492882907 168.4959695795551,153.63637263397686 163.55415534228086,157.37664972199127 160.9758174791932,179.116921659559 166.56221618317068,186.36364536103792 176.23098316881806,183.3246987578459 179.02418251987547,160.64938850165345 174.29722977150232,153.87014008359984 167.42166213691235,153.87014008359984 163.3392938533798,158.07795117795467 160.9758174791932,178.4156249256339 165.4879087395966,185.89611530699767 176.4458446567878,183.09093351243064 179.23904400877655,160.64938850165345 173.00806083902717,153.40260516735725 163.12443236541003,157.61041689128615 160.3312330134213,180.5195146559272 168.28110809158534,186.83117534592748 177.09042912255973,181.4545763025526 179.45390549767762,160.88315542577766 176.6607061456889,155.2727444106713 171.28916893154383,152.93507018173113 162.4798478987068,158.311718294397 160.3312330134213,178.88315609912388 167.42166213691235,186.59741036244668 177.3052906114608,181.2208109172061 179.23904400877655,160.4156215598341 171.07430744264275,152.93507018173113 162.90957087744027,158.07795117795467 160.9758174791932,179.58445272780955 168.28110809158534,186.83117534592748 177.3052906114608,181.2208109172061 179.02418251987547,159.01301954011433 170.42972297687083,153.16883768350817 162.90957087744027,158.311718294397 161.1906789680943,180.28574919956736 169.57027702312917,186.59741036244668 177.73501358833164,180.75328009319492 179.45390549767762,159.71432062867098 171.71889190748334,153.16883768350817 162.4798478987068,159.01301954011433 160.9758174791932,180.28574919956736 168.71083106752485,186.83117534592748 177.52015210036188,181.4545763025526 179.45390549767762,159.94808762311004 170.859445954673,153.16883768350817 162.4798478987068,159.01301954011433 160.76095599029213,180.28574919956736 169.57027702312917,186.83117534592748 177.3052906114608,181.4545763025526 179.23904400877655,159.94808762311004 171.93375339731574,152.93507018173113 162.69470938760787,158.07795117795467 160.9758174791932,179.35068720206618 167.8513851147145,186.59741036244668 174.08236828260124,185.42858518264256 177.52015210036188,181.2208109172061 179.45390549767762,159.24678658717312 171.71889190748334,152.93507018173113 163.12443236541003,157.8441840435844 160.76095599029213,179.35068720206618 167.2068006489426,186.59741036244668 177.09042912255973,182.1558723547496 179.23904400877655,160.18185460055247 172.36347637325525,152.46753512625583 163.3392938533798,157.37664972199127 160.76095599029213,179.58445272780955 168.06624660175294,186.59741036244668 174.72695274837315,185.19482009438798 177.94987507723272,180.5195146559272 178.8093210319057,158.77925247582607 170.21486148890108,152.70130266225897 162.4798478987068,158.54548539384268 160.9758174791932,180.987045513466 168.92569255735725,186.83117534592748 177.52015210036188,180.75328009319492 179.23904400877655,159.94808762311004 171.07430744264275,152.93507018173113 162.26498641166836,159.48055361700244 160.9758174791932,179.58445272780955 168.71083106752485,186.59741036244668 177.3052906114608,181.68834167066962 179.23904400877655,160.18185460055247 170.42972297687083,152.93507018173113 162.69470938760787,158.77925247582607 160.9758174791932,180.5195146559272 166.13249320536852,186.36364536103792 176.87556763458997,182.38963767001405 179.6687669865787,160.4156215598341 171.07430744264275,152.70130266225897 163.12443236541003,157.8441840435844 161.40554045606405,180.05198372644372 169.57027702312917,186.83117534592748 177.52015210036188,180.75328009319492 179.45390549767762,160.18185460055247 175.37153721321374,154.10390751506202 170.21486148890108,152.70130266225897 162.90957087744027,158.77925247582607 160.9758174791932,179.81821823655628 169.57027702312917,186.83117534592748 177.3052906114608,182.38963767001405 179.23904400877655,159.48055361700244 171.07430744264275,152.23376757162623 163.55415534228086,156.44158086995594 160.9758174791932,179.81821823655628 163.9838783191517,184.96105498890392 169.78513851109892,186.83117534592748 177.94987507723272,180.28574919956736 179.23904400877655,159.48055361700244 175.1566757261753,153.63637263397686 169.57027702312917,152.46753512625583 162.90957087744027,158.07795117795467 161.1906789680943,180.5195146559272 170.42972297687083,187.29870526026934 177.52015210036188,181.68834167066962 179.02418251987547,159.48055361700244 170.6445844657719,152.0 162.69470938760787,158.07795117795467 160.76095599029213,179.116921659559 167.42166213691235,186.59741036244668 177.3052906114608,181.92210702155717 179.02418251987547,159.71432062867098 171.71889190748334,152.70130266225897 166.13249320536852,153.40260516735725 162.69470938760787,159.01301954011433 160.9758174791932,179.81821823655628 169.14055404625833,186.83117534592748 177.73501358833164,181.2208109172061 179.02418251987547,160.18185460055247 171.28916893154383,152.46753512625583 162.69470938760787,158.77925247582607 161.1906789680943,180.75328009319492 168.92569255735725,187.29870526026934 177.52015210036188,181.2208109172061 179.02418251987547,158.77925247582607 175.58639870304614,154.10390751506202 168.92569255735725,152.70130266225897 162.69470938760787,158.77925247582607 161.40554045606405,180.75328009319492 170.21486148890108,186.83117534592748 177.73501358833164,180.05198372644372 179.23904400877655,159.01301954011433 169.78513851109892,152.46753512625583 163.76901683025062,156.67534810886718 160.54609450232238,164.6234238401521 160.3312330134213,182.62340296804905" stroke="#4dd2ff" stroke-linecap="round" stroke-linejoin="round" stroke-width="0.5"><title>2024-04-03 9.7km</title><desc>1712137473000</desc></polyline><polyline fill="none" points="17.13218562770635,213.88240205077454 22.971361896954477,212.70593269425444 20.808704019524157,219.05886198906228 25.566551350057125,226.35295017133467 36.59610652644187,226.35295017133467 42.86781437229365,203.29416200425476 39.407561767846346,193.41177246859297 31.189461832866073,192.0 25.3502855617553,195.29413477377966 22.755096109583974,218.82356854062527 25.78281713835895,226.82353592454456 33.35211971029639,226.82353592454456 38.975030191242695,222.82355477591045 41.35395385790616,201.1765097170137 36.163574951700866,194.1176584654022 25.566551350057125,198.3529711177107 22.755096109583974,220.7059156380128 29.45933553017676,227.29412160813808 38.975030191242695,222.3529684243258 40.92142228130251,200.94121493096463 34.86598022468388,193.41177246859297 25.3502855617553,198.3529711177107 22.971361896954477,221.41179550881498 30.324398681521416,227.76470722071826 38.975030191242695,222.5882616089657 41.35395385790616,200.70592012698762 35.51477758772671,193.88236315036193 29.45933553017676,194.58824904100038 24.917753987014294,199.29415093222633 22.53883032128215,220.7059156380128 29.675601318478584,228.0 38.758764404803514,222.5882616089657 41.13768807053566,200.0000356088858 35.51477758772671,193.88236315036193 24.917753987014294,199.0588560050819 22.53883032128215,219.5294488342479 25.3502855617553,225.6470714090392 31.405727620236576,227.76470722071826 39.62382755521685,221.6470887644682 41.13768807053566,200.23533046571538 35.29851179942489,193.64706781809218 30.54066446889192,193.64706781809218 24.917753987014294,198.82356106000952 22.53883032128215,219.76474222983234 29.02680395450443,227.76470722071826 38.54249861650169,223.52943417197093 41.35395385790616,201.1765097170137 37.0286381021142,194.1176584654022 31.405727620236576,193.88236315036193 25.13401977531612,198.82356106000952 22.755096109583974,220.2353289697785 27.729209227487445,227.0588287753053 38.975030191242695,225.88236434734426" stroke="#4dd2ff" stroke-linecap="round" stroke-linejoin="round" stroke-width="0.5"><title>2024-04-02 3.0km</title><desc>1712049520000</desc></polyline><polyline fill="none" points="69.49359770491719,203.32871285523288 68.10526177659631,222.96505812904797 72.27026956155896,227.24475919967517 78.51778123900294,227.49650615244173 83.1455676658079,222.20981619879603 85.45946087967604,197.2867374115158 77.59222395345569,192.0 70.18776566907763,198.0419849352911 67.87387245614082,222.20981619879603 71.80749091971666,226.99301222898066 78.28639191761613,227.49650615244173 83.1455676658079,221.95806885091588 85.45946087967604,197.53848660504445 77.8236132748425,192.0 70.18776566907763,197.790235779481 67.642483134754,221.45457409857772 75.7411093832925,228.0 83.1455676658079,222.46156352804974 85.69085020013154,198.54548319033347 78.74917055945843,192.0 70.18776566907763,197.790235779481 67.642483134754,221.7063214846421 75.04694141820073,228.0 82.91417834442109,222.96505812904797 85.69085020013154,198.79723228956573 78.98055988177657,192.0 70.18776566907763,197.53848660504445 67.642483134754,221.45457409857772 74.5841627754271,228.0 82.91417834442109,222.96505812904797 85.92223952151835,199.30073043168522 79.67472784593701,192.25174958934076 70.41915499139577,197.03498819912784 67.642483134754,220.95107927243225 75.04694141820073,228.0 82.91417834442109,222.96505812904797 85.69085020013154,198.79723228956573 78.74917055945843,192.0 70.41915499139577,197.03498819912784 67.642483134754,221.45457409857772 75.27833073958755,228.0 83.1455676658079,222.20981619879603 85.69085020013154,199.04898137017153 78.51778123900294,192.0 70.18776566907763,198.0419849352911 67.642483134754,221.7063214846421 75.27833073958755,228.0 83.1455676658079,222.46156352804974 85.69085020013154,198.2937340727076 78.28639191761613,192.0 70.18776566907763,198.0419849352911 67.642483134754,221.20282669458538 70.65054431278259,226.23777120211162 76.89805598929524,227.74825308588333 83.1455676658079,222.20981619879603 85.69085020013154,198.54548319033347 77.8236132748425,192.0 70.18776566907763,198.0419849352911 67.642483134754,220.95107927243225 74.5841627754271,228.0 82.91417834442109,222.96505812904797 85.92223952151835,199.8042284976691 79.44333852361888,192.25174958934076 70.65054431278259,196.7832389685791 67.642483134754,220.95107927243225 72.9644375257194,227.49650615244173 82.91417834442109,222.96505812904797 85.92223952151835,199.30073043168522 79.9061171663925,192.25174958934076 71.11332295462489,195.77624185592867 67.41109381243587,220.19583688979037 70.41915499139577,226.23777120211162 76.66666666697711,228.0 82.22001038026065,224.22379430336878 85.92223952151835,200.81122440565377 81.29445309471339,192.75524870981462 72.50165888294578,194.01399618387222 68.56804042030126,223.72029989003204 73.42721616849303,227.74825308588333 79.67472784593701,226.74126523872837 84.30251427274197,214.65738757350482" stroke="#4dd2ff" stroke-linecap="round" stroke-linejoin="round" stroke-width="0.5"><title>2024-03-30 4.8km</title><desc>1711782999000</desc></polyline><polyline fill="none" points="112.97905317228287,206.6939253672026 114.55470449943095,223.3469610530883 119.28165848739445,227.2653100802563 126.48463599011302,226.77551670838147 131.88686911668628,219.67350458097644 131.43668302334845,194.69389125495218 120.6322167692706,192.7346978345886 114.77979754749686,199.34697092790157 114.77979754749686,222.61227008863352 121.08240286260843,228.0 128.06028731819242,226.28572326269932 132.11196216475219,219.67350458097644 133.6876134928316,201.3061603908427 131.21158997621387,194.20409300969914 123.33333333209157,192.0 117.93110020458698,195.42858848464675 113.87942535895854,219.1837100731209 116.130355829373,224.81634248793125 122.65805419161916,228.0 131.88686911668628,221.38778478093445 132.7872413052246,196.65308350254782 123.10824028588831,192.48979857494123 115.22998364083469,199.591869674623 115.22998364083469,224.57144562760368 123.78351942636073,227.75510337855667 130.31121778860688,223.83675493765622 133.23742739856243,201.55105899111368 131.66177607048303,195.42858848464675 126.70972903631628,192.2448992971331 116.58054192271084,196.4081845358014 113.65433231182396,220.65309337619692 119.28165848739445,227.2653100802563 130.0861247414723,223.3469610530883 133.23742739856243,201.3061603908427 128.51047341246158,193.4693955045659 116.58054192271084,193.4693955045659" stroke="#4dd2ff" stroke-linecap="round" stroke-linejoin="round" stroke-width="0.5"><title>2024-03-28 2.0km</title><desc>1711615120000</desc></polyline><polyline fill="none" points="160.90061664022505,207.30005265027285 158.62577079981565,207.750053020427 160.90061664022505,209.55005382816307 158.41896663233638,208.42505344958045 160.90061664022505,209.10005372739397 161.52102914266288,223.27502456586808 166.07072082255036,227.32500396389514 173.30886667780578,227.55000265920535 179.51299169566482,219.90003756829537 180.54701253119856,196.2750225465279 175.58371251728386,192.45000265957788 169.37958749942482,192.45000265957788 162.1414416441694,200.55003901640885 160.69381247274578,221.02503365511075 168.55237083043903,228.0 178.47897085919976,222.15002932073548 180.34020836558193,198.52503197267652 177.23814585525542,193.12500652228482 172.27484584134072,192.0 162.96865831222385,198.30003110552207 161.52102914266288,219.22503971401602 164.4162874845788,224.85001720208675 169.58639166597277,226.87500652275048 177.44495002366602,222.15002932073548 179.51299169566482,200.32503830105998 172.27484584134072,193.35000777663663 164.00267914962023,198.52503197267652 162.55504997819662,220.8000344708562 170.0,226.87500652275048 178.0653625242412,220.8000344708562 179.30618752818555,197.8500293213874 171.86123750638217,192.90000525140204 164.00267914962023,199.20003447169438 162.34824581071734,220.12503681937233 168.75917499698699,226.87500652275048 177.85855835769325,220.8000344708562 179.30618752818555,199.42503527132794 171.03402083739638,192.45000265957788 164.2094833161682,198.52503197267652 161.9346374766901,220.12503681937233 169.17278333194554,226.87500652275048 178.27216669172049,220.8000344708562 179.92660003062338,199.42503527132794 172.68845417536795,192.90000525140204 164.4162874845788,198.30003110552207 162.1414416441694,219.90003756829537 163.58907081466168,224.62501830467954 168.75917499698699,226.4250090138521 178.0653625242412,221.47503197169863 179.92660003062338,200.77503971522674 172.89525834284723,193.8000102341175 164.2094833161682,198.0750302216038 162.1414416441694,220.8000344708562 169.58639166597277,226.65000777621754 178.0653625242412,221.02503365511075 179.7197958631441,198.52503197267652 172.06804167386144,193.35000777663663 164.2094833161682,199.20003447169438 162.1414416441694,220.35003605415113 169.58639166597277,226.87500652275048 176.2041250197217,225.97501143696718 179.30618752818555,221.70003110496327 181.58103336859494,200.10003756918013" stroke="#4dd2ff" stroke-linecap="round" stroke-linejoin="round" stroke-width="0.5"><title>2024-03-26 3.7km</title><desc>1711445960000</desc></polyline><polyline fill="none" points="20.293988176621497,259.60003613168374 28.2352705784142,268.0 37.720691222697496,262.4800262216013 39.48542064521462,238.24002894153818 34.63241473399103,232.0 23.161673489026725,236.08002029685304 20.073397000320256,258.88003820506856 22.05871760006994,264.40001817792654 28.897044111974537,267.7600013371557 37.279508866369724,262.9600243179593 39.926602999679744,239.44003311591223 35.514779444783926,232.2400013373699 23.82344702258706,237.04002431873232 20.955761711113155,250.96005035145208 23.602855844423175,264.40001817792654 29.338226466439664,267.04000524268486 34.63241473399103,264.8800159879029 39.26482946705073,240.8800375328865 35.514779444783926,233.92001019744202 29.1176352892071,233.20000650780275 24.70581173337996,236.80002334038727 21.838126421906054,257.92004071897827 26.691132333129644,266.3200089861639 35.73537062294781,263.44002234353684 39.26482946705073,239.92003465956077 34.191232377663255,232.96000524237752 24.70581173337996,237.04002431873232 21.838126421906054,258.4000394982286 26.91172351129353,266.3200089861639 35.514779444783926,263.44002234353684 37.720691222697496,235.60001817787997 30.220591177232563,232.48000265681185 24.044038198888302,238.7200306651648 22.05871760006994,261.28003066475503 26.02935879956931,265.8400113917887 32.20591177791357,266.08001019759104" stroke="#4dd2ff" stroke-linecap="round" stroke-linejoin="round" stroke-width="0.5"><title>2024-03-25 2.1km</title><desc>1711359274000</desc></polyline><polyline fill="none" points="81.22696300689131,264.53847979404964 85.46909913700074,241.00003938702866 80.59064258728176,233.61539361812174 69.5610886476934,238.46156939771026 67.2279137764126,258.0769650184084 73.59111797250807,266.61539238411933 82.92381745856255,262.9231023690663 85.46909913700074,241.00003938702866 79.31800174806267,233.84616406611167 69.5610886476934,238.6923394834157 67.2279137764126,259.46157646668144 74.01533158496022,266.61539238411933 83.13592426571995,262.23079749941826 85.46909913700074,240.0769596323371 79.1058949418366,233.84616406611167 69.5610886476934,238.46156939771026 67.44002058357,259.69234498101287 69.34898184239864,264.53847979404964 75.28797242417932,266.8461603629403 83.34803107194602,261.30772409797646 85.46909913700074,241.46157916006632 79.95432216767222,233.84616406611167 69.5610886476934,237.53848888352513 67.44002058357,259.69234498101287 74.01533158496022,267.07692832523026 82.7117106532678,262.69233409664594 85.46909913700074,241.00003938702866 79.53010855522007,233.384623153368 69.77319545485079,237.30771871237084 67.2279137764126,260.1538819577545 69.34898184239864,264.76924792909995 75.71218603663146,267.30769627005793 83.5601378781721,261.0769557051826 85.25699233077466,239.84618965047412 78.68168132845312,233.384623153368 72.74269074574113,234.53847530600615 69.13687503524125,239.15387960150838 67.65212738979608,261.30772409797646 75.92429284378886,266.8461603629403 83.7722446853295,260.3846504208632 85.25699233077466,240.0769596323371 79.1058949418366,233.384623153368 69.34898184239864,239.15387960150838 67.44002058357,260.61541886557825 74.86375881172717,266.61539238411933 82.92381745856255,262.23079749941826 85.25699233077466,239.84618965047412 77.8332541026175,233.384623153368 69.13687503524125,238.9231095511932 67.65212738979608,260.84618729376234 74.86375881172717,267.07692832523026 83.34803107194602,262.23079749941826 85.46909913700074,240.0769596323371 81.86328342650086,234.07693449687213 69.98530226200819,237.30771871237084 67.44002058357,258.3077336358838 72.53058393951505,266.61539238411933 82.7117106532678,263.15387062425725 85.46909913700074,240.53849954390898 78.89378813561052,233.61539361812174 69.5610886476934,238.00002917530946 67.44002058357,259.92311347764917 73.37901116535068,266.38462438760325 82.4996038461104,263.8461752869189 85.68120594415814,241.2308092820458 81.43906981404871,234.07693449687213 74.86375881172717,233.384623153368 69.77319545485079,238.00002917530946 65.95527293719351,258.0769650184084 67.65212738979608,264.3077116427012 73.59111797250807,268.0 79.1058949418366,267.7692321075592 84.19645829778165,262.9231023690663 87.37806039582938,241.69234902062453 81.65117662027478,232.46154112019576 74.65165200456977,232.0 68.5005546156317,237.07694852352142 65.95527293719351,259.2308079346549 72.53058393951505,267.30769627005793 83.5601378781721,265.46155222924426" stroke="#4dd2ff" stroke-linecap="round" stroke-linejoin="round" stroke-width="0.5"><title>2024-03-24 4.9km</title><desc>1711273464000</desc></polyline><polyline fill="none" points="113.1834359318018,258.06139355921187 115.01041746418923,264.466277098516 120.08536616526544,267.7791424423922 125.97230665758252,266.67485440778546 130.84425741061568,261.8159821466543 132.87423689104617,238.6257998328656 131.25025330577046,234.65032171760686 125.16031486634165,232.66258065239526 118.46138257998973,234.2086015965324 114.80741951614618,238.84665957163088 113.58943182881922,260.93254996743053 117.44639284070581,266.01228138851 124.34832307323813,267.5582848684862 131.65624920278788,259.3865430173464 131.8592471498996,235.75462173088454 124.5513210222125,232.66258065239526 117.04039694555104,235.09204177302308 113.99542772397399,240.39267727709375 112.7774400357157,259.82825937122107 119.27337437309325,268.0 126.37830255459994,266.67485440778546 130.6412594616413,262.03684014989994 134.09222457837313,241.71783466567285 131.45325125474483,234.65032171760686 125.76930870953947,232.44172045146115 117.24339489266276,235.09204177302308 114.19842567294836,239.9509580146987 113.99542772397399,263.8037035835441 119.88236821722239,268.0 125.76930870953947,267.5582848684862 131.8592471498996,259.3865430173464 131.8592471498996,235.75462173088454 122.11534564569592,232.0 114.40142362006009,239.73009835928679 112.98043798469007,260.71169188059866 116.83739899657667,266.45399675075896 123.33333333395422,267.33742727781646 131.65624920278788,259.6074012031313 132.46824099496007,236.85892133158632 129.2202738262713,233.1043010049034 122.31834359280765,232.44172045146115 114.19842567294836,240.1718176540453 113.38643387984484,262.4785561077297 124.34832307323813,267.1165696710814 131.45325125474483,259.6074012031313 131.45325125474483,235.75462173088454 123.73932922910899,232.2208602342289 114.80741951614618,237.3006410561502 112.57444208860397,261.1534080368001 116.6344010476023,266.2331390781328 124.34832307323813,267.5582848684862 131.45325125474483,260.04911752347834 131.04725535865873,234.42946166568436 123.13033538497984,232.2208602342289 117.44639284070581,235.09204177302308 112.98043798469007,251.65649612457491 115.61941130831838,265.12885046424344 128.20528408605605,265.7914236818906 133.07723483908921,241.05525604612194 128.61127998214215,233.32516115601175 117.24339489266276,235.09204177302308 112.98043798469007,256.9571018887218 114.40142362006009,264.466277098516 119.67937026917934,267.1165696710814 129.82926767040044,263.36198782431893 133.28023278620094,241.49697514227591 130.4382615145296,234.42946166568436 117.04039694555104,234.42946166568436 113.58943182881922,247.01845827442594 115.01041746418923,264.466277098516 121.10035590548068,267.5582848684862 128.4082820340991,265.34970822022296 131.65624920278788,260.26997565990314 133.28023278620094,241.71783466567285 130.23526356648654,234.42946166568436 120.28836411330849,232.88344083703123 114.19842567294836,240.1718176540453 113.1834359318018,262.03684014989994 118.86737847700715,267.1165696710814 125.76930870953947,266.2331390781328 130.4382615145296,254.5276587617118 129.42327177338302,235.75462173088454 123.13033538497984,233.76688140979968 116.6344010476023,236.85892133158632 112.7774400357157,250.77306090574712" stroke="#4dd2ff" stroke-linecap="round" stroke-linejoin="round" stroke-width="0.5"><title>2024-03-22 5.0km</title><desc>1711100044000</desc></polyline><polyline fill="none" points="159.03937257360667,245.5000504956115 162.76184981316328,264.62501830467954 168.96597854420543,267.7750013382174 175.1701072761789,265.9750114369672 179.30619309749454,261.25003282143734 180.75382313504815,250.90005372674204 178.0653673512861,235.6000193899963 169.58639141730964,232.67500396375544 163.58906697668135,240.32503830082715 162.76184981316328,261.9250302207656 167.725152797997,267.1000052515883 173.7224772386253,267.1000052515883 178.68578022439033,260.1250368193723 178.47897593211383,238.52503197221085 171.6544343288988,233.5750090132933 163.79587126802653,240.32503830082715 162.76184981316328,261.25003282143734 166.48432705178857,266.2000102335587 172.0680429097265,267.3250039643608 178.0653673512861,259.22503971424885 178.89258451480418,237.85002932092175 173.10206436458975,232.9000052518677 163.79587126802653,238.30003110552207 161.93463264778256,259.9000375682954 170.41360858175904,266.65000777645037 175.7905201492831,265.5250137934927 179.5129973879084,259.22503971424885 179.71980167925358,236.27502254606225 177.2381501859054,232.9000052518677 169.37958712689579,232.0 162.34824123047292,238.75003282213584 161.10741548519582,261.0250336548779 170.41360858175904,268.0 178.89258451480418,259.6750383002218 180.960627425462,239.875036819838 177.8585630590096,232.22500133840367 165.03669701423496,234.02501143701375 160.07339402940124,256.75004628673196" stroke="#4dd2ff" stroke-linecap="round" stroke-linejoin="round" stroke-width="0.5"><title>2024-03-21 2.2km</title><desc>1711013104000</desc></polyline></svg>