<?xml version="1.0" encoding="utf-8" ?>
<svg baseProfile="full" height="300mm" version="1.1" viewBox="0,0,200,300" width="200mm" xmlns="http://www.w3.org/2000/svg" xmlns:ev="http://www.w3.org/2001/xml-events" xmlns:xlink="http://www.w3.org/1999/xlink"><defs /><rect fill="#222222" height="300" width="200" x="0" y="0" /><text fill="#FFFFFF" style="font-size:12px; font-family:Arial; font-weight:bold;" x="10" y="20">Over 2km Runs</text><text fill="#FFFFFF" style="font-size:4px; font-family:Arial" x="10" y="280">ATHLETE</text><text fill="#FFFFFF" style="font-size:9px; font-family:Arial" x="10" y="290">作怪</text><text fill="#FFFFFF" style="font-size:4px; font-family:Arial" x="120" y="280">STATISTICS</text><text fill="#FFFFFF" style="font-size:3px; font-family:Arial" x="120" y="285">Number: 13</text><text fill="#FFFFFF" style="font-size:3px; font-family:Arial" x="120" y="290">Weekly: 3.2</text><text fill="#FFFFFF" style="font-size:3px; font-family:Arial" x="141" y="285">Total: 62.9 km</text><text fill="#FFFFFF" style="font-size:3px; font-family:Arial" x="141" y="290">Avg: 4.8 km</text><text fill="#FFFFFF" style="font-size:3px; font-family:Arial" x="167" y="285">Min: 2.0 km</text><text fill="#FFFFFF" style="font-size:3px; font-family:Arial" x="167" y="290">Max: 11.8 km</text><polyline fill="none" points="12.800000000745058,42.685074605979025 12.399999999906868,48.77779287751764 14.960000000428408,51.65006328281015 18.96000000042841,49.82225566345733 20.00000000046566,41.814683676930144 19.28000000026077,39.98686060658656 17.040000000502914,38.94238899135962 13.760000000242144,40.770213702577166 12.880000000353903,48.864831478567794 14.960000000428408,51.38894808443729 19.040000000037253,49.64817859744653 19.919999999925494,41.814683676930144 17.43999999994412,39.029428328503855 13.920000000391155,40.59613528242335 12.960000000428408,48.77779287751764 15.600000000558794,51.56302488979418 18.880000000353903,50.083371213288046 20.00000000046566,42.16284012666438 17.43999999994412,38.94238899135962 13.920000000391155,40.59613528242335 12.960000000428408,48.69075426959898 14.880000000353903,51.38894808443729 18.880000000353903,50.083371213288046 19.84000000031665,41.64060541300569 17.28000000026077,39.11646765912883 13.920000000391155,40.50909606239293 12.960000000428408,48.342599773430265 14.640000000130385,51.214871252770536 17.040000000502914,51.38894808443729 19.040000000037253,49.82225566345733 19.919999999925494,42.249879222828895 19.12000000057742,39.89982134103775 14.960000000428408,39.290546300588176 13.520000000484288,41.46652712312061 12.399999999906868,49.90929418662563 20.880000000353903,53.04267668456305 23.600000000093132,52.17229350365233 26.96000000042841,48.864831478567794 31.84000000031665,50.431525188847445 32.95999999996275,52.69452349038329 32.72000000020489,58.961265047313645 37.28000000026077,65.05389809201006 45.12000000011176,67.92612831993029 53.200000000186265,69.05761100864038 55.60000000009313,67.49094237736426 55.359999999869615,52.86860010039527 54.32000000029802,53.30379151168745 54.0,56.17605074425228" stroke="#4dd2ff" stroke-linecap="round" stroke-linejoin="round" stroke-width="0.5"><title>2024-04-11 3.0km</title><desc>1712828151000</desc></polyline><polyline fill="none" points="89.62510306946933,41.59746132558212 88.6004218896851,66.96004007291049 92.44297630991787,73.37033484014682 99.61574455816299,75.32129192864522 111.3995781103149,67.79616610263474 113.19277017191052,40.48261873843148 102.43361779861152,32.4000000001397 91.93063571956009,37.69551080930978 88.85659218486398,66.40262261615135 96.79787131771445,74.76387572218664 106.02000192273408,73.64904305851087 110.88723752088845,68.63229194516316 113.44894046708941,42.43359304778278 104.99532074574381,33.236133786151186 97.05404161196202,33.79355620639399 91.67446542531252,39.367775816936046 88.08808130118996,66.1239138552919 98.5910633802414,75.60000000009313 110.88723752088845,69.7471261091996 114.21745135076344,46.33553860220127 113.19277017191052,38.25293256225996 108.32553457468748,34.072267384501174 98.5910633802414,32.678711283253506 92.69914660323411,35.744534018682316 85.78254864923656,46.33553860220127 88.85659218486398,66.68133135442622 93.9799980763346,74.2064594316762 103.71446927078068,75.04258383531123 110.63106722664088,69.18970906944014 112.93659987766296,44.38456633570604 106.53234251216054,33.236133786151186 98.84723367448896,32.4000000001397 91.93063571956009,36.58066705428064 88.85659218486398,66.40262261615135 95.77319013886154,74.76387572218664 104.99532074574381,74.4851675874088 111.65574840456247,66.68133135442622 113.96128105651587,43.54843505169265 110.1187266362831,36.3019560626708 102.68978809379041,32.678711283253506 91.67446542531252,37.4167999017518 88.6004218896851,65.84520507417619 96.02936043404043,74.4851675874088 104.99532074574381,74.2064594316762 111.91191869881004,66.96004007291049 113.70511076133698,43.54843505169265 106.78851280640811,33.236133786151186 93.72382778208703,34.350978542584926 89.88127336278558,41.87617192044854 89.62510306946933,69.46841759979725 102.17744750436395,75.04258383531123 110.88723752088845,66.96004007291049 111.91191869881004,41.87617192044854 108.32553457468748,35.465822965605184 101.15276632551104,33.79355620639399 91.93063571956009,41.040040073450655 89.88127336278558,66.1239138552919 100.38425544183701,74.4851675874088 110.37489693053067,67.79616610263474 112.16808899398893,43.8271455001086 109.60638604685664,37.138088973006234 102.68978809379041,33.79355620639399 91.93063571956009,40.76132941595279 88.6004218896851,66.40262261615135 98.5910633802414,75.60000000009313 105.50766133423895,75.04258383531123 108.58170486986637,69.7471261091996 111.91191869881004,43.26972458208911 103.71446927078068,34.350978542584926 97.31021190620959,34.908400795422494 92.18680601380765,41.040040073450655 89.88127336278558,65.28778745047748 98.84723367448896,73.92775125568733 109.60638604685664,69.18970906944014 111.91191869881004,41.87617192044854 103.20212868228555,34.072267384501174 92.44297630991787,41.040040073450655 90.13744365796447,65.84520507417619 98.5910633802414,74.2064594316762 109.86255634203553,67.23874877137132 111.91191869881004,41.87617192044854 102.17744750436395,34.350978542584926 91.93063571956009,41.318750710226595 89.88127336278558,66.1239138552919 100.6404257370159,74.4851675874088 109.60638604685664,68.35358335194178 111.65574840456247,41.040040073450655 102.94595838803798,34.350978542584926 92.18680601380765,39.64648657827638 89.11276247911155,65.84520507417619 97.56638220138848,74.2064594316762 109.60638604685664,69.18970906944014 112.93659987766296,43.26972458208911 103.20212868228555,34.350978542584926 96.54170102253556,35.465822965605184 89.88127336278558,42.991014091763645 87.83191100601107,65.28778745047748" stroke="#4dd2ff" stroke-linecap="round" stroke-linejoin="round" stroke-width="0.5"><title>2024-04-09 5.6km</title><desc>1712653834000</desc></polyline><polyline fill="none" points="154.6374737219885,40.27928359643556 154.13802201673388,65.81891292380169 158.38336150627583,73.42642737086862 164.3767819609493,74.513213847531 171.36910582520068,73.15473070018925 176.36362287122756,66.63400451955386 178.6111555416137,39.73588527622633 174.36581605300307,34.03019800898619 166.62431463226676,32.4000000001397 156.38555468712002,40.550982725573704 154.6374737219885,66.90570167754777 165.8751370748505,75.05660696444102 176.36362287122756,66.63400451955386 178.1117038372904,41.09438092424534 172.11828338168561,33.75849839183502 166.8740404844284,33.21509909583256 156.38555468712002,41.09438092424534 153.6385703124106,65.27551842504181 158.38336150627583,72.88303401018493 165.62541122175753,75.05660696444102 176.6133487233892,66.3623073415365 178.86088139377534,42.18117707595229 169.3712990069762,32.67169971903786 159.8817166192457,34.573597182985395 155.63637712970376,40.00758444634266 154.13802201673388,67.4490959327668 164.8762336652726,74.78491041623056 176.11389701906592,67.4490959327668 178.6111555416137,40.00758444634266 175.114993609488,34.84529673890211 167.3734921887517,32.67169971903786 155.88610298279673,40.550982725573704 154.13802201673388,67.99249010556377 164.8762336652726,75.60000000009313 175.86417116690427,67.99249010556377 178.6111555416137,39.46418608631939 167.12376633565873,32.94339941814542 156.38555468712002,39.19248687569052 153.38884445931762,66.90570167754777 161.87952343840152,75.60000000009313 168.62212144955993,74.78491041623056 175.36471946164966,67.99249010556377 178.36142968945205,40.00758444634266 175.114993609488,34.84529673890211 166.62431463226676,32.67169971903786 155.63637712970376,40.82268183492124 153.88829616550356,67.99249010556377 158.1336356541142,73.69812401989475 164.8762336652726,75.32830349262804 175.86417116690427,68.26418716250919 178.86088139377534,40.82268183492124 175.6144453138113,35.11699627432972 167.12376633565873,32.94339941814542 155.88610298279673,39.19248687569052 153.1391186080873,65.27551842504181 161.3800717331469,74.78491041623056 169.12157315388322,74.78491041623056 175.36471946164966,69.35097518446855 179.110607245937,45.98496104683727 174.1160901999101,33.75849839183502 159.13253906182945,34.84529673890211 155.1369254263118,41.637779040494934 154.38774786889553,68.80758121353574 160.13144247233868,74.513213847531 167.12376633565873,75.05660696444102 176.86307457461953,65.5472156854812 178.6111555416137,41.637779040494934 174.61554190516472,35.11699627432972 164.8762336652726,32.67169971903786 155.63637712970376,40.00758444634266 153.38884445931762,66.90570167754777 164.62650781311095,75.60000000009313 176.11389701906592,67.99249010556377 178.6111555416137,40.550982725573704 175.86417116690427,35.66039528604597 167.3734921887517,32.4000000001397 159.8817166192457,35.11699627432972 155.1369254263118,42.18117707595229 155.38665127847344,66.63400451955386 165.12595951836556,73.42642737086862 174.61554190516472,67.17739881528541 176.36362287122756,40.82268183492124 168.12266974616796,34.03019800898619 154.88719957321882,42.99627397651784 152.88939275499433,63.6453344412148" stroke="#4dd2ff" stroke-linecap="round" stroke-linejoin="round" stroke-width="0.5"><title>2024-04-08 5.0km</title><desc>1712568268000</desc></polyline><polyline fill="none" points="21.69831882789731,96.3019017544575 24.377892944030464,116.70923776412383 30.955029413104057,120.41964986454695 38.99375176150352,118.29941485449672 44.35289999470115,111.40864230901934 43.622107055038214,84.11045012692921 32.41661529429257,80.4000000001397 23.403502356261015,89.9411496182438 22.91630706191063,116.4442081800662 29.006248236633837,121.21473766560666 39.4809470558539,119.88959123124368 43.865704701282084,112.20373213314451 44.1093023493886,84.37548213056289 30.46783411875367,81.4601290046703 22.91630706191063,93.12152711348608 22.67270941566676,115.6491193077527 29.737041177228093,120.94970841845497 38.99375176150352,119.88959123124368 44.35289999470115,112.20373213314451 43.865704701282084,83.84541810397059 30.955029413104057,81.4601290046703 23.647100002504885,89.14605479803868 21.941916475072503,114.32397079118527 32.66021294053644,122.00982528901659 43.622107055038214,113.79391124541871 45.32729058340192,88.88102315203287 41.18613058514893,82.255225549452 34.60899411700666,80.93006454245187 27.788260000757873,82.7852898137644 24.13429529685527,88.61599148530513 22.67270941566676,115.11905996012501 27.057467060163617,120.41964986454695 36.55777529254556,120.94970841845497 43.865704701282084,113.79391124541871 44.59649764187634,86.23070559790358 36.314177645370364,80.66503228084184 24.377892944030464,87.82089636777528 22.185514121316373,113.79391124541871 26.326674120500684,119.88959123124368 32.41661529429257,121.21473766560666 43.37850940786302,115.38408964429982 45.814485877752304,89.9411496182438 42.40411881916225,83.58038606145419 34.121798822656274,81.4601290046703 26.570271766744554,85.17057802132331 23.159904709085822,91.7963701710105 22.67270941566676,117.76935590407811 26.570271766744554,122.00982528901659 35.096189411357045,122.27485445723869 43.37850940786302,113.52888144319877 45.814485877752304,88.35095979925245 34.85259176325053,81.19509678310715 24.377892944030464,88.085928093642 21.454721179790795,114.85403025709093 29.980638824403286,123.33497093105689 43.37850940786302,114.05894102808088 45.57088822964579,88.88102315203287 40.942532937042415,81.99019338772632 34.60899411700666,80.93006454245187 23.8906976506114,88.61599148530513 22.429111768491566,114.85403025709093 33.63460352923721,121.47976689320058 43.37850940786302,112.99882177845575 45.32729058340192,87.02580107259564 34.85259176325053,81.4601290046703 23.8906976506114,89.14605479803868 22.185514121316373,113.79391124541871 27.057467060163617,119.88959123124368 34.36539646983147,121.47976689320058 43.622107055038214,112.99882177845575 45.32729058340192,87.02580107259564 40.942532937042415,82.255225549452 31.685822353698313,81.4601290046703 22.91630706191063,92.59146439633332 22.185514121316373,117.50432639848441 26.326674120500684,122.27485445723869 36.314177645370364,121.74479610100389 43.865704701282084,112.20373213314451 44.1093023493886,84.90554607729428 33.14740823581815,80.4000000001397 23.647100002504885,89.14605479803868 22.185514121316373,114.05894102808088 29.249845882877707,120.94970841845497 36.314177645370364,120.68467915104702 44.1093023493886,111.93870221241377 45.32729058340192,87.55586462235078 41.18613058514893,82.255225549452 32.903810588642955,81.19509678310715 23.403502356261015,89.9411496182438 23.159904709085822,115.91414895141497 29.980638824403286,122.00982528901659 38.99375176150352,120.68467915104702 44.840095289982855,105.31294773286209 42.40411881916225,85.17057802132331 28.51905294228345,83.3153539984487 21.941916475072503,98.15711897634901 22.91630706191063,119.35953251784667 28.51905294228345,123.0699418426957 37.7757635274902,121.21473766560666 44.1093023493886,111.67367227049544 46.058083523996174,90.73624425986782 43.622107055038214,84.11045012692921 35.096189411357045,81.4601290046703 27.788260000757873,83.58038606145419 21.941916475072503,97.89208800438792 22.91630706191063,119.35953251784667 28.27545529510826,122.80491273361258 38.01936117466539,120.94970841845497 44.1093023493886,111.67367227049544 43.865704701282084,84.90554607729428 31.198627059347928,81.19509678310715 23.159904709085822,92.06140159908682 23.647100002504885,116.70923776412383 31.198627059347928,122.80491273361258 39.724544703029096,122.27485445723869 44.35289999470115,115.91414895141497 44.59649764187634,85.96567373303697 30.22423647157848,81.19509678310715 22.67270941566676,91.26630725478753 21.454721179790795,116.1791785757523 25.352283532731235,122.00982528901659 33.87820117548108,123.33497093105689 44.1093023493886,113.2638516202569 45.083692936226726,86.76076926710084 31.44222470652312,81.4601290046703 22.429111768491566,92.3264330078382 21.69831882789731,117.76935590407811 26.326674120500684,122.53988360543735 34.121798822656274,123.0699418426957 41.4297282313928,119.35953251784667 44.840095289982855,112.46876203478314 45.814485877752304,86.76076926710084 32.41661529429257,80.93006454245187 22.67270941566676,90.20618118508719 21.69831882789731,116.70923776412383 26.08307647332549,121.74479610100389 35.096189411357045,123.60000000009313 43.865704701282084,116.4442081800662 45.814485877752304,87.82089636777528 42.40411881916225,83.0503219156526 33.14740823581815,80.93006454245187 23.403502356261015,88.61599148530513 20.72392824012786,114.32397079118527 23.8906976506114,120.15462055732496 30.955029413104057,123.0699418426957 43.37850940786302,116.4442081800662 46.058083523996174,89.9411496182438 35.339787057600915,80.93006454245187 24.377892944030464,87.82089636777528 21.69831882789731,113.79391124541871 33.391005881130695,123.0699418426957 44.35289999470115,116.70923776412383 46.78887646552175,91.26630725478753 42.16052117291838,83.84541810397059 35.339787057600915,81.4601290046703 23.8906976506114,88.61599148530513 21.454721179790795,114.58900053426623 25.10868588462472,120.41964986454695 33.391005881130695,123.0699418426957 44.59649764187634,115.11905996012501 46.30168117117137,91.26630725478753 43.13491176068783,84.90554607729428 34.85259176325053,80.93006454245187 23.647100002504885,88.88102315203287 21.941916475072503,115.38408964429982 25.839478826150298,120.68467915104702 33.391005881130695,122.80491273361258 43.622107055038214,116.1791785757523 45.814485877752304,90.20618118508719 34.60899411700666,81.4601290046703 23.647100002504885,89.9411496182438 21.69831882789731,115.6491193077527 33.87820117548108,122.27485445723869 44.1093023493886,114.58900053426623 46.30168117117137,89.41108642448671 33.87820117548108,81.19509678310715 23.403502356261015,89.9411496182438 21.941916475072503,114.58900053426623 33.63460352923721,122.27485445723869 43.865704701282084,115.11905996012501 45.57088822964579,89.14605479803868 40.45533764362335,82.52025769208558 33.391005881130695,81.4601290046703 23.8906976506114,90.47121273190714 21.454721179790795,114.85403025709093 32.173017647117376,123.0699418426957 43.865704701282084,117.2392968737986 47.276071758940816,91.53133872314356 42.891314113512635,83.3153539984487 29.006248236633837,82.52025769208558 23.403502356261015,90.73624425986782 21.941916475072503,111.40864230901934" stroke="#4dd2ff" stroke-linecap="round" stroke-linejoin="round" stroke-width="0.5"><title>2024-04-06 11.8km</title><desc>1712394949000</desc></polyline><polyline fill="none" points="89.68664854764938,118.27015678375028 99.22649864014238,123.60000000009313 108.25068116094917,116.02601000503637 111.34468659758568,91.6208270676434 108.25068116094917,83.48573079076596 98.71083106845617,81.24156319489703 92.52282019611448,85.44937633606605 88.91314718872309,110.69615602353588 95.61682563181967,121.35585641185753 108.25068116094917,116.8675652043894 111.60252038296312,90.21822552080266 106.70367844309658,83.20520991459489 98.19516349490732,82.36364716105163 92.26498640980572,86.85197966662236 89.17098097503185,112.94030599179678 95.87465941905975,121.6363744335249 107.47717980202287,117.98963850946166 110.8290190231055,90.77926620212384 105.15667572524399,82.64416810055263 96.90599456429482,82.64416810055263 92.00715262442827,87.69354141363874 89.17098097503185,112.0987499107141 94.58549048751593,121.0753383685369 107.73501358833164,117.70912021491677 111.08685281034559,90.77926620212384 103.6096730073914,82.08312620106153 91.7493188381195,87.13250026991591 88.39747961610556,114.62341758725233 97.93732970952988,122.19741041515954 108.50851494725794,115.74549156310968 111.34468659758568,91.05978651111946 107.99284737370908,84.32729329308495 101.54700271692127,81.52208421821706 90.97581747826189,87.97406195336953 88.39747961610556,112.65978731913492 96.90599456429482,121.91689243493602 108.7663487335667,115.4649731006939 111.08685281034559,90.49874587194063 101.28916893154383,81.52208421821706 91.49148505274206,87.69354141363874 89.17098097503185,113.50134327355772 97.93732970952988,122.19741041515954 108.7663487335667,115.4649731006939 110.8290190231055,88.81562344823033 100.51566757261753,81.8026052203495 91.49148505274206,87.97406195336953 89.42881476134062,114.34289903962053 99.48433242738247,121.91689243493602 109.28201630618423,114.90393611206673 111.34468659758568,89.65718475473113 102.0626702895388,81.8026052203495 90.97581747826189,88.81562344823033 89.17098097503185,114.34289903962053 98.45299728121608,122.19741041515954 109.02418251987547,115.74549156310968 111.34468659758568,89.93770514801145 101.03133514523506,81.8026052203495 90.97581747826189,88.81562344823033 88.91314718872309,114.34289903962053 99.48433242738247,122.19741041515954 108.7663487335667,115.74549156310968 111.08685281034559,89.93770514801145 102.32050407584757,81.52208421821706 91.23365126550198,87.69354141363874 89.17098097503185,113.22082464280538 97.42166213691235,121.91689243493602 104.89884193893522,120.51430221949704 109.02418251987547,115.4649731006939 111.34468659758568,89.09614390484057 102.0626702895388,81.52208421821706 91.7493188381195,87.41302085248753 88.91314718872309,113.22082464280538 96.64816077798605,121.91689243493602 108.50851494725794,116.58704682579264 111.08685281034559,90.21822552080266 102.8361716484651,80.96104215155356 92.00715262442827,86.85197966662236 88.91314718872309,113.50134327355772 97.67949592228979,121.91689243493602 105.67234329786152,120.23378411354497 109.539850092493,114.62341758725233 110.57118523772806,88.53510297113098 100.25783378630877,81.24156319489703 90.97581747826189,88.25458247261122 89.17098097503185,115.18445461639203 98.71083106845617,122.19741041515954 109.02418251987547,114.90393611206673 111.08685281034559,89.93770514801145 101.28916893154383,81.52208421821706 90.71798369288445,89.3766643407289 89.17098097503185,113.50134327355772 98.45299728121608,121.91689243493602 108.7663487335667,116.02601000503637 111.08685281034559,90.21822552080266 100.51566757261753,81.52208421821706 91.23365126550198,88.53510297113098 89.17098097503185,114.62341758725233 95.35899184644222,121.6363744335249 108.25068116094917,116.8675652043894 111.60252038296312,90.49874587194063 101.28916893154383,81.24156319489703 91.7493188381195,87.41302085248753 89.68664854764938,114.0623804719653 99.48433242738247,122.19741041515954 109.02418251987547,114.90393611206673 111.34468659758568,90.21822552080266 106.44584465585649,82.92468901816756 100.25783378630877,81.24156319489703 91.49148505274206,88.53510297113098 89.17098097503185,113.7818618840538 99.48433242738247,122.19741041515954 108.7663487335667,116.8675652043894 111.08685281034559,89.3766643407289 101.28916893154383,80.68052108609118 92.26498640980572,85.72989704390056 89.17098097503185,113.7818618840538 92.78065398335457,119.95326598663814 99.74216621369123,122.19741041515954 109.539850092493,114.34289903962053 111.08685281034559,89.3766643407289 106.18801087141037,82.36364716105163 99.48433242738247,80.96104215155356 91.49148505274206,87.69354141363874 89.42881476134062,114.62341758725233 100.51566757261753,122.75844631250948 109.02418251987547,116.02601000503637 110.8290190231055,89.3766643407289 100.77350135799497,80.4000000001397 91.23365126550198,87.69354141363874 88.91314718872309,112.94030599179678 96.90599456429482,121.91689243493602 108.7663487335667,116.3065284260083 110.8290190231055,89.65718475473113 102.0626702895388,81.24156319489703 95.35899184644222,82.08312620106153 91.23365126550198,88.81562344823033 89.17098097503185,113.7818618840538 98.96866485569626,122.19741041515954 109.28201630618423,115.4649731006939 110.8290190231055,90.21822552080266 101.54700271692127,80.96104215155356 91.23365126550198,88.53510297113098 89.42881476134062,114.90393611206673 98.71083106845617,122.75844631250948 109.02418251987547,115.4649731006939 110.8290190231055,88.53510297113098 106.70367844309658,82.92468901816756 98.71083106845617,81.24156319489703 91.23365126550198,88.53510297113098 89.68664854764938,114.90393611206673 100.25783378630877,122.19741041515954 109.28201630618423,114.0623804719653 111.08685281034559,88.81562344823033 99.74216621369123,80.96104215155356 92.52282019611448,86.01041773078032 88.65531340241432,95.54810860822909 88.39747961610556,117.14808356179856" stroke="#4dd2ff" stroke-linecap="round" stroke-linejoin="round" stroke-width="0.5"><title>2024-04-03 9.7km</title><desc>1712137473000</desc></polyline><polyline fill="none" points="150.55862275324762,106.65888246102259 157.5656342767179,105.24711923324503 154.97044482454658,112.8706343867816 160.67986162099987,121.62354020541534 173.91532783210278,121.62354020541534 181.44137724675238,93.95299440529197 177.2890741210431,82.09412696235813 167.4273541988805,80.4000000001397 160.4203426744789,84.35296172834933 157.30611533205956,112.58828224870376 160.93938056658953,122.18824310950004 170.02254365291446,122.18824310950004 176.77003622986376,117.38826573104598 179.6247446294874,91.41181166050956 173.39628994185477,82.94119015848264 160.67986162099987,88.02356534125283 157.30611533205956,114.84709876566194 165.35120263695717,122.7529459297657 176.77003622986376,116.8235621091444 179.10570673830807,91.12945791706443 171.83917627017945,82.09412696235813 160.4203426744789,88.02356534125283 157.5656342767179,115.6941546103917 166.3892784183845,123.31764866481535 176.77003622986376,117.1059139308054 179.6247446294874,90.84710415219888 172.6177331060171,82.65883578034118 165.35120263695717,83.50589884910733 159.9013047842309,89.1529811185319 157.0465963864699,114.84709876566194 165.61072158254683,123.60000000009313 176.51051728613675,117.1059139308054 179.36522568482906,90.00004273070954 172.6177331060171,82.65883578034118 159.9013047842309,88.87062720605172 157.0465963864699,113.43533860123716 160.4203426744789,120.77648569084704 167.68687314447016,123.31764866481535 177.54859306663275,115.97650651726872 179.36522568482906,90.28239655890502 172.35821415949613,82.37648138194345 166.64879736304283,82.37648138194345 159.9013047842309,88.5882732719183 157.0465963864699,113.71769067575224 164.83216474577785,123.31764866481535 176.25099834054708,118.23532100627199 179.6247446294874,91.41181166050956 174.4343657232821,82.94119015848264 167.68687314447016,82.65883578034118 160.16082373075187,88.5882732719183 157.30611533205956,114.28239476378076 163.27505107410252,122.47059453022666 176.77003622986376,121.05883721681312" stroke="#4dd2ff" stroke-linecap="round" stroke-linejoin="round" stroke-width="0.5"><title>2024-04-02 3.0km</title><desc>1712049520000</desc></polyline><polyline fill="none" points="25.392317245714366,141.99445542646572 23.72631413117051,165.55806975485757 28.724323473870754,170.6937110396102 36.22133748512715,170.99580738297664 41.77468119841069,164.6517794386018 44.55135305412114,134.7440848937258 35.11066874302924,128.4000000001397 26.225318802520633,135.6503819222562 23.448646945878863,164.6517794386018 28.16898910328746,170.39161467482336 35.9436702998355,170.99580738297664 41.77468119841069,164.3496826211922 44.55135305412114,135.04618392605335 35.388335928320885,128.4000000001397 26.225318802520633,135.34828293533064 23.170979760587215,163.7454889183864 32.88933125883341,171.60000000009313 41.77468119841069,164.95387623365968 44.829020239412785,136.2545798283536 36.4990046704188,128.4000000001397 26.225318802520633,135.34828293533064 23.170979760587215,164.04758578166366 32.05632970202714,171.60000000009313 41.49701401311904,165.55806975485757 44.829020239412785,136.55667874752544 36.77667185757309,128.4000000001397 26.225318802520633,135.04618392605335 23.170979760587215,163.7454889183864 31.5009953295812,171.60000000009313 41.49701401311904,165.55806975485757 45.10668742470443,137.16087651788257 37.60967341437936,128.7020995072089 26.502985988743603,134.44198583904654 23.170979760587215,163.14129512687214 32.05632970202714,171.60000000009313 41.49701401311904,165.55806975485757 44.829020239412785,136.55667874752544 36.4990046704188,128.4000000001397 26.502985988743603,134.44198583904654 23.170979760587215,163.7454889183864 32.33399688731879,171.60000000009313 41.77468119841069,164.6517794386018 44.829020239412785,136.85877764434554 36.22133748512715,128.4000000001397 26.225318802520633,135.6503819222562 23.170979760587215,164.04758578166366 32.33399688731879,171.60000000009313 41.77468119841069,164.95387623365968 44.829020239412785,135.95248088729568 35.9436702998355,128.4000000001397 26.225318802520633,135.6503819222562 23.170979760587215,163.44339203368872 26.78065317403525,169.48532544262707 34.27766718622297,171.29790370306 41.77468119841069,164.6517794386018 44.829020239412785,136.2545798283536 35.388335928320885,128.4000000001397 26.225318802520633,135.6503819222562 23.170979760587215,163.14129512687214 31.5009953295812,171.60000000009313 41.49701401311904,165.55806975485757 45.10668742470443,137.76507419743575 37.33200622815639,128.7020995072089 26.78065317403525,134.13988676248118 23.170979760587215,163.14129512687214 29.55732503067702,170.99580738297664 41.49701401311904,165.55806975485757 45.10668742470443,137.16087651788257 37.887340598739684,128.7020995072089 27.335987544618547,132.9314902271144 22.893312574364245,162.23500426788814 26.502985988743603,169.48532544262707 34.0,171.60000000009313 40.664012456312776,167.06855316390283 45.10668742470443,138.97346928692423 39.553343712352216,129.3062984519638 29.001990659162402,130.81679542083293 24.28164850268513,166.464359868085 30.112659401260316,171.29790370306 37.60967341437936,170.08951828652062 43.163017126731575,155.58886508829892" stroke="#4dd2ff" stroke-linecap="round" stroke-linejoin="round" stroke-width="0.5"><title>2024-03-30 4.8km</title><desc>1711782999000</desc></polyline><polyline fill="none" points="87.57486380729824,146.0327104406897 89.46564540080726,166.01635326398537 95.1379901850596,170.71837209630758 103.781563189812,170.13062005024403 110.26424294151366,161.60820549703203 109.72401962894946,131.63266950612888 96.75866012368351,129.28163740155287 89.73575705755502,137.21636511362158 89.73575705755502,165.1347241064068 97.2988834362477,171.60000000009313 105.67234478332102,169.54286791547202 110.53435459826142,161.60820549703203 112.42513619270176,139.56739246915095 109.4539079722017,131.04491161182523 100.0,128.4000000001397 93.5173202464357,132.51430618180893 88.65531043149531,161.0204520879779 91.35642699617893,167.7796109856572 99.18966503161937,171.60000000009313 110.26424294151366,163.66534173721448 111.34468956757337,133.9837002030108 99.72988834325224,128.9877582900226 90.27598037011921,137.51024360954762 90.27598037011921,167.48573475331068 100.5402233125642,171.30612405436113 108.37346134707332,166.60410592518747 111.88491287920624,139.86127078952268 109.9941312847659,132.51430618180893 104.05167484469712,128.69387915660627 91.89665030874312,133.68982144305483 88.38519877567887,162.783712051576 95.1379901850596,170.71837209630758 108.10334969032556,166.01635326398537 111.88491287920624,139.56739246915095 106.21256809588522,130.16327460552566 91.89665030874312,130.16327460552566" stroke="#4dd2ff" stroke-linecap="round" stroke-linejoin="round" stroke-width="0.5"><title>2024-03-28 2.0km</title><desc>1711615120000</desc></polyline><polyline fill="none" points="155.080739967525,146.76006318023428 152.35092495847493,147.3000636245124 155.080739967525,149.46006459393539 152.10275995824486,148.11006413935684 155.080739967525,148.9200644728262 155.82523496914655,165.93002947908826 161.28486498538405,170.7900047567673 169.9706400120631,171.06000319099985 177.41559003386647,161.88004508172162 178.65641503687948,133.53002705588005 172.70045502018183,128.94000319158658 165.25550499744713,128.94000319158658 156.56972997169942,138.66004681959748 154.8325749654323,163.23004038608633 164.2628449946642,171.60000000009313 176.17476502992213,164.58003518474288 178.40825003758073,136.23003836721182 174.68577502574772,129.7500078266021 168.72981500811875,128.4000000001397 157.56238997355103,135.96003732644022 155.82523496914655,161.07004765677266 159.29954497981817,167.8200206423644 165.5036699976772,170.25000782706775 174.9339400269091,164.58003518474288 177.41559003386647,138.3900459613651 168.72981500811875,130.02000933210365 158.80321497749537,136.23003836721182 157.0660599730909,162.96004136512056 165.99999999906868,170.25000782706775 175.67843502853066,162.96004136512056 177.16742503270507,135.4200351855252 168.23348500579596,129.48000630177557 158.80321497749537,137.04004136589356 156.81789497099817,162.15004418301396 164.51100999489427,170.25000782706775 175.43027002830058,162.96004136512056 177.16742503270507,137.31004232540727 167.24082500394434,128.94000319158658 159.05137997865677,136.23003836721182 156.32156497053802,162.15004418301396 165.00733999721706,170.25000782706775 175.92660002876073,162.96004136512056 177.91192003525794,137.31004232540727 169.22614500951022,129.48000630177557 159.29954497981817,135.96003732644022 156.56972997169942,161.88004508172162 158.3068849761039,167.55002196552232 164.51100999489427,169.71001081634313 175.67843502853066,163.77003836608492 177.91192003525794,138.9300476582721 169.4743100097403,130.56001228070818 159.05137997865677,135.690036265878 156.56972997169942,162.96004136512056 165.5036699976772,169.9800093313679 175.67843502853066,163.23004038608633 177.66375503502786,136.23003836721182 168.48165000695735,130.02000933210365 159.05137997865677,137.04004136589356 156.56972997169942,162.42004326474853 165.5036699976772,170.25000782706775 173.4449500227347,169.17001372436062 177.16742503270507,164.04003732604906 179.89724004082382,138.1200450831093" stroke="#4dd2ff" stroke-linecap="round" stroke-linejoin="round" stroke-width="0.5"><title>2024-03-26 3.7km</title><desc>1711445960000</desc></polyline><polyline fill="none" points="22.352785812690854,209.52004335820675 31.882324693724513,219.60000000009313 43.264829467982054,212.97603146592155 45.38250477425754,183.88803472998552 39.55889768153429,176.4000000001397 25.794008187018335,181.2960243562702 22.08807640057057,208.65604584640823 24.470461119897664,215.2800218136981 32.67645293381065,219.31200160481967 42.7354106400162,213.55202918173745 45.91192360036075,185.32803973928094 40.61773533374071,176.68800160498358 26.588136427104473,182.44802918261848 23.146914053708315,199.1520604218822 26.323427013121545,215.2800218136981 33.20587175991386,218.4480062914081 39.55889768153429,215.85601918562315 45.11779536027461,187.05604503955692 40.61773533374071,178.70401223702356 32.94116234686226,177.84000780945644 27.646974080242217,182.1600280085113 24.20575170684606,207.5040488629602 30.02935879956931,217.58401078358293 40.88244474772364,214.12802681233734 45.11779536027461,185.9040415917989 39.02947885263711,177.55200629099272 27.646974080242217,182.44802918261848 24.20575170684606,208.08004739810713 30.294068213552237,217.58401078358293 40.61773533374071,214.12802681233734 43.264829467982054,180.72002181364223 34.264709413051605,176.97600318840705 26.852845839224756,184.46403679833747 24.470461119897664,211.536036798032 29.23523055948317,217.00801367033273 36.64709413331002,217.29601223720238" stroke="#4dd2ff" stroke-linecap="round" stroke-linejoin="round" stroke-width="0.5"><title>2024-03-25 2.1km</title><desc>1711359274000</desc></polyline><polyline fill="none" points="105.47235560882837,215.44617575313896 110.56291896477342,187.2000472645741 104.70877110492438,178.3384723418858 91.47330637834966,184.15388327743858 88.67349653318524,207.69235802232288 96.3093415684998,217.93847086117603 107.50858095102012,213.50772284297273 110.56291896477342,187.2000472645741 103.18160209804773,178.6153968796134 91.47330637834966,184.43080738023855 88.67349653318524,209.35389176034369 96.81839790288359,217.93847086117603 107.763109119609,212.67695699934848 110.56291896477342,186.09235155885108 102.92707393039018,178.6153968796134 91.47330637834966,184.15388327743858 88.92802470177412,209.6308139776811 91.21877821162343,215.44617575313896 98.34556691069156,218.21539243590087 108.01763728726655,211.56926891766489 110.56291896477342,187.75389499240555 103.94518660195172,178.6153968796134 91.47330637834966,183.04618666064925 88.92802470177412,209.6308139776811 96.81839790288359,218.49231399060227 107.25405278429389,213.23080091620795 110.56291896477342,187.2000472645741 103.43613026663661,178.06154778436758 91.72783454693854,182.76926245493814 88.67349653318524,210.18465834949166 91.21877821162343,215.72309751529247 98.85462324507535,218.76923552434891 108.27216545399278,211.29234684631228 110.30839079711586,185.8154275806155 102.41801759414375,178.06154778436758 95.29122889600694,179.44617036753334 90.96425004303455,184.98465552204289 89.18255286850035,211.56926891766489 99.10915141366422,218.21539243590087 108.52669362258166,210.46158050536178 110.30839079711586,186.09235155885108 102.92707393039018,178.06154778436758 91.21877821162343,184.98465552204289 88.92802470177412,210.73850263888016 97.83651057537645,217.93847086117603 107.50858095102012,212.67695699934848 110.30839079711586,185.8154275806155 101.39990492444485,178.06154778436758 90.96425004303455,184.70773146185093 89.18255286850035,211.01542475260794 97.83651057537645,218.49231399060227 108.01763728726655,212.67695699934848 110.56291896477342,186.09235155885108 106.23594011273235,178.89232139661908 91.98236271552742,182.76926245493814 88.92802470177412,207.96928036329336 95.03670072834939,217.93847086117603 107.25405278429389,213.7846447492484 110.56291896477342,186.64619945315644 102.67254576273263,178.3384723418858 91.47330637834966,183.6000350106042 88.92802470177412,209.9077361735981 96.05481339991093,217.6615492652636 106.99952461570501,214.61541034444235 110.8174471333623,187.47697113873437 105.72688377741724,178.89232139661908 97.83651057537645,178.06154778436758 91.72783454693854,183.6000350106042 87.14632752537727,207.69235802232288 89.18255286850035,215.16925397142768 96.3093415684998,219.60000000009313 102.92707393039018,219.32307852921076 109.03574995789677,213.50772284297273 112.85367247555405,188.03081882512197 105.9814119450748,176.9538493445143 97.58198240678757,176.4000000001397 90.20066554006189,182.4923382285051 87.14632752537727,209.07696952181868 95.03670072834939,218.76923552434891 108.27216545399278,216.55386267532595" stroke="#4dd2ff" stroke-linecap="round" stroke-linejoin="round" stroke-width="0.5"><title>2024-03-24 4.9km</title><desc>1711273464000</desc></polyline><polyline fill="none" points="153.8201231174171,207.67367227142677 156.01250095665455,215.35953251854517 162.102439397946,219.33497093128972 169.16676798835397,218.00982528948225 175.0131088923663,212.17917857621796 177.44908426888287,184.35095979948528 175.50030396692455,179.5803860614542 168.19237783923745,177.19509678310715 160.15365909598768,179.05032191611826 155.76890341937542,184.61599148600362 154.307318193838,211.11905996105634 158.9356714086607,217.21473766630515 167.2179876882583,219.06994184246287 175.98749904241413,209.2638516209554 176.23109657969326,180.90554607729428 167.46158522646874,177.19509678310715 158.44847633410245,180.11045012786053 154.79451326839626,186.47121273283847 153.33292804285884,209.79391124565154 161.12804924789816,219.60000000009313 169.65396306477487,218.00982528948225 174.76951135415584,212.4442081800662 178.91066949348897,188.06140159908682 175.743901505135,179.5803860614542 168.92317045107484,176.9300645419862 158.69207387138158,180.11045012786053 155.03811080753803,185.94114961801097 154.79451326839626,214.56444430048577 161.85884186066687,219.60000000009313 168.92317045107484,219.06994184246287 176.23109657969326,209.2638516209554 176.23109657969326,180.90554607729428 164.53841477446258,176.4000000001397 155.28170834388584,185.67611803137697 153.5765255810693,210.85403025709093 158.204878795892,217.74479610123672 166.0,218.80491273361258 175.98749904241413,209.52888144389726 176.9618891933933,182.23070559790358 173.0643285913393,177.72516120621003 164.7820123117417,176.9300645419862 155.03811080753803,186.2061811850872 154.06372065562755,212.974267329555 167.2179876882583,218.53988360543735 175.743901505135,209.52888144389726 175.743901505135,180.90554607729428 166.48719507455826,176.6650322813075 155.76890341937542,182.7607692675665 153.0893305055797,211.38408964429982 157.96128125675023,217.47976689389907 167.2179876882583,219.06994184246287 175.743901505135,210.05894102854654 175.25670642964542,179.31535399891436 165.75640246178955,176.6650322813075 158.9356714086607,180.11045012786053 153.5765255810693,199.987795349909 156.74329356942326,216.15462055732496 171.846340903081,216.9497084186878 177.692681806162,187.26630725548603 172.33353597857058,177.9901933874935 158.69207387138158,180.11045012786053 153.5765255810693,206.34852226660587 155.28170834388584,215.35953251854517 161.61524432245642,218.53988360543735 173.795121204108,214.03438538941555 177.93627934344113,187.7963701710105 174.5259138168767,179.31535399891436 158.44847633410245,179.31535399891436 154.307318193838,194.42214992945082 156.01250095665455,215.35953251854517 163.3204270862043,219.06994184246287 172.08993844036013,216.41964986454695 175.98749904241413,210.3239707921166 177.93627934344113,188.06140159908682 174.28231627959758,179.31535399891436 162.34603693522513,177.4601290046703 155.03811080753803,186.2061811850872 153.8201231174171,212.4442081800662 160.64085417147726,218.53988360543735 168.92317045107484,217.47976689389907 174.5259138168767,203.43319051433355 173.3079261276871,180.90554607729428 165.75640246178955,178.52025769185275 157.96128125675023,182.23070559790358 153.33292804285884,198.92767308698967" stroke="#4dd2ff" stroke-linecap="round" stroke-linejoin="round" stroke-width="0.5"><title>2024-03-22 5.0km</title><desc>1711100044000</desc></polyline><polyline fill="none" points="20.847247089259326,240.60006059450097 25.314219776540995,263.55002196575515 32.75917425472289,267.33000160590746 40.20412873197347,265.1700137243606 45.16743171773851,259.5000393856317 46.90458776243031,247.0800644720439 43.678440822288394,228.72002326813526 33.50366970151663,225.2100047566928 26.306880373507738,234.39004596089944 25.314219776540995,260.31003626505844 31.270183358341455,266.5200063018128 38.466972686350346,266.5200063018128 44.42293627001345,258.1500441832468 44.17477111984044,232.23003836651333 35.98532119486481,226.29001081595197 26.5550455218181,234.39004596089944 25.314219776540995,259.5000393856317 29.78119246289134,265.4400122803636 36.48165149241686,266.79000475723296 43.678440822288394,257.0700476572383 44.671101418323815,231.42003518505953 37.72247723862529,225.48000630224124 26.5550455218181,231.96003732667305 24.32155917864293,257.88004508195445 34.496330299414694,265.98000933183357 40.94862418062985,264.63001655228436 45.415596866980195,257.0700476572383 45.66376201529056,229.5300270554144 42.68578022439033,225.48000630224124 33.255504553206265,224.39999999990687 24.8178894771263,232.500039386563 23.328898582607508,259.2300403858535 34.496330299414694,267.60000000009313 44.671101418323815,257.61004596040584 47.152752911671996,233.8500441836659 43.430275672115386,224.67000160599127 28.04403641819954,226.83001372450963 22.088072835467756,254.10005554393865" stroke="#4dd2ff" stroke-linecap="round" stroke-linejoin="round" stroke-width="0.5"><title>2024-03-21 2.2km</title><desc>1711013104000</desc></polyline></svg>