<?xml version="1.0" encoding="utf-8" ?>
<svg baseProfile="full" height="300mm" version="1.1" viewBox="0,0,200,300" width="200mm" xmlns="http://www.w3.org/2000/svg" xmlns:ev="http://www.w3.org/2001/xml-events" xmlns:xlink="http://www.w3.org/1999/xlink"><defs /><rect fill="#222222" height="300" width="200" x="0" y="0" /><text fill="#FFFFFF" style="font-size:12px; font-family:Arial; font-weight:bold;" x="10" y="20">Over 2km Runs</text><text fill="#FFFFFF" style="font-size:4px; font-family:Arial" x="10" y="280">ATHLETE</text><text fill="#FFFFFF" style="font-size:9px; font-family:Arial" x="10" y="290">作怪</text><text fill="#FFFFFF" style="font-size:4px; font-family:Arial" x="120" y="280">STATISTICS</text><text fill="#FFFFFF" style="font-size:3px; font-family:Arial" x="120" y="285">Number: 19</text><text fill="#FFFFFF" style="font-size:3px; font-family:Arial" x="120" y="290">Weekly: 3.8</text><text fill="#FFFFFF" style="font-size:3px; font-family:Arial" x="141" y="285">Total: 99.6 km</text><text fill="#FFFFFF" style="font-size:3px; font-family:Arial" x="141" y="290">Avg: 5.2 km</text><text fill="#FFFFFF" style="font-size:3px; font-family:Arial" x="167" y="285">Min: 2.0 km</text><text fill="#FFFFFF" style="font-size:3px; font-family:Arial" x="167" y="290">Max: 12.3 km</text><polyline fill="none" points="33.23169761709869,40.11127580201719 34.054857436567545,45.98232489370275 36.524336895439774,46.7783973517362 38.81089194910601,45.48477936524432 40.18282498186454,35.93186913442332 38.902354151941836,33.44412083597854 36.06702588452026,32.847060551750474 34.054857436567545,34.33971075958107 32.865848808549345,43.693613923038356 35.60971487313509,46.67888832069002 39.359665162395686,44.6887061331654 40.18282498186454,35.434319847030565 37.438958916813135,32.74755047855433 33.780470829922706,34.83726045617368 32.95731101091951,43.992141664261 36.06702588452026,46.7783973517362 39.359665162395686,44.58919694565702 40.18282498186454,35.434319847030565 36.79872350208461,32.74755047855433 33.780470829922706,35.03628028312232 32.95731101091951,44.09165089612361 36.06702588452026,46.7783973517362 39.45112736430019,44.390178548172116 40.18282498186454,35.33480996731669 37.07311010826379,32.74755047855433 33.780470829922706,34.93677037337329 33.04877321282402,44.290669338312 36.06702588452026,46.7783973517362 39.45112736430019,44.390178548172116 40.18282498186454,35.434319847030565 36.524336895439774,32.74755047855433 33.6890086280182,35.2353000799194 33.04877321282402,44.48968775058165 36.06702588452026,46.7783973517362 39.359665162395686,44.58919694565702 40.091362779494375,35.33480996731669 36.707261299248785,32.74755047855433 33.6890086280182,35.03628028312232 32.95731101091951,44.19116012088489 36.249950288794935,46.7783973517362 39.45112736430019,44.19116012088489 40.091362779494375,35.33480996731669 36.43287469306961,32.74755047855433 33.6890086280182,35.13579018518794 33.23169761709869,44.88772448571399 35.79263927787542,46.7783973517362 38.71942974673584,45.683797599049285 40.091362779494375,37.12598666513804 38.170656534377486,33.04608067648951 33.96339523466304,34.53873066033702 32.865848808549345,43.594104660791345 34.786555054131895,46.38036118238233 37.164572310168296,46.67888832069002 39.08527855575085,45.086742808809504 40.18282498186454,35.83235929196235 37.89626992773265,32.847060551750474 34.23778184084222,34.041180851869285 33.41462202183902,45.18625195894856 37.164572310168296,46.67888832069002 39.54258956667036,43.594104660791345 40.091362779494375,35.13579018518794 36.249950288794935,32.847060551750474 33.597546425648034,35.33480996731669 33.23169761709869,44.88772448571399 36.249950288794935,46.7783973517362 39.359665162395686,44.58919694565702 40.18282498186454,35.434319847030565 36.981647905893624,32.74755047855433 33.6890086280182,35.13579018518794 33.23169761709869,44.88772448571399 36.89018570398912,46.67888832069002 39.54258956667036,43.594104660791345 39.72551397094503,34.43922071380075 37.07311010826379,32.74755047855433 34.14631963893771,34.14069082844071 32.865848808549345,43.594104660791345 34.42070624558255,46.280852121300995 30.396369349677116,50.26120875473134 30.487831552047282,55.63467131787911 23.628166389651597,56.231721373973414 22.16477115545422,57.72434534190688 20.609913718421012,67.67512899579015 16.859963429626077,71.25739289051853 19.69529169658199,72.75 16.58557682298124,71.05837848293595 20.701375920325518,66.5805464371806 21.981846750713885,57.42582068219781 30.30490714823827,55.13712939969264 32.04268898908049,47.972505145706236 42.743766642641276,49.266120712971315 48.4144231765531,43.992141664261 43.38400205783546,47.57446933363099 39.816976172849536,47.375451382715255 40.091362779494375,34.73775053175632 38.99381635338068,32.847060551750474 36.34141249069944,32.25 33.323159819468856,35.03628028312232 32.59146220237017,44.88772448571399 36.43287469306961,46.97741539182607 39.26820296002552,43.992141664261 39.9084383752197,34.63824059977196 38.71942974673584,32.64804039790761 35.60971487313509,32.54853030946106 33.140235415194184,35.53382971929386 32.59146220237017,45.48477936524432 36.34141249069944,46.87790637568105 38.99381635338068,43.89263242436573 39.816976172849536,34.53873066033702 38.53650534292683,32.74755047855433 35.70117707550526,32.54853030946106 32.68292440427467,36.72794760740362 32.134151191450655,44.09165089612361 33.323159819468856,46.38036118238233 36.249950288794935,46.97741539182607 38.81089194910601,44.88772448571399 39.9084383752197,35.73284944193438 37.5304211191833,32.34951011068188 33.597546425648034,34.14069082844071 32.134151191450655,44.19116012088489 34.8780172560364,46.7783973517362 38.99381635338068,44.09165089612361 39.99990057758987,35.03628028312232 38.627967545297,32.74755047855433 36.79872350208461,32.34951011068188 32.49999999953434,36.13088879745919 31.951226787175983,44.6887061331654 35.975563682150096,46.97741539182607 39.08527855575085,43.992141664261 39.634051769040525,34.53873066033702 36.61579909734428,32.34951011068188 32.865848808549345,35.2353000799194 32.134151191450655,44.390178548172116 35.60971487313509,47.07692440075334 39.08527855575085,43.89263242436573 39.634051769040525,34.43922071380075 36.524336895439774,32.34951011068188 33.04877321282402,34.63824059977196 32.134151191450655,44.09165089612361 35.60971487313509,46.87790637568105 38.902354151941836,44.58919694565702 39.72551397094503,34.63824059977196 36.524336895439774,32.34951011068188 32.68292440427467,35.33480996731669 32.31707559572533,44.19116012088489 35.70117707550526,46.87790637568105 38.99381635338068,44.09165089612361 39.9084383752197,34.63824059977196 36.981647905893624,32.34951011068188 32.95731101091951,34.63824059977196 31.76830238243565,43.89263242436573 35.42679046932608,46.87790637568105 38.99381635338068,44.6887061331654 39.634051769040525,34.63824059977196 36.249950288794935,32.34951011068188 32.77438660617918,35.2353000799194 32.04268898908049,44.58919694565702 35.60971487313509,46.87790637568105 39.08527855575085,44.09165089612361 39.72551397094503,34.93677037337329 36.61579909734428,32.44902021379676 32.865848808549345,34.53873066033702 31.859764584805816,43.594104660791345 35.42679046932608,46.67888832069002 39.08527855575085,43.992141664261 39.816976172849536,34.73775053175632 36.43287469306961,32.34951011068188 32.95731101091951,34.63824059977196 31.951226787175983,43.89263242436573 35.518252671696246,46.7783973517362 39.176740758121014,44.290669338312 39.9084383752197,35.2353000799194 36.89018570398912,32.44902021379676 33.04877321282402,34.63824059977196 31.951226787175983,43.89263242436573 35.24386606505141,46.97741539182607 38.99381635338068,44.19116012088489 40.091362779494375,35.03628028312232 38.902354151941836,32.94657061772887 36.61579909734428,32.44902021379676 32.865848808549345,34.53873066033702 31.951226787175983,43.992141664261 35.24386606505141,46.7783973517362 39.176740758121014,44.09165089612361 39.634051769040525,34.73775053175632 38.71942974673584,33.04608067648951 36.15848808642477,32.44902021379676 32.59146220237017,34.73775053175632 32.134151191450655,44.19116012088489 35.88410147977993,46.7783973517362 38.902354151941836,44.6887061331654 39.634051769040525,34.33971075958107 36.34141249069944,32.34951011068188 33.04877321282402,33.14559072733391 31.951226787175983,34.83726045617368" stroke="#4dd2ff" stroke-linecap="round" stroke-linejoin="round" stroke-width="0.5"><title>2024-04-18 12.3km</title><desc>1713432540000</desc></polyline><polyline fill="none" points="88.2951734950766,62.76004222407937 86.80618404690176,37.65002625784837 76.63142282143235,32.79000298958272 68.93831067625433,40.080035438295454 67.4493212280795,66.2700305399485 75.14243337325752,72.21000298880972 82.09105079621077,70.8600101089105 86.30985423084348,65.19003449799493 87.30251386202872,37.65002625784837 81.34655607212335,32.79000298958272 74.39793865103275,33.06000445387326 68.44198086112738,39.81003449880518 67.4493212280795,65.46003353921697 71.91628957167268,71.67000589775853 78.61674208566546,72.75 86.5580191379413,64.1100381333381 88.04700858611614,40.080035438295454 77.87224736157805,32.25 68.44198086112738,40.35003635729663 67.20115632098168,65.19003449799493 74.1497737430036,72.21000298880972 85.56535950675607,66.54002949874848 88.04700858611614,41.70004064892419 85.56535950675607,35.76001798687503 77.87224736157805,32.25 68.69014576729387,39.54003353929147 67.20115632098168,65.46003353921697 74.39793865103275,72.48000150453299 82.09105079621077,70.59001147234812 85.8135244147852,65.19003449799493 87.30251386202872,39.54003353929147 76.38325791526586,32.25 68.93831067625433,40.080035438295454 67.4493212280795,65.73003255878575 77.62408245354891,72.75 86.06168932281435,64.65003635641187 86.80618404690176,39.000031559728086 82.09105079621077,34.14001010917127 73.15711411088705,33.60000732168555 68.93831067625433,40.35003635729663 67.9456510450691,66.54002949874848 79.36123680789024,71.67000589775853 86.06168932281435,61.680045132292435 86.5580191379413,38.19002843950875 79.85756662487984,33.33000589767471 73.15711411088705,34.41001147287898 67.9456510450691,47.37005316186696 69.93097030743957,70.05001413845457 78.12041226960719,71.94000445352867 84.57269987557083,67.0800273581408 87.30251386202872,41.43003983073868 84.32453496661037,35.76001798687503 77.62408245354891,33.60000732168555 68.93831067625433,36.57002165284939 66.7048265049234,41.97004144731909" stroke="#4dd2ff" stroke-linecap="round" stroke-linejoin="round" stroke-width="0.5"><title>2024-04-17 3.1km</title><desc>1713344929000</desc></polyline><polyline fill="none" points="113.77544919215143,41.36254226532765 111.44890230987221,61.10629964922555 116.79996013827622,68.44689801638015 123.08163671940565,70.21876420197077 130.52658674120903,64.90316286194138 133.08578831143677,40.85629056044854 124.71021953690797,33.515632337424904 114.70606794394553,40.35003878059797 113.31013981532305,64.1437905607745 121.9183632787317,70.7250115131028 130.9918961180374,64.90316286194138 132.85313362441957,41.36254226532765 124.01225547213107,33.515632337424904 114.70606794394553,41.36254226532765 113.07748512737453,63.384418088477105 121.45305390283465,69.965640517883 130.9918961180374,64.39691467932425 132.85313362441957,41.61566808866337 125.87349297758192,34.275011513149366 115.17137731984258,39.84378692531027 113.07748512737453,63.89066642150283 121.68570859078318,70.21876420197077 130.9918961180374,64.1437905607745 133.08578831143677,42.12191967945546 124.94287422578782,34.021885140100494 115.17137731984258,40.096912862034515 113.31013981532305,62.87816967815161 115.8693413855508,67.68752650986426 122.61632734257728,70.21876420197077 130.9918961180374,64.39691467932425 132.85313362441957,40.096912862034515 122.84898203145713,33.768758748658 115.17137731984258,40.096912862034515 113.5427945042029,64.1437905607745 122.38367265556008,70.97813514037989 130.75924143008888,64.65003877971321 133.08578831143677,40.85629056044854 124.71021953690797,33.768758748658 115.63668669760227,40.35003878059797 113.07748512737453,62.87816967815161 117.26526951417327,68.95314559270628 123.54694609623402,70.47188786650077 130.9918961180374,64.39691467932425 132.3878242475912,40.60316468006931 123.31429140735418,33.768758748658 115.63668669760227,40.35003878059797 113.77544919215143,62.87816967815161 119.82447108533233,70.21876420197077 130.52658674120903,64.65003877971321 133.08578831143677,42.12191967945546 124.47756484895945,33.768758748658 115.63668669760227,39.84378692531027 113.5427945042029,62.371921193553135 119.82447108533233,70.21876420197077 130.52658674120903,65.15628692437895 133.55109768919647,41.86879389337264 125.40818360168487,34.528137867338955 115.63668669760227,39.84378692531027 113.07748512737453,63.13129389262758 121.2203992139548,70.7250115131028 130.75924143008888,64.39691467932425 132.85313362441957,40.60316468006931 124.94287422578782,34.021885140100494 118.89385233260691,35.28751681558788 115.63668669760227,40.35003878059797 113.5427945042029,64.65003877971321 122.15101796761155,70.7250115131028 131.22455080598593,63.89066642150283 132.85313362441957,40.35003878059797 123.31429140735418,34.275011513149366 115.17137731984258,40.60316468006931 113.77544919215143,64.1437905607745 121.9183632787317,70.21876420197077 130.9918961180374,63.63754226407036 132.85313362441957,40.85629056044854 124.71021953690797,34.021885140100494 115.63668669760227,39.59066096926108 113.31013981532305,64.39691467932425 120.9877445269376,70.47188786650077 130.2939320532605,65.15628692437895 133.08578831143677,41.10941642220132 123.54694609623402,34.021885140100494 114.2407585689798,38.831282986560836 111.44890230987221,63.13129389262758 118.19588826783001,71.23125874809921 125.17552891280502,71.48438233789057 131.6898601828143,66.92815483291633 133.783752377145,46.4250551413279 128.43269454874098,33.009379459545016 122.15101796761155,32.25 115.63668669760227,37.059400364756584 110.98359293397516,59.081304194405675 113.5427945042029,69.71251681447029 119.35916170850396,72.75 127.26942110713571,71.23125874809921 134.01640706509352,61.61254832427949" stroke="#4dd2ff" stroke-linecap="round" stroke-linejoin="round" stroke-width="0.5"><title>2024-04-15 5.9km</title><desc>1713172666000</desc></polyline><polyline fill="none" points="171.39671856584027,36.53946710494347 171.67178105283529,44.7193428738974 173.68890595808625,46.61467278224882 176.34784333221614,46.41516449768096 178.73171821981668,43.622045379830524 179.19015569798648,34.5443678421434 175.0642183930613,32.25 171.9468435398303,35.54191784677096 171.58009355748072,44.22057139757089 173.2304684794508,46.41516449768096 175.5226558712311,46.714426913065836 178.8234057156369,44.02106275490951 178.91509321145713,33.74632730148733 175.5226558712311,32.3497552057961 172.58865600964054,34.24510269530583 171.39671856584027,43.522291017347015 173.59721846226603,46.51491864351556 176.8062808108516,46.41516449768096 178.91509321145713,44.32032570778392 179.55690568080172,35.04314293793868 176.34784333221614,32.44951040390879 172.03853103611618,35.14289793453645 171.3050310704857,43.12327349325642 174.05565594043583,46.714426913065836 178.45665573282167,45.018605670076795 179.55690568080172,35.34240790538024 176.9896558020264,32.649020777782425 172.58865600964054,34.24510269530583 171.39671856584027,43.82155408221297 173.96396844508126,46.714426913065836 178.18159324582666,45.41762262722477 179.64859317662194,35.940937639563344 177.8148432634771,32.848531121970154 175.61434336705133,32.44951040390879 172.68034350546077,34.045592560316436 171.4884060616605,43.32278227014467 173.78059345344082,46.61467278224882 178.18159324582666,45.41762262722477 178.91509321145713,33.74632730148733 174.69746841024607,32.649020777782425 172.13021853100508,35.34240790538024 171.67178105283529,44.32032570778392 175.61434336705133,46.714426913065836 178.8234057156369,44.12081707990728 179.37353068962693,35.14289793453645 176.07278084522113,32.54926559445448 172.13021853100508,35.14289793453645 171.4884060616605,44.32032570778392 174.78915590560064,46.714426913065836 178.5483432286419,44.22057139757089 179.37353068962693,35.242652923683636 175.79771835822612,32.3497552057961 172.22190602729097,34.943387933657505 171.4884060616605,44.42008001054637 174.51409341860563,46.714426913065836 177.17303079320118,46.31541034427937 178.8234057156369,44.22057139757089 179.46521818544716,34.943387933657505 175.98109334986657,32.44951040390879 172.22190602729097,35.04314293793868 171.67178105283529,44.02106275490951 174.69746841024607,46.714426913065836 178.45665573282167,44.918851411901414 179.55690568080172,35.04314293793868 175.98109334986657,32.44951040390879 172.3135935231112,34.6441228762269 171.58009355748072,43.72179973497987 174.33071842743084,46.714426913065836 178.45665573282167,44.8190971466247 179.46521818544716,35.44216287997551 176.5312183238566,32.54926559445448 172.49696851428598,34.344857751741074 171.4884060616605,44.22057139757089 174.51409341860563,46.81418103678152 178.5483432286419,44.918851411901414 179.46521818544716,35.34240790538024 176.5312183238566,32.54926559445448 171.39671856584027,34.5443678421434 170.8465935923159,44.7193428738974 168.64609369635582,48.50999999663327 169.83803113969043,55.293254270683974 161.67784402472898,57.088815803057514 159.2939691375941,66.7648557771463 155.35140682337806,71.05421186389867 160.2108440939337,72.75" stroke="#4dd2ff" stroke-linecap="round" stroke-linejoin="round" stroke-width="0.5"><title>2024-04-14 5.4km</title><desc>1713087921000</desc></polyline><polyline fill="none" points="20.471588503569365,108.27555917412974 26.295871964655817,119.84694749349728 37.18474974203855,120.39796507800929 42.75580348726362,111.30616439133883 43.009033203125,85.4081848654896 32.12015542667359,81.8265350642614 24.77649367041886,88.98983118240722 22.75065594445914,113.7857486223802 27.055561112239957,119.29592982702889 33.89276343677193,120.67347383964807 42.24934405554086,113.23473004833795 44.0219520656392,87.88778653298505 32.87984457425773,81.2755117083434 24.52326395455748,89.54085338418372 22.75065594445914,114.06125787831843 31.86692571081221,120.39796507800929 41.9961143406108,114.61227632802911 44.78164121322334,90.64289753930643 35.918601161800325,81.2755117083434 25.536182818003,86.78574155294336 23.2571153761819,113.51023934548721 32.12015542667359,120.94898258009925 41.7428846238181,115.4388038488105 44.2751817824319,89.81636445363984 34.65245258342475,81.55102339643054 25.282953101210296,87.88778653298505 22.49742622859776,112.9592207306996 30.600777132436633,121.5 41.9961143406108,114.88778552296571 44.78164121322334,90.91840852680616 36.931520025245845,81.8265350642614 25.536182818003,87.6122753189411 23.003885659389198,112.40820203279145 31.10723656322807,120.39796507800929 41.7428846238181,115.71431298158132 44.528411496430635,89.81636445363984 34.90568230021745,81.2755117083434 25.536182818003,87.33676408464089 23.003885659389198,112.68371139164083 29.081398838199675,120.39796507800929 37.691209172829986,119.84694749349728 42.24934405554086,115.16329469624907 44.2751817824319,89.26534229400568 34.90568230021745,81.2755117083434 25.536182818003,87.06125282892026 23.2571153761819,114.06125787831843 31.86692571081221,121.5 42.75580348726362,114.06125787831843 44.2751817824319,87.88778653298505 34.39922286849469,81.2755117083434 24.77649367041886,88.43880889913999 22.49742622859776,113.51023934548721 32.12015542667359,120.94898258009925 42.24934405554086,113.7857486223802 44.528411496430635,89.26534229400568 34.39922286849469,81.0 25.282953101210296,87.06125282892026 23.003885659389198,111.58167383191176 29.081398838199675,120.39796507800929 42.24934405554086,114.88778552296571 44.2751817824319,87.88778653298505 36.17183087859303,81.2755117083434 25.282953101210296,87.06125282892026 23.2571153761819,113.51023934548721 30.094317700713873,120.67347383964807 41.7428846238181,115.4388038488105 44.528411496430635,90.91840852680616 36.17183087859303,81.0 25.282953101210296,86.78574155294336 23.003885659389198,112.68371139164083 31.10723656322807,120.67347383964807 41.7428846238181,115.4388038488105 44.78164121322334,88.98983118240722 38.450898320414126,82.10204671067186 29.587858268991113,82.10204671067186 21.737737081944942,98.90821819193661 21.484507366083562,112.68371139164083 20.218358786776662,107.17352029518224" stroke="#4dd2ff" stroke-linecap="round" stroke-linejoin="round" stroke-width="0.5"><title>2024-04-13 4.9km</title><desc>1713000859000</desc></polyline><polyline fill="none" points="65.76353024877608,98.02553565707058 67.66033344063908,116.59875141317025 73.3507430171594,120.21019841521047 82.12345778010786,119.69427764648572 85.91706416383386,110.14972950192168 86.6283653602004,87.19111360167153 76.19594780448824,82.54777944274247 68.37163463793695,90.8025914025493 66.94903224334121,112.98730062856339 71.4539398252964,118.14651487767696 78.32985139638186,118.92039634939283 85.44286336563528,112.72933971392922 86.86546576023102,87.19111360167153 76.43304820358753,82.54777944274247 68.37163463793695,92.09240398649126 67.42323304153979,112.98730062856339 76.67014860268682,119.43631723383442 85.20576296653599,113.50322240102105 87.57676695752889,89.77074098819867 79.0411525927484,82.28981625009328 69.55713663250208,88.22296478739008 67.66033344063908,112.47137877903879 75.95884740632027,119.17835680069402 85.20576296653599,112.98730062856339 87.57676695752889,89.5127783366479 79.2782529918477,82.03185303858481 69.55713663250208,88.73889026534744 67.66033344063908,112.98730062856339 76.43304820358753,119.43631723383442 85.20576296653599,113.76118325837888 87.57676695752889,88.73889026534744 77.85565059725195,82.03185303858481 69.32003623433411,89.25481566507369 68.13453423883766,114.53506571403705 79.5153533918783,119.17835680069402 85.91706416383386,111.43953484878875 86.39126496203244,84.09555818978697 74.29914461262524,81.51592655782588 67.66033344063908,90.28666623355821 66.23773104697466,114.53506571403705 72.16524102166295,120.46815877081826 78.32985139638186,120.98407942405902 87.33966655749828,113.24526152433828 87.81386735476553,85.38537328247912 76.67014860268682,81.0 67.42323304153979,88.73889026534744 65.76353024877608,114.53506571403705 70.26843782979995,120.72611910710111 78.09275099728256,121.24203972192481 87.57676695752889,112.2134178255219 88.52516855299473,86.93315075710416 75.4846466081217,81.77388980798423 66.71193184517324,90.02870362065732 65.76353024877608,114.27710491418839 75.01044580992311,121.5 86.39126496203244,115.05098725412972 89.71067054755986,90.54462882806547 84.02026097197086,81.77388980798423 72.16524102166295,82.80574261513539 66.71193184517324,91.31851649424061 67.66033344063908,114.79302649386227 78.80405219458044,119.95223804097623 85.67996376473457,113.24526152433828 87.81386735476553,90.02870362065732 83.5460601747036,83.57963201822713 77.3814497999847,81.77388980798423 68.60873503703624,89.25481566507369 67.89743383973837,112.72933971392922 76.19594780448824,119.17835680069402 85.67996376473457,113.24526152433828 87.57676695752889,89.5127783366479 79.0411525927484,82.03185303858481 69.0829358343035,89.25481566507369 67.89743383973837,112.98730062856339 75.01044580992311,119.69427764648572 82.59765857737511,118.14651487767696 86.15416456293315,112.98730062856339 88.05096775479615,89.5127783366479 79.5153533918783,82.03185303858481 67.66033344063908,89.77074098819867 65.28932945150882,110.66565169813111" stroke="#4dd2ff" stroke-linecap="round" stroke-linejoin="round" stroke-width="0.5"><title>2024-04-12 5.1km</title><desc>1712913892000</desc></polyline><polyline fill="none" points="102.62500000046566,90.64225744310534 102.25,96.35418082267279 104.64999999990687,99.04693432769272 108.39999999990687,97.33336468454218 109.375,89.82626594719477 108.70000000018626,88.11268181877676 106.60000000009313,87.13348967942875 103.52499999990687,88.84707534621703 102.70000000018626,96.43577951123007 104.64999999990687,98.80213882919634 108.47500000009313,97.17016743519343 109.29999999981374,89.82626594719477 106.97500000009313,87.21508905803785 103.6750000002794,88.6838768273592 102.77500000037253,96.35418082267279 105.25000000046566,98.96533583430573 108.32500000018626,97.57816051249392 109.375,90.15266261884244 106.97500000009313,87.13348967942875 103.6750000002794,88.6838768273592 102.77500000037253,96.27258212782908 104.57500000018626,98.80213882919634 108.32500000018626,97.57816051249392 109.2250000005588,89.66306757472921 106.82500000018626,87.29668843047693 103.6750000002794,88.60227755858796 102.77500000037253,95.94618728756905 104.35000000009313,98.63894179952331 106.60000000009313,98.80213882919634 108.47500000009313,97.33336468454218 109.29999999981374,90.23426177143119 108.5500000002794,88.0310825072811 104.64999999990687,87.45988715690328 103.3000000002794,89.49986917799106 102.25,97.41496329999063 110.20000000018626,100.35250939178513 112.75,99.53652515972499 115.89999999990687,96.43577951123007 120.47500000009313,97.90455486462452 121.52499999990687,100.02611577231437 121.29999999981374,105.9011859818711 125.5749999997206,111.61302946129581 132.9250000002794,114.30574529996375 140.5,115.36651032062946 142.75,113.89775847888086 142.52499999990687,100.18931259418605 141.54999999981374,100.59730454231612 141.25,103.29004757280927" stroke="#4dd2ff" stroke-linecap="round" stroke-linejoin="round" stroke-width="0.5"><title>2024-04-11 3.0km</title><desc>1712828151000</desc></polyline><polyline fill="none" points="157.77353412657976,89.62261999282055 156.81289552152157,113.4000375685282 160.41529028955847,119.40968891256489 167.13976052310318,121.23871118319221 178.1871044775471,114.18390572117642 179.86822203639895,88.57745506730862 169.78151668515056,81.0 159.93497098702937,85.96454138378613 157.05305517278612,112.87745870254003 164.49800436012447,120.71613348950632 173.14375180192292,119.67097786720842 177.706785175018,114.96777369873598 180.10838168673217,90.40649348217994 172.18311319872737,81.78387542441487 164.7381640104577,82.30645894352347 159.69481133576483,87.53228982840665 156.3325762199238,112.61616923939437 166.17912191804498,121.5 177.706785175018,116.0129307275638 180.82886064052582,94.06456743972376 179.86822203639895,86.48712427704595 175.30518866330385,82.56775067304261 166.17912191804498,81.2612918280065 160.6554499398917,84.13550064247102 154.17113935854286,94.06456743972376 157.05305517278612,113.13874814496376 161.85624819621444,120.19355571712367 170.9823149414733,120.97742234542966 177.46662552375346,115.49035225249827 179.6280623851344,92.23553093988448 173.624071104452,81.78387542441487 166.41928156930953,81.0 159.93497098702937,84.91937536327168 157.05305517278612,112.87745870254003 163.53736575413495,120.71613348950632 172.18311319872737,120.45484461332671 178.42726412881166,113.13874814496376 180.58870098926127,91.45165786077268 176.98630622122437,84.65808380884118 170.02167633734643,81.2612918280065 159.69481133576483,85.70324990805238 156.81289552152157,112.3548797571566 163.77752540633082,120.45484461332671 172.18311319872737,120.19355571712367 178.66742377914488,113.4000375685282 180.34854133799672,91.45165786077268 173.86423075571656,81.78387542441487 161.6160885449499,82.82904238370247 158.013693776913,89.88391117542051 157.77353412657976,115.75164149980992 169.54135703481734,120.97742234542966 177.706785175018,113.4000375685282 178.66742377914488,89.88391117542051 175.30518866330385,83.87420903029852 168.58071842975914,82.30645894352347 159.93497098702937,89.1000375689473 158.013693776913,112.61616923939437 167.8602394759655,120.45484461332671 177.22646587248892,114.18390572117642 178.90758343134075,91.71294890646823 176.50598691869527,85.44195841229521 170.02167633734643,82.30645894352347 159.93497098702937,88.83874632744119 156.81289552152157,112.87745870254003 166.17912191804498,121.5 172.66343250032514,120.97742234542966 175.5453483145684,116.0129307275638 178.66742377914488,91.1903667957522 170.9823149414733,82.82904238370247 164.97832366172224,83.35162574588321 160.1751306373626,89.1000375689473 158.013693776913,111.83230073470622 166.41928156930953,119.93226680229418 176.50598691869527,115.49035225249827 178.66742377914488,89.88391117542051 170.5019956389442,82.56775067304261 160.41529028955847,89.1000375689473 158.25385342817754,112.3548797571566 166.17912191804498,120.19355571712367 176.74614657089114,113.66132697300054 178.66742377914488,89.88391117542051 169.54135703481734,82.82904238370247 159.93497098702937,89.36132879066281 158.013693776913,112.61616923939437 168.10039912816137,120.45484461332671 176.50598691869527,114.70648439228535 178.42726412881166,89.1000375689473 170.26183598861098,82.82904238370247 160.1751306373626,87.79358116723597 157.29321482405066,112.3548797571566 165.2184833139181,120.19355571712367 176.50598691869527,115.49035225249827 179.6280623851344,91.1903667957522 170.5019956389442,82.82904238370247 164.2578447079286,83.87420903029852 158.013693776913,90.9290757109411 156.09241656772792,111.83230073470622" stroke="#4dd2ff" stroke-linecap="round" stroke-linejoin="round" stroke-width="0.5"><title>2024-04-09 5.6km</title><desc>1712653834000</desc></polyline><polyline fill="none" points="21.847631613723934,137.13682837155648 21.379395640455186,161.0802308660932 25.359401411376894,168.21227566013113 30.978233087807894,169.23113798210397 37.53353671077639,167.95756003120914 42.215896440669894,161.84437923692167 44.32295832037926,136.62739244638942 40.34295254945755,131.27831063326448 33.085294966585934,129.75 23.486457518301904,137.391546305269 21.847631613723934,162.09909532265738 32.382941007614136,169.74056902900338 42.215896440669894,161.84437923692167 43.85472234617919,137.90098211634904 38.23589066974819,131.02359224227257 33.31941295322031,130.51415540231392 23.486457518301904,137.90098211634904 20.91115966718644,160.57079852349125 25.359401411376894,167.70284438459203 32.14882302004844,169.74056902900338 42.45001442823559,161.58966313279234 44.55707630608231,138.91985350870527 35.66059281863272,130.00471848645248 26.764109330251813,131.7877473589033 22.784103559330106,136.882110418519 21.379395640455186,162.60852743685246 31.44646906014532,169.48585351509973 41.98177845496684,162.60852743685246 44.32295832037926,136.882110418519 41.04530650842935,132.04246569261886 33.787648926489055,130.00471848645248 23.01822154596448,137.391546305269 21.379395640455186,163.1179594739806 31.44646906014532,170.25 41.74766046833247,163.1179594739806 44.32295832037926,136.37267445586622 33.55353093985468,130.25943695451133 23.486457518301904,136.11795644601807 20.677041679620743,162.09909532265738 28.63705322239548,170.25 34.9582388587296,169.48585351509973 41.27942449506372,163.1179594739806 44.08884033374488,136.882110418519 41.04530650842935,132.04246569261886 33.085294966585934,130.00471848645248 22.784103559330106,137.64626422012225 21.145277654752135,163.1179594739806 25.125283425673842,168.46699126856402 31.44646906014532,169.99528452428058 41.74766046833247,163.37267546495423 44.55707630608231,137.64626422012225 41.513542481698096,132.29718400724232 33.55353093985468,130.25943695451133 23.01822154596448,136.11795644601807 20.442923694849014,160.57079852349125 28.168817249126732,169.48585351509973 35.426474831067026,169.48585351509973 41.27942449506372,164.3915392353665 44.79119429271668,142.48590098135173 40.108834561891854,131.02359224227257 26.061755370348692,132.04246569261886 22.31586758606136,138.41041785036214 21.61351362708956,163.88210738776252 26.998227316886187,169.23113798210397 33.55353093985468,169.74056902900338 42.68413241300732,160.82551470515318 44.32295832037926,138.41041785036214 40.5770705351606,132.29718400724232 31.44646906014532,130.00471848645248 22.784103559330106,136.882110418519 20.677041679620743,162.09909532265738 31.212351074442267,170.25 41.98177845496684,163.1179594739806 44.32295832037926,137.391546305269 41.74766046833247,132.8066205806099 33.787648926489055,129.75 26.764109330251813,132.29718400724232 22.31586758606136,138.91985350870527 22.549985572695732,161.84437923692167 31.680587047711015,168.21227566013113 40.5770705351606,162.35381138930097 42.215896440669894,137.64626422012225 34.490002886392176,131.27831063326448 22.081749599426985,139.68400685302913 20.208805707283318,159.04250103840604" stroke="#4dd2ff" stroke-linecap="round" stroke-linejoin="round" stroke-width="0.5"><title>2024-04-08 5.0km</title><desc>1712568268000</desc></polyline><polyline fill="none" points="65.96717390231788,144.658032894833 68.4792746361345,163.78991040377878 74.64534007571638,167.2684217481874 82.18164227809757,165.28070142609067 87.20584374573082,158.8206021648366 86.52072536479682,133.2285469940398 76.01557683944702,129.75 67.5657834596932,138.694827767089 67.10903787147254,163.54144516889937 72.81835772283375,168.0138165615499 82.63838786631823,166.7714917792473 86.74909815844148,159.56599887483753 86.97747095301747,133.47701449738815 74.18859448749572,130.74387094192207 67.10903787147254,141.6764316689223 66.8806650787592,162.79604935110547 73.50347610469908,167.76535164238885 82.18164227809757,166.7714917792473 87.20584374573082,159.56599887483753 86.74909815844148,132.98007947253063 74.64534007571638,130.74387094192207 67.79415625426918,137.94942637323402 66.19554669689387,161.55372261675075 76.24394963309169,168.7592112084385 86.52072536479682,161.0567917926237 88.11933492310345,137.70095920516178 84.23699742462486,131.48927395278588 78.07093198597431,130.24693550844677 71.67649375274777,131.98620920046233 68.25090184248984,137.45249201753177 66.8806650787592,162.29911871277727 70.99137536995113,167.2684217481874 79.89791433792561,167.76535164238885 86.74909815844148,161.0567917926237 87.43421654123813,135.21628649812192 79.66954154428095,129.9984677634202 68.4792746361345,136.7070903449785 66.42391949053854,161.0567917926237 70.30625698901713,166.7714917792473 76.01557683944702,168.0138165615499 86.29235257115215,162.54758404172026 88.57608051132411,138.694827767089 85.37886139471084,132.73161193262786 77.61418639775366,130.74387094192207 70.5346297826618,134.22241689520888 67.33741066604853,140.43409703532234 66.8806650787592,164.78377116005868 70.5346297826618,168.7592112084385 78.52767757419497,169.00767605379224 86.29235257115215,160.80832635308616 88.57608051132411,137.20402481174096 78.29930477961898,130.4954032341484 68.4792746361345,136.95555758778937 65.73880110681057,162.05065336613916 73.73184889927506,170.00153524777852 86.29235257115215,161.30525721400045 88.34770771674812,137.70095920516178 84.00862463004887,131.2408063011244 78.07093198597431,130.24693550844677 68.02252904884517,137.45249201753177 66.6522922841832,162.05065336613916 77.157440809533,168.26228146255016 86.29235257115215,160.31139541743323 88.11933492310345,135.96168850548565 78.29930477961898,130.74387094192207 68.02252904884517,137.94942637323402 66.42391949053854,161.0567917926237 70.99137536995113,166.7714917792473 77.84255919232965,168.26228146255016 86.52072536479682,160.31139541743323 88.11933492310345,135.96168850548565 84.00862463004887,131.48927395278588 75.3304584575817,130.74387094192207 67.10903787147254,141.17949787154794 66.42391949053854,164.53530599875376 70.30625698901713,169.00767605379224 79.66954154428095,168.51074634492397 86.74909815844148,159.56599887483753 86.97747095301747,133.97394944750704 76.70069522224367,129.75 67.79415625426918,137.94942637323402 66.42391949053854,161.30525721400045 73.04673051647842,167.76535164238885 79.66954154428095,167.5168867041357 86.97747095301747,159.31753332400694 88.11933492310345,136.45862308354117 84.23699742462486,131.48927395278588 76.47232242766768,130.4954032341484 67.5657834596932,138.694827767089 67.33741066604853,163.04451464186423 73.73184889927506,168.7592112084385 82.18164227809757,167.5168867041357 87.66258933581412,153.10588849941269 85.37886139471084,134.22241689520888 72.3616121346131,132.48314437363297 66.19554669689387,146.39729904057458 67.10903787147254,166.27456173556857 72.3616121346131,169.75307047762908 81.03977830801159,168.0138165615499 86.97747095301747,159.06906775361858 88.80445330496877,139.4402289937716 86.52072536479682,133.2285469940398 78.52767757419497,130.74387094192207 71.67649375274777,132.73161193262786 66.19554669689387,146.14883250417188 67.10903787147254,166.27456173556857 72.13323934096843,169.50460568792187 81.26815110165626,167.76535164238885 86.97747095301747,159.06906775361858 86.74909815844148,133.97394944750704 74.87371286936104,130.4954032341484 67.33741066604853,140.6825639992021 67.79415625426918,163.78991040377878 74.87371286936104,169.50460568792187 82.86676065996289,169.00767605379224 87.20584374573082,163.04451464186423 87.43421654123813,134.96781912492588 73.96022169385105,130.4954032341484 66.8806650787592,139.93716305145063 65.73880110681057,163.29297991492786 69.39276581257582,168.7592112084385 77.38581360317767,170.00153524777852 86.97747095301747,160.55986089422368 87.89096212945879,135.71322118793614 75.10208566300571,130.74387094192207 66.6522922841832,140.93103094492108 65.96717390231788,164.78377116005868 70.30625698901713,169.2561408802867 77.61418639775366,169.75307047762908 84.46537021826953,166.27456173556857 87.66258933581412,159.81446440774016 88.57608051132411,135.71322118793614 76.01557683944702,130.24693550844677 66.8806650787592,138.9432948611211 65.96717390231788,163.78991040377878 70.07788419537246,168.51074634492397 78.52767757419497,170.25 86.74909815844148,163.54144516889937 88.57608051132411,136.7070903449785 85.37886139471084,132.23467679601163 76.70069522224367,130.24693550844677 67.5657834596932,137.45249201753177 65.05368272587657,161.55372261675075 68.02252904884517,167.0199567724485 74.64534007571638,169.75307047762908 86.29235257115215,163.54144516889937 88.80445330496877,138.694827767089 78.75605036783963,130.24693550844677 68.4792746361345,136.7070903449785 65.96717390231788,161.0567917926237 76.92906801495701,169.75307047762908 87.20584374573082,163.78991040377878 89.48957168776542,139.93716305145063 85.15048860013485,132.98007947253063 78.75605036783963,130.74387094192207 68.02252904884517,137.45249201753177 65.73880110681057,161.8021880008746 69.16439301799983,167.2684217481874 76.92906801495701,169.75307047762908 87.43421654123813,162.29911871277727 89.03282609861344,139.93716305145063 86.06397977657616,133.97394944750704 78.29930477961898,130.24693550844677 67.79415625426918,137.70095920516178 66.19554669689387,162.54758404172026 69.84951140079647,167.5168867041357 76.92906801495701,169.50460568792187 86.52072536479682,163.29297991492786 88.57608051132411,138.9432948611211 78.07093198597431,130.74387094192207 67.79415625426918,138.694827767089 65.96717390231788,162.79604935110547 77.38581360317767,169.00767605379224 86.97747095301747,161.8021880008746 89.03282609861344,138.19789352314547 77.38581360317767,130.4954032341484 67.5657834596932,138.694827767089 66.19554669689387,161.8021880008746 77.157440809533,169.00767605379224 86.74909815844148,162.29911871277727 88.34770771674812,137.94942637323402 83.55187904275954,131.73774158628657 76.92906801495701,130.74387094192207 68.02252904884517,139.19176193629391 65.73880110681057,162.05065336613916 75.78720404580235,169.75307047762908 86.74909815844148,164.28684081928805 89.94631727505475,140.18563005304895 85.8356069829315,132.48314437363297 72.81835772283375,131.73774158628657 67.5657834596932,139.4402289937716 66.19554669689387,158.8206021648366" stroke="#4dd2ff" stroke-linecap="round" stroke-linejoin="round" stroke-width="0.5"><title>2024-04-06 11.8km</title><desc>1712394949000</desc></polyline><polyline fill="none" points="112.8312330134213,165.25327198463492 121.77484247554094,170.25 130.23501358833164,163.14938437961973 133.13564368430525,140.26952537568286 130.23501358833164,132.642872616183 121.291404126212,130.53896549507044 115.49014393426478,134.48379031475633 112.10607548896223,158.15264627174474 118.39077403023839,168.14611538592726 130.23501358833164,163.93834237894043 133.37736285943538,138.95458642556332 128.78469854034483,132.3798842949327 120.80796577688307,131.59091921313666 115.24842475913465,135.79873093706556 112.34779466409236,160.2565368670039 118.63249320536852,168.40910103125498 129.5098560648039,164.99028610251844 132.652205334045,139.48056206433102 127.33438349235803,131.8539075939916 119.59936990402639,131.8539075939916 115.00670558493584,136.587695075199 112.34779466409236,159.4675780411344 117.42389733158052,167.88312972034328 129.7515752390027,164.72730020130984 132.89392450917512,139.48056206433102 125.88406844437122,131.32793081342243 114.76498641073704,136.06171900290065 111.62263714056462,161.834453987889 120.56624660268426,168.9350722641684 130.47673276253045,162.88639834034257 133.13564368430525,139.74354985402897 129.9932944132015,133.43183746212162 123.95031504705548,130.80195395438932 114.03982888534665,136.85068308119662 111.62263714056462,159.99355061142705 119.59936990402639,168.6720866577234 130.71845193766057,162.62341228174046 132.89392450917512,139.21757425460964 123.70859587285668,130.80195395438932 114.52326723653823,136.587695075199 112.34779466409236,160.78250931878574 120.56624660268426,168.9350722641684 130.71845193766057,162.62341228174046 132.652205334045,137.6396469825413 122.98343834932894,131.0649423939176 114.52326723653823,136.85068308119662 112.58951383829117,161.57146784942597 122.01656165067106,168.6720866577234 131.2018902869895,162.09744010469876 133.13564368430525,138.42861070716754 124.43375339638442,131.0649423939176 114.03982888534665,137.6396469825413 112.34779466409236,161.57146784942597 121.04968495108187,168.9350722641684 130.9601711127907,162.88639834034257 133.13564368430525,138.6915985760279 123.46687669865787,131.0649423939176 114.03982888534665,137.6396469825413 112.10607548896223,161.57146784942597 122.01656165067106,168.9350722641684 130.71845193766057,162.88639834034257 132.89392450917512,138.6915985760279 124.67547257151455,130.80195395438932 114.2815480614081,136.587695075199 112.34779466409236,160.51952310232446 120.08280825335532,168.6720866577234 127.09266431815922,167.357158330502 130.9601711127907,162.62341228174046 133.13564368430525,137.90263491054066 124.43375339638442,130.80195395438932 114.76498641073704,136.32470704917796 112.10607548896223,160.51952310232446 119.35765072982758,168.6720866577234 130.47673276253045,163.67535639903508 132.89392450917512,138.95458642556332 125.15891091991216,130.27597701689228 115.00670558493584,135.79873093706556 112.10607548896223,160.78250931878574 120.32452742662281,168.6720866577234 127.81782184168696,167.09417260624468 131.44360946118832,161.834453987889 132.4104861607775,137.37665903521702 122.7417191741988,130.53896549507044 114.03982888534665,137.1136710678693 112.34779466409236,162.36042620264925 121.291404126212,168.9350722641684 130.9601711127907,162.09744010469876 132.89392450917512,138.6915985760279 123.70859587285668,130.80195395438932 113.79810971207917,138.16562281921506 112.34779466409236,160.78250931878574 121.04968495108187,168.6720866577234 130.71845193766057,163.14938437961973 132.89392450917512,138.95458642556332 122.98343834932894,130.80195395438932 114.2815480614081,137.37665903521702 112.34779466409236,161.834453987889 118.14905485603958,168.40910103125498 130.23501358833164,163.93834237894043 133.37736285943538,139.21757425460964 123.70859587285668,130.53896549507044 114.76498641073704,136.32470704917796 112.8312330134213,161.30848169210367 122.01656165067106,168.9350722641684 130.9601711127907,162.09744010469876 133.13564368430525,138.95458642556332 128.5429793652147,132.11689595435746 122.7417191741988,130.53896549507044 114.52326723653823,137.37665903521702 112.34779466409236,161.04549551592208 122.01656165067106,168.9350722641684 130.71845193766057,163.93834237894043 132.89392450917512,138.16562281921506 123.70859587285668,130.0129885179922 115.24842475913465,134.74677847861312 112.34779466409236,161.04549551592208 115.73186310939491,166.8311868624296 122.25828082486987,168.9350722641684 131.44360946118832,161.57146784942597 132.89392450917512,138.16562281921506 128.30126019194722,131.59091921313666 122.01656165067106,130.27597701689228 114.52326723653823,136.587695075199 112.58951383829117,161.834453987889 122.98343834932894,169.4610434176866 130.9601711127907,163.14938437961973 132.652205334045,138.16562281921506 123.22515752352774,129.75 114.2815480614081,136.587695075199 112.10607548896223,160.2565368670039 119.59936990402639,168.6720866577234 130.71845193766057,163.4123703991063 132.652205334045,138.42861070716754 124.43375339638442,130.53896549507044 118.14905485603958,131.32793081342243 114.2815480614081,137.6396469825413 112.34779466409236,161.04549551592208 121.53312330134213,168.9350722641684 131.2018902869895,162.62341228174046 132.652205334045,138.95458642556332 123.95031504705548,130.27597701689228 114.2815480614081,137.37665903521702 112.58951383829117,162.09744010469876 121.291404126212,169.4610434176866 130.9601711127907,162.62341228174046 132.652205334045,137.37665903521702 128.78469854034483,132.11689595435746 121.291404126212,130.53896549507044 114.2815480614081,137.37665903521702 112.8312330134213,162.09744010469876 122.7417191741988,168.9350722641684 131.2018902869895,161.30848169210367 132.89392450917512,137.6396469825413 122.25828082486987,130.27597701689228 115.49014393426478,135.00976662244648 111.86435631476343,143.9513518200256 111.62263714056462,164.20132833905518" stroke="#4dd2ff" stroke-linecap="round" stroke-linejoin="round" stroke-width="0.5"><title>2024-04-03 9.7km</title><desc>1712137473000</desc></polyline><polyline fill="none" points="153.0237088315189,154.36770230717957 159.5927821341902,153.04417428094894 157.15979202277958,160.19121973752044 162.51237026881427,168.39706894243136 174.92061984259635,168.39706894243136 181.9762911684811,142.4559322546702 178.08350698836148,131.33824402699247 168.83814456127584,129.75 162.2690712576732,133.45590162021108 159.34948312398046,159.92651460808702 162.75566928088665,168.9264779149089 171.2711346745491,168.9264779149089 177.59690896607935,164.42649912275374 180.27319808956236,140.0735734316986 174.43402182031423,132.13236577343196 162.51237026881427,136.8970925072208 159.34948312398046,162.0441550926771 166.89175247214735,169.45588680892251 177.59690896607935,163.8970894771628 179.78660006728023,139.80886679701507 172.97422775253654,131.33824402699247 162.2690712576732,136.8970925072208 159.5927821341902,162.8382699470967 167.8649485167116,169.98529562307522 177.59690896607935,164.16179430997 180.27319808956236,139.54416014254093 173.70412478689104,131.86765854386613 166.89175247214735,132.6617801708635 161.78247323539108,137.9559197986964 159.10618411190808,162.0441550926771 167.1350514832884,170.25 177.35360995586962,164.16179430997 180.02989907935262,138.75004005990922 173.70412478689104,131.86765854386613 161.78247323539108,137.6912130054552 159.10618411190808,160.72062993841246 162.2690712576732,167.60295533505268 169.0814435724169,169.98529562307522 178.32680599950254,163.1029748597648 180.02989907935262,139.014746773988 173.46082577481866,131.60295129544102 168.10824752785265,131.60295129544102 161.78247323539108,137.4265061924234 159.10618411190808,160.98533500847407 166.4051544489339,169.98529562307522 177.11031094379723,165.22061344329268 180.27319808956236,140.0735734316986 175.40721786487848,132.13236577343196 169.0814435724169,131.86765854386613 162.02577224746346,137.4265061924234 159.34948312398046,161.51474509085529 164.94536038208753,169.19118237216026 177.59690896607935,167.86765989055857" stroke="#4dd2ff" stroke-linecap="round" stroke-linejoin="round" stroke-width="0.5"><title>2024-04-02 3.0km</title><desc>1712049520000</desc></polyline><polyline fill="none" points="24.43029741756618,191.2448019622825 22.868419498205185,213.33569039520808 27.55405325628817,218.15035409969278 34.58250389248133,218.43356942152604 39.788763623684645,212.48604322387837 42.3918934892863,184.44757958804257 33.541251947171986,178.5 25.211236377246678,185.29723305231892 22.60810651257634,212.48604322387837 27.03342728409916,217.86713875760324 34.322190906852484,218.43356942152604 39.788763623684645,212.20282745733857 42.3918934892863,184.73079743073322 33.80156493280083,178.5 25.211236377246678,185.01401525200345 22.347793526016176,211.63639586116187 31.45874805562198,219.0 39.788763623684645,212.76925896899775 42.65220647491515,185.86366858915426 34.84281687904149,178.5 25.211236377246678,185.01401525200345 22.347793526016176,211.91961167030968 30.677809095941484,219.0 39.52845063712448,213.33569039520808 42.65220647491515,186.14688632590696 35.10312986653298,178.5 25.211236377246678,184.73079743073322 22.347793526016176,211.63639586116187 30.15718312188983,219.0 39.52845063712448,213.33569039520808 42.91251946147531,186.71332173561677 35.88406882621348,178.78321828809567 25.471549364738166,184.16436172416434 22.347793526016176,211.06996418139897 30.677809095941484,219.0 39.52845063712448,213.33569039520808 42.65220647491515,186.14688632590696 34.84281687904149,178.5 25.471549364738166,184.16436172416434 22.347793526016176,211.63639586116187 30.938122081570327,219.0 39.788763623684645,212.48604322387837 42.65220647491515,186.4301040417049 34.58250389248133,178.5 25.211236377246678,185.29723305231892 22.347793526016176,211.91961167030968 30.938122081570327,219.0 39.788763623684645,212.76925896899775 42.65220647491515,185.58045083167963 34.322190906852484,178.5 25.211236377246678,185.29723305231892 22.347793526016176,211.35318003152497 25.731862351298332,217.0174926025793 32.76031298749149,218.71678472170606 39.788763623684645,212.48604322387837 42.65220647491515,185.86366858915426 33.80156493280083,178.5 25.211236377246678,185.29723305231892 22.347793526016176,211.06996418139897 30.15718312188983,219.0 39.52845063712448,213.33569039520808 42.91251946147531,187.27975706011057 35.62375583872199,178.78321828809567 25.731862351298332,183.881143839797 22.347793526016176,211.06996418139897 28.33499221596867,218.43356942152604 39.52845063712448,213.33569039520808 42.91251946147531,186.71332173561677 36.144381810911,178.78321828809567 26.25248832348734,182.74827208812349 22.087480538524687,210.22031650110148 25.471549364738166,217.0174926025793 32.5,219.0 38.74751167744398,214.75176859134808 42.91251946147531,188.4126274564769 37.706259730271995,179.34965479862876 27.814366242848337,180.76574570708908 23.38904547225684,214.18533737654798 28.855618189089,218.71678472170606 35.88406882621348,217.58392339362763 41.090328556485474,203.98956102016382" stroke="#4dd2ff" stroke-linecap="round" stroke-linejoin="round" stroke-width="0.5"><title>2024-03-30 4.8km</title><desc>1711782999000</desc></polyline><polyline fill="none" points="65.85143481940031,195.0306660379283 67.62404256314039,213.76533118472435 72.94186579808593,218.17347384011373 81.04521549027413,217.62245629681274 87.12272775731981,209.63269265345298 86.6162684019655,181.5306276618503 74.4612438660115,179.32653506379575 67.87727224174887,186.76534229377285 67.87727224174887,212.938803849509 74.96770322043449,219.0 82.81782323401421,217.07143867062405 87.37595743592829,209.63269265345298 89.14856518059969,188.96943043963984 86.36303872335702,180.97960463585332 77.49999999906868,178.5 71.42248773109168,182.3571620453149 66.8643535291776,209.0816738321446 69.39665030874312,215.41838529892266 76.74031096696854,219.0 87.12272775731981,211.56125787831843 88.13564646895975,183.73471894022077 77.24677032139152,179.0510233968962 68.38373159617186,187.04085338371806 68.38373159617186,215.14287633099593 78.00645935535431,218.72449130075984 85.3501200126484,214.31634930474684 88.64210582431406,189.24494136497378 86.86949807964265,182.3571620453149 81.29844516608864,178.7755117090419 69.90310966409743,183.4592076027766 66.61112385150045,210.73473004810512 72.94186579808593,218.17347384011373 85.09689033497125,213.76533118472435 88.64210582431406,188.96943043963984 83.32428259029984,180.15306994249113 69.90310966409743,180.15306994249113" stroke="#4dd2ff" stroke-linecap="round" stroke-linejoin="round" stroke-width="0.5"><title>2024-03-28 2.0km</title><desc>1711615120000</desc></polyline><polyline fill="none" points="112.26319372002035,195.71255923132412 109.70399214886129,196.21880964795128 112.26319372002035,198.24381055659615 109.47133746091276,196.97818513051607 112.26319372002035,197.73756044334732 112.96115778479725,213.68440263648517 118.07956092432141,218.24062945926562 126.22247501183301,218.4937529915478 133.20211565680802,209.88754226407036 134.36538909748197,183.30940036475658 128.78167658206075,179.0062529919669 121.80203593615443,179.0062529919669 113.65912184957415,188.11879389337264 112.0305390311405,211.15316286194138 120.871417183429,219.0 132.03884221613407,212.41878298553638 134.13273441046476,185.84066096926108 130.6429140875116,179.7656323374249 125.05920157022774,178.5 114.58974060136825,185.5875349934213 112.96115778479725,209.1281696781516 116.21832341887057,215.45626935223117 122.03469062410295,217.73438233789057 130.87556877639145,212.41878298553638 133.20211565680802,187.86566808866337 125.05920157022774,180.018758748658 115.75301404297352,185.84066096926108 114.1244312254712,210.9000387797132 122.5,217.73438233789057 131.5735328393057,210.9000387797132 132.9694609688595,185.08128298656084 124.59389219339937,179.5125059077982 115.75301404297352,186.60003878059797 113.89177653659135,210.14066642150283 121.10407187137753,217.73438233789057 131.34087815135717,210.9000387797132 132.9694609688595,186.8531646800693 123.66327344160527,179.0062529919669 115.98566872999072,185.84066096926108 113.4264671606943,210.14066642150283 121.5693812482059,217.73438233789057 131.80618752725422,210.9000387797132 133.6674250336364,186.8531646800693 125.52451094705611,179.5125059077982 116.21832341887057,185.5875349934213 113.65912184957415,209.88754226407036 115.28770466614515,215.20314559270628 121.10407187137753,217.2281351403799 131.5735328393057,211.65941096819006 133.6674250336364,188.37191967945546 125.75716563500464,180.52501151314937 115.98566872999072,185.33440899918787 113.65912184957415,210.9000387797132 122.03469062410295,217.4812587480992 131.5735328393057,211.15316286194138 133.43477034568787,185.84066096926108 124.82654688227922,180.018758748658 115.98566872999072,186.60003878059797 113.65912184957415,210.3937905607745 122.03469062410295,217.73438233789057 129.47964064683765,216.72188786650077 132.9694609688595,211.9125349931419 135.52866253908724,187.61254226532765" stroke="#4dd2ff" stroke-linecap="round" stroke-linejoin="round" stroke-width="0.5"><title>2024-03-26 3.7km</title><desc>1711445960000</desc></polyline><polyline fill="none" points="156.58073669858277,209.55004064831883 165.514679399319,219.0 176.18577762506902,212.79002949944697 178.1710982248187,185.52003255928867 172.7114665750414,178.5 159.80688267480582,183.09002283401787 156.3325716247782,208.74004298099317 158.56605729926378,214.9500204504002 166.25917462445796,218.730001504533 175.68944747373462,213.33002735790797 178.66742837429047,186.87003725557588 173.70412687398493,178.77000150457025 160.55137789901346,184.17002735869028 157.32523192465305,199.8300566454418 160.30321282334626,214.9500204504002 166.75550477392972,217.9200058982242 172.7114665750414,215.49001798639074 177.9229331491515,188.4900422245264 173.70412687398493,180.66001147241332 166.50733969919384,179.85000732145272 161.5440381988883,183.9000262580812 158.3178922245279,207.6600458091125 163.77752387337387,217.110010109609 173.95229194965214,213.87002513650805 177.9229331491515,187.4100389922969 172.215136423707,179.58000589790754 161.5440381988883,184.17002735869028 158.3178922245279,208.20004443568178 164.02568894904107,217.110010109609 173.70412687398493,213.87002513650805 176.18577762506902,182.5500204502605 167.74816507380456,179.04000298911706 160.79954297281802,186.06003449857235 158.56605729926378,211.44003449799493 163.0330286482349,216.57001281599514 169.98165074922144,216.84001147234812" stroke="#4dd2ff" stroke-linecap="round" stroke-linejoin="round" stroke-width="0.5"><title>2024-03-25 2.1km</title><desc>1711359274000</desc></polyline><polyline fill="none" points="37.63033338356763,263.85578976827674 42.40273652970791,237.37504431023262 36.91447291150689,229.06731782038696 24.506224730052054,234.51926557230763 21.881403000093997,256.5865856455639 29.040007720701396,266.19231643225066 39.53929464146495,262.0384901652578 42.40273652970791,237.37504431023262 35.48275196738541,229.32693457440473 24.506224730052054,234.77888191887178 21.881403000093997,258.1442735251039 29.517248034477234,266.19231643225066 39.77791479974985,261.25964718684554 42.40273652970791,236.33657958637923 35.24413181003183,229.32693457440473 24.506224730052054,234.51926557230763 22.120023157447577,258.403888103785 24.267604573629797,263.85578976827674 30.948968978598714,266.451930408366 40.01653495617211,260.2211896101944 42.40273652970791,237.89427655516192 36.19861243944615,229.32693457440473 24.506224730052054,233.48079999396577 22.120023157447577,258.403888103785 29.517248034477234,266.71154436608776 39.30067448504269,261.7788758587558 42.40273652970791,237.37504431023262 35.72137212473899,228.8077010475099 24.744844888336957,233.22118355124258 21.881403000093997,258.9231172024738 24.267604573629797,264.11540392017923 31.42620929237455,266.97115830378607 40.25515511352569,259.96157516818494 42.16411637235433,236.07696335669607 34.76689149532467,228.8077010475099 28.085527090355754,230.10578471934423 24.028984416276217,235.29811455169693 22.358643314801157,260.2211896101944 31.664829450659454,266.451930408366 40.49377527181059,259.1827317236457 42.16411637235433,236.33657958637923 35.24413181003183,228.8077010475099 24.267604573629797,235.29811455169693 22.120023157447577,259.44234622386284 30.471728664822876,266.19231643225066 39.53929464146495,261.25964718684554 42.16411637235433,236.07696335669607 33.812410866841674,228.8077010475099 24.028984416276217,235.03849824517965 22.358643314801157,259.70196070545353 30.471728664822876,266.71154436608776 40.01653495617211,261.25964718684554 42.40273652970791,236.33657958637923 38.34619385562837,229.58655130909756 24.983465045690536,233.22118355124258 22.120023157447577,256.84620034042746 27.846906933002174,266.19231643225066 39.30067448504269,262.2981044522021 42.40273652970791,236.85581198707223 35.00551165267825,229.06731782038696 24.506224730052054,234.00003282236867 22.120023157447577,258.6635026624426 28.801387562416494,265.93270243611187 39.06205432768911,263.07694719778374 42.64135668799281,237.63466044235975 37.86895354092121,229.58655130909756 30.471728664822876,228.8077010475099 24.744844888336957,234.00003282236867 20.449682055041194,256.5865856455639 22.358643314801157,263.5961755979806 29.040007720701396,267.75 35.24413181003183,267.490386120975 40.97101558558643,262.0384901652578 44.55031794589013,238.15389264840633 38.10757369827479,227.76923376019113 30.233108506537974,227.25 23.313123944215477,232.9615670889616 20.449682055041194,257.88465892663226 27.846906933002174,266.97115830378607 40.25515511352569,264.8942462580744" stroke="#4dd2ff" stroke-linecap="round" stroke-linejoin="round" stroke-width="0.5"><title>2024-03-24 4.9km</title><desc>1711273464000</desc></polyline><polyline fill="none" points="66.08136542327702,256.5690677543171 68.13671964779496,263.77456173603423 73.84603693615645,267.50153524801135 80.468844990246,266.25921120890416 85.9497895874083,260.7929799151607 88.23351650312543,234.70402481220663 86.40653496980667,230.23161193262786 79.55535422451794,227.9954032341484 72.01905540376902,229.7346767964773 67.90834695659578,234.95249201823026 66.53811080753803,259.79911871347576 70.87719194591045,265.5138165622484 78.64186345785856,267.2530704771634 86.86328035313636,258.05986089468934 87.09165304433554,231.47394944750704 78.87023614998907,227.9954032341484 70.42044656351209,230.72854699473828 66.9948561899364,236.6917619369924 65.62462004087865,258.55679179285653 72.9325461704284,267.75 80.92559037450701,266.25921120890416 85.7214168952778,261.0414451688994 89.60375265125185,238.18256399896927 86.63490766193718,230.23161193262786 80.24047229904681,227.74693550821394 70.64881925471127,230.72854699473828 67.2232288820669,236.19482776685618 66.9948561899364,263.02916653174907 73.61766424495727,267.75 80.24047229904681,267.2530704771634 87.09165304433554,258.05986089468934 87.09165304433554,231.47394944750704 76.12976385187358,227.25 67.45160157326609,235.94636065443046 65.85299273300916,259.5506533659063 70.19207387138158,266.010746344924 77.50000000093132,267.00460568768904 86.86328035313636,258.3083263535518 87.77677111886442,232.71628649812192 84.12280805595219,228.49233863083646 76.35813654307276,227.74693550821394 67.2232288820669,236.4432948611211 66.30973811540753,261.5383756214287 78.64186345785856,266.75614088005386 86.63490766193718,258.3083263535518 86.63490766193718,231.47394944750704 77.95674538332969,227.49846776365303 67.90834695659578,233.2132211884018 65.39624734967947,260.0475840414874 69.96370117925107,265.7622814630158 78.64186345785856,267.2530704771634 86.63490766193718,258.8052572142333 86.17816227860749,229.9831443738658 77.27162730880082,227.49846776365303 70.87719194591045,230.72854699473828 65.85299273300916,249.3635581403505 68.82183772232383,264.5199567724485 82.9809445971623,265.26535164238885 88.46188919432461,237.4371630519163 83.437689980492,228.74080630065873 70.64881925471127,230.72854699473828 65.85299273300916,255.32673962507397 67.45160157326609,263.77456173603423 73.38929155282676,266.75614088005386 84.80792612954974,262.5322363025043 88.6902618855238,237.93409703532234 85.49304420407861,229.9831443738658 70.42044656351209,229.9831443738658 66.53811080753803,244.1457655588165 68.13671964779496,263.77456173603423 74.98790039401501,267.2530704771634 83.20931728836149,264.76842174795456 86.86328035313636,259.05372261744924 88.6902618855238,238.18256399896927 85.26467151287943,229.9831443738658 74.07440962735564,228.24387094192207 67.2232288820669,236.4432948611211 66.08136542327702,261.0414451688994 72.4758007870987,266.75614088005386 80.24047229904681,265.7622814630158 85.49304420407861,252.5936161072459 84.35118074622005,231.47394944750704 77.27162730880082,229.23774158605374 69.96370117925107,232.71628649812192 65.62462004087865,248.36969351908192" stroke="#4dd2ff" stroke-linecap="round" stroke-linejoin="round" stroke-width="0.5"><title>2024-03-22 5.0km</title><desc>1711100044000</desc></polyline><polyline fill="none" points="110.16929414588958,242.43755680741742 114.35708104074001,263.9531455927063 121.33672586362809,267.4968765054364 128.31637068651617,265.47188786650077 132.9694672357291,260.1562869239133 134.59805102739483,248.5125604425557 131.57353827077895,231.30002181371674 122.0346903456375,228.00937945931219 115.28770035039634,236.6156680881977 114.35708104074001,260.9156589983031 119.94079689867795,266.7375059078913 126.68778689391911,266.7375059078913 132.27150275278836,258.89066642173566 132.03884792514145,234.5906609685626 124.36123862024397,229.02188513986766 115.52035517711192,236.6156680881977 114.35708104074001,260.1562869239133 118.5448679337278,265.72501151286997 124.82654827460647,266.9906294597313 131.57353827077895,257.87816967861727 132.50415758043528,233.83128298586234 125.9898224119097,228.26250590826385 115.52035517711192,234.33753499365412 113.42646173015237,258.6375422643032 122.96530965529382,266.23125874856487 129.0143351694569,264.9656405176502 133.2021220624447,257.87816967861727 133.4347768900916,232.05940036429092 130.6429189601913,228.26250590826385 121.80203551892191,227.25 113.89177138544619,234.8437869248446 112.49584242142737,259.90316286170855 122.96530965529382,267.75 132.50415758043528,258.3844180877786 134.83070585504174,236.10941642220132 131.34088344313204,227.5031265055295 116.91628414206207,229.52813786664046 111.33256828412414,255.09380207257345" stroke="#4dd2ff" stroke-linecap="round" stroke-linejoin="round" stroke-width="0.5"><title>2024-03-21 2.2km</title><desc>1711013104000</desc></polyline></svg>