<?xml version="1.0" encoding="utf-8" ?>
<svg baseProfile="full" height="300mm" version="1.1" viewBox="0,0,200,300" width="200mm" xmlns="http://www.w3.org/2000/svg" xmlns:ev="http://www.w3.org/2001/xml-events" xmlns:xlink="http://www.w3.org/1999/xlink"><defs /><rect fill="#222222" height="300" width="200" x="0" y="0" /><text fill="#FFFFFF" style="font-size:12px; font-family:Arial; font-weight:bold;" x="10" y="20">Over 2km Runs</text><text fill="#FFFFFF" style="font-size:4px; font-family:Arial" x="10" y="280">ATHLETE</text><text fill="#FFFFFF" style="font-size:9px; font-family:Arial" x="10" y="290">作怪</text><text fill="#FFFFFF" style="font-size:4px; font-family:Arial" x="120" y="280">STATISTICS</text><text fill="#FFFFFF" style="font-size:3px; font-family:Arial" x="120" y="285">Number: 6</text><text fill="#FFFFFF" style="font-size:3px; font-family:Arial" x="120" y="290">Weekly: 3.0</text><text fill="#FFFFFF" style="font-size:3px; font-family:Arial" x="141" y="285">Total: 19.9 km</text><text fill="#FFFFFF" style="font-size:3px; font-family:Arial" x="141" y="290">Avg: 3.3 km</text><text fill="#FFFFFF" style="font-size:3px; font-family:Arial" x="167" y="285">Min: 2.0 km</text><text fill="#FFFFFF" style="font-size:3px; font-family:Arial" x="167" y="290">Max: 5.0 km</text><polyline fill="none" points="29.291439678519964,63.38785073440522 32.442742332816124,96.69392210617661 41.89665030874312,104.53062016051263 56.302605314180255,103.55103341676295 67.10707156732678,89.34700916195288 66.20669938065112,39.387782509904355 44.59776687249541,35.469395669177175 32.892928428947926,48.69394185580313 32.892928428947926,95.22454017726704 45.49813905917108,106.0 59.45390797033906,102.57144652539864 67.55725766345859,89.34700916195288 70.70856031961739,52.61232078168541 65.75651328638196,38.40818601939827 49.999999998137355,34.0 39.19553374312818,40.857176969293505 31.0921840518713,88.36742014624178 35.59404499270022,99.6326849758625 48.64944171719253,106.0 67.10707156732678,92.7755695618689 68.90781594440341,43.30616700509563 49.54981390573084,34.979597149882466 33.79330061562359,49.183739349246025 33.79330061562359,99.14289125520736 50.90037218667567,105.51020675711334 63.95576891116798,97.67350987531245 69.80818813107908,53.102117982227355 66.65688547492027,40.857176969293505 56.752791406586766,34.489798594266176 36.49441717937589,42.81636907160282 30.641997957602143,91.30618675239384 41.89665030874312,104.53062016051263 63.50558281689882,96.69392210617661 69.80818813107908,52.61232078168541 60.35428015887737,36.93879100913182 36.49441717937589,36.93879100913182" stroke="#4dd2ff" stroke-linecap="round" stroke-linejoin="round" stroke-width="0.5"><title>2024-03-28 2.0km</title><desc>1711615120000</desc></polyline><polyline fill="none" points="131.8012332804501,64.60010530054569 127.25154159963131,65.500106040854 131.8012332804501,69.10010765632614 126.83793326467276,66.85010689916089 131.8012332804501,68.20010745478794 133.04205828532577,96.55004913173616 142.1414416451007,104.65000792779028 156.61773335561156,105.1000053184107 169.02598339132965,89.80007513659075 171.09402506239712,42.550045093055815 161.1674250345677,34.90000531915575 148.75917499884963,34.90000531915575 134.28288328833878,51.10007803281769 131.38762494549155,92.0500673102215 147.10474166087806,106.0 166.95794171839952,94.30005864147097 170.68041673116386,47.05006394535303 164.47629171051085,36.25001304456964 154.54969168268144,34.0 135.9373166244477,46.60006221104413 133.04205828532577,88.45007942803204 138.83257496915758,99.7000344041735 149.17278333194554,103.75001304550096 164.88990004733205,94.30005864147097 169.02598339132965,50.65007660211995 154.54969168268144,36.70001555327326 138.00535829924047,47.05006394535303 135.11009995639324,91.60006894171238 150.0,103.75001304550096 166.13072504848242,91.60006894171238 168.6123750563711,45.70005864277482 153.72247501276433,35.80001050280407 138.00535829924047,48.40006894338876 134.6964916214347,90.25007363874465 147.51834999397397,103.75001304550096 165.7171167153865,91.60006894171238 168.6123750563711,48.850070542655885 152.06804167479277,34.90000531915575 138.41896663233638,47.05006394535303 133.86927495338023,90.25007363874465 148.34556666389108,103.75001304550096 166.54433338344097,91.60006894171238 169.85320006124675,48.850070542655885 155.3769083507359,35.80001050280407 138.83257496915758,46.60006221104413 134.28288328833878,89.80007513659075 137.17814162932336,99.25003660935909 147.51834999397397,102.85001802770421 166.13072504848242,92.95006394339725 169.85320006124675,51.55007943045348 155.79051668569446,37.600020468235016 138.41896663233638,46.15006044320762 134.28288328833878,91.60006894171238 149.17278333194554,103.30001555243507 166.13072504848242,92.0500673102215 169.4395917262882,47.05006394535303 154.1360833477229,36.70001555327326 138.41896663233638,48.40006894338876 134.28288328833878,90.70007210830227 149.17278333194554,103.75001304550096 162.40825003944337,101.95002287393436 168.6123750563711,93.40006220992655 173.1620667371899,50.20007513836026" stroke="#4dd2ff" stroke-linecap="round" stroke-linejoin="round" stroke-width="0.5"><title>2024-03-26 3.7km</title><desc>1711445960000</desc></polyline><polyline fill="none" points="30.587976353242993,169.20007226336747 46.4705411568284,186.0 65.44138244539499,174.96005244320258 68.97084129042923,126.48005788307637 59.264829467982054,114.0 36.32334697805345,122.16004059370607 30.14679400064051,167.76007641013712 34.11743520013988,178.80003635585308 47.794088223949075,185.5200026743114 64.55901773273945,175.92004863591865 69.85320599935949,128.88006623182446 61.02955888956785,114.48000267473981 37.64689404517412,124.08004863746464 31.91152342222631,151.92010070290416 37.20571168884635,178.80003635585308 48.67645293287933,184.0800104853697 59.264829467982054,179.76003197580576 68.52965893410146,131.76007506577298 61.02955888956785,117.84002039488405 48.2352705784142,116.40001301560551 39.41162346675992,123.60004668077454 33.67625284381211,165.84008143795654 43.38226466625929,182.64001797232777 61.470741245895624,176.88004468707368 68.52965893410146,129.84006931912154 58.38246475532651,115.92001048475504 39.41162346675992,124.08004863746464 33.67625284381211,166.80007899645716 43.82344702258706,182.64001797232777 61.02955888956785,176.88004468707368 65.44138244539499,121.20003635575995 50.44118235446513,114.9600053136237 38.088076397776604,127.44006133032963 34.11743520013988,172.56006132951006 42.05871759913862,181.68002278357744 54.41182355582714,182.16002039518207" stroke="#4dd2ff" stroke-linecap="round" stroke-linejoin="round" stroke-width="0.5"><title>2024-03-25 2.1km</title><desc>1711359274000</desc></polyline><polyline fill="none" points="159.12059268169105,179.07695958809927 167.6048649419099,132.00007877405733 157.84795184247196,117.23078723624349 135.78884396329522,126.92313879542053 131.12249422073364,166.15393003681675 143.84890261292458,183.23078476823866 162.51430158503354,175.84620473813266 167.6048649419099,132.00007877405733 155.30267016403377,117.69232813222334 135.78884396329522,127.38467896683142 131.12249422073364,168.92315293336287 144.69732983782887,183.23078476823866 162.93851519934833,174.46159499883652 167.6048649419099,130.1539192646742 154.87845655158162,117.69232813222334 135.78884396329522,126.92313879542053 131.54670783504844,169.38468996202573 135.36463035270572,179.07695958809927 147.24261151626706,183.69232072588056 163.36272881180048,172.61544819595292 167.6048649419099,132.92315832013264 156.57531100325286,117.69232813222334 135.78884396329522,125.07697776705027 131.54670783504844,169.38468996202573 144.69732983782887,184.1538566504605 162.09008797444403,175.38466819329187 167.6048649419099,132.00007877405733 155.72688377834857,116.76924630673602 136.21305757761002,124.61543742474169 131.12249422073364,170.30776391550899 135.36463035270572,179.5384958581999 148.09103874117136,184.61539254011586 163.78694242425263,172.15391141036525 167.18065132945776,129.69237930094823 154.03002932481468,116.76924630673602 142.1520481593907,119.0769506120123 134.94041673839092,128.30775920301676 131.9709214475006,172.61544819595292 148.51525235548615,183.69232072588056 164.21115603856742,170.76930084172636 167.18065132945776,130.1539192646742 154.87845655158162,116.76924630673602 135.36463035270572,128.30775920301676 131.54670783504844,171.2308377311565 146.39418429136276,183.23078476823866 162.51430158503354,174.46159499883652 167.18065132945776,129.69237930094823 152.33317487314343,116.76924630673602 134.94041673839092,127.84621910238639 131.9709214475006,171.69237458752468 146.39418429136276,184.1538566504605 163.36272881180048,174.46159499883652 167.6048649419099,130.1539192646742 160.39323352091014,118.15386899374425 136.6372711919248,124.61543742474169 131.54670783504844,166.61546727176756 141.72783454693854,183.23078476823866 162.09008797444403,176.3077412485145 167.6048649419099,131.07699908781797 154.45424293912947,117.23078723624349 135.78884396329522,126.00005835061893 131.54670783504844,169.84622695529833 143.42468899860978,182.7692487752065 161.66587436012924,177.69235057383776 168.0290785562247,132.46161856409162 159.54480629600585,118.15386899374425 146.39418429136276,116.76924630673602 136.21305757761002,126.00005835061893 128.57721254229546,166.15393003681675 131.9709214475006,178.61542328540236 143.84890261292458,186.0 154.87845655158162,185.53846421511844 165.05958326347172,175.84620473813266 171.4227874595672,133.38469804124907 159.969019908458,114.92308224039152 145.96997067704797,114.0 133.66777589917183,124.15389704704285 128.57721254229546,168.46161586930975 141.72783454693854,184.61539254011586 163.78694242425263,180.92310445848852" stroke="#4dd2ff" stroke-linecap="round" stroke-linejoin="round" stroke-width="0.5"><title>2024-03-24 4.9km</title><desc>1711273464000</desc></polyline><polyline fill="none" points="29.700205195695162,246.12278711842373 33.35416826047003,258.932554197032 43.50406566262245,265.55828488478437 55.27794664725661,263.3497088155709 65.02184815332294,253.63196429330856 69.0818071141839,207.2515996657312 65.83383994363248,199.30064343521371 53.65396306477487,195.32516130479053 40.25609849207103,198.41720319306478 32.948172364383936,207.69331914326176 30.51219698973,251.86509993486106 38.226119013503194,262.02456277702004 52.02997947856784,265.11656973697245 66.64583173766732,248.77308603469282 67.05182763189077,201.50924346176907 52.43597537651658,195.32516130479053 37.414127223193645,200.18408354604617 31.32418878003955,210.7853545541875 28.88821340352297,249.65651874244213 41.880082078278065,266.0 56.08993844129145,263.3497088155709 64.6158522553742,254.0736802997999 71.51778248883784,213.4356693313457 66.23983584158123,199.30064343521371 54.871950751170516,194.8834409029223 37.8201231174171,200.18408354604617 31.73018467798829,209.9019160293974 31.32418878003955,257.60740716708824 43.098069766536355,266.0 54.871950751170516,265.11656973697245 67.05182763189077,248.77308603469282 67.05182763189077,201.50924346176907 47.56402462348342,194.0 32.13618057221174,209.46019671857357 29.29420930147171,251.42338376119733 37.008131325244904,262.9079935015179 50.0,264.6748545556329 66.64583173766732,249.2148024062626 68.26981532201171,203.71784266317263 61.77388098463416,196.20860200980678 47.97002051770687,194.8834409029223 31.73018467798829,210.3436353080906 30.10620109178126,254.95711221545935 52.02997947856784,264.23313934216276 66.23983584158123,249.2148024062626 66.23983584158123,201.50924346176907 50.81199179030955,194.4417204684578 32.948172364383936,204.6012821123004 28.482217509299517,252.3068160736002 36.60213542729616,262.4662781562656 52.02997947856784,265.11656973697245 66.23983584158123,250.0982350469567 65.42784404940903,198.85892333136871 49.59400410205126,194.4417204684578 38.226119013503194,200.18408354604617 29.29420930147171,233.31299224914983 34.57215594872832,260.2577009284869 59.74390150420368,261.5828473637812 69.48780301027,212.11051209224388 60.55589329637587,196.6503223120235 37.8201231174171,200.18408354604617 29.29420930147171,243.91420377744362 32.13618057221174,258.932554197032 42.69207387045026,264.23313934216276 62.99186867289245,256.72397564863786 69.89379890449345,212.99395028455183 64.20985636115074,198.85892333136871 37.414127223193645,198.85892333136871 30.51219698973,224.03691654885188 33.35416826047003,258.932554197032 45.534045143052936,265.11656973697245 60.149897400289774,260.69941644044593 66.64583173766732,250.53995131980628 69.89379890449345,213.4356693313457 63.803860465064645,198.85892333136871 43.91006155870855,195.76688167406246 31.73018467798829,210.3436353080906 29.700205195695162,254.0736802997999 41.06809028610587,264.23313934216276 54.871950751170516,262.4662781562656 64.20985636115074,239.05531752342358 62.17987687885761,201.50924346176907 49.59400410205126,197.53376281959936 36.60213542729616,203.71784266317263 28.88821340352297,231.54612181149423" stroke="#4dd2ff" stroke-linecap="round" stroke-linejoin="round" stroke-width="0.5"><title>2024-03-22 5.0km</title><desc>1711100044000</desc></polyline><polyline fill="none" points="128.07874514721334,221.000100991223 135.52369962632656,259.2500366093591 147.93195708841085,265.5500026764348 160.3402145523578,261.95002287393436 168.61238619498909,252.5000656428747 171.5076462700963,231.8001074534841 166.13073470257223,201.2000387799926 149.17278283461928,195.3500079275109 137.1781339533627,210.6500766016543 135.52369962632656,253.85006044153124 145.450305595994,264.2000105031766 157.44495447725058,264.2000105031766 167.37156044878066,250.25007363874465 166.95795186422765,207.0500639444217 153.30886865779757,197.15001802658662 137.59174253605306,210.6500766016543 135.52369962632656,252.5000656428747 142.96865410357714,262.40002046711743 154.136085819453,264.6500079287216 166.13073470257223,248.4500794284977 167.78516902960837,205.7000586418435 156.2041287291795,195.8000105037354 137.59174253605306,206.60006221104413 133.86926529556513,249.80007513659075 150.82721716351807,263.30001555290073 161.58104029856622,261.0500275869854 169.0259947758168,248.4500794284977 169.43960335850716,202.5500450921245 164.4763003718108,195.8000105037354 148.75917425379157,194.0 134.69648246094584,207.50006564427167 132.21483097039163,252.05006730975583 150.82721716351807,266.0 167.78516902960837,249.35007660044357 171.92125485092402,209.75007363967597 165.71712611801922,194.45000267680734 140.07339402846992,198.0500228740275 130.14678805880249,243.50009257346392" stroke="#4dd2ff" stroke-linecap="round" stroke-linejoin="round" stroke-width="0.5"><title>2024-03-21 2.2km</title><desc>1711013104000</desc></polyline></svg>