<?xml version="1.0" encoding="utf-8" ?>
<svg baseProfile="full" height="300mm" version="1.1" viewBox="0,0,200,300" width="200mm" xmlns="http://www.w3.org/2000/svg" xmlns:ev="http://www.w3.org/2001/xml-events" xmlns:xlink="http://www.w3.org/1999/xlink"><defs /><rect fill="#222222" height="300" width="200" x="0" y="0" /><text fill="#FFFFFF" style="font-size:12px; font-family:Arial; font-weight:bold;" x="10" y="20">Over 2km Runs</text><text fill="#FFFFFF" style="font-size:4px; font-family:Arial" x="10" y="280">ATHLETE</text><text fill="#FFFFFF" style="font-size:9px; font-family:Arial" x="10" y="290">作怪</text><text fill="#FFFFFF" style="font-size:4px; font-family:Arial" x="120" y="280">STATISTICS</text><text fill="#FFFFFF" style="font-size:3px; font-family:Arial" x="120" y="285">Number: 9</text><text fill="#FFFFFF" style="font-size:3px; font-family:Arial" x="120" y="290">Weekly: 3.0</text><text fill="#FFFFFF" style="font-size:3px; font-family:Arial" x="141" y="285">Total: 37.5 km</text><text fill="#FFFFFF" style="font-size:3px; font-family:Arial" x="141" y="290">Avg: 4.2 km</text><text fill="#FFFFFF" style="font-size:3px; font-family:Arial" x="167" y="285">Min: 2.0 km</text><text fill="#FFFFFF" style="font-size:3px; font-family:Arial" x="167" y="290">Max: 9.7 km</text><polyline fill="none" points="27.10831068456173,80.33769597951323 39.03312330134213,87.0 50.31335145235062,77.53251250600442 54.1808582469821,47.026033834088594 50.31335145235062,36.85716348839924 38.388538835570216,34.051953993272036 30.653525246307254,39.31172041967511 26.14143398590386,70.87019502883777 34.521032040938735,84.19482051441446 50.31335145235062,78.58445650478825 54.503150479868054,45.272781900595874 48.379598055034876,36.50651239277795 37.7439543697983,35.45455895084888 30.331233013421297,41.064974582754076 26.46372622065246,73.67538248933852 34.84332427382469,84.5454680416733 49.346474753692746,79.98704813653603 53.53627377934754,45.974082752130926 46.445844657719135,35.80521012516692 36.13249320536852,35.80521012516692 30.00894078053534,42.11692676693201 26.46372622065246,72.62343738833442 33.23186310939491,83.84417296014726 49.6687669865787,79.63640026841313 53.85856601409614,45.974082752130926 44.512091260403395,35.10390775091946 29.686648547649384,41.41562533704564 25.496849520131946,75.77927198354155 37.421662136912346,85.24676301842555 50.63564368523657,77.18186445347965 54.1808582469821,46.32473313855007 49.991059217602015,37.90911661600694 41.93375339731574,34.40260527236387 28.719771848991513,42.46757744112983 25.496849520131946,73.3247341485694 36.13249320536852,84.89611554332078 50.957935916259885,76.8312163753435 53.85856601409614,45.623432339634746 41.611461164429784,34.40260527236387 29.364356316626072,42.11692676693201 26.46372622065246,74.37667909171432 37.421662136912346,85.24676301842555 50.957935916259885,76.8312163753435 53.53627377934754,43.51952931005508 40.64458446577191,34.75325652491301 29.364356316626072,42.46757744112983 26.786018451675773,75.42862379923463 39.35541553422809,84.89611554332078 51.60252038389444,76.12992013944313 54.1808582469821,44.57148094289005 42.57833786122501,34.75325652491301 28.719771848991513,43.51952931005508 26.46372622065246,75.42862379923463 38.06624660268426,85.24676301842555 51.28022815100849,77.18186445347965 54.1808582469821,44.922131434548646 41.28916893154383,34.75325652491301 28.719771848991513,43.51952931005508 26.14143398590386,75.42862379923463 39.35541553422809,85.24676301842555 50.957935916259885,77.18186445347965 53.85856601409614,44.922131434548646 42.90063009597361,34.40260527236387 29.04206408187747,42.11692676693201 26.46372622065246,74.02603080309927 36.77707767300308,84.89611554332078 46.12355242483318,83.14287777384743 51.28022815100849,76.8312163753435 54.1808582469821,43.87017988041043 42.57833786122501,34.40260527236387 29.686648547649384,41.76627606526017 26.14143398590386,74.02603080309927 35.81020097434521,84.89611554332078 50.63564368523657,78.23380853189155 53.85856601409614,45.272781900595874 43.545214561745524,33.70130268903449 30.00894078053534,41.064974582754076 26.14143398590386,74.37667909171432 37.09936990402639,84.89611554332078 47.09042912349105,82.79223014134914 51.924812614917755,75.77927198354155 53.21398154832423,43.16887871362269 40.32229223288596,34.051953993272036 28.719771848991513,42.81822809064761 26.46372622065246,76.480568270199 38.388538835570216,85.24676301842555 51.28022815100849,76.12992013944313 53.85856601409614,44.922131434548646 41.611461164429784,34.40260527236387 28.3974796179682,44.22083042562008 26.46372622065246,74.37667909171432 38.06624660268426,84.89611554332078 50.957935916259885,77.53251250600442 53.85856601409614,45.272781900595874 40.64458446577191,34.40260527236387 29.04206408187747,43.16887871362269 26.46372622065246,75.77927198354155 34.19873980805278,84.5454680416733 50.31335145235062,78.58445650478825 54.503150479868054,45.623432339634746 41.611461164429784,34.051953993272036 29.686648547649384,41.76627606526017 27.10831068456173,75.07797558931634 39.35541553422809,85.24676301842555 51.28022815100849,76.12992013944313 54.1808582469821,45.272781900595874 48.057305820286274,36.15586127247661 40.32229223288596,34.051953993272036 29.364356316626072,43.16887871362269 26.46372622065246,74.727327354718 39.35541553422809,85.24676301842555 50.957935916259885,78.58445650478825 53.85856601409614,44.22083042562008 41.611461164429784,33.35065135732293 30.331233013421297,39.6623713048175 26.46372622065246,74.727327354718 30.97581747919321,82.44158248323947 39.67770776711404,85.24676301842555 51.924812614917755,75.42862379923463 53.85856601409614,44.22083042562008 47.73501358926296,35.45455895084888 39.35541553422809,33.70130268903449 29.364356316626072,42.11692676693201 26.786018451675773,75.77927198354155 40.64458446577191,85.94805788993835 51.28022815100849,77.53251250600442 53.53627377934754,44.22083042562008 40.96687669865787,33.0 29.04206408187747,42.11692676693201 26.14143398590386,73.67538248933852 36.13249320536852,84.89611554332078 50.957935916259885,77.8831605319865 53.53627377934754,44.57148094289005 42.57833786122501,34.051953993272036 34.19873980805278,35.10390775091946 29.04206408187747,43.51952931005508 26.46372622065246,74.727327354718 38.71083107031882,85.24676301842555 51.60252038389444,76.8312163753435 53.53627377934754,45.272781900595874 41.93375339731574,33.70130268903449 29.04206408187747,43.16887871362269 26.786018451675773,76.12992013944313 38.388538835570216,85.94805788993835 51.28022815100849,76.8312163753435 53.53627377934754,43.16887871362269 48.379598055034876,36.15586127247661 38.388538835570216,34.051953993272036 29.04206408187747,43.16887871362269 27.10831068456173,76.12992013944313 40.32229223288596,85.24676301842555 51.60252038389444,75.07797558931634 53.85856601409614,43.51952931005508 39.67770776711404,33.70130268903449 30.653525246307254,40.01302216295153 25.819141753017902,51.935135759878904 25.496849520131946,78.93510445207357" stroke="#4dd2ff" stroke-linecap="round" stroke-linejoin="round" stroke-width="0.5"><title>2024-04-03 9.7km</title><desc>1712137473000</desc></polyline><polyline fill="none" points="80.69827844202518,65.82360307639465 89.45704284496605,64.05889904126525 86.2130560297519,73.58829298336059 93.34982702508569,84.52942525688559 109.89415979012847,84.52942525688559 119.30172155797482,49.94124300638214 114.11134265176952,35.11765870265663 101.78419275023043,33.0 93.02542834356427,37.94120216043666 89.13264416530728,73.23535281093791 93.67422570846975,85.23530388670042 105.02817956544459,85.23530388670042 113.46254528872669,79.23533216351643 117.0309307873249,46.7647645752877 109.24536242708564,36.176487697754055 93.34982702508569,42.52945667644963 89.13264416530728,76.0588734569028 99.18900329619646,85.94118241174147 113.46254528872669,78.5294526363723 116.38213342241943,46.411822396330535 107.29897033795714,35.11765870265663 93.02542834356427,42.52945667644963 89.45704284496605,77.11769326310605 100.48659802228212,86.64706083061174 113.46254528872669,78.88239241344854 117.0309307873249,46.05888019036502 108.27216638252139,35.82354472531006 99.18900329619646,36.882373561151326 92.37663098052144,43.941226398106664 88.80824548378587,76.0588734569028 99.51340197771788,87.0 113.13814660720527,78.88239241344854 116.70653210580349,45.0000534132123 108.27216638252139,35.82354472531006 92.37663098052144,43.588284007273614 88.80824548378587,74.29417325137183 93.02542834356427,83.4706071135588 102.1085914298892,86.64706083061174 114.43574133329093,77.47063314635307 116.70653210580349,45.35299569834024 107.94776769913733,35.47060172725469 100.81099670380354,35.47060172725469 92.37663098052144,43.23534158989787 88.80824548378587,74.64711334463209 98.54020593315363,86.64706083061174 112.81374792568386,80.29415125772357 117.0309307873249,46.7647645752877 110.5429571531713,36.176487697754055 102.1085914298892,35.82354472531006 92.7010296639055,43.23534158989787 89.13264416530728,75.3529934543185 96.59381384216249,85.58824316272512 113.46254528872669,83.82354652089998" stroke="#4dd2ff" stroke-linecap="round" stroke-linejoin="round" stroke-width="0.5"><title>2024-04-02 3.0km</title><desc>1712049520000</desc></polyline><polyline fill="none" points="149.2403965573758,49.993069282732904 147.15789266489446,79.44758719345555 153.40540434233844,85.86713879927993 162.77667185664177,86.24475922854617 169.7183514982462,78.31472429819405 173.1891913190484,40.930106116924435 161.38833593018353,33.0 150.28164850361645,42.06297740293667 146.81080868281424,78.31472429819405 152.711236378178,85.48951834300533 162.4295878764242,86.24475922854617 169.7183514982462,77.93710327614099 173.1891913190484,41.30772990733385 161.7354199104011,33.0 150.28164850361645,41.68535366887227 146.46372470073402,77.18186114775017 158.61166407354176,87.0 169.7183514982462,78.69234529184178 173.53627530112863,42.81822478538379 163.123755838722,33.0 150.28164850361645,41.68535366887227 146.46372470073402,77.55948222661391 157.5704121273011,87.0 169.37126751616597,79.44758719345555 173.53627530112863,43.195848434232175 163.47083982266486,33.0 150.28164850361645,41.30772990733385 146.46372470073402,77.18186114775017 156.87624416314065,87.0 169.37126751616597,79.44758719345555 173.8833592813462,43.95109564717859 164.51209176890552,33.37762438412756 150.62873248569667,40.55248229857534 146.46372470073402,76.42661890853196 157.5704121273011,87.0 169.37126751616597,79.44758719345555 173.53627530112863,43.195848434232175 163.123755838722,33.0 150.62873248569667,40.55248229857534 146.46372470073402,77.18186114775017 157.91749610938132,87.0 169.7183514982462,78.31472429819405 173.53627530112863,43.57347205514088 162.77667185664177,33.0 150.28164850361645,42.06297740293667 146.46372470073402,77.55948222661391 157.91749610938132,87.0 169.7183514982462,78.69234529184178 173.53627530112863,42.44060110859573 162.4295878764242,33.0 150.28164850361645,42.06297740293667 146.46372470073402,76.80424004187807 150.9758164677769,84.35665680328384 160.34708398394287,86.62237962847576 169.7183514982462,78.31472429819405 173.53627530112863,42.81822478538379 161.7354199104011,33.0 150.28164850361645,42.06297740293667 146.46372470073402,76.42661890853196 156.87624416314065,87.0 169.37126751616597,79.44758719345555 173.8833592813462,44.70634274650365 164.16500778496265,33.37762438412756 150.9758164677769,40.17485845275223 146.46372470073402,76.42661890853196 154.4466562885791,86.24475922854617 169.37126751616597,79.44758719345555 173.8833592813462,43.95109564717859 164.8591757491231,33.37762438412756 151.66998443193734,38.664362783543766 146.1166407186538,75.29375533480197 150.62873248569667,84.35665680328384 160.0,87.0 168.3300155699253,81.33569145482033 173.8833592813462,46.21683660848066 166.94167964160442,34.13287306483835 153.75248832441866,36.020994275808334 147.8520606290549,80.58044983493164 155.14082425273955,86.62237962847576 164.51209176890552,85.11189785785973 171.4537714086473,66.98608135990798" stroke="#4dd2ff" stroke-linecap="round" stroke-linejoin="round" stroke-width="0.5"><title>2024-03-30 4.8km</title><desc>1711782999000</desc></polyline><polyline fill="none" points="24.468579759821296,145.04088805057108 26.832056751474738,170.02044157963246 33.922487732023,175.8979651206173 44.726953987032175,175.1632750625722 52.83030367642641,164.51025687111542 52.155024535954,127.04083688277751 35.94832515530288,124.10204675188288 27.169696321710944,134.02045639185235 27.169696321710944,168.91840513283387 36.623604295775294,177.0 47.09043097868562,174.4285848941654 53.16794324852526,164.51025687111542 55.53142024204135,136.9592405864969 51.81738496571779,126.30613951478153 40.0,123.0 31.89665030874312,128.14288272708654 25.819138038903475,163.77556510968134 29.195533744990826,172.22451373189688 38.98708128929138,177.0 52.83030367642641,167.08167717140168 54.18086195923388,129.97962525347248 39.662360429763794,123.73469786252826 27.844975462183356,134.38780451193452 27.844975462183356,171.85716844163835 40.67527914047241,176.632655067835 50.46682668291032,170.75513240648434 54.85614109970629,137.32658848678693 52.492664106190205,128.14288272708654 45.064593555405736,123.36734894569963 29.870812885463238,129.61227680370212 25.48149846866727,165.97964006429538 33.922487732023,175.8979651206173 50.12918711267412,170.02044157963246 54.85614109970629,136.9592405864969 47.765710121020675,125.20409325696528 29.870812885463238,125.20409325696528" stroke="#4dd2ff" stroke-linecap="round" stroke-linejoin="round" stroke-width="0.5"><title>2024-03-28 2.0km</title><desc>1711615120000</desc></polyline><polyline fill="none" points="86.3509249612689,145.95007897517644 82.93865619972348,146.6250795305241 86.3509249612689,149.32508074236102 82.62844994850457,147.63758017402142 86.3509249612689,148.65008059120737 87.281543713063,169.91253684880212 94.1060812342912,175.9875059458427 104.96330001577735,176.32500398880802 114.26948754303157,164.85005635209382 115.8205187972635,129.41253381967545 108.37556877732277,123.67500398936681 99.0693812482059,123.67500398936681 88.21216246671975,135.82505852449685 86.04071870818734,166.5375504824333 97.82855624519289,177.0 112.71845628879964,168.2250439808704 115.51031254790723,132.78754795901477 110.8572187833488,124.68750978331082 103.41226876154542,123.0 89.45298746973276,132.45004665805027 87.281543713063,163.83755957102403 91.62443122640252,172.27502580313012 99.37958749942482,175.31250978377648 111.16742503456771,168.2250439808704 114.26948754303157,135.48755745147355 103.41226876154542,125.02501166495495 91.00401872396469,132.78754795901477 88.83257496729493,166.20005170628428 100.0,175.31250978377648 112.09804378636181,166.20005170628428 113.9592812936753,131.77504398208112 102.79185625910759,124.35000787721947 91.00401872396469,133.80005170730874 88.52236871607602,165.18755522882566 98.1387624964118,175.31250978377648 111.78783753700554,166.20005170628428 113.9592812936753,134.13755290675908 101.55103125609457,123.67500398936681 91.3142249751836,132.78754795901477 87.90195621550083,165.18755522882566 98.75917499884963,175.31250978377648 112.40825003758073,166.20005170628428 114.8899000454694,134.13755290675908 104.03268126398325,124.35000787721947 91.62443122640252,132.45004665805027 88.21216246671975,164.85005635209382 90.38360622152686,171.9375274570193 98.1387624964118,174.6375135204289 112.09804378636181,167.21254795743152 114.8899000454694,136.1625595728401 104.34288751520216,125.70001535094343 91.3142249751836,132.11254533240572 88.21216246671975,166.20005170628428 99.37958749942482,174.9750116642099 112.09804378636181,166.5375504824333 114.57969379611313,132.78754795901477 103.1020625103265,125.02501166495495 91.3142249751836,133.80005170730874 88.21216246671975,165.52505408111028 99.37958749942482,175.31250978377648 109.30618752911687,173.96251715556718 113.9592812936753,167.5500466574449 117.37155005335808,135.1500563537702" stroke="#4dd2ff" stroke-linecap="round" stroke-linejoin="round" stroke-width="0.5"><title>2024-03-26 3.7km</title><desc>1711445960000</desc></polyline><polyline fill="none" points="145.44098226726055,164.40005419775844 157.35290586948395,177.0 171.5810368359089,168.72003933228552 174.2281309682876,132.36004341207445 166.94862210191786,123.0 149.74251023493707,129.12003044551238 145.11009550094604,163.32005730783567 148.0880764015019,171.6000272668898 158.34556616842747,176.64000200573355 170.91926330141723,169.4400364770554 174.8899045009166,134.16004967410117 168.2721691671759,123.36000200593844 150.73517053574324,130.56003647809848 146.43364256806672,151.4400755269453 150.40428376756608,171.6000272668898 159.00733970105648,175.5600078641437 166.94862210191786,172.32002398185432 173.89724420197308,136.32005629921332 168.2721691671759,125.88001529639587 158.67645293474197,124.8000097614713 152.05871760100126,130.2000350104645 147.7571896351874,161.88006107881665 155.0366985015571,174.480013479013 168.60305593535304,170.16003351518884 173.89724420197308,134.88005198957399 166.2868485674262,124.44000786356628 152.05871760100126,130.56003647809848 147.7571896351874,162.6000592475757 155.36758526787162,174.480013479013 168.2721691671759,170.16003351518884 171.5810368359089,128.4000272671692 160.33088676817715,123.72000398533419 151.0660573001951,133.0800459976308 148.0880764015019,166.9200459974818 154.04403820075095,173.76001708768308 163.308867668733,174.12001529661939" stroke="#4dd2ff" stroke-linecap="round" stroke-linejoin="round" stroke-width="0.5"><title>2024-03-25 2.1km</title><desc>1711359274000</desc></polyline><polyline fill="none" points="46.84044451080263,261.80771969119087 53.20364870503545,226.50005908031017 45.88596388138831,215.42309042718261 29.34163297340274,222.6923540965654 25.841870665550232,252.11544752772897 35.38667695969343,264.92308857664466 49.38572618737817,259.3846535538323 53.20364870503545,226.50005908031017 43.97700262255967,215.76924609951675 29.34163297340274,223.03850922500715 25.841870665550232,254.19236470013857 36.02299737930298,264.92308857664466 49.70388639904559,258.3461962491274 53.20364870503545,225.11543944850564 43.65884241275489,215.76924609951675 29.34163297340274,222.6923540965654 26.160030875355005,254.53851747186854 29.023472763597965,261.80771969119087 37.93195863813162,265.26924054464325 50.02204660885036,256.9615861470811 53.20364870503545,227.1923687402159 44.93148325197399,215.76924609951675 29.34163297340274,221.30773332575336 26.160030875355005,254.53851747186854 36.02299737930298,265.6153924879618 49.06756597943604,259.03850114531815 53.20364870503545,226.50005908031017 44.29516283236444,215.07693473016843 29.659793183207512,220.96157806832343 25.841870665550232,255.23082293663174 29.023472763597965,262.15387189388275 38.56827905587852,265.9615444052033 50.34020681679249,256.61543355789036 52.88548849709332,224.76928447559476 43.02252199314535,215.07693473016843 34.11403612047434,216.80771295912564 28.705312553793192,223.73081940272823 26.47819108515978,256.9615861470811 38.88643926754594,265.26924054464325 50.65836702845991,255.5769756315276 52.88548849709332,225.11543944850564 43.65884241275489,215.07693473016843 29.023472763597965,223.73081940272823 26.160030875355005,255.9231282984838 37.29563821852207,264.92308857664466 49.38572618737817,258.3461962491274 52.88548849709332,224.76928447559476 41.7498811557889,215.07693473016843 28.705312553793192,223.3846643269062 26.47819108515978,256.2692809407599 37.29563821852207,265.6153924879618 50.02204660885036,258.3461962491274 53.20364870503545,225.11543944850564 47.79492514021695,216.1154017453082 29.977953393012285,220.96157806832343 26.160030875355005,252.4616004540585 33.795875910669565,264.92308857664466 49.06756597943604,259.73080593626946 53.20364870503545,225.8077493160963 43.34068220295012,215.42309042718261 29.34163297340274,222.00004376331344 26.160030875355005,254.88467021659017 35.06851674988866,264.5769365816377 48.74940576963127,260.7692629303783 53.52180891670287,226.84621392330155 47.1586047206074,216.1154017453082 37.29563821852207,215.07693473016843 29.659793183207512,222.00004376331344 23.932909406721592,252.11544752772897 26.47819108515978,261.4615674642846 35.38667695969343,267.0 43.65884241275489,266.65384816145524 51.29468744620681,259.3846535538323 56.06709059327841,227.53852353105322 47.47676493041217,213.69231168041006 36.9774780087173,213.0 27.750831924378872,220.61542278528214 23.932909406721592,253.84621190233156 33.795875910669565,265.9615444052033 50.34020681679249,263.1923283440992" stroke="#4dd2ff" stroke-linecap="round" stroke-linejoin="round" stroke-width="0.5"><title>2024-03-24 4.9km</title><desc>1711273464000</desc></polyline><polyline fill="none" points="84.77515389956534,252.09209033916704 87.51562619768083,261.69941564812325 95.12804924882948,266.6687136639375 103.95845998823643,265.0122816117946 111.26638611778617,257.72397322021425 114.31135533750057,222.93869974953122 111.87537996098399,216.97548257675953 102.74047229997814,213.9938709787093 92.6920738723129,216.31290239514783 87.21112927608192,223.26998935756274 85.3841477446258,256.3988249511458 91.1695892624557,264.01842208299786 101.52248461171985,266.33742730296217 112.48437380604446,254.07981452601962 112.78887072764337,218.63193259644322 101.8269815351814,213.9938709787093 90.56059541925788,217.63806265965104 85.99314158782363,225.58901591598988 84.16616005450487,254.74238905706443 93.9100615605712,267.0 104.5674538332969,265.0122816117946 110.96188919432461,258.05526022496633 116.13833686895669,227.5767519986257 112.17987688444555,216.97548257675953 103.65396306663752,213.66258067754097 90.86509234085679,217.63806265965104 86.29763851128519,224.9264370223973 85.99314158782363,260.7055553756654 94.82355232723057,267.0 103.65396306663752,266.33742730296217 112.78887072764337,254.07981452601962 112.78887072764337,218.63193259644322 98.17301847040653,213.0 86.60213543102145,224.595147539163 84.47065697796643,256.06753782136366 90.25609849579632,264.6809951264877 100.00000000186265,266.0061409168411 112.48437380604446,254.41110180481337 113.7023614924401,220.2883819974959 108.83041074126959,214.65645150770433 98.47751539200544,213.66258067754097 86.29763851128519,225.2577264814172 85.07965082116425,258.71783416182734 101.52248461171985,265.6748545067385 112.17987688444555,254.41110180481337 112.17987688444555,218.63193259644322 100.60899384506047,213.33129035145976 87.21112927608192,220.95096158445813 83.86166313290596,256.73011205531657 89.95160157419741,264.34970861743204 101.52248461171985,266.33742730296217 112.17987688444555,255.07367628556676 111.57088303938508,216.64419249864295 99.69550307840109,213.33129035145976 91.1695892624557,217.63806265965104 84.47065697796643,242.48474418721162 88.42911696434021,262.6932756968308 107.30792613141239,263.68713552318513 114.61585225909948,226.58288406929933 107.91691997461021,214.98774173436686 90.86509234085679,217.63806265965104 84.47065697796643,250.43565283319913 86.60213543102145,261.69941564812325 94.51905540376902,265.6748545067385 109.74390150606632,260.04298173682764 114.9203491806984,227.24546271376312 110.6573922727257,216.64419249864295 90.56059541925788,216.64419249864295 85.3841477446258,235.52768741175532 87.51562619768083,261.69941564812325 96.65053386054933,266.33742730296217 107.6124230530113,263.0245623306837 112.48437380604446,255.4049634898547 114.9203491806984,227.5767519986257 110.35289535112679,216.64419249864295 95.4325461704284,214.3251612558961 86.29763851128519,225.2577264814172 84.77515389956534,258.05526022496633 93.30106771737337,265.6748545067385 103.65396306663752,264.34970861743204 110.6573922727257,246.79148814291693 109.1349076628685,218.63193259644322 99.69550307840109,215.65032211481594 89.95160157419741,220.2883819974959 84.16616005450487,241.15959135862067" stroke="#4dd2ff" stroke-linecap="round" stroke-linejoin="round" stroke-width="0.5"><title>2024-03-22 5.0km</title><desc>1711100044000</desc></polyline><polyline fill="none" points="143.559058861807,233.25007574330084 149.14277472160757,261.9375274570193 158.4489678181708,266.66250200755894 167.75516091659665,263.9625171555672 173.9592896476388,256.8750492320396 176.13073470257223,241.35008059022948 172.09805102832615,218.40002908511087 159.37958712689579,214.01250594574958 150.383600467816,225.48755745124072 149.14277472160757,257.88754533138126 156.58772919885814,265.65000787726603 165.58371585793793,265.65000787726603 173.02867033705115,255.1875552290585 172.71846389956772,222.78754795808345 162.4816514942795,215.36251351982355 150.69380690343678,225.48755745124072 149.14277472160757,256.8750492320396 154.7264905795455,264.3000153505709 163.10206436738372,265.9875059465412 172.09805102832615,253.8375595714897 173.33887677453458,221.77504398138262 164.65309654921293,214.35000787791796 150.69380690343678,222.4500466582831 147.9019489735365,254.85005635255948 160.62041287496686,264.97501166467555 168.68578022532165,263.28752069035545 174.26949608325958,253.8375595714897 174.579702520743,219.41253381920978 170.85722528025508,214.35000787791796 159.069380691275,213.0 148.5223618466407,223.12504923320375 146.6611232291907,256.53755048220046 160.62041287496686,267.0 173.33887677453458,254.5125574504491 176.44094114005566,224.81255522975698 171.78784459084272,213.33750200737268 152.55504552274942,216.03751715575345 145.11009104549885,250.12506943009794" stroke="#4dd2ff" stroke-linecap="round" stroke-linejoin="round" stroke-width="0.5"><title>2024-03-21 2.2km</title><desc>1711013104000</desc></polyline></svg>