<?xml version="1.0" encoding="utf-8" ?>
<svg baseProfile="full" height="300mm" version="1.1" viewBox="0,0,200,300" width="200mm" xmlns="http://www.w3.org/2000/svg" xmlns:ev="http://www.w3.org/2001/xml-events" xmlns:xlink="http://www.w3.org/1999/xlink"><defs /><rect fill="#222222" height="300" width="200" x="0" y="0" /><text fill="#FFFFFF" style="font-size:12px; font-family:Arial; font-weight:bold;" x="10" y="20">Over 2km Runs</text><text fill="#FFFFFF" style="font-size:4px; font-family:Arial" x="10" y="280">ATHLETE</text><text fill="#FFFFFF" style="font-size:9px; font-family:Arial" x="10" y="290">作怪</text><text fill="#FFFFFF" style="font-size:4px; font-family:Arial" x="120" y="280">STATISTICS</text><text fill="#FFFFFF" style="font-size:3px; font-family:Arial" x="120" y="285">Number: 33</text><text fill="#FFFFFF" style="font-size:3px; font-family:Arial" x="120" y="290">Weekly: 3.3</text><text fill="#FFFFFF" style="font-size:3px; font-family:Arial" x="141" y="285">Total: 150.4 km</text><text fill="#FFFFFF" style="font-size:3px; font-family:Arial" x="141" y="290">Avg: 4.6 km</text><text fill="#FFFFFF" style="font-size:3px; font-family:Arial" x="167" y="285">Min: 2.0 km</text><text fill="#FFFFFF" style="font-size:3px; font-family:Arial" x="167" y="290">Max: 12.3 km</text><polyline fill="none" points="20.00945705641061,37.69873106991872 19.150011262856424,54.90393166639842 22.072126961313188,60.888321509351954 27.22880172263831,62.57142857136205 32.041698166169226,60.51429756404832 35.82325965818018,49.2935531786643 34.276257229968905,35.828593434998766 29.119582467712462,32.83637030981481 23.61912938952446,33.58442642702721 19.66567873954773,38.633799362462014 18.978122103959322,57.14807953638956 26.5412450870499,62.57142857136205 31.354141532443464,61.44935732288286 34.62003554683179,57.14807953638956 35.82325965818018,38.633799362462014 28.77580415084958,32.83637030981481 23.79101854749024,33.58442642702721 20.181346215307713,37.51171736931428 18.80623294506222,55.651981180068105 24.478575183078647,62.19740487774834 30.494695737957954,61.82338112825528 34.44814638886601,58.08314055413939 35.651370499283075,37.69873106991872 28.088247516192496,32.462342167273164 20.868902849964797,36.38963487232104 19.150011262856424,56.40003046975471 25.16613181773573,62.19740487774834 34.104368071071804,58.08314055413939 35.82325965818018,38.633799362462014 33.41681143641472,34.14546836796217 28.947693309746683,32.462342167273164 23.447240230627358,33.39741241838783 20.525124533101916,36.950676183681935 18.63434378709644,56.02600585366599 26.02557761222124,62.57142857136205 34.104368071071804,57.522103985305876 35.479481341317296,37.88574475655332 32.55736564192921,33.21039839624427 28.088247516192496,32.08831396861933 23.447240230627358,33.21039839624427 20.181346215307713,37.69873106991872 19.150011262856424,56.96106729074381 26.5412450870499,62.19740487774834 34.104368071071804,56.40003046975471 35.307592182420194,37.51171736931428 28.088247516192496,32.27532807504758 23.103461913764477,33.95845440169796 20.353235373273492,38.44678573170677 19.321900421753526,56.587042757775635 26.369355929084122,62.19740487774834 34.62003554683179,56.587042757775635 35.479481341317296,37.324703654972836 27.916358357295394,31.901299848454073 20.181346215307713,37.69873106991872 18.80623294506222,55.83899352350272 21.38457032572478,60.888321509351954 25.338020976632833,62.0103930097539 30.838474055752158,61.07533346116543 34.104368071071804,57.14807953638956 35.479481341317296,37.324703654972836 33.24492227751762,33.39741241838783 28.4320258339867,32.08831396861933 23.103461913764477,33.39741241838783 20.353235373273492,37.324703654972836 18.80623294506222,55.277956451289356 20.868902849964797,60.14027356216684 24.994242659769952,62.19740487774834 30.838474055752158,61.2623453985434 34.44814638886601,57.14807953638956 35.307592182420194,37.51171736931428 27.40069088153541,32.08831396861933 20.00945705641061,38.07275842898525 18.978122103959322,56.587042757775635 21.556459485553205,60.51429756404832 26.885023404844105,62.19740487774834 34.276257229968905,56.40003046975471 35.307592182420194,36.950676183681935 28.088247516192496,31.901299848454073 22.931572754867375,33.39741241838783 20.00945705641061,38.259772087214515 19.150011262856424,57.14807953638956 26.19746677018702,62.19740487774834 34.276257229968905,56.77405503112823 35.13570302352309,37.13768992619589 27.57258003950119,31.714285714318976 20.181346215307713,36.76366242743097 18.46245462819934,54.15588192921132" stroke="#4dd2ff" stroke-linecap="round" stroke-linejoin="round" stroke-width="0.5"><title>2024-05-22 5.2km</title><desc>1716369852000</desc></polyline><polyline fill="none" points="55.86058747768402,42.70718520833179 57.455933910794556,59.29287467896938 62.9510160703212,61.99286054051481 67.73705537058413,60.45001182309352 71.45953038148582,53.314324494684115 70.04144466295838,33.835726108867675 62.064712496474385,32.100002279505134 56.92415176704526,34.60715854680166 54.61976247280836,53.314324494684115 60.11484463326633,61.80000450112857 66.31896965112537,62.18571656499989 70.21870537754148,58.13573701563291 72.52309466991574,39.6214637667872 67.38253394048661,32.678577018901706 59.93758391868323,32.29286054056138 56.74689105153084,34.99287467915565 54.79702318832278,54.47146432148293 60.82388749253005,62.18571656499989 69.86418394744396,58.71430591237731 72.34583395533264,38.85003282944672 66.31896965112537,32.48571878694929 61.00114820711315,32.29286054056138 56.21510890685022,35.76430677087046 54.61976247280836,54.47146432148293 58.164976770058274,61.02858020039275 63.66005892958492,62.57142857136205 71.45953038148582,55.628603629767895 71.63679109700024,36.53573863161728 62.59649464022368,31.714285714318976 56.03784819226712,37.30717026209459 55.1515446184203,56.978598832851276 63.3055374994874,62.378572575515136 68.80061965901405,59.678587118163705 70.9277482368052,55.628603629767895 72.16857324074954,37.11431237589568 67.55979465600103,32.29286054056138 60.29210534784943,31.90714400401339 55.6833267621696,37.69288599002175 55.50606604851782,57.364311618264765 59.22854105848819,61.99286054051481 64.01458035968244,62.57142857136205 71.10500895231962,55.24289058474824 71.45953038148582,35.571448769653216 61.178408921696246,32.29286054056138 56.03784819226712,37.30717026209459 56.21510890685022,59.29287467896938 62.77375535480678,62.378572575515136 69.33240180276334,59.678587118163705 72.34583395533264,39.81432146485895 68.80061965901405,33.064293439965695 62.064712496474385,31.90714400401339 56.39236962236464,34.99287467915565" stroke="#4dd2ff" stroke-linecap="round" stroke-linejoin="round" stroke-width="0.5"><title>2024-05-21 3.1km</title><desc>1716282759000</desc></polyline><polyline fill="none" points="91.49148632586002,38.91431668540463 91.30240824446082,57.63430898217484 94.32765755057335,61.337149505037814 99.81092191953212,61.95428910735063 106.99588902201504,56.400027700001374 107.75220134854317,36.03430655878037 99.24368767440319,32.94857807690278 93.00411097891629,38.708601776044816 92.05872057098895,57.63430898217484 98.86553151160479,62.36571543244645 106.4286547768861,58.4571628626436 108.3194355936721,37.68002700037323 100.94539040978998,32.74286272167228 93.00411097891629,38.091456956695765 91.86964248958975,56.60574128548615 99.05460959207267,62.36571543244645 106.99588902201504,57.63430898217484 108.3194355936721,38.91431668540463 101.32354657258838,33.15429341653362 93.57134522404522,38.297171912156045 91.86964248958975,57.2228819495067 97.3529068576172,62.36571543244645 105.29418628755957,59.6914432218764 108.6975917564705,40.148605815600604 107.75220134854317,36.03430655878037 102.26893698051572,32.94857807690278 93.76042330544442,37.88574198610149 91.86964248958975,57.017168410355225 99.05460959207267,62.57142857136205 106.80681094061583,58.0457359533757 108.3194355936721,36.85716690309346 102.45801506284624,31.714285714086145 97.92014110274613,31.920001146383584 92.81503289751709,35.828591434285045 91.49148632586002,42.00003847293556" stroke="#4dd2ff" stroke-linecap="round" stroke-linejoin="round" stroke-width="0.5"><title>2024-05-16 2.1km</title><desc>1715854249000</desc></polyline><polyline fill="none" points="127.79674434661865,38.997371573001146 128.85370276402682,57.01333711342886 132.37689749151468,61.42147960327566 137.83784931898117,62.57142857136205 143.82728035468608,57.20499564008787 145.06039850972593,36.697451959364116 142.0656829914078,33.24756866833195 135.54777274653316,32.28926692926325 129.38218197319657,38.0390719845891 128.6775430291891,56.438361446605995 136.4285714281723,62.379770445637405 143.29880114551634,56.82167857233435 144.70807903725654,37.27243205648847 136.95705063734204,33.24756866833195 130.43914039153606,37.27243205648847 129.38218197319657,55.288409726461396 136.0762519557029,61.03816316626035 141.88952325470746,57.971629603998736 143.82728035468608,38.0390719845891 141.71336351893842,34.20587004814297 136.78089090064168,32.86424801568501 130.79145986400545,37.65575204906054 129.55834171082824,55.09675105661154 136.25241169240326,60.84650492644869 143.1226414097473,55.863385651027784 144.00344009138644,38.0390719845891 138.54248826391995,31.90594613389112 131.6722585465759,33.24756866833195 129.38218197319657,37.080772038782015 128.50138329248875,57.20499564008787 136.4285714281723,62.379770445637405 144.35575956385583,55.480068382341415 144.70807903725654,36.50579189858399 137.48552984651178,31.714285714086145 132.20073775574565,32.67258766829036 129.0298625016585,37.080772038782015 127.97290408331901,55.671727024484426 135.90009221900254,61.99645415181294 143.82728035468608,56.246702862670645 144.70807903725654,36.697451959364116 138.54248826391995,32.28926692926325 129.38218197319657,36.12247173325159 127.97290408331901,54.90509237162769 130.79145986400545,60.07987182261422 135.7239324823022,62.57142857136205 143.4749608822167,57.20499564008787 145.06039850972593,36.50579189858399 142.0656829914078,33.055908349109814 133.96233511902392,32.28926692926325 129.55834171082824,35.54749137838371 128.6775430291891,41.68060851236805" stroke="#4dd2ff" stroke-linecap="round" stroke-linejoin="round" stroke-width="0.5"><title>2024-05-15 3.1km</title><desc>1715764820000</desc></polyline><polyline fill="none" points="181.3475946057588,54.51322877523489 181.70889042411,35.252065709326416 174.4829740440473,31.714285714086145 166.17317020520568,35.252065709326416 164.18604320008308,56.08556238375604 172.13455121871084,62.57142857136205 179.90241132862866,57.461353519232944 181.52824251540005,37.02095391997136 173.03779076691717,31.910829172702506 165.0892827482894,38.789840940153226 164.0053952904418,56.871728835161775 167.25705766212195,61.195640112040564 172.67649494763464,62.17834622762166 180.2637071488425,56.08556238375604 180.98629878647625,36.62786775431596 173.03779076691717,32.10737261548638 165.63122647628188,37.80712607642636 164.36669110972434,56.871728835161775 167.25705766212195,60.99909884436056 172.4958470389247,62.37488740659319 179.90241132862866,57.06827041087672 181.16694669611752,36.23478152905591 178.09593223407865,33.09008961217478 171.9539033100009,32.50045945844613 165.45057856664062,38.39675503899343 164.18604320008308,56.28210401837714 167.61835348140448,61.195640112040564 173.9410303151235,62.17834622762166 180.2637071488425,55.88902073376812 181.3475946057588,36.43132464913651 173.76038240548223,31.714285714086145 165.45057856664062,37.414040027419105 164.0053952904418,57.06827041087672 172.13455121871084,62.37488740659319 180.2637071488425,57.26481197215617 181.70889042411,36.62786775431596 177.7346364147961,32.50045945844613 171.0506637627259,32.10737261548638 165.26993065699935,37.80712607642636 164.0053952904418,56.67518724431284 172.4958470389247,62.37488740659319 177.37334059551358,60.80255756271072 180.44435505755246,56.08556238375604 181.3475946057588,37.02095391997136 173.21843867655843,32.10737261548638 165.63122647628188,37.80712607642636 164.18604320008308,56.871728835161775 167.43770557176322,60.99909884436056 174.8442698623985,62.37488740659319" stroke="#4dd2ff" stroke-linecap="round" stroke-linejoin="round" stroke-width="0.5"><title>2024-05-13 3.1km</title><desc>1715589913000</desc></polyline><polyline fill="none" points="20.227500343695283,74.95241946075112 21.277934287674725,93.0476392810233 30.031550489366055,96.28571768361144 34.40835858974606,90.38098338618875 35.10864788573235,70.38097515818663 27.230393304489553,66.76190926437266 23.203729852102697,68.09524992899969 21.45300661213696,72.66669833520427 20.752717315219343,91.33336081239395 28.630971897393465,95.3333421102725 33.883141618222,90.00003231689334 33.70806929375976,70.76192916324362 26.880248656496406,67.90477273403667 18.30170477926731,73.04765199869871 19.527211047708988,90.95240988465957 26.70517633203417,96.6666678134352 30.73183978535235,95.71429238235578 34.58343091420829,90.57145890011452 35.80893718171865,71.33336006477475 28.806044220924377,66.57143196975812 23.203729852102697,68.09524992899969 20.052428019233048,73.04765199869871 19.7022833712399,91.71431168238632 23.728946823626757,96.09524259739555 29.506333516910672,96.6666678134352 34.58343091420829,90.95240988465957 35.98400950618088,71.71431392780505 34.758503237739205,68.28572711022571 28.105754924938083,66.38095466070808 20.402572668157518,71.14288311172277 19.352138723246753,90.19050785852596 26.880248656496406,96.47619275562465 34.40835858974606,91.33336081239395 35.633864858187735,71.71431392780505 33.357924645766616,67.71429552487098 27.93068260140717,65.99999999976717 20.402572668157518,71.9047908373177 19.17706639971584,90.76193439937197 26.880248656496406,96.85714285704307 34.40835858974606,91.14288535574451 34.58343091420829,71.33336006477475 27.755610276944935,67.71429552487098 21.628078935667872,72.47622148203664 20.752717315219343,91.52383625437506 28.630971897393465,95.3333421102725 33.70806929375976,89.80955676012672 34.758503237739205,69.80954404338263 32.657635348849,66.95238654478453 26.70517633203417,66.38095466070808 19.877355695702136,72.66669833520427" stroke="#4dd2ff" stroke-linecap="round" stroke-linejoin="round" stroke-width="0.5"><title>2024-05-12 3.1km</title><desc>1715507107000</desc></polyline><polyline fill="none" points="55.50780299305916,75.68071028939448 57.917622132226825,94.43698755395599 65.14707954786718,96.85714285704307 70.3374592307955,91.21011043619365 71.26431274507195,70.6386780180037 63.66411392390728,66.60504541173577 57.36151002254337,72.45381072210148 56.99076861701906,94.03362812544219 64.22022603265941,96.85714285704307 70.15208852663636,90.40339055401273 70.522829933092,70.2353150290437 65.8885623589158,67.00840894388966 58.84447564743459,69.42858886998147 55.50780299305916,88.78995006345212 58.65910494327545,95.64706547744572 63.66411392390728,96.85714285704307 68.66912290360779,93.83194838860072 71.07894204184413,77.2941586242523 70.70820063631982,71.243722388288 67.18615728057921,68.01681751012802 62.18114829994738,67.41177241620608 58.10299283452332,70.2353150290437 55.87854439858347,90.8067505247891 61.62503619119525,96.45378379081376 69.59597641788423,92.82354947761633 71.63505415059626,74.87398575968109 67.55689868610352,68.01681751012802 63.10800181515515,67.00840894388966 58.28836353775114,70.0336335117463 55.87854439858347,90.60507054673508 61.06892408244312,96.65546333184466 69.78134712204337,92.21850995020941 71.26431274507195,73.26053597591817 65.51782095339149,66.0 57.54688072577119,68.8235440920107" stroke="#4dd2ff" stroke-linecap="round" stroke-linejoin="round" stroke-width="0.5"><title>2024-05-09 2.0km</title><desc>1715244227000</desc></polyline><polyline fill="none" points="90.4813367407769,74.87674685940146 92.0354042109102,91.99610846932046 102.13684277236462,96.22309536766261 107.77033735439181,90.09396230219863 109.5186632592231,74.03134359838441 107.38182048592716,68.53621623432264 101.55406747106463,66.0 94.17224698327482,68.74756748462096 91.6468873443082,90.09396230219863 98.8344493964687,96.85714285704307 106.99330361839384,92.63015690725297 109.32440482545644,72.34053631708957 102.33110120519996,66.42270286381245 93.78373011574149,69.59297232655808 91.84114577714354,91.78475895873271 98.05741566047072,96.64579370990396 105.82775301579386,93.89825335633941 109.13014639075845,73.39729098649696 102.91387650743127,66.63405427196994 93.00669637974352,70.64972802391276 91.6468873443082,90.93936075712554 97.28038192540407,96.22309536766261 106.99330361839384,91.99610846932046 108.74162952415645,72.12918533594348 102.13684277236462,66.2113514400553 93.78373011574149,70.0156746529974 92.0354042109102,90.51666156109422 97.66889879386872,96.01174617325887 106.41052831709385,92.41880744416267 108.54737108945847,71.91783433873206 102.91387650743127,66.63405427196994 93.2009548144415,67.90216238913126" stroke="#4dd2ff" stroke-linecap="round" stroke-linejoin="round" stroke-width="0.5"><title>2024-05-05 2.0km</title><desc>1714901559000</desc></polyline><polyline fill="none" points="128.53037130832672,78.69443837180734 129.06888495292515,92.75589805049822 133.19748956058174,96.46654839115217 138.76213055569679,96.46654839115217 145.04478974081576,90.2170289887581 145.76280793454498,70.49188524973579 138.04411236196756,66.19529951899312 129.96640769392252,71.66368013061583 128.88938040472567,91.19351738179103 136.24906687997282,96.85714285704307 144.1472670007497,91.19351738179103 145.94231248274446,71.46838102024049 143.78825790435076,67.75769514893182 137.68510326649994,66.0 129.2483895001933,72.4448764261324 126.5558212781325,88.06875323969871 131.22293953038752,95.09946730057709 136.96708507277071,96.46654839115217 144.32677154894918,90.80292206839658 145.76280793454498,72.05427830736153 139.48014874756336,66.39059902378358 130.8639304349199,70.88248360180296 128.7098758565262,91.19351738179103 134.81303049530834,96.85714285704307 143.78825790435076,92.75589805049822 145.76280793454498,81.62391538405791 146.12181703094393,72.05427830736153 143.78825790435076,68.14829390938394 137.32609416916966,66.19529951899312 131.04343498311937,68.92949125659652 128.35086676012725,88.84994462551549 133.37699410878122,96.2712511359714 138.04411236196756,96.46654839115217 143.4292488079518,92.36530297063291 146.3013215791434,73.42137146601453 144.8652851935476,68.92949125659652 140.736680585891,66.78119798959233 135.53104868717492,66.58589851437137 130.145912242122,70.68718443298712 127.63284856732935,89.43583801225759 129.78690314479172,94.31827778392471 137.68510326649994,96.66184563143179 144.50627609714866,89.43583801225759 145.40379883814603,70.29658605158329 140.19816694036126,66.78119798959233 133.91550775337964,67.56239574588835 129.4278940493241,73.6166704299394 129.96640769392252,93.92768293828703 139.1211396511644,96.07595386682078 143.96776245255023,92.17000540927984 145.22429428994656,86.11577375140041 144.8652851935476,69.1247905571945 138.582626006566,66.19529951899312 132.1204622713849,68.14829390938394 129.06888495292515,73.6166704299394 128.88938040472567,93.34179056016728 137.8646078137681,96.46654839115217 144.50627609714866,90.02173126698472 145.5833033863455,69.71068837027997 136.4285714281723,66.19529951899312 128.88938040472567,73.2260724871885 129.2483895001933,93.92768293828703 133.55649865791202,96.85714285704307 139.48014874756336,96.07595386682078 145.22429428994656,87.87345535657369 145.5833033863455,69.71068837027997 141.81370787508786,66.39059902378358 135.1720395917073,66.58589851437137 128.88938040472567,73.2260724871885 128.88938040472567,93.1464930716902 138.04411236196756,96.85714285704307 144.68578064534813,90.2170289887581 145.94231248274446,71.0777827561833 142.89073516335338,67.36709632887505 136.78758052550256,66.58589851437137 129.2483895001933,71.66368013061583 129.06888495292515,92.56060051801614 137.50559871736914,96.85714285704307 144.50627609714866,89.82643352961168 145.40379883814603,70.10128683899529 140.736680585891,66.39059902378358 134.45402139797807,66.78119798959233 129.06888495292515,73.6166704299394 127.45334401912987,91.38881501648575" stroke="#4dd2ff" stroke-linecap="round" stroke-linejoin="round" stroke-width="0.5"><title>2024-04-29 5.0km</title><desc>1714382183000</desc></polyline><polyline fill="none" points="165.24149676132947,92.09526249626651 171.0188834546134,96.47619275562465 179.42235500738025,92.66668860986829 182.04843986872584,74.19051264692098 179.94757197983563,69.23811280005611 173.8200406394899,67.14286381169222 166.64207535423338,73.04765199869871 164.89135211333632,91.90478709689341 167.86758162174374,95.71429238235578 172.94467901904136,96.47619275562465 179.24728268384933,92.28573788143694 180.12264430429786,73.23812880902551 174.34525761101395,67.90477273403667 166.116858381778,73.42860560538247 165.24149676132947,91.52383625437506 173.46989599056542,95.52381725376472 179.59742733184248,90.76193439937197 180.12264430429786,71.71431392780505 172.41946204658598,67.71429552487098 164.89135211333632,76.47623240412213 163.66584584582597,81.4286181726493 167.16729232668877,94.38096618070267 172.94467901904136,95.90476749720983 177.32148711942136,93.61906518088654 180.29771662782878,73.23812880902551 175.74583620298654,67.90477273403667 166.8171476777643,71.14288311172277 165.06642443779856,87.90480041271076 169.96844951063395,94.95239178137854 178.3719210634008,91.71431168238632 180.64786127675325,73.04765199869871 176.44612549897283,67.90477273403667 171.8942450741306,67.52381830126978 167.34236465021968,71.71431392780505 165.59164141025394,90.38098338618875 168.74294324219227,94.38096618070267 173.64496831502765,94.95239178137854 180.64786127675325,88.47622746601701 176.27105317544192,65.99999999976717 166.29193070624024,71.33336006477475 164.36613514181226,88.85717876441777 170.3185941586271,96.85714285704307 179.42235500738025,92.66668860986829 181.69829521980137,74.57146608224139 179.42235500738025,69.61906697647646 174.34525761101395,67.14286381169222 169.7933771861717,68.09524992899969 165.4165690857917,73.04765199869871 164.19106281828135,90.38098338618875 170.3185941586271,96.47619275562465 175.92090852744877,95.90476749720983 179.42235500738025,92.28573788143694 181.52322289627045,73.42860560538247 174.6954022590071,66.95238654478453 165.76671373378485,71.52383700362407 164.36613514181226,89.42860560491681 167.69250929821283,94.38096618070267 172.5945343710482,95.71429238235578 180.29771662782878,88.85717876441777 181.34815057273954,72.09526773332618 179.24728268384933,68.85715856659226 172.24438972305506,67.14286381169222 165.4165690857917,72.47622148203664 164.19106281828135,90.38098338618875 170.14352183509618,96.85714285704307 179.07221036031842,92.28573788143694 181.69829521980137,73.42860560538247 179.07221036031842,68.66668142843992 173.9951129630208,66.95238654478453 165.4165690857917,72.47622148203664 164.01599049381912,89.61908118939027 169.7933771861717,96.47619275562465 179.42235500738025,91.33336081239395 181.52322289627045,72.47622148203664 175.04554690700024,66.76190926437266 165.76671373378485,71.52383700362407 164.36613514181226,89.61908118939027 170.493666482158,96.6666678134352 179.24728268384933,91.52383625437506 180.82293360028416,73.04765199869871 174.52032993547618,67.33334106323309 165.59164141025394,72.47622148203664 164.36613514181226,90.00003231689334 166.99222000222653,94.95239178137854 172.06931739859283,96.28571768361144 178.8971380358562,89.61908118939027 180.29771662782878,72.85717517440207 173.64496831502765,67.33334106323309 166.29193070624024,73.04765199869871 165.24149676132947,90.57145890011452 171.8942450741306,95.3333421102725 178.72206571139395,90.38098338618875 180.12264430429786,72.85717517440207 173.9951129630208,67.71429552487098 166.116858381778,72.85717517440207 163.66584584582597,89.61908118939027" stroke="#4dd2ff" stroke-linecap="round" stroke-linejoin="round" stroke-width="0.5"><title>2024-04-28 5.8km</title><desc>1714295019000</desc></polyline><polyline fill="none" points="17.88188606593758,113.51024563214742 20.004191937856376,127.57436137506738 24.634677476249635,130.7230343471747 30.61572129558772,129.88338856725022 34.86033303849399,125.05542045412585 35.825017525814474,104.27407157351263 27.335794039070606,100.70554163586348 20.775939527899027,106.58311793836765 19.232444348745048,125.26533228391781 22.319434707053006,129.88338856725022 27.914604731835425,130.93294575321488 34.86033303849399,125.05542045412585 36.789702013134956,107.84259697282687 36.40382821857929,104.27407157351263 30.61572129558772,100.49562796903774 21.354750219732523,104.90381167945452 19.618318143300712,124.42568487091921 21.93356091249734,129.04374253517017 26.75698334723711,130.7230343471747 34.281522346660495,126.31489119702019 35.63208062853664,104.90381167945452 27.335794039070606,100.28571428591385 22.512371604330838,102.80467744288035 20.583002630621195,107.63268383988179 20.775939527899027,127.9941846425645 28.10754163004458,131.14285714295693 32.73802716657519,128.6239194252994 36.21089132037014,107.63268383988179 31.5804057829082,100.91545528685674 26.371109552681446,100.70554163586348 21.74062401521951,104.48398495768197 19.42538124602288,123.37612525001168 25.599361963570118,130.93294575321488 34.281522346660495,126.10497944592498 36.21089132037014,105.95337820914574 30.0369106028229,100.49562796903774 21.547687117941678,104.90381167945452 19.618318143300712,123.58603720576502 25.21348816808313,130.7230343471747 34.47445924393833,125.68515589646995 36.21089132037014,106.37320471089333 32.73802716657519,100.91545528685674 23.091182297095656,102.17493686568923 19.232444348745048,123.79594914591871 25.406425066292286,130.7230343471747 34.08858544938266,125.89506767923012 36.21089132037014,106.58311793836765 31.5804057829082,100.70554163586348 26.564046449959278,100.28571428591385 21.354750219732523,104.69389832625166 19.618318143300712,123.58603720576502 24.827614373527467,130.30321148829535 33.31683785934001,127.15453804563731 36.01795442216098,107.21285752626136 30.61572129558772,100.91545528685674 24.827614373527467,101.54519614693709 19.618318143300712,106.58311793836765 17.496012272313237,123.79594914591871" stroke="#4dd2ff" stroke-linecap="round" stroke-linejoin="round" stroke-width="0.5"><title>2024-04-26 3.3km</title><desc>1714123626000</desc></polyline><polyline fill="none" points="54.57203843444586,116.90114364819601 57.66273807734251,127.38463464332744 61.29885530471802,130.3516528501641 66.2076135603711,129.95605061529204 70.02553664892912,125.60442212084308 72.02540112379938,111.56048131128773 71.47998353932053,106.61541397310793 66.93483700603247,102.0659438543953 57.29912635311484,106.02200527116656 55.48106774035841,124.02200998389162 60.93524358142167,129.56044832081534 69.84373078681529,125.80222357157618 71.47998353932053,107.01101970090531 64.9349725311622,101.27473086072132 57.117320492863655,105.82420234126039 55.48106774035841,124.21981155336834 60.20802013576031,129.36264715134166 69.29831320326775,126.00002500740811 71.29817767813802,106.61541397310793 64.38955494761467,101.47253413149156 56.75370877049863,106.41761108743958 55.844679462723434,124.81321617146023 59.29899082891643,129.36264715134166 65.11677839141339,129.75824947515503 69.6619249265641,126.00002500740811 71.47998353932053,107.20882254210301 65.48039011470973,101.07692757551558 57.29912635311484,105.2307934614364 55.66287360154092,123.6264068018645 62.02607874851674,129.75824947515503 70.20734251011163,124.21981155336834 71.29817767813802,106.41761108743958 64.75316666997969,100.87912427494302 55.844679462723434,105.62639939622022 55.48106774035841,109.38465282181278 55.66287360154092,126.59342922549695 59.844408413395286,130.5494539460633 65.66219597589225,130.1538517405279 71.29817767813802,124.21981155336834 71.66178940143436,104.8351874675136 63.29871977865696,100.28571428591385 58.935379105620086,101.27473086072132 55.844679462723434,106.41761108743958 54.57203843444586,125.20881917513907 58.935379105620086,130.1538517405279 63.844137363135815,131.14285714295693 70.934565955773,125.40662065590732 72.57081870827824,107.01101970090531 67.29844872839749,100.4835176304914 60.75343772023916,100.28571428591385 56.75370877049863,103.25276290089823 54.75384429562837,125.80222357157618" stroke="#4dd2ff" stroke-linecap="round" stroke-linejoin="round" stroke-width="0.5"><title>2024-04-25 3.0km</title><desc>1714037269000</desc></polyline><polyline fill="none" points="91.41431448701769,122.32656523841433 98.16710084490478,130.30321148852818 106.84925473295152,127.57436137553304 109.35743252374232,107.63268384034745 104.72695044986904,101.7551097359974 97.78122733905911,101.96502330899239 95.08011279627681,104.90381167992018 92.957808512263,124.42568487115204 97.78122733905911,130.5131229260005 107.23512823972851,127.36444971826859 109.55036927573383,108.26242319261655 106.84925473295152,102.80467744311318 97.78122733905911,101.7551097359974 90.06375721655786,110.99129208596423 94.50130253750831,128.41400784649886 100.67527863569558,131.14285714295693 105.30576070863754,129.46356558264233 108.58568551111966,104.90381167992018 99.13178461138159,101.125368922716 90.44963072240353,108.05251009063795 93.53661877196282,127.36444971826859 97.58829058613628,130.72303434740752 104.5340136969462,129.67347708228044 108.58568551111966,124.63559674751014 109.55036927573383,107.42277069110423 105.30576070863754,101.33528254320845 98.93884785845876,101.125368922716 94.69423928949982,104.90381167992018 92.57193500548601,123.16621327959001 97.58829058613628,130.5131229260005 107.42806499265134,126.94462635694072 109.55036927573383,107.0029443462845 102.79758291970938,100.91545528708957 94.11542903073132,105.95337820937857 92.18606150057167,124.00586106954142 97.58829058613628,130.72303434740752 106.27044447418302,129.04374253517017 109.74330602958798,107.63268384034745 103.9552034381777,100.70554163609631 95.27304954919964,103.8542447576765 92.57193500548601,123.37612525024451 97.58829058613628,130.30321148852818 106.65631798096001,127.99418464279734 109.93624278344214,109.10207544243895 108.39274875819683,103.01459093717858 101.06115214154124,100.28571428591385 95.27304954919964,104.27407157374546 92.957808512263,124.8455086085014 98.7459111046046,130.72303434740752 108.00687525141984,126.94462635694072 109.55036927573383,106.58311793836765 102.79758291970938,100.70554163609631 94.30836578365415,105.11372501705773 92.57193500548601,125.89506767969579 100.28940512891859,130.72303434740752 108.199812005274,125.89506767969579 108.97155901789665,104.90381167992018 101.63996240124106,100.70554163609631 94.30836578365415,105.74346493463963 92.957808512263,125.4752440978773 99.3247213633731,130.5131229260005 108.00687525141984,125.89506767969579 109.16449577081949,105.74346493463963 100.86821538768709,100.70554163609631 94.69423928949982,105.11372501705773 92.957808512263,125.4752440978773 101.44702564738691,131.14285714295693 108.199812005274,124.63559674751014 109.35743252374232,105.74346493463963 100.67527863569558,100.91545528708957 94.30836578365415,106.79303115000948 93.15074526518583,125.4752440978773 101.06115214154124,130.5131229260005 108.199812005274,125.05542045435868 109.55036927573383,106.58311793836765 106.07750772219151,101.7551097359974 100.48234188277274,100.91545528708957 94.30836578365415,106.58311793836765 94.30836578365415,126.7347146528773" stroke="#4dd2ff" stroke-linecap="round" stroke-linejoin="round" stroke-width="0.5"><title>2024-04-22 4.9km</title><desc>1713776322000</desc></polyline><polyline fill="none" points="127.93756879493594,109.80956370732747 129.3381465487182,125.23812417150475 137.56654085498303,129.619056396652 142.64363521244377,124.47622214513831 142.99377965088934,105.80955128953792 133.89002424944192,101.23810083093122 128.6378576727584,107.90479667298496 128.6378576727584,126.76192753924988 133.01466315425932,130.3809568840079 138.7920463886112,130.57143196999095 143.86914074700326,124.09527104650624 143.69406852778047,104.47621242026798 134.76538534648716,101.42857809737325 128.81292989104986,107.33336628531106 128.81292989104986,126.76192753924988 131.7891576187685,129.8095315399114 139.1421908279881,130.3809568840079 143.69406852778047,125.23812417150475 144.3943574046716,105.04764344962314 136.6911797579378,100.85714625543915 129.51321876887232,105.80955128953792 127.5874243574217,124.09527104650624 130.38857986498624,129.23810606752522 135.99089088104665,130.761907042237 143.518996309489,125.4285996418912 144.7445018440485,106.38098201947287 136.34103531949222,101.42857809737325 129.16307433042675,106.38098201947287 128.11264101509005,125.04764868575148 131.26394096110016,129.42858123942278 136.6911797579378,130.761907042237 143.69406852778047,125.04764868575148 144.3943574046716,105.23812043108046 137.04132419638336,100.85714625543915 129.16307433042675,106.76193576864898 128.46278545353562,126.38097678287886 131.9642298379913,130.00000666850246 138.09175751265138,130.761907042237 144.04421296715736,124.66669767303392 144.3943574046716,105.42859739833511 136.516107538715,101.23810083093122 131.26394096110016,103.14287285297178 128.98800211120397,107.14288946054876 127.76249657571316,124.28574660257436 130.56365208420902,129.04763088189065 135.64074644260108,131.14285714295693 143.69406852778047,125.23812417150475 144.91957406327128,105.80955128953792 137.04132419638336,101.23810083093122 129.16307433042675,106.57145890104584 127.93756879493594,125.23812417150475 135.81581866182387,131.14285714295693 143.16885187011212,126.76192753924988 145.44479072093964,110.00004033301957 144.04421296715736,104.47621242026798 140.36769636254758,102.00000981078483 130.38857986498624,103.90478126262315 127.41235213726759,122.76194175286219 130.56365208420902,128.85715568158776 136.6911797579378,130.761907042237 141.76827411632985,128.09525473811664 145.44479072093964,110.00004033301957 141.41812967788428,102.00000981078483 131.7891576187685,102.38096421537921 128.46278545353562,107.90479667298496 128.46278545353562,126.9524028962478 135.4656742233783,131.14285714295693 140.89291302021593,129.23810606752522 144.04421296715736,124.28574660257436 145.09464628156275,107.52384309563786 137.21639641560614,100.28571428591385 129.3381465487182,106.00002821418457 127.76249657571316,125.04764868575148 135.99089088104665,131.14285714295693 143.69406852778047,126.00002596899867 145.09464628156275,107.14288946054876 137.56654085498303,101.23810083093122 128.98800211120397,105.80955128953792 127.41235213726759,123.14289305103011" stroke="#4dd2ff" stroke-linecap="round" stroke-linejoin="round" stroke-width="0.5"><title>2024-04-21 5.0km</title><desc>1713688153000</desc></polyline><polyline fill="none" points="173.4146267559845,106.27525775396498 174.0417961422354,110.7484380142414 175.92330430145375,111.35496941080783 177.66544148535468,110.36935570684727 178.71072379592806,103.09094791195821 177.73512697289698,101.19552063685842 175.57487686467357,100.74061756324954 174.0417961422354,101.87787486438174 173.13588480674662,109.00465822702972 175.22644942742772,111.27915300620953 178.08355440967716,109.76282372046262 178.71072379592806,102.71186274057254 176.6201591747813,100.66480036464054 173.83273968007416,102.25696034758585 173.2055702940561,109.23210793471662 175.57487686467357,111.35496941080783 178.08355440967716,109.68700719665503 178.71072379592806,102.71186274057254 176.132360763615,100.66480036464054 173.83273968007416,102.40859450137941 173.2055702940561,109.30792449228466 175.57487686467357,111.35496941080783 178.15323989698663,109.5353741318686 178.71072379592806,102.63604568934534 176.3414172255434,100.66480036464054 173.83273968007416,102.3327774272766 173.27525578136556,109.45955759112258 175.57487686467357,111.35496941080783 178.15323989698663,109.5353741318686 178.71072379592806,102.71186274057254 175.92330430145375,100.66480036464054 173.76305419299752,102.56022863223916 173.27525578136556,109.61119066708488 175.57487686467357,111.35496941080783 178.08355440967716,109.68700719665503 178.64103830838576,102.63604568934534 176.0626752760727,100.66480036464054 173.76305419299752,102.40859450137941 173.2055702940561,109.38374104443938 175.7142478392925,111.35496941080783 178.15323989698663,109.38374104443938 178.64103830838576,102.63604568934534 175.85361881391145,100.66480036464054 173.76305419299752,102.48441156960325 173.4146267559845,109.91445675096475 175.3658204022795,111.35496941080783 177.59575599781238,110.5209886468947 178.64103830838576,104.00075174483936 177.17764307395555,100.89225194393657 173.9721106553916,102.02950907457853 173.13588480674662,108.92884164629504 174.59928004140966,111.05170375795569 176.41110271262005,111.27915300620953 177.87449794751592,110.06608975905692 178.71072379592806,103.01513088907814 176.9685866117943,100.74061756324954 174.18116711708717,101.65042350621661 173.5539977310691,110.14190625445917 176.41110271262005,111.27915300620953 178.2229253842961,108.92884164629504 178.64103830838576,102.48441156960325 175.7142478392925,100.74061756324954 173.69336870568804,102.63604568934534 173.4146267559845,109.91445675096475 175.7142478392925,111.35496941080783 178.08355440967716,109.68700719665503 178.71072379592806,102.71186274057254 176.2717317380011,100.66480036464054 173.76305419299752,102.48441156960325 173.4146267559845,109.91445675096475 176.20204625092447,111.27915300620953 178.2229253842961,108.92884164629504 178.36229635914788,101.95369197236141 176.3414172255434,100.66480036464054 174.1114816297777,101.72624063119292 173.13588480674662,108.92884164629504 174.32053809193894,110.97588733048178 171.2543766477611,114.00854000356048 171.3240621353034,118.10260671831202 166.0976505826693,118.55750199919567 164.9826827852521,119.69473930809181 163.79802950005978,127.27628875867231 160.94092451781034,130.00563267845428 163.10117462626658,131.1428571428405 160.7318680556491,129.85400265362114 163.86771498736925,126.44232109497534 164.84331181040034,119.46729194832733 171.18469116068445,117.72352716169553 172.50871542049572,112.26476582523901 180.66191744199023,113.25037768605398 184.98241765843704,109.23210793471662 181.14971585362218,111.96150044462411 178.43198184622452,111.80986772011966 178.64103830838576,102.18114326230716 177.80481245997362,100.74061756324954 175.78393332660198,100.28571428568102 173.4843122435268,102.40859450137941 172.92682834458537,109.91445675096475 175.85361881391145,111.50660220324062 178.01386892213486,109.23210793471662 178.50166733376682,102.10532617126592 177.59575599781238,100.58898316026898 175.22644942742772,100.51316595001845 173.34494126890786,102.7876797861536 172.92682834458537,110.36935570684727 175.78393332660198,111.43078580999281 177.80481245997362,109.15629137092037 178.43198184622452,102.02950907457853 177.45638502319343,100.66480036464054 175.29613491497003,100.51316595001845 172.99651383189484,103.6974838913302 172.57840090803802,109.30792449228466 173.4843122435268,111.05170375795569 175.7142478392925,111.50660220324062 177.66544148535468,109.91445675096475 178.50166733376682,102.9393138604355 176.6898446623236,100.36153151286999 173.69336870568804,101.72624063119292 172.57840090803802,109.38374104443938 174.66896552871913,111.35496941080783 177.80481245997362,109.30792449228466 178.5713528210763,102.40859450137941 177.52607051073574,100.66480036464054 176.132360763615,100.36153151286999 172.85714285704307,103.24258194083814 172.43902993318625,109.76282372046262 175.50519137713127,111.50660220324062 177.87449794751592,109.23210793471662 178.2926108718384,102.02950907457853 175.99298978876323,100.36153151286999 173.13588480674662,102.56022863223916 172.57840090803802,109.5353741318686 175.22644942742772,111.5824185910169 177.87449794751592,109.15629137092037 178.2926108718384,101.95369197236141 175.92330430145375,100.36153151286999 173.27525578136556,102.10532617126592 172.57840090803802,109.30792449228466 175.22644942742772,111.43078580999281 177.73512697289698,109.68700719665503 178.36229635914788,102.10532617126592 175.92330430145375,100.36153151286999 172.99651383189484,102.63604568934534 172.71777188265696,109.38374104443938 175.29613491497003,111.43078580999281 177.80481245997362,109.30792449228466 178.50166733376682,102.10532617126592 176.2717317380011,100.36153151286999 173.2055702940561,102.10532617126592 172.29965895833448,109.15629137092037 175.08707845280878,111.43078580999281 177.80481245997362,109.76282372046262 178.2926108718384,102.10532617126592 175.7142478392925,100.36153151286999 173.06619931920432,102.56022863223916 172.50871542049572,109.68700719665503 175.22644942742772,111.43078580999281 177.87449794751592,109.30792449228466 178.36229635914788,102.3327774272766 175.99298978876323,100.43734873423818 173.13588480674662,102.02950907457853 172.36934444587678,108.92884164629504 175.08707845280878,111.27915300620953 177.87449794751592,109.23210793471662 178.43198184622452,102.18114326230716 175.85361881391145,100.36153151286999 173.2055702940561,102.10532617126592 172.43902993318625,109.15629137092037 175.15676394058391,111.35496941080783 177.9441834348254,109.45955759112258 178.50166733376682,102.56022863223916 176.20204625092447,100.43734873423818 173.27525578136556,102.10532617126592 172.43902993318625,109.15629137092037 174.94770747842267,111.50660220324062 177.80481245997362,109.38374104443938 178.64103830838576,102.40859450137941 177.73512697289698,100.81643475638703 175.99298978876323,100.43734873423818 173.13588480674662,102.02950907457853 172.43902993318625,109.23210793471662 174.94770747842267,111.35496941080783 177.9441834348254,109.30792449228466 178.2926108718384,102.18114326230716 177.59575599781238,100.89225194393657 175.6445623517502,100.43734873423818 172.92682834458537,102.18114326230716 172.57840090803802,109.38374104443938 175.43550588958897,111.35496941080783 177.73512697289698,109.76282372046262 178.2926108718384,101.87787486438174 175.78393332660198,100.36153151286999 173.27525578136556,100.96806912560714 172.43902993318625,102.25696034758585" stroke="#4dd2ff" stroke-linecap="round" stroke-linejoin="round" stroke-width="0.5"><title>2024-04-18 12.3km</title><desc>1713432540000</desc></polyline><polyline fill="none" points="35.36775123421103,157.81717502791435 34.233283082954586,138.68573429179378 26.481084054335952,134.9828594205901 20.619665277190506,140.53716985788196 19.485197125934064,160.4914518399164 25.346615904010832,165.01714513427578 30.64080060645938,163.98857913073152 33.85512703284621,159.66859771264717 34.61143913306296,138.68573429179378 30.073566530831158,134.9828594205901 24.779381829313934,135.1885748221539 20.241509227082133,140.33145485608838 19.485197125934064,159.87431126786396 22.888601577840745,164.6057187791448 27.993708255700767,165.42857142863795 34.04420505743474,158.8457433397416 35.17867320869118,140.53716985788196 27.426474180072546,134.57142857159488 20.241509227082133,140.74288484361023 19.29611910134554,159.66859771264717 24.59030380472541,165.01714513427578 33.28789295721799,160.69716533250175 35.17867320869118,141.77145954221487 33.28789295721799,137.24572799005546 27.426474180072546,134.57142857159488 20.43058725167066,140.12573983939365 19.29611910134554,159.87431126786396 24.779381829313934,165.2228582892567 30.64080060645938,163.7828658837825 33.47697098273784,159.66859771264717 34.61143913306296,140.12573983939365 26.29200603067875,134.57142857159488 20.619665277190506,140.53716985788196 19.485197125934064,160.0800248067826 27.23739615548402,165.42857142863795 33.66604900825769,159.25717055727728 34.233283082954586,139.71430975967087 30.64080060645938,136.0114362735767 23.83399170357734,135.60000557848252 20.619665277190506,140.74288484361023 19.86335317697376,160.69716533250175 28.560942330397666,164.6057187791448 33.66604900825769,156.99432010063902 34.04420505743474,139.0971645254176 28.93909838050604,135.3942902078852 23.83399170357734,136.21715159830637 19.86335317697376,146.0914690757636 21.375977377407253,163.371439343784 27.61555220466107,164.81143196462654 32.531580857001245,161.10859227296896 34.61143913306296,141.5657446330879 32.3425028314814,137.24572799005546 27.23739615548402,135.60000557848252 20.619665277190506,137.86287364037707 18.917963051237166,141.97717443597503" stroke="#4dd2ff" stroke-linecap="round" stroke-linejoin="round" stroke-width="0.5"><title>2024-04-17 3.1km</title><desc>1713344929000</desc></polyline><polyline fill="none" points="56.92415176611394,141.51431791647337 55.15154461748898,156.557180685224 59.22854105848819,162.1500175362453 64.01458035875112,163.50001082057133 69.68692323192954,159.45002884720452 71.6367910951376,141.12860233173706 65.25540536269546,135.5357198761776 57.633194625377655,140.74288668995723 56.56963033601642,158.87145947501995 63.12827678397298,163.88572305766866 70.04144466202706,159.45002884720452 71.45953038148582,141.51431791647337 64.72362321801484,135.5357198761776 57.633194625377655,141.51431791647337 56.39236962143332,158.29288997221738 62.77375535480678,163.30715468036942 70.04144466202706,159.06431594630703 71.45953038148582,141.70717568672262 66.14170893561095,136.11429448635317 57.98771605454385,140.35717099066824 56.39236962143332,158.67860298790038 62.95101606938988,163.50001082057133 70.04144466202706,158.87145947501995 71.6367910951376,142.0928911846131 65.43266607727855,135.9214362972416 57.98771605454385,140.55002884729765 56.56963033601642,157.90717689786106 58.51949819922447,161.57144876965322 63.6600589286536,163.50001082057133 70.04144466202706,159.06431594630703 71.45953038148582,140.55002884729765 63.83731964416802,135.72857809439301 57.98771605454385,140.55002884729765 56.74689105153084,158.87145947501995 63.48279821500182,164.07857915456407 69.86418394744396,159.25717240362428 71.6367910951376,141.12860233173706 65.25540536269546,135.72857809439301 58.34223748464137,140.74288668995723 56.39236962143332,157.90717689786106 59.58306248765439,162.5357299754396 64.36910178884864,163.6928669461049 70.04144466202706,159.06431594630703 71.1050089513883,140.9357445181813 64.19184107333422,135.72857809439301 58.34223748464137,140.74288668995723 56.92415176611394,157.90717689786106 61.53293035086244,163.50001082057133 69.68692323192954,159.25717240362428 71.6367910951376,142.0928911846131 65.07814464811236,135.72857809439301 58.34223748464137,140.35717099066824 56.74689105153084,157.52146376646124 61.53293035086244,163.50001082057133 69.68692323192954,159.64288527565077 71.99131252616644,141.9000334427692 65.78718750644475,136.30715266079642 58.34223748464137,140.35717099066824 56.39236962143332,158.10003344202414 62.59649463929236,163.88572305766866 69.86418394744396,159.06431594630703 71.45953038148582,140.9357445181813 65.43266607727855,135.9214362972416 60.82388749253005,136.88572709774598 58.34223748464137,140.74288668995723 56.74689105153084,159.25717240362428 63.3055374994874,163.88572305766866 70.21870537661016,158.67860298790038 71.45953038148582,140.74288668995723 64.19184107333422,136.11429448635317 57.98771605454385,140.9357445181813 56.92415176611394,158.87145947501995 63.12827678397298,163.50001082057133 70.04144466202706,158.4857464870438 71.45953038148582,141.12860233173706 65.25540536269546,135.9214362972416 58.34223748464137,140.1643131193705 56.56963033601642,159.06431594630703 62.41923392564058,163.6928669461049 69.50966251734644,159.64288527565077 71.6367910951376,141.32146013132297 64.36910178884864,135.9214362972416 57.27867319621146,139.5857394183986 55.15154461748898,158.10003344202414 60.29210534784943,164.27143523679115 65.60992679186165,164.4642913050484 70.57322680670768,160.99287987290882 72.16857324074954,145.37147058406845 68.09157679975033,135.15000339783728 63.3055374994874,134.57142857159488 58.34223748464137,138.23573361127637 54.79702318832278,155.0143270054832 56.74689105153084,163.11429852549918 61.178408921696246,165.42857142863795 67.20527322497219,164.27143523679115 72.34583395533264,156.9428939614445" stroke="#4dd2ff" stroke-linecap="round" stroke-linejoin="round" stroke-width="0.5"><title>2024-04-15 5.9km</title><desc>1713172666000</desc></polyline><polyline fill="none" points="102.96892843116075,137.83959398471052 103.178499849746,144.07188028487144 104.71535692014731,145.5159411674249 106.74121396732517,145.3639348554425 108.55749959591776,143.23584409890464 108.90678529348224,136.31951835594373 105.76321401353925,134.57142857142026 103.38807126856409,137.07955645472975 103.1086427103728,143.6918639219366 104.36607122235,145.3639348554425 106.11249971133657,145.59194431477226 108.62735673552379,143.53985733707668 108.69721387512982,135.71148746774998 106.11249971133657,134.6474325377494 103.87707124534063,136.09150681545725 102.96892843116075,143.15984077512985 104.64549978077412,145.43993801414035 107.09049966512248,145.3639348554425 108.69721387512982,143.76786720595555 109.18621385190636,136.6995374765247 106.74121396732517,134.7234364981996 103.45792840817012,136.7755412834813 102.89907129155472,142.85582742339466 104.9947854783386,145.59194431477226 108.34792817709967,144.2998900343082 109.18621385190636,136.9275488803396 107.23021394433454,134.8754444021033 103.87707124534063,136.09150681545725 102.96892843116075,143.38785072928295 104.9249283389654,145.59194431477226 108.13835675851442,144.60390295402613 109.25607099151239,137.38357153494144 107.85892820055597,135.02745228342246 106.1823568509426,134.7234364981996 103.94692838494666,135.9394990936271 103.03878557076678,143.00783411064185 104.78521405975334,145.5159411674249 108.13835675851442,144.60390295402613 108.69721387512982,135.71148746774998 105.48378545534797,134.8754444021033 103.52778554754332,136.9275488803396 103.178499849746,143.76786720595555 106.1823568509426,145.59194431477226 108.62735673552379,143.6158606322715 109.04649957315996,136.7755412834813 106.53164254850708,134.79944045294542 103.52778554754332,136.7755412834813 103.03878557076678,143.76786720595555 105.55364259472117,145.59194431477226 108.41778531693853,143.6918639219366 109.04649957315996,136.85154508473352 106.32207113015465,134.6474325377494 103.59764268714935,136.62353366374737 103.03878557076678,143.84387048421195 105.34407117613591,145.59194431477226 107.36992822331376,145.28793169086566 108.62735673552379,143.6918639219366 109.11635671253316,136.62353366374737 106.46178540936671,134.7234364981996 103.59764268714935,136.6995374765247 103.178499849746,143.53985733707668 105.48378545534797,145.59194431477226 108.34792817709967,144.22388679004507 109.18621385190636,136.6995374765247 106.46178540936671,134.7234364981996 103.6674998269882,136.39552219142206 103.1086427103728,143.3118474171497 105.20435689715669,145.59194431477226 108.34792817709967,144.14788354031043 109.11635671253316,137.00355267047416 106.88092824677005,134.79944045294542 103.80721410596743,136.16751066799043 103.03878557076678,143.6918639219366 105.34407117613591,145.6679474566481 108.41778531693853,144.22388679004507 109.11635671253316,136.9275488803396 106.88092824677005,134.79944045294542 102.96892843116075,136.31951835594373 102.54978559399024,144.07188028487144 100.8732142446097,146.9599999974016 101.78135705855675,152.12819373002276 95.56407163781114,153.4962406118284 93.74778600921854,160.86846154456725 90.74392900825478,164.13654237246374 94.44635740481317,165.42857142857974" stroke="#4dd2ff" stroke-linecap="round" stroke-linejoin="round" stroke-width="0.5"><title>2024-04-14 5.4km</title><desc>1713087921000</desc></polyline><polyline fill="none" points="127.26406743004918,155.35280698980205 131.70161673426628,164.16910285199992 139.997904564254,164.58892577374354 144.24251694232225,157.66183953615837 144.4354538684711,137.93004561169073 136.13916603848338,135.2011695727706 130.5439951773733,140.6589189961087 129.00049976632,159.551046569366 132.2804275136441,163.74927986809053 137.48972452245653,164.79883721098304 143.85664308909327,159.1312228939496 145.2072015730664,139.81926592974924 136.7179768178612,134.78134225378744 130.35105825029314,141.07874543545768 129.00049976632,159.76095838355832 135.94622911233455,164.58892577374354 143.66370616294444,160.18078196421266 145.78601235244423,141.91839812509716 139.0332199325785,134.78134225378744 131.12280595581979,138.97961261169985 129.38637361954898,159.34113473934121 136.13916603848338,165.00874863239005 143.4707692367956,160.81051721796393 145.40013850014657,141.28865863126703 138.06853530090302,134.99125592107885 130.92986902873963,139.81926592974924 128.80756284017116,158.92131103295833 134.9815444815904,165.42857142863795 143.66370616294444,160.390693731606 145.78601235244423,142.1283112585079 139.80496763810515,135.2011695727706 131.12280595581979,139.609352623811 129.19343669246882,158.50148726301268 135.36741833388805,164.58892577374354 143.4707692367956,161.0204289383255 145.59307542536408,141.28865863126703 138.26147222798318,134.78134225378744 131.12280595581979,139.39943930250593 129.19343669246882,158.71139915543608 133.82392292376608,164.58892577374354 140.38377841655165,164.16910285199992 143.85664308909327,160.6006054827012 145.40013850014657,140.86883222381584 138.26147222798318,134.78134225378744 131.12280595581979,139.1895259649027 129.38637361954898,159.76095838355832 135.94622911233455,165.42857142863795 144.24251694232225,159.76095838355832 145.40013850014657,139.81926592974924 137.8755983747542,134.78134225378744 130.5439951773733,140.23909249459393 128.80756284017116,159.34113473934121 136.13916603848338,165.00874863239005 143.85664308909327,159.551046569366 145.59307542536408,140.86883222381584 137.8755983747542,134.57142857136205 130.92986902873963,139.1895259649027 129.19343669246882,157.8717514909804 133.82392292376608,164.58892577374354 143.85664308909327,160.390693731606 145.40013850014657,139.81926592974924 139.22615685872734,134.78134225378744 130.92986902873963,139.1895259649027 129.38637361954898,159.34113473934121 134.5956706283614,164.79883721098304 143.4707692367956,160.81051721796393 145.59307542536408,142.1283112585079 139.22615685872734,134.57142857136205 130.92986902873963,138.97961261169985 129.19343669246882,158.71139915543608 135.36741833388805,164.79883721098304 143.4707692367956,160.81051721796393 145.78601235244423,140.6589189961087 140.96258919592947,135.4110832081642 134.20979677606374,135.4110832081642 128.22875206172466,148.21578528895043 128.03581513557583,158.71139915543608 127.07113050390035,154.51315831998363" stroke="#4dd2ff" stroke-linecap="round" stroke-linejoin="round" stroke-width="0.5"><title>2024-04-13 4.9km</title><desc>1713000859000</desc></polyline><polyline fill="none" points="163.91507066693157,147.54326526261866 165.36025405023247,161.69428679114208 169.69580420479178,164.4458654592745 176.37977735698223,164.0527829688508 179.27014412544668,156.7807462872006 179.81208789441735,139.2884675061796 171.86357928067446,135.75068909930997 165.90219782013446,142.04006964014843 164.8183102812618,158.9427052407991 168.25062082055956,162.8735351448413 173.48941058851779,163.46315912343562 178.9088482800871,158.74616359150968 179.99273581802845,139.2884675061796 172.04422720335424,135.75068909930997 165.90219782013446,143.02278398978524 165.1796061275527,158.9427052407991 172.22487512696534,163.85624170210212 178.728200356476,159.33578849607147 180.53467958699912,141.25389789580368 174.03135435748845,135.5541457142681 166.8054374344647,140.07463983795606 165.36025405023247,158.54962192685343 171.68293135799468,163.65970041952096 178.728200356476,158.9427052407991 180.53467958699912,141.05735492310487 174.21200228016824,135.35760231525637 166.8054374344647,140.4677259165328 165.36025405023247,158.9427052407991 172.04422720335424,163.85624170210212 178.728200356476,159.53233010158874 180.53467958699912,140.4677259165328 173.1281147422269,135.35760231525637 166.62478951271623,140.8608119355049 165.72154989745468,160.12195482989773 174.39265020377934,163.65970041952096 179.27014412544668,157.7634551229421 179.63143997173756,136.9299490971025 170.41839589644223,134.9645154727623 165.36025405023247,141.64698379696347 164.27636651322246,160.12195482989773 168.7925645885989,164.64240668271668 173.48941058851779,165.03548908489756 180.354031663388,159.13924687588587 180.7153275096789,137.9126653582789 172.22487512696534,134.57142857159488 165.1796061275527,140.4677259165328 163.91507066693157,160.12195482989773 167.34738120436668,164.8389478912577 173.308762665838,165.23203026433475 180.53467958699912,158.3530802479945 181.2572712795809,139.0919243863318 171.3216355117038,135.1610589013435 164.63766235951334,141.45044085383415 163.91507066693157,159.9254132679198 170.9603396654129,165.42857142863795 179.63143997173756,160.51503790798597 182.16051089391112,141.84352672612295 177.82496074121445,135.1610589013435 168.7925645885989,135.9472324687522 164.63766235951334,142.4331554241944 165.36025405023247,160.31849637627602 173.85070643480867,164.24932422162965 179.0894962027669,159.13924687588587 180.7153275096789,141.45044085383415 177.4636648958549,136.5368624900002 172.766818895936,135.1610589013435 166.08284574374557,140.8608119355049 165.54090197384357,158.74616359150968 171.86357928067446,163.65970041952096 179.0894962027669,159.13924687588587 180.53467958699912,141.05735492310487 174.03135435748845,135.35760231525637 166.44414158910513,140.8608119355049 165.54090197384357,158.9427052407991 170.9603396654129,164.0527829688508 176.74107320327312,162.8735351448413 179.45079204905778,158.9427052407991 180.89597543329,141.05735492310487 174.39265020377934,135.35760231525637 165.36025405023247,141.25389789580368 163.55377482064068,157.17382986540906" stroke="#4dd2ff" stroke-linecap="round" stroke-linejoin="round" stroke-width="0.5"><title>2024-04-12 5.1km</title><desc>1712913892000</desc></polyline><polyline fill="none" points="12.000000000465661,176.2036247185315 11.714285714318976,180.55556634103414 13.542857143096626,182.60718805913348 16.4000000001397,181.30161118815886 17.142857142956927,175.5819169121096 16.628571428591385,174.27632900472963 15.028571428731084,173.53027785097947 12.685714285820723,174.8358669304289 12.057142857229337,180.6177367704222 13.542857143096626,182.42067720316118 16.457142857136205,181.17727042676415 17.08571428572759,175.5819169121096 15.314285714412108,173.59244880609913 12.800000000279397,174.71152520173928 12.114285714458674,180.55556634103414 14.00000000023283,182.545017778466 16.342857143143192,181.4881222951808 17.142857142956927,175.8306000904995 15.314285714412108,173.53027785097947 12.800000000279397,174.71152520173928 12.114285714458674,180.49339590687305 13.485714285867289,182.42067720316118 16.342857143143192,181.4881222951808 17.028571428963915,175.45757529500406 15.200000000186265,173.65461975650396 12.800000000279397,174.64935433032224 12.114285714458674,180.24471412383718 13.314285714412108,182.2963366091135 15.028571428731084,182.42067720316118 16.457142857136205,181.30161118815886 17.08571428572759,175.8927708733827 16.514285714598373,174.2141581007745 13.542857143096626,173.77896164328558 12.514285714598373,175.3332336593885 11.714285714318976,181.3637815618422 17.771428571548313,183.60191191750346 19.714285714318976,182.98020964546595 22.114285714458674,180.6177367704222 25.600000000093132,181.73680370632792 26.4000000001397,183.3532310645678 26.228571428684518,187.82947503373725 29.485714285634458,192.18135577999055 35.08571428596042,194.23294879990863 40.8571428572759,195.04115072044078 42.57142857159488,193.92210169817554 42.4000000001397,183.47757150029065 41.65714285708964,183.78842250839807 41.42857142863795,185.84003624587785" stroke="#4dd2ff" stroke-linecap="round" stroke-linejoin="round" stroke-width="0.5"><title>2024-04-11 3.0km</title><desc>1712828151000</desc></polyline><polyline fill="none" points="56.16078790649772,175.4267580898013 55.428872778080404,193.54288576659746 58.17355450708419,198.12166774296202 63.2969603985548,199.51520852046087 71.7139843646437,194.14011864480563 72.99483583774418,174.63044195598923 65.30972699914128,168.8571428572759 57.80759694240987,172.63965057814494 55.611851560883224,193.1447304401081 61.28419379796833,199.1170540873427 67.87142994441092,198.32074504182674 71.34802679996938,194.737351389369 73.17781461868435,176.02399503416382 67.13951481785625,169.45438127592206 61.467172579839826,169.8525401474908 57.6246181614697,173.83412558352575 55.06291521526873,192.9456527538132 62.56504527106881,199.71428571431898 71.34802679996938,195.5336615066044 73.72675096429884,178.81109900167212 72.99483583774418,173.03780897310935 69.51823898218572,170.05161956045777 62.56504527106881,169.05622234521434 58.356533288024366,171.2460957276635 53.41610617842525,178.81109900167212 55.611851560883224,193.3438081103377 59.271427197381854,198.7188995941542 66.22462090756744,199.31613131100312 71.1650480190292,195.13550647813827 72.81185705587268,177.41754738288 68.23738750908524,169.45438127592206 62.74802405294031,168.8571428572759 57.80759694240987,171.84333361010067 55.611851560883224,193.1447304401081 60.55227867048234,199.1170540873427 67.13951481785625,198.91797684831545 71.89696314558387,193.3438081103377 73.54377218335867,176.82031075120904 70.79909045435488,171.64425433054566 65.49270578101277,169.05622234521434 57.6246181614697,172.4405713584274 55.428872778080404,192.74657505308278 60.735257452353835,198.91797684831545 67.13951481785625,198.7188995941542 72.07994192745537,193.54288576659746 73.36079340055585,176.82031075120904 68.42036629002541,169.45438127592206 59.088448415510356,170.25069895898923 56.34376668743789,175.62583708623424 56.16078790649772,195.33458399982192 65.12674821726978,199.31613131100312 71.34802679996938,193.54288576659746 72.07994192745537,175.62583708623424 69.51823898218572,171.0470164041035 64.39483308978379,169.8525401474908 57.80759694240987,175.02860005246475 56.34376668743789,192.9456527538132 63.845896744169295,198.91797684831545 70.98206923622638,194.14011864480563 72.26292071025819,177.01938964310102 70.43313289061189,172.2414921238087 65.49270578101277,169.8525401474908 57.80759694240987,174.82952101156116 55.428872778080404,193.1447304401081 62.56504527106881,199.71428571431898 67.50547238159925,199.31613131100312 69.70121776405722,195.5336615066044 72.07994192745537,176.6212318444159 66.22462090756744,170.25069895898923 61.65015136171132,170.64885771111585 57.99057572428137,175.02860005246475 56.34376668743789,192.34841960738413 62.74802405294031,198.51982232555747 70.43313289061189,195.13550647813827 72.07994192745537,175.62583708623424 65.85866334475577,170.05161956045777 58.17355450708419,175.02860005246475 56.52674546930939,192.74657505308278 62.56504527106881,198.7188995941542 70.61611167341471,193.7419634081889 72.07994192745537,175.62583708623424 65.12674821726978,170.25069895898923 57.80759694240987,175.22767907870002 56.34376668743789,192.9456527538132 64.02887552697212,198.91797684831545 70.43313289061189,194.53827382274903 71.89696314558387,175.02860005246475 65.67568456288427,170.25069895898923 57.99057572428137,174.03320469870232 55.79483034275472,192.74657505308278 61.83313014358282,198.7188995941542 70.43313289061189,195.13550647813827 72.81185705587268,176.6212318444159 65.85866334475577,170.25069895898923 61.10121501609683,171.0470164041035 56.34376668743789,176.42215292272158 54.87993643246591,192.34841960738413" stroke="#4dd2ff" stroke-linecap="round" stroke-linejoin="round" stroke-width="0.5"><title>2024-04-09 5.6km</title><desc>1712653834000</desc></polyline><polyline fill="none" points="91.88390980195254,174.48520256881602 91.52715858351439,192.72779494547285 94.55954393278807,198.16173383616842 98.84055854380131,198.93800989119336 103.83507558889687,197.96766478568316 107.40258776489645,193.31000322825275 109.00796824414283,174.09706091159023 105.97558289486915,170.02157000638545 100.44593902304769,168.85714285704307 93.13253906182945,174.67927337531 91.88390980195254,193.50407262681983 99.91081219632179,199.32614783174358 107.40258776489645,193.31000322825275 108.651217026636,175.0674149459228 104.37020241562277,169.827498851344 100.62431463133544,169.43935649702325 93.13253906182945,175.0674149459228 91.17040736600757,192.33965601795353 94.55954393278807,197.77359572146088 99.73243658710271,199.32614783174358 107.58096337411553,193.115933815483 109.18634385243058,175.84369791136123 102.40807071886957,169.05121408496052 95.62979758530855,170.4097122733947 92.59741223603487,174.29113174742088 91.52715858351439,193.89221138041466 99.19730976037681,199.1320788685698 107.2242121566087,193.89221138041466 109.00796824414283,174.29113174742088 106.51070972159505,170.60378338489681 100.98106584884226,169.05121408496052 92.77578784525394,174.67927337531 91.52715858351439,194.28035007533617 99.19730976037681,199.71428571431898 107.04583654738963,194.28035007533617 109.00796824414283,173.90299006155692 100.80269023962319,169.2452852986753 93.13253906182945,173.70891919685528 90.99203175678849,193.50407262681983 97.05680245533586,199.71428571431898 101.87294389307499,199.1320788685698 106.6890853298828,194.28035007533617 108.82959263585508,174.29113174742088 106.51070972159505,170.60378338489681 100.44593902304769,169.05121408496052 92.59741223603487,174.87334416783415 91.34878297522664,194.28035007533617 94.38116832450032,198.35580287128687 99.19730976037681,199.52021678024903 107.04583654738963,194.47441940172575 109.18634385243058,174.87334416783415 106.86746093817055,170.7978544817306 100.80269023962319,169.2452852986753 92.77578784525394,173.70891919685528 90.81365614850074,192.33965601795353 96.70005123782903,199.1320788685698 102.22969510965049,199.1320788685698 106.6890853298828,195.25069656036794 109.36471946164966,178.5606864618603 105.79720728565007,169.827498851344 95.09467075858265,170.60378338489681 92.24066101852804,175.4555564573966 91.70553419273347,194.8625580095686 95.80817319452763,198.93800989119336 100.80269023962319,199.32614783174358 107.75933898240328,192.53372548962943 109.00796824414283,175.4555564573966 106.1539585031569,170.7978544817306 99.19730976037681,169.05121408496052 92.59741223603487,174.29113174742088 90.99203175678849,193.50407262681983 99.01893415208906,199.71428571431898 107.2242121566087,194.28035007533617 109.00796824414283,174.67927337531 107.04583654738963,171.1859966327902 100.98106584884226,168.85714285704307 95.62979758530855,170.7978544817306 92.24066101852804,175.84369791136123 92.4190366268158,193.31000322825275 99.37568536959589,198.16173383616842 106.1539585031569,193.69814201095141 107.40258776489645,174.87334416783415 101.51619267556816,170.02157000638545 92.06228540930897,176.42590998322703 90.63528053928167,191.17523888638243" stroke="#4dd2ff" stroke-linecap="round" stroke-linejoin="round" stroke-width="0.5"><title>2024-04-08 5.0km</title><desc>1712568268000</desc></polyline><polyline fill="none" points="127.64165630657226,180.21564411045983 129.55563781782985,194.79231268865988 134.25359243899584,197.44260704610497 139.99553697369993,195.9281534673646 143.82349999714643,191.00617307797074 143.30150504037738,171.50746437651105 135.29758235346526,168.8571428572759 128.8596445415169,175.67224972718395 128.5116479024291,194.6030058430042 132.8616058845073,198.01052690390497 140.34353361278772,197.0639937366359 143.47550335898995,191.57409438071772 143.64950167853385,171.69677295046858 133.90559579990804,169.61437786044553 128.5116479024291,177.94394793827087 128.33764958381653,194.03508521988988 133.38360084220767,197.8212202989962 139.99553697369993,197.0639937366359 143.82349999714643,191.57409438071772 143.47550335898995,171.31815578858368 134.25359243899584,169.61437786044553 129.03364286012948,175.1043248558417 127.81565462611616,193.08855056506582 135.47158067300916,198.5784466350451 143.30150504037738,192.70993660390377 144.51949327532202,174.91501653729938 141.56152184773237,170.18230396392755 136.8635672274977,169.23576038749889 131.99161428771913,170.560921295546 129.38163949921727,174.7257082038559 128.33764958381653,193.65647140005603 131.46961933001876,197.44260704610497 138.2555537810549,197.8212202989962 143.47550335898995,192.70993660390377 143.99749831669033,173.0219325700309 138.08155546244234,169.04645162913948 129.55563781782985,174.15778311993927 127.98965294566005,192.70993660390377 130.9476243723184,197.0639937366359 135.29758235346526,198.01052690390497 143.12750672083348,193.84577831742354 144.8674899134785,175.67224972718395 142.4315134435892,171.1288471869193 136.5155705884099,169.61437786044553 131.12162269186229,172.2646985866595 128.685646221973,176.9974072650075 128.33764958381653,195.54953993158415 131.12162269186229,198.5784466350451 137.2115638665855,198.7677531838417 143.12750672083348,192.52062960225157 144.8674899134785,174.53639985667542 137.03756554611027,169.4250691307243 129.55563781782985,174.3470914955251 127.46765798702836,193.46716446941718 133.55759916082025,199.52497923653573 143.12750672083348,192.89924359158613 144.6934915939346,174.91501653729938 141.38752352818847,169.99299527704716 136.8635672274977,169.23576038749889 129.20764117967337,174.7257082038559 128.16365126427263,193.46716446941718 136.16757395025343,198.19983349530958 143.12750672083348,192.14201555610634 144.51949327532202,173.5898579088971 137.03756554611027,169.61437786044553 129.20764117967337,175.1043248558417 127.98965294566005,192.70993660390377 131.46961933001876,197.0639937366359 136.68956890888512,198.19983349530958 143.30150504037738,192.14201555610634 144.51949327532202,173.5898579088971 141.38752352818847,170.18230396392755 134.7755873966962,169.61437786044553 128.5116479024291,177.56533171166666 127.98965294566005,195.36023314180784 130.9476243723184,198.7677531838417 138.08155546244234,198.38914007227868 143.47550335898995,191.57409438071772 143.64950167853385,172.07539005530998 135.81957731209695,168.8571428572759 129.03364286012948,175.1043248558417 127.98965294566005,192.89924359158613 133.03560420311987,197.8212202989962 138.08155546244234,197.63191367941909 143.64950167853385,191.384787294548 144.51949327532202,173.96847473015077 141.56152184773237,170.18230396392755 135.64557899255306,169.4250691307243 128.8596445415169,175.67224972718395 128.685646221973,194.22439210815355 133.55759916082025,198.5784466350451 139.99553697369993,197.63191367941909 144.17149663716555,186.65210552350618 142.4315134435892,172.2646985866595 132.5136092454195,170.93953857035376 127.81565462611616,181.54079926898703 128.5116479024291,196.68538036989048 132.5136092454195,199.33567274478264 139.12554537784308,198.01052690390497 143.64950167853385,191.1954801932443 145.0414882330224,176.24017447140068 143.30150504037738,171.50746437651105 137.2115638665855,169.61437786044553 131.99161428771913,171.1288471869193 127.81565462611616,181.35149143170565 128.5116479024291,196.68538036989048 132.33961092680693,199.14636623836122 139.29954369738698,197.8212202989962 143.64950167853385,191.1954801932443 143.47550335898995,172.07539005530998 134.4275907576084,169.4250691307243 128.685646221973,177.18671542801894 129.03364286012948,194.79231268865988 134.4275907576084,199.14636623836122 140.5175319314003,198.7677531838417 143.82349999714643,194.22439210815355 143.99749831669033,172.8326240950264 133.73159748129547,169.4250691307243 128.33764958381653,176.6187908963766 127.46765798702836,194.41369898268022 130.25163109600544,198.5784466350451 136.34157226979733,199.52497923653573 143.64950167853385,192.33132258593105 144.34549495577812,173.4005494765006 134.6015890771523,169.61437786044553 128.16365126427263,177.37602357706055 127.64165630657226,195.54953993158415 130.9476243723184,198.9570597182028 136.5155705884099,199.33567274478264 141.73552016634494,196.68538036989048 144.17149663716555,191.76340145338327 144.8674899134785,173.4005494765006 135.29758235346526,169.23576038749889 128.33764958381653,175.86155798938125 127.64165630657226,194.79231268865988 130.7736260537058,198.38914007227868 137.2115638665855,199.71428571431898 143.47550335898995,194.6030058430042 144.8674899134785,174.15778311993927 142.4315134435892,170.75022993981838 135.81957731209695,169.23576038749889 128.8596445415169,174.7257082038559 126.94566302932799,193.08855056506582 129.20764117967337,197.25330039812252 134.25359243899584,199.33567274478264 143.12750672083348,194.6030058430042 145.0414882330224,175.67224972718395 137.38556218519807,169.23576038749889 129.55563781782985,174.15778311993927 127.64165630657226,192.70993660390377 135.99357563070953,199.33567274478264 143.82349999714643,194.79231268865988 145.56348319072276,176.6187908963766 142.2575151240453,171.31815578858368 137.38556218519807,169.61437786044553 129.20764117967337,174.7257082038559 127.46765798702836,193.27785752434283 130.07763277553022,197.44260704610497 135.99357563070953,199.33567274478264 143.99749831669033,193.65647140005603 145.21548655163497,176.6187908963766 142.95350840128958,172.07539005530998 137.03756554611027,169.23576038749889 129.03364286012948,174.91501653729938 127.81565462611616,193.84577831742354 130.5996277341619,197.63191367941909 135.99357563070953,199.14636623836122 143.30150504037738,194.41369898268022 144.8674899134785,175.86155798938125 136.8635672274977,169.61437786044553 129.03364286012948,175.67224972718395 127.64165630657226,194.03508521988988 136.34157226979733,198.7677531838417 143.64950167853385,193.27785752434283 145.21548655163497,175.29363316041417 136.34157226979733,169.4250691307243 128.8596445415169,175.67224972718395 127.81565462611616,193.27785752434283 136.16757395025343,198.7677531838417 143.47550335898995,193.65647140005603 144.6934915939346,175.1043248558417 141.039526890032,170.37161263707094 135.99357563070953,169.61437786044553 129.20764117967337,176.05086623714305 127.46765798702836,193.46716446941718 135.12358403485268,199.33567274478264 143.47550335898995,195.17092633852735 145.91147982887924,176.8080990880262 142.779510082677,170.93953857035376 132.8616058845073,170.37161263707094 128.8596445415169,176.24017447140068 127.81565462611616,191.00617307797074" stroke="#4dd2ff" stroke-linecap="round" stroke-linejoin="round" stroke-width="0.5"><title>2024-04-06 11.8km</title><desc>1712394949000</desc></polyline><polyline fill="none" points="165.49046324845403,195.9072548453696 172.30464188661426,199.71428571431898 178.7504865443334,194.30429286067374 180.96049042697996,176.87201933399774 178.7504865443334,171.06123627908528 171.93630790617317,169.45825942489319 167.51630014088005,172.46384023991413 164.9379622777924,190.49725430225953 169.7263040235266,198.11132600833662 178.7504865443334,194.90540371718816 181.1446574172005,175.87016108608805 177.64548460301012,170.86086422461085 171.56797392573208,170.25974797201343 167.3321331506595,173.46569976164028 165.12212926801294,192.10021856543608 169.91047101374716,198.31169602368027 178.19798557367176,195.7068846495822 180.59215644560754,176.2709044299554 176.54048266075552,170.460120071657 170.64713897462934,170.460120071657 167.14796616043895,174.06681529525667 165.12212926801294,191.49910707911476 168.98963606264442,197.91095597739331 178.38215256296098,195.50651443912648 180.7763234358281,176.2709044299554 175.43548071943223,170.05937585770153 166.9637991702184,173.66607162123546 164.5696282973513,193.30244113365188 171.38380693551153,198.71243601082824 178.93465353362262,194.10392254497856 180.96049042697996,176.47127607930452 178.56631955318153,171.66235235217027 173.96214479859918,169.65863158437423 166.41129819862545,174.26718710944988 164.5696282973513,191.8998480848968 170.64713897462934,198.51206602482125 179.11882052384317,193.90355221461505 180.7763234358281,176.0705327654723 173.77797780837864,169.65863158437423 166.77963218092918,174.06681529525667 165.12212926801294,192.50095948111266 171.38380693551153,198.71243601082824 179.11882052384317,193.90355221461505 180.59215644560754,174.86830246285535 173.225476837717,169.8590037287213 166.77963218092918,174.26718710944988 165.3062962582335,193.10207074251957 172.4888088768348,198.51206602482125 179.48715450428426,193.50281150848605 180.96049042697996,175.46941768168472 174.33047877810895,169.8590037287213 166.41129819862545,174.86830246285535 165.12212926801294,193.10207074251957 171.7521409150213,198.71243601082824 179.30298751499504,194.10392254497856 180.96049042697996,175.66978939133696 173.5938108181581,169.8590037287213 166.41129819862545,174.86830246285535 164.9379622777924,193.10207074251957 172.4888088768348,198.71243601082824 179.11882052384317,194.10392254497856 180.7763234358281,175.66978939133696 174.51464576926082,169.65863158437423 166.59546518977731,174.06681529525667 165.12212926801294,192.3005890303757 171.01547295507044,198.51206602482125 176.3563156714663,197.51021587080322 179.30298751499504,193.90355221461505 180.96049042697996,175.0686742174439 174.33047877810895,169.65863158437423 166.9637991702184,173.86644346592948 164.9379622777924,192.3005890303757 170.4629719844088,198.51206602482125 178.93465353362262,194.70503344689496 180.7763234358281,175.87016108608805 174.8829797487706,169.25788725097664 167.14796616043895,173.46569976164028 164.9379622777924,192.50095948111266 171.19963994435966,198.51206602482125 176.90881664212793,197.30984579515643 179.6713214945048,193.30244113365188 180.40798945631832,174.66793069359846 173.04130984749645,169.45825942489319 166.41129819862545,174.46755890897475 165.12212926801294,193.70318186865188 171.93630790617317,198.71243601082824 179.30298751499504,193.50281150848605 180.7763234358281,175.66978939133696 173.77797780837864,169.65863158437423 166.22713120933622,175.26904595736414 165.12212926801294,192.50095948111266 171.7521409150213,198.51206602482125 179.11882052384317,194.30429286067374 180.7763234358281,175.87016108608805 173.225476837717,169.65863158437423 166.59546518977731,174.66793069359846 165.12212926801294,193.30244113365188 169.54213703330606,198.31169602368027 178.7504865443334,194.90540371718816 181.1446574172005,176.0705327654723 173.77797780837864,169.45825942489319 166.9637991702184,173.86644346592948 165.49046324845403,192.90170033695176 172.4888088768348,198.71243601082824 179.30298751499504,193.50281150848605 180.96049042697996,175.87016108608805 177.46131761185825,170.66049215570092 173.04130984749645,169.45825942489319 166.77963218092918,174.66793069359846 165.12212926801294,192.70132991694845 172.4888088768348,198.71243601082824 179.11882052384317,194.90540371718816 180.7763234358281,175.26904595736414 173.77797780837864,169.05751506146044 167.3321331506595,172.66421217424795 165.12212926801294,192.70132991694845 167.7004671311006,197.10947570460849 172.67297586705536,198.71243601082824 179.6713214945048,193.10207074251957 180.7763234358281,175.26904595736414 177.27715062256902,170.25974797201343 172.4888088768348,169.25788725097664 166.77963218092918,174.06681529525667 165.3062962582335,193.30244113365188 173.225476837717,199.11317593720742 179.30298751499504,194.30429286067374 180.59215644560754,175.26904595736414 173.40964382793754,168.85714285704307 166.59546518977731,174.06681529525667 164.9379622777924,192.10021856543608 170.64713897462934,198.51206602482125 179.11882052384317,194.50466316123493 180.59215644560754,175.46941768168472 174.33047877810895,169.45825942489319 169.54213703330606,170.05937585770153 166.59546518977731,174.86830246285535 165.12212926801294,192.70132991694845 172.12047489732504,198.71243601082824 179.48715450428426,193.90355221461505 180.59215644560754,175.87016108608805 173.96214479859918,169.25788725097664 166.59546518977731,174.66793069359846 165.3062962582335,193.50281150848605 171.93630790617317,199.11317593720742 179.30298751499504,193.90355221461505 180.59215644560754,174.66793069359846 177.64548460301012,170.66049215570092 171.93630790617317,169.45825942489319 166.59546518977731,174.66793069359846 165.49046324845403,193.50281150848605 173.04130984749645,198.71243601082824 179.48715450428426,192.90170033695176 180.7763234358281,174.86830246285535 172.67297586705536,169.25788725097664 167.51630014088005,172.86458409321494 164.75379528757185,179.67722043441609 164.5696282973513,195.1057739725802" stroke="#4dd2ff" stroke-linecap="round" stroke-linejoin="round" stroke-width="0.5"><title>2024-04-03 9.7km</title><desc>1712137473000</desc></polyline><polyline fill="none" points="16.11330196633935,221.89920175797306 21.118310196325183,220.89079945231788 19.26460344530642,226.33616741932929 23.342758299782872,232.58824300393462 32.796662736684084,232.58824300393462 38.17241231817752,212.8235674323514 35.20648151449859,204.35294783022255 28.162395855411887,203.14285714295693 23.15738762356341,205.96640123450197 20.932939521968365,226.134487320669 23.528128975071013,232.9916022210382 30.016102608293295,232.9916022210382 34.83574016392231,229.5630469508469 36.87481759209186,211.0084369003307 32.4259213861078,204.95799297024496 23.342758299782872,208.58826095797122 20.932939521968365,227.747927689692 26.679430454038084,233.3949613783043 34.83574016392231,229.15968722081743 36.504076240584254,210.8067556549795 31.313697334378958,204.35294783022255 23.15738762356341,208.58826095797122 21.118310196325183,228.35296757891774 27.420913155190647,233.79832047480159 34.83574016392231,229.36136709339917 36.87481759209186,210.6050743944943 31.86980936024338,204.75631127180532 26.679430454038084,205.36135632079095 22.78664627391845,209.3949865133036 20.747568846680224,227.747927689692 26.864801129326224,234.0 34.65036948956549,229.36136709339917 36.68944691680372,210.0000305220019 31.86980936024338,204.75631127180532 22.78664627391845,209.19330514711328 20.747568846680224,226.7395275721792 23.15738762356341,231.98320406489074 28.347766530700028,233.79832047480159 35.39185218978673,228.55464751226828 36.68944691680372,210.20171182788908 31.68443868495524,204.5546295584645 27.606283830478787,204.5546295584645 22.78664627391845,208.99162376578897 20.747568846680224,226.94120762543753 26.308689103461802,233.79832047480159 34.46499881334603,230.16808643308468 36.87481759209186,211.0084369003307 33.167404087260365,204.95799297024496 28.347766530700028,204.75631127180532 22.97201694920659,208.99162376578897 20.932939521968365,227.34456768841483 25.196465051732957,233.19328180747107 34.83574016392231,232.18488372629508" stroke="#4dd2ff" stroke-linecap="round" stroke-linejoin="round" stroke-width="0.5"><title>2024-04-02 3.0km</title><desc>1712049520000</desc></polyline><polyline fill="none" points="57.42308374680579,212.85318244737573 56.23308152332902,229.68433553911746 59.80308819562197,233.3526507425122 65.15809820406139,233.56843384471722 69.12477228511125,229.036985313287 71.10810932517052,207.67434635269456 64.36476338841021,203.1428571427241 58.01808485947549,208.32170137297362 56.034747819416225,229.036985313287 59.40642078779638,233.13686762470752 64.9597645001486,233.56843384471722 69.12477228511125,228.82120187208056 71.10810932517052,207.89013137551956 64.563097092323,203.1428571427241 58.01808485947549,208.10591638227925 55.83641411550343,228.38963494170457 62.77809375617653,234.0 69.12477228511125,229.2527687381953 71.30644302908331,208.7532713059336 65.35643190797418,203.1428571427241 58.01808485947549,208.10591638227925 55.83641411550343,228.60541841527447 62.18309264443815,234.0 68.92643858119845,229.68433553911746 71.30644302908331,208.9690562481992 65.5547656128183,203.1428571427241 58.01808485947549,207.89013137551956 55.83641411550343,228.38963494170457 61.786425235681236,234.0 68.92643858119845,229.68433553911746 71.5047767329961,209.4006260840688 66.14976672455668,203.35864250501618 58.21641856431961,207.4585613135714 55.83641411550343,227.95806794753298 62.18309264443815,234.0 68.92643858119845,229.68433553911746 71.30644302908331,208.9690562481992 65.35643190797418,203.1428571427241 58.21641856431961,207.4585613135714 55.83641411550343,228.38963494170457 62.38142634835094,234.0 69.12477228511125,229.036985313287 71.30644302908331,209.18484117439948 65.15809820406139,203.1428571427241 58.01808485947549,208.32170137297362 55.83641411550343,228.60541841527447 62.38142634835094,234.0 69.12477228511125,229.2527687381953 71.30644302908331,208.5374863478355 64.9597645001486,203.1428571427241 58.01808485947549,208.32170137297362 55.83641411550343,228.17385145253502 58.41475226730108,232.4895181732718 63.76976227667183,233.7842169306241 69.12477228511125,229.036985313287 71.30644302908331,208.7532713059336 64.563097092323,203.1428571427241 58.01808485947549,208.32170137297362 55.83641411550343,227.95806794753298 61.786425235681236,234.0 68.92643858119845,229.68433553911746 71.5047767329961,209.83219585521147 65.95143302064389,203.35864250501618 58.41475226730108,207.2427762588486 55.83641411550343,227.95806794753298 60.398089308291674,233.56843384471722 68.92643858119845,229.68433553911746 71.5047767329961,209.4006260840688 66.34810042753816,203.35864250501618 58.81141967512667,206.3796358765103 55.63808041065931,227.3107173340395 58.21641856431961,232.4895181732718 63.57142857182771,234.0 68.33143746852875,230.7632522599306 71.5047767329961,210.69533520471305 67.53810265194625,203.79021317977458 60.00142189953476,204.86913958610967 56.62974893115461,230.33168561989442 60.79475671518594,233.7842169306241 66.14976672455668,232.92108449013904 70.11644080560654,222.56347506283782" stroke="#4dd2ff" stroke-linecap="round" stroke-linejoin="round" stroke-width="0.5"><title>2024-03-30 4.8km</title><desc>1711782999000</desc></polyline><polyline fill="none" points="91.12490271963179,215.7376503145788 92.47546100057662,230.01168090268038 96.52713584713638,233.37026578304358 102.70111656468362,232.95044289296493 107.33160210121423,226.86300392635167 106.94572830665857,205.45190679002553 97.6847572317347,203.7725981438998 92.66839789878577,209.44026079541072 92.66839789878577,229.3819457902573 98.07063102629036,234.0 104.05167484562844,232.53061993955635 107.52453899942338,226.86300392635167 108.87509728129953,211.11956604919396 106.75279140938073,205.0320797227323 100.0,203.14285714295693 95.36951446253806,206.0816472726874 91.89665030874312,226.4431800628081 93.82601928338408,231.2711507040076 99.4211893081665,234.0 107.33160210121423,228.33238695492037 108.10334969125688,207.1312144305557 99.80706310272217,203.56268449290656 93.05427169334143,209.65017400681973 93.05427169334143,231.06123910937458 100.38587379548699,233.79008861025795 105.98104381933808,230.43150423211046 108.48922348581254,211.32947913510725 107.1386652039364,206.0816472726874 102.89405346103013,203.3527708260808 94.21189307793975,206.92130103055388 91.70371341146529,227.70265146531165 96.52713584713638,233.37026578304358 105.78810692206025,230.01168090268038 108.48922348581254,211.11956604919396 104.4375486401841,204.40233900398016 94.21189307793975,204.40233900398016" stroke="#4dd2ff" stroke-linecap="round" stroke-linejoin="round" stroke-width="0.5"><title>2024-03-28 2.0km</title><desc>1711615120000</desc></polyline><polyline fill="none" points="128.6290999762714,216.2571879858151 126.67923211306334,216.64290258893743 128.6290999762714,218.18576042423956 126.50197139848024,217.22147438512184 128.6290999762714,217.80004605208524 129.160882120952,229.95002105645835 133.0606178464368,233.42143196915276 139.26474286522716,233.61428799363784 144.5825643092394,227.05717505840585 145.4688678830862,206.80716218263842 141.21461072843522,203.52857370814309 135.89678928349167,203.52857370814309 129.69266426563263,210.47146201413125 128.45183926075697,228.02145741856657 135.18774642422795,234.0 143.69626073539257,228.98573941760696 145.29160716943443,208.73574169073254 142.63269644696265,204.10714844753966 138.37843929138035,203.14285714295693 130.40170712396502,208.54288380453363 129.160882120952,226.4786054692231 131.64253212790936,231.30001474451274 136.07404999807477,233.03571987641044 142.80995716154575,228.98573941760696 144.5825643092394,210.27860425808467 138.37843929138035,204.30000666575506 131.28801069874316,208.73574169073254 130.04718569479883,227.82860097498633 136.42857142724097,233.03571987641044 143.34173930529505,227.82860097498633 144.4053035946563,208.15716798976064 138.02391786128283,203.91429021558724 131.28801069874316,209.31431526131928 129.8699249792844,227.25003155926242 135.36500713881105,233.03571987641044 143.16447859071195,227.82860097498633 144.4053035946563,209.50717308954336 137.31487500295043,203.52857370814309 131.46527141332626,208.73574169073254 129.5154035501182,227.25003155926242 135.71952856890857,233.03571987641044 143.51900001987815,227.82860097498633 144.9370857393369,209.50717308954336 138.73296072054654,203.91429021558724 131.64253212790936,208.54288380453363 129.69266426563263,227.05717505840585 130.93348926864564,231.10715854680166 135.36500713881105,232.65000772592612 143.34173930529505,228.40717026148923 144.9370857393369,210.66431975597516 138.91022143606097,204.68572305771522 131.46527141332626,208.35002590413205 129.69266426563263,227.82860097498633 136.07404999807477,232.8428638081532 143.34173930529505,228.02145741856657 144.7598250247538,208.73574169073254 138.20117857679725,204.30000666575506 131.46527141332626,209.31431526131928 129.69266426563263,227.442888046382 136.07404999807477,233.03571987641044 141.74639287311584,232.26429551746696 144.4053035946563,228.60002666153014 146.35517145786434,210.08574648783542" stroke="#4dd2ff" stroke-linecap="round" stroke-linejoin="round" stroke-width="0.5"><title>2024-03-26 3.7km</title><desc>1711445960000</desc></polyline><polyline fill="none" points="164.53770415112376,226.80003097001463 171.3445176379755,234.0 179.4748781900853,229.26859390409663 180.98750340938568,208.4914533784613 176.82778405677527,203.1428571427241 166.9957201331854,206.64001739723608 164.34862599987537,226.18288989015855 166.05032937042415,230.91430129529908 171.91175209451467,233.7942868603859 179.09672188479453,229.68002084386535 181.36565971374512,209.5200283851009 177.58409666549414,203.3485725747887 167.56295458972454,207.46287798741832 165.10493860859424,219.3943288726732 167.3738764366135,230.91430129529908 172.2899083988741,233.17714735097252 176.82778405677527,231.32572798943147 180.79842525627464,210.75431788526475 177.58409666549414,204.78858016920276 172.1008302466944,204.1714341493789 168.31926719937474,207.25716286315583 165.86125121824443,225.36003490211442 170.02097056992352,232.5600077023264 177.77317481860518,230.09144772286527 180.79842525627464,209.9314582797233 176.4496277514845,203.96571877924725 168.31926719937474,207.46287798741832 165.86125121824443,225.77146242698655 170.21004872303456,232.5600077023264 177.58409666549414,230.09144772286527 179.4748781900853,206.2285870097112 173.0462210085243,203.5542879914865 167.75203274097294,208.9028834272176 166.05032937042415,228.24002628400922 169.45373611338437,232.14858119306155 174.7479243800044,232.35429445514455" stroke="#4dd2ff" stroke-linecap="round" stroke-linejoin="round" stroke-width="0.5"><title>2024-03-25 2.1km</title><desc>1711359274000</desc></polyline><polyline fill="none" points="31.051682576537132,265.3186969663948 34.687799260020256,245.1428909029346 30.506265074014664,238.8131945298519 21.052361697889864,242.96705948375165 19.05249752290547,259.78025573003106 24.506672548130155,267.0989077577833 32.50612924993038,263.934087744914 34.687799260020256,245.1428909029346 29.415430068969727,239.01099777105264 21.052361697889864,243.16486241435632 19.05249752290547,260.9670655429363 24.870284215547144,267.0989077577833 32.68793508410454,263.34068357083015 34.687799260020256,244.3516796848271 29.23362423479557,239.01099777105264 21.052361697889864,242.96705948375165 19.234303357079625,261.1648671266157 20.87055586464703,265.3186969663948 25.96111922059208,267.2967088825535 32.869740918278694,262.54947779816575 34.687799260020256,245.5384964228142 29.960847571492195,239.01099777105264 21.052361697889864,242.17584761441685 19.234303357079625,261.1648671266157 24.870284215547144,267.494509993121 32.32432341668755,263.7362863684539 34.687799260020256,245.1428909029346 29.597235904075205,238.61539127421565 21.234167532995343,241.97804461047053 19.05249752290547,261.56047024950385 20.87055586464703,265.51649822480977 26.324730888940394,267.69231108855456 33.05154675245285,262.35167631856166 34.5059934258461,244.15387684316374 28.870012566447258,238.61539127421565 23.779449210502207,239.6044074052479 20.688750030472875,243.56046822993085 19.41610919125378,262.54947779816575 26.50653672311455,267.2967088825535 33.23335258662701,261.7582717894111 34.5059934258461,244.3516796848271 29.23362423479557,238.61539127421565 20.87055586464703,243.56046822993085 19.234303357079625,261.956073313253 25.59750755317509,267.0989077577833 32.50612924993038,263.34068357083015 34.5059934258461,244.15387684316374 28.142789230681956,238.61539127421565 20.688750030472875,243.36266532959417 19.41610919125378,262.1538748231251 25.59750755317509,267.494509993121 32.869740918278694,263.34068357083015 34.687799260020256,244.3516796848271 31.5971000790596,239.20880099735223 21.4159733671695,241.97804461047053 19.234303357079625,259.9780574021861 23.59764337632805,267.0989077577833 32.32432341668755,264.13188910647295 34.687799260020256,244.74728532345034 29.051818401552737,238.8131945298519 21.052361697889864,242.57145357877016 19.234303357079625,261.3626686951611 24.324866713024676,266.9011066178791 32.14251758158207,264.725293102907 34.86960509419441,245.34069367032498 31.23348841164261,239.20880099735223 25.59750755317509,238.61539127421565 21.234167532995343,242.57145357877016 17.961662517860532,259.78025573003106 19.41610919125378,265.12089569377713 24.506672548130155,268.285714285681 29.23362423479557,268.087913234951 33.59696425497532,263.934087744914 36.32405176758766,245.7362991606351 31.415294245816767,237.8241781028919 25.415701718069613,237.42857142840512 20.143332527950406,241.78024159162305 17.961662517860532,260.7692639438901 23.59764337632805,267.69231108855456 33.05154675245285,266.1099019108806" stroke="#4dd2ff" stroke-linecap="round" stroke-linejoin="round" stroke-width="0.5"><title>2024-03-24 4.9km</title><desc>1711273464000</desc></polyline><polyline fill="none" points="54.871516512706876,259.76690876530483 56.43750068359077,265.2568089417182 60.787456712685525,268.0964078078978 65.83340570610017,267.1498752068728 70.00936349481344,262.9851275542751 71.74934590607882,243.1078284282703 70.35735997650772,239.70027575804852 65.1374127427116,237.99649770208634 59.39547078311443,239.3216585116461 56.26350244227797,243.2971367756836 55.2195129962638,262.2278999721166 58.52547957748175,266.5819554759655 64.4414197774604,267.90710131591186 70.70535645913333,260.90275115775876 70.87935470044613,240.64681862667203 64.6154180187732,237.99649770208634 58.177483095787466,240.07889294833876 55.56750947795808,244.6222948092036 54.523520031012595,261.28136517549865 60.09146374836564,268.285714285681 66.18140218965709,267.1498752068728 69.83536525256932,263.17443441436626 72.7933353530243,245.75814399914816 70.53135821782053,239.70027575804852 65.65940746478736,237.8071889586281 58.35148133710027,240.07889294833876 55.741507719270885,244.243678298546 55.56750947795808,264.6888887861278 60.613458472304046,268.285714285681 65.65940746478736,267.90710131591186 70.87935470044613,260.90275115775876 70.87935470044613,240.64681862667203 62.52743912488222,237.42857142863795 55.915505959652364,244.05437002237886 54.6975182723254,262.03859304077923 58.003484854474664,266.9605686436407 63.57142857182771,267.7177948097233 70.70535645913333,261.0920581740793 71.40134942345321,241.59336114139296 68.61737756524235,238.37511514732614 62.7014373652637,237.8071889586281 55.741507719270885,244.4329865607433 55.04551475401968,263.55304809240624 64.4414197774604,267.52848828956485 70.53135821782053,261.0920581740793 70.53135821782053,240.64681862667203 63.91942505352199,237.61788020073436 56.26350244227797,241.9719780483283 54.34952178969979,262.4172068887856 57.82948661223054,266.7712620671373 64.4414197774604,267.90710131591186 70.53135821782053,261.470672163181 70.18336173519492,239.51096714194864 63.397430329583585,237.61788020073436 58.52547957748175,240.07889294833876 54.6975182723254,254.2769966784399 56.95949540659785,265.82472896948457 67.74738635960966,266.39264887035824 71.92334414739162,245.1902194682043 68.09538284223527,238.56442384817638 58.35148133710027,240.07889294833876 54.6975182723254,258.8203730476089 55.915505959652364,265.2568089417182 60.43946023005992,267.52848828956485 69.13937228824943,264.3102752780542 72.09734238870442,245.56883583636954 69.66136701218784,239.51096714194864 58.177483095787466,239.51096714194864 55.2195129962638,250.30153566389345 56.43750068359077,265.2568089417182 61.657447919249535,267.90710131591186 67.92138459999114,266.014035617467 70.70535645913333,261.65997913712636 72.09734238870442,245.75814399914816 69.48736877087504,239.51096714194864 60.96145495399833,238.18580643180758 55.741507719270885,244.4329865607433 54.871516512706876,263.17443441436626 59.74346726574004,267.52848828956485 65.65940746478736,266.7712620671373 69.66136701218784,256.73799322452396 68.79137580562383,240.64681862667203 63.397430329583585,238.943041208433 57.82948661223054,241.59336114139296 54.523520031012595,253.51976649067365" stroke="#4dd2ff" stroke-linecap="round" stroke-linejoin="round" stroke-width="0.5"><title>2024-03-22 5.0km</title><desc>1711100044000</desc></polyline><polyline fill="none" points="90.60517649166286,249.00004328181967 93.79587126802653,265.3928728327155 99.11369589529932,268.09285829006694 104.4315205225721,266.550009803148 107.97673694044352,262.50002813269384 109.21756268665195,253.6286174801644 106.91317201498896,240.51430233428255 99.64547835756093,238.00714625464752 94.50491455104202,244.56431854353286 93.79587126802653,263.0785973321181 98.05013096984476,267.5142902156804 103.19069477543235,267.5142902156804 107.44495447725058,261.5357458451763 107.2676936564967,243.02145597618073 101.4180865669623,238.77857915428467 94.68217537179589,244.56431854353286 93.79587126802653,262.50002813269384 96.9865660443902,266.7428659144789 101.77260820847005,267.7071462550666 106.91317201498896,260.76431975513697 107.62221529800445,242.442882274976 102.65891231223941,238.20000450173393 94.68217537179589,242.82859809044749 93.08682798407972,261.3428893443197 100.35452164150774,267.12857809406705 104.96330298483372,266.1642975374125 108.15399776119739,260.76431975513697 108.33125858195126,241.09287646808662 106.20412873011082,238.20000450173393 99.46821753680706,237.42857142863795 93.44134962558746,243.21431384747848 92.37778470106423,262.3071717042476 100.35452164150774,268.285714285681 107.62221529800445,261.1500328287948 109.39482350740582,244.17860298836604 106.73591119330376,237.6214297185652 95.74574029818177,239.16429551760666 91.49148059636354,258.6428968172986" stroke="#4dd2ff" stroke-linecap="round" stroke-linejoin="round" stroke-width="0.5"><title>2024-03-21 2.2km</title><desc>1711013104000</desc></polyline></svg>