<?xml version="1.0" encoding="utf-8" ?>
<svg baseProfile="full" height="300mm" version="1.1" viewBox="0,0,200,300" width="200mm" xmlns="http://www.w3.org/2000/svg" xmlns:ev="http://www.w3.org/2001/xml-events" xmlns:xlink="http://www.w3.org/1999/xlink"><defs /><rect fill="#222222" height="300" width="200" x="0" y="0" /><text fill="#FFFFFF" style="font-size:12px; font-family:Arial; font-weight:bold;" x="10" y="20">Over 2km Runs</text><text fill="#FFFFFF" style="font-size:4px; font-family:Arial" x="10" y="280">ATHLETE</text><text fill="#FFFFFF" style="font-size:9px; font-family:Arial" x="10" y="290">作怪</text><text fill="#FFFFFF" style="font-size:4px; font-family:Arial" x="120" y="280">STATISTICS</text><text fill="#FFFFFF" style="font-size:3px; font-family:Arial" x="120" y="285">Number: 26</text><text fill="#FFFFFF" style="font-size:3px; font-family:Arial" x="120" y="290">Weekly: 3.7</text><text fill="#FFFFFF" style="font-size:3px; font-family:Arial" x="141" y="285">Total: 128.7 km</text><text fill="#FFFFFF" style="font-size:3px; font-family:Arial" x="141" y="290">Avg: 5.0 km</text><text fill="#FFFFFF" style="font-size:3px; font-family:Arial" x="167" y="285">Min: 2.0 km</text><text fill="#FFFFFF" style="font-size:3px; font-family:Arial" x="167" y="290">Max: 12.3 km</text><polyline fill="none" points="18.00540357735008,41.12058420246467 19.63717442099005,59.09591389284469 30.24368491023779,63.53425013599917 36.15885422099382,57.0986604175996 37.9945964217186,40.23291077837348 35.75091150961816,34.46302704606205 29.63177084363997,31.800000000046566 21.88085933215916,34.68494585878216 19.22923171054572,57.0986604175996 26.77617186587304,64.19999999995343 35.34296879917383,59.761664752615616 37.79062506649643,38.457563132978976 30.447656265459955,32.2438380070962 21.47291662171483,35.57262094295584 19.43320306483656,58.873996906680986 25.96028644312173,63.97808339539915 34.11914066597819,61.093166024191305 37.586653710342944,39.56715553579852 31.059570332057774,32.465756985591725 20.657031198963523,36.682214425178245 19.22923171054572,57.98632879508659 25.144401021301746,63.53425013599917 35.34296879917383,59.09591389284469 37.17871099989861,38.23564460268244 30.24368491023779,32.02191901230253 21.47291662171483,36.01645838562399 19.63717442099005,57.542494639288634 25.5523437326774,63.312333481851965 34.73105473257601,59.5397478165105 36.974739643745124,38.01372605585493 31.059570332057774,32.465756985591725 20.86100255511701,33.79727050871588" stroke="#4dd2ff" stroke-linecap="round" stroke-linejoin="round" stroke-width="0.5"><title>2024-05-05 2.0km</title><desc>1714901559000</desc></polyline><polyline fill="none" points="55.70688987430185,45.12916029035114 56.2723292009905,59.89369295304641 60.607364039868116,63.789875810733065 66.45023708418012,63.789875810733065 73.047029228881,57.227880438324064 73.80094833206385,36.516479512210935 65.69631798099726,32.00506449514069 57.21472807880491,37.746864137006924 56.083849425427616,58.253193250857294 63.81152022443712,64.19999999995343 72.10463035106659,58.253193250857294 73.98942810762674,37.54180007125251 71.72767079994082,33.64557990641333 65.3193584298715,31.800000000046566 56.46080897562206,38.567120247520506 53.63361234217882,54.97219090163708 58.53408650774509,62.35444066557102 64.56543932668865,63.789875810733065 72.2931101275608,57.843068171758205 73.80094833206385,38.156992222648114 67.20415618550032,32.210128975100815 58.15712695661932,36.926607781788334 55.89536964986473,58.253193250857294 62.30368201993406,64.19999999995343 71.72767079994082,59.89369295304641 73.80094833206385,48.205111153190956 74.17790788318962,38.156992222648114 71.72767079994082,34.055708604864776 64.94239887874573,32.00506449514069 58.34560673311353,34.87596581946127 55.51841009873897,55.79244185704738 60.795843815431,63.584813692839816 65.69631798099726,63.789875810733065 71.35071124881506,59.48356811911799 74.3663876587525,39.59244003938511 72.85854945424944,34.87596581946127 68.52351461537182,32.620257889153436 63.05760112218559,32.41519344015978 57.40320785436779,36.72154365456663 54.76449099648744,56.40762991295196 57.02624830324203,61.534191673155874 65.3193584298715,63.99493791302666 72.48158990219235,56.40762991295196 73.42398878093809,36.311415354022756 67.95807528868318,32.620257889153436 61.361283142119646,33.44051553332247 56.64928875211626,39.7975039514713 57.21472807880491,61.12406708532944 66.82719663437456,63.37975156027824 71.9161505755037,59.27850567968562 73.23550900444388,52.921562439063564 72.85854945424944,35.08103008498438 66.26175730768591,32.00506449514069 59.4764853855595,34.055708604864776 56.2723292009905,39.7975039514713 56.083849425427616,60.50888008833863 65.50783820543438,63.789875810733065 72.48158990219235,57.02281783055514 73.61246855650097,35.6962227888871 64.0,32.00506449514069 56.083849425427616,39.38737611169927 56.46080897562206,61.12406708532944 60.98432359099388,64.19999999995343 67.20415618550032,63.37975156027824 73.23550900444388,54.767128124367446 73.61246855650097,35.6962227888871 69.65439326874912,32.210128975100815 62.680641571991146,32.41519344015978 56.083849425427616,39.38737611169927 56.083849425427616,60.30381772527471 65.69631798099726,64.19999999995343 72.67006967775524,57.227880438324064 73.98942810762674,37.13167189410888 70.78527192212641,33.235451145330444 64.37695955205709,32.41519344015978 56.46080897562206,37.746864137006924 56.2723292009905,59.68863054388203 65.13087865430862,64.19999999995343 72.48158990219235,56.81775520602241 73.42398878093809,36.106351180933416 68.52351461537182,32.210128975100815 61.92672246880829,32.620257889153436 56.2723292009905,39.7975039514713 54.576011220924556,58.458255767356604" stroke="#4dd2ff" stroke-linecap="round" stroke-linejoin="round" stroke-width="0.5"><title>2024-04-29 5.0km</title><desc>1714382183000</desc></polyline><polyline fill="none" points="92.00357159972191,59.20002562133595 98.06982762739062,63.80000239354558 106.89347275812179,59.8000230405014 109.65086186211556,40.40003827959299 107.44495057873428,35.20001844014041 101.01104267127812,33.00000700238161 93.47417912166566,39.20003459881991 91.63591971900314,59.000026451889426 94.76096070278436,63.000007001450285 100.09191296994686,63.80000239354558 106.70964681822807,59.40002477564849 107.62877651955932,39.400035249767825 101.56252049095929,33.80001137102954 92.92270130105317,39.60003588581458 92.00357159972191,58.60002806736156 100.64339079055935,62.800008116522804 107.07729869894683,57.800031119491905 107.62877651955932,37.80002962425351 99.54043514840305,33.6000103012193 91.63591971900314,42.80004402436316 90.34913813788444,48.000049081398174 94.02565694227815,61.60001449007541 100.09191296994686,63.2000058721751 104.6875614747405,60.80001844000071 107.81260245852172,39.400035249767825 103.03312801383436,33.80001137102954 93.65800506155938,37.200027267448604 91.81974565982819,54.80004043341614 96.96687198616564,62.20001137070358 105.79051711689681,58.800027266843244 108.18025434017181,39.20003459881991 103.76843177434057,33.80001137102954 98.98895732779056,33.4000092165079 94.20948288310319,37.80002962425351 92.37122348044068,57.40003255568445 95.68009040411562,61.60001449007541 100.8272167313844,62.20001137070358 108.18025434017181,55.40003883955069 103.58460583444685,31.800000000046566 93.10652724094689,37.40002806810662 91.08444189932197,55.800037702778354 97.33452386688441,64.19999999995343 106.89347275812179,59.8000230405014 109.2832099813968,40.80003938637674 106.89347275812179,35.60002032550983 101.56252049095929,33.00000700238161 96.7830460453406,34.00001242570579 92.18739753961563,39.20003459881991 90.90061595849693,57.40003255568445 97.33452386688441,63.80000239354558 103.21695395372808,63.2000058721751 106.89347275812179,59.40002477564849 109.09938404150307,39.60003588581458 101.93017237167805,32.80000587226823 92.5550494203344,37.60002885386348 91.08444189932197,56.40003588539548 94.57713476289064,61.60001449007541 99.7242610892281,63.000007001450285 107.81260245852172,55.800037702778354 108.91555810067803,38.200031120097265 106.70964681822807,34.800016495166346 99.35660920944065,33.00000700238161 92.18739753961563,38.60003255633637 90.90061595849693,57.40003255568445 97.15069792699069,64.19999999995343 106.52582087833434,59.40002477564849 109.2832099813968,39.60003588581458 106.52582087833434,34.60001550009474 101.19486861117184,32.80000587226823 92.18739753961563,38.60003255633637 90.7167900186032,56.600035248789936 96.7830460453406,63.80000239354558 106.89347275812179,58.40002885297872 109.09938404150307,38.60003255633637 102.29782425239682,32.60000472771935 92.5550494203344,37.60002885386348 91.08444189932197,56.600035248789936 97.51834980677813,64.00000120420009 106.70964681822807,58.60002806736156 108.36408028006554,39.20003459881991 101.74634643178433,33.2000081166625 92.37122348044068,38.60003255633637 91.08444189932197,57.00003393297084 93.84183100238442,62.20001137070358 99.1727832686156,63.600003567989916 106.3419949375093,56.600035248789936 107.81260245852172,39.00003393320367 100.8272167313844,33.2000081166625 93.10652724094689,39.20003459881991 92.00357159972191,57.60003184527159 98.98895732779056,62.60000921576284 106.15816899761558,57.40003255568445 107.62877651955932,39.00003393320367 101.19486861117184,33.6000103012193 92.92270130105317,39.00003393320367 90.34913813788444,56.600035248789936" stroke="#4dd2ff" stroke-linecap="round" stroke-linejoin="round" stroke-width="0.5"><title>2024-04-28 5.8km</title><desc>1714295019000</desc></polyline><polyline fill="none" points="126.27598037105054,45.68575791385956 128.5044015366584,60.4530794438906 133.36641135066748,63.7591860643588 139.64650736097246,62.87755799549632 144.1033496921882,57.80819147685543 145.11626840382814,35.98777515231632 136.202583742328,32.24081871751696 129.31473650503904,38.412273835157976 127.69406656734645,58.02859889785759 130.93540644366294,62.87755799549632 136.81033496931195,63.979593040654436 144.1033496921882,57.80819147685543 146.12918711453676,39.73472682153806 145.7240196308121,35.98777515231632 139.64650736097246,32.02040936751291 129.922487732023,36.64900226332247 128.0992340510711,57.14696911443025 130.53023895900697,61.99592966167256 135.59483251534402,63.7591860643588 143.49559846520424,59.130635756999254 144.91368466056883,36.64900226332247 136.202583742328,31.800000000046566 131.13799018599093,34.444911314873025 129.11215276364237,39.51431803195737 129.31473650503904,60.893893874716014 137.01291871257126,64.19999999995343 141.874928525649,61.55511539662257 145.5214358875528,39.51431803195737 140.6594260726124,32.46122805099003 135.18966503161937,32.24081871751696 130.32765521667898,36.20818420546129 127.89665030967444,56.04493151255883 134.37933006230742,63.979593040654436 143.49559846520424,58.91022841818631 145.5214358875528,37.75104711949825 139.0387561339885,32.02040936751291 130.1250714752823,36.64900226332247 128.0992340510711,56.2653390658088 133.97416257765144,63.7591860643588 143.6981822066009,58.469413691200316 145.5214358875528,38.19186494639143 141.874928525649,32.46122805099003 131.7457414129749,33.78368370886892 127.69406656734645,56.48574660322629 134.17674632091075,63.7591860643588 143.29301472287625,58.689821063075215 145.5214358875528,38.412273835157976 140.6594260726124,32.24081871751696 135.39224877394736,31.800000000046566 129.922487732023,36.428593242540956 128.0992340510711,56.2653390658088 133.5689950939268,63.318372062640265 142.48267975263298,60.01226494787261 145.3188521442935,39.07350040250458 139.64650736097246,32.46122805099003 133.5689950939268,33.122455954086035 128.0992340510711,38.412273835157976 125.87081288639456,56.48574660322629" stroke="#4dd2ff" stroke-linecap="round" stroke-linejoin="round" stroke-width="0.5"><title>2024-04-26 3.3km</title><desc>1714123626000</desc></polyline><polyline fill="none" points="162.55064035672694,49.24620083044283 165.79587498214096,60.25386637519114 169.61379806976765,63.36923549254425 174.76799423899502,62.95385314594023 178.77681348193437,58.384643226861954 180.87667118106037,43.63850537640974 180.30398271698505,38.446184671483934 175.53157885745168,33.66924104699865 165.41408267151564,37.823105534305796 163.50512112863362,56.723110482795164 169.23200576100498,62.53847073670477 178.58591732755303,58.59233474987559 180.30398271698505,38.86157068586908 173.43172115832567,32.83846740331501 165.22318651806563,37.615412458078936 163.50512112863362,56.930802130606025 168.46842114347965,62.330779508687556 178.0132288634777,58.800026257522404 180.1130865626037,38.446184671483934 172.85903269518167,33.04616083786823 164.84139420930296,38.23849164159037 163.88691343646497,57.5538769797422 167.51394037064165,62.330779508687556 173.62261731177568,62.74616194865666 178.3950211731717,58.800026257522404 180.30398271698505,39.069263668963686 174.00440962146968,32.630773954093456 165.41408267151564,36.99233313417062 163.69601728301495,56.307727141771466 170.377382687293,62.74616194865666 178.9677096363157,56.930802130606025 180.1130865626037,38.23849164159037 173.24082500394434,32.42308048857376 163.88691343646497,37.40771936578676 163.50512112863362,41.353885462740436 163.69601728301495,59.4231006866321 168.08662883471698,63.576926643028855 174.195305775851,63.16154432715848 180.1130865626037,56.930802130606025 180.4948788722977,36.57694684062153 171.71365576889366,31.800000000046566 167.13214806187898,32.83846740331501 163.88691343646497,38.23849164159037 162.55064035672694,57.96926013380289 167.13214806187898,63.16154432715848 172.28634423203766,64.19999999995343 179.73129425384104,58.176951688248664 181.44935964420438,38.86157068586908 175.91337116528302,32.00769351166673 169.04110960662365,31.800000000046566 164.84139420930296,34.91540104569867 162.74153651110828,58.59233474987559" stroke="#4dd2ff" stroke-linecap="round" stroke-linejoin="round" stroke-width="0.5"><title>2024-04-25 3.0km</title><desc>1714037269000</desc></polyline><polyline fill="none" points="18.985030212439597,95.74289350025356 26.075455888174474,104.11837206291966 35.19171747099608,101.25307944417 37.82530415058136,80.31431803223677 32.96329797245562,74.14286522264592 25.670288707129657,74.36327447416261 22.83411843702197,77.4490022638347 20.60569893848151,97.94696911447681 25.670288707129657,104.33877907227725 35.5968846520409,101.03267220407724 38.027887740172446,80.9755443520844 35.19171747099608,75.24491131515242 25.670288707129657,74.14286522264592 17.566945077851415,83.8408566901926 22.226367664523423,102.1347082387656 28.709042568691075,105.0 33.57104874495417,103.23674386180937 37.0149697875604,77.4490022638347 27.088373842649162,73.48163736891001 17.97211225889623,80.7551355951 21.213449710980058,101.03267220407724 25.467705115675926,104.5591860646382 32.76071438193321,103.45715093635954 37.0149697875604,98.16737658483908 38.027887740172446,80.09390922542661 33.57104874495417,73.70204667025246 26.885790252126753,73.48163736891001 22.42895125411451,77.4490022638347 20.20053175650537,96.62452394352295 25.467705115675926,104.33877907227725 35.79946824256331,100.59185767453164 38.027887740172446,79.65309156337753 30.937462066300213,73.26122805150226 21.821200483478606,78.55104711977765 19.795364575460553,97.50615412299521 25.467705115675926,104.5591860646382 34.583966698497534,102.79592966171913 38.23047133162618,80.31431803223677 32.15296361036599,73.04081871779636 23.03670202754438,76.34695699531585 20.20053175650537,96.8449315126054 25.467705115675926,104.11837206291966 34.98913388047367,101.69389387476258 38.43305492307991,81.8571792144794 36.812386197037995,75.46532048401423 29.114209749735892,72.60000000009313 23.03670202754438,76.78777515236288 20.60569893848151,98.38778403890319 26.683206660673022,104.5591860646382 36.407219015061855,100.59185767453164 38.027887740172446,79.21227383520454 30.937462066300213,73.04081871779636 22.023784074001014,77.66941126761958 20.20053175650537,99.48982106358744 28.303875385783613,104.5591860646382 36.609802606515586,99.48982106358744 37.42013696953654,77.4490022638347 29.721960521303117,73.04081871779636 22.023784074001014,78.33063818141818 20.60569893848151,99.04900630260818 27.290957432240248,104.33877907227725 36.407219015061855,99.48982106358744 37.62272056005895,78.33063818141818 28.91162615828216,73.04081871779636 22.42895125411451,77.66941126761958 20.60569893848151,99.04900630260818 29.51937693078071,105.0 36.609802606515586,98.16737658483908 37.82530415058136,78.33063818141818 28.709042568691075,73.26122805150226 22.023784074001014,79.43268270744011 20.808282529003918,99.04900630260818 29.114209749735892,104.33877907227725 36.609802606515586,98.608191476902 38.027887740172446,79.21227383520454 34.38138310890645,74.14286522264592 28.506458977237344,73.26122805150226 22.023784074001014,79.21227383520454 22.023784074001014,100.37145038554445" stroke="#4dd2ff" stroke-linecap="round" stroke-linejoin="round" stroke-width="0.5"><title>2024-04-22 4.9km</title><desc>1713776322000</desc></polyline><polyline fill="none" points="55.084447234869,82.60004189261235 56.55505387671292,98.80003037978895 65.19486789777875,103.40000921627507 70.52581697329879,98.0000332519412 70.89346863422543,78.40002885367721 61.33452546223998,73.6000058723148 55.81975055672228,80.60003650654107 55.81975055672228,100.40002391603775 60.415396311320364,104.20000472804531 66.48164870776236,104.40000356826931 71.81259778421372,97.60003459849395 71.62877195421606,77.0000230409205 62.25365461409092,73.80000700219534 56.00357638578862,80.00003459933214 56.00357638578862,100.40002391603775 59.12861549947411,103.60000811656937 66.84930036962032,104.20000472804531 71.62877195421606,98.80003037978895 72.36407527513802,77.60002562194131 64.27573874592781,73.20000356808305 56.7388797076419,78.40002885367721 54.716795574873686,97.60003459849395 57.65800885763019,103.00001137075014 63.54043542500585,104.60000239405781 71.4449461242184,99.00002962374128 72.73172693606466,79.00003112037666 63.90808708500117,73.80000700219534 56.37122804671526,79.00003112037666 55.268273065797985,98.6000311197713 58.57713800948113,103.20001030131243 64.27573874592781,104.60000239405781 71.62877195421606,98.6000311197713 72.36407527513802,77.80002645240165 64.64339040685445,73.20000356808305 56.37122804671526,79.4000325568486 55.6359247257933,100.00002562161535 59.31244133040309,103.80000700172968 65.74634538777173,104.60000239405781 71.9964236151427,98.2000325564295 72.36407527513802,78.00002726796083 64.09191291593015,73.6000058723148 58.57713800948113,75.60001649521291 56.1874022167176,79.80003393325023 54.90062140394002,97.80003393255174 57.841834688559175,102.80001242551953 63.17278376407921,105.0 71.62877195421606,98.80003037978895 72.91555276606232,78.40002885367721 64.64339040685445,73.6000058723148 56.37122804671526,79.20003184583038 55.084447234869,98.80003037978895 63.35660959407687,105.0 71.07729446422309,100.40002391603775 73.46703025698662,82.80004234937951 71.9964236151427,77.0000230409205 68.13608118053526,74.40001030103303 57.65800885763019,76.4000203255564 54.532969743944705,96.20003884029575 57.841834688559175,102.60001346538775 64.27573874592781,104.60000239405781 69.60668782144785,101.80001747468486 73.46703025698662,82.80004234937951 69.23903616145253,74.40001030103303 59.12861549947411,74.80001242598519 55.6359247257933,80.60003650654107 55.6359247257933,100.6000230407808 62.988957934081554,105.0 68.68755867052823,103.00001137075014 71.9964236151427,97.80003393255174 73.09937859605998,80.20003525004722 64.82721623685211,72.5999999998603 56.55505387671292,78.60002962453291 54.90062140394002,98.6000311197713 63.54043542500585,105.0 71.62877195421606,99.60002726712264 73.09937859605998,79.80003393325023 65.19486789777875,73.6000058723148 56.1874022167176,78.40002885367721 54.532969743944705,96.60003770329058" stroke="#4dd2ff" stroke-linecap="round" stroke-linejoin="round" stroke-width="0.5"><title>2024-04-21 5.0km</title><desc>1713688153000</desc></polyline><polyline fill="none" points="100.58535809395835,78.8890206416254 101.24388594925404,83.58585991495056 103.21946951653808,84.22271788137732 105.04871355975047,83.18782349221874 106.14625998586416,75.54549530753866 105.12188332155347,73.55529666872462 102.85362070798874,73.07764844142366 101.24388594925404,74.27176860760665 100.292679047212,81.7548911383492 102.48777189897373,84.14311065652873 105.48773213010281,82.55096490652068 106.14625998586416,75.14745587762445 103.95116713363677,72.99804038286675 101.0243766643107,74.66980836493894 100.365848809015,81.9937133314088 102.85362070798874,84.22271788137732 105.48773213010281,82.47135755646741 106.14625998586416,75.14745587762445 103.43897880148143,72.99804038286675 101.0243766643107,74.82902422646293 100.365848809015,82.07332071691053 102.85362070798874,84.22271788137732 105.56090189190581,82.31214283849113 106.14625998586416,75.06784797384171 103.65848808689043,72.99804038286675 101.0243766643107,74.74941629864043 100.43901857035235,82.23253547068452 102.85362070798874,84.22271788137732 105.56090189190581,82.31214283849113 106.14625998586416,75.14745587762445 103.21946951653808,72.99804038286675 100.95120690250769,74.98824006388895 100.43901857035235,82.39175020041876 102.85362070798874,84.22271788137732 105.48773213010281,82.47135755646741 106.07309022406116,75.06784797384171 103.36580903967842,72.99804038286675 100.95120690250769,74.82902422646293 100.365848809015,82.1529280966497 102.99996023112908,84.22271788137732 105.56090189190581,82.1529280966497 106.07309022406116,75.06784797384171 103.14629975473508,72.99804038286675 100.95120690250769,74.90863214811543 100.58535809395835,82.71017958852462 102.63411142257974,84.22271788137732 104.97554379794747,83.34703807922779 106.07309022406116,76.50078933208715 104.53652522759512,73.2368645411334 101.1707161879167,74.43098452826962 100.292679047212,81.67528372863308 101.82924404367805,83.90428894589422 103.73165784822777,84.14311065652873 105.26822284469381,82.86939424701268 106.14625998586416,75.46588743350003 104.31701594218612,73.07764844142366 101.39022547286004,74.03294468153035 100.73169761756435,82.9490015671472 103.73165784822777,84.14311065652873 105.63407165324315,81.67528372863308 106.07309022406116,74.90863214811543 102.99996023112908,73.07764844142366 100.87803714070469,75.06784797384171 100.58535809395835,82.71017958852462 102.99996023112908,84.22271788137732 105.48773213010281,82.47135755646741 106.14625998586416,75.14745587762445 103.58531832508743,72.99804038286675 100.95120690250769,74.90863214811543 100.58535809395835,82.71017958852462 103.51214856328443,84.14311065652873 105.63407165324315,81.67528372863308 105.78041117684916,74.35137657099403 103.65848808689043,72.99804038286675 101.3170557115227,74.11255266272929 100.292679047212,81.67528372863308 101.53656499646604,83.82468169700587 98.31709547992796,87.00896700378507 98.39026524219662,91.30773705424508 92.9025331120938,91.78537709917873 91.73181692464277,92.9794762734673 90.48793097492307,100.94010319659719 87.487970743794,103.80591431242647 89.75623335782439,105.0 87.26846145838499,103.64670278632548 90.56110073672608,100.06443714973284 91.58547740103677,92.74065654573496 98.24392571859062,90.9097035197774 99.63415119145066,85.17800411651842 108.19501331401989,86.2128965703887 112.73153854161501,81.9937133314088 108.70720164617524,84.85957546683494 105.85358093865216,84.70036110613728 106.07309022406116,74.5902004254167 105.19505308289081,73.07764844142366 103.07312999293208,72.59999999997672 100.65852785576135,74.82902422646293 100.073169761803,82.71017958852462 103.14629975473508,84.38193231343757 105.41456236829981,81.9937133314088 105.92675070045516,74.51059247984085 104.97554379794747,72.91843231831444 102.48777189897373,72.83882424753392 100.51218833262101,75.22706377547001 100.073169761803,83.18782349221874 103.07312999293208,84.30232510052156 105.19505308289081,81.91410593950422 105.85358093865216,74.43098452826962 104.82920427434146,72.99804038286675 102.56094166077673,72.83882424753392 100.146339523606,76.18235808593454 99.70732095325366,82.07332071691053 100.65852785576135,83.90428894589422 102.99996023112908,84.38193231343757 105.04871355975047,82.71017958852462 105.92675070045516,75.38627955352422 104.02433689543977,72.67960808851058 100.87803714070469,74.11255266272929 99.70732095325366,82.1529280966497 101.90241380501539,84.22271788137732 105.19505308289081,82.07332071691053 105.99992046225816,74.82902422646293 104.90237403614447,72.99804038286675 103.43897880148143,72.67960808851058 100.0,75.70471103792079 99.56098142964765,82.55096490652068 102.78045094618574,84.38193231343757 105.26822284469381,81.9937133314088 105.70724141551182,74.43098452826962 103.29263927834108,72.67960808851058 100.292679047212,74.98824006388895 99.70732095325366,82.31214283849113 102.48777189897373,84.46153952059103 105.26822284469381,81.91410593950422 105.70724141551182,74.35137657099403 103.21946951653808,72.67960808851058 100.43901857035235,74.51059247984085 99.70732095325366,82.07332071691053 102.48777189897373,84.30232510052156 105.12188332155347,82.47135755646741 105.78041117684916,74.51059247984085 103.21946951653808,72.67960808851058 100.146339523606,75.06784797384171 99.85366047685966,82.1529280966497 102.56094166077673,84.30232510052156 105.19505308289081,82.07332071691053 105.92675070045516,74.51059247984085 103.58531832508743,72.67960808851058 100.365848809015,74.51059247984085 99.41464190604165,81.91410593950422 102.34143237536773,84.30232510052156 105.19505308289081,82.55096490652068 105.70724141551182,74.51059247984085 102.99996023112908,72.67960808851058 100.219509285409,74.98824006388895 99.63415119145066,82.47135755646741 102.48777189897373,84.30232510052156 105.26822284469381,82.07332071691053 105.78041117684916,74.74941629864043 103.29263927834108,72.75921617099084 100.292679047212,74.43098452826962 99.48781166831031,81.67528372863308 102.34143237536773,84.14311065652873 105.26822284469381,81.9937133314088 105.85358093865216,74.5902004254167 103.14629975473508,72.67960808851058 100.365848809015,74.51059247984085 99.56098142964765,81.91410593950422 102.4146021376364,84.22271788137732 105.34139260649681,82.23253547068452 105.92675070045516,74.98824006388895 103.51214856328443,72.75921617099084 100.43901857035235,74.51059247984085 99.56098142964765,81.91410593950422 102.19509285222739,84.38193231343757 105.19505308289081,82.1529280966497 106.07309022406116,74.82902422646293 105.12188332155347,73.15725649421802 103.29263927834108,72.75921617099084 100.292679047212,74.43098452826962 99.56098142964765,81.9937133314088 102.19509285222739,84.22271788137732 105.34139260649681,82.07332071691053 105.70724141551182,74.5902004254167 104.97554379794747,73.2368645411334 102.92679046932608,72.75921617099084 100.073169761803,74.5902004254167 99.70732095325366,82.1529280966497 102.70728118391708,84.22271788137732 105.12188332155347,82.55096490652068 105.70724141551182,74.27176860760665 103.07312999293208,72.67960808851058 100.43901857035235,73.31647258187877 99.56098142964765,74.66980836493894" stroke="#4dd2ff" stroke-linecap="round" stroke-linejoin="round" stroke-width="0.5"><title>2024-04-18 12.3km</title><desc>1713432540000</desc></polyline><polyline fill="none" points="144.63613879680634,97.00803377921693 143.4449472380802,76.92002100637183 135.30513825826347,73.03200239152648 129.15064854174852,78.86402835068293 127.95945698395371,99.8160244319588 134.11394669953734,104.56800239090808 139.6728406380862,103.48800808703527 143.04788338579237,98.95202759816311 143.84201109036803,76.92002100637183 139.07724485825747,73.03200239152648 133.51835092157125,73.24800356314518 128.7535846894607,78.64802759885788 127.95945698395371,99.16802683123387 131.53303165826946,104.13600471802056 136.89339366927743,105.0 143.24641531147063,98.08803050662391 144.43760686926544,78.86402835068293 136.29779789038002,72.60000000009313 128.7535846894607,79.08002908574417 127.76092505734414,98.95202759816311 133.31981899496168,104.56800239090808 142.45228760596365,100.03202359890565 144.43760686926544,80.16003251913935 142.45228760596365,75.40801438945346 136.29779789038002,72.60000000009313 128.95211661513895,78.43202683120035 127.76092505734414,99.16802683123387 133.51835092157125,104.78400120371953 139.6728406380862,103.27200917783193 142.65081953257322,98.95202759816311 143.84201109036803,78.43202683120035 135.10660633258522,72.60000000009313 129.15064854174852,78.86402835068293 127.95945698395371,99.38402604707517 136.09926596377045,105.0 142.8493514591828,98.5200290849898 143.4449472380802,78.00002524768934 139.6728406380862,74.11200808733702 132.5256912894547,73.68000585725531 129.15064854174852,79.08002908574417 128.35652083624154,100.03202359890565 137.4889894472435,104.13600471802056 142.8493514591828,96.14403610560112 143.24641531147063,77.35202275170013 137.88605330046266,73.4640047182329 132.5256912894547,74.32800917816348 128.35652083624154,84.69604252954014 129.9447762472555,102.84001131076366 136.49632981605828,104.3520035627298 141.658159901388,100.46402188646607 143.84201109036803,79.94403186463751 141.4596279738471,75.40801438945346 136.09926596377045,73.68000585725531 129.15064854174852,76.05601732223295 127.36386120412499,80.3760331578087" stroke="#4dd2ff" stroke-linecap="round" stroke-linejoin="round" stroke-width="0.5"><title>2024-04-17 3.1km</title><desc>1713344929000</desc></polyline><polyline fill="none" points="165.02035935316235,79.89003381226212 163.1591218477115,95.68503971933387 167.4399681109935,101.55751841305755 172.46530937589705,102.97501136153005 178.42126939352602,98.7225302895531 180.46863064914942,79.48503244831227 173.7681756298989,73.61250586993992 165.76485435571522,79.08003102452494 164.64811185188591,98.11503244866617 171.5346906222403,103.3800092106685 178.79351689480245,98.7225302895531 180.28250689897686,79.89003381226212 173.2098043775186,73.61250586993992 165.76485435571522,79.89003381226212 164.46198810171336,97.50753447087482 171.1624431218952,102.77251241425984 178.79351689480245,98.31753174355254 180.28250689897686,80.0925344710704 174.698794381693,74.22000921051949 166.13710185606033,78.67502954020165 164.46198810171336,97.91253313724883 171.34856687206775,102.97501136153005 178.79351689480245,98.11503244866617 180.46863064914942,80.49753574375063 173.95429938100278,74.01750811212696 166.13710185606033,78.87753028981388 164.64811185188591,97.10253574256785 166.69547310844064,100.9500212080311 172.09306187462062,102.97501136153005 178.79351689480245,98.31753174355254 180.28250689897686,78.87753028981388 172.2791856257245,73.8150069990661 166.13710185606033,78.87753028981388 164.8342356029898,98.11503244866617 171.90693812444806,103.58250811230391 178.60739314369857,98.52003102377057 180.46863064914942,79.48503244831227 173.7681756298989,73.8150069990661 166.50934935826808,79.08003102452494 164.46198810171336,97.10253574256785 167.81221561133862,101.96251647430472 172.83755687717348,103.17751029343344 178.79351689480245,98.31753174355254 179.91025939770043,79.28253174410202 172.6514331260696,73.8150069990661 166.50934935826808,79.08003102452494 165.02035935316235,97.10253574256785 169.85957686789334,102.97501136153005 178.42126939352602,98.52003102377057 180.46863064914942,80.49753574375063 173.58205187879503,73.8150069990661 166.50934935826808,78.67502954020165 164.8342356029898,96.69753695488907 169.85957686789334,102.97501136153005 178.42126939352602,98.92502953950316 180.84087815135717,80.29503511474468 174.3265468813479,74.42251029377803 166.50934935826808,78.67502954020165 164.46198810171336,97.30503511428833 170.97631937079132,103.3800092106685 178.60739314369857,98.31753174355254 180.28250689897686,79.28253174410202 173.95429938100278,74.01750811212696 169.1150818662718,75.03001345251687 166.50934935826808,79.08003102452494 164.8342356029898,98.52003102377057 171.72081437334418,103.3800092106685 178.979640644975,97.91253313724883 180.28250689897686,79.08003102452494 172.6514331260696,74.22000921051949 166.13710185606033,79.28253174410202 165.02035935316235,98.11503244866617 171.5346906222403,102.97501136153005 178.79351689480245,97.71003381139599 180.28250689897686,79.48503244831227 173.7681756298989,74.01750811212696 166.50934935826808,78.47252877545543 164.64811185188591,98.31753174355254 170.79019562155008,103.17751029343344 178.23514564242214,98.92502953950316 180.46863064914942,79.68753313785419 172.83755687717348,74.01750811212696 165.39260685443878,77.86502638924867 163.1591218477115,97.30503511428833 168.55671061389148,103.7850069985725 174.14042313024402,103.98750587040558 179.35188814625144,100.3425238665659 181.02700190152973,83.94004411320202 176.74615563824773,73.20750356768258 171.72081437334418,72.60000000009313 166.50934935826808,76.4475202918984 162.7868743473664,94.0650433555711 164.8342356029898,102.5700134516228 169.4873293666169,105.0 175.8155368855223,103.7850069985725 181.21312565170228,96.09003865951672" stroke="#4dd2ff" stroke-linecap="round" stroke-linejoin="round" stroke-width="0.5"><title>2024-04-15 5.9km</title><desc>1713172666000</desc></polyline><polyline fill="none" points="31.11737485276535,116.83157368400134 31.337424842640758,123.37547429912956 32.95112476637587,124.89173822582234 35.07827466586605,124.73213159822626 36.98537457594648,122.4976363038877 37.352124558296055,115.23549427377293 34.051374714355916,113.40000000002328 31.557474832050502,116.03353427746333 31.264074846170843,122.97645711805671 32.584374783560634,124.73213159822626 34.41812469717115,124.97154153051088 37.058724572882056,122.81685020396253 37.13207456935197,114.59706184116658 34.41812469717115,113.4798041646718 32.07092480780557,114.99608215631451 31.11737485276535,122.41783281392418 32.877774769905955,124.81193491484737 35.44502464868128,124.73213159822626 37.13207456935197,123.05626056628535 37.645524544641376,115.63451435038587 35.07827466586605,113.55960832315031 31.63082482898608,115.71431834768737 31.044024856295437,122.09861879458185 33.24452475272119,124.97154153051088 36.765324586071074,123.61488453607308 37.645524544641376,115.8739263243624 35.591724642086774,113.71921662223758 32.07092480780557,114.99608215631451 31.11737485276535,122.65724326577038 33.171174756251276,124.97154153051088 36.54527459666133,123.9340981017449 37.71887454111129,116.35275011172052 36.25187461078167,113.87882489763433 34.49147469364107,113.55960832315031 32.14427480427548,114.836474048323 31.190724849700928,122.25822581618559 33.024474762845784,124.89173822582234 36.54527459666133,123.9340981017449 37.13207456935197,114.59706184116658 33.757974728476256,113.71921662223758 31.704174824990332,115.8739263243624 31.337424842640758,123.05626056628535 34.49147469364107,124.97154153051088 37.058724572882056,122.89665366394911 37.49882455216721,115.71431834768737 34.8582246764563,113.63941247557523 31.704174824990332,115.71431834768737 31.190724849700928,123.05626056628535 33.83132472494617,124.97154153051088 36.83867458300665,122.97645711805671 37.49882455216721,115.79412233905168 34.63817468704656,113.4798041646718 31.77752482192591,115.55471034691436 31.190724849700928,123.13606400846038 33.611274735070765,124.97154153051088 35.738424635026604,124.65232827543514 37.058724572882056,122.97645711805671 37.57217454863712,115.55471034691436 34.78487467998639,113.55960832315031 31.77752482192591,115.63451435038587 31.337424842640758,122.81685020396253 33.757974728476256,124.97154153051088 36.765324586071074,123.53508112957934 37.645524544641376,115.63451435038587 34.78487467998639,113.55960832315031 31.850874818395823,115.31529830105137 31.264074846170843,122.57743978808867 33.464574742130935,124.97154153051088 36.765324586071074,123.45527771738125 37.57217454863712,115.95373030402698 35.22497465927154,113.63941247557523 31.997574811335653,115.07588620146271 31.190724849700928,122.97645711805671 33.611274735070765,125.05134482949506 36.83867458300665,123.53508112957934 37.57217454863712,115.8739263243624 35.22497465927154,113.63941247557523 31.11737485276535,115.23549427377293 30.677274873945862,123.37547429912956 28.91687495680526,126.40799999731826 29.870424911845475,131.83460341655882 23.34227521996945,133.27105264249258 21.43517530988902,141.01188462181017 18.28112545888871,144.44336949114222 22.16867527551949,145.79999999998836" stroke="#4dd2ff" stroke-linecap="round" stroke-linejoin="round" stroke-width="0.5"><title>2024-04-14 5.4km</title><desc>1713087921000</desc></polyline><polyline fill="none" points="54.37727080285549,135.22044733911753 59.03669757116586,144.47755799465813 67.74779979325831,144.91837206226774 72.20464278943837,137.6449315128848 72.4072265625,116.92654789239168 63.69612434133887,114.061228051316 57.82119493652135,119.79186494578607 56.200524754822254,139.6285988977179 59.64444889035076,144.03674386139028 65.11421074904501,145.13877907162532 71.79947524424642,139.1877840384841 73.21756165195256,118.91022922634147 64.30387565959245,113.62040936644189 57.61861116345972,120.23268270725384 56.200524754822254,139.84900630265474 63.49354056827724,144.91837206226774 71.59689147211611,140.28982106223702 73.82531297020614,121.11431803135201 66.73488092888147,113.62040936644189 58.428946253843606,118.02859324240126 56.60569230094552,139.40819147625007 63.69612434133887,145.35918606398627 71.39430769905448,140.9510430789087 73.42014542594552,120.45309156295843 65.72196206636727,113.8408187169116 58.22636248078197,118.91022922634147 55.997940982691944,138.96737658441998 62.48062170576304,145.80000000004657 71.59689147211611,140.51022841827944 73.82531297020614,121.33472682139836 67.54521602019668,114.061228051316 58.428946253843606,118.68982025515288 56.40310852788389,138.52656162623316 62.885789250954986,144.91837206226774 71.39430769905448,141.17145038512535 73.62272919714451,120.45309156295843 65.92454584036022,113.62040936644189 58.428946253843606,118.46941126766615 56.40310852788389,138.7469691131264 61.26511907018721,144.91837206226774 68.15296733845025,144.47755799465813 71.79947524424642,140.73063575685956 73.42014542594552,120.01227383501828 65.92454584036022,113.62040936644189 58.428946253843606,118.24900226318277 56.60569230094552,139.84900630265474 63.49354056827724,145.80000000004657 72.20464278943837,139.84900630265474 73.42014542594552,118.91022922634147 65.51937829423696,113.62040936644189 57.82119493652135,119.35104711935855 55.997940982691944,139.40819147625007 63.69612434133887,145.35918606398627 71.79947524424642,139.6285988977179 73.62272919714451,120.01227383501828 65.51937829423696,113.39999999990687 58.22636248078197,118.24900226318277 56.40310852788389,137.86533906543627 61.26511907018721,144.91837206226774 71.79947524424642,140.51022841827944 73.42014542594552,118.91022922634147 66.93746470287442,113.62040936644189 58.22636248078197,118.24900226318277 56.60569230094552,139.40819147625007 62.0754541605711,145.13877907162532 71.39430769905448,140.9510430789087 73.62272919714451,121.33472682139836 66.93746470287442,113.39999999990687 58.22636248078197,118.02859324240126 56.40310852788389,138.7469691131264 62.885789250954986,145.13877907162532 71.39430769905448,140.9510430789087 73.82531297020614,119.79186494578607 68.76071865577251,114.28163736849092 61.670286615379155,114.28163736849092 55.39018966536969,127.72657455340959 55.187605892308056,138.7469691131264 54.17468702979386,134.3388162360061" stroke="#4dd2ff" stroke-linecap="round" stroke-linejoin="round" stroke-width="0.5"><title>2024-04-13 4.9km</title><desc>1713000859000</desc></polyline><polyline fill="none" points="90.61082419939339,127.0204285257496 92.12826675269753,141.87900113058276 96.68059441447258,144.76815873221494 103.69876622501761,144.3554221172817 106.73365133162588,136.7197836015839 107.30269228946418,118.3528908812441 98.95675824489444,114.63822355424054 92.69730771053582,121.24207312217914 91.55922579579055,138.9898405028507 95.16315186116844,143.11721190228127 100.66388111747801,143.73631707951427 106.35429069399834,138.78347177105024 107.49237260874361,118.3528908812441 99.14643856324255,114.63822355424054 92.69730771053582,122.27392318914644 91.93858643434942,138.9898405028507 99.33611888345331,144.1490537871141 106.16461037378758,139.40257792081684 108.0614135665819,120.41659279051237 101.23292207531631,114.43185300007463 93.64570930600166,119.17837182991207 92.12826675269753,138.57710302318446 98.76707792561501,143.94268544064835 106.16461037378758,138.9898405028507 108.0614135665819,120.21022266941145 101.42260239459574,114.22548243100755 93.64570930600166,119.59111221227795 92.12826675269753,138.9898405028507 99.14643856324255,144.1490537871141 106.16461037378758,139.60894660674967 108.0614135665819,119.59111221227795 100.28452047891915,114.22548243100755 93.45602898858488,120.00385253224522 92.50762739218771,140.22805257118307 101.61228271387517,143.94268544064835 106.73365133162588,137.75162787898444 107.11301197018474,115.87644655187614 97.43931569159031,113.81274124630727 92.12826675269753,120.82933298684657 90.99018483888358,140.22805257118307 95.73219281807542,144.97452701674774 100.66388111747801,145.38726353924721 107.87173324730247,139.1962092195172 108.25109388493001,116.90829862607643 99.33611888345331,113.4000000001397 91.93858643434942,119.59111221227795 90.61082419939339,140.22805257118307 94.21475026477128,145.1808952856809 100.47420079819858,145.59363177744672 108.0614135665819,138.37073426041752 108.82013484369963,118.14652060554363 98.38771728798747,114.01911184657365 91.36954547744244,120.6229628964793 90.61082419939339,140.0216839313507 98.00835664849728,145.80000000004657 107.11301197018474,140.64078980335034 109.76853643916547,121.03570306254551 105.21620877832174,114.01911184657365 95.73219281807542,114.84459409234114 91.36954547744244,121.65481319534592 92.12826675269753,140.43442119495012 101.04324175603688,144.56179043278098 106.54397101234645,139.1962092195172 108.25109388493001,120.6229628964793 104.8368481406942,115.46370561467484 99.9051598412916,114.01911184657365 92.88698803074658,120.00385253224522 92.31794707290828,138.78347177105024 98.95675824489444,143.94268544064835 106.54397101234645,139.1962092195172 108.0614135665819,120.21022266941145 101.23292207531631,114.22548243100755 93.26634866837412,120.00385253224522 92.31794707290828,138.9898405028507 98.00835664849728,144.3554221172817 104.07812686264515,143.11721190228127 106.92333165090531,138.9898405028507 108.44077420420945,120.21022266941145 101.61228271387517,114.22548243100755 92.12826675269753,120.41659279051237 90.23146356176585,137.13252135855146" stroke="#4dd2ff" stroke-linecap="round" stroke-linejoin="round" stroke-width="0.5"><title>2024-04-12 5.1km</title><desc>1712913892000</desc></polyline><polyline fill="none" points="120.10000000032596,121.11380595446099 119.80000000004657,125.68334465811495 121.72000000020489,127.83754746214254 124.72000000020489,126.46669174759882 125.50000000023283,120.46101275773253 124.95999999996275,119.09014545497485 123.28000000026077,118.30679174349643 120.82000000006519,119.6776602769387 120.16000000014901,125.74862360896077 121.72000000020489,127.64171106333379 124.78000000002794,126.33613394811982 125.43999999994412,120.46101275773253 123.5800000000745,118.37207124638371 120.94000000040978,119.54710146185244 120.22000000020489,125.68334465811495 122.20000000018626,127.77226866740966 124.66000000014901,126.66252840991365 125.50000000023283,120.7221300950041 123.5800000000745,118.30679174349643 120.94000000040978,119.54710146185244 120.22000000020489,125.61806570226327 121.66000000014901,127.64171106333379 124.66000000014901,126.66252840991365 125.3800000003539,120.33045405976009 123.46000000019558,118.43735074438155 120.94000000040978,119.48182204685872 120.22000000020489,125.35694983002031 121.4800000002142,127.51115343958372 123.28000000026077,127.64171106333379 124.78000000002794,126.46669174759882 125.43999999994412,120.78740941709839 124.84000000008382,119.02486600581324 121.72000000020489,118.56790972547606 120.64000000013039,120.19989534234628 119.80000000004657,126.53197063994594 126.16000000014901,128.8820075134281 128.19999999995343,128.22922012774507 130.7200000002049,125.74862360896077 134.38000000012107,126.92364389169961 135.21999999997206,128.6208926178515 135.04000000003725,133.32094878546195 138.45999999996275,137.89042356901336 144.34000000008382,140.04459623992443 150.39999999990687,140.893208256457 152.19999999995343,139.71820678305812 152.02000000001863,128.75145007536048 151.2399999999907,129.07784363382962 151.0,131.23203805822413" stroke="#4dd2ff" stroke-linecap="round" stroke-linejoin="round" stroke-width="0.5"><title>2024-04-11 3.0km</title><desc>1712828151000</desc></polyline><polyline fill="none" points="164.21882730163634,120.2980959941633 163.450316417031,139.320030054776 166.33223223220557,144.12775113014504 171.71180841792375,145.59096894646063 180.5496835820377,139.94712457689457 181.8945776289329,119.46196405380033 173.82521334849298,113.39999999990687 165.94797678943723,117.37163310707547 163.64244413841516,138.90196696203202 169.59840348828584,145.1729067915585 176.5150014422834,144.33678229385987 180.16542814020067,140.5742189588491 182.08670534938574,120.92519478569739 175.74649055860937,114.0271003395319 169.79053120873868,114.44516715477221 165.7558490689844,118.62583186267875 163.0660609761253,138.69293539156206 170.94329753424972,145.80000000004657 180.16542814020067,141.4103445818182 182.66308851260692,123.85165395168588 181.8945776289329,117.78969942149706 178.2441509310156,114.65420053829439 170.94329753424972,113.60903346235864 166.5243599517271,115.90840051393025 161.33691148739308,123.85165395168588 163.64244413841516,139.110998515971 167.48499855678529,144.75484457355924 174.78585195261985,145.38193787634373 179.97330041974783,140.99228180199862 181.70244990848005,122.38842475181445 176.8992568841204,114.0271003395319 171.1354252556339,113.39999999990687 165.94797678943723,116.53550029057078 163.64244413841516,138.90196696203202 168.8298926036805,145.1729067915585 175.74649055860937,144.9638756904751 180.74181130342185,139.110998515971 182.47096079215407,121.76132628857158 179.5890449769795,116.32646704697981 174.01734106987715,113.60903346235864 165.7558490689844,117.16259992634878 163.450316417031,138.48390380549245 169.02202032506466,144.9638756904751 175.74649055860937,144.75484457355924 180.9339390238747,139.320030054776 182.2788330707699,121.76132628857158 177.09138460457325,114.0271003395319 167.29287083633244,114.86323390691541 164.41095502115786,120.50712894042954 164.21882730163634,141.20131319970824 173.63308562804013,145.38193787634373 180.16542814020067,139.320030054776 180.9339390238747,120.50712894042954 178.2441509310156,115.69936722400598 172.8645747443661,114.44516715477221 165.94797678943723,119.88003005506471 164.41095502115786,138.69293539156206 172.28819158114493,144.9638756904751 179.78117269836366,139.94712457689457 181.12606674525887,121.97035912494175 179.20478953514248,116.9535667297896 174.01734106987715,114.44516715477221 165.94797678943723,119.67099706199951 163.450316417031,138.90196696203202 170.94329753424972,145.80000000004657 176.13074600044638,145.38193787634373 178.43627865239978,141.4103445818182 180.9339390238747,121.55229343636893 174.78585195261985,114.86323390691541 169.98265892919153,115.28130059666 166.1401045108214,119.88003005506471 164.41095502115786,138.0658405877184 171.1354252556339,144.5458134417422 179.20478953514248,140.99228180199862 180.9339390238747,120.50712894042954 174.40159651171416,114.65420053829439 166.33223223220557,119.88003005506471 164.60308274347335,138.48390380549245 170.94329753424972,144.75484457355924 179.39691725652665,139.529061578447 180.9339390238747,120.50712894042954 173.63308562804013,114.86323390691541 165.94797678943723,120.08906303253025 164.41095502115786,138.69293539156206 172.4803193025291,144.9638756904751 179.20478953514248,140.36518751387484 180.74181130342185,119.88003005506471 174.20946879126132,114.86323390691541 166.1401045108214,118.83486493374221 163.83457185979933,138.48390380549245 170.1747866505757,144.75484457355924 179.20478953514248,140.99228180199862 181.70244990848005,121.55229343636893 174.40159651171416,114.86323390691541 169.40627576690167,115.69936722400598 164.41095502115786,121.34326056879945 162.87393325474113,138.0658405877184" stroke="#4dd2ff" stroke-linecap="round" stroke-linejoin="round" stroke-width="0.5"><title>2024-04-09 5.6km</title><desc>1712653834000</desc></polyline><polyline fill="none" points="19.478105290792882,160.10946269729175 19.103516512550414,179.26418469287455 22.28752112854272,184.96982052829117 26.782586470246315,185.78491038572975 32.026829368434846,184.766048025107 35.77271715272218,179.8755033898633 37.45836665574461,159.70191395725124 34.27436203882098,155.42264850670472 28.468235973268747,154.20000000018626 20.789166014641523,160.31323704426177 19.478105290792882,180.07927625835873 27.906352805905044,186.19245522329584 35.77271715272218,179.8755033898633 37.08377787657082,160.7207856932655 32.58871253579855,155.21887379395775 28.65553036238998,154.8113243218977 20.789166014641523,160.7207856932655 18.728927733376622,178.85663881897926 22.28752112854272,184.5622755077202 27.719058415852487,186.19245522329584 35.960011541843414,179.67173050623387 37.64566104486585,161.53588280710392 30.52847425453365,154.40377478930168 23.411287463270128,155.83019788726233 20.22728284727782,159.9056883349549 19.103516512550414,180.4868219497148 27.157175248488784,185.98868281231262 35.585422763600945,180.4868219497148 37.45836665574461,159.9056883349549 34.83624520711601,156.0339725543745 29.03011914063245,154.40377478930168 20.414577236399055,160.31323704426177 19.103516512550414,180.89436757937074 27.157175248488784,186.60000000009313 35.39812837447971,180.89436757937074 37.45836665574461,159.49813956487924 28.842824751511216,154.60754956374876 20.789166014641523,159.2943651569076 18.541633343324065,180.07927625835873 24.90964257810265,186.60000000009313 29.966591087169945,185.98868281231262 35.02353959530592,180.89436757937074 37.27107226662338,159.9056883349549 34.83624520711601,156.0339725543745 28.468235973268747,154.40377478930168 20.22728284727782,160.51701137633063 18.91622212342918,180.89436757937074 22.100226739421487,185.17359301517718 27.157175248488784,186.39622761961073 35.39812837447971,181.09814037196338 37.64566104486585,160.51701137633063 35.210833984427154,156.237747205887 28.842824751511216,154.60754956374876 20.414577236399055,159.2943651569076 18.354338955134153,178.85663881897926 24.535053798928857,185.98868281231262 30.34117986448109,185.98868281231262 35.02353959530592,181.9132313884329 37.83295543398708,164.38872078526765 34.08706764969975,155.21887379395775 22.849404295906425,156.0339725543745 19.85269406903535,161.1283342805691 19.290810900740325,181.5056859103497 23.598581853322685,185.78491038572975 28.842824751511216,186.19245522329584 36.147305930033326,179.0604117643088 37.45836665574461,161.1283342805691 34.461656427942216,156.237747205887 27.157175248488784,154.40377478930168 20.22728284727782,159.9056883349549 18.541633343324065,180.07927625835873 26.96988085936755,186.60000000009313 35.585422763600945,180.89436757937074 37.45836665574461,160.31323704426177 35.39812837447971,156.64529646467417 29.03011914063245,154.20000000018626 23.411287463270128,156.237747205887 19.85269406903535,161.53588280710392 20.039988458156586,179.8755033898633 27.34446963761002,184.96982052829117 34.461656427942216,180.28304911172017 35.77271715272218,160.51701137633063 29.592002308927476,155.42264850670472 19.665399678982794,162.14720548246987 18.16704456601292,177.6340008310508" stroke="#4dd2ff" stroke-linecap="round" stroke-linejoin="round" stroke-width="0.5"><title>2024-04-08 5.0km</title><desc>1712568268000</desc></polyline><polyline fill="none" points="54.77373912092298,166.12642631609924 56.78341970779002,181.43192832311615 61.71627205982804,184.21473739854991 67.74531382136047,182.62456114101224 71.76467499602586,177.4564817319624 71.21658029127866,156.98283759551123 62.812461470253766,154.20000000018626 56.05262676719576,161.35586221376434 55.68723029643297,181.23315613530576 60.25468617770821,184.8110532492865 68.11071029212326,183.81719342363067 71.3992785261944,178.0527991000563 71.58197676204145,157.18161159800366 61.350875589065254,154.99509675358422 55.68723029643297,163.74114533537067 55.50453206244856,180.63683948107064 60.80278088338673,184.61228131409734 67.74531382136047,183.81719342363067 71.76467499602586,178.0527991000563 71.3992785261944,156.78406357811764 61.71627205982804,154.99509675358422 56.235325002111495,160.7595410987269 54.95643735677004,179.64297809358686 62.99515970610082,185.40736896684393 71.21658029127866,179.24543343414553 72.49546793755144,160.56076736422256 69.38959793932736,155.5914191622287 64.45674558822066,154.5975484070368 59.3411950012669,155.988967360463 56.600721472874284,160.36199361411855 55.50453206244856,180.23929497040808 58.793100295588374,184.21473739854991 65.91833146940917,184.61228131409734 71.3992785261944,179.24543343414553 71.94737323187292,158.5730291986838 65.73563323449343,154.3987742108293 56.78341970779002,159.76567227602936 55.13913559168577,179.24543343414553 58.24500558990985,183.81719342363067 62.812461470253766,184.8110532492865 71.03388205636293,180.43806723342277 72.86086440831423,161.35586221376434 70.30308911483735,156.58528954628855 64.09134911745787,154.99509675358422 58.42770382575691,157.7779335163068 55.86992853228003,162.74727762839757 55.50453206244856,182.22701692814007 58.42770382575691,185.40736896684393 64.82214205898345,185.60614084312692 71.03388205636293,179.0466610826552 72.86086440831423,160.16321984957904 64.63944382313639,154.79632258741185 56.78341970779002,159.9644460703712 54.59104088507593,180.0405226929579 60.985479118302464,186.40122819831595 71.03388205636293,179.44420577120036 72.67816617246717,160.56076736422256 69.2068997034803,155.39264504099265 64.45674558822066,154.5975484070368 56.41802323795855,160.36199361411855 55.321833826601505,180.0405226929579 63.72595264669508,185.00982517004013 71.03388205636293,178.64911633403972 72.49546793755144,159.16935080452822 64.63944382313639,154.99509675358422 56.41802323795855,160.7595410987269 55.13913559168577,179.24543343414553 58.793100295588374,183.81719342363067 64.27404735330492,185.00982517004013 71.21658029127866,178.64911633403972 72.49546793755144,159.16935080452822 69.2068997034803,155.5914191622287 62.264366765506566,154.99509675358422 55.68723029643297,163.34359829733148 55.13913559168577,182.028244799003 58.24500558990985,185.60614084312692 65.73563323449343,185.2085970758926 71.3992785261944,178.0527991000563 71.58197676204145,157.5791595580522 63.36055617686361,154.20000000018626 56.235325002111495,160.7595410987269 55.13913559168577,179.44420577120036 60.43738441262394,184.61228131409734 65.73563323449343,184.41350936354138 71.58197676204145,177.85402665939182 72.49546793755144,159.56689846678637 69.38959793932736,155.5914191622287 63.177857941016555,154.79632258741185 56.05262676719576,161.35586221376434 55.86992853228003,180.8356117135845 60.985479118302464,185.40736896684393 67.74531382136047,184.41350936354138 72.13007146771997,172.88471079966985 70.30308911483735,157.7779335163068 59.88928970694542,156.3865154988598 54.95643735677004,167.51783923245966 55.68723029643297,183.41964938864112 59.88928970694542,186.20245638210326 66.83182264585048,184.8110532492865 71.58197676204145,177.65525420289487 73.04356264322996,161.95218319515698 71.21658029127866,156.98283759551123 64.82214205898345,154.99509675358422 59.3411950012669,156.58528954628855 54.95643735677004,167.31906600343063 55.68723029643297,183.41964938864112 59.706591472029686,186.00368455052376 67.01452088076621,184.61228131409734 71.58197676204145,177.65525420289487 71.3992785261944,157.5791595580522 61.898970294743776,154.79632258741185 55.86992853228003,162.9460511994548 56.235325002111495,181.43192832311615 61.898970294743776,186.00368455052376 68.29340852703899,185.60614084312692 71.76467499602586,180.8356117135845 71.94737323187292,158.37425530003384 61.16817735414952,154.79632258741185 55.50453206244856,162.34973044134676 54.59104088507593,181.03438393212855 57.514212649315596,185.40736896684393 63.90865088254213,186.40122819831595 71.58197676204145,178.84788871533237 72.3127697026357,158.97057695058174 62.08166852965951,154.99509675358422 55.321833826601505,163.14482475607656 54.77373912092298,182.22701692814007 58.24500558990985,185.80491270427592 64.09134911745787,186.20245638210326 69.57229617424309,183.41964938864112 72.13007146771997,178.25157152628526 72.86086440831423,158.97057695058174 62.812461470253766,154.5975484070368 55.50453206244856,161.55463588889688 54.77373912092298,181.43192832311615 58.06230735499412,185.2085970758926 64.82214205898345,186.60000000009313 71.3992785261944,181.23315613530576 72.86086440831423,159.76567227602936 70.30308911483735,156.18774143699557 63.36055617686361,154.5975484070368 56.05262676719576,160.36199361411855 54.04294618032873,179.64297809358686 56.41802323795855,184.01596541819163 61.71627205982804,186.20245638210326 71.03388205636293,181.23315613530576 73.04356264322996,161.35586221376434 65.00484029389918,154.5975484070368 56.78341970779002,159.76567227602936 54.77373912092298,179.24543343414553 63.543254411779344,186.20245638210326 71.76467499602586,181.43192832311615 73.59165734890848,162.34973044134676 70.12039087992162,156.78406357811764 65.00484029389918,154.99509675358422 56.41802323795855,160.36199361411855 54.59104088507593,179.84175040083937 57.33151441346854,184.21473739854991 63.543254411779344,186.20245638210326 71.94737323187292,180.23929497040808 73.2262608781457,162.34973044134676 70.85118382051587,157.5791595580522 64.63944382313639,154.5975484070368 56.235325002111495,160.56076736422256 54.95643735677004,180.43806723342277 57.87960911914706,184.41350936354138 63.543254411779344,186.00368455052376 71.21658029127866,181.03438393212855 72.86086440831423,161.55463588889688 64.45674558822066,154.99509675358422 56.235325002111495,161.35586221376434 54.77373912092298,180.63683948107064 63.90865088254213,185.60614084312692 71.58197676204145,179.84175040083937 73.2262608781457,160.95831481856294 63.90865088254213,154.79632258741185 56.05262676719576,161.35586221376434 54.95643735677004,179.84175040083937 63.72595264669508,185.60614084312692 71.3992785261944,180.23929497040808 72.67816617246717,160.7595410987269 68.84150323364884,155.7901932692621 63.543254411779344,154.99509675358422 56.41802323795855,161.75340954912826 54.59104088507593,180.0405226929579 62.62976323533803,186.20245638210326 71.3992785261944,181.82947265543044 73.95705381967127,162.54850404243916 70.66848558560014,156.3865154988598 60.25468617770821,155.7901932692621 56.05262676719576,161.95218319515698 54.95643735677004,177.4564817319624" stroke="#4dd2ff" stroke-linecap="round" stroke-linejoin="round" stroke-width="0.5"><title>2024-04-06 11.8km</title><desc>1712394949000</desc></polyline><polyline fill="none" points="92.26498641073704,182.6026175878942 99.41987398080528,186.60000000009313 106.18801087141037,180.91950750374235 108.50851494818926,162.61562030087225 106.18801087141037,156.51429809327237 99.03312330134213,154.83117239619605 94.39211514778435,157.98703225213103 91.68486039154232,176.9221170176752 96.71261922456324,184.91689230897464 106.18801087141037,181.5506739031989 108.70189028792083,161.5636691406835 105.02775883302093,156.30390743608586 98.64637262187898,155.6727353706956 94.19873980805278,159.03898474993184 91.87823573220521,178.60522949392907 96.90599456522614,185.12728082528338 105.60788485221565,182.39222888206132 108.12176426779479,161.98444965155795 103.86750679463148,155.88312607537955 97.67949592322111,155.88312607537955 94.0053644683212,159.67015606025234 91.87823573220521,177.97406243323348 95.93911786563694,184.70650377636775 105.8012601910159,182.18184016132727 108.31513960752636,161.98444965155795 102.70725475531071,155.46234465087764 93.81198912858963,159.24937520246021 91.29810971207917,179.86756319040433 98.45299728214741,185.54805781156756 106.38138621114194,180.70911867241375 108.50851494818926,162.19483988336287 105.99463553074747,157.145469969837 101.16025203838944,155.04156316374429 93.23186310939491,159.88054646505043 91.29810971207917,178.39484048937447 97.67949592322111,185.3376693262253 106.5747615499422,180.49872982571833 108.31513960752636,161.77405940392055 100.96687669865787,155.04156316374429 93.61861378978938,159.67015606025234 91.87823573220521,179.026007455308 98.45299728214741,185.54805781156756 106.5747615499422,180.49872982571833 108.12176426779479,160.51171758631244 100.38675067946315,155.2519539152272 93.61861378978938,159.88054646505043 92.07161107100546,179.6571742799133 99.61324932053685,185.3376693262253 106.96151223033667,180.07795208413154 108.50851494818926,161.14288856601343 101.54700271692127,155.2519539152272 93.23186310939491,160.51171758631244 91.87823573220521,179.6571742799133 98.83974796161056,185.54805781156756 106.76813689060509,180.70911867241375 108.50851494818926,161.35327886114828 100.7735013589263,155.2519539152272 93.23186310939491,160.51171758631244 91.68486039154232,179.6571742799133 99.61324932053685,185.54805781156756 106.5747615499422,180.70911867241375 108.31513960752636,161.35327886114828 101.74037805758417,155.04156316374429 93.42523844912648,159.67015606025234 91.87823573220521,178.81561848218553 98.06624660361558,185.3376693262253 103.67413145489991,184.28572666458786 106.76813689060509,180.49872982571833 108.50851494818926,160.72210792871192 101.54700271692127,155.04156316374429 93.81198912858963,159.45976563938893 91.68486039154232,178.81561848218553 97.48612058442086,185.3376693262253 106.38138621114194,181.34028511936776 108.31513960752636,161.5636691406835 102.12712873611599,154.62078161374666 94.0053644683212,159.03898474993184 91.68486039154232,179.026007455308 98.25962194241583,185.3376693262253 104.25425747409463,184.075338085182 107.15488756913692,179.86756319040433 107.92838892899454,160.30132722854614 100.19337533973157,154.83117239619605 93.23186310939491,160.0909368544817 91.87823573220521,180.2883409622591 99.03312330134213,185.54805781156756 106.76813689060509,180.07795208413154 108.31513960752636,161.35327886114828 100.96687669865787,155.04156316374429 93.03848777059466,160.93249825551175 91.87823573220521,179.026007455308 98.83974796161056,185.3376693262253 106.5747615499422,180.91950750374235 108.31513960752636,161.5636691406835 100.38675067946315,155.04156316374429 93.42523844912648,160.30132722854614 91.87823573220521,179.86756319040433 96.51924388483167,185.12728082528338 106.18801087141037,181.5506739031989 108.70189028792083,161.77405940392055 100.96687669865787,154.83117239619605 93.81198912858963,159.45976563938893 92.26498641073704,179.44678535405546 99.61324932053685,185.54805781156756 106.76813689060509,180.07795208413154 108.50851494818926,161.5636691406835 104.83438349235803,156.09351676376536 100.19337533973157,154.83117239619605 93.61861378978938,160.30132722854614 91.87823573220521,179.23639641306363 99.61324932053685,185.54805781156756 106.5747615499422,181.5506739031989 108.31513960752636,160.93249825551175 100.96687669865787,154.41039081453346 94.19873980805278,158.19742278312333 91.87823573220521,179.23639641306363 94.58549048751593,183.8649494901765 99.80662466026843,185.54805781156756 107.15488756913692,179.6571742799133 108.31513960752636,160.93249825551175 104.64100815355778,155.6727353706956 99.61324932053685,154.62078161374666 93.61861378978938,159.67015606025234 92.07161107100546,179.86756319040433 100.38675067946315,185.96883473428898 106.76813689060509,180.91950750374235 108.12176426779479,160.93249825551175 100.58012601919472,154.20000000018626 93.42523844912648,159.67015606025234 91.68486039154232,178.60522949392907 97.67949592322111,185.3376693262253 106.5747615499422,181.1298963194713 108.12176426779479,161.14288856601343 101.54700271692127,154.83117239619605 96.51924388483167,155.46234465087764 93.42523844912648,160.51171758631244 91.87823573220521,179.23639641306363 99.22649864200503,185.54805781156756 106.96151223033667,180.49872982571833 108.12176426779479,161.5636691406835 101.16025203838944,154.62078161374666 93.42523844912648,160.30132722854614 92.07161107100546,180.07795208413154 99.03312330134213,185.96883473428898 106.76813689060509,180.49872982571833 108.12176426779479,160.30132722854614 105.02775883302093,156.09351676376536 99.03312330134213,154.83117239619605 93.42523844912648,160.30132722854614 92.26498641073704,180.07795208413154 100.19337533973157,185.54805781156756 106.96151223033667,179.44678535405546 108.31513960752636,160.51171758631244 99.80662466026843,154.62078161374666 94.39211514778435,158.4078132980503 91.49148505181074,165.5610814562533 91.29810971207917,181.7610626714304" stroke="#4dd2ff" stroke-linecap="round" stroke-linejoin="round" stroke-width="0.5"><title>2024-04-03 9.7km</title><desc>1712137473000</desc></polyline><polyline fill="none" points="124.41896706540138,173.89416184602305 129.67422570753843,172.83533942489885 127.72783361840993,178.55297579034232 132.00989621598274,185.11765515431762 141.93649587407708,185.11765515431762 147.58103293552995,164.36474580410868 144.46680559124798,155.47059522173367 137.07051565032452,154.20000000018626 131.81525700632483,157.1647212964017 129.47958649974316,178.3412116866093 132.20453542564064,185.54118233220652 139.01690773945302,185.54118233220652 144.07752717286348,181.9411992984824 146.2185584725812,162.45885874563828 141.5472174566239,156.10589261888526 132.00989621598274,159.9176740059629 129.47958649974316,180.03532407432795 135.5134019786492,185.96470944746397 144.07752717286348,181.51767158182338 145.82928005419672,162.24709343793802 140.37938220240176,155.47059522173367 131.81525700632483,159.9176740059629 129.67422570753843,180.6706159580499 136.29195881448686,186.388236498693 144.07752717286348,181.72943544830196 146.2185584725812,162.03532811440527 140.96329982951283,155.894126835512 135.5134019786492,156.5294241369702 131.42597858887166,160.76473583909683 129.28494729008526,180.03532407432795 135.70804118737578,186.60000000009313 143.88288796506822,181.72943544830196 146.02391926385462,161.40003204811364 140.96329982951283,155.894126835512 131.42597858887166,160.5529704047367 129.28494729008526,178.97650395100936 131.81525700632483,184.48236426827498 137.2651548590511,186.388236498693 144.66144479997456,180.88237988809124 146.02391926385462,161.61179741937667 140.76866061985493,155.68236103653908 136.48659802321345,155.68236103653908 131.42597858887166,160.34120495407842 129.28494729008526,179.18826800701208 135.1241235602647,186.388236498693 143.6882487554103,182.57649075472727 146.2185584725812,162.45885874563828 142.32577429246157,156.10589261888526 137.2651548590511,155.894126835512 131.62061779852957,160.34120495407842 129.47958649974316,179.61179607291706 133.95628830604255,185.7529458978679 144.07752717286348,184.69412791263312" stroke="#4dd2ff" stroke-linecap="round" stroke-linejoin="round" stroke-width="0.5"><title>2024-04-02 3.0km</title><desc>1712049520000</desc></polyline><polyline fill="none" points="165.54423793498427,164.39584156987257 164.2947355993092,182.06855231616646 168.04324260540307,185.92028327961452 173.66600311454386,186.14685553708114 177.8310108995065,181.38883457891643 179.91351479198784,158.95806367043406 172.8330015577376,154.19999999995343 166.16898910235614,159.63778644171543 164.0864852098748,181.38883457891643 167.6267418274656,185.6937110060826 173.45775272604078,186.14685553708114 177.8310108995065,181.16226196591742 179.91351479198784,159.18463794444688 173.041251947172,154.19999999995343 166.16898910235614,159.41121220146306 163.87823482137173,180.70911668869667 171.16699844412506,186.60000000009313 177.8310108995065,181.61540717515163 180.1217651804909,160.09093487123027 173.87425350397825,154.19999999995343 166.16898910235614,159.41121220146306 163.87823482137173,180.9356893361546 170.5422472767532,186.60000000009313 177.6227605100721,182.06855231616646 180.1217651804909,160.31750906072557 174.08250389341265,154.19999999995343 166.16898910235614,159.18463794444688 163.87823482137173,180.70911668869667 170.1257464978844,186.60000000009313 177.6227605100721,182.06855231616646 180.3300155699253,160.77065738849342 174.70725506171584,154.42657463042997 166.37723949272186,158.73148937919177 163.87823482137173,180.25597134511918 170.5422472767532,186.60000000009313 177.6227605100721,182.06855231616646 180.1217651804909,160.31750906072557 173.87425350397825,154.19999999995343 166.37723949272186,158.73148937919177 163.87823482137173,180.70911668869667 170.75049766618758,186.60000000009313 177.8310108995065,181.38883457891643 180.1217651804909,160.54408323322423 173.66600311454386,154.19999999995343 166.16898910235614,159.63778644171543 163.87823482137173,180.9356893361546 170.75049766618758,186.60000000009313 177.8310108995065,181.61540717515163 180.1217651804909,159.86436066543683 173.45775272604078,154.19999999995343 166.16898910235614,159.63778644171543 163.87823482137173,180.4825440251734 166.58548988122493,185.01399408187717 172.20825039036572,186.37342777731828 177.8310108995065,181.38883457891643 180.1217651804909,160.09093487123027 173.041251947172,154.19999999995343 166.16898910235614,159.63778644171543 163.87823482137173,180.25597134511918 170.1257464978844,186.60000000009313 177.6227605100721,182.06855231616646 180.3300155699253,161.2238056480419 174.49900467135012,154.42657463042997 166.58548988122493,158.50491507188417 163.87823482137173,180.25597134511918 168.66799377370626,186.14685553708114 177.6227605100721,182.06855231616646 180.3300155699253,160.77065738849342 174.9155054492876,154.42657463042997 167.0019906591624,157.5986176703591 163.66998443100601,179.57625320088118 166.37723949272186,185.01399408187717 172.00000000093132,186.60000000009313 176.99800934270024,183.2014148728922 180.3300155699253,162.13010196504183 176.16500778496265,154.87972383899614 168.25149299483746,156.01259656553157 164.711236378178,182.74826990114525 169.08449455164373,186.37342777731828 174.70725506171584,185.46713871485554 178.87226284574717,174.59164881613106" stroke="#4dd2ff" stroke-linecap="round" stroke-linejoin="round" stroke-width="0.5"><title>2024-03-30 4.8km</title><desc>1711782999000</desc></polyline><polyline fill="none" points="18.681147855706513,208.22453283029608 20.099234050139785,223.21226494782604 24.353492639027536,226.73877907218412 30.836172392591834,226.29796503763646 35.69818220566958,219.90615412266925 35.29301472194493,197.42450212943368 25.568995092995465,195.66122805094346 20.301817793399096,201.6122738351114 20.301817793399096,222.55104307970032 25.97416257672012,227.39999999990687 32.254258587025106,225.85715093649924 35.90076594892889,219.90615412266925 37.31885214429349,203.37554435175844 35.09043097868562,196.98368370882235 28.0,195.0 23.137990185059607,198.08572963625193 19.49148282315582,219.46533906576224 21.517320247367024,224.53470823913813 27.392248773947358,227.39999999990687 35.69818220566958,221.44900630274788 36.50851717591286,199.18777515226975 27.797416257672012,195.4408187174704 20.70698527712375,201.83268270711415 20.70698527712375,224.31430106493644 28.405167484655976,227.17959304060787 34.28009601030499,223.65307944384404 36.91368465963751,203.59595309197903 35.495598464272916,198.08572963625193 31.038756133057177,195.22040936746635 21.922487731091678,198.96736608212814 19.288899081759155,220.78778403857723 24.353492639027536,226.73877907218412 34.077512267977,223.21226494782604 36.91368465963751,203.37554435175844 32.65942607168108,196.32245595403947 21.922487731091678,196.32245595403947" stroke="#4dd2ff" stroke-linecap="round" stroke-linejoin="round" stroke-width="0.5"><title>2024-03-28 2.0km</title><desc>1711615120000</desc></polyline><polyline fill="none" points="55.81055497657508,208.77004738501273 53.76319371908903,209.17504771822132 55.81055497657508,210.79504844523035 53.577069968916476,209.78254810441285 55.81055497657508,210.3900483546313 56.368926228024065,223.147522109095 60.46364874020219,226.7925035674125 66.97798001021147,226.9950023931451 72.56169252563268,220.11003381130286 73.4923112783581,198.84752029180527 69.02534126583487,195.40500239352696 63.44162874855101,195.40500239352696 56.927297479473054,202.69503511465155 55.6244312254712,221.12253028945997 62.69713374692947,227.39999999990687 71.63107377290726,222.1350263885688 73.30618752818555,200.8725287753623 70.51433127000928,196.0125058698468 66.04736125655472,195.0 57.6717924810946,200.6700279947836 56.368926228024065,219.50253574247472 58.97465873602778,224.56501548178494 63.62775249965489,226.38750587031245 70.70045502111316,222.1350263885688 72.56169252563268,202.49253447097726 66.04736125655472,196.21500699897297 58.60241123382002,200.8725287753623 57.29954498074949,220.92003102367744 64.0,226.38750587031245 71.25882627163082,220.92003102367744 72.37556877546012,200.26502638915554 65.67511375527829,195.81000472628511 58.60241123382002,201.4800310244318 57.11342122964561,220.3125331371557 62.88325749710202,226.38750587031245 71.07270252145827,220.92003102367744 72.37556877546012,201.68253174400888 64.93061875365674,195.40500239352696 58.7885349849239,200.8725287753623 56.741173728369176,220.3125331371557 63.255504998378456,226.38750587031245 71.4449500227347,220.92003102367744 72.93394002690911,201.68253174400888 66.41960875783116,195.81000472628511 58.97465873602778,200.6700279947836 56.927297479473054,220.11003381130286 58.23016373254359,224.3625164742116 62.88325749710202,225.98250811221078 71.25882627163082,221.52752877445891 72.93394002690911,202.8975357436575 66.60573250800371,196.62000921042636 58.7885349849239,200.46752719930373 56.927297479473054,220.92003102367744 63.62775249965489,226.18500699847937 71.25882627163082,221.12253028945997 72.74781627673656,200.8725287753623 65.86123750638217,196.21500699897297 58.7885349849239,201.4800310244318 56.927297479473054,220.51503244857304 63.62775249965489,226.38750587031245 69.58371251728386,225.5775102933403 72.37556877546012,221.7300279943738 74.42293003108352,202.29003381216899" stroke="#4dd2ff" stroke-linecap="round" stroke-linejoin="round" stroke-width="0.5"><title>2024-03-26 3.7km</title><desc>1711445960000</desc></polyline><polyline fill="none" points="91.26458935905248,219.8400325186085 98.41174352075905,227.39999999990687 106.94862210098654,222.432023599511 108.5368785802275,200.61602604738437 104.16917326115072,195.0 93.84550614003092,198.6720182672143 91.0660573001951,219.1920343847014 92.85284583922476,224.16001636022702 99.00733970012516,227.1840012036264 106.55155797954649,222.8640218861401 108.9339426998049,201.69602980441414 104.96330149937421,195.2160012035165 94.44110232032835,199.5360218868591 91.86018554028124,212.06404531630687 94.24257025960833,224.16001636022702 99.40440381970257,226.53600471862592 104.16917326115072,224.5920143891126 108.33834651950747,202.99203377962112 104.96330149937421,196.72800917783752 99.20587175991386,196.08000585692935 95.2352305604145,199.3200210062787 92.65431377943605,218.32803664729 97.02201909944415,225.88800808764063 105.16183356009424,223.29602010920644 108.33834651950747,202.1280311937444 103.77210913971066,195.86400471813977 95.2352305604145,199.5360218868591 92.65431377943605,218.76003554835916 97.22055116016418,225.88800808764063 104.96330149937421,223.29602010920644 106.94862210098654,198.2400163600687 100.1985320597887,195.4320023912005 94.63963437918574,201.04802759876475 92.85284583922476,221.3520275983028 96.42642291914672,225.45601025270298 101.98532059974968,225.67200917797163" stroke="#4dd2ff" stroke-linecap="round" stroke-linejoin="round" stroke-width="0.5"><title>2024-03-25 2.1km</title><desc>1711359274000</desc></polyline><polyline fill="none" points="140.1042667068541,224.28463181457482 143.92218922358006,203.10003544809297 139.53157832846045,196.45385425630957 129.6049797842279,200.81541245779954 127.50512239988893,218.46926851640455 133.23200617637485,226.15385314566083 141.63143571279943,222.83079213206656 143.92218922358006,203.10003544809297 138.3862015735358,196.66154765943065 129.6049797842279,201.02310553495772 127.50512239988893,219.71541882003658 133.61379842739552,226.15385314566083 141.8223318392411,222.20771774929017 143.92218922358006,202.26926366891712 138.19530544802547,196.66154765943065 129.6049797842279,200.81541245779954 127.69601852633059,219.92311048298143 129.41408365871757,224.28463181457482 134.75917518232018,226.36154432664625 142.01322796475142,221.37695168796927 143.92218922358006,203.51542124408297 138.95888995099813,196.66154765943065 129.6049797842279,199.98463999526575 127.69601852633059,219.92311048298143 133.61379842739552,226.5692354927305 141.44053958822042,222.6231006870512 143.92218922358006,203.10003544809297 138.57709769997746,196.2461608380545 129.79587590973824,199.77694684104063 127.50512239988893,220.33849376207218 129.41408365871757,224.49232313618995 135.14096743427217,226.7769266429823 142.20412409026176,221.16926013468765 143.73129309806973,202.06157068535686 137.81351319607347,196.2461608380545 132.46842167247087,197.28462777542882 129.22318753227592,201.43849164131097 127.88691465184093,221.37695168796927 135.33186356071383,226.36154432664625 142.39502021670341,220.54618537868373 143.73129309806973,202.26926366891712 138.19530544802547,196.2461608380545 129.41408365871757,201.43849164131097 127.69601852633059,220.75387697899714 134.3773829312995,226.15385314566083 141.63143571279943,222.20771774929017 143.73129309806973,202.06157068535686 137.0499286931008,196.2461608380545 129.22318753227592,201.2307985960506 127.88691465184093,220.9615685644094 134.3773829312995,226.5692354927305 142.01322796475142,222.20771774929017 143.92218922358006,202.26926366891712 140.67695508431643,196.86924104718491 129.9867720361799,199.77694684104063 127.69601852633059,218.67696027224883 132.2775255460292,226.15385314566083 141.44053958822042,223.0384835617151 143.92218922358006,202.68464958970435 138.00440932251513,196.45385425630957 129.6049797842279,200.40002625784837 127.69601852633059,220.13080212986097 133.0411100499332,225.94616194884293 141.24964346177876,223.66155775799416 144.11308535002172,203.3077283538878 140.29516283329576,196.86924104718491 134.3773829312995,196.2461608380545 129.79587590973824,200.40002625784837 126.35974564403296,218.46926851640455 127.88691465184093,224.0769404785242 133.23200617637485,227.39999999990687 138.19530544802547,227.19230889668688 142.7768124686554,222.83079213206656 145.64025435689837,203.7231141186785 140.4860589588061,195.41538700810634 134.18648680485785,195.0 128.6504991548136,199.56925367121585 126.35974564403296,219.50772714125924 132.2775255460292,226.7769266429823 142.20412409026176,225.11539700627327" stroke="#4dd2ff" stroke-linecap="round" stroke-linejoin="round" stroke-width="0.5"><title>2024-03-24 4.9km</title><desc>1711273464000</desc></polyline><polyline fill="none" points="162.86509233899415,218.4552542034071 164.5093757174909,224.21964938868769 169.07682954892516,227.20122819836251 174.3750759921968,226.20736896712333 178.75983166974038,221.83438393194228 180.58681320212781,200.9632198496256 179.12522797565907,197.38528954586945 173.6442833794281,195.5963225872256 167.61524432245642,196.98774143704213 164.32667756453156,201.16199361439794 163.23048864584416,221.03929497068748 166.70175355672836,225.61105324979872 172.91349076665938,227.00245638168417 179.4906242825091,219.64788871561177 179.67332243546844,198.37915955786593 173.09618891961873,195.5963225872256 166.33635725080967,197.78283759579062 163.59588495176286,202.55340954940766 162.49969603214413,220.0454334341921 168.34603693615645,227.39999999990687 174.74047229904681,226.20736896712333 178.5771335158497,222.03315613488667 181.68300212081522,203.74605119903572 179.30792612954974,197.38528954586945 174.19237783830613,195.39754840638489 166.51905540376902,197.78283759579062 163.77858310565352,202.15586221334524 163.59588495176286,223.62333322525956 168.89413139596581,227.39999999990687 174.19237783830613,227.00245638168417 179.67332243546844,219.64788871561177 179.67332243546844,198.37915955786593 170.9038110813126,195.0 163.96128125768155,201.95708852331154 162.6823941860348,220.84052269277163 166.153659096919,226.00859707570635 172.00000000093132,226.80368455010466 179.4906242825091,219.84666108270176 180.2214168952778,199.37302919849753 177.29824644420296,195.99387090443633 171.08650923427194,195.39754840638489 163.77858310565352,202.35463588871062 163.0477904919535,222.43070049700327 172.91349076665938,226.60491270408966 179.30792612954974,219.84666108270176 179.30792612954974,198.37915955786593 172.36539630685002,195.19877421087585 164.32667756453156,199.7705769506283 162.31699787918478,221.23806723300368 165.97096094302833,225.80982517031953 172.91349076665938,227.00245638168417 179.30792612954974,220.24420577124692 178.94252982269973,197.1865154991392 171.81730184704065,195.19877421087585 166.70175355672836,197.78283759579062 162.6823941860348,212.69084651232697 165.05747017730027,224.81596541800536 176.38475567754358,225.41228131391108 180.76951135508716,203.14973044139333 176.7501519843936,196.19264504057355 166.51905540376902,197.78283759579062 162.6823941860348,217.46139169996604 163.96128125768155,224.21964938868769 168.71143324207515,226.60491270408966 177.846340903081,223.2257890419569 180.9522095080465,203.5472776282113 178.39443536289036,197.1865154991392 166.33635725080967,197.1865154991392 163.23048864584416,208.51661244686693 164.5093757174909,224.21964938868769 169.99032031558454,227.00245638168417 176.56745383050293,225.01473739836365 179.4906242825091,220.44297809386626 180.9522095080465,203.74605119903572 178.21173720993102,197.1865154991392 169.2595277018845,195.79509675339796 163.77858310565352,202.35463588871062 162.86509233899415,222.03315613488667 167.98064062930644,226.60491270408966 174.19237783830613,225.80982517031953 178.39443536289036,215.2748928857036 177.48094459623098,198.37915955786593 171.81730184704065,196.590193268843 165.97096094302833,199.37302919849753 162.49969603214413,211.89575481507927" stroke="#4dd2ff" stroke-linecap="round" stroke-linejoin="round" stroke-width="0.5"><title>2024-03-22 5.0km</title><desc>1711100044000</desc></polyline><polyline fill="none" points="18.135435316711664,247.95004544593394 21.485664832405746,265.16251647425815 27.069380691275,267.9975012044888 32.65309654921293,266.37751029315405 36.37557378783822,262.12502953922376 37.67844082135707,252.81004835409112 35.258830616250634,239.04001745092683 27.62775227613747,236.40750356740318 22.230160280130804,243.29253447055817 21.485664832405746,262.7325271987356 25.95263751875609,267.3900047263596 31.35022951476276,267.3900047263596 35.81720220204443,261.11253313720226 35.63107834011316,241.67252877471037 29.488990896381438,237.21750811184756 22.416284142062068,243.29253447055817 21.485664832405746,262.12502953922376 24.835894347168505,266.5800092101563 29.861238619312644,267.5925035676919 35.258830616250634,260.3025357427541 36.00332606397569,241.06502638873644 30.791857928968966,236.6100047265645 22.416284142062068,241.47002799483016 20.741169383749366,260.9100338113494 28.37224772479385,266.98500699875876 33.211468135006726,265.97251241421327 36.561697649769485,260.3025357427541 36.74782151170075,239.64752029138617 34.514335167594254,236.6100047265645 27.44162841513753,235.79999999981374 21.113417108543217,241.87502953992225 19.99667393695563,261.9225302892737 28.37224772479385,268.19999999995343 36.00332606397569,260.70753447012976 37.864564683288336,242.88753313780762 35.07270675431937,236.00250120437704 23.533027313649654,237.6225102932658 19.06605462729931,258.0750416580122" stroke="#4dd2ff" stroke-linecap="round" stroke-linejoin="round" stroke-width="0.5"><title>2024-03-21 2.2km</title><desc>1711013104000</desc></polyline></svg>