<?xml version="1.0" encoding="utf-8" ?>
<svg baseProfile="full" height="300mm" version="1.1" viewBox="0,0,200,300" width="200mm" xmlns="http://www.w3.org/2000/svg" xmlns:ev="http://www.w3.org/2001/xml-events" xmlns:xlink="http://www.w3.org/1999/xlink"><defs /><rect fill="#222222" height="300" width="200" x="0" y="0" /><text fill="#FFFFFF" style="font-size:12px; font-family:Arial; font-weight:bold;" x="10" y="20">Over 2km Runs</text><text fill="#FFFFFF" style="font-size:4px; font-family:Arial" x="10" y="280">ATHLETE</text><text fill="#FFFFFF" style="font-size:9px; font-family:Arial" x="10" y="290">作怪</text><text fill="#FFFFFF" style="font-size:4px; font-family:Arial" x="120" y="280">STATISTICS</text><text fill="#FFFFFF" style="font-size:3px; font-family:Arial" x="120" y="285">Number: 23</text><text fill="#FFFFFF" style="font-size:3px; font-family:Arial" x="120" y="290">Weekly: 3.8</text><text fill="#FFFFFF" style="font-size:3px; font-family:Arial" x="141" y="285">Total: 115.8 km</text><text fill="#FFFFFF" style="font-size:3px; font-family:Arial" x="141" y="290">Avg: 5.0 km</text><text fill="#FFFFFF" style="font-size:3px; font-family:Arial" x="167" y="285">Min: 2.0 km</text><text fill="#FFFFFF" style="font-size:3px; font-family:Arial" x="167" y="290">Max: 12.3 km</text><polyline fill="none" points="19.195533744990826,47.42861990421079 21.671557262539864,63.836754937656224 27.07379039004445,67.51020673825406 34.05167484562844,66.53061999497004 39.003721879795194,60.8979905298911 40.12918711453676,36.653083502547815 30.22509304713458,32.48979857494123 22.571929450146854,39.346970927901566 20.771185074932873,61.14288766426034 24.372673825360835,66.53061999497004 30.900372188538313,67.75510337855667 39.003721879795194,60.8979905298911 41.25465234927833,40.81636313488707 40.8044662559405,36.653083502547815 34.05167484562844,32.24489929713309 23.24720859155059,37.387780292658135 21.221371168270707,60.16329901618883 23.922487732023,65.55103295738809 29.549813905730844,67.51020673825406 38.32844273839146,62.367373063229024 39.904094067402184,37.387780292658135 30.22509304713458,32.0 24.597766873426735,34.93879034998827 22.346836403012276,40.5714644799009 22.571929450146854,64.32654874958098 31.12546523567289,68.0 36.527698362246156,65.06123932939954 40.579373207874596,40.5714644799009 35.17714008130133,32.73469783458859 29.09962781239301,32.48979857494123 23.697394685819745,36.89798245043494 20.99627812113613,58.938812791602686 28.19925562478602,67.75510337855667 38.32844273839146,62.1224760201294 40.579373207874596,38.61227457714267 33.376395704224706,32.24489929713309 23.472301638685167,37.387780292658135 21.221371168270707,59.18371007312089 27.749069530516863,67.51020673825406 38.55353578552604,61.63268187921494 40.579373207874596,39.1020721627865 36.527698362246156,32.73469783458859 25.273046013899148,34.204093009699136 20.771185074932873,59.42860733671114 27.974162578582764,67.51020673825406 38.1033496921882,61.87757895910181 40.579373207874596,39.346970927901566 35.17714008130133,32.48979857494123 29.324720859527588,32.0 23.24720859155059,37.14288138062693 21.221371168270707,59.18371007312089 27.29888343717903,67.02041340293363 37.20297750271857,63.34696105308831 40.35428016074002,40.081667114049196 34.05167484562844,32.73469783458859 27.29888343717903,33.46939550456591 21.221371168270707,39.346970927901566 18.74534765165299,59.42860733671114" stroke="#4dd2ff" stroke-linecap="round" stroke-linejoin="round" stroke-width="0.5"><title>2024-04-26 3.3km</title><desc>1714123626000</desc></polyline><polyline fill="none" points="66.16737817414105,51.38466758932918 69.7731944238767,63.61540708364919 74.01533118914813,67.07692832499743 79.74221582058817,66.61539238435216 84.19645942468196,61.53849247423932 86.52963464520872,45.15389486285858 85.89331413060427,39.38464963505976 80.59064317494631,34.076934496639296 69.34898074623197,38.692339482717216 67.2279123654589,59.692344980780035 73.59111751243472,66.15385637409054 83.9843525858596,61.76926083327271 85.89331413060427,39.84618965070695 78.25746795441955,33.15385267045349 69.13687390927225,38.461569397710264 67.2279123654589,59.92311347858049 72.74269015993923,65.92308834288269 83.34803207125515,62.000029175076634 85.6812072917819,39.38464963505976 77.6211474398151,33.38462315313518 68.71266023255885,39.15387960174121 67.65212604124099,60.61541886627674 71.68215596769005,65.92308834288269 78.46957479137927,66.38462438737042 83.77224574796855,62.000029175076634 85.89331413060427,40.07695963210426 78.89378846809268,32.92308217124082 69.34898074623197,37.76925903791562 67.44001920334995,59.23080793512054 74.86375854164362,66.38462438737042 84.408566262573,59.92311347858049 85.6812072917819,39.15387960174121 78.04536111559719,32.692311653867364 67.65212604124099,38.23079929524101 67.2279123654589,42.61542829172686 67.44001920334995,62.692334096180275 72.31847648322582,67.30769627005793 79.10589530598372,66.84616036340594 85.6812072917819,59.92311347858049 86.10542096942663,37.30771871190518 76.34850640967488,32.0 71.25794229097664,33.15385267045349 67.65212604124099,39.15387960174121 66.16737817414105,61.076955704251304 71.25794229097664,66.84616036340594 76.98482692427933,68.0 85.25699361599982,61.30772409820929 87.16595515981317,39.84618965070695 81.01485685072839,32.2307705685962 73.37901067454368,32.0 68.71266023255885,35.46155671728775 66.37948501203209,61.76926083327271" stroke="#4dd2ff" stroke-linecap="round" stroke-linejoin="round" stroke-width="0.5"><title>2024-04-25 3.0km</title><desc>1714037269000</desc></polyline><polyline fill="none" points="113.3167002350092,57.71432611113414 121.19495098572224,67.02041340293363 131.32413052208722,63.836754937889054 134.25033794436604,40.57146448013373 128.8481088578701,33.7142946915701 120.74476522952318,33.959193860180676 117.59346492961049,37.387780292890966 115.11744326446205,60.163299015956 120.74476522952318,67.26531008025631 131.7743162792176,63.59185800445266 134.4754308219999,41.30616039130837 131.32413052208722,34.9387903502211 120.74476522952318,33.7142946915701 111.74105008598417,44.48984076664783 116.91818629298359,64.81634248746559 124.12115840893239,68.0 129.52338749356568,66.0408265129663 133.34996642917395,37.387780292890966 122.32041537947953,32.97959707630798 112.19123584218323,41.06126177217811 115.79272190015763,63.59185800445266 120.51967235002667,67.51020673848689 128.6230159793049,66.28572326246649 133.34996642917395,60.40819620527327 134.4754308219999,40.32656580605544 129.52338749356568,33.22449630009942 122.09532250091434,32.97959707630798 117.14327917061746,37.387780292890966 114.66725750640035,58.69391549262218 120.51967235002667,67.26531008025631 131.9994091577828,63.10206408286467 134.4754308219999,39.83676840364933 126.5971800731495,32.73469783482142 116.46800053585321,38.6122745773755 114.21707175020128,59.67350458097644 120.51967235002667,67.51020673848689 130.64885188639164,65.55103295738809 134.70052370149642,40.57146448013373 127.94773734454066,32.48979857517406 117.81855780724436,36.163285550428554 114.66725750640035,58.938812791602686 120.51967235002667,67.02041340293363 131.09903764445335,64.32654874958098 134.92561658006161,42.28575468272902 133.12487355154008,35.183689426397905 124.57134416513145,32.0 117.81855780724436,36.653083502547815 115.11744326446205,60.65309337642975 121.87022962141782,67.51020673848689 132.67468779347837,63.10206408286467 134.4754308219999,39.346970927901566 126.5971800731495,32.48979857517406 116.6930934144184,37.63267918629572 114.66725750640035,61.87757895933464 123.67097264993936,67.51020673848689 132.89978067297488,61.87757895933464 133.80015218723565,37.387780292890966 125.24662280082703,32.48979857517406 116.6930934144184,38.36737575707957 115.11744326446205,61.38778478070162 122.54550825804472,67.26531008025631 132.67468779347837,61.87757895933464 134.02524506486952,38.36737575707957 124.34625128563493,32.48979857517406 117.14327917061746,37.63267918629572 115.11744326446205,61.38778478070162 125.02152992133051,68.0 132.89978067297488,60.40819620527327 134.25033794436604,38.36737575707957 124.12115840893239,32.73469783482142 116.6930934144184,39.59186967485584 115.34253614209592,61.38778478070162 124.57134416513145,67.26531008025631 132.89978067297488,60.8979905298911 134.4754308219999,39.346970927901566 130.42375900875777,33.7142946915701 123.89606552943587,32.73469783482142 116.6930934144184,39.346970927901566 116.6930934144184,62.85716709494591" stroke="#4dd2ff" stroke-linecap="round" stroke-linejoin="round" stroke-width="0.5"><title>2024-04-22 4.9km</title><desc>1713776322000</desc></polyline><polyline fill="none" points="160.09383026044816,43.11115765850991 161.7278376398608,61.11114486632869 171.3276309967041,66.22223246260546 177.25090774707496,60.22225916897878 177.65940959285945,38.44447650411166 167.03836162388325,33.11111763585359 160.9108339510858,40.88892945158295 160.9108339510858,62.88891546218656 166.01710701175034,67.11111636459827 172.75738745275885,67.33333729812875 178.68066420406103,59.77781622065231 178.47641328256577,36.88891448988579 168.05961623694748,33.33334111352451 161.11508487258106,40.22226066607982 161.11508487258106,62.88891546218656 164.58735055383295,66.44445346295834 173.16588929854333,67.11111636459827 178.47641328256577,61.11114486632869 179.2934169722721,37.55558402440511 170.30637638363987,32.666670631151646 161.9320885632187,38.44447650411166 159.685328415595,59.77781622065231 162.9533431744203,65.77779041184112 169.48937269393355,67.55555821559392 178.2721623601392,61.33336624852382 179.70191881712526,39.11114568915218 169.8978745387867,33.33334111352451 161.52358671743423,39.11114568915218 160.29808118380606,60.88892346643843 163.97459778748453,66.00001144595444 170.30637638363987,67.55555821559392 178.47641328256577,60.88892346643843 179.2934169722721,37.77780716936104 170.71487822849303,32.666670631151646 161.52358671743423,39.55559172993526 160.7065830277279,62.444472912931815 164.79160147719085,66.6666744465474 171.94038376398385,67.55555821559392 178.88491512741894,60.444480618229136 179.2934169722721,38.000030297786 170.1021254612133,33.11111763585359 163.97459778748453,35.33335166145116 161.31933579500765,40.00003770366311 159.88957933709025,60.00003770273179 163.1575940977782,65.55556936189532 169.08087084908038,68.0 178.47641328256577,61.11114486632869 179.90616973955184,38.44447650411166 170.71487822849303,33.11111763585359 161.52358671743423,39.33336871769279 160.09383026044816,61.11114486632869 169.28512177057564,68.0 177.8636605143547,62.88891546218656 180.5189225068316,43.333380388095975 178.88491512741894,36.88891448988579 174.5956457555294,34.00001144572161 162.9533431744203,36.222244806354865 159.4810774931684,58.222265378106385 163.1575940977782,65.33334829495288 170.30637638363987,67.55555821559392 176.22965313494205,64.44446386094205 180.5189225068316,43.333380388095975 175.8211512900889,34.00001144572161 164.58735055383295,34.44445825112052 160.7065830277279,40.88892945158295 160.7065830277279,63.111136712133884 168.8766199266538,68.0 175.20839852280915,65.77779041184112 178.88491512741894,60.00003770273179 180.11042066197842,40.44448361126706 170.91912915091962,32.0 161.7278376398608,38.66669958294369 159.88957933709025,60.88892346643843 169.48937269393355,68.0 178.47641328256577,62.000030296854675 180.11042066197842,40.00003770366311 171.3276309967041,33.11111763585359 161.31933579500765,38.44447650411166 159.4810774931684,58.6667085592635" stroke="#4dd2ff" stroke-linecap="round" stroke-linejoin="round" stroke-width="0.5"><title>2024-04-21 5.0km</title><desc>1713688153000</desc></polyline><polyline fill="none" points="30.6503978818655,78.98780071304645 31.38209549942985,84.20651101670228 33.57718835165724,84.914130979334 35.609681732952595,83.76424832479097 36.82917776191607,75.27277256397065 35.690981468651444,73.06144074315671 33.1706896754913,72.53072049061302 31.38209549942985,73.85752067517024 30.325198941398412,82.17210126493592 32.7641909988597,84.82567850733176 36.09748014481738,83.05662767402828 36.82917776191607,74.83050653070677 34.39018570398912,72.44226709217764 31.13819629373029,74.299787072232 30.4064986766316,82.4374592571985 33.1706896754913,84.914130979334 36.09748014481738,82.9681750627933 36.82917776191607,74.83050653070677 33.821087557356805,72.44226709217764 31.13819629373029,74.47669358504936 30.4064986766316,82.52591190778185 33.1706896754913,84.914130979334 36.17877987958491,82.79126982064918 36.82917776191607,74.74205330433324 34.06498676352203,72.44226709217764 31.13819629373029,74.3882403319003 30.487798411864787,82.70281718974002 33.1706896754913,84.914130979334 36.17877987958491,82.79126982064918 36.82917776191607,74.83050653070677 33.57718835165724,72.44226709217764 31.0568965584971,74.6536000710912 30.487798411864787,82.87972244503908 33.1706896754913,84.914130979334 36.09748014481738,82.9681750627933 36.74787802668288,74.74205330433324 33.73978782212362,72.44226709217764 31.0568965584971,74.47669358504936 30.4064986766316,82.61436455196235 33.33328914595768,84.914130979334 36.17877987958491,82.61436455196235 36.74787802668288,74.74205330433324 33.495888616424054,72.44226709217764 31.0568965584971,74.56514683132991 30.6503978818655,83.23353287624195 32.92679046932608,84.914130979334 35.52838199771941,83.94115342141595 36.74787802668288,76.33421036903746 35.04058358632028,72.70762726804242 31.300795764662325,74.03442725376226 30.325198941398412,82.08364858746063 32.032493381761014,84.56032105104532 34.146286498289555,84.82567850733176 35.85358093865216,83.4104380523786 36.82917776191607,75.18431937065907 34.79668438062072,72.53072049061302 31.544694969896227,73.59216075728182 30.812997352797538,83.49889063031878 34.146286498289555,84.82567850733176 36.260079614818096,82.08364858746063 36.74787802668288,74.56514683132991 33.33328914595768,72.53072049061302 30.975596823263913,74.74205330433324 30.6503978818655,83.23353287624195 33.33328914595768,84.914130979334 36.09748014481738,82.9681750627933 36.82917776191607,74.83050653070677 33.98368702782318,72.44226709217764 31.0568965584971,74.56514683132991 30.6503978818655,83.23353287624195 33.90238729258999,84.82567850733176 36.260079614818096,82.08364858746063 36.42267908575013,73.94597396778408 34.06498676352203,72.44226709217764 31.4633952351287,73.68061406980269 30.325198941398412,82.08364858746063 31.707294440828264,84.47186855238397 28.130106089171022,88.00996333756484 28.21140582440421,92.78637450479437 22.11392568005249,93.31708566576708 20.813129916321486,94.64386252616532 19.431034416891634,103.48900355189107 16.097745270933956,106.67323812493123 18.618037064094096,108.0 15.853846065234393,106.49633642926347 19.512334152124822,102.51604127755854 20.65053044538945,94.37850727315526 28.048806354403496,92.34411502210423 29.59350132383406,85.97556012962013 39.10557034937665,87.12544063385576 44.14615393523127,82.4374592571985 39.67466849600896,85.62175051879603 36.50397882098332,85.44484567362815 36.74787802668288,74.21133380604442 35.77228120341897,72.53072049061302 33.414588881190866,72.0 30.73169761756435,74.47669358504936 30.08129973569885,83.23353287624195 33.495888616424054,85.09103590389714 36.01618040911853,82.4374592571985 36.58527855621651,74.12288053322118 35.52838199771941,72.3538136871066 32.7641909988597,72.26536027516704 30.569098147097975,74.91895975056104 30.08129973569885,83.76424832479097 33.414588881190866,85.00258344516624 35.77228120341897,82.34900659951381 36.50397882098332,74.03442725376226 35.36578252725303,72.44226709217764 32.84549073409289,72.26536027516704 30.162599470932037,75.98039787332527 29.67480105953291,82.52591190778185 30.73169761756435,84.56032105104532 33.33328914595768,85.09103590389714 35.609681732952595,83.23353287624195 36.58527855621651,75.0958661705954 34.47148543968797,72.08845343173016 30.975596823263913,73.68061406980269 29.67480105953291,82.61436455196235 32.1137931169942,84.914130979334 35.77228120341897,82.52591190778185 36.666578291449696,74.47669358504936 35.44708226248622,72.44226709217764 33.821087557356805,72.08845343173016 30.0,75.44967893115245 29.512201588600874,83.05662767402828 33.089389940258116,85.09103590389714 35.85358093865216,82.4374592571985 36.341379350516945,74.03442725376226 33.65848808689043,72.08845343173016 30.325198941398412,74.6536000710912 29.67480105953291,82.79126982064918 32.7641909988597,85.17948835634161 35.85358093865216,82.34900659951381 36.341379350516945,73.94597396778408 33.57718835165724,72.08845343173016 30.487798411864787,74.12288053322118 29.67480105953291,82.52591190778185 32.7641909988597,85.00258344516624 35.690981468651444,82.9681750627933 36.42267908575013,74.12288053322118 33.57718835165724,72.08845343173016 30.162599470932037,74.74205330433324 29.837400529533625,82.61436455196235 32.84549073409289,85.00258344516624 35.77228120341897,82.52591190778185 36.58527855621651,74.12288053322118 33.98368702782318,72.08845343173016 30.4064986766316,74.12288053322118 29.3496021181345,82.34900659951381 32.60159152839333,85.00258344516624 35.77228120341897,83.05662767402828 36.341379350516945,74.12288053322118 33.33328914595768,72.08845343173016 30.243899205699563,74.6536000710912 29.59350132383406,82.9681750627933 32.7641909988597,85.00258344516624 35.85358093865216,82.52591190778185 36.42267908575013,74.3882403319003 33.65848808689043,72.17690685670823 30.325198941398412,74.03442725376226 29.430901853833348,82.08364858746063 32.60159152839333,84.82567850733176 35.85358093865216,82.4374592571985 36.50397882098332,74.21133380604442 33.495888616424054,72.08845343173016 30.4064986766316,74.12288053322118 29.512201588600874,82.34900659951381 32.68289126409218,84.914130979334 35.934880673885345,82.70281718974002 36.58527855621651,74.6536000710912 33.90238729258999,72.17690685670823 30.487798411864787,74.12288053322118 29.512201588600874,82.34900659951381 32.438992058392614,85.09103590389714 35.77228120341897,82.61436455196235 36.74787802668288,74.47669358504936 35.690981468651444,72.61917388252914 33.65848808689043,72.17690685670823 30.325198941398412,74.03442725376226 29.512201588600874,82.4374592571985 32.438992058392614,84.914130979334 35.934880673885345,82.52591190778185 36.341379350516945,74.21133380604442 35.52838199771941,72.70762726804242 33.25198941025883,72.17690685670823 30.08129973569885,74.21133380604442 29.67480105953291,82.61436455196235 33.00809020455927,84.914130979334 35.690981468651444,83.05662767402828 36.341379350516945,73.85752067517024 33.414588881190866,72.08845343173016 30.487798411864787,72.79608064657077 29.512201588600874,74.299787072232" stroke="#4dd2ff" stroke-linecap="round" stroke-linejoin="round" stroke-width="0.5"><title>2024-04-18 12.3km</title><desc>1713432540000</desc></polyline><polyline fill="none" points="86.26237643975765,99.12003753241152 84.93883026391268,76.80002334038727 75.89459806401283,72.48000265751034 69.05627615656704,78.96003150078468 67.73272998072207,102.24002714664675 74.57105188816786,107.52000265661627 80.74760070815682,106.32000898569822 84.49764820560813,101.28003066475503 85.38001232221723,76.80002334038727 80.08582761976868,72.48000265751034 73.90927880071104,72.72000395902433 68.61509409919381,78.72003066539764 67.73272998072207,101.52002981258556 71.70336850825697,107.04000524245203 77.65932629816234,108.0 84.7182392347604,100.32003389624879 86.04178541060537,78.96003150078468 76.99755321070552,72.0 68.61509409919381,79.20003231754526 67.51213895250112,101.28003066475503 73.68868777249008,107.52000265661627 83.83587511721998,102.48002622113563 86.04178541060537,80.4000361324288 83.83587511721998,75.12001598835923 76.99755321070552,72.0 68.83568512741476,78.48002981254831 67.51213895250112,101.52002981258556 73.90927880071104,107.76000133738853 80.74760070815682,106.08001019759104 84.05646614637226,101.28003066475503 85.38001232221723,78.48002981254831 75.67400703579187,72.0 69.05627615656704,78.96003150078468 67.73272998072207,101.76002894109115 76.77696218155324,108.0 84.27705717645586,100.80003231670707 84.93883026391268,78.00002805306576 80.74760070815682,73.68000898580067 72.80632365401834,73.20000650826842 69.05627615656704,79.20003231754526 68.17391203995794,102.48002622113563 78.32109938561916,107.04000524245203 84.27705717645586,98.1600401175674 84.7182392347604,77.28002527961507 78.76228144392371,72.96000524237752 72.80632365401834,73.92001019814052 68.17391203995794,85.44004725501873 69.93864027410746,105.60001256759278 77.21814423985779,107.28000395861454 82.95351100061089,102.96002431842498 85.38001232221723,80.16003540507518 82.73291997052729,75.12001598835923 76.77696218155324,73.20000650826842 69.05627615656704,75.84001924702898 67.07095689326525,80.64003684208728" stroke="#4dd2ff" stroke-linecap="round" stroke-linejoin="round" stroke-width="0.5"><title>2024-04-17 3.1km</title><desc>1713344929000</desc></polyline><polyline fill="none" points="115.5781770600006,80.10003756918013 113.51013538707048,97.65004413272254 118.26663123536855,104.17502045910805 123.85034375172108,105.7500126240775 130.46807710453868,101.02503365511075 132.74292294401675,79.65003605373204 125.2979729231447,73.12500652228482 116.40539372898638,79.20003447169438 115.16456872504205,100.35003605415113 122.81632291525602,106.20001023402438 130.88168543949723,101.02503365511075 132.53611877840012,80.10003756918013 124.67756042070687,73.12500652228482 116.40539372898638,80.10003756918013 114.95776455849409,99.67503830092028 122.40271458122879,105.52501379372552 130.88168543949723,100.57503527076915 132.53611877840012,80.32503830105998 126.33199375867844,73.80001023411751 116.81900206301361,78.7500328226015 114.95776455849409,100.12503681937233 122.60951874777675,105.7500126240775 130.88168543949723,100.35003605415113 132.74292294401675,80.77503971522674 125.50477709062397,73.57500901352614 116.81900206301361,78.97503365529701 115.16456872504205,99.22503971401602 117.43941456638277,103.50002356455661 123.43673541676253,105.7500126240775 130.88168543949723,100.57503527076915 132.53611877840012,78.97503365529701 123.64353958517313,73.35000777663663 116.81900206301361,78.97503365529701 115.37137289345264,100.35003605415113 123.22993125021458,106.4250090138521 130.67488127201796,100.80003447085619 132.74292294401675,79.65003605373204 125.2979729231447,73.35000777663663 117.23261039890349,79.20003447169438 114.95776455849409,99.22503971401602 118.68023956939578,104.62501830467954 124.26395208667964,105.97501143696718 130.88168543949723,100.57503527076915 132.12251044344157,79.42503527132794 124.05714791920036,73.35000777663663 117.23261039890349,79.20003447169438 115.5781770600006,99.22503971401602 120.95508540980518,105.7500126240775 130.46807710453868,100.80003447085619 132.74292294401675,80.77503971522674 125.09116875566542,73.35000777663663 117.23261039890349,78.7500328226015 115.37137289345264,98.77504106098786 120.95508540980518,105.7500126240775 130.46807710453868,101.25003282167017 133.15653127990663,80.55003901640885 125.9183854246512,74.02501143771224 117.23261039890349,78.7500328226015 114.95776455849409,99.45003901585005 122.1959104128182,106.20001023402438 130.67488127201796,100.57503527076915 132.53611877840012,79.42503527132794 125.50477709062397,73.57500901352614 120.1278687408194,74.7000149472151 117.23261039890349,79.20003447169438 115.37137289345264,100.80003447085619 123.0231270827353,106.20001023402438 131.0884896060452,100.12503681937233 132.53611877840012,79.20003447169438 124.05714791920036,73.80001023411751 116.81900206301361,79.42503527132794 115.5781770600006,100.35003605415113 122.81632291525602,105.7500126240775 130.88168543949723,99.90003756829537 132.53611877840012,79.65003605373204 125.2979729231447,73.57500901352614 117.23261039890349,78.52503197267652 115.16456872504205,100.57503527076915 121.98910624627024,105.97501143696718 130.2612729370594,101.25003282167017 132.74292294401675,79.87503681983799 124.26395208667964,73.57500901352614 115.99178539495915,77.85002932138741 113.51013538707048,99.45003901585005 119.50745623931289,106.65000777621754 125.71158125717193,106.87500652275048 131.50209794100374,102.82502651819959 133.3633354473859,84.60004901466891 128.60683959908783,72.6750039642211 123.0231270827353,72.0 117.23261039890349,76.27502254652791 113.09652705304325,95.85004817298613 115.37137289345264,105.3000149463769 120.54147707484663,108.0 127.57281876262277,106.65000777621754 133.57013961393386,98.10004295501858" stroke="#4dd2ff" stroke-linecap="round" stroke-linejoin="round" stroke-width="0.5"><title>2024-04-15 5.9km</title><desc>1713172666000</desc></polyline><polyline fill="none" points="173.46374983619899,75.81285964883864 173.70824982505292,83.08386033237912 175.5012497403659,84.76859802869149 177.86474962858483,84.59125733131077 179.98374952888116,82.10848478204571 180.39124950906262,74.03943808190525 176.72374968230724,72.0 173.9527498134412,74.92614919715561 173.6267498289235,82.64050790888723 175.09374975925311,84.59125733131077 177.13124966342002,84.8572683671955 180.06524952501059,82.46316689322703 180.14674952114,73.33006871235557 177.13124966342002,72.08867129404098 174.52324978634715,73.77342461806256 173.46374983619899,82.01981423760299 175.41974974423647,84.67992768308613 178.2722496096976,84.59125733131077 180.14674952114,82.72917840688024 180.71724949404597,74.48279372265097 177.86474962858483,72.17734258121345 174.0342498095706,74.57146483066026 173.38224984053522,81.66513199394103 175.8272497248836,84.8572683671955 179.73924954002723,83.34987170668319 180.71724949404597,74.74880702700466 178.43524960195646,72.3546851357678 174.52324978634715,73.77342461806256 173.46374983619899,82.28582585090771 175.74574972875416,84.8572683671955 179.49474955163896,83.70455344638322 180.7987494901754,75.28083345736377 179.16874956758693,72.53202766401228 177.21274965954944,72.17734258121345 174.60474978247657,73.59608227584977 173.54524983279407,81.84247312904336 175.58274973649532,84.76859802869149 179.49474955163896,83.70455344638322 180.14674952114,73.33006871235557 176.39774969778955,72.3546851357678 174.11574980570003,74.74880702700466 173.70824982505292,82.72917840688024 177.21274965954944,84.8572683671955 180.06524952501059,82.55183740437496 180.5542495022528,74.57146483066026 177.62024964019656,72.26601386175025 174.11574980570003,74.57146483066026 173.54524983279407,82.72917840688024 176.47924969391897,84.8572683671955 179.82074953662232,82.64050790888723 180.5542495022528,74.66013593226671 177.3757496518083,72.08867129404098 174.19724980182946,74.39412260765675 173.54524983279407,82.81784889823757 176.2347497055307,84.8572683671955 178.5982495942153,84.5025869726669 180.06524952501059,82.64050790888723 180.63574949791655,74.39412260765675 177.5387496445328,72.17734258121345 174.19724980182946,74.48279372265097 173.70824982505292,82.46316689322703 176.39774969778955,84.8572683671955 179.73924954002723,83.26120125502348 180.71724949404597,74.48279372265097 177.5387496445328,72.17734258121345 174.27874979842454,74.12810922332574 173.6267498289235,82.19715532008559 176.07174971327186,84.8572683671955 179.73924954002723,83.17253079707734 180.63574949791655,74.8374781155726 178.02774962130934,72.26601386175025 174.44174979021773,73.86209577939007 173.54524983279407,82.64050790888723 176.2347497055307,84.94593869941309 179.82074953662232,83.26120125502348 180.63574949791655,74.74880702700466 178.02774962130934,72.26601386175025 173.46374983619899,74.03943808190525 172.9747498598881,83.08386033237912 171.01874995231628,86.45333333034068 172.0782499019988,92.48289268498775 164.8247502441518,94.07894738053437 162.70575034432113,102.67987180198543 159.2012505098246,106.49263276788406 163.52075030608103,108.0" stroke="#4dd2ff" stroke-linecap="round" stroke-linejoin="round" stroke-width="0.5"><title>2024-04-14 5.4km</title><desc>1713087921000</desc></polyline><polyline fill="none" points="19.308078669942915,136.2449414881412 24.485219524241984,146.53061999403872 34.16422199271619,147.0204134027008 39.11626976635307,138.93881279206835 39.34136284701526,115.91838654712774 29.662360378541052,112.73469783482142 23.13466104026884,119.102072162088 21.33391639497131,141.14288766426034 25.16049876715988,146.04082651273347 31.23801194317639,147.26531007955782 38.66608360502869,140.65309337619692 40.241735169664025,118.12247691815719 30.337639621458948,112.24489929620177 22.909567959606647,119.59186967485584 21.33391639497131,141.38778478070162 29.437267298810184,147.0204134027008 38.4409905243665,141.8775789581705 40.9170144116506,120.5714644792024 33.038756588473916,112.24489929620177 23.80994028225541,117.1428813803941 21.784102556295693,140.89799052942544 29.662360378541052,147.5102067377884 38.21589744370431,142.6122700877022 40.466828250326216,119.83676840318367 31.91329118516296,112.48979857447557 23.58484720159322,118.12247691815719 21.10882331430912,140.40819620504044 28.31180189549923,148.0 38.4409905243665,142.12247602036223 40.9170144116506,120.81636313488707 33.93912891112268,112.73469783482142 23.80994028225541,117.87757806130685 21.559009475633502,139.91840180684812 28.76198805682361,147.0204134027008 38.21589744370431,142.85716709471308 40.691921330057085,119.83676840318367 32.138384266756475,112.24489929620177 23.80994028225541,117.63267918629572 21.559009475633502,140.16329901479185 26.961243411526084,147.0204134027008 34.614408154040575,146.53061999403872 38.66608360502869,142.36737306322902 40.466828250326216,119.34697092790157 32.138384266756475,112.24489929620177 23.80994028225541,117.3877802924253 21.784102556295693,141.38778478070162 29.437267298810184,148.0 39.11626976635307,141.38778478070162 40.466828250326216,118.12247691815719 31.688198105432093,112.24489929620177 23.13466104026884,118.61227457690984 21.10882331430912,140.89799052942544 29.662360378541052,147.5102067377884 38.66608360502869,141.14288766426034 40.691921330057085,119.34697092790157 31.688198105432093,112.0 23.58484720159322,117.3877802924253 21.559009475633502,139.18371007288806 26.961243411526084,147.0204134027008 38.66608360502869,142.12247602036223 40.466828250326216,118.12247691815719 33.26384966913611,112.24489929620177 23.58484720159322,117.3877802924253 21.784102556295693,140.89799052942544 27.861615734174848,147.26531007955782 38.21589744370431,142.6122700877022 40.691921330057085,120.81636313488707 33.26384966913611,112.0 23.58484720159322,117.1428813803941 21.559009475633502,140.16329901479185 28.76198805682361,147.26531007955782 38.21589744370431,142.6122700877022 40.9170144116506,119.102072162088 35.28968739602715,112.97959707607515 27.411429571919143,112.97959707607515 20.433544072322547,127.91841617063619 20.208450991660357,140.16329901479185 19.082985588349402,135.26535137346946" stroke="#4dd2ff" stroke-linecap="round" stroke-linejoin="round" stroke-width="0.5"><title>2024-04-13 4.9km</title><desc>1713000859000</desc></polyline><polyline fill="none" points="66.23424911126494,127.13380947289988 67.92029639240354,143.64333458943292 72.97843823861331,146.85350970248692 80.77640691678971,146.39491346362047 84.14850147999823,137.91087066824548 84.78076921030879,117.50321209034882 75.50750916078687,113.37580394907854 68.55256412364542,120.71341458009556 67.28802866209298,140.43315611430444 71.29239095747471,145.01912433560938 77.40431235264987,145.7070189770311 83.72698965948075,140.20385752338916 84.99152512103319,117.50321209034882 75.71826507057995,113.37580394907854 68.55256412364542,121.85991465463303 67.70954048261046,140.43315611430444 75.92902098130435,146.1656153188087 83.51623374875635,140.8917532453779 85.62379285227507,119.79621421173215 78.03658008389175,113.14650333323516 69.60634367354214,118.42041314439848 67.92029639240354,139.97455891454592 75.29675325099379,145.93631715606898 83.51623374875635,140.43315611430444 85.62379285227507,119.56691407691687 78.24733599368483,112.9172027008608 69.60634367354214,118.87901356909424 67.92029639240354,140.43315611430444 75.71826507057995,146.1656153188087 83.51623374875635,141.12105178507045 85.62379285227507,118.87901356909424 76.98280053213239,112.9172027008608 69.39558776468039,119.3376139246393 68.34180821292102,141.8089473012369 78.45809190440923,145.93631715606898 84.14850147999823,139.0573643099051 84.57001330051571,114.7516072797589 73.82146187964827,112.4586013846565 67.92029639240354,120.2548144296743 66.65576093178242,141.8089473012369 71.92465868685395,147.08280779630877 77.40431235264987,147.54140393226407 85.41303694155067,140.66245468822308 85.83454876113683,115.89810958434828 75.92902098130435,112.0 67.70954048261046,118.87901356909424 66.23424911126494,141.8089473012369 70.23861140571535,147.31210587290116 77.19355644285679,147.7707019748632 85.62379285227507,139.74526028940454 86.46681649237871,117.27391178393736 74.87524143047631,112.6879020514898 67.0772727522999,120.02551432931796 66.23424911126494,141.5796488125343 74.45372960995883,148.0 84.57001330051571,142.2675442257896 87.52059604320675,120.4841145137325 82.46245419792831,112.6879020514898 71.92465868685395,113.60510454676114 67.0772727522999,121.17201466136612 67.92029639240354,142.0382457722444 77.82582417409867,146.62421159190126 83.93774556927383,140.66245468822308 85.83454876113683,120.02551432931796 82.04094237834215,114.29300623829477 76.56128871254623,112.6879020514898 68.76332003436983,119.3376139246393 68.13105230312794,140.20385752338916 75.50750916078687,145.93631715606898 83.93774556927383,140.66245468822308 85.62379285227507,119.56691407691687 78.03658008389175,112.9172027008608 69.18483185395598,119.3376139246393 68.13105230312794,140.43315611430444 74.45372960995883,146.39491346362047 81.19791873637587,145.01912433560938 84.35925739072263,140.43315611430444 86.04530467186123,119.56691407691687 78.45809190440923,112.9172027008608 67.92029639240354,119.79621421173215 65.81273729074746,138.36946817603894" stroke="#4dd2ff" stroke-linecap="round" stroke-linejoin="round" stroke-width="0.5"><title>2024-04-12 5.1km</title><desc>1712913892000</desc></polyline><polyline fill="none" points="105.66666666697711,120.57089550502133 105.33333333325572,125.6481607313035 107.46666666679084,128.0417194024194 110.80000000004657,126.51854638621444 111.66666666674428,119.84556973085273 111.06666666665114,118.32238383888034 109.20000000018626,117.45199082617182 106.46666666655801,118.97517808555858 105.73333333339542,125.72069289890351 107.46666666679084,127.82412340369774 110.86666666669771,126.37348216457758 111.5999999998603,119.84556973085273 109.53333333320916,117.52452360716416 106.60000000032596,118.8301127353916 105.8000000002794,125.6481607313035 108.00000000023283,127.96918740827823 110.73333333339542,126.73614267772064 111.66666666674428,120.13570010563126 109.53333333320916,117.45199082617182 106.60000000032596,118.8301127353916 105.8000000002794,125.57562855805736 107.4000000001397,127.82412340369774 110.73333333339542,126.73614267772064 111.53333333367482,119.70050451083807 109.4000000001397,117.59705638268497 106.60000000032596,118.75758005207172 105.8000000002794,125.28549981117249 107.20000000018626,127.67905937734758 109.20000000018626,127.82412340369774 110.86666666669771,126.51854638621444 111.5999999998603,120.20823268569075 110.93333333358169,118.24985111760907 107.46666666679084,117.74212191725383 106.26666666683741,119.55543926928658 105.33333333325572,126.59107848885469 112.39999999990687,129.2022305704886 114.66666666651145,128.476911253063 117.46666666679084,125.72069289890351 121.53333333320916,127.02627099078381 122.46666666655801,128.91210290871095 122.26666666660458,134.13438753940864 126.06666666665114,139.21158174338052 132.60000000009313,141.60510693327524 139.33333333325572,142.54800917388638 141.33333333325572,141.2424519812339 141.1333333333023,129.0571667504264 140.26666666660458,129.41982625983655 140.0,131.81337562022964" stroke="#4dd2ff" stroke-linecap="round" stroke-linejoin="round" stroke-width="0.5"><title>2024-04-11 3.0km</title><desc>1712828151000</desc></polyline><polyline fill="none" points="161.35425255820155,119.66455110465176 160.50035157520324,140.8000333942473 163.7024802584201,146.14194570016116 169.6797871319577,147.76774327387102 179.49964842572808,141.49680508556776 180.99397514387965,118.73551561543718 172.02801483217627,112.0 163.2755297664553,116.41292567458004 160.71382682118565,140.33551884675398 167.33155943173915,147.30322976852767 175.01666826941073,146.37420254875906 179.07269793376327,142.19357662112452 181.20745038893074,120.36132753989659 174.16276728827506,112.6967781551648 167.54503467679024,113.16129683866166 163.0620545214042,117.80647984752432 160.07340108510107,140.1032615462318 168.82588614989072,148.0 179.07269793376327,143.1226050911937 181.84787612594664,123.61294883536175 180.99397514387965,116.87744380184449 176.9379454785958,113.3935561538674 168.82588614989072,112.23225940275006 163.91595550253987,114.78711168235168 158.15212387498468,123.61294883536175 160.71382682118565,140.56777612888254 164.98333173058927,146.8387161931023 173.09539105929434,147.53548652934842 178.85922268871218,142.65809089131653 180.78049989882857,121.98713861336 175.44361876044422,112.6967781551648 169.0393613949418,112.0 163.2755297664553,115.48388921190053 160.71382682118565,140.33551884675398 166.47765844874084,147.30322976852767 174.16276728827506,147.07097298954614 179.71312367077917,140.56777612888254 181.63440088089556,121.29036254296079 178.43227219767869,115.2516300524585 172.24149007815868,112.23225940275006 163.0620545214042,116.1806665849872 160.50035157520324,139.87100422848016 166.69113369472325,147.07097298954614 174.16276728827506,146.8387161931023 179.92659891583025,140.8000333942473 181.42092563398182,121.29036254296079 175.6570940054953,112.6967781551648 164.76985648553818,113.62581545230933 161.56772780232131,119.89680993393995 161.35425255820155,142.89034799975343 171.81453958712518,147.53548652934842 179.07269793376327,140.8000333942473 179.92659891583025,119.89680993393995 176.9379454785958,114.55485247145407 170.9606386050582,113.16129683866166 163.2755297664553,119.20003339461982 161.56772780232131,140.1032615462318 170.3202128689736,147.07097298954614 178.64574744272977,141.49680508556776 180.14007416181266,121.52262125024572 178.00532170571387,115.94840747769922 172.24149007815868,113.16129683866166 163.2755297664553,118.9677745134104 160.50035157520324,140.33551884675398 168.82588614989072,148.0 174.58971777837723,147.53548652934842 177.15142072550952,143.1226050911937 179.92659891583025,121.0581038184464 173.09539105929434,113.62581545230933 167.75850992184132,114.09033399634063 163.4890050124377,119.20003339461982 161.56772780232131,139.40648954198696 169.0393613949418,146.60645937989466 178.00532170571387,142.65809089131653 179.92659891583025,119.89680993393995 172.66844056919217,113.3935561538674 163.7024802584201,119.20003339461982 161.78120304830372,139.87100422848016 168.82588614989072,146.8387161931023 178.2187969526276,141.03229064284824 179.92659891583025,119.89680993393995 171.81453958712518,113.62581545230933 163.2755297664553,119.43229225859977 161.56772780232131,140.1032615462318 170.53368811495602,147.07097298954614 178.00532170571387,141.9613194600679 179.71312367077917,119.20003339461982 172.45496532320976,113.62581545230933 163.4890050124377,118.03873881534673 160.92730206623673,139.87100422848016 167.97198516782373,146.8387161931023 178.00532170571387,142.65809089131653 180.78049989882857,121.0581038184464 172.66844056919217,113.62581545230933 167.11808418575674,114.55485247145407 161.56772780232131,120.8258450764697 159.85992583818734,139.40648954198696" stroke="#4dd2ff" stroke-linecap="round" stroke-linejoin="round" stroke-width="0.5"><title>2024-04-09 5.6km</title><desc>1712653834000</desc></polyline><polyline fill="none" points="20.53122810088098,158.56606966350228 20.115018347278237,179.84909410309047 23.6528012547642,186.1886894754134 28.647318299859762,187.09434487274848 34.474254853092134,185.96227558329701 38.63635239191353,180.5283370995894 40.5092962840572,158.11323772999458 36.97151337657124,153.3584983407054 30.52026219293475,152.0 21.98796223849058,158.79248560452834 20.53122810088098,180.75475139776245 29.895947561599314,187.5471724702511 38.63635239191353,180.5283370995894 40.09308653045446,159.2453174367547 35.09856948442757,153.13208199315704 30.728367069736123,152.6792492463719 21.98796223849058,159.2453174367547 19.69880859274417,179.3962653542403 23.6528012547642,185.7358616751153 29.68784268386662,187.5471724702511 38.844457268714905,180.30192278441973 40.71740116085857,160.1509808965493 32.80941583868116,152.22641643229872 24.90143051557243,153.81133098574355 21.363647608086467,158.33965370524675 20.115018347278237,181.2075799438171 29.063528053462505,187.32075868011452 38.42824751511216,181.2075799438171 40.5092962840572,158.33965370524675 37.595828007906675,154.037747282302 31.144576823338866,152.22641643229872 21.57175248488784,158.79248560452834 20.115018347278237,181.66040842118673 29.063528053462505,188.0 38.22014263831079,181.66040842118673 40.5092962840572,157.88682173844427 30.936471945606172,152.4528328482993 21.98796223849058,157.6604057296645 19.490703715011477,180.75475139776245 26.566269530914724,188.0 32.185101207345724,187.32075868011452 37.803932883776724,181.66040842118673 40.30119140725583,158.33965370524675 37.595828007906675,154.037747282302 30.52026219293475,152.22641643229872 21.363647608086467,159.01890152902342 19.906913470476866,181.66040842118673 23.444696377962828,186.41510334983468 29.063528053462505,187.77358624362387 38.22014263831079,181.8868226353079 40.71740116085857,159.01890152902342 38.012037760578096,154.26416356186382 30.936471945606172,152.4528328482993 21.57175248488784,157.6604057296645 19.28259883914143,179.3962653542403 26.150059776380658,187.32075868011452 32.60131096094847,187.32075868011452 37.803932883776724,182.79247932019643 40.92550603765994,163.32080087205395 36.763408498838544,153.13208199315704 24.27711588423699,154.037747282302 20.947437854483724,159.69814920029603 20.323123223148286,182.33965101116337 25.1095353923738,187.09434487274848 30.936471945606172,187.5471724702511 39.052562144584954,179.62267973762937 40.5092962840572,159.69814920029603 37.17961825337261,154.26416356186382 29.063528053462505,152.22641643229872 21.363647608086467,158.33965370524675 19.490703715011477,180.75475139776245 28.855423176661134,188.0 38.42824751511216,181.66040842118673 40.5092962840572,158.79248560452834 38.22014263831079,154.71699607139453 31.144576823338866,152.0 24.90143051557243,154.26416356186382 20.947437854483724,160.1509808965493 21.155542731285095,180.5283370995894 29.2716329311952,186.1886894754134 37.17961825337261,180.9811656794045 38.63635239191353,159.01890152902342 31.768891454674304,153.3584983407054 20.73933297675103,160.83022831380367 19.074493962340057,178.0377787007019" stroke="#4dd2ff" stroke-linecap="round" stroke-linejoin="round" stroke-width="0.5"><title>2024-04-08 5.0km</title><desc>1712568268000</desc></polyline><polyline fill="none" points="66.4152656905353,165.25158479553647 68.6482441201806,182.25769813661464 74.12919117789716,185.3497082204558 80.8281264686957,183.5828457120806 85.29408332984895,177.8405352574773 84.68508921284229,155.09204177255742 75.34717941191047,152.0 67.83625196386129,159.95095801516436 67.43025588523597,182.03684015013278 72.50520686432719,186.01228138781153 81.23412254732102,184.90799269266427 84.88808725215495,178.50311011075974 85.0910852914676,155.31290177535266 73.72319509927183,152.88344083726406 67.43025588523597,162.60127259464934 67.22725784778595,181.37426608987153 73.11420098226517,185.79142368212342 80.8281264686957,184.90799269266427 85.29408332984895,178.50311011075974 84.88808725215495,154.8711817532312 74.12919117789716,152.88344083726406 68.03925000317395,159.28837899840437 66.61826372984797,180.26997565920465 75.55017745122313,186.6748544073198 84.68508921284229,179.82825937122107 86.10607548709959,159.06751929339953 82.65510882157832,153.54602129128762 77.1741617647931,152.4417204519268 71.49021666869521,153.98774151154794 68.44524608179927,158.84665957116522 67.22725784778595,180.93254996673204 70.88122255075723,185.3497082204558 78.79814607743174,185.79142368212342 84.88808725215495,179.82825937122107 85.4970813691616,156.85892133158632 78.5951480390504,152.22086023399606 68.6482441201806,158.1840803064406 66.82126176916063,179.82825937122107 70.27222843375057,184.90799269266427 75.34717941191047,186.01228138781153 84.48209117352962,181.15340803703293 86.51207156572491,159.95095801516436 83.6700990172103,154.6503217178397 76.76816568616778,152.88344083726406 70.47522647306323,155.9754816845525 67.63325392547995,161.49697514250875 67.22725784778595,183.1411299200263 70.47522647306323,186.6748544073198 77.58015784341842,186.89571204781532 84.48209117352962,179.60740120266564 86.51207156572491,158.62579983263277 77.37715980317444,152.66258065239526 68.6482441201806,158.404940078035 66.21226765029132,180.7116918808315 73.31719902064651,187.77914244239219 84.48209117352962,180.04911752347834 86.30907352548093,159.06751929339953 82.45211078133434,153.3251611564774 77.1741617647931,152.4417204519268 68.24224804248661,158.84665957116522 67.02425980754197,180.7116918808315 76.36216960847378,186.23313907766715 84.48209117352962,179.16568481526338 86.10607548709959,157.5215008938685 77.37715980317444,152.88344083726406 68.24224804248661,159.28837899840437 66.82126176916063,179.82825937122107 70.88122255075723,184.90799269266427 76.97116372548044,186.23313907766715 84.68508921284229,179.16568481526338 86.10607548709959,157.5215008938685 82.45211078133434,153.54602129128762 74.73818529583514,152.88344083726406 67.43025588523597,162.1595536635723 66.82126176916063,182.920271998737 70.27222843375057,186.89571204781532 78.5951480390504,186.45399675075896 84.88808725215495,178.50311011075974 85.0910852914676,155.75462173111737 75.95617353077978,152.0 68.03925000317395,159.28837899840437 66.82126176916063,180.04911752347834 72.70820490363985,185.79142368212342 78.5951480390504,185.57056595920585 85.0910852914676,178.28225184348412 86.10607548709959,157.96322051854804 82.65510882157832,153.54602129128762 75.7531754905358,152.66258065239526 67.83625196386129,159.95095801516436 67.63325392547995,181.59512412617914 73.31719902064651,186.6748544073198 80.8281264686957,185.57056595920585 85.70007940940559,172.76078977715224 83.6700990172103,155.9754816845525 72.09921078570187,154.4294616652187 66.61826372984797,166.79759914707392 67.43025588523597,184.46627709828317 72.09921078570187,187.5582848689519 79.81313627399504,186.01228138781153 85.0910852914676,178.0613935587462 86.71506960410625,160.61353688314557 84.68508921284229,155.09204177255742 77.58015784341842,152.88344083726406 71.49021666869521,154.6503217178397 66.61826372984797,166.5767400036566 67.43025588523597,184.46627709828317 71.89621274732053,187.3374272780493 80.01613431237638,185.79142368212342 85.0910852914676,178.0613935587462 84.88808725215495,155.75462173111737 74.33218921720982,152.66258065239526 67.63325392547995,161.71783466590568 68.03925000317395,182.25769813661464 74.33218921720982,187.3374272780493 81.43712058663368,186.89571204781532 85.29408332984895,181.59512412617914 85.4970813691616,156.63806144427508 73.5201970608905,152.66258065239526 67.22725784778595,161.05525604565628 66.21226765029132,181.81598214642145 69.46023627743125,186.6748544073198 76.56516764685512,187.77914244239219 85.0910852914676,179.38654301688075 85.90307744778693,157.30064105591737 74.53518725559115,152.88344083726406 67.02425980754197,161.9386941732373 66.4152656905353,183.1411299200263 70.27222843375057,187.1165696713142 76.76816568616778,187.5582848689519 82.85810685995966,184.46627709828317 85.70007940940559,178.7239683624357 86.51207156572491,157.30064105591737 75.34717941191047,152.4417204519268 67.22725784778595,160.1718176540453 66.4152656905353,182.25769813661464 70.06923039536923,186.45399675075896 77.58015784341842,188.0 84.88808725215495,182.03684015013278 86.51207156572491,158.1840803064406 83.6700990172103,154.20860159629956 75.95617353077978,152.4417204519268 67.83625196386129,158.84665957116522 65.60327353421599,180.26997565920465 68.24224804248661,185.12885046424344 74.12919117789716,187.5582848689519 84.48209117352962,182.03684015013278 86.71506960410625,159.95095801516436 77.78315588179976,152.4417204519268 68.6482441201806,158.1840803064406 66.4152656905353,179.82825937122107 76.1591715682298,187.5582848689519 85.29408332984895,182.25769813661464 87.32406372204423,161.05525604565628 83.46710097789764,154.8711817532312 77.78315588179976,152.88344083726406 68.24224804248661,158.84665957116522 66.21226765029132,180.49083377839997 69.25723823811859,185.3497082204558 76.1591715682298,187.5582848689519 85.4970813691616,180.93254996673204 86.91806764341891,161.05525604565628 84.27909313421696,155.75462173111737 77.37715980317444,152.4417204519268 68.03925000317395,159.06751929339953 66.61826372984797,181.15340803703293 69.86623235512525,185.57056595920585 76.1591715682298,187.3374272780493 84.68508921284229,181.81598214642145 86.51207156572491,160.1718176540453 77.1741617647931,152.88344083726406 68.03925000317395,159.95095801516436 66.4152656905353,181.37426608987153 76.56516764685512,186.89571204781532 85.0910852914676,180.49083377839997 86.91806764341891,159.50923868711106 76.56516764685512,152.66258065239526 67.83625196386129,159.95095801516436 66.61826372984797,180.49083377839997 76.36216960847378,186.89571204781532 84.88808725215495,180.93254996673204 86.30907352548093,159.28837899840437 82.04611470364034,153.7668814100325 76.1591715682298,152.88344083726406 68.24224804248661,160.3926772766281 66.21226765029132,180.7116918808315 75.14418137352914,187.5582848689519 84.88808725215495,182.6994140613824 87.73005979973823,161.27611560258083 84.0760950949043,154.4294616652187 72.50520686432719,153.7668814100325 67.83625196386129,160.61353688314557 66.61826372984797,177.8405352574773" stroke="#4dd2ff" stroke-linecap="round" stroke-linejoin="round" stroke-width="0.5"><title>2024-04-06 11.8km</title><desc>1712394949000</desc></polyline><polyline fill="none" points="114.73887379001826,183.55846398649737 122.68874886725098,188.0 130.20890096854419,181.68834167066962 132.78723883163184,161.35068922280334 130.20890096854419,154.5714423255995 122.25902589131147,152.70130266225897 117.10235016420484,156.20781361334957 114.09428932424635,177.24679668596946 119.68068802729249,186.1298803430982 130.20890096854419,182.38963767001405 133.00210032053292,160.18185460055247 128.91973203700036,154.33767492882907 121.82930291350931,153.63637263397686 116.88748867623508,157.37664972199127 114.30915081314743,179.116921659559 119.89554951712489,186.36364536103792 129.56431650277227,183.3246987578459 132.35751585382968,160.64938850165345 127.63056310545653,153.87014008359984 120.75499547086656,153.87014008359984 116.672627187334,158.07795117795467 114.30915081314743,178.4156249256339 118.82124207355082,185.89611530699767 129.77917799074203,183.09093351243064 132.57237734273076,160.64938850165345 126.34139417298138,153.40260516735725 116.45776569936424,157.61041689128615 113.66456634737551,180.5195146559272 121.61444142553955,186.83117534592748 130.42376245651394,181.4545763025526 132.78723883163184,160.88315542577766 129.9940394796431,155.2727444106713 124.62250226549804,152.93507018173113 115.81318123266101,158.311718294397 113.66456634737551,178.88315609912388 120.75499547086656,186.59741036244668 130.63862394541502,181.2208109172061 132.57237734273076,160.4156215598341 124.40764077659696,152.93507018173113 116.24290421139449,158.07795117795467 114.30915081314743,179.58445272780955 121.61444142553955,186.83117534592748 130.63862394541502,181.2208109172061 132.35751585382968,159.01301954011433 123.76305631082505,153.16883768350817 116.24290421139449,158.311718294397 114.5240123020485,180.28574919956736 122.90361035708338,186.59741036244668 131.06834692228585,180.75328009319492 132.78723883163184,159.71432062867098 125.05222524143755,153.16883768350817 115.81318123266101,159.01301954011433 114.30915081314743,180.28574919956736 122.04416440147907,186.83117534592748 130.8534854343161,181.4545763025526 132.78723883163184,159.94808762311004 124.19277928862721,153.16883768350817 115.81318123266101,159.01301954011433 114.09428932424635,180.28574919956736 122.90361035708338,186.83117534592748 130.63862394541502,181.4545763025526 132.57237734273076,159.94808762311004 125.26708673126996,152.93507018173113 116.02804272156209,158.07795117795467 114.30915081314743,179.35068720206618 121.18471844866872,186.59741036244668 127.41570161655545,185.42858518264256 130.8534854343161,181.2208109172061 132.78723883163184,159.24678658717312 125.05222524143755,152.93507018173113 116.45776569936424,157.8441840435844 114.09428932424635,179.35068720206618 120.5401339828968,186.59741036244668 130.42376245651394,182.1558723547496 132.57237734273076,160.18185460055247 125.69680970720947,152.46753512625583 116.672627187334,157.37664972199127 114.09428932424635,179.58445272780955 121.39957993570715,186.59741036244668 128.06028608232737,185.19482009438798 131.28320841118693,180.5195146559272 132.14265436585993,158.77925247582607 123.5481948228553,152.70130266225897 115.81318123266101,158.54548539384268 114.30915081314743,180.987045513466 122.25902589131147,186.83117534592748 130.8534854343161,180.75328009319492 132.57237734273076,159.94808762311004 124.40764077659696,152.93507018173113 115.59831974562258,159.48055361700244 114.30915081314743,179.58445272780955 122.04416440147907,186.59741036244668 130.63862394541502,181.68834167066962 132.57237734273076,160.18185460055247 123.76305631082505,152.93507018173113 116.02804272156209,158.77925247582607 114.30915081314743,180.5195146559272 119.46582653932273,186.36364536103792 130.20890096854419,182.38963767001405 133.00210032053292,160.4156215598341 124.40764077659696,152.70130266225897 116.45776569936424,157.8441840435844 114.73887379001826,180.05198372644372 122.90361035708338,186.83117534592748 130.8534854343161,180.75328009319492 132.78723883163184,160.18185460055247 128.70487054716796,154.10390751506202 123.5481948228553,152.70130266225897 116.24290421139449,158.77925247582607 114.30915081314743,179.81821823655628 122.90361035708338,186.83117534592748 130.63862394541502,182.38963767001405 132.57237734273076,159.48055361700244 124.40764077659696,152.23376757162623 116.88748867623508,156.44158086995594 114.30915081314743,179.81821823655628 117.31721165310591,184.96105498890392 123.11847184505314,186.83117534592748 131.28320841118693,180.28574919956736 132.57237734273076,159.48055361700244 128.49000906012952,153.63637263397686 122.90361035708338,152.46753512625583 116.24290421139449,158.07795117795467 114.5240123020485,180.5195146559272 123.76305631082505,187.29870526026934 130.8534854343161,181.68834167066962 132.35751585382968,159.48055361700244 123.97791779972613,152.0 116.02804272156209,158.07795117795467 114.09428932424635,179.116921659559 120.75499547086656,186.59741036244668 130.63862394541502,181.92210702155717 132.35751585382968,159.71432062867098 125.05222524143755,152.70130266225897 119.46582653932273,153.40260516735725 116.02804272156209,159.01301954011433 114.30915081314743,179.81821823655628 122.47388738021255,186.83117534592748 131.06834692228585,181.2208109172061 132.35751585382968,160.18185460055247 124.62250226549804,152.46753512625583 116.02804272156209,158.77925247582607 114.5240123020485,180.75328009319492 122.25902589131147,187.29870526026934 130.8534854343161,181.2208109172061 132.35751585382968,158.77925247582607 128.91973203700036,154.10390751506202 122.25902589131147,152.70130266225897 116.02804272156209,158.77925247582607 114.73887379001826,180.75328009319492 123.5481948228553,186.83117534592748 131.06834692228585,180.05198372644372 132.57237734273076,159.01301954011433 123.11847184505314,152.46753512625583 117.10235016420484,156.67534810886718 113.87942783627659,164.6234238401521 113.66456634737551,182.62340296804905" stroke="#4dd2ff" stroke-linecap="round" stroke-linejoin="round" stroke-width="0.5"><title>2024-04-03 9.7km</title><desc>1712137473000</desc></polyline><polyline fill="none" points="157.13218562770635,173.88240205077454 162.97136189695448,172.70593269425444 160.80870401952416,179.05886198906228 165.56655135005713,186.35295017133467 176.59610652644187,186.35295017133467 182.86781437229365,163.29416200425476 179.40756176784635,153.41177246859297 171.18946183286607,152.0 165.3502855617553,155.29413477377966 162.75509610958397,178.82356854062527 165.78281713835895,186.82353592454456 173.3521197102964,186.82353592454456 178.9750301912427,182.82355477591045 181.35395385790616,161.1765097170137 176.16357495170087,154.1176584654022 165.56655135005713,158.3529711177107 162.75509610958397,180.7059156380128 169.45933553017676,187.29412160813808 178.9750301912427,182.3529684243258 180.9214222813025,160.94121493096463 174.86598022468388,153.41177246859297 165.3502855617553,158.3529711177107 162.97136189695448,181.41179550881498 170.32439868152142,187.76470722071826 178.9750301912427,182.5882616089657 181.35395385790616,160.70592012698762 175.5147775877267,153.88236315036193 169.45933553017676,154.58824904100038 164.9177539870143,159.29415093222633 162.53883032128215,180.7059156380128 169.67560131847858,188.0 178.75876440480351,182.5882616089657 181.13768807053566,160.0000356088858 175.5147775877267,153.88236315036193 164.9177539870143,159.0588560050819 162.53883032128215,179.5294488342479 165.3502855617553,185.6470714090392 171.40572762023658,187.76470722071826 179.62382755521685,181.6470887644682 181.13768807053566,160.23533046571538 175.2985117994249,153.64706781809218 170.54066446889192,153.64706781809218 164.9177539870143,158.82356106000952 162.53883032128215,179.76474222983234 169.02680395450443,187.76470722071826 178.5424986165017,183.52943417197093 181.35395385790616,161.1765097170137 177.0286381021142,154.1176584654022 171.40572762023658,153.88236315036193 165.13401977531612,158.82356106000952 162.75509610958397,180.2353289697785 167.72920922748744,187.0588287753053 178.9750301912427,185.88236434734426" stroke="#4dd2ff" stroke-linecap="round" stroke-linejoin="round" stroke-width="0.5"><title>2024-04-02 3.0km</title><desc>1712049520000</desc></polyline><polyline fill="none" points="22.826931037940085,203.32871285523288 21.4385951096192,222.96505812904797 25.603602894581854,227.24475919967517 31.851114572025836,227.49650615244173 36.478900998830795,222.20981619879603 38.79279421269894,197.2867374115158 30.92555728647858,192.0 23.521099002100527,198.0419849352911 21.20720578916371,222.20981619879603 25.14082425273955,226.99301222898066 31.61972525063902,227.49650615244173 36.478900998830795,221.95806885091588 38.79279421269894,197.53848660504445 31.156946607865393,192.0 23.521099002100527,197.790235779481 20.975816467776895,221.45457409857772 29.07444271631539,228.0 36.478900998830795,222.46156352804974 39.02418353315443,198.54548319033347 32.08250389248133,192.0 23.521099002100527,197.790235779481 20.975816467776895,221.7063214846421 28.380274751223624,228.0 36.24751167744398,222.96505812904797 39.02418353315443,198.79723228956573 32.313893214799464,192.0 23.521099002100527,197.53848660504445 20.975816467776895,221.45457409857772 27.917496108449996,228.0 36.24751167744398,222.96505812904797 39.25557285454124,199.30073043168522 33.008061178959906,192.25174958934076 23.752488324418664,197.03498819912784 20.975816467776895,220.95107927243225 28.380274751223624,228.0 36.24751167744398,222.96505812904797 39.02418353315443,198.79723228956573 32.08250389248133,192.0 23.752488324418664,197.03498819912784 20.975816467776895,221.45457409857772 28.611664072610438,228.0 36.478900998830795,222.20981619879603 39.02418353315443,199.04898137017153 31.851114572025836,192.0 23.521099002100527,198.0419849352911 20.975816467776895,221.7063214846421 28.611664072610438,228.0 36.478900998830795,222.46156352804974 39.02418353315443,198.2937340727076 31.61972525063902,192.0 23.521099002100527,198.0419849352911 20.975816467776895,221.20282669458538 23.983877645805478,226.23777120211162 30.231389322318137,227.74825308588333 36.478900998830795,222.20981619879603 39.02418353315443,198.54548319033347 31.156946607865393,192.0 23.521099002100527,198.0419849352911 20.975816467776895,220.95107927243225 27.917496108449996,228.0 36.24751167744398,222.96505812904797 39.25557285454124,199.8042284976691 32.77667185664177,192.25174958934076 23.983877645805478,196.7832389685791 20.975816467776895,220.95107927243225 26.297770858742297,227.49650615244173 36.24751167744398,222.96505812904797 39.25557285454124,199.30073043168522 33.2394504994154,192.25174958934076 24.446656287647784,195.77624185592867 20.744427145458758,220.19583688979037 23.752488324418664,226.23777120211162 30.0,228.0 35.55334371328354,224.22379430336878 39.25557285454124,200.81122440565377 34.62778642773628,192.75524870981462 25.83499221596867,194.01399618387222 21.90137375332415,223.72029989003204 26.760549501515925,227.74825308588333 33.008061178959906,226.74126523872837 37.635847605764866,214.65738757350482" stroke="#4dd2ff" stroke-linecap="round" stroke-linejoin="round" stroke-width="0.5"><title>2024-03-30 4.8km</title><desc>1711782999000</desc></polyline><polyline fill="none" points="66.31238650623709,206.6939253672026 67.88803783338517,223.3469610530883 72.61499182134867,227.2653100802563 79.81796932406723,226.77551670838147 85.2202024506405,219.67350458097644 84.77001635730267,194.69389125495218 73.96555010322481,192.7346978345886 68.11313088145107,199.34697092790157 68.11313088145107,222.61227008863352 74.41573619656265,228.0 81.39362065214664,226.28572326269932 85.4452954987064,219.67350458097644 87.0209468267858,201.3061603908427 84.54492331016809,194.20409300969914 76.66666666604578,192.0 71.2644335385412,195.42858848464675 67.21275869291276,219.1837100731209 69.46368916332722,224.81634248793125 75.99138752557337,228.0 85.2202024506405,221.38778478093445 86.12057463917881,196.65308350254782 76.44157361984253,192.48979857494123 68.5633169747889,199.591869674623 68.5633169747889,224.57144562760368 77.11685276031494,227.75510337855667 83.6445511225611,223.83675493765622 86.57076073251665,201.55105899111368 84.99510940443724,195.42858848464675 80.04306237027049,192.2448992971331 69.91387525666505,196.4081845358014 66.98766564577818,220.65309337619692 72.61499182134867,227.2653100802563 83.41945807542652,223.3469610530883 86.57076073251665,201.3061603908427 81.8438067464158,193.4693955045659 69.91387525666505,193.4693955045659" stroke="#4dd2ff" stroke-linecap="round" stroke-linejoin="round" stroke-width="0.5"><title>2024-03-28 2.0km</title><desc>1711615120000</desc></polyline><polyline fill="none" points="114.23394997324795,207.30005265027285 111.95910413283855,207.750053020427 114.23394997324795,209.55005382816307 111.75229996535927,208.42505344958045 114.23394997324795,209.10005372739397 114.85436247568578,223.27502456586808 119.40405415557325,227.32500396389514 126.64220001082867,227.55000265920535 132.84632502868772,219.90003756829537 133.88034586422145,196.2750225465279 128.91704585030675,192.45000265957788 122.71292083244771,192.45000265957788 115.47477497719228,200.55003901640885 114.02714580576867,221.02503365511075 121.88570416346192,228.0 131.81230419222265,222.15002932073548 133.67354169860482,198.52503197267652 130.57147918827832,193.12500652228482 125.60817917436361,192.0 116.30199164524674,198.30003110552207 114.85436247568578,219.22503971401602 117.74962081760168,224.85001720208675 122.91972499899566,226.87500652275048 130.77828335668892,222.15002932073548 132.84632502868772,200.32503830105998 125.60817917436361,193.35000777663663 117.33601248264313,198.52503197267652 115.88838331121951,220.8000344708562 123.33333333302289,226.87500652275048 131.3986958572641,220.8000344708562 132.63952086120844,197.8500293213874 125.19457083940506,192.90000525140204 117.33601248264313,199.20003447169438 115.68157914374024,220.12503681937233 122.09250833000988,226.87500652275048 131.19189169071615,220.8000344708562 132.63952086120844,199.42503527132794 124.36735417041928,192.45000265957788 117.54281664919108,198.52503197267652 115.267970809713,220.12503681937233 122.50611666496843,226.87500652275048 131.60550002474338,220.8000344708562 133.25993336364627,199.42503527132794 126.02178750839084,192.90000525140204 117.74962081760168,198.30003110552207 115.47477497719228,219.90003756829537 116.92240414768457,224.62501830467954 122.09250833000988,226.4250090138521 131.3986958572641,221.47503197169863 133.25993336364627,200.77503971522674 126.22859167587012,193.8000102341175 117.54281664919108,198.0750302216038 115.47477497719228,220.8000344708562 122.91972499899566,226.65000777621754 131.3986958572641,221.02503365511075 133.053129196167,198.52503197267652 125.40137500688434,193.35000777663663 117.54281664919108,199.20003447169438 115.47477497719228,220.35003605415113 122.91972499899566,226.87500652275048 129.53745835274458,225.97501143696718 132.63952086120844,221.70003110496327 134.91436670161784,200.10003756918013" stroke="#4dd2ff" stroke-linecap="round" stroke-linejoin="round" stroke-width="0.5"><title>2024-03-26 3.7km</title><desc>1711445960000</desc></polyline><polyline fill="none" points="160.2939881766215,219.60003613168374 168.2352705784142,228.0 177.7206912226975,222.4800262216013 179.48542064521462,198.24002894153818 174.63241473399103,192.0 163.16167348902673,196.08002029685304 160.07339700032026,218.88003820506856 162.05871760006994,224.40001817792654 168.89704411197454,227.7600013371557 177.27950886636972,222.96002431795932 179.92660299967974,199.44003311591223 175.51477944478393,192.2400013373699 163.82344702258706,197.04002431873232 160.95576171111315,210.96005035145208 163.60285584442317,224.40001817792654 169.33822646643966,227.04000524268486 174.63241473399103,224.88001598790288 179.26482946705073,200.8800375328865 175.51477944478393,193.92001019744202 169.1176352892071,193.20000650780275 164.70581173337996,196.80002334038727 161.83812642190605,217.92004071897827 166.69113233312964,226.32000898616388 175.7353706229478,223.44002234353684 179.26482946705073,199.92003465956077 174.19123237766325,192.96000524237752 164.70581173337996,197.04002431873232 161.83812642190605,218.40003949822858 166.91172351129353,226.32000898616388 175.51477944478393,223.44002234353684 177.7206912226975,195.60001817787997 170.22059117723256,192.48000265681185 164.0440381988883,198.7200306651648 162.05871760006994,221.28003066475503 166.0293587995693,225.84001139178872 172.20591177791357,226.08001019759104" stroke="#4dd2ff" stroke-linecap="round" stroke-linejoin="round" stroke-width="0.5"><title>2024-03-25 2.1km</title><desc>1711359274000</desc></polyline><polyline fill="none" points="34.560296340845525,264.53847979404964 38.802432470954955,241.00003938702866 33.92397592123598,233.61539361812174 22.89442198164761,238.46156939771026 20.56124711036682,258.0769650184084 26.924451306462288,266.61539238411933 36.25715079251677,262.9231023690663 38.802432470954955,241.00003938702866 32.651335082016885,233.84616406611167 22.89442198164761,238.6923394834157 20.56124711036682,259.46157646668144 27.348664918914437,266.61539238411933 36.469257599674165,262.23079749941826 38.802432470954955,240.0769596323371 32.43922827579081,233.84616406611167 22.89442198164761,238.46156939771026 20.77335391752422,259.69234498101287 22.68231517635286,264.53847979404964 28.62130575813353,266.8461603629403 36.68136440590024,261.30772409797646 38.802432470954955,241.46157916006632 33.28765550162643,233.84616406611167 22.89442198164761,237.53848888352513 20.77335391752422,259.69234498101287 27.348664918914437,267.07692832523026 36.045043987222016,262.69233409664594 38.802432470954955,241.00003938702866 32.86344188917428,233.384623153368 23.106528788805008,237.30771871237084 20.56124711036682,260.1538819577545 22.68231517635286,264.76924792909995 29.04551937058568,267.30769627005793 36.893471212126315,261.0769557051826 38.59032566472888,239.84618965047412 32.01501466240734,233.384623153368 26.076024079695344,234.53847530600615 22.47020836919546,239.15387960150838 20.985460723750293,261.30772409797646 29.257626177743077,266.8461603629403 37.10557801928371,260.3846504208632 38.59032566472888,240.0769596323371 32.43922827579081,233.384623153368 22.68231517635286,239.15387960150838 20.77335391752422,260.61541886557825 28.19709214568138,266.61539238411933 36.25715079251677,262.23079749941826 38.59032566472888,239.84618965047412 31.166587436571717,233.384623153368 22.47020836919546,238.9231095511932 20.985460723750293,260.84618729376234 28.19709214568138,267.07692832523026 36.68136440590024,262.23079749941826 38.802432470954955,240.0769596323371 35.19661676045507,234.07693449687213 23.318635595962405,237.30771871237084 20.77335391752422,258.3077336358838 25.86391727346927,266.61539238411933 36.045043987222016,263.15387062425725 38.802432470954955,240.53849954390898 32.227121469564736,233.61539361812174 22.89442198164761,238.00002917530946 20.77335391752422,259.92311347764917 26.71234449930489,266.38462438760325 35.83293718006462,263.8461752869189 39.01453927811235,241.2308092820458 34.77240314800292,234.07693449687213 28.19709214568138,233.384623153368 23.106528788805008,238.00002917530946 19.288606271147728,258.0769650184084 20.985460723750293,264.3077116427012 26.924451306462288,268.0 32.43922827579081,267.7692321075592 37.52979163173586,262.9231023690663 40.711393729783595,241.69234902062453 34.984509954229,232.46154112019576 27.984985338523984,232.0 21.833887949585915,237.07694852352142 19.288606271147728,259.2308079346549 25.86391727346927,267.30769627005793 36.893471212126315,265.46155222924426" stroke="#4dd2ff" stroke-linecap="round" stroke-linejoin="round" stroke-width="0.5"><title>2024-03-24 4.9km</title><desc>1711273464000</desc></polyline><polyline fill="none" points="66.51676926482469,258.06139355921187 68.34375079721212,264.466277098516 73.41869949828833,267.7791424423922 79.30563999060541,266.67485440778546 84.17759074363858,261.8159821466543 86.20757022406906,238.6257998328656 84.58358663879335,234.65032171760686 78.49364819936454,232.66258065239526 71.79471591301262,234.2086015965324 68.14075284916908,238.84665957163088 66.92276516184211,260.93254996743053 70.7797261737287,266.01228138851 77.68165640626103,267.5582848684862 84.98958253581077,259.3865430173464 85.1925804829225,235.75462173088454 77.8846543552354,232.66258065239526 70.37373027857393,235.09204177302308 67.32876105699688,240.39267727709375 66.11077336873859,259.82825937122107 72.60670770611614,268.0 79.71163588762283,266.67485440778546 83.9745927946642,262.03684014989994 87.42555791139603,241.71783466567285 84.78658458776772,234.65032171760686 79.10264204256237,232.44172045146115 70.57672822568566,235.09204177302308 67.53175900597125,239.9509580146987 67.32876105699688,263.8037035835441 73.21570155024529,268.0 79.10264204256237,267.5582848684862 85.1925804829225,259.3865430173464 85.1925804829225,235.75462173088454 75.44867897871882,232.0 67.73475695308298,239.73009835928679 66.31377131771296,260.71169188059866 70.17073232959956,266.45399675075896 76.66666666697711,267.33742727781646 84.98958253581077,259.6074012031313 85.80157432798296,236.85892133158632 82.55360715929419,233.1043010049034 75.65167692583054,232.44172045146115 67.53175900597125,240.1718176540453 66.71976721286774,262.4785561077297 77.68165640626103,267.1165696710814 84.78658458776772,259.6074012031313 84.78658458776772,235.75462173088454 77.07266256213188,232.2208602342289 68.14075284916908,237.3006410561502 65.90777542162687,261.1534080368001 69.96773438062519,266.2331390781328 77.68165640626103,267.5582848684862 84.78658458776772,260.04911752347834 84.38058869168162,234.42946166568436 76.46366871800274,232.2208602342289 70.7797261737287,235.09204177302308 66.31377131771296,251.65649612457491 68.95274464134127,265.12885046424344 81.53861741907895,265.7914236818906 86.41056817211211,241.05525604612194 81.94461331516504,233.32516115601175 70.57672822568566,235.09204177302308 66.31377131771296,256.9571018887218 67.73475695308298,264.466277098516 73.01270360220224,267.1165696710814 83.16260100342333,263.36198782431893 86.61356611922383,241.49697514227591 83.77159484755248,234.42946166568436 70.37373027857393,234.42946166568436 66.92276516184211,247.01845827442594 68.34375079721212,264.466277098516 74.43368923850358,267.5582848684862 81.741615367122,265.34970822022296 84.98958253581077,260.26997565990314 86.61356611922383,241.71783466567285 83.56859689950943,234.42946166568436 73.62169744633138,232.88344083703123 67.53175900597125,240.1718176540453 66.51676926482469,262.03684014989994 72.20071181003004,267.1165696710814 79.10264204256237,266.2331390781328 83.77159484755248,254.5276587617118 82.75660510640591,235.75462173088454 76.46366871800274,233.76688140979968 69.96773438062519,236.85892133158632 66.11077336873859,250.77306090574712" stroke="#4dd2ff" stroke-linecap="round" stroke-linejoin="round" stroke-width="0.5"><title>2024-03-22 5.0km</title><desc>1711100044000</desc></polyline><polyline fill="none" points="112.37270590756088,245.5000504956115 116.0951831471175,264.62501830467954 122.29931187815964,267.7750013382174 128.5034406101331,265.9750114369672 132.63952643144876,261.25003282143734 134.08715646900237,250.90005372674204 131.39870068524033,235.6000193899963 122.91972475126386,232.67500396375544 116.92240031063557,240.32503830082715 116.0951831471175,261.9250302207656 121.05848613195121,267.1000052515883 127.0558105725795,267.1000052515883 132.01911355834454,260.1250368193723 131.81230926606804,238.52503197221085 124.987767662853,233.5750090132933 117.12920460198075,240.32503830082715 116.0951831471175,261.25003282143734 119.81766038574278,266.2000102335587 125.40137624368072,267.3250039643608 131.39870068524033,259.22503971424885 132.2259178487584,237.85002932092175 126.43539769854397,232.9000052518677 117.12920460198075,238.30003110552207 115.26796598173678,259.9000375682954 123.74694191571325,266.65000777645037 129.12385348323733,265.5250137934927 132.8463307218626,259.22503971424885 133.0531350132078,236.27502254606225 130.5714835198596,232.9000052518677 122.71292046085,232.0 115.68157456442714,238.75003282213584 114.44074881915003,261.0250336548779 123.74694191571325,268.0 132.2259178487584,259.6750383002218 134.29396075941622,239.875036819838 131.19189639296383,232.22500133840367 118.37003034818918,234.02501143701375 113.40672736335546,256.75004628673196" stroke="#4dd2ff" stroke-linecap="round" stroke-linejoin="round" stroke-width="0.5"><title>2024-03-21 2.2km</title><desc>1711013104000</desc></polyline></svg>