<?xml version="1.0" encoding="utf-8" ?>
<svg baseProfile="full" height="300mm" version="1.1" viewBox="0,0,200,300" width="200mm" xmlns="http://www.w3.org/2000/svg" xmlns:ev="http://www.w3.org/2001/xml-events" xmlns:xlink="http://www.w3.org/1999/xlink"><defs /><rect fill="#222222" height="300" width="200" x="0" y="0" /><text fill="#FFFFFF" style="font-size:12px; font-family:Arial; font-weight:bold;" x="10" y="20">Over 2km Runs</text><text fill="#FFFFFF" style="font-size:4px; font-family:Arial" x="10" y="280">ATHLETE</text><text fill="#FFFFFF" style="font-size:9px; font-family:Arial" x="10" y="290">作怪</text><text fill="#FFFFFF" style="font-size:4px; font-family:Arial" x="120" y="280">STATISTICS</text><text fill="#FFFFFF" style="font-size:3px; font-family:Arial" x="120" y="285">Number: 30</text><text fill="#FFFFFF" style="font-size:3px; font-family:Arial" x="120" y="290">Weekly: 3.3</text><text fill="#FFFFFF" style="font-size:3px; font-family:Arial" x="141" y="285">Total: 140.0 km</text><text fill="#FFFFFF" style="font-size:3px; font-family:Arial" x="141" y="290">Avg: 4.7 km</text><text fill="#FFFFFF" style="font-size:3px; font-family:Arial" x="167" y="285">Min: 2.0 km</text><text fill="#FFFFFF" style="font-size:3px; font-family:Arial" x="167" y="290">Max: 12.3 km</text><polyline fill="none" points="18.93658156413585,39.4472401519306 20.046387903392315,58.36400396935642 23.74574236664921,62.99255358357914 29.479741785675287,64.19999999995343 35.76864437293261,58.565245422301814 37.06341843586415,37.032324557425454 33.918967141769826,33.409947101958096 27.075161384418607,32.40373027604073 20.601291072554886,38.44102558400482 19.861420180648565,57.760279519250616 28.0,63.99875896796584 35.21374120377004,58.1627625010442 36.69348298944533,37.636053659487516 28.55490316916257,33.409947101958096 21.71109741181135,37.636053659487516 20.601291072554886,56.55283021274954 27.630064553581178,62.590071324724704 33.733999418094754,59.370211084373295 35.76864437293261,38.44102558400482 33.549031695351005,34.41616355068982 28.369935446418822,33.007460416527465 22.081032858230174,38.03853965178132 20.78625879622996,56.35158860962838 27.81503227725625,62.38883017306216 35.02877348102629,57.15655493363738 35.953612096607685,38.44102558400482 30.21961267851293,32.00124344066717 23.005871473811567,33.409947101958096 20.601291072554886,37.43481064075604 19.676452456973493,58.565245422301814 28.0,63.99875896796584 36.323547542095184,56.75407180166803 36.69348298944533,36.831081493524835 29.109806339256465,31.800000000046566 23.560774644836783,32.806217051809654 20.231355627067387,37.43481064075604 19.12154928781092,56.955313375918195 27.445096829906106,63.59627685952 35.76864437293261,57.55903800600208 36.69348298944533,37.032324557425454 30.21961267851293,32.40373027604073 20.601291072554886,36.42859532008879 19.12154928781092,56.1503469904419 22.081032858230174,61.583865413675085 27.260129107162356,64.19999999995343 35.39870892651379,58.565245422301814 37.06341843586415,36.831081493524835 33.918967141769826,33.208703766809776 25.410451875068247,32.40373027604073 20.78625879622996,35.82486594747752 19.861420180648565,42.26463893800974" stroke="#4dd2ff" stroke-linecap="round" stroke-linejoin="round" stroke-width="0.5"><title>2024-05-15 3.1km</title><desc>1715764820000</desc></polyline><polyline fill="none" points="72.91497433558106,55.738890214124694 73.29433494526893,35.51466899481602 65.70712274499238,31.799999999813735 56.981828714720905,35.51466899481602 54.895345360040665,57.38984050299041 63.24127877969295,64.19999999995343 71.39753189496696,58.83442119508982 73.10465463995934,37.37200161605142 64.18968030437827,32.006370631279424 55.84374688472599,39.229332987219095 54.70566505473107,58.21531527698971 58.11991054471582,62.755422117654234 63.810319694690406,63.78726353915408 71.77689250558615,57.38984050299041 72.53561372496188,36.959261141950265 64.18968030437827,32.21274124644697 56.412787799723446,38.197482380317524 55.085025664418936,58.21531527698971 58.11991054471582,62.549053786555305 63.620639390312135,63.993631777120754 71.39753189496696,58.421683931490406 72.72529403027147,36.546520605450496 69.50072884559631,33.24459409271367 63.051598474383354,32.62548243138008 56.22310749441385,38.81659279111773 54.895345360040665,57.596209219424054 58.49927115440369,62.755422117654234 65.13808182999492,63.78726353915408 71.77689250558615,57.18347177049145 72.91497433558106,36.75289088184945 64.94840152468532,31.799999999813735 56.22310749441385,37.78474202891812 54.70566505473107,58.421683931490406 63.24127877969295,63.993631777120754 71.77689250558615,58.62805257062428 73.29433494526893,36.959261141950265 69.1213682340458,32.62548243138008 62.10319694969803,32.21274124644697 56.03342718910426,38.197482380317524 54.70566505473107,58.00894660665654 63.620639390312135,63.993631777120754 68.74200762528926,62.342685440788046 71.96657280996442,57.38984050299041 72.91497433558106,37.37200161605142 64.37936060968786,32.21274124644697 56.412787799723446,38.197482380317524 54.895345360040665,58.21531527698971 58.309590850025415,62.549053786555305 66.08648335468024,63.993631777120754" stroke="#4dd2ff" stroke-linecap="round" stroke-linejoin="round" stroke-width="0.5"><title>2024-05-13 3.1km</title><desc>1715589913000</desc></polyline><polyline fill="none" points="92.73887536115944,41.20004043378867 93.84183100238442,60.200021245051175 103.03312801476568,63.600003567989916 107.62877652049065,57.40003255568445 108.36408028006554,36.400023916270584 100.09191296994686,32.60000472771935 95.86391634494066,34.00001242570579 94.02565694320947,38.8000332522206 93.29035318177193,58.40002885297872 101.56252049282193,62.60000921576284 107.07729869987816,57.00003393297084 106.89347275905311,36.800025621661916 99.72426109015942,33.80001137102954 90.7167900186032,39.20003459881991 92.00357160158455,58.00003037904389 99.54043514933437,64.00000120420009 103.76843177527189,63.000007001450285 107.81260246038437,57.60003184527159 109.09938404150307,37.40002806810662 101.74634643271565,32.40000356850214 95.86391634494066,34.00001242570579 92.55504942126572,39.20003459881991 92.18739754054695,58.800027266843244 96.41539416555315,63.40000472730026 102.48165019322187,64.00000120420009 107.81260246038437,58.00003037904389 109.2832099813968,37.80002962425351 107.99642840027809,34.20001346594654 101.01104267220944,32.20000239391811 92.92270130198449,37.200027267448604 91.81974566075951,57.20003325142898 99.72426109015942,63.80000239354558 107.62877652049065,58.40002885297872 108.91555810160935,37.80002962425351 106.52582087833434,33.6000103012193 100.82721673231572,31.800000000046566 92.92270130198449,38.00003037950955 91.63591972086579,57.800031119491905 99.72426109015942,64.19999999995343 107.62877652049065,58.20002962346189 107.81260246038437,37.40002806810662 100.64339079149067,33.6000103012193 94.20948288310319,38.60003255633637 93.29035318177193,58.60002806736156 101.56252049282193,62.60000921576284 106.89347275905311,56.80003459821455 107.99642840027809,35.80002124560997 105.79051711689681,32.80000587226823 99.54043514933437,32.20000239391811 92.371223481372,38.8000332522206" stroke="#4dd2ff" stroke-linecap="round" stroke-linejoin="round" stroke-width="0.5"><title>2024-05-12 3.1km</title><desc>1715507107000</desc></polyline><polyline fill="none" points="127.53319314215332,41.96474580396898 130.06350323744118,61.65883693168871 137.65443352423608,64.19999999995343 143.1043321909383,58.270615958143026 144.07752838172019,36.67061191890389 136.0973196187988,32.435297682415694 129.47958552278578,38.57650125818327 129.0903070466593,61.23530953167938 136.6812373334542,64.19999999995343 142.9096929524094,57.42356008174829 143.2989714294672,36.24708078056574 138.43299047555774,32.85882939118892 131.0366994291544,35.400018313666806 127.53319314215332,55.7294475666713 130.84206018969417,62.92941875127144 136.0973196187988,64.19999999995343 141.35257904790342,61.023545808158815 143.88288914319128,43.658866555662826 143.4936106670648,37.30590850766748 139.79546514339745,33.91765838582069 134.5402057133615,33.28236103709787 130.2581424759701,36.24708078056574 127.92247161827981,57.84708805102855 133.95628799963742,63.77647298038937 142.3257752386853,59.964726951671764 144.46680685691535,41.11768504790962 140.18474361952394,33.91765838582069 135.51340190507472,32.85882939118892 130.45278171356767,36.03531518741511 127.92247161827981,57.63532407418825 133.37237028591335,63.988236498320475 142.52041447721422,59.329435447696596 144.07752838172019,39.423562774667516 138.04371200036258,31.800000000046566 129.6742247613147,34.76472129672766" stroke="#4dd2ff" stroke-linecap="round" stroke-linejoin="round" stroke-width="0.5"><title>2024-05-09 2.0km</title><desc>1715244227000</desc></polyline><polyline fill="none" points="162.00540357735008,41.12058420246467 163.63717442099005,59.09591389284469 174.2436849102378,63.53425013599917 180.15885422099382,57.0986604175996 181.9945964217186,40.23291077837348 179.75091150961816,34.46302704606205 173.63177084363997,31.800000000046566 165.88085933215916,34.68494585878216 163.22923171054572,57.0986604175996 170.77617186587304,64.19999999995343 179.34296879917383,59.761664752615616 181.79062506649643,38.457563132978976 174.44765626545995,32.2438380070962 165.47291662171483,35.57262094295584 163.43320306483656,58.873996906680986 169.96028644312173,63.97808339539915 178.1191406659782,61.093166024191305 181.58665371034294,39.56715553579852 175.05957033205777,32.465756985591725 164.65703119896352,36.682214425178245 163.22923171054572,57.98632879508659 169.14440102130175,63.53425013599917 179.34296879917383,59.09591389284469 181.1787109998986,38.23564460268244 174.2436849102378,32.02191901230253 165.47291662171483,36.01645838562399 163.63717442099005,57.542494639288634 169.5523437326774,63.312333481851965 178.731054732576,59.5397478165105 180.97473964374512,38.01372605585493 175.05957033205777,32.465756985591725 164.861002555117,33.79727050871588" stroke="#4dd2ff" stroke-linecap="round" stroke-linejoin="round" stroke-width="0.5"><title>2024-05-05 2.0km</title><desc>1714901559000</desc></polyline><polyline fill="none" points="19.70688987430185,85.9291602903977 20.272329200990498,100.69369295309298 24.607364039868116,104.58987581077963 30.450237084180117,104.58987581077963 37.047029228881,98.02788043837063 37.800948332063854,77.3164795122575 29.696317980997264,72.80506449518725 21.21472807880491,78.54686413705349 20.083849425427616,99.05319325090386 27.811520224437118,105.0 36.10463035106659,99.05319325090386 37.989428107626736,78.34180007129908 35.727670799940825,74.4455799064599 29.3193584298715,72.60000000009313 20.460808975622058,79.36712024756707 17.63361234217882,95.77219090168364 22.534086507745087,103.15444066561759 28.565439326688647,104.58987581077963 36.293110127560794,98.64306817180477 37.800948332063854,78.95699222269468 31.204156185500324,73.01012897514738 22.157126956619322,77.7266077818349 19.895369649864733,99.05319325090386 26.303682019934058,105.0 35.727670799940825,100.69369295309298 37.800948332063854,89.00511115323752 38.17790788318962,78.95699222269468 35.727670799940825,74.85570860491134 28.942398878745735,72.80506449518725 22.345606733113527,75.67596581950784 19.51841009873897,96.59244185709395 24.795843815431,104.38481369288638 29.696317980997264,104.58987581077963 35.35071124881506,100.28356811916456 38.3663876587525,80.39244003943168 36.85854945424944,75.67596581950784 32.52351461537182,73.4202578892 27.057601122185588,73.21519344020635 21.403207854367793,77.5215436546132 18.76449099648744,97.20762991299853 21.026248303242028,102.33419167320244 29.3193584298715,104.79493791307323 36.481589902192354,97.20762991299853 37.42398878093809,77.11141535406932 31.958075288683176,73.4202578892 25.361283142119646,74.24051553336903 20.649288752116263,80.59750395151787 21.21472807880491,101.92406708537601 30.82719663437456,104.1797515603248 35.91615057550371,100.07850567973219 37.235509004443884,93.72156243911013 36.85854945424944,75.88103008503094 30.26175730768591,72.80506449518725 23.4764853855595,74.85570860491134 20.272329200990498,80.59750395151787 20.083849425427616,101.3088800883852 29.507838205434382,104.58987581077963 36.481589902192354,97.8228178306017 37.61246855650097,76.49622278893366 28.0,72.80506449518725 20.083849425427616,80.18737611174583 20.460808975622058,101.92406708537601 24.98432359099388,105.0 31.204156185500324,104.1797515603248 37.235509004443884,95.56712812441401 37.61246855650097,76.49622278893366 33.65439326874912,73.01012897514738 26.680641571991146,73.21519344020635 20.083849425427616,80.18737611174583 20.083849425427616,101.10381772532128 29.696317980997264,105.0 36.67006967775524,98.02788043837063 37.989428107626736,77.93167189415544 34.78527192212641,74.03545114537701 28.376959552057087,73.21519344020635 20.460808975622058,78.54686413705349 20.272329200990498,100.4886305439286 29.130878654308617,105.0 36.481589902192354,97.61775520606898 37.42398878093809,76.90635118097998 32.52351461537182,73.01012897514738 25.926722468808293,73.4202578892 20.272329200990498,80.59750395151787 18.576011220924556,99.25825576740317" stroke="#4dd2ff" stroke-linecap="round" stroke-linejoin="round" stroke-width="0.5"><title>2024-04-29 5.0km</title><desc>1714382183000</desc></polyline><polyline fill="none" points="56.00357159972191,100.00002562138252 62.06982762739062,104.60000239359215 70.89347275812179,100.60002304054797 73.65086186211556,81.20003827963956 71.44495057873428,76.00001844018698 65.01104267127812,73.80000700242817 57.47417912166566,80.00003459886648 55.63591971900314,99.80002645193599 58.76096070278436,103.80000700149685 64.09191296994686,104.60000239359215 70.70964681822807,100.20002477569506 71.62877651955932,80.20003524981439 65.56252049095929,74.6000113710761 56.922701301053166,80.40003588586114 56.00357159972191,99.40002806740813 64.64339079055935,103.60000811656937 71.07729869894683,98.60003111953847 71.62877651955932,78.60002962430008 63.54043514840305,74.40001030126587 55.63591971900314,83.60004402440973 54.34913813788444,88.80004908144474 58.02565694227815,102.40001449012198 64.09191296994686,104.00000587222166 68.6875614747405,101.60001844004728 71.81260245852172,80.20003524981439 67.03312801383436,74.6000113710761 57.65800506155938,78.00002726749517 55.819745659828186,95.60004043346271 60.96687198616564,103.00001137075014 69.79051711689681,99.60002726688981 72.18025434017181,80.00003459886648 67.76843177434057,74.6000113710761 62.98895732779056,74.20000921655446 58.20948288310319,78.60002962430008 56.371223480440676,98.20003255573101 59.68009040411562,102.40001449012198 64.8272167313844,103.00001137075014 72.18025434017181,96.20003883959725 67.58460583444685,72.60000000009313 57.10652724094689,78.20002806815319 55.08444189932197,96.60003770282492 61.33452386688441,105.0 70.89347275812179,100.60002304054797 73.2832099813968,81.6000393864233 70.89347275812179,76.4000203255564 65.56252049095929,73.80000700242817 60.7830460453406,74.80001242575236 56.18739753961563,80.00003459886648 54.90061595849693,98.20003255573101 61.33452386688441,104.60000239359215 67.21695395372808,104.00000587222166 70.89347275812179,100.20002477569506 73.09938404150307,80.40003588586114 65.93017237167805,73.6000058723148 56.5550494203344,78.40002885391004 55.08444189932197,97.20003588544205 58.57713476289064,102.40001449012198 63.724261089228094,103.80000700149685 71.81260245852172,96.60003770282492 72.91555810067803,79.00003112014383 70.70964681822807,75.60001649521291 63.35660920944065,73.80000700242817 56.18739753961563,79.40003255638294 54.90061595849693,98.20003255573101 61.15069792699069,105.0 70.52582087833434,100.20002477569506 73.2832099813968,80.40003588586114 70.52582087833434,75.40001550014131 65.19486861117184,73.6000058723148 56.18739753961563,79.40003255638294 54.716790018603206,97.4000352488365 60.7830460453406,104.60000239359215 70.89347275812179,99.20002885302529 73.09938404150307,79.40003255638294 66.29782425239682,73.40000472776592 56.5550494203344,78.40002885391004 55.08444189932197,97.4000352488365 61.51834980677813,104.80000120424666 70.70964681822807,99.40002806740813 72.36408028006554,80.00003459886648 65.74634643178433,74.00000811670907 56.371223480440676,79.40003255638294 55.08444189932197,97.8000339330174 57.841831002384424,103.00001137075014 63.1727832686156,104.40000356803648 70.3419949375093,97.4000352488365 71.81260245852172,79.80003393325023 64.8272167313844,74.00000811670907 57.10652724094689,80.00003459886648 56.00357159972191,98.40003184531815 62.98895732779056,103.4000092158094 70.15816899761558,98.20003255573101 71.62877651955932,79.80003393325023 65.19486861117184,74.40001030126587 56.922701301053166,79.80003393325023 54.34913813788444,97.4000352488365" stroke="#4dd2ff" stroke-linecap="round" stroke-linejoin="round" stroke-width="0.5"><title>2024-04-28 5.8km</title><desc>1714295019000</desc></polyline><polyline fill="none" points="90.27598037105054,86.48575791390613 92.5044015366584,101.25307944393717 97.36641135066748,104.55918606440537 103.64650736097246,103.67755799554288 108.1033496921882,98.608191476902 109.11626840382814,76.78777515236288 100.20258374232799,73.04081871756352 93.31473650503904,79.21227383520454 91.69406656734645,98.82859889790416 94.93540644366294,103.67755799554288 100.81033496931195,104.779593040701 108.1033496921882,98.608191476902 110.12918711453676,80.53472682158463 109.72401963081211,76.78777515236288 103.64650736097246,72.82040936755948 93.922487732023,77.44900226336904 92.09923405107111,97.94696911447681 94.53023895900697,102.79592966171913 99.59483251534402,104.55918606440537 107.49559846520424,99.93063575704582 108.91368466056883,77.44900226336904 100.20258374232799,72.60000000009313 95.13799018599093,75.24491131491959 93.11215276364237,80.31431803200394 93.31473650503904,101.69389387476258 101.01291871257126,105.0 105.87492852564901,102.35511539666913 109.5214358875528,80.31431803200394 104.6594260726124,73.2612280510366 99.18966503161937,73.04081871756352 94.32765521667898,77.00818420550786 91.89665030967444,96.8449315126054 98.37933006230742,104.779593040701 107.49559846520424,99.71022841823287 109.5214358875528,78.55104711954482 103.0387561339885,72.82040936755948 94.12507147528231,77.44900226336904 92.09923405107111,97.06533906585537 97.97416257765144,104.55918606440537 107.6981822066009,99.26941369124688 109.5214358875528,78.991864946438 105.87492852564901,73.2612280510366 95.7457414129749,74.58368370891549 91.69406656734645,97.28574660327286 98.17674632091075,104.55918606440537 107.29301472287625,99.48982106312178 109.5214358875528,79.21227383520454 104.6594260726124,73.04081871756352 99.39224877394736,72.60000000009313 93.922487732023,77.22859324258752 92.09923405107111,97.06533906585537 97.56899509392679,104.11837206268683 106.48267975263298,100.81226494791918 109.31885214429349,79.87350040255114 103.64650736097246,73.2612280510366 97.56899509392679,73.9224559541326 92.09923405107111,79.21227383520454 89.87081288639456,97.28574660327286" stroke="#4dd2ff" stroke-linecap="round" stroke-linejoin="round" stroke-width="0.5"><title>2024-04-26 3.3km</title><desc>1714123626000</desc></polyline><polyline fill="none" points="126.55064035672694,90.0462008304894 129.79587498214096,101.0538663752377 133.61379806976765,104.16923549259081 138.76799423899502,103.7538531459868 142.77681348193437,99.18464322690852 144.87667118106037,84.4385053764563 144.30398271698505,79.2461846715305 139.53157885745168,74.46924104704522 129.41408267151564,78.62310553435236 127.50512112863362,97.52311048284173 133.23200576100498,103.33847073675133 142.58591732755303,99.39233474992216 144.30398271698505,79.66157068591565 137.43172115832567,73.63846740336157 129.22318651806563,78.4154124581255 127.50512112863362,97.73080213065259 132.46842114347965,103.13077950873412 142.0132288634777,99.60002625756897 144.1130865626037,79.2461846715305 136.85903269518167,73.8461608379148 128.84139420930296,79.03849164163694 127.88691343646497,98.35387697978877 131.51394037064165,103.13077950873412 137.62261731177568,103.54616194870323 142.3950211731717,99.60002625756897 144.30398271698505,79.86926366901025 138.00440962146968,73.43077395414002 129.41408267151564,77.79233313421719 127.69601728301495,97.10772714181803 134.377382687293,103.54616194870323 142.9677096363157,97.73080213065259 144.1130865626037,79.03849164163694 137.24082500394434,73.22308048862033 127.88691343646497,78.20771936583333 127.50512112863362,82.153885462787 127.69601728301495,100.22310068667866 132.08662883471698,104.37692664307542 138.195305775851,103.96154432720505 144.1130865626037,97.73080213065259 144.4948788722977,77.3769468406681 135.71365576889366,72.60000000009313 131.13214806187898,73.63846740336157 127.88691343646497,79.03849164163694 126.55064035672694,98.76926013384946 131.13214806187898,103.96154432720505 136.28634423203766,105.0 143.73129425384104,98.97695168829523 145.44935964420438,79.66157068591565 139.91337116528302,72.8076935117133 133.04110960662365,72.60000000009313 128.84139420930296,75.71540104574524 126.74153651110828,99.39233474992216" stroke="#4dd2ff" stroke-linecap="round" stroke-linejoin="round" stroke-width="0.5"><title>2024-04-25 3.0km</title><desc>1714037269000</desc></polyline><polyline fill="none" points="162.9850302124396,95.74289350025356 170.07545588817447,104.11837206291966 179.19171747099608,101.25307944417 181.82530415058136,80.31431803223677 176.96329797245562,74.14286522264592 169.67028870712966,74.36327447416261 166.83411843702197,77.4490022638347 164.6056989384815,97.94696911447681 169.67028870712966,104.33877907227725 179.5968846520409,101.03267220407724 182.02788774017245,80.9755443520844 179.19171747099608,75.24491131515242 169.67028870712966,74.14286522264592 161.56694507785141,83.8408566901926 166.22636766452342,102.1347082387656 172.70904256869107,105.0 177.57104874495417,103.23674386180937 181.0149697875604,77.4490022638347 171.08837384264916,73.48163736891001 161.97211225889623,80.7551355951 165.21344971098006,101.03267220407724 169.46770511567593,104.5591860646382 176.7607143819332,103.45715093635954 181.0149697875604,98.16737658483908 182.02788774017245,80.09390922542661 177.57104874495417,73.70204667025246 170.88579025212675,73.48163736891001 166.4289512541145,77.4490022638347 164.20053175650537,96.62452394352295 169.46770511567593,104.33877907227725 179.7994682425633,100.59185767453164 182.02788774017245,79.65309156337753 174.9374620663002,73.26122805150226 165.8212004834786,78.55104711977765 163.79536457546055,97.50615412299521 169.46770511567593,104.5591860646382 178.58396669849753,102.79592966171913 182.23047133162618,80.31431803223677 176.152963610366,73.04081871779636 167.03670202754438,76.34695699531585 164.20053175650537,96.8449315126054 169.46770511567593,104.11837206291966 178.98913388047367,101.69389387476258 182.4330549230799,81.8571792144794 180.812386197038,75.46532048401423 173.1142097497359,72.60000000009313 167.03670202754438,76.78777515236288 164.6056989384815,98.38778403890319 170.68320666067302,104.5591860646382 180.40721901506186,100.59185767453164 182.02788774017245,79.21227383520454 174.9374620663002,73.04081871779636 166.02378407400101,77.66941126761958 164.20053175650537,99.48982106358744 172.3038753857836,104.5591860646382 180.6098026065156,99.48982106358744 181.42013696953654,77.4490022638347 173.72196052130312,73.04081871779636 166.02378407400101,78.33063818141818 164.6056989384815,99.04900630260818 171.29095743224025,104.33877907227725 180.40721901506186,99.48982106358744 181.62272056005895,78.33063818141818 172.91162615828216,73.04081871779636 166.4289512541145,77.66941126761958 164.6056989384815,99.04900630260818 173.5193769307807,105.0 180.6098026065156,98.16737658483908 181.82530415058136,78.33063818141818 172.70904256869107,73.26122805150226 166.02378407400101,79.43268270744011 164.80828252900392,99.04900630260818 173.1142097497359,104.33877907227725 180.6098026065156,98.608191476902 182.02788774017245,79.21227383520454 178.38138310890645,74.14286522264592 172.50645897723734,73.26122805150226 166.02378407400101,79.21227383520454 166.02378407400101,100.37145038554445" stroke="#4dd2ff" stroke-linecap="round" stroke-linejoin="round" stroke-width="0.5"><title>2024-04-22 4.9km</title><desc>1713776322000</desc></polyline><polyline fill="none" points="19.084447234869003,123.40004189265892 20.55505387671292,139.60003037983552 29.19486789777875,144.20000921632163 34.52581697329879,138.80003325198777 34.89346863422543,119.20002885372378 25.33452546223998,114.40000587236136 19.819750556722283,121.40003650658764 19.819750556722283,141.20002391608432 24.415396311320364,145.00000472809188 30.48164870776236,145.20000356831588 35.81259778421372,138.40003459854051 35.62877195421606,117.80002304096706 26.25365461409092,114.60000700224191 20.00357638578862,120.8000345993787 20.00357638578862,141.20002391608432 23.128615499474108,144.40000811661594 30.849300369620323,145.00000472809188 35.62877195421606,139.60003037983552 36.36407527513802,118.40002562198788 28.27573874592781,114.00000356812961 20.7388797076419,119.20002885372378 18.716795574873686,138.40003459854051 21.658008857630193,143.8000113707967 27.540435425005853,145.40000239410438 35.444946124218404,139.80002962378785 36.73172693606466,119.80003112042323 27.90808708500117,114.60000700224191 20.37122804671526,119.80003112042323 19.268273065797985,139.40003111981787 22.577138009481132,144.000010301359 28.27573874592781,145.40000239410438 35.62877195421606,139.40003111981787 36.36407527513802,118.60002645244822 28.64339040685445,114.00000356812961 20.37122804671526,120.20003255689517 19.635924725793302,140.80002562166192 23.31244133040309,144.60000700177625 29.746345387771726,145.40000239410438 35.9964236151427,139.00003255647607 36.36407527513802,118.8000272680074 28.091912915930152,114.40000587236136 22.577138009481132,116.40001649525948 20.1874022167176,120.6000339332968 18.900621403940022,138.6000339325983 21.841834688559175,143.6000124255661 27.172783764079213,145.80000000004657 35.62877195421606,139.60003037983552 36.91555276606232,119.20002885372378 28.64339040685445,114.40000587236136 20.37122804671526,120.00003184587695 19.084447234869003,139.60003037983552 27.356609594076872,145.80000000004657 35.07729446422309,141.20002391608432 37.46703025698662,123.60004234942608 35.9964236151427,117.80002304096706 32.13608118053526,115.2000103010796 21.658008857630193,117.20002032560296 18.532969743944705,137.0000388403423 21.841834688559175,143.4000134654343 28.27573874592781,145.40000239410438 33.60668782144785,142.60001747473143 37.46703025698662,123.60004234942608 33.23903616145253,115.2000103010796 23.128615499474108,115.60001242603175 19.635924725793302,121.40003650658764 19.635924725793302,141.40002304082736 26.988957934081554,145.80000000004657 32.68755867052823,143.8000113707967 35.9964236151427,138.6000339325983 37.09937859605998,121.00003525009379 28.82721623685211,113.39999999990687 20.55505387671292,119.40002962457947 18.900621403940022,139.40003111981787 27.540435425005853,145.80000000004657 35.62877195421606,140.4000272671692 37.09937859605998,120.6000339332968 29.19486789777875,114.40000587236136 20.1874022167176,119.20002885372378 18.532969743944705,137.40003770333715" stroke="#4dd2ff" stroke-linecap="round" stroke-linejoin="round" stroke-width="0.5"><title>2024-04-21 5.0km</title><desc>1713688153000</desc></polyline><polyline fill="none" points="64.58535809395835,119.68902064161375 65.24388594925404,124.38585991493892 67.21946951653808,125.02271788136568 69.04871355975047,123.9878234922071 70.14625998586416,116.34549530752702 69.12188332155347,114.35529666871298 66.85362070798874,113.87764844141202 65.24388594925404,115.071768607595 64.292679047212,122.55489113833755 66.48777189897373,124.94311065651709 69.48773213010281,123.35096490650903 70.14625998586416,115.94745587761281 67.95116713363677,113.7980403828551 65.0243766643107,115.4698083649273 64.365848809015,122.79371333139716 66.85362070798874,125.02271788136568 69.48773213010281,123.27135755645577 70.14625998586416,115.94745587761281 67.43897880148143,113.7980403828551 65.0243766643107,115.62902422645129 64.365848809015,122.87332071689889 66.85362070798874,125.02271788136568 69.56090189190581,123.11214283847949 70.14625998586416,115.86784797383007 67.65848808689043,113.7980403828551 65.0243766643107,115.54941629862878 64.43901857035235,123.03253547067288 66.85362070798874,125.02271788136568 69.56090189190581,123.11214283847949 70.14625998586416,115.94745587761281 67.21946951653808,113.7980403828551 64.95120690250769,115.78824006387731 64.43901857035235,123.19175020040711 66.85362070798874,125.02271788136568 69.48773213010281,123.27135755645577 70.07309022406116,115.86784797383007 67.36580903967842,113.7980403828551 64.95120690250769,115.62902422645129 64.365848809015,122.95292809663806 66.99996023112908,125.02271788136568 69.56090189190581,122.95292809663806 70.07309022406116,115.86784797383007 67.14629975473508,113.7980403828551 64.95120690250769,115.70863214810379 64.58535809395835,123.51017958851298 66.63411142257974,125.02271788136568 68.97554379794747,124.14703807921614 70.07309022406116,117.30078933207551 68.53652522759512,114.03686454112176 65.1707161879167,115.23098452825798 64.292679047212,122.47528372862143 65.82924404367805,124.70428894588258 67.73165784822777,124.94311065651709 69.26822284469381,123.66939424700104 70.14625998586416,116.26588743348839 68.31701594218612,113.87764844141202 65.39022547286004,114.83294468151871 64.73169761756435,123.74900156713556 67.73165784822777,124.94311065651709 69.63407165324315,122.47528372862143 70.07309022406116,115.70863214810379 66.99996023112908,113.87764844141202 64.87803714070469,115.86784797383007 64.58535809395835,123.51017958851298 66.99996023112908,125.02271788136568 69.48773213010281,123.27135755645577 70.14625998586416,115.94745587761281 67.58531832508743,113.7980403828551 64.95120690250769,115.70863214810379 64.58535809395835,123.51017958851298 67.51214856328443,124.94311065651709 69.63407165324315,122.47528372862143 69.78041117684916,115.15137657098239 67.65848808689043,113.7980403828551 65.3170557115227,114.91255266271764 64.292679047212,122.47528372862143 65.53656499646604,124.62468169699423 62.31709547992796,127.80896700377343 62.39026524219662,132.10773705423344 56.902533112093806,132.5853770991671 55.73181692464277,133.77947627345566 54.487930974923074,141.74010319658555 51.487970743793994,144.60591431241482 53.756233357824385,145.79999999998836 51.26846145838499,144.44670278631384 54.561100736726075,140.8644371497212 55.58547740103677,133.54065654572332 62.24392571859062,131.70970351976575 63.634151191450655,125.97800411650678 72.19501331401989,127.01289657037705 76.73153854161501,122.79371333139716 72.70720164617524,125.6595754668233 69.85358093865216,125.50036110612564 70.07309022406116,115.39020042540506 69.19505308289081,113.87764844141202 67.07312999293208,113.39999999996508 64.65852785576135,115.62902422645129 64.073169761803,123.51017958851298 67.14629975473508,125.18193231342593 69.41456236829981,122.79371333139716 69.92675070045516,115.31059247982921 68.97554379794747,113.7184323183028 66.48777189897373,113.63882424752228 64.51218833262101,116.02706377545837 64.073169761803,123.9878234922071 67.07312999293208,125.10232510050992 69.19505308289081,122.71410593949258 69.85358093865216,115.23098452825798 68.82920427434146,113.7980403828551 66.56094166077673,113.63882424752228 64.146339523606,116.9823580859229 63.70732095325366,122.87332071689889 64.65852785576135,124.70428894588258 66.99996023112908,125.18193231342593 69.04871355975047,123.51017958851298 69.92675070045516,116.18627955351258 68.02433689543977,113.47960808849894 64.87803714070469,114.91255266271764 63.70732095325366,122.95292809663806 65.90241380501539,125.02271788136568 69.19505308289081,122.87332071689889 69.99992046225816,115.62902422645129 68.90237403614447,113.7980403828551 67.43897880148143,113.47960808849894 64.0,116.50471103790915 63.560981429647654,123.35096490650903 66.78045094618574,125.18193231342593 69.26822284469381,122.79371333139716 69.70724141551182,115.23098452825798 67.29263927834108,113.47960808849894 64.292679047212,115.78824006387731 63.70732095325366,123.11214283847949 66.48777189897373,125.26153952057939 69.26822284469381,122.71410593949258 69.70724141551182,115.15137657098239 67.21946951653808,113.47960808849894 64.43901857035235,115.31059247982921 63.70732095325366,122.87332071689889 66.48777189897373,125.10232510050992 69.12188332155347,123.27135755645577 69.78041117684916,115.31059247982921 67.21946951653808,113.47960808849894 64.146339523606,115.86784797383007 63.85366047685966,122.95292809663806 66.56094166077673,125.10232510050992 69.19505308289081,122.87332071689889 69.92675070045516,115.31059247982921 67.58531832508743,113.47960808849894 64.365848809015,115.31059247982921 63.41464190604165,122.71410593949258 66.34143237536773,125.10232510050992 69.19505308289081,123.35096490650903 69.70724141551182,115.31059247982921 66.99996023112908,113.47960808849894 64.219509285409,115.78824006387731 63.634151191450655,123.27135755645577 66.48777189897373,125.10232510050992 69.26822284469381,122.87332071689889 69.78041117684916,115.54941629862878 67.29263927834108,113.5592161709792 64.292679047212,115.23098452825798 63.487811668310314,122.47528372862143 66.34143237536773,124.94311065651709 69.26822284469381,122.79371333139716 69.85358093865216,115.39020042540506 67.14629975473508,113.47960808849894 64.365848809015,115.31059247982921 63.560981429647654,122.71410593949258 66.4146021376364,125.02271788136568 69.34139260649681,123.03253547067288 69.92675070045516,115.78824006387731 67.51214856328443,113.5592161709792 64.43901857035235,115.31059247982921 63.560981429647654,122.71410593949258 66.19509285222739,125.18193231342593 69.19505308289081,122.95292809663806 70.07309022406116,115.62902422645129 69.12188332155347,113.95725649420638 67.29263927834108,113.5592161709792 64.292679047212,115.23098452825798 63.560981429647654,122.79371333139716 66.19509285222739,125.02271788136568 69.34139260649681,122.87332071689889 69.70724141551182,115.39020042540506 68.97554379794747,114.03686454112176 66.92679046932608,113.5592161709792 64.073169761803,115.39020042540506 63.70732095325366,122.95292809663806 66.70728118391708,125.02271788136568 69.12188332155347,123.35096490650903 69.70724141551182,115.071768607595 67.07312999293208,113.47960808849894 64.43901857035235,114.11647258186713 63.560981429647654,115.4698083649273" stroke="#4dd2ff" stroke-linecap="round" stroke-linejoin="round" stroke-width="0.5"><title>2024-04-18 12.3km</title><desc>1713432540000</desc></polyline><polyline fill="none" points="108.63613879680634,137.8080337792635 107.4449472380802,117.72002100641839 99.30513825826347,113.83200239157304 93.15064854174852,119.6640283507295 91.95945698395371,140.61602443200536 98.11394669953734,145.36800239095464 103.6728406380862,144.28800808708183 107.04788338579237,139.75202759820968 107.84201109036803,117.72002100641839 103.07724485825747,113.83200239157304 97.51835092157125,114.04800356319174 92.7535846894607,119.44802759890445 91.95945698395371,139.96802683128044 95.53303165826946,144.93600471806712 100.89339366927743,145.80000000004657 107.24641531147063,138.88803050667048 108.43760686926544,119.6640283507295 100.29779789038002,113.4000000001397 92.7535846894607,119.88002908579074 91.76092505734414,139.75202759820968 97.31981899496168,145.36800239095464 106.45228760596365,140.83202359895222 108.43760686926544,120.96003251918592 106.45228760596365,116.20801438950002 100.29779789038002,113.4000000001397 92.95211661513895,119.23202683124691 91.76092505734414,139.96802683128044 97.51835092157125,145.5840012037661 103.6728406380862,144.0720091778785 106.65081953257322,139.75202759820968 107.84201109036803,119.23202683124691 99.10660633258522,113.4000000001397 93.15064854174852,119.6640283507295 91.95945698395371,140.18402604712173 100.09926596377045,145.80000000004657 106.8493514591828,139.32002908503637 107.4449472380802,118.8000252477359 103.6728406380862,114.91200808738358 96.5256912894547,114.48000585730188 93.15064854174852,119.88002908579074 92.35652083624154,140.83202359895222 101.48898944724351,144.93600471806712 106.8493514591828,136.94403610564768 107.24641531147063,118.1520227517467 101.88605330046266,114.26400471827947 96.5256912894547,115.12800917821005 92.35652083624154,125.4960425295867 93.9447762472555,143.64001131081022 100.49632981605828,145.15200356277637 105.65815990138799,141.26402188651264 107.84201109036803,120.74403186468408 105.45962797384709,116.20801438950002 100.09926596377045,114.48000585730188 93.15064854174852,116.85601732227951 91.36386120412499,121.17603315785527" stroke="#4dd2ff" stroke-linecap="round" stroke-linejoin="round" stroke-width="0.5"><title>2024-04-17 3.1km</title><desc>1713344929000</desc></polyline><polyline fill="none" points="129.02035935316235,120.69003381230868 127.1591218477115,136.48503971938044 131.4399681109935,142.35751841310412 136.46530937589705,143.77501136157662 142.42126939352602,139.52253028959967 144.46863064914942,120.28503244835883 137.7681756298989,114.41250586998649 129.76485435571522,119.88003102457151 128.64811185188591,138.91503244871274 135.5346906222403,144.18000921071507 142.79351689480245,139.52253028959967 144.28250689897686,120.69003381230868 137.2098043775186,114.41250586998649 129.76485435571522,120.69003381230868 128.46198810171336,138.30753447092138 135.1624431218952,143.5725124143064 142.79351689480245,139.1175317435991 144.28250689897686,120.89253447111696 138.698794381693,115.02000921056606 130.13710185606033,119.47502954024822 128.46198810171336,138.7125331372954 135.34856687206775,143.77501136157662 142.79351689480245,138.91503244871274 144.46863064914942,121.2975357437972 137.95429938100278,114.81750811217353 130.13710185606033,119.67753028986044 128.64811185188591,137.90253574261442 130.69547310844064,141.75002120807767 136.09306187462062,143.77501136157662 142.79351689480245,139.1175317435991 144.28250689897686,119.67753028986044 136.2791856257245,114.61500699911267 130.13710185606033,119.67753028986044 128.8342356029898,138.91503244871274 135.90693812444806,144.38250811235048 142.60739314369857,139.32003102381714 144.46863064914942,120.28503244835883 137.7681756298989,114.61500699911267 130.50934935826808,119.88003102457151 128.46198810171336,137.90253574261442 131.81221561133862,142.7625164743513 136.83755687717348,143.97751029348 142.79351689480245,139.1175317435991 143.91025939770043,120.08253174414858 136.6514331260696,114.61500699911267 130.50934935826808,119.88003102457151 129.02035935316235,137.90253574261442 133.85957686789334,143.77501136157662 142.42126939352602,139.32003102381714 144.46863064914942,121.2975357437972 137.58205187879503,114.61500699911267 130.50934935826808,119.47502954024822 128.8342356029898,137.49753695493564 133.85957686789334,143.77501136157662 142.42126939352602,139.72502953954972 144.84087815135717,121.09503511479124 138.3265468813479,115.2225102938246 130.50934935826808,119.47502954024822 128.46198810171336,138.1050351143349 134.97631937079132,144.18000921071507 142.60739314369857,139.1175317435991 144.28250689897686,120.08253174414858 137.95429938100278,114.81750811217353 133.1150818662718,115.83001345256343 130.50934935826808,119.88003102457151 128.8342356029898,139.32003102381714 135.72081437334418,144.18000921071507 142.979640644975,138.7125331372954 144.28250689897686,119.88003102457151 136.6514331260696,115.02000921056606 130.13710185606033,120.08253174414858 129.02035935316235,138.91503244871274 135.5346906222403,143.77501136157662 142.79351689480245,138.51003381144255 144.28250689897686,120.28503244835883 137.7681756298989,114.81750811217353 130.50934935826808,119.272528775502 128.64811185188591,139.1175317435991 134.79019562155008,143.97751029348 142.23514564242214,139.72502953954972 144.46863064914942,120.48753313790075 136.83755687717348,114.81750811217353 129.39260685443878,118.66502638929524 127.1591218477115,138.1050351143349 132.55671061389148,144.58500699861906 138.14042313024402,144.78750587045215 143.35188814625144,141.14252386661246 145.02700190152973,124.74004411324859 140.74615563824773,114.00750356772915 135.72081437334418,113.4000000001397 130.50934935826808,117.24752029194497 126.78687434736639,134.86504335561767 128.8342356029898,143.37001345166937 133.4873293666169,145.80000000004657 139.8155368855223,144.58500699861906 145.21312565170228,136.8900386595633" stroke="#4dd2ff" stroke-linecap="round" stroke-linejoin="round" stroke-width="0.5"><title>2024-04-15 5.9km</title><desc>1713172666000</desc></polyline><polyline fill="none" points="175.11737485276535,116.83157368400134 175.33742484264076,123.37547429912956 176.95112476637587,124.89173822582234 179.07827466586605,124.73213159822626 180.98537457594648,122.4976363038877 181.35212455829605,115.23549427377293 178.05137471435592,113.40000000002328 175.5574748320505,116.03353427746333 175.26407484617084,122.97645711805671 176.58437478356063,124.73213159822626 178.41812469717115,124.97154153051088 181.05872457288206,122.81685020396253 181.13207456935197,114.59706184116658 178.41812469717115,113.4798041646718 176.07092480780557,114.99608215631451 175.11737485276535,122.41783281392418 176.87777476990595,124.81193491484737 179.44502464868128,124.73213159822626 181.13207456935197,123.05626056628535 181.64552454464138,115.63451435038587 179.07827466586605,113.55960832315031 175.63082482898608,115.71431834768737 175.04402485629544,122.09861879458185 177.2445247527212,124.97154153051088 180.76532458607107,123.61488453607308 181.64552454464138,115.8739263243624 179.59172464208677,113.71921662223758 176.07092480780557,114.99608215631451 175.11737485276535,122.65724326577038 177.17117475625128,124.97154153051088 180.54527459666133,123.9340981017449 181.7188745411113,116.35275011172052 180.25187461078167,113.87882489763433 178.49147469364107,113.55960832315031 176.14427480427548,114.836474048323 175.19072484970093,122.25822581618559 177.02447476284578,124.89173822582234 180.54527459666133,123.9340981017449 181.13207456935197,114.59706184116658 177.75797472847626,113.71921662223758 175.70417482499033,115.8739263243624 175.33742484264076,123.05626056628535 178.49147469364107,124.97154153051088 181.05872457288206,122.89665366394911 181.4988245521672,115.71431834768737 178.8582246764563,113.63941247557523 175.70417482499033,115.71431834768737 175.19072484970093,123.05626056628535 177.83132472494617,124.97154153051088 180.83867458300665,122.97645711805671 181.4988245521672,115.79412233905168 178.63817468704656,113.4798041646718 175.7775248219259,115.55471034691436 175.19072484970093,123.13606400846038 177.61127473507077,124.97154153051088 179.7384246350266,124.65232827543514 181.05872457288206,122.97645711805671 181.57217454863712,115.55471034691436 178.7848746799864,113.55960832315031 175.7775248219259,115.63451435038587 175.33742484264076,122.81685020396253 177.75797472847626,124.97154153051088 180.76532458607107,123.53508112957934 181.64552454464138,115.63451435038587 178.7848746799864,113.55960832315031 175.85087481839582,115.31529830105137 175.26407484617084,122.57743978808867 177.46457474213094,124.97154153051088 180.76532458607107,123.45527771738125 181.57217454863712,115.95373030402698 179.22497465927154,113.63941247557523 175.99757481133565,115.07588620146271 175.19072484970093,122.97645711805671 177.61127473507077,125.05134482949506 180.83867458300665,123.53508112957934 181.57217454863712,115.8739263243624 179.22497465927154,113.63941247557523 175.11737485276535,115.23549427377293 174.67727487394586,123.37547429912956 172.91687495680526,126.40799999731826 173.87042491184548,131.83460341655882 167.34227521996945,133.27105264249258 165.43517530988902,141.01188462181017 162.2811254588887,144.44336949114222 166.1686752755195,145.79999999998836" stroke="#4dd2ff" stroke-linecap="round" stroke-linejoin="round" stroke-width="0.5"><title>2024-04-14 5.4km</title><desc>1713087921000</desc></polyline><polyline fill="none" points="18.37727080285549,176.0204473391641 23.03669757116586,185.2775579947047 31.74779979325831,185.7183720623143 36.20464278943837,178.44493151293136 36.4072265625,157.72654789243825 27.696124341338873,154.86122805136256 21.82119493652135,160.59186494583264 20.200524754822254,180.42859889776446 23.64444889035076,184.83674386143684 29.114210749045014,185.9387790716719 35.79947524424642,179.98778403853066 37.217561651952565,159.71022922638804 28.30387565959245,154.42040936648846 21.61861116345972,161.0326827073004 20.200524754822254,180.6490063027013 27.49354056827724,185.7183720623143 35.59689147211611,181.0898210622836 37.82531297020614,161.91431803139858 30.734880928881466,154.42040936648846 22.428946253843606,158.82859324244782 20.60569230094552,180.20819147629663 27.696124341338873,186.15918606403284 35.39430769905448,181.75104307895526 37.42014542594552,161.253091563005 29.72196206636727,154.64081871695817 22.226362480781972,159.71022922638804 19.997940982691944,179.76737658446655 26.480621705763042,186.60000000009313 35.59689147211611,181.310228418326 37.82531297020614,162.13472682144493 31.545216020196676,154.86122805136256 22.428946253843606,159.48982025519945 20.403108527883887,179.32656162627973 26.885789250954986,185.7183720623143 35.39430769905448,181.97145038517192 37.62272919714451,161.253091563005 29.924545840360224,154.42040936648846 22.428946253843606,159.2694112677127 20.403108527883887,179.54696911317296 25.26511907018721,185.7183720623143 32.15296733845025,185.2775579947047 35.79947524424642,181.53063575690612 37.42014542594552,160.81227383506484 29.924545840360224,154.42040936648846 22.428946253843606,159.04900226322934 20.60569230094552,180.6490063027013 27.49354056827724,186.60000000009313 36.20464278943837,180.6490063027013 37.42014542594552,159.71022922638804 29.519378294236958,154.42040936648846 21.82119493652135,160.15104711940512 19.997940982691944,180.20819147629663 27.696124341338873,186.15918606403284 35.79947524424642,180.42859889776446 37.62272919714451,160.81227383506484 29.519378294236958,154.19999999995343 22.226362480781972,159.04900226322934 20.403108527883887,178.66533906548284 25.26511907018721,185.7183720623143 35.79947524424642,181.310228418326 37.42014542594552,159.71022922638804 30.937464702874422,154.42040936648846 22.226362480781972,159.04900226322934 20.60569230094552,180.20819147629663 26.0754541605711,185.9387790716719 35.39430769905448,181.75104307895526 37.62272919714451,162.13472682144493 30.937464702874422,154.19999999995343 22.226362480781972,158.82859324244782 20.403108527883887,179.54696911317296 26.885789250954986,185.9387790716719 35.39430769905448,181.75104307895526 37.82531297020614,160.59186494583264 32.76071865577251,155.08163736853749 25.670286615379155,155.08163736853749 19.39018966536969,168.52657455345616 19.187605892308056,179.54696911317296 18.17468702979386,175.13881623605266" stroke="#4dd2ff" stroke-linecap="round" stroke-linejoin="round" stroke-width="0.5"><title>2024-04-13 4.9km</title><desc>1713000859000</desc></polyline><polyline fill="none" points="54.61082419939339,167.82042852579616 56.12826675269753,182.67900113062933 60.68059441447258,185.5681587322615 67.69876622501761,185.15542211732827 70.73365133162588,177.51978360163048 71.30269228946418,159.15289088129066 62.956758244894445,155.4382235542871 56.697307710535824,162.0420731222257 55.55922579579055,179.78984050289728 59.163151861168444,183.91721190232784 64.66388111747801,184.53631707956083 70.35429069399834,179.5834717710968 71.49237260874361,159.15289088129066 63.146438563242555,155.4382235542871 56.697307710535824,163.073923189193 55.93858643434942,179.78984050289728 63.33611888345331,184.94905378716066 70.16461037378758,180.2025779208634 72.0614135665819,161.21659279055893 65.23292207531631,155.2318530001212 57.64570930600166,159.97837182995863 56.12826675269753,179.37710302323103 62.76707792561501,184.7426854406949 70.16461037378758,179.78984050289728 72.0614135665819,161.01022266945802 65.42260239459574,155.02548243105412 57.64570930600166,160.39111221232451 56.12826675269753,179.78984050289728 63.146438563242555,184.94905378716066 70.16461037378758,180.40894660679623 72.0614135665819,160.39111221232451 64.28452047891915,155.02548243105412 57.456028988584876,160.80385253229178 56.507627392187715,181.02805257122964 65.61228271387517,184.7426854406949 70.73365133162588,178.551627879031 71.11301197018474,156.6764465519227 61.43931569159031,154.61274124635383 56.12826675269753,161.62933298689313 54.99018483888358,181.02805257122964 59.73219281807542,185.7745270167943 64.66388111747801,186.18726353929378 71.87173324730247,179.99620921956375 72.25109388493001,157.708298626123 63.33611888345331,154.20000000018626 55.93858643434942,160.39111221232451 54.61082419939339,181.02805257122964 58.21475026477128,185.98089528572746 64.47420079819858,186.39363177749328 72.0614135665819,179.1707342604641 72.82013484369963,158.9465206055902 62.38771728798747,154.81911184662022 55.36954547744244,161.42296289652586 54.61082419939339,180.82168393139727 62.00835664849728,186.60000000009313 71.11301197018474,181.4407898033969 73.76853643916547,161.83570306259207 69.21620877832174,154.81911184662022 59.73219281807542,155.6445940923877 55.36954547744244,162.4548131953925 56.12826675269753,181.23442119499668 65.04324175603688,185.36179043282755 70.54397101234645,179.99620921956375 72.25109388493001,161.42296289652586 68.8368481406942,156.2637056147214 63.905159841291606,154.81911184662022 56.88698803074658,160.80385253229178 56.31794707290828,179.5834717710968 62.956758244894445,184.7426854406949 70.54397101234645,179.99620921956375 72.0614135665819,161.01022266945802 65.23292207531631,155.02548243105412 57.26634866837412,160.80385253229178 56.31794707290828,179.78984050289728 62.00835664849728,185.15542211732827 68.07812686264515,183.91721190232784 70.92333165090531,179.78984050289728 72.44077420420945,161.01022266945802 65.61228271387517,155.02548243105412 56.12826675269753,161.21659279055893 54.23146356176585,177.93252135859802" stroke="#4dd2ff" stroke-linecap="round" stroke-linejoin="round" stroke-width="0.5"><title>2024-04-12 5.1km</title><desc>1712913892000</desc></polyline><polyline fill="none" points="84.10000000032596,161.91380595450755 83.80000000004657,166.4833446581615 85.72000000020489,168.6375474621891 88.72000000020489,167.26669174764538 89.50000000023283,161.2610127577791 88.95999999996275,159.8901454550214 87.28000000026077,159.106791743543 84.82000000006519,160.47766027698526 84.16000000014901,166.54862360900734 85.72000000020489,168.44171106338035 88.78000000002794,167.1361339481664 89.43999999994412,161.2610127577791 87.5800000000745,159.17207124643028 84.94000000040978,160.347101461899 84.22000000020489,166.4833446581615 86.20000000018626,168.57226866745623 88.66000000014901,167.4625284099602 89.50000000023283,161.52213009505067 87.5800000000745,159.106791743543 84.94000000040978,160.347101461899 84.22000000020489,166.41806570230983 85.66000000014901,168.44171106338035 88.66000000014901,167.4625284099602 89.3800000003539,161.13045405980665 87.46000000019558,159.2373507444281 84.94000000040978,160.2818220469053 84.22000000020489,166.15694983006688 85.4800000002142,168.3111534396303 87.28000000026077,168.44171106338035 88.78000000002794,167.26669174764538 89.43999999994412,161.58740941714495 88.84000000008382,159.8248660058598 85.72000000020489,159.36790972552262 84.64000000013039,160.99989534239285 83.80000000004657,167.3319706399925 90.16000000014901,169.68200751347467 92.19999999995343,169.02922012779163 94.72000000020489,166.54862360900734 98.38000000012107,167.72364389174618 99.21999999997206,169.42089261789806 99.04000000003725,174.12094878550852 102.45999999996275,178.69042356905993 108.34000000008382,180.844596239971 114.39999999990687,181.69320825650357 116.19999999995343,180.5182067831047 116.02000000001863,169.55145007540705 115.23999999999069,169.87784363387618 115.0,172.0320380582707" stroke="#4dd2ff" stroke-linecap="round" stroke-linejoin="round" stroke-width="0.5"><title>2024-04-11 3.0km</title><desc>1712828151000</desc></polyline><polyline fill="none" points="128.21882730163634,161.09809599420987 127.45031641703099,180.12003005482256 130.33223223220557,184.9277511301916 135.71180841792375,186.3909689465072 144.5496835820377,180.74712457694113 145.8945776289329,160.2619640538469 137.82521334849298,154.19999999995343 129.94797678943723,158.17163310712203 127.64244413841516,179.7019669620786 133.59840348828584,185.97290679160506 140.5150014422834,185.13678229390644 144.16542814020067,181.37421895889565 146.08670534938574,161.72519478574395 139.74649055860937,154.82710033957846 133.79053120873868,155.24516715481877 129.7558490689844,159.42583186272532 127.0660609761253,179.49293539160863 134.94329753424972,186.60000000009313 144.16542814020067,182.21034458186477 146.66308851260692,164.65165395173244 145.8945776289329,158.58969942154363 142.2441509310156,155.45420053834096 134.94329753424972,154.4090334624052 130.5243599517271,156.7084005139768 125.33691148739308,164.65165395173244 127.64244413841516,179.91099851601757 131.48499855678529,185.5548445736058 138.78585195261985,186.1819378763903 143.97330041974783,181.79228180204518 145.70244990848005,163.18842475186102 140.8992568841204,154.82710033957846 135.1354252556339,154.19999999995343 129.94797678943723,157.33550029061735 127.64244413841516,179.7019669620786 132.8298926036805,185.97290679160506 139.74649055860937,185.76387569052167 144.74181130342185,179.91099851601757 146.47096079215407,162.56132628861815 143.5890449769795,157.12646704702638 138.01734106987715,154.4090334624052 129.7558490689844,157.96259992639534 127.45031641703099,179.283903805539 133.02202032506466,185.76387569052167 139.74649055860937,185.5548445736058 144.9339390238747,180.12003005482256 146.2788330707699,162.56132628861815 141.09138460457325,154.82710033957846 131.29287083633244,155.66323390696198 128.41095502115786,161.3071289404761 128.21882730163634,182.0013131997548 137.63308562804013,186.1819378763903 144.16542814020067,180.12003005482256 144.9339390238747,161.3071289404761 142.2441509310156,156.49936722405255 136.8645747443661,155.24516715481877 129.94797678943723,160.68003005511127 128.41095502115786,179.49293539160863 136.28819158114493,185.76387569052167 143.78117269836366,180.74712457694113 145.12606674525887,162.77035912498832 143.20478953514248,157.75356672983617 138.01734106987715,155.24516715481877 129.94797678943723,160.47099706204608 127.45031641703099,179.7019669620786 134.94329753424972,186.60000000009313 140.13074600044638,186.1819378763903 142.43627865239978,182.21034458186477 144.9339390238747,162.3522934364155 138.78585195261985,155.66323390696198 133.98265892919153,156.08130059670657 130.1401045108214,160.68003005511127 128.41095502115786,178.86584058776498 135.1354252556339,185.34581344178878 143.20478953514248,181.79228180204518 144.9339390238747,161.3071289404761 138.40159651171416,155.45420053834096 130.33223223220557,160.68003005511127 128.60308274347335,179.283903805539 134.94329753424972,185.5548445736058 143.39691725652665,180.32906157849357 144.9339390238747,161.3071289404761 137.63308562804013,155.66323390696198 129.94797678943723,160.88906303257681 128.41095502115786,179.49293539160863 136.4803193025291,185.76387569052167 143.20478953514248,181.1651875139214 144.74181130342185,160.68003005511127 138.20946879126132,155.66323390696198 130.1401045108214,159.63486493378878 127.83457185979933,179.283903805539 134.1747866505757,185.5548445736058 143.20478953514248,181.79228180204518 145.70244990848005,162.3522934364155 138.40159651171416,155.66323390696198 133.40627576690167,156.49936722405255 128.41095502115786,162.14326056884602 126.87393325474113,178.86584058776498" stroke="#4dd2ff" stroke-linecap="round" stroke-linejoin="round" stroke-width="0.5"><title>2024-04-09 5.6km</title><desc>1712653834000</desc></polyline><polyline fill="none" points="163.47810529079288,160.10946269729175 163.1035165125504,179.26418469287455 166.28752112854272,184.96982052829117 170.78258647024632,185.78491038572975 176.02682936843485,184.766048025107 179.77271715272218,179.8755033898633 181.4583666557446,159.70191395725124 178.27436203882098,155.42264850670472 172.46823597326875,154.20000000018626 164.78916601464152,160.31323704426177 163.47810529079288,180.07927625835873 171.90635280590504,186.19245522329584 179.77271715272218,179.8755033898633 181.08377787657082,160.7207856932655 176.58871253579855,155.21887379395775 172.65553036238998,154.8113243218977 164.78916601464152,160.7207856932655 162.72892773337662,178.85663881897926 166.28752112854272,184.5622755077202 171.7190584158525,186.19245522329584 179.96001154184341,179.67173050623387 181.64566104486585,161.53588280710392 174.52847425453365,154.40377478930168 167.41128746327013,155.83019788726233 164.22728284727782,159.9056883349549 163.1035165125504,180.4868219497148 171.15717524848878,185.98868281231262 179.58542276360095,180.4868219497148 181.4583666557446,159.9056883349549 178.836245207116,156.0339725543745 173.03011914063245,154.40377478930168 164.41457723639905,160.31323704426177 163.1035165125504,180.89436757937074 171.15717524848878,186.60000000009313 179.3981283744797,180.89436757937074 181.4583666557446,159.49813956487924 172.84282475151122,154.60754956374876 164.78916601464152,159.2943651569076 162.54163334332407,180.07927625835873 168.90964257810265,186.60000000009313 173.96659108716995,185.98868281231262 179.02353959530592,180.89436757937074 181.27107226662338,159.9056883349549 178.836245207116,156.0339725543745 172.46823597326875,154.40377478930168 164.22728284727782,160.51701137633063 162.91622212342918,180.89436757937074 166.1002267394215,185.17359301517718 171.15717524848878,186.39622761961073 179.3981283744797,181.09814037196338 181.64566104486585,160.51701137633063 179.21083398442715,156.237747205887 172.84282475151122,154.60754956374876 164.41457723639905,159.2943651569076 162.35433895513415,178.85663881897926 168.53505379892886,185.98868281231262 174.3411798644811,185.98868281231262 179.02353959530592,181.9132313884329 181.83295543398708,164.38872078526765 178.08706764969975,155.21887379395775 166.84940429590642,156.0339725543745 163.85269406903535,161.1283342805691 163.29081090074033,181.5056859103497 167.59858185332268,185.78491038572975 172.84282475151122,186.19245522329584 180.14730593003333,179.0604117643088 181.4583666557446,161.1283342805691 178.46165642794222,156.237747205887 171.15717524848878,154.40377478930168 164.22728284727782,159.9056883349549 162.54163334332407,180.07927625835873 170.96988085936755,186.60000000009313 179.58542276360095,180.89436757937074 181.4583666557446,160.31323704426177 179.3981283744797,156.64529646467417 173.03011914063245,154.20000000018626 167.41128746327013,156.237747205887 163.85269406903535,161.53588280710392 164.03998845815659,179.8755033898633 171.34446963761002,184.96982052829117 178.46165642794222,180.28304911172017 179.77271715272218,160.51701137633063 173.59200230892748,155.42264850670472 163.6653996789828,162.14720548246987 162.16704456601292,177.6340008310508" stroke="#4dd2ff" stroke-linecap="round" stroke-linejoin="round" stroke-width="0.5"><title>2024-04-08 5.0km</title><desc>1712568268000</desc></polyline><polyline fill="none" points="18.773739120922983,206.92642631591298 20.783419707790017,222.2319283229299 25.716272059828043,225.01473739836365 31.74531382136047,223.42456114082597 35.76467499602586,218.25648173177615 35.21658029127866,197.78283759532496 26.812461470253766,195.0 20.05262676719576,202.15586221357808 19.687230296432972,222.0331561351195 24.25468617770821,225.61105324910022 32.11071029212326,224.6171934234444 35.399278526194394,218.85279909987003 35.58197676204145,197.9816115978174 25.350875589065254,195.79509675339796 19.687230296432972,204.5411453351844 19.50453206244856,221.43683948088437 24.80278088338673,225.41228131391108 31.74531382136047,224.6171934234444 35.76467499602586,218.85279909987003 35.399278526194394,197.58406357793137 25.716272059828043,195.79509675339796 20.235325002111495,201.55954109854065 18.95643735677004,220.4429780934006 26.99515970610082,226.20736896665767 35.21658029127866,220.04543343395926 36.49546793755144,201.3607673640363 33.38959793932736,196.39141916204244 28.456745588220656,195.39754840685055 23.341195001266897,196.78896736027673 20.600721472874284,201.16199361393228 19.50453206244856,221.03929497022182 22.793100295588374,225.01473739836365 29.918331469409168,225.41228131391108 35.399278526194394,220.04543343395926 35.947373231872916,199.37302919849753 29.735633234493434,195.19877421064302 20.783419707790017,200.5656722758431 19.139135591685772,220.04543343395926 22.24500558990985,224.6171934234444 26.812461470253766,225.61105324910022 35.03388205636293,221.2380672332365 36.86086440831423,202.15586221357808 34.30308911483735,197.38528954610229 28.091349117457867,195.79509675339796 22.427703825756907,198.57793351612054 19.869928532280028,203.5472776282113 19.50453206244856,223.0270169279538 22.427703825756907,226.20736896665767 28.822142058983445,226.40614084294066 35.03388205636293,219.84666108246893 36.86086440831423,200.96321984939277 28.63944382313639,195.5963225872256 20.783419707790017,200.76444607018493 18.591040885075927,220.84052269277163 24.985479118302464,227.20122819812968 35.03388205636293,220.2442057710141 36.67816617246717,201.3607673640363 33.2068997034803,196.19264504080638 28.456745588220656,195.39754840685055 20.41802323795855,201.16199361393228 19.321833826601505,220.84052269277163 27.725952646695077,225.80982516985387 35.03388205636293,219.44911633385345 36.49546793755144,199.96935080434196 28.63944382313639,195.79509675339796 20.41802323795855,201.55954109854065 19.139135591685772,220.04543343395926 22.793100295588374,224.6171934234444 28.274047353304923,225.80982516985387 35.21658029127866,219.44911633385345 36.49546793755144,199.96935080434196 33.2068997034803,196.39141916204244 26.264366765506566,195.79509675339796 19.687230296432972,204.14359829714522 19.139135591685772,222.82824479881674 22.24500558990985,226.40614084294066 29.735633234493434,226.00859707570635 35.399278526194394,218.85279909987003 35.58197676204145,198.37915955786593 27.36055617686361,195.0 20.235325002111495,201.55954109854065 19.139135591685772,220.2442057710141 24.437384412623942,225.41228131391108 29.735633234493434,225.21350936335512 35.58197676204145,218.65402665920556 36.49546793755144,200.3668984666001 33.38959793932736,196.39141916204244 27.177857941016555,195.5963225872256 20.05262676719576,202.15586221357808 19.869928532280028,221.63561171339825 24.985479118302464,226.20736896665767 31.74531382136047,225.21350936335512 36.13007146771997,213.68471079948358 34.30308911483735,198.57793351612054 23.88928970694542,197.18651549867354 18.95643735677004,208.3178392322734 19.687230296432972,224.21964938845485 23.88928970694542,227.002456381917 30.83182264585048,225.61105324910022 35.58197676204145,218.4552542027086 37.04356264322996,202.7521831949707 35.21658029127866,197.78283759532496 28.822142058983445,195.79509675339796 23.341195001266897,197.38528954610229 18.95643735677004,208.11906600324437 19.687230296432972,224.21964938845485 23.706591472029686,226.8036845503375 31.014520880766213,225.41228131391108 35.58197676204145,218.4552542027086 35.399278526194394,198.37915955786593 25.898970294743776,195.5963225872256 19.869928532280028,203.74605119926855 20.235325002111495,222.2319283229299 25.898970294743776,226.8036845503375 32.29340852703899,226.40614084294066 35.76467499602586,221.63561171339825 35.947373231872916,199.17425529984757 25.16817735414952,195.5963225872256 19.50453206244856,203.1497304411605 18.591040885075927,221.83438393194228 21.514212649315596,226.20736896665767 27.908650882542133,227.20122819812968 35.58197676204145,219.6478887151461 36.312769702635705,199.77057695039548 26.08166852965951,195.79509675339796 19.321833826601505,203.9448247558903 18.773739120922983,223.0270169279538 22.24500558990985,226.60491270408966 28.091349117457867,227.002456381917 33.57229617424309,224.21964938845485 36.13007146771997,219.051571526099 36.86086440831423,199.77057695039548 26.812461470253766,195.39754840685055 19.50453206244856,202.35463588871062 18.773739120922983,222.2319283229299 22.062307354994118,226.00859707570635 28.822142058983445,227.39999999990687 35.399278526194394,222.0331561351195 36.86086440831423,200.5656722758431 34.30308911483735,196.9877414368093 27.36055617686361,195.39754840685055 20.05262676719576,201.16199361393228 18.042946180328727,220.4429780934006 20.41802323795855,224.81596541800536 25.716272059828043,227.002456381917 35.03388205636293,222.0331561351195 37.04356264322996,202.15586221357808 29.00484029389918,195.39754840685055 20.783419707790017,200.5656722758431 18.773739120922983,220.04543343395926 27.543254411779344,227.002456381917 35.76467499602586,222.2319283229299 37.591657348908484,203.1497304411605 34.120390879921615,197.58406357793137 29.00484029389918,195.79509675339796 20.41802323795855,201.16199361393228 18.591040885075927,220.6417504006531 21.33151441346854,225.01473739836365 27.543254411779344,227.002456381917 35.947373231872916,221.03929497022182 37.226260878145695,203.1497304411605 34.85118382051587,198.37915955786593 28.63944382313639,195.39754840685055 20.235325002111495,201.3607673640363 18.95643735677004,221.2380672332365 21.879609119147062,225.21350936335512 27.543254411779344,226.8036845503375 35.21658029127866,221.83438393194228 36.86086440831423,202.35463588871062 28.456745588220656,195.79509675339796 20.235325002111495,202.15586221357808 18.773739120922983,221.43683948088437 27.908650882542133,226.40614084294066 35.58197676204145,220.6417504006531 37.226260878145695,201.75831481837668 27.908650882542133,195.5963225872256 20.05262676719576,202.15586221357808 18.95643735677004,220.6417504006531 27.725952646695077,226.40614084294066 35.399278526194394,221.03929497022182 36.67816617246717,201.55954109854065 32.84150323364884,196.59019326907583 27.543254411779344,195.79509675339796 20.41802323795855,202.553409548942 18.591040885075927,220.84052269277163 26.629763235338032,227.002456381917 35.399278526194394,222.62947265524417 37.95705381967127,203.3485040422529 34.66848558560014,197.18651549867354 24.25468617770821,196.59019326907583 20.05262676719576,202.7521831949707 18.95643735677004,218.25648173177615" stroke="#4dd2ff" stroke-linecap="round" stroke-linejoin="round" stroke-width="0.5"><title>2024-04-06 11.8km</title><desc>1712394949000</desc></polyline><polyline fill="none" points="56.26498641073704,223.40261758770794 63.41987398080528,227.39999999990687 70.18801087141037,221.7195075035561 72.50851494818926,203.415620300686 70.18801087141037,197.3142980930861 63.03312330134213,195.6311723960098 58.39211514778435,198.78703225194477 55.684860391542315,217.72211701748893 60.71261922456324,225.71689230878837 70.18801087141037,222.35067390301265 72.70189028792083,202.36366914049722 69.02775883302093,197.1039074358996 62.64637262187898,196.47273537050933 58.19873980805278,199.83898474974558 55.87823573220521,219.4052294937428 60.90599456522614,225.9272808250971 69.60788485221565,223.19222888187505 72.12176426779479,202.7844496513717 67.86750679463148,196.6831260751933 61.67949592322111,196.6831260751933 58.005364468321204,200.47015606006607 55.87823573220521,218.77406243304722 59.939117865636945,225.5065037761815 69.8012601910159,222.981840161141 72.31513960752636,202.7844496513717 66.70725475531071,196.26234465069138 57.81198912858963,200.04937520227395 55.29810971207917,220.66756319021806 62.45299728214741,226.3480578113813 70.38138621114194,221.5091186722275 72.50851494818926,202.9948398831766 69.99463553074747,197.94546996965073 65.16025203838944,195.84156316355802 57.23186310939491,200.68054646486416 55.29810971207917,219.1948404891882 61.67949592322111,226.13766932603903 70.5747615499422,221.29872982553206 72.31513960752636,202.57405940373428 64.96687669865787,195.84156316355802 57.61861378978938,200.47015606006607 55.87823573220521,219.82600745512173 62.45299728214741,226.3480578113813 70.5747615499422,221.29872982553206 72.12176426779479,201.31171758612618 64.38675067946315,196.05195391504094 57.61861378978938,200.68054646486416 56.071611071005464,220.45717427972704 63.61324932053685,226.13766932603903 70.96151223033667,220.87795208394527 72.50851494818926,201.94288856582716 65.54700271692127,196.05195391504094 57.23186310939491,201.31171758612618 55.87823573220521,220.45717427972704 62.839747961610556,226.3480578113813 70.76813689060509,221.5091186722275 72.50851494818926,202.15327886096202 64.7735013589263,196.05195391504094 57.23186310939491,201.31171758612618 55.684860391542315,220.45717427972704 63.61324932053685,226.3480578113813 70.5747615499422,221.5091186722275 72.31513960752636,202.15327886096202 65.74037805758417,195.84156316355802 57.42523844912648,200.47015606006607 55.87823573220521,219.61561848199926 62.06624660361558,226.13766932603903 67.67413145489991,225.0857266644016 70.76813689060509,221.29872982553206 72.50851494818926,201.52210792852566 65.54700271692127,195.84156316355802 57.81198912858963,200.25976563920267 55.684860391542315,219.61561848199926 61.48612058442086,226.13766932603903 70.38138621114194,222.1402851191815 72.31513960752636,202.36366914049722 66.12712873611599,195.4207816135604 58.005364468321204,199.83898474974558 55.684860391542315,219.82600745512173 62.25962194241583,226.13766932603903 68.25425747409463,224.87533808499575 71.15488756913692,220.66756319021806 71.92838892899454,201.10132722835988 64.19337533973157,195.6311723960098 57.23186310939491,200.89093685429543 55.87823573220521,221.08834096207283 63.03312330134213,226.3480578113813 70.76813689060509,220.87795208394527 72.31513960752636,202.15327886096202 64.96687669865787,195.84156316355802 57.03848777059466,201.73249825532548 55.87823573220521,219.82600745512173 62.839747961610556,226.13766932603903 70.5747615499422,221.7195075035561 72.31513960752636,202.36366914049722 64.38675067946315,195.84156316355802 57.42523844912648,201.10132722835988 55.87823573220521,220.66756319021806 60.51924388483167,225.9272808250971 70.18801087141037,222.35067390301265 72.70189028792083,202.57405940373428 64.96687669865787,195.6311723960098 57.81198912858963,200.25976563920267 56.26498641073704,220.2467853538692 63.61324932053685,226.3480578113813 70.76813689060509,220.87795208394527 72.50851494818926,202.36366914049722 68.83438349235803,196.8935167635791 64.19337533973157,195.6311723960098 57.61861378978938,201.10132722835988 55.87823573220521,220.03639641287737 63.61324932053685,226.3480578113813 70.5747615499422,222.35067390301265 72.31513960752636,201.73249825532548 64.96687669865787,195.2103908143472 58.19873980805278,198.99742278293706 55.87823573220521,220.03639641287737 58.585490487515926,224.66494948999025 63.806624660268426,226.3480578113813 71.15488756913692,220.45717427972704 72.31513960752636,201.73249825532548 68.64100815355778,196.47273537050933 63.61324932053685,195.4207816135604 57.61861378978938,200.47015606006607 56.071611071005464,220.66756319021806 64.38675067946315,226.7688347341027 70.76813689060509,221.7195075035561 72.12176426779479,201.73249825532548 64.58012601919472,195.0 57.42523844912648,200.47015606006607 55.684860391542315,219.4052294937428 61.67949592322111,226.13766932603903 70.5747615499422,221.92989631928504 72.12176426779479,201.94288856582716 65.54700271692127,195.6311723960098 60.51924388483167,196.26234465069138 57.42523844912648,201.31171758612618 55.87823573220521,220.03639641287737 63.226498642005026,226.3480578113813 70.96151223033667,221.29872982553206 72.12176426779479,202.36366914049722 65.16025203838944,195.4207816135604 57.42523844912648,201.10132722835988 56.071611071005464,220.87795208394527 63.03312330134213,226.7688347341027 70.76813689060509,221.29872982553206 72.12176426779479,201.10132722835988 69.02775883302093,196.8935167635791 63.03312330134213,195.6311723960098 57.42523844912648,201.10132722835988 56.26498641073704,220.87795208394527 64.19337533973157,226.3480578113813 70.96151223033667,220.2467853538692 72.31513960752636,201.31171758612618 63.806624660268426,195.4207816135604 58.39211514778435,199.20781329786405 55.49148505181074,206.36108145606704 55.29810971207917,222.56106267124414" stroke="#4dd2ff" stroke-linecap="round" stroke-linejoin="round" stroke-width="0.5"><title>2024-04-03 9.7km</title><desc>1712137473000</desc></polyline><polyline fill="none" points="88.41896706540138,214.6941618458368 93.67422570753843,213.63533942471258 91.72783361840993,219.35297579015605 96.00989621598274,225.91765515413135 105.93649587407708,225.91765515413135 111.58103293552995,205.16474580392241 108.46680559124798,196.2705952215474 101.07051565032452,195.0 95.81525700632483,197.96472129621543 93.47958649974316,219.14121168642305 96.20453542564064,226.34118233202025 103.01690773945302,226.34118233202025 108.07752717286348,222.74119929829612 110.21855847258121,203.25885874545202 105.54721745662391,196.905892618699 96.00989621598274,200.71767400577664 93.47958649974316,220.83532407414168 99.5134019786492,226.7647094472777 108.07752717286348,222.31767158163711 109.82928005419672,203.04709343775176 104.37938220240176,196.2705952215474 95.81525700632483,200.71767400577664 93.67422570753843,221.47061595786363 100.29195881448686,227.18823649850674 108.07752717286348,222.5294354481157 110.21855847258121,202.835328114219 104.96329982951283,196.69412683532573 99.5134019786492,197.32942413678393 95.42597858887166,201.56473583891056 93.28494729008526,220.83532407414168 99.70804118737578,227.39999999990687 107.88288796506822,222.5294354481157 110.02391926385462,202.20003204792738 104.96329982951283,196.69412683532573 95.42597858887166,201.35297040455043 93.28494729008526,219.7765039508231 95.81525700632483,225.2823642680887 101.26515485905111,227.18823649850674 108.66144479997456,221.68237988790497 110.02391926385462,202.4117974191904 104.76866061985493,196.4823610363528 100.48659802321345,196.4823610363528 95.42597858887166,201.14120495389216 93.28494729008526,219.98826800682582 99.1241235602647,227.18823649850674 107.68824875541031,223.376490754541 110.21855847258121,203.25885874545202 106.32577429246157,196.905892618699 101.26515485905111,196.69412683532573 95.62061779852957,201.14120495389216 93.47958649974316,220.4117960727308 97.95628830604255,226.55294589768164 108.07752717286348,225.49412791244686" stroke="#4dd2ff" stroke-linecap="round" stroke-linejoin="round" stroke-width="0.5"><title>2024-04-02 3.0km</title><desc>1712049520000</desc></polyline><polyline fill="none" points="129.54423793498427,205.1958415696863 128.2947355993092,222.8685523159802 132.04324260540307,226.72028327942826 137.66600311454386,226.94685553689487 141.8310108995065,222.18883457873017 143.91351479198784,199.7580636702478 136.8330015577376,194.99999999976717 130.16898910235614,200.43778644152917 128.0864852098748,222.18883457873017 131.6267418274656,226.49371100589633 137.45775272604078,226.94685553689487 141.8310108995065,221.96226196573116 143.91351479198784,199.9846379442606 137.041251947172,194.99999999976717 130.16898910235614,200.2112122012768 127.87823482137173,221.5091166885104 135.16699844412506,227.39999999990687 141.8310108995065,222.41540717496537 144.1217651804909,200.890934871044 137.87425350397825,194.99999999976717 130.16898910235614,200.2112122012768 127.87823482137173,221.73568933596835 134.5422472767532,227.39999999990687 141.6227605100721,222.8685523159802 144.1217651804909,201.1175090605393 138.08250389341265,194.99999999976717 130.16898910235614,199.9846379442606 127.87823482137173,221.5091166885104 134.1257464978844,227.39999999990687 141.6227605100721,222.8685523159802 144.3300155699253,201.57065738830715 138.70725506171584,195.2265746302437 130.37723949272186,199.5314893790055 127.87823482137173,221.0559713449329 134.5422472767532,227.39999999990687 141.6227605100721,222.8685523159802 144.1217651804909,201.1175090605393 137.87425350397825,194.99999999976717 130.37723949272186,199.5314893790055 127.87823482137173,221.5091166885104 134.75049766618758,227.39999999990687 141.8310108995065,222.18883457873017 144.1217651804909,201.34408323303796 137.66600311454386,194.99999999976717 130.16898910235614,200.43778644152917 127.87823482137173,221.73568933596835 134.75049766618758,227.39999999990687 141.8310108995065,222.41540717496537 144.1217651804909,200.66436066525057 137.45775272604078,194.99999999976717 130.16898910235614,200.43778644152917 127.87823482137173,221.28254402498715 130.58548988122493,225.8139940816909 136.20825039036572,227.17342777713202 141.8310108995065,222.18883457873017 144.1217651804909,200.890934871044 137.041251947172,194.99999999976717 130.16898910235614,200.43778644152917 127.87823482137173,221.0559713449329 134.1257464978844,227.39999999990687 141.6227605100721,222.8685523159802 144.3300155699253,202.02380564785562 138.49900467135012,195.2265746302437 130.58548988122493,199.3049150716979 127.87823482137173,221.0559713449329 132.66799377370626,226.94685553689487 141.6227605100721,222.8685523159802 144.3300155699253,201.57065738830715 138.9155054492876,195.2265746302437 131.0019906591624,198.39861767017283 127.66998443100601,220.37625320069492 130.37723949272186,225.8139940816909 136.00000000093132,227.39999999990687 140.99800934270024,224.00141487270594 144.3300155699253,202.93010196485557 140.16500778496265,195.67972383880988 132.25149299483746,196.8125965653453 128.711236378178,223.54826990095899 133.08449455164373,227.17342777713202 138.70725506171584,226.26713871466927 142.87226284574717,215.3916488159448" stroke="#4dd2ff" stroke-linecap="round" stroke-linejoin="round" stroke-width="0.5"><title>2024-03-30 4.8km</title><desc>1711782999000</desc></polyline><polyline fill="none" points="162.6811478557065,208.22453283029608 164.09923405013978,223.21226494782604 168.35349263902754,226.73877907218412 174.83617239259183,226.29796503763646 179.69818220566958,219.90615412266925 179.29301472194493,197.42450212943368 169.56899509299546,195.66122805094346 164.3018177933991,201.6122738351114 164.3018177933991,222.55104307970032 169.97416257672012,227.39999999990687 176.2542585870251,225.85715093649924 179.9007659489289,219.90615412266925 181.3188521442935,203.37554435175844 179.09043097868562,196.98368370882235 172.0,195.0 167.1379901850596,198.08572963625193 163.49148282315582,219.46533906576224 165.51732024736702,224.53470823913813 171.39224877394736,227.39999999990687 179.69818220566958,221.44900630274788 180.50851717591286,199.18777515226975 171.797416257672,195.4408187174704 164.70698527712375,201.83268270711415 164.70698527712375,224.31430106493644 172.40516748465598,227.17959304060787 178.280096010305,223.65307944384404 180.9136846596375,203.59595309197903 179.49559846427292,198.08572963625193 175.03875613305718,195.22040936746635 165.92248773109168,198.96736608212814 163.28889908175915,220.78778403857723 168.35349263902754,226.73877907218412 178.077512267977,223.21226494782604 180.9136846596375,203.37554435175844 176.65942607168108,196.32245595403947 165.92248773109168,196.32245595403947" stroke="#4dd2ff" stroke-linecap="round" stroke-linejoin="round" stroke-width="0.5"><title>2024-03-28 2.0km</title><desc>1711615120000</desc></polyline><polyline fill="none" points="19.810554976575077,249.5700473850593 17.76319371908903,249.9750477182679 19.810554976575077,251.59504844527692 17.577069968916476,250.58254810445942 19.810554976575077,251.19004835467786 20.368926228024065,263.9475221091416 24.46364874020219,267.59250356745906 30.977980010211468,267.7950023931917 36.56169252563268,260.9100338113494 37.4923112783581,239.64752029185183 33.02534126583487,236.20500239357352 27.44162874855101,236.20500239357352 20.927297479473054,243.4950351146981 19.6244312254712,261.92253028950654 26.697133746929467,268.19999999995343 35.63107377290726,262.93502638861537 37.306187528185546,241.67252877540886 34.51433127000928,236.81250586989336 30.047361256554723,235.80000000004657 21.6717924810946,241.47002799483016 20.368926228024065,260.3025357425213 22.974658736027777,265.3650154818315 27.62775249965489,267.187505870359 34.70045502111316,262.93502638861537 36.56169252563268,243.29253447102383 30.047361256554723,237.01500699901953 22.60241123382002,241.67252877540886 21.299544980749488,261.720031023724 28.0,267.187505870359 35.258826271630824,261.720031023724 36.375568775460124,241.0650263892021 29.67511375527829,236.61000472633168 22.60241123382002,242.28003102447838 21.11342122964561,261.11253313720226 26.883257497102022,267.187505870359 35.07270252145827,261.720031023724 36.375568775460124,242.48253174405545 28.930618753656745,236.20500239357352 22.7885349849239,241.67252877540886 20.741173728369176,261.11253313720226 27.255504998378456,267.187505870359 35.4449500227347,261.720031023724 36.93394002690911,242.48253174405545 30.419608757831156,236.61000472633168 22.974658736027777,241.47002799483016 20.927297479473054,260.9100338113494 22.230163732543588,265.16251647425815 26.883257497102022,266.78250811225735 35.258826271630824,262.3275287745055 36.93394002690911,243.69753574370407 30.60573250800371,237.42000921047293 22.7885349849239,241.2675271993503 20.927297479473054,261.720031023724 27.62775249965489,266.98500699852593 35.258826271630824,261.92253028950654 36.74781627673656,241.67252877540886 29.861237506382167,237.01500699901953 22.7885349849239,242.28003102447838 20.927297479473054,261.3150324486196 27.62775249965489,267.187505870359 33.58371251728386,266.3775102933869 36.375568775460124,262.5300279944204 38.422930031083524,243.09003381221555" stroke="#4dd2ff" stroke-linecap="round" stroke-linejoin="round" stroke-width="0.5"><title>2024-03-26 3.7km</title><desc>1711445960000</desc></polyline><polyline fill="none" points="55.26458935905248,260.64003251865506 62.411743520759046,268.19999999995343 70.94862210098654,263.2320235995576 72.5368785802275,241.41602604743093 68.16917326115072,235.80000000004657 57.84550614003092,239.47201826726086 55.0660573001951,259.99203438474797 56.852845839224756,264.9600163602736 63.00733970012516,267.98400120367296 70.55155797954649,263.6640218861867 72.9339426998049,242.4960298044607 68.96330149937421,236.01600120356306 58.441102320328355,240.33602188690566 55.860185540281236,252.86404531635344 58.24257025960833,264.9600163602736 63.404403819702566,267.3360047186725 68.16917326115072,265.39201438915916 72.33834651950747,243.7920337796677 68.96330149937421,237.5280091778841 63.20587175991386,236.8800058569759 59.23523056041449,240.12002100632526 56.65431377943605,259.12803664733656 61.02201909944415,266.6880080876872 69.16183356009424,264.096020109253 72.33834651950747,242.92803119379096 67.77210913971066,236.66400471818633 59.23523056041449,240.33602188690566 56.65431377943605,259.5600355484057 61.22055116016418,266.6880080876872 68.96330149937421,264.096020109253 70.94862210098654,239.04001636011526 64.1985320597887,236.23200239124708 58.639634379185736,241.8480275988113 56.852845839224756,262.1520275983494 60.42642291914672,266.25601025274955 65.98532059974968,266.4720091780182" stroke="#4dd2ff" stroke-linecap="round" stroke-linejoin="round" stroke-width="0.5"><title>2024-03-25 2.1km</title><desc>1711359274000</desc></polyline><polyline fill="none" points="104.1042667068541,265.0846318146214 107.92218922358006,243.90003544813953 103.53157832846045,237.25385425635614 93.60497978422791,241.6154124578461 91.50512239988893,259.2692685164511 97.23200617637485,266.9538531457074 105.63143571279943,263.63079213211313 107.92218922358006,243.90003544813953 102.3862015735358,237.46154765947722 93.60497978422791,241.8231055350043 91.50512239988893,260.51541882008314 97.61379842739552,266.9538531457074 105.82233183924109,263.00771774933673 107.92218922358006,243.06926366896369 102.19530544802547,237.46154765947722 93.60497978422791,241.6154124578461 91.69601852633059,260.723110483028 93.41408365871757,265.0846318146214 98.75917518232018,267.1615443266928 106.01322796475142,262.17695168801583 107.92218922358006,244.31542124412954 102.95888995099813,237.46154765947722 93.60497978422791,240.78463999531232 91.69601852633059,260.723110483028 97.61379842739552,267.3692354927771 105.44053958822042,263.42310068709776 107.92218922358006,243.90003544813953 102.57709769997746,237.04616083810106 93.79587590973824,240.5769468410872 91.50512239988893,261.13849376211874 93.41408365871757,265.2923231362365 99.14096743427217,267.57692664302886 106.20412409026176,261.9692601347342 107.73129309806973,242.86157068540342 101.81351319607347,237.04616083810106 96.46842167247087,238.08462777547538 93.22318753227592,242.23849164135754 91.88691465184093,262.17695168801583 99.33186356071383,267.1615443266928 106.39502021670341,261.3461853787303 107.73129309806973,243.06926366896369 102.19530544802547,237.04616083810106 93.41408365871757,242.23849164135754 91.69601852633059,261.5538769790437 98.37738293129951,266.9538531457074 105.63143571279943,263.00771774933673 107.73129309806973,242.86157068540342 101.04992869310081,237.04616083810106 93.22318753227592,242.03079859609716 91.88691465184093,261.76156856445596 98.37738293129951,267.3692354927771 106.01322796475142,263.00771774933673 107.92218922358006,243.06926366896369 104.67695508431643,237.66924104723148 93.9867720361799,240.5769468410872 91.69601852633059,259.4769602722954 96.27752554602921,266.9538531457074 105.44053958822042,263.8384835617617 107.92218922358006,243.48464958975092 102.00440932251513,237.25385425635614 93.60497978422791,241.20002625789493 91.69601852633059,260.93080212990753 97.0411100499332,266.7461619488895 105.24964346177876,264.4615577580407 108.11308535002172,244.10772835393436 104.29516283329576,237.66924104723148 98.37738293129951,237.04616083810106 93.79587590973824,241.20002625789493 90.35974564403296,259.2692685164511 91.88691465184093,264.87694047857076 97.23200617637485,268.19999999995343 102.19530544802547,267.99230889673345 106.77681246865541,263.63079213211313 109.64025435689837,244.52311411872506 104.4860589588061,236.2153870081529 98.18648680485785,235.80000000004657 92.65049915481359,240.3692536712624 90.35974564403296,260.3077271413058 96.27752554602921,267.57692664302886 106.20412409026176,265.91539700631984" stroke="#4dd2ff" stroke-linecap="round" stroke-linejoin="round" stroke-width="0.5"><title>2024-03-24 4.9km</title><desc>1711273464000</desc></polyline><polyline fill="none" points="126.86509233899415,259.25525420345366 128.5093757174909,265.01964938873425 133.07682954892516,268.0012281984091 138.3750759921968,267.0073689671699 142.75983166974038,262.63438393198885 144.58681320212781,241.76321984967217 143.12522797565907,238.18528954591602 137.6442833794281,236.39632258727215 131.61524432245642,237.7877414370887 128.32667756453156,241.9619936144445 127.23048864584416,261.83929497073404 130.70175355672836,266.4110532498453 136.91349076665938,267.80245638173074 143.4906242825091,260.44788871565834 143.67332243546844,239.1791595579125 137.09618891961873,236.39632258727215 130.33635725080967,238.5828375958372 127.59588495176286,243.35340954945423 126.49969603214413,260.84543343423866 132.34603693615645,268.19999999995343 138.74047229904681,267.0073689671699 142.5771335158497,262.83315613493323 145.68300212081522,244.54605119908229 143.30792612954974,238.18528954591602 138.19237783830613,236.19754840643145 130.51905540376902,238.5828375958372 127.77858310565352,242.9558622133918 127.59588495176286,264.4233332253061 132.89413139596581,268.19999999995343 138.19237783830613,267.80245638173074 143.67332243546844,260.44788871565834 143.67332243546844,239.1791595579125 134.9038110813126,235.80000000004657 127.96128125768155,242.7570885233581 126.6823941860348,261.6405226928182 130.153659096919,266.8085970757529 136.00000000093132,267.60368455015123 143.4906242825091,260.6466610827483 144.2214168952778,240.1730291985441 141.29824644420296,236.7938709044829 135.08650923427194,236.19754840643145 127.77858310565352,243.15463588875718 127.04779049195349,263.23070049704984 136.91349076665938,267.4049127041362 143.30792612954974,260.6466610827483 143.30792612954974,239.1791595579125 136.36539630685002,235.99877421092242 128.32667756453156,240.57057695067488 126.31699787918478,262.03806723305024 129.97096094302833,266.6098251703661 136.91349076665938,267.80245638173074 143.30792612954974,261.0442057712935 142.94252982269973,237.98651549918577 135.81730184704065,235.99877421092242 130.70175355672836,238.5828375958372 126.6823941860348,253.49084651237354 129.05747017730027,265.6159654180519 140.38475567754358,266.21228131395765 144.76951135508716,243.9497304414399 140.7501519843936,236.99264504062012 130.51905540376902,238.5828375958372 126.6823941860348,258.2613917000126 127.96128125768155,265.01964938873425 132.71143324207515,267.4049127041362 141.846340903081,264.02578904200345 144.9522095080465,244.34727762825787 142.39443536289036,237.98651549918577 130.33635725080967,237.98651549918577 127.23048864584416,249.3166124469135 128.5093757174909,265.01964938873425 133.99032031558454,267.80245638173074 140.56745383050293,265.8147373984102 143.4906242825091,261.2429780939128 144.9522095080465,244.54605119908229 142.21173720993102,237.98651549918577 133.2595277018845,236.59509675344452 127.77858310565352,243.15463588875718 126.86509233899415,262.83315613493323 131.98064062930644,267.4049127041362 138.19237783830613,266.6098251703661 142.39443536289036,256.07489288575016 141.48094459623098,239.1791595579125 135.81730184704065,237.39019326888956 129.97096094302833,240.1730291985441 126.49969603214413,252.69575481512584" stroke="#4dd2ff" stroke-linecap="round" stroke-linejoin="round" stroke-width="0.5"><title>2024-03-22 5.0km</title><desc>1711100044000</desc></polyline><polyline fill="none" points="162.13543531671166,247.95004544593394 165.48566483240575,265.16251647425815 171.069380691275,267.9975012044888 176.65309654921293,266.37751029315405 180.37557378783822,262.12502953922376 181.67844082135707,252.81004835409112 179.25883061625063,239.04001745092683 171.62775227613747,236.40750356740318 166.2301602801308,243.29253447055817 165.48566483240575,262.7325271987356 169.9526375187561,267.3900047263596 175.35022951476276,267.3900047263596 179.81720220204443,261.11253313720226 179.63107834011316,241.67252877471037 173.48899089638144,237.21750811184756 166.41628414206207,243.29253447055817 165.48566483240575,262.12502953922376 168.8358943471685,266.5800092101563 173.86123861931264,267.5925035676919 179.25883061625063,260.3025357427541 180.0033260639757,241.06502638873644 174.79185792896897,236.6100047265645 166.41628414206207,241.47002799483016 164.74116938374937,260.9100338113494 172.37224772479385,266.98500699875876 177.21146813500673,265.97251241421327 180.56169764976948,260.3025357427541 180.74782151170075,239.64752029138617 178.51433516759425,236.6100047265645 171.44162841513753,235.79999999981374 165.11341710854322,241.87502953992225 163.99667393695563,261.9225302892737 172.37224772479385,268.19999999995343 180.0033260639757,260.70753447012976 181.86456468328834,242.88753313780762 179.07270675431937,236.00250120437704 167.53302731364965,237.6225102932658 163.0660546272993,258.0750416580122" stroke="#4dd2ff" stroke-linecap="round" stroke-linejoin="round" stroke-width="0.5"><title>2024-03-21 2.2km</title><desc>1711013104000</desc></polyline></svg>