<?xml version="1.0" encoding="utf-8" ?>
<svg baseProfile="full" height="300mm" version="1.1" viewBox="0,0,200,300" width="200mm" xmlns="http://www.w3.org/2000/svg" xmlns:ev="http://www.w3.org/2001/xml-events" xmlns:xlink="http://www.w3.org/1999/xlink"><defs /><rect fill="#222222" height="300" width="200" x="0" y="0" /><text fill="#FFFFFF" style="font-size:12px; font-family:Arial; font-weight:bold;" x="10" y="20">Over 2km Runs</text><text fill="#FFFFFF" style="font-size:4px; font-family:Arial" x="10" y="280">ATHLETE</text><text fill="#FFFFFF" style="font-size:9px; font-family:Arial" x="10" y="290">作怪</text><text fill="#FFFFFF" style="font-size:4px; font-family:Arial" x="120" y="280">STATISTICS</text><text fill="#FFFFFF" style="font-size:3px; font-family:Arial" x="120" y="285">Number: 14</text><text fill="#FFFFFF" style="font-size:3px; font-family:Arial" x="120" y="290">Weekly: 3.5</text><text fill="#FFFFFF" style="font-size:3px; font-family:Arial" x="141" y="285">Total: 68.0 km</text><text fill="#FFFFFF" style="font-size:3px; font-family:Arial" x="141" y="290">Avg: 4.9 km</text><text fill="#FFFFFF" style="font-size:3px; font-family:Arial" x="167" y="285">Min: 2.0 km</text><text fill="#FFFFFF" style="font-size:3px; font-family:Arial" x="167" y="290">Max: 11.8 km</text><polyline fill="none" points="21.481098933145404,50.56057136785239 23.50435567088425,70.37200150755234 29.57412588596344,74.22421164321713 38.931688299402595,73.67389615648426 42.97820177488029,63.49304480222054 43.73692305199802,39.00385450851172 32.60901099257171,34.05096473917365 24.263076947070658,42.8560974963475 22.745634393766522,66.51978733739816 27.550869148224592,72.02294920291752 34.88517482299358,72.84842277271673 42.4723875913769,66.24462902825326 43.98983014468104,39.00385450851172 32.861918084323406,34.05096473917365 24.263076947070658,44.23189758579247 23.251448578201234,66.51978733739816 33.11482517700642,73.39873838284984 42.21948049776256,67.07010389468633 44.748551421798766,41.755457054357976 35.643896100111306,33.775804000208154 25.5276124086231,40.10449577332474 23.50435567088425,65.96947069768794 32.35610390082002,73.12358058756217 42.21948049776256,66.51978733739816 44.748551421798766,41.480296892579645 35.896803191863,33.50064324145205 25.5276124086231,40.65481628337875 23.50435567088425,66.51978733739816 32.861918084323406,73.39873838284984 42.21948049776256,67.34526214236394 44.748551421798766,40.65481628337875 34.379360638558865,33.50064324145205 25.274705316871405,41.205136709613726 24.010169855318964,68.17073676176369 36.14971028454602,73.12358058756217 42.97820177488029,64.86883717216551 43.484015960246325,35.70192873594351 30.585754254832864,32.95032166177407 23.50435567088425,42.305777315981686 21.986913117580116,68.17073676176369 28.309590423479676,74.49936935584992 34.88517482299358,75.04968471918255 44.49564432911575,66.79494562628679 45.00145851261914,37.077731501543894 33.11482517700642,32.4000000001397 23.251448578201234,40.65481628337875 21.481098933145404,68.17073676176369 26.28633368574083,74.77452704776078 34.63226773124188,75.32484237011522 44.748551421798766,65.69431234733202 45.76017979066819,38.7286941409111 31.850289716385305,33.225482462206855 22.49272730294615,42.03061719541438 21.481098933145404,67.89557857532054 31.344475531950593,75.60000000009313 43.484015960246325,68.72105307108723 47.02471525128931,42.58093741675839 40.95494503714144,33.225482462206855 28.309590423479676,34.3261254564859 22.49272730294615,43.40641759405844 23.50435567088425,68.44589492678642 35.39098900835961,73.94905391032808 42.725294683128595,66.79494562628679 45.00145851261914,42.03061719541438 40.44913085363805,35.15160748618655 33.87354645412415,33.225482462206855 24.515984040684998,41.205136709613726 23.75726276356727,66.24462902825326 32.60901099257171,73.12358058756217 42.725294683128595,66.79494562628679 44.748551421798766,41.480296892579645 35.643896100111306,33.50064324145205 25.021798224188387,41.205136709613726 23.75726276356727,66.51978733739816 31.344475531950593,73.67389615648426 39.43750248383731,72.02294920291752 43.23110886756331,66.51978733739816 45.254365605302155,41.480296892579645 36.14971028454602,33.50064324145205 23.50435567088425,41.755457054357976 20.975284748710692,64.04336181166582" stroke="#4dd2ff" stroke-linecap="round" stroke-linejoin="round" stroke-width="0.5"><title>2024-04-12 5.1km</title><desc>1712913892000</desc></polyline><polyline fill="none" points="78.80000000074506,42.685074605979025 78.39999999990687,48.77779287751764 80.96000000042841,51.65006328281015 84.96000000042841,49.82225566345733 86.00000000046566,41.814683676930144 85.28000000026077,39.98686060658656 83.04000000050291,38.94238899135962 79.76000000024214,40.770213702577166 78.8800000003539,48.864831478567794 80.96000000042841,51.38894808443729 85.04000000003725,49.64817859744653 85.9199999999255,41.814683676930144 83.43999999994412,39.029428328503855 79.92000000039116,40.59613528242335 78.96000000042841,48.77779287751764 81.6000000005588,51.56302488979418 84.8800000003539,50.083371213288046 86.00000000046566,42.16284012666438 83.43999999994412,38.94238899135962 79.92000000039116,40.59613528242335 78.96000000042841,48.69075426959898 80.8800000003539,51.38894808443729 84.8800000003539,50.083371213288046 85.84000000031665,41.64060541300569 83.28000000026077,39.11646765912883 79.92000000039116,40.50909606239293 78.96000000042841,48.342599773430265 80.64000000013039,51.214871252770536 83.04000000050291,51.38894808443729 85.04000000003725,49.82225566345733 85.9199999999255,42.249879222828895 85.12000000057742,39.89982134103775 80.96000000042841,39.290546300588176 79.52000000048429,41.46652712312061 78.39999999990687,49.90929418662563 86.8800000003539,53.04267668456305 89.60000000009313,52.17229350365233 92.96000000042841,48.864831478567794 97.84000000031665,50.431525188847445 98.95999999996275,52.69452349038329 98.72000000020489,58.961265047313645 103.28000000026077,65.05389809201006 111.12000000011176,67.92612831993029 119.20000000018626,69.05761100864038 121.60000000009313,67.49094237736426 121.35999999986961,52.86860010039527 120.32000000029802,53.30379151168745 120.0,56.17605074425228" stroke="#4dd2ff" stroke-linecap="round" stroke-linejoin="round" stroke-width="0.5"><title>2024-04-11 3.0km</title><desc>1712828151000</desc></polyline><polyline fill="none" points="155.62510306946933,41.59746132558212 154.6004218896851,66.96004007291049 158.44297630991787,73.37033484014682 165.615744558163,75.32129192864522 177.3995781103149,67.79616610263474 179.19277017191052,40.48261873843148 168.43361779861152,32.4000000001397 157.9306357195601,37.69551080930978 154.85659218486398,66.40262261615135 162.79787131771445,74.76387572218664 172.02000192273408,73.64904305851087 176.88723752088845,68.63229194516316 179.44894046708941,42.43359304778278 170.9953207457438,33.236133786151186 163.05404161196202,33.79355620639399 157.67446542531252,39.367775816936046 154.08808130118996,66.1239138552919 164.5910633802414,75.60000000009313 176.88723752088845,69.7471261091996 180.21745135076344,46.33553860220127 179.19277017191052,38.25293256225996 174.32553457468748,34.072267384501174 164.5910633802414,32.678711283253506 158.6991466032341,35.744534018682316 151.78254864923656,46.33553860220127 154.85659218486398,66.68133135442622 159.9799980763346,74.2064594316762 169.71446927078068,75.04258383531123 176.63106722664088,69.18970906944014 178.93659987766296,44.38456633570604 172.53234251216054,33.236133786151186 164.84723367448896,32.4000000001397 157.9306357195601,36.58066705428064 154.85659218486398,66.40262261615135 161.77319013886154,74.76387572218664 170.9953207457438,74.4851675874088 177.65574840456247,66.68133135442622 179.96128105651587,43.54843505169265 176.1187266362831,36.3019560626708 168.6897880937904,32.678711283253506 157.67446542531252,37.4167999017518 154.6004218896851,65.84520507417619 162.02936043404043,74.4851675874088 170.9953207457438,74.2064594316762 177.91191869881004,66.96004007291049 179.70511076133698,43.54843505169265 172.7885128064081,33.236133786151186 159.72382778208703,34.350978542584926 155.88127336278558,41.87617192044854 155.62510306946933,69.46841759979725 168.17744750436395,75.04258383531123 176.88723752088845,66.96004007291049 177.91191869881004,41.87617192044854 174.32553457468748,35.465822965605184 167.15276632551104,33.79355620639399 157.9306357195601,41.040040073450655 155.88127336278558,66.1239138552919 166.384255441837,74.4851675874088 176.37489693053067,67.79616610263474 178.16808899398893,43.8271455001086 175.60638604685664,37.138088973006234 168.6897880937904,33.79355620639399 157.9306357195601,40.76132941595279 154.6004218896851,66.40262261615135 164.5910633802414,75.60000000009313 171.50766133423895,75.04258383531123 174.58170486986637,69.7471261091996 177.91191869881004,43.26972458208911 169.71446927078068,34.350978542584926 163.3102119062096,34.908400795422494 158.18680601380765,41.040040073450655 155.88127336278558,65.28778745047748 164.84723367448896,73.92775125568733 175.60638604685664,69.18970906944014 177.91191869881004,41.87617192044854 169.20212868228555,34.072267384501174 158.44297630991787,41.040040073450655 156.13744365796447,65.84520507417619 164.5910633802414,74.2064594316762 175.86255634203553,67.23874877137132 177.91191869881004,41.87617192044854 168.17744750436395,34.350978542584926 157.9306357195601,41.318750710226595 155.88127336278558,66.1239138552919 166.6404257370159,74.4851675874088 175.60638604685664,68.35358335194178 177.65574840456247,41.040040073450655 168.94595838803798,34.350978542584926 158.18680601380765,39.64648657827638 155.11276247911155,65.84520507417619 163.56638220138848,74.2064594316762 175.60638604685664,69.18970906944014 178.93659987766296,43.26972458208911 169.20212868228555,34.350978542584926 162.54170102253556,35.465822965605184 155.88127336278558,42.991014091763645 153.83191100601107,65.28778745047748" stroke="#4dd2ff" stroke-linecap="round" stroke-linejoin="round" stroke-width="0.5"><title>2024-04-09 5.6km</title><desc>1712653834000</desc></polyline><polyline fill="none" points="22.6374737219885,88.27928359643556 22.138022016733885,113.81891292380169 26.383361506275833,121.42642737086862 32.3767819609493,122.513213847531 39.36910582520068,121.15473070018925 44.36362287122756,114.63400451955386 46.6111555416137,87.73588527622633 42.36581605300307,82.03019800898619 34.62431463226676,80.4000000001397 24.38555468712002,88.5509827255737 22.6374737219885,114.90570167754777 33.8751370748505,123.05660696444102 44.36362287122756,114.63400451955386 46.111703837290406,89.09438092424534 40.118283381685615,81.75849839183502 34.874040484428406,81.21509909583256 24.38555468712002,89.09438092424534 21.638570312410593,113.27551842504181 26.383361506275833,120.88303401018493 33.62541122175753,123.05660696444102 44.61334872338921,114.3623073415365 46.860881393775344,90.18117707595229 37.37129900697619,80.67169971903786 27.881716619245708,82.5735971829854 23.63637712970376,88.00758444634266 22.138022016733885,115.4490959327668 32.87623366527259,122.78491041623056 44.11389701906592,115.4490959327668 46.6111555416137,88.00758444634266 43.11499360948801,82.8452967389021 35.3734921887517,80.67169971903786 23.88610298279673,88.5509827255737 22.138022016733885,115.99249010556377 32.87623366527259,123.60000000009313 43.86417116690427,115.99249010556377 46.6111555416137,87.46418608631939 35.12376633565873,80.94339941814542 24.38555468712002,87.19248687569052 21.388844459317625,114.90570167754777 29.87952343840152,123.60000000009313 36.62212144955993,122.78491041623056 43.364719461649656,115.99249010556377 46.36142968945205,88.00758444634266 43.11499360948801,82.8452967389021 34.62431463226676,80.67169971903786 23.63637712970376,88.82268183492124 21.88829616550356,115.99249010556377 26.133635654114187,121.69812401989475 32.87623366527259,123.32830349262804 43.86417116690427,116.26418716250919 46.860881393775344,88.82268183492124 43.6144453138113,83.11699627432972 35.12376633565873,80.94339941814542 23.88610298279673,87.19248687569052 21.1391186080873,113.27551842504181 29.380071733146906,122.78491041623056 37.12157315388322,122.78491041623056 43.364719461649656,117.35097518446855 47.11060724593699,93.98496104683727 42.116090199910104,81.75849839183502 27.132539061829448,82.8452967389021 23.13692542631179,89.63777904049493 22.38774786889553,116.80758121353574 28.131442472338676,122.513213847531 35.12376633565873,123.05660696444102 44.86307457461953,113.5472156854812 46.6111555416137,89.63777904049493 42.61554190516472,83.11699627432972 32.87623366527259,80.67169971903786 23.63637712970376,88.00758444634266 21.388844459317625,114.90570167754777 32.62650781311095,123.60000000009313 44.11389701906592,115.99249010556377 46.6111555416137,88.5509827255737 43.86417116690427,83.66039528604597 35.3734921887517,80.4000000001397 27.881716619245708,83.11699627432972 23.13692542631179,90.18117707595229 23.386651278473437,114.63400451955386 33.12595951836556,121.42642737086862 42.61554190516472,115.17739881528541 44.36362287122756,88.82268183492124 36.12266974616796,82.03019800898619 22.887199573218822,90.99627397651784 20.889392754994333,111.6453344412148" stroke="#4dd2ff" stroke-linecap="round" stroke-linejoin="round" stroke-width="0.5"><title>2024-04-08 5.0km</title><desc>1712568268000</desc></polyline><polyline fill="none" points="87.69831882789731,96.3019017544575 90.37789294403046,116.70923776412383 96.95502941310406,120.41964986454695 104.99375176150352,118.29941485449672 110.35289999470115,111.40864230901934 109.62210705503821,84.11045012692921 98.41661529429257,80.4000000001397 89.40350235626101,89.9411496182438 88.91630706191063,116.4442081800662 95.00624823663384,121.21473766560666 105.4809470558539,119.88959123124368 109.86570470128208,112.20373213314451 110.1093023493886,84.37548213056289 96.46783411875367,81.4601290046703 88.91630706191063,93.12152711348608 88.67270941566676,115.6491193077527 95.7370411772281,120.94970841845497 104.99375176150352,119.88959123124368 110.35289999470115,112.20373213314451 109.86570470128208,83.84541810397059 96.95502941310406,81.4601290046703 89.64710000250489,89.14605479803868 87.9419164750725,114.32397079118527 98.66021294053644,122.00982528901659 109.62210705503821,113.79391124541871 111.32729058340192,88.88102315203287 107.18613058514893,82.255225549452 100.60899411700666,80.93006454245187 93.78826000075787,82.7852898137644 90.13429529685527,88.61599148530513 88.67270941566676,115.11905996012501 93.05746706016362,120.41964986454695 102.55777529254556,120.94970841845497 109.86570470128208,113.79391124541871 110.59649764187634,86.23070559790358 102.31417764537036,80.66503228084184 90.37789294403046,87.82089636777528 88.18551412131637,113.79391124541871 92.32667412050068,119.88959123124368 98.41661529429257,121.21473766560666 109.37850940786302,115.38408964429982 111.8144858777523,89.9411496182438 108.40411881916225,83.58038606145419 100.12179882265627,81.4601290046703 92.57027176674455,85.17057802132331 89.15990470908582,91.7963701710105 88.67270941566676,117.76935590407811 92.57027176674455,122.00982528901659 101.09618941135705,122.27485445723869 109.37850940786302,113.52888144319877 111.8144858777523,88.35095979925245 100.85259176325053,81.19509678310715 90.37789294403046,88.085928093642 87.4547211797908,114.85403025709093 95.98063882440329,123.33497093105689 109.37850940786302,114.05894102808088 111.57088822964579,88.88102315203287 106.94253293704242,81.99019338772632 100.60899411700666,80.93006454245187 89.8906976506114,88.61599148530513 88.42911176849157,114.85403025709093 99.63460352923721,121.47976689320058 109.37850940786302,112.99882177845575 111.32729058340192,87.02580107259564 100.85259176325053,81.4601290046703 89.8906976506114,89.14605479803868 88.18551412131637,113.79391124541871 93.05746706016362,119.88959123124368 100.36539646983147,121.47976689320058 109.62210705503821,112.99882177845575 111.32729058340192,87.02580107259564 106.94253293704242,82.255225549452 97.68582235369831,81.4601290046703 88.91630706191063,92.59146439633332 88.18551412131637,117.50432639848441 92.32667412050068,122.27485445723869 102.31417764537036,121.74479610100389 109.86570470128208,112.20373213314451 110.1093023493886,84.90554607729428 99.14740823581815,80.4000000001397 89.64710000250489,89.14605479803868 88.18551412131637,114.05894102808088 95.24984588287771,120.94970841845497 102.31417764537036,120.68467915104702 110.1093023493886,111.93870221241377 111.32729058340192,87.55586462235078 107.18613058514893,82.255225549452 98.90381058864295,81.19509678310715 89.40350235626101,89.9411496182438 89.15990470908582,115.91414895141497 95.98063882440329,122.00982528901659 104.99375176150352,120.68467915104702 110.84009528998286,105.31294773286209 108.40411881916225,85.17057802132331 94.51905294228345,83.3153539984487 87.9419164750725,98.15711897634901 88.91630706191063,119.35953251784667 94.51905294228345,123.0699418426957 103.7757635274902,121.21473766560666 110.1093023493886,111.67367227049544 112.05808352399617,90.73624425986782 109.62210705503821,84.11045012692921 101.09618941135705,81.4601290046703 93.78826000075787,83.58038606145419 87.9419164750725,97.89208800438792 88.91630706191063,119.35953251784667 94.27545529510826,122.80491273361258 104.01936117466539,120.94970841845497 110.1093023493886,111.67367227049544 109.86570470128208,84.90554607729428 97.19862705934793,81.19509678310715 89.15990470908582,92.06140159908682 89.64710000250489,116.70923776412383 97.19862705934793,122.80491273361258 105.7245447030291,122.27485445723869 110.35289999470115,115.91414895141497 110.59649764187634,85.96567373303697 96.22423647157848,81.19509678310715 88.67270941566676,91.26630725478753 87.4547211797908,116.1791785757523 91.35228353273124,122.00982528901659 99.87820117548108,123.33497093105689 110.1093023493886,113.2638516202569 111.08369293622673,86.76076926710084 97.44222470652312,81.4601290046703 88.42911176849157,92.3264330078382 87.69831882789731,117.76935590407811 92.32667412050068,122.53988360543735 100.12179882265627,123.0699418426957 107.4297282313928,119.35953251784667 110.84009528998286,112.46876203478314 111.8144858777523,86.76076926710084 98.41661529429257,80.93006454245187 88.67270941566676,90.20618118508719 87.69831882789731,116.70923776412383 92.08307647332549,121.74479610100389 101.09618941135705,123.60000000009313 109.86570470128208,116.4442081800662 111.8144858777523,87.82089636777528 108.40411881916225,83.0503219156526 99.14740823581815,80.93006454245187 89.40350235626101,88.61599148530513 86.72392824012786,114.32397079118527 89.8906976506114,120.15462055732496 96.95502941310406,123.0699418426957 109.37850940786302,116.4442081800662 112.05808352399617,89.9411496182438 101.33978705760092,80.93006454245187 90.37789294403046,87.82089636777528 87.69831882789731,113.79391124541871 99.3910058811307,123.0699418426957 110.35289999470115,116.70923776412383 112.78887646552175,91.26630725478753 108.16052117291838,83.84541810397059 101.33978705760092,81.4601290046703 89.8906976506114,88.61599148530513 87.4547211797908,114.58900053426623 91.10868588462472,120.41964986454695 99.3910058811307,123.0699418426957 110.59649764187634,115.11905996012501 112.30168117117137,91.26630725478753 109.13491176068783,84.90554607729428 100.85259176325053,80.93006454245187 89.64710000250489,88.88102315203287 87.9419164750725,115.38408964429982 91.8394788261503,120.68467915104702 99.3910058811307,122.80491273361258 109.62210705503821,116.1791785757523 111.8144858777523,90.20618118508719 100.60899411700666,81.4601290046703 89.64710000250489,89.9411496182438 87.69831882789731,115.6491193077527 99.87820117548108,122.27485445723869 110.1093023493886,114.58900053426623 112.30168117117137,89.41108642448671 99.87820117548108,81.19509678310715 89.40350235626101,89.9411496182438 87.9419164750725,114.58900053426623 99.63460352923721,122.27485445723869 109.86570470128208,115.11905996012501 111.57088822964579,89.14605479803868 106.45533764362335,82.52025769208558 99.3910058811307,81.4601290046703 89.8906976506114,90.47121273190714 87.4547211797908,114.85403025709093 98.17301764711738,123.0699418426957 109.86570470128208,117.2392968737986 113.27607175894082,91.53133872314356 108.89131411351264,83.3153539984487 95.00624823663384,82.52025769208558 89.40350235626101,90.73624425986782 87.9419164750725,111.40864230901934" stroke="#4dd2ff" stroke-linecap="round" stroke-linejoin="round" stroke-width="0.5"><title>2024-04-06 11.8km</title><desc>1712394949000</desc></polyline><polyline fill="none" points="155.68664854764938,118.27015678375028 165.22649864014238,123.60000000009313 174.25068116094917,116.02601000503637 177.34468659758568,91.6208270676434 174.25068116094917,83.48573079076596 164.71083106845617,81.24156319489703 158.52282019611448,85.44937633606605 154.9131471887231,110.69615602353588 161.61682563181967,121.35585641185753 174.25068116094917,116.8675652043894 177.60252038296312,90.21822552080266 172.70367844309658,83.20520991459489 164.19516349490732,82.36364716105163 158.26498640980572,86.85197966662236 155.17098097503185,112.94030599179678 161.87465941905975,121.6363744335249 173.47717980202287,117.98963850946166 176.8290190231055,90.77926620212384 171.15667572524399,82.64416810055263 162.90599456429482,82.64416810055263 158.00715262442827,87.69354141363874 155.17098097503185,112.0987499107141 160.58549048751593,121.0753383685369 173.73501358833164,117.70912021491677 177.0868528103456,90.77926620212384 169.6096730073914,82.08312620106153 157.7493188381195,87.13250026991591 154.39747961610556,114.62341758725233 163.93732970952988,122.19741041515954 174.50851494725794,115.74549156310968 177.34468659758568,91.05978651111946 173.99284737370908,84.32729329308495 167.54700271692127,81.52208421821706 156.9758174782619,87.97406195336953 154.39747961610556,112.65978731913492 162.90599456429482,121.91689243493602 174.7663487335667,115.4649731006939 177.0868528103456,90.49874587194063 167.28916893154383,81.52208421821706 157.49148505274206,87.69354141363874 155.17098097503185,113.50134327355772 163.93732970952988,122.19741041515954 174.7663487335667,115.4649731006939 176.8290190231055,88.81562344823033 166.51566757261753,81.8026052203495 157.49148505274206,87.97406195336953 155.42881476134062,114.34289903962053 165.48433242738247,121.91689243493602 175.28201630618423,114.90393611206673 177.34468659758568,89.65718475473113 168.0626702895388,81.8026052203495 156.9758174782619,88.81562344823033 155.17098097503185,114.34289903962053 164.45299728121608,122.19741041515954 175.02418251987547,115.74549156310968 177.34468659758568,89.93770514801145 167.03133514523506,81.8026052203495 156.9758174782619,88.81562344823033 154.9131471887231,114.34289903962053 165.48433242738247,122.19741041515954 174.7663487335667,115.74549156310968 177.0868528103456,89.93770514801145 168.32050407584757,81.52208421821706 157.23365126550198,87.69354141363874 155.17098097503185,113.22082464280538 163.42166213691235,121.91689243493602 170.89884193893522,120.51430221949704 175.02418251987547,115.4649731006939 177.34468659758568,89.09614390484057 168.0626702895388,81.52208421821706 157.7493188381195,87.41302085248753 154.9131471887231,113.22082464280538 162.64816077798605,121.91689243493602 174.50851494725794,116.58704682579264 177.0868528103456,90.21822552080266 168.8361716484651,80.96104215155356 158.00715262442827,86.85197966662236 154.9131471887231,113.50134327355772 163.6794959222898,121.91689243493602 171.67234329786152,120.23378411354497 175.539850092493,114.62341758725233 176.57118523772806,88.53510297113098 166.25783378630877,81.24156319489703 156.9758174782619,88.25458247261122 155.17098097503185,115.18445461639203 164.71083106845617,122.19741041515954 175.02418251987547,114.90393611206673 177.0868528103456,89.93770514801145 167.28916893154383,81.52208421821706 156.71798369288445,89.3766643407289 155.17098097503185,113.50134327355772 164.45299728121608,121.91689243493602 174.7663487335667,116.02601000503637 177.0868528103456,90.21822552080266 166.51566757261753,81.52208421821706 157.23365126550198,88.53510297113098 155.17098097503185,114.62341758725233 161.35899184644222,121.6363744335249 174.25068116094917,116.8675652043894 177.60252038296312,90.49874587194063 167.28916893154383,81.24156319489703 157.7493188381195,87.41302085248753 155.68664854764938,114.0623804719653 165.48433242738247,122.19741041515954 175.02418251987547,114.90393611206673 177.34468659758568,90.21822552080266 172.4458446558565,82.92468901816756 166.25783378630877,81.24156319489703 157.49148505274206,88.53510297113098 155.17098097503185,113.7818618840538 165.48433242738247,122.19741041515954 174.7663487335667,116.8675652043894 177.0868528103456,89.3766643407289 167.28916893154383,80.68052108609118 158.26498640980572,85.72989704390056 155.17098097503185,113.7818618840538 158.78065398335457,119.95326598663814 165.74216621369123,122.19741041515954 175.539850092493,114.34289903962053 177.0868528103456,89.3766643407289 172.18801087141037,82.36364716105163 165.48433242738247,80.96104215155356 157.49148505274206,87.69354141363874 155.42881476134062,114.62341758725233 166.51566757261753,122.75844631250948 175.02418251987547,116.02601000503637 176.8290190231055,89.3766643407289 166.77350135799497,80.4000000001397 157.23365126550198,87.69354141363874 154.9131471887231,112.94030599179678 162.90599456429482,121.91689243493602 174.7663487335667,116.3065284260083 176.8290190231055,89.65718475473113 168.0626702895388,81.24156319489703 161.35899184644222,82.08312620106153 157.23365126550198,88.81562344823033 155.17098097503185,113.7818618840538 164.96866485569626,122.19741041515954 175.28201630618423,115.4649731006939 176.8290190231055,90.21822552080266 167.54700271692127,80.96104215155356 157.23365126550198,88.53510297113098 155.42881476134062,114.90393611206673 164.71083106845617,122.75844631250948 175.02418251987547,115.4649731006939 176.8290190231055,88.53510297113098 172.70367844309658,82.92468901816756 164.71083106845617,81.24156319489703 157.23365126550198,88.53510297113098 155.68664854764938,114.90393611206673 166.25783378630877,122.19741041515954 175.28201630618423,114.0623804719653 177.0868528103456,88.81562344823033 165.74216621369123,80.96104215155356 158.52282019611448,86.01041773078032 154.65531340241432,95.54810860822909 154.39747961610556,117.14808356179856" stroke="#4dd2ff" stroke-linecap="round" stroke-linejoin="round" stroke-width="0.5"><title>2024-04-03 9.7km</title><desc>1712137473000</desc></polyline><polyline fill="none" points="18.55862275324762,154.65888246102259 25.5656342767179,153.24711923324503 22.970444824546576,160.8706343867816 28.679861620999873,169.62354020541534 41.915327832102776,169.62354020541534 49.44137724675238,141.95299440529197 45.289074121043086,130.09412696235813 35.427354198880494,128.4000000001397 28.42034267447889,132.35296172834933 25.306115332059562,160.58828224870376 28.939380566589534,170.18824310950004 38.022543652914464,170.18824310950004 44.77003622986376,165.38826573104598 47.624744629487395,139.41181166050956 41.396289941854775,130.94119015848264 28.679861620999873,136.02356534125283 25.306115332059562,162.84709876566194 33.35120263695717,170.7529459297657 44.77003622986376,164.8235621091444 47.10570673830807,139.12945791706443 39.83917627017945,130.09412696235813 28.42034267447889,136.02356534125283 25.5656342767179,163.6941546103917 34.38927841838449,171.31764866481535 44.77003622986376,165.1059139308054 47.624744629487395,138.84710415219888 40.61773310601711,130.65883578034118 33.35120263695717,131.50589884910733 27.901304784230888,137.1529811185319 25.0465963864699,162.84709876566194 33.61072158254683,171.60000000009313 44.510517286136746,165.1059139308054 47.365225684829056,138.00004273070954 40.61773310601711,130.65883578034118 27.901304784230888,136.87062720605172 25.0465963864699,161.43533860123716 28.42034267447889,168.77648569084704 35.686873144470155,171.31764866481535 45.54859306663275,163.97650651726872 47.365225684829056,138.28239655890502 40.35821415949613,130.37648138194345 34.64879736304283,130.37648138194345 27.901304784230888,136.5882732719183 25.0465963864699,161.71769067575224 32.832164745777845,171.31764866481535 44.250998340547085,166.235321006272 47.624744629487395,139.41181166050956 42.4343657232821,130.94119015848264 35.686873144470155,130.65883578034118 28.160823730751872,136.5882732719183 25.306115332059562,162.28239476378076 31.27505107410252,170.47059453022666 44.77003622986376,169.05883721681312" stroke="#4dd2ff" stroke-linecap="round" stroke-linejoin="round" stroke-width="0.5"><title>2024-04-02 3.0km</title><desc>1712049520000</desc></polyline><polyline fill="none" points="91.39231724571437,141.99445542646572 89.72631413117051,165.55806975485757 94.72432347387075,170.6937110396102 102.22133748512715,170.99580738297664 107.77468119841069,164.6517794386018 110.55135305412114,134.7440848937258 101.11066874302924,128.4000000001397 92.22531880252063,135.6503819222562 89.44864694587886,164.6517794386018 94.16898910328746,170.39161467482336 101.9436702998355,170.99580738297664 107.77468119841069,164.3496826211922 110.55135305412114,135.04618392605335 101.38833592832088,128.4000000001397 92.22531880252063,135.34828293533064 89.17097976058722,163.7454889183864 98.88933125883341,171.60000000009313 107.77468119841069,164.95387623365968 110.82902023941278,136.2545798283536 102.4990046704188,128.4000000001397 92.22531880252063,135.34828293533064 89.17097976058722,164.04758578166366 98.05632970202714,171.60000000009313 107.49701401311904,165.55806975485757 110.82902023941278,136.55667874752544 102.77667185757309,128.4000000001397 92.22531880252063,135.04618392605335 89.17097976058722,163.7454889183864 97.5009953295812,171.60000000009313 107.49701401311904,165.55806975485757 111.10668742470443,137.16087651788257 103.60967341437936,128.7020995072089 92.5029859887436,134.44198583904654 89.17097976058722,163.14129512687214 98.05632970202714,171.60000000009313 107.49701401311904,165.55806975485757 110.82902023941278,136.55667874752544 102.4990046704188,128.4000000001397 92.5029859887436,134.44198583904654 89.17097976058722,163.7454889183864 98.33399688731879,171.60000000009313 107.77468119841069,164.6517794386018 110.82902023941278,136.85877764434554 102.22133748512715,128.4000000001397 92.22531880252063,135.6503819222562 89.17097976058722,164.04758578166366 98.33399688731879,171.60000000009313 107.77468119841069,164.95387623365968 110.82902023941278,135.95248088729568 101.9436702998355,128.4000000001397 92.22531880252063,135.6503819222562 89.17097976058722,163.44339203368872 92.78065317403525,169.48532544262707 100.27766718622297,171.29790370306 107.77468119841069,164.6517794386018 110.82902023941278,136.2545798283536 101.38833592832088,128.4000000001397 92.22531880252063,135.6503819222562 89.17097976058722,163.14129512687214 97.5009953295812,171.60000000009313 107.49701401311904,165.55806975485757 111.10668742470443,137.76507419743575 103.33200622815639,128.7020995072089 92.78065317403525,134.13988676248118 89.17097976058722,163.14129512687214 95.55732503067702,170.99580738297664 107.49701401311904,165.55806975485757 111.10668742470443,137.16087651788257 103.88734059873968,128.7020995072089 93.33598754461855,132.9314902271144 88.89331257436424,162.23500426788814 92.5029859887436,169.48532544262707 100.0,171.60000000009313 106.66401245631278,167.06855316390283 111.10668742470443,138.97346928692423 105.55334371235222,129.3062984519638 95.0019906591624,130.81679542083293 90.28164850268513,166.464359868085 96.11265940126032,171.29790370306 103.60967341437936,170.08951828652062 109.16301712673157,155.58886508829892" stroke="#4dd2ff" stroke-linecap="round" stroke-linejoin="round" stroke-width="0.5"><title>2024-03-30 4.8km</title><desc>1711782999000</desc></polyline><polyline fill="none" points="153.57486380729824,146.0327104406897 155.46564540080726,166.01635326398537 161.1379901850596,170.71837209630758 169.781563189812,170.13062005024403 176.26424294151366,161.60820549703203 175.72401962894946,131.63266950612888 162.7586601236835,129.28163740155287 155.73575705755502,137.21636511362158 155.73575705755502,165.1347241064068 163.2988834362477,171.60000000009313 171.67234478332102,169.54286791547202 176.53435459826142,161.60820549703203 178.42513619270176,139.56739246915095 175.4539079722017,131.04491161182523 166.0,128.4000000001397 159.5173202464357,132.51430618180893 154.6553104314953,161.0204520879779 157.35642699617893,167.7796109856572 165.18966503161937,171.60000000009313 176.26424294151366,163.66534173721448 177.34468956757337,133.9837002030108 165.72988834325224,128.9877582900226 156.2759803701192,137.51024360954762 156.2759803701192,167.48573475331068 166.5402233125642,171.30612405436113 174.37346134707332,166.60410592518747 177.88491287920624,139.86127078952268 175.9941312847659,132.51430618180893 170.05167484469712,128.69387915660627 157.89665030874312,133.68982144305483 154.38519877567887,162.783712051576 161.1379901850596,170.71837209630758 174.10334969032556,166.01635326398537 177.88491287920624,139.56739246915095 172.21256809588522,130.16327460552566 157.89665030874312,130.16327460552566" stroke="#4dd2ff" stroke-linecap="round" stroke-linejoin="round" stroke-width="0.5"><title>2024-03-28 2.0km</title><desc>1711615120000</desc></polyline><polyline fill="none" points="23.080739967525005,194.76006318023428 20.350924958474934,195.3000636245124 23.080739967525005,197.46006459393539 20.10275995824486,196.11006413935684 23.080739967525005,196.9200644728262 23.82523496914655,213.93002947908826 29.284864985384047,218.7900047567673 37.970640012063086,219.06000319099985 45.415590033866465,209.88004508172162 46.65641503687948,181.53002705588005 40.700455020181835,176.94000319158658 33.25550499744713,176.94000319158658 24.569729971699417,186.66004681959748 22.832574965432286,211.23004038608633 32.26284499466419,219.60000000009313 44.17476502992213,212.58003518474288 46.40825003758073,184.23003836721182 42.685775025747716,177.7500078266021 36.72981500811875,176.4000000001397 25.562389973551035,183.96003732644022 23.82523496914655,209.07004765677266 27.299544979818165,215.8200206423644 33.50366999767721,218.25000782706775 42.93394002690911,212.58003518474288 45.415590033866465,186.3900459613651 36.72981500811875,178.02000933210365 26.803214977495372,184.23003836721182 25.066059973090887,210.96004136512056 33.99999999906868,218.25000782706775 43.67843502853066,210.96004136512056 45.16742503270507,183.4200351855252 36.233485005795956,177.48000630177557 26.803214977495372,185.04004136589356 24.817894970998168,210.15004418301396 32.511009994894266,218.25000782706775 43.43027002830058,210.96004136512056 45.16742503270507,185.31004232540727 35.24082500394434,176.94000319158658 27.05137997865677,184.23003836721182 24.32156497053802,210.15004418301396 33.00733999721706,218.25000782706775 43.92660002876073,210.96004136512056 45.911920035257936,185.31004232540727 37.22614500951022,177.48000630177557 27.299544979818165,183.96003732644022 24.569729971699417,209.88004508172162 26.306884976103902,215.55002196552232 32.511009994894266,217.71001081634313 43.67843502853066,211.77003836608492 45.911920035257936,186.9300476582721 37.47431000974029,178.56001228070818 27.05137997865677,183.690036265878 24.569729971699417,210.96004136512056 33.50366999767721,217.9800093313679 43.67843502853066,211.23004038608633 45.66375503502786,184.23003836721182 36.48165000695735,178.02000933210365 27.05137997865677,185.04004136589356 24.569729971699417,210.42004326474853 33.50366999767721,218.25000782706775 41.4449500227347,217.17001372436062 45.16742503270507,212.04003732604906 47.89724004082382,186.1200450831093" stroke="#4dd2ff" stroke-linecap="round" stroke-linejoin="round" stroke-width="0.5"><title>2024-03-26 3.7km</title><desc>1711445960000</desc></polyline><polyline fill="none" points="88.35278581269085,209.52004335820675 97.88232469372451,219.60000000009313 109.26482946798205,212.97603146592155 111.38250477425754,183.88803472998552 105.55889768153429,176.4000000001397 91.79400818701833,181.2960243562702 88.08807640057057,208.65604584640823 90.47046111989766,215.2800218136981 98.67645293381065,219.31200160481967 108.7354106400162,213.55202918173745 111.91192360036075,185.32803973928094 106.61773533374071,176.68800160498358 92.58813642710447,182.44802918261848 89.14691405370831,199.1520604218822 92.32342701312155,215.2800218136981 99.20587175991386,218.4480062914081 105.55889768153429,215.85601918562315 111.11779536027461,187.05604503955692 106.61773533374071,178.70401223702356 98.94116234686226,177.84000780945644 93.64697408024222,182.1600280085113 90.20575170684606,207.5040488629602 96.02935879956931,217.58401078358293 106.88244474772364,214.12802681233734 111.11779536027461,185.9040415917989 105.02947885263711,177.55200629099272 93.64697408024222,182.44802918261848 90.20575170684606,208.08004739810713 96.29406821355224,217.58401078358293 106.61773533374071,214.12802681233734 109.26482946798205,180.72002181364223 100.2647094130516,176.97600318840705 92.85284583922476,184.46403679833747 90.47046111989766,211.536036798032 95.23523055948317,217.00801367033273 102.64709413331002,217.29601223720238" stroke="#4dd2ff" stroke-linecap="round" stroke-linejoin="round" stroke-width="0.5"><title>2024-03-25 2.1km</title><desc>1711359274000</desc></polyline><polyline fill="none" points="171.47235560882837,215.44617575313896 176.56291896477342,187.2000472645741 170.70877110492438,178.3384723418858 157.47330637834966,184.15388327743858 154.67349653318524,207.69235802232288 162.3093415684998,217.93847086117603 173.50858095102012,213.50772284297273 176.56291896477342,187.2000472645741 169.18160209804773,178.6153968796134 157.47330637834966,184.43080738023855 154.67349653318524,209.35389176034369 162.8183979028836,217.93847086117603 173.763109119609,212.67695699934848 176.56291896477342,186.09235155885108 168.92707393039018,178.6153968796134 157.47330637834966,184.15388327743858 154.92802470177412,209.6308139776811 157.21877821162343,215.44617575313896 164.34556691069156,218.21539243590087 174.01763728726655,211.56926891766489 176.56291896477342,187.75389499240555 169.94518660195172,178.6153968796134 157.47330637834966,183.04618666064925 154.92802470177412,209.6308139776811 162.8183979028836,218.49231399060227 173.2540527842939,213.23080091620795 176.56291896477342,187.2000472645741 169.4361302666366,178.06154778436758 157.72783454693854,182.76926245493814 154.67349653318524,210.18465834949166 157.21877821162343,215.72309751529247 164.85462324507535,218.76923552434891 174.27216545399278,211.29234684631228 176.30839079711586,185.8154275806155 168.41801759414375,178.06154778436758 161.29122889600694,179.44617036753334 156.96425004303455,184.98465552204289 155.18255286850035,211.56926891766489 165.10915141366422,218.21539243590087 174.52669362258166,210.46158050536178 176.30839079711586,186.09235155885108 168.92707393039018,178.06154778436758 157.21877821162343,184.98465552204289 154.92802470177412,210.73850263888016 163.83651057537645,217.93847086117603 173.50858095102012,212.67695699934848 176.30839079711586,185.8154275806155 167.39990492444485,178.06154778436758 156.96425004303455,184.70773146185093 155.18255286850035,211.01542475260794 163.83651057537645,218.49231399060227 174.01763728726655,212.67695699934848 176.56291896477342,186.09235155885108 172.23594011273235,178.89232139661908 157.98236271552742,182.76926245493814 154.92802470177412,207.96928036329336 161.0367007283494,217.93847086117603 173.2540527842939,213.7846447492484 176.56291896477342,186.64619945315644 168.67254576273263,178.3384723418858 157.47330637834966,183.6000350106042 154.92802470177412,209.9077361735981 162.05481339991093,217.6615492652636 172.999524615705,214.61541034444235 176.8174471333623,187.47697113873437 171.72688377741724,178.89232139661908 163.83651057537645,178.06154778436758 157.72783454693854,183.6000350106042 153.14632752537727,207.69235802232288 155.18255286850035,215.16925397142768 162.3093415684998,219.60000000009313 168.92707393039018,219.32307852921076 175.03574995789677,213.50772284297273 178.85367247555405,188.03081882512197 171.9814119450748,176.9538493445143 163.58198240678757,176.4000000001397 156.2006655400619,182.4923382285051 153.14632752537727,209.07696952181868 161.0367007283494,218.76923552434891 174.27216545399278,216.55386267532595" stroke="#4dd2ff" stroke-linecap="round" stroke-linejoin="round" stroke-width="0.5"><title>2024-03-24 4.9km</title><desc>1711273464000</desc></polyline><polyline fill="none" points="21.820123117417097,255.67367227142677 24.01250095665455,263.35953251854517 30.102439397946,267.3349709312897 37.16676798835397,266.00982528948225 43.01310889236629,260.17917857621796 45.44908426888287,232.35095979948528 43.50030396692455,227.5803860614542 36.19237783923745,225.19509678310715 28.153659095987678,227.05032191611826 23.76890341937542,232.61599148600362 22.307318193838,259.11905996105634 26.93567140866071,265.21473766630515 35.21798768825829,267.06994184246287 43.98749904241413,257.2638516209554 44.23109657969326,228.90554607729428 35.46158522646874,225.19509678310715 26.448476334102452,228.11045012786053 22.79451326839626,234.47121273283847 21.33292804285884,257.79391124565154 29.12804924789816,267.60000000009313 37.65396306477487,266.00982528948225 42.76951135415584,260.4442081800662 46.91066949348897,236.06140159908682 43.743901505135,227.5803860614542 36.92317045107484,224.9300645419862 26.69207387138158,228.11045012786053 23.038110807538033,233.94114961801097 22.79451326839626,262.5644443004858 29.85884186066687,267.60000000009313 36.92317045107484,267.06994184246287 44.23109657969326,257.2638516209554 44.23109657969326,228.90554607729428 32.53841477446258,224.4000000001397 23.28170834388584,233.67611803137697 21.57652558106929,258.8540302570909 26.204878795892,265.7447961012367 34.0,266.8049127336126 43.98749904241413,257.52888144389726 44.96188919339329,230.23070559790358 41.06432859133929,225.72516120621003 32.78201231174171,224.9300645419862 23.038110807538033,234.2061811850872 22.06372065562755,260.974267329555 35.21798768825829,266.53988360543735 43.743901505135,257.52888144389726 43.743901505135,228.90554607729428 34.48719507455826,224.6650322813075 23.76890341937542,230.7607692675665 21.08933050557971,259.3840896442998 25.961281256750226,265.47976689389907 35.21798768825829,267.06994184246287 43.743901505135,258.05894102854654 43.25670642964542,227.31535399891436 33.75640246178955,224.6650322813075 26.93567140866071,228.11045012786053 21.57652558106929,247.987795349909 24.74329356942326,264.15462055732496 39.846340903081,264.9497084186878 45.692681806162,235.26630725548603 40.33353597857058,225.9901933874935 26.69207387138158,228.11045012786053 21.57652558106929,254.34852226660587 23.28170834388584,263.35953251854517 29.61524432245642,266.53988360543735 41.795121204108,262.03438538941555 45.93627934344113,235.7963701710105 42.52591381687671,227.31535399891436 26.448476334102452,227.31535399891436 22.307318193838,242.42214992945082 24.01250095665455,263.35953251854517 31.32042708620429,267.06994184246287 40.08993844036013,264.41964986454695 43.98749904241413,258.3239707921166 45.93627934344113,236.06140159908682 42.28231627959758,227.31535399891436 30.34603693522513,225.4601290046703 23.038110807538033,234.2061811850872 21.820123117417097,260.4442081800662 28.640854171477258,266.53988360543735 36.92317045107484,265.47976689389907 42.52591381687671,251.43319051433355 41.3079261276871,228.90554607729428 33.75640246178955,226.52025769185275 25.961281256750226,230.23070559790358 21.33292804285884,246.92767308698967" stroke="#4dd2ff" stroke-linecap="round" stroke-linejoin="round" stroke-width="0.5"><title>2024-03-22 5.0km</title><desc>1711100044000</desc></polyline><polyline fill="none" points="86.84724708925933,240.60006059450097 91.314219776541,263.55002196575515 98.7591742547229,267.33000160590746 106.20412873197347,265.1700137243606 111.16743171773851,259.5000393856317 112.90458776243031,247.0800644720439 109.6784408222884,228.72002326813526 99.50366970151663,225.2100047566928 92.30688037350774,234.39004596089944 91.314219776541,260.31003626505844 97.27018335834146,266.5200063018128 104.46697268635035,266.5200063018128 110.42293627001345,258.1500441832468 110.17477111984044,232.23003836651333 101.98532119486481,226.29001081595197 92.5550455218181,234.39004596089944 91.314219776541,259.5000393856317 95.78119246289134,265.4400122803636 102.48165149241686,266.79000475723296 109.6784408222884,257.0700476572383 110.67110141832381,231.42003518505953 103.72247723862529,225.48000630224124 92.5550455218181,231.96003732667305 90.32155917864293,257.88004508195445 100.4963302994147,265.98000933183357 106.94862418062985,264.63001655228436 111.4155968669802,257.0700476572383 111.66376201529056,229.5300270554144 108.68578022439033,225.48000630224124 99.25550455320626,224.39999999990687 90.8178894771263,232.500039386563 89.32889858260751,259.2300403858535 100.4963302994147,267.60000000009313 110.67110141832381,257.61004596040584 113.152752911672,233.8500441836659 109.43027567211539,224.67000160599127 94.04403641819954,226.83001372450963 88.08807283546776,254.10005554393865" stroke="#4dd2ff" stroke-linecap="round" stroke-linejoin="round" stroke-width="0.5"><title>2024-03-21 2.2km</title><desc>1711013104000</desc></polyline></svg>