<?xml version="1.0" encoding="utf-8" ?>
<svg baseProfile="full" height="300mm" version="1.1" viewBox="0,0,200,300" width="200mm" xmlns="http://www.w3.org/2000/svg" xmlns:ev="http://www.w3.org/2001/xml-events" xmlns:xlink="http://www.w3.org/1999/xlink"><defs /><rect fill="#222222" height="300" width="200" x="0" y="0" /><text fill="#FFFFFF" style="font-size:12px; font-family:Arial; font-weight:bold;" x="10" y="20">Over 2km Runs</text><text fill="#FFFFFF" style="font-size:4px; font-family:Arial" x="10" y="280">ATHLETE</text><text fill="#FFFFFF" style="font-size:9px; font-family:Arial" x="10" y="290">作怪</text><text fill="#FFFFFF" style="font-size:4px; font-family:Arial" x="120" y="280">STATISTICS</text><text fill="#FFFFFF" style="font-size:3px; font-family:Arial" x="120" y="285">Number: 22</text><text fill="#FFFFFF" style="font-size:3px; font-family:Arial" x="120" y="290">Weekly: 3.7</text><text fill="#FFFFFF" style="font-size:3px; font-family:Arial" x="141" y="285">Total: 112.5 km</text><text fill="#FFFFFF" style="font-size:3px; font-family:Arial" x="141" y="290">Avg: 5.1 km</text><text fill="#FFFFFF" style="font-size:3px; font-family:Arial" x="167" y="285">Min: 2.0 km</text><text fill="#FFFFFF" style="font-size:3px; font-family:Arial" x="167" y="290">Max: 12.3 km</text><polyline fill="none" points="19.500711507163942,51.38466758932918 23.106527756899595,63.61540708364919 27.34866452217102,67.07692832499743 33.075549153611064,66.61539238435216 37.529792757704854,61.53849247423932 39.86296797823161,45.15389486285858 39.22664746362716,39.38464963505976 33.9239765079692,34.076934496639296 22.682314079254866,38.692339482717216 20.561245698481798,59.692344980780035 26.924450845457613,66.15385637409054 37.31768591888249,61.76926083327271 39.22664746362716,39.84618965070695 31.590801287442446,33.15385267045349 22.470207242295146,38.461569397710264 20.561245698481798,59.92311347858049 26.076023492962122,65.92308834288269 36.68136540427804,62.000029175076634 39.014540624804795,39.38464963505976 30.954480772837996,33.38462315313518 22.04599356558174,39.15387960174121 20.985459374263883,60.61541886627674 25.015489300712943,65.92308834288269 31.802908124402165,66.38462438737042 37.10557908099145,62.000029175076634 39.22664746362716,40.07695963210426 32.22712180111557,32.92308217124082 22.682314079254866,37.76925903791562 20.77335253637284,59.23080793512054 28.197091874666512,66.38462438737042 37.741899595595896,59.92311347858049 39.014540624804795,39.15387960174121 31.37869444862008,32.692311653867364 20.985459374263883,38.23079929524101 20.561245698481798,42.61542829172686 20.77335253637284,62.692334096180275 25.651809816248715,67.30769627005793 32.439228639006615,66.84616036340594 39.014540624804795,59.92311347858049 39.438754302449524,37.30771871190518 29.681839742697775,32.0 24.591275623999536,33.15385267045349 20.985459374263883,39.15387960174121 19.500711507163942,61.076955704251304 24.591275623999536,66.84616036340594 30.318160257302225,68.0 38.59032694902271,61.30772409820929 40.49928849283606,39.84618965070695 34.348190183751285,32.2307705685962 26.71234400756657,32.0 22.04599356558174,35.46155671728775 19.712818345054984,61.76926083327271" stroke="#4dd2ff" stroke-linecap="round" stroke-linejoin="round" stroke-width="0.5"><title>2024-04-25 3.0km</title><desc>1714037269000</desc></polyline><polyline fill="none" points="66.65003356803209,57.71432611113414 74.52828431874514,67.02041340293363 84.65746385511011,63.836754937889054 87.58367127738893,40.57146448013373 82.181442190893,33.7142946915701 74.07809856254607,33.959193860180676 70.92679826263338,37.387780292890966 68.45077659748495,60.163299015956 74.07809856254607,67.26531008025631 85.1076496122405,63.59185800445266 87.8087641550228,41.30616039130837 84.65746385511011,34.9387903502211 74.07809856254607,33.7142946915701 65.07438341900706,44.48984076664783 70.25151962600648,64.81634248746559 77.45449174195528,68.0 82.85672082658857,66.0408265129663 86.68329976219684,37.387780292890966 75.65374871250242,32.97959707630798 65.52456917520612,41.06126177217811 69.12605523318052,63.59185800445266 73.85300568304956,67.51020673848689 81.9563493123278,66.28572326246649 86.68329976219684,60.40819620527327 87.8087641550228,40.32656580605544 82.85672082658857,33.22449630009942 75.42865583393723,32.97959707630798 70.47661250364035,37.387780292890966 68.00059083942324,58.69391549262218 73.85300568304956,67.26531008025631 85.33274249080569,63.10206408286467 87.8087641550228,39.83676840364933 79.9305134061724,32.73469783482142 69.8013338688761,38.6122745773755 67.55040508322418,59.67350458097644 73.85300568304956,67.51020673848689 83.98218521941453,65.55103295738809 88.03385703451931,40.57146448013373 81.28107067756355,32.48979857517406 71.15189114026725,36.163285550428554 68.00059083942324,58.938812791602686 73.85300568304956,67.02041340293363 84.43237097747624,64.32654874958098 88.2589499130845,42.28575468272902 86.45820688456297,35.183689426397905 77.90467749815434,32.0 71.15189114026725,36.653083502547815 68.45077659748495,60.65309337642975 75.20356295444071,67.51020673848689 86.00802112650126,63.10206408286467 87.8087641550228,39.346970927901566 79.9305134061724,32.48979857517406 70.02642674744129,37.63267918629572 68.00059083942324,61.87757895933464 77.00430598296225,67.51020673848689 86.23311400599778,61.87757895933464 87.13348552025855,37.387780292890966 78.57995613384992,32.48979857517406 70.02642674744129,38.36737575707957 68.45077659748495,61.38778478070162 75.87884159106761,67.26531008025631 86.00802112650126,61.87757895933464 87.35857839789242,38.36737575707957 77.67958461865783,32.48979857517406 70.47661250364035,37.63267918629572 68.45077659748495,61.38778478070162 78.3548632543534,68.0 86.23311400599778,60.40819620527327 87.58367127738893,38.36737575707957 77.45449174195528,32.73469783482142 70.02642674744129,39.59186967485584 68.67586947511882,61.38778478070162 77.90467749815434,67.26531008025631 86.23311400599778,60.8979905298911 87.8087641550228,39.346970927901566 83.75709234178066,33.7142946915701 77.22939886245877,32.73469783482142 70.02642674744129,39.346970927901566 70.02642674744129,62.85716709494591" stroke="#4dd2ff" stroke-linecap="round" stroke-linejoin="round" stroke-width="0.5"><title>2024-04-22 4.9km</title><desc>1713776322000</desc></polyline><polyline fill="none" points="113.42716359347105,43.11115765850991 115.0611709728837,61.11114486632869 124.660964329727,66.22223246260546 130.58424108009785,60.22225916897878 130.99274292588234,38.44447650411166 120.37169495690614,33.11111763585359 114.2441672841087,40.88892945158295 114.2441672841087,62.88891546218656 119.35044034477323,67.11111636459827 126.09072078578174,67.33333729812875 132.01399753708392,59.77781622065231 131.80974661558867,36.88891448988579 121.39294956997037,33.33334111352451 114.44841820560396,40.22226066607982 114.44841820560396,62.88891546218656 117.92068388685584,66.44445346295834 126.49922263156623,67.11111636459827 131.80974661558867,61.11114486632869 132.626750305295,37.55558402440511 123.63970971666276,32.666670631151646 115.2654218962416,38.44447650411166 113.01866174861789,59.77781622065231 116.28667650744319,65.77779041184112 122.82270602695644,67.55555821559392 131.60549569316208,61.33336624852382 133.03525215014815,39.11114568915218 123.2312078718096,33.33334111352451 114.85692005045712,39.11114568915218 113.63141451682895,60.88892346643843 117.30793112050742,66.00001144595444 123.63970971666276,67.55555821559392 131.80974661558867,60.88892346643843 132.626750305295,37.77780716936104 124.04821156151593,32.666670631151646 114.85692005045712,39.55559172993526 114.0399163607508,62.444472912931815 118.12493481021374,66.6666744465474 125.27371709700674,67.55555821559392 132.21824846044183,60.444480618229136 132.626750305295,38.000030297786 123.43545879423618,33.11111763585359 117.30793112050742,35.33335166145116 114.65266912803054,40.00003770366311 113.22291267011315,60.00003770273179 116.4909274308011,65.55556936189532 122.41420418210328,68.0 131.80974661558867,61.11114486632869 133.23950307257473,38.44447650411166 124.04821156151593,33.11111763585359 114.85692005045712,39.33336871769279 113.42716359347105,61.11114486632869 122.61845510359854,68.0 131.1969938473776,62.88891546218656 133.85225583985448,43.333380388095975 132.21824846044183,36.88891448988579 127.9289790885523,34.00001144572161 116.28667650744319,36.222244806354865 112.8144108261913,58.222265378106385 116.4909274308011,65.33334829495288 123.63970971666276,67.55555821559392 129.56298646796495,64.44446386094205 133.85225583985448,43.333380388095975 129.15448462311178,34.00001144572161 117.92068388685584,34.44445825112052 114.0399163607508,40.88892945158295 114.0399163607508,63.111136712133884 122.2099532596767,68.0 128.54173185583204,65.77779041184112 132.21824846044183,60.00003770273179 133.44375399500132,40.44448361126706 124.25246248394251,32.0 115.0611709728837,38.66669958294369 113.22291267011315,60.88892346643843 122.82270602695644,68.0 131.80974661558867,62.000030296854675 133.44375399500132,40.00003770366311 124.660964329727,33.11111763585359 114.65266912803054,38.44447650411166 112.8144108261913,58.6667085592635" stroke="#4dd2ff" stroke-linecap="round" stroke-linejoin="round" stroke-width="0.5"><title>2024-04-21 5.0km</title><desc>1713688153000</desc></polyline><polyline fill="none" points="170.6503978818655,38.987800713046454 171.38209549942985,44.20651101670228 173.57718835165724,44.914130979334004 175.6096817329526,43.76424832479097 176.82917776191607,35.27277256397065 175.69098146865144,33.06144074315671 173.1706896754913,32.53072049061302 171.38209549942985,33.857520675170235 170.3251989413984,42.17210126493592 172.7641909988597,44.82567850733176 176.09748014481738,43.05662767402828 176.82917776191607,34.83050653070677 174.39018570398912,32.442267092177644 171.1381962937303,34.29978707223199 170.4064986766316,42.4374592571985 173.1706896754913,44.914130979334004 176.09748014481738,42.96817506279331 176.82917776191607,34.83050653070677 173.8210875573568,32.442267092177644 171.1381962937303,34.47669358504936 170.4064986766316,42.52591190778185 173.1706896754913,44.914130979334004 176.1787798795849,42.79126982064918 176.82917776191607,34.74205330433324 174.06498676352203,32.442267092177644 171.1381962937303,34.388240331900306 170.4877984118648,42.70281718974002 173.1706896754913,44.914130979334004 176.1787798795849,42.79126982064918 176.82917776191607,34.83050653070677 173.57718835165724,32.442267092177644 171.0568965584971,34.653600071091205 170.4877984118648,42.87972244503908 173.1706896754913,44.914130979334004 176.09748014481738,42.96817506279331 176.74787802668288,34.74205330433324 173.73978782212362,32.442267092177644 171.0568965584971,34.47669358504936 170.4064986766316,42.61436455196235 173.33328914595768,44.914130979334004 176.1787798795849,42.61436455196235 176.74787802668288,34.74205330433324 173.49588861642405,32.442267092177644 171.0568965584971,34.56514683132991 170.6503978818655,43.23353287624195 172.92679046932608,44.914130979334004 175.5283819977194,43.94115342141595 176.74787802668288,36.334210369037464 175.04058358632028,32.707627268042415 171.30079576466233,34.03442725376226 170.3251989413984,42.08364858746063 172.03249338176101,44.56032105104532 174.14628649828956,44.82567850733176 175.85358093865216,43.410438052378595 176.82917776191607,35.18431937065907 174.79668438062072,32.53072049061302 171.54469496989623,33.59216075728182 170.81299735279754,43.49889063031878 174.14628649828956,44.82567850733176 176.2600796148181,42.08364858746063 176.74787802668288,34.56514683132991 173.33328914595768,32.53072049061302 170.9755968232639,34.74205330433324 170.6503978818655,43.23353287624195 173.33328914595768,44.914130979334004 176.09748014481738,42.96817506279331 176.82917776191607,34.83050653070677 173.98368702782318,32.442267092177644 171.0568965584971,34.56514683132991 170.6503978818655,43.23353287624195 173.90238729259,44.82567850733176 176.2600796148181,42.08364858746063 176.42267908575013,33.945973967784084 174.06498676352203,32.442267092177644 171.4633952351287,33.68061406980269 170.3251989413984,42.08364858746063 171.70729444082826,44.47186855238397 168.13010608917102,48.00996333756484 168.2114058244042,52.78637450479437 162.1139256800525,53.31708566576708 160.8131299163215,54.64386252616532 159.43103441689163,63.489003551891074 156.09774527093396,66.67323812493123 158.6180370640941,68.0 155.8538460652344,66.49633642926347 159.51233415212482,62.51604127755854 160.65053044538945,54.378507273155265 168.0488063544035,52.34411502210423 169.59350132383406,45.975560129620135 179.10557034937665,47.12544063385576 184.14615393523127,42.4374592571985 179.67466849600896,45.621750518796034 176.50397882098332,45.44484567362815 176.74787802668288,34.21133380604442 175.77228120341897,32.53072049061302 173.41458888119087,32.0 170.73169761756435,34.47669358504936 170.08129973569885,43.23353287624195 173.49588861642405,45.09103590389714 176.01618040911853,42.4374592571985 176.5852785562165,34.12288053322118 175.5283819977194,32.353813687106594 172.7641909988597,32.26536027516704 170.56909814709798,34.918959750561044 170.08129973569885,43.76424832479097 173.41458888119087,45.00258344516624 175.77228120341897,42.349006599513814 176.50397882098332,34.03442725376226 175.36578252725303,32.442267092177644 172.8454907340929,32.26536027516704 170.16259947093204,35.98039787332527 169.6748010595329,42.52591190778185 170.73169761756435,44.56032105104532 173.33328914595768,45.09103590389714 175.6096817329526,43.23353287624195 176.5852785562165,35.0958661705954 174.47148543968797,32.08845343173016 170.9755968232639,33.68061406980269 169.6748010595329,42.61436455196235 172.1137931169942,44.914130979334004 175.77228120341897,42.52591190778185 176.6665782914497,34.47669358504936 175.44708226248622,32.442267092177644 173.8210875573568,32.08845343173016 170.0,35.44967893115245 169.51220158860087,43.05662767402828 173.08938994025812,45.09103590389714 175.85358093865216,42.4374592571985 176.34137935051695,34.03442725376226 173.65848808689043,32.08845343173016 170.3251989413984,34.653600071091205 169.6748010595329,42.79126982064918 172.7641909988597,45.17948835634161 175.85358093865216,42.349006599513814 176.34137935051695,33.945973967784084 173.57718835165724,32.08845343173016 170.4877984118648,34.12288053322118 169.6748010595329,42.52591190778185 172.7641909988597,45.00258344516624 175.69098146865144,42.96817506279331 176.42267908575013,34.12288053322118 173.57718835165724,32.08845343173016 170.16259947093204,34.74205330433324 169.83740052953362,42.61436455196235 172.8454907340929,45.00258344516624 175.77228120341897,42.52591190778185 176.5852785562165,34.12288053322118 173.98368702782318,32.08845343173016 170.4064986766316,34.12288053322118 169.3496021181345,42.349006599513814 172.60159152839333,45.00258344516624 175.77228120341897,43.05662767402828 176.34137935051695,34.12288053322118 173.33328914595768,32.08845343173016 170.24389920569956,34.653600071091205 169.59350132383406,42.96817506279331 172.7641909988597,45.00258344516624 175.85358093865216,42.52591190778185 176.42267908575013,34.388240331900306 173.65848808689043,32.17690685670823 170.3251989413984,34.03442725376226 169.43090185383335,42.08364858746063 172.60159152839333,44.82567850733176 175.85358093865216,42.4374592571985 176.50397882098332,34.21133380604442 173.49588861642405,32.08845343173016 170.4064986766316,34.12288053322118 169.51220158860087,42.349006599513814 172.68289126409218,44.914130979334004 175.93488067388535,42.70281718974002 176.5852785562165,34.653600071091205 173.90238729259,32.17690685670823 170.4877984118648,34.12288053322118 169.51220158860087,42.349006599513814 172.4389920583926,45.09103590389714 175.77228120341897,42.61436455196235 176.74787802668288,34.47669358504936 175.69098146865144,32.61917388252914 173.65848808689043,32.17690685670823 170.3251989413984,34.03442725376226 169.51220158860087,42.4374592571985 172.4389920583926,44.914130979334004 175.93488067388535,42.52591190778185 176.34137935051695,34.21133380604442 175.5283819977194,32.707627268042415 173.25198941025883,32.17690685670823 170.08129973569885,34.21133380604442 169.6748010595329,42.61436455196235 173.00809020455927,44.914130979334004 175.69098146865144,43.05662767402828 176.34137935051695,33.857520675170235 173.41458888119087,32.08845343173016 170.4877984118648,32.79608064657077 169.51220158860087,34.29978707223199" stroke="#4dd2ff" stroke-linecap="round" stroke-linejoin="round" stroke-width="0.5"><title>2024-04-18 12.3km</title><desc>1713432540000</desc></polyline><polyline fill="none" points="39.59570977278054,99.12003753241152 38.27216359693557,76.80002334038727 29.227931397035718,72.48000265751034 22.38960948958993,78.96003150078468 21.066063313744962,102.24002714664675 27.90438522119075,107.52000265661627 34.08093404117972,106.32000898569822 37.83098153863102,101.28003066475503 38.71334565524012,76.80002334038727 33.41916095279157,72.48000265751034 27.242612133733928,72.72000395902433 21.948427432216704,78.72003066539764 21.066063313744962,101.52002981258556 25.036701841279864,107.04000524245203 30.992659631185234,108.0 38.051572567783296,100.32003389624879 39.37511874362826,78.96003150078468 30.33088654372841,72.0 21.948427432216704,79.20003231754526 20.84547228552401,101.28003066475503 27.022021105512977,107.52000265661627 37.16920845024288,102.48002622113563 39.37511874362826,80.4000361324288 37.16920845024288,75.12001598835923 30.33088654372841,72.0 22.169018460437655,78.48002981254831 20.84547228552401,101.52002981258556 27.242612133733928,107.76000133738853 34.08093404117972,106.08001019759104 37.38979947939515,101.28003066475503 38.71334565524012,78.48002981254831 29.007340368814766,72.0 22.38960948958993,78.96003150078468 21.066063313744962,101.76002894109115 30.110295514576137,108.0 37.61039050947875,100.80003231670707 38.27216359693557,78.00002805306576 34.08093404117972,73.68000898580067 26.139656987041235,73.20000650826842 22.38960948958993,79.20003231754526 21.507245372980833,102.48002622113563 31.654432718642056,107.04000524245203 37.61039050947875,98.1600401175674 38.051572567783296,77.28002527961507 32.095614776946604,72.96000524237752 26.139656987041235,73.92001019814052 21.507245372980833,85.44004725501873 23.27197360713035,105.60001256759278 30.551477572880685,107.28000395861454 36.28684433363378,102.96002431842498 38.71334565524012,80.16003540507518 36.066253303550184,75.12001598835923 30.110295514576137,73.20000650826842 22.38960948958993,75.84001924702898 20.40429022628814,80.64003684208728" stroke="#4dd2ff" stroke-linecap="round" stroke-linejoin="round" stroke-width="0.5"><title>2024-04-17 3.1km</title><desc>1713344929000</desc></polyline><polyline fill="none" points="68.91151039302349,80.10003756918013 66.84346872009337,97.65004413272254 71.59996456839144,104.17502045910805 77.18367708474398,105.7500126240775 83.80141043756157,101.02503365511075 86.07625627703965,79.65003605373204 78.63130625616759,73.12500652228482 69.73872706200927,79.20003447169438 68.49790205806494,100.35003605415113 76.14965624827892,106.20001023402438 84.21501877252012,101.02503365511075 85.86945211142302,80.10003756918013 78.01089375372976,73.12500652228482 69.73872706200927,80.10003756918013 68.29109789151698,99.67503830092028 75.73604791425169,105.52501379372552 84.21501877252012,100.57503527076915 85.86945211142302,80.32503830105998 79.66532709170133,73.80001023411751 70.1523353960365,78.7500328226015 68.29109789151698,100.12503681937233 75.94285208079964,105.7500126240775 84.21501877252012,100.35003605415113 86.07625627703965,80.77503971522674 78.83811042364687,73.57500901352614 70.1523353960365,78.97503365529701 68.49790205806494,99.22503971401602 70.77274789940566,103.50002356455661 76.77006874978542,105.7500126240775 84.21501877252012,100.57503527076915 85.86945211142302,78.97503365529701 76.97687291819602,73.35000777663663 70.1523353960365,78.97503365529701 68.70470622647554,100.35003605415113 76.56326458323747,106.4250090138521 84.00821460504085,100.80003447085619 86.07625627703965,79.65003605373204 78.63130625616759,73.35000777663663 70.56594373192638,79.20003447169438 68.29109789151698,99.22503971401602 72.01357290241867,104.62501830467954 77.59728541970253,105.97501143696718 84.21501877252012,100.57503527076915 85.45584377646446,79.42503527132794 77.39048125222325,73.35000777663663 70.56594373192638,79.20003447169438 68.91151039302349,99.22503971401602 74.28841874282807,105.7500126240775 83.80141043756157,100.80003447085619 86.07625627703965,80.77503971522674 78.42450208868831,73.35000777663663 70.56594373192638,78.7500328226015 68.70470622647554,98.77504106098786 74.28841874282807,105.7500126240775 83.80141043756157,101.25003282167017 86.48986461292952,80.55003901640885 79.2517187576741,74.02501143771224 70.56594373192638,78.7500328226015 68.29109789151698,99.45003901585005 75.52924374584109,106.20001023402438 84.00821460504085,100.57503527076915 85.86945211142302,79.42503527132794 78.83811042364687,73.57500901352614 73.46120207384229,74.7000149472151 70.56594373192638,79.20003447169438 68.70470622647554,100.80003447085619 76.35646041575819,106.20001023402438 84.42182293906808,100.12503681937233 85.86945211142302,79.20003447169438 77.39048125222325,73.80001023411751 70.1523353960365,79.42503527132794 68.91151039302349,100.35003605415113 76.14965624827892,105.7500126240775 84.21501877252012,99.90003756829537 85.86945211142302,79.65003605373204 78.63130625616759,73.57500901352614 70.56594373192638,78.52503197267652 68.49790205806494,100.57503527076915 75.32243957929313,105.97501143696718 83.5946062700823,101.25003282167017 86.07625627703965,79.87503681983799 77.59728541970253,73.57500901352614 69.32511872798204,77.85002932138741 66.84346872009337,99.45003901585005 72.84078957233578,106.65000777621754 79.04491459019482,106.87500652275048 84.83543127402663,102.82502651819959 86.6966687804088,84.60004901466891 81.94017293211073,72.6750039642211 76.35646041575819,72.0 70.56594373192638,76.27502254652791 66.42986038606614,95.85004817298613 68.70470622647554,105.3000149463769 73.87481040786952,108.0 80.90615209564567,106.65000777621754 86.90347294695675,98.10004295501858" stroke="#4dd2ff" stroke-linecap="round" stroke-linejoin="round" stroke-width="0.5"><title>2024-04-15 5.9km</title><desc>1713172666000</desc></polyline><polyline fill="none" points="126.79708316922188,75.81285964883864 127.04158315807581,83.08386033237912 128.83458307338879,84.76859802869149 131.19808296160772,84.59125733131077 133.31708286190405,82.10848478204571 133.7245828420855,74.03943808190525 130.05708301533014,72.0 127.28608314646408,74.92614919715561 126.96008316194639,82.64050790888723 128.427083092276,84.59125733131077 130.4645829964429,84.8572683671955 133.39858285803348,82.46316689322703 133.4800828541629,73.33006871235557 130.4645829964429,72.08867129404098 127.85658311937004,73.77342461806256 126.79708316922188,82.01981423760299 128.75308307725936,84.67992768308613 131.6055829427205,84.59125733131077 133.4800828541629,82.72917840688024 134.05058282706887,74.48279372265097 131.19808296160772,72.17734258121345 127.3675831425935,74.57146483066026 126.71558317355812,81.66513199394103 129.16058305790648,84.8572683671955 133.07258287305012,83.34987170668319 134.05058282706887,74.74880702700466 131.76858293497935,72.3546851357678 127.85658311937004,73.77342461806256 126.79708316922188,82.28582585090771 129.07908306177706,84.8572683671955 132.82808288466185,83.70455344638322 134.1320828231983,75.28083345736377 132.50208290060982,72.53202766401228 130.54608299257234,72.17734258121345 127.93808311549947,73.59608227584977 126.87858316581696,81.84247312904336 128.9160830695182,84.76859802869149 132.82808288466185,83.70455344638322 133.4800828541629,73.33006871235557 129.73108303081244,72.3546851357678 127.44908313872293,74.74880702700466 127.04158315807581,82.72917840688024 130.54608299257234,84.8572683671955 133.39858285803348,82.55183740437496 133.88758283527568,74.57146483066026 130.95358297321945,72.26601386175025 127.44908313872293,74.57146483066026 126.87858316581696,82.72917840688024 129.81258302694187,84.8572683671955 133.1540828696452,82.64050790888723 133.88758283527568,74.66013593226671 130.70908298483118,72.08867129404098 127.53058313485235,74.39412260765675 126.87858316581696,82.81784889823757 129.5680830385536,84.8572683671955 131.9315829272382,84.5025869726669 133.39858285803348,82.64050790888723 133.96908283093944,74.39412260765675 130.8720829775557,72.17734258121345 127.53058313485235,74.48279372265097 127.04158315807581,82.46316689322703 129.73108303081244,84.8572683671955 133.07258287305012,83.26120125502348 134.05058282706887,74.48279372265097 130.8720829775557,72.17734258121345 127.61208313144743,74.12810922332574 126.96008316194639,82.19715532008559 129.40508304629475,84.8572683671955 133.07258287305012,83.17253079707734 133.96908283093944,74.8374781155726 131.36108295433223,72.26601386175025 127.77508312324062,73.86209577939007 126.87858316581696,82.64050790888723 129.5680830385536,84.94593869941309 133.1540828696452,83.26120125502348 133.96908283093944,74.74880702700466 131.36108295433223,72.26601386175025 126.79708316922188,74.03943808190525 126.308083192911,83.08386033237912 124.35208328533918,86.45333333034068 125.41158323502168,92.48289268498775 118.1580835771747,94.07894738053437 116.03908367734402,102.67987180198543 112.5345838428475,106.49263276788406 116.85408363910392,108.0" stroke="#4dd2ff" stroke-linecap="round" stroke-linejoin="round" stroke-width="0.5"><title>2024-04-14 5.4km</title><desc>1713087921000</desc></polyline><polyline fill="none" points="159.30807866994292,96.2449414881412 164.48521952424198,106.53061999403872 174.1642219927162,107.0204134027008 179.11626976635307,98.93881279206835 179.34136284701526,75.91838654712774 169.66236037854105,72.73469783482142 163.13466104026884,79.102072162088 161.3339163949713,101.14288766426034 165.16049876715988,106.04082651273347 171.2380119431764,107.26531007955782 178.6660836050287,100.65309337619692 180.24173516966403,78.12247691815719 170.33763962145895,72.24489929620177 162.90956795960665,79.59186967485584 161.3339163949713,101.38778478070162 169.43726729881018,107.0204134027008 178.4409905243665,101.87757895817049 180.9170144116506,80.5714644792024 173.03875658847392,72.24489929620177 163.8099402822554,77.1428813803941 161.7841025562957,100.89799052942544 169.66236037854105,107.5102067377884 178.2158974437043,102.6122700877022 180.46682825032622,79.83676840318367 171.91329118516296,72.48979857447557 163.58484720159322,78.12247691815719 161.10882331430912,100.40819620504044 168.31180189549923,108.0 178.4409905243665,102.12247602036223 180.9170144116506,80.81636313488707 173.93912891112268,72.73469783482142 163.8099402822554,77.87757806130685 161.5590094756335,99.91840180684812 168.7619880568236,107.0204134027008 178.2158974437043,102.85716709471308 180.69192133005708,79.83676840318367 172.13838426675647,72.24489929620177 163.8099402822554,77.63267918629572 161.5590094756335,100.16329901479185 166.96124341152608,107.0204134027008 174.61440815404058,106.53061999403872 178.6660836050287,102.36737306322902 180.46682825032622,79.34697092790157 172.13838426675647,72.24489929620177 163.8099402822554,77.3877802924253 161.7841025562957,101.38778478070162 169.43726729881018,108.0 179.11626976635307,101.38778478070162 180.46682825032622,78.12247691815719 171.6881981054321,72.24489929620177 163.13466104026884,78.61227457690984 161.10882331430912,100.89799052942544 169.66236037854105,107.5102067377884 178.6660836050287,101.14288766426034 180.69192133005708,79.34697092790157 171.6881981054321,72.0 163.58484720159322,77.3877802924253 161.5590094756335,99.18371007288806 166.96124341152608,107.0204134027008 178.6660836050287,102.12247602036223 180.46682825032622,78.12247691815719 173.2638496691361,72.24489929620177 163.58484720159322,77.3877802924253 161.7841025562957,100.89799052942544 167.86161573417485,107.26531007955782 178.2158974437043,102.6122700877022 180.69192133005708,80.81636313488707 173.2638496691361,72.0 163.58484720159322,77.1428813803941 161.5590094756335,100.16329901479185 168.7619880568236,107.26531007955782 178.2158974437043,102.6122700877022 180.9170144116506,79.102072162088 175.28968739602715,72.97959707607515 167.41142957191914,72.97959707607515 160.43354407232255,87.91841617063619 160.20845099166036,100.16329901479185 159.0829855883494,95.26535137346946" stroke="#4dd2ff" stroke-linecap="round" stroke-linejoin="round" stroke-width="0.5"><title>2024-04-13 4.9km</title><desc>1713000859000</desc></polyline><polyline fill="none" points="19.567582444287837,127.13380947289988 21.253629725426435,143.64333458943292 26.3117715716362,146.85350970248692 34.1097402498126,146.39491346362047 37.48183481302112,137.91087066824548 38.11410254333168,117.50321209034882 28.84084249380976,113.37580394907854 21.885897456668317,120.71341458009556 20.621361995115876,140.43315611430444 24.6257242904976,145.01912433560938 30.73764568567276,145.7070189770311 37.06032299250364,140.20385752338916 38.324858454056084,117.50321209034882 29.05159840360284,113.37580394907854 21.885897456668317,121.85991465463303 21.042873815633357,140.43315611430444 29.26235431432724,146.1656153188087 36.84956708177924,140.8917532453779 38.957126185297966,119.79621421173215 31.369913416914642,113.14650333323516 22.939677006565034,118.42041314439848 21.253629725426435,139.97455891454592 28.63008658401668,145.93631715606898 36.84956708177924,140.43315611430444 38.957126185297966,119.56691407691687 31.58066932670772,112.9172027008608 22.939677006565034,118.87901356909424 21.253629725426435,140.43315611430444 29.05159840360284,146.1656153188087 36.84956708177924,141.12105178507045 38.957126185297966,118.87901356909424 30.31613386515528,112.9172027008608 22.728921097703278,119.3376139246393 21.675141545943916,141.8089473012369 31.791425237432122,145.93631715606898 37.48183481302112,139.0573643099051 37.903346633538604,114.7516072797589 27.15479521267116,112.4586013846565 21.253629725426435,120.2548144296743 19.989094264805317,141.8089473012369 25.257992019876838,147.08280779630877 30.73764568567276,147.54140393226407 38.746370274573565,140.66245468822308 39.16788209415972,115.89810958434828 29.26235431432724,112.0 21.042873815633357,118.87901356909424 19.567582444287837,141.8089473012369 23.57194473873824,147.31210587290116 30.52688977587968,147.7707019748632 38.957126185297966,139.74526028940454 39.800149825401604,117.27391178393736 28.2085747634992,112.6879020514898 20.410606085322797,120.02551432931796 19.567582444287837,141.5796488125343 27.78706294298172,148.0 37.903346633538604,142.2675442257896 40.853929376229644,120.4841145137325 35.7957875309512,112.6879020514898 25.257992019876838,113.60510454676114 20.410606085322797,121.17201466136612 21.253629725426435,142.0382457722444 31.159157507121563,146.62421159190126 37.27107890229672,140.66245468822308 39.16788209415972,120.02551432931796 35.374275711365044,114.29300623829477 29.894622045569122,112.6879020514898 22.09665336739272,119.3376139246393 21.464385636150837,140.20385752338916 28.84084249380976,145.93631715606898 37.27107890229672,140.66245468822308 38.957126185297966,119.56691407691687 31.369913416914642,112.9172027008608 22.518165186978877,119.3376139246393 21.464385636150837,140.43315611430444 27.78706294298172,146.39491346362047 34.53125206939876,145.01912433560938 37.692590723745525,140.43315611430444 39.378638004884124,119.56691407691687 31.791425237432122,112.9172027008608 21.253629725426435,119.79621421173215 19.146070623770356,138.36946817603894" stroke="#4dd2ff" stroke-linecap="round" stroke-linejoin="round" stroke-width="0.5"><title>2024-04-12 5.1km</title><desc>1712913892000</desc></polyline><polyline fill="none" points="59.00000000046566,120.57089550502133 58.66666666674428,125.6481607313035 60.8000000002794,128.0417194024194 64.13333333353512,126.51854638621444 65.00000000023283,119.84556973085273 64.4000000001397,118.32238383888034 62.53333333367482,117.45199082617182 59.800000000046566,118.97517808555858 59.066666666883975,125.72069289890351 60.8000000002794,127.82412340369774 64.20000000018626,126.37348216457758 64.93333333334886,119.84556973085273 62.86666666669771,117.52452360716416 59.93333333381452,118.8301127353916 59.13333333376795,125.6481607313035 61.333333333721384,127.96918740827823 64.06666666688398,126.73614267772064 65.00000000023283,120.13570010563126 62.86666666669771,117.45199082617182 59.93333333381452,118.8301127353916 59.13333333376795,125.57562855805736 60.73333333362825,127.82412340369774 64.06666666688398,126.73614267772064 64.86666666716337,119.70050451083807 62.73333333362825,117.59705638268497 59.93333333381452,118.75758005207172 59.13333333376795,125.28549981117249 60.53333333367482,127.67905937734758 62.53333333367482,127.82412340369774 64.20000000018626,126.51854638621444 64.93333333334886,120.20823268569075 64.26666666707024,118.24985111760907 60.8000000002794,117.74212191725383 59.60000000032596,119.55543926928658 58.66666666674428,126.59107848885469 65.73333333339542,129.2022305704886 68.0,128.476911253063 70.8000000002794,125.72069289890351 74.86666666669771,127.02627099078381 75.80000000004657,128.91210290871095 75.60000000009313,134.13438753940864 79.4000000001397,139.21158174338052 85.93333333358169,141.60510693327524 92.66666666674428,142.54800917388638 94.66666666674428,141.2424519812339 94.46666666679084,129.0571667504264 93.60000000009313,129.41982625983655 93.33333333348855,131.81337562022964" stroke="#4dd2ff" stroke-linecap="round" stroke-linejoin="round" stroke-width="0.5"><title>2024-04-11 3.0km</title><desc>1712828151000</desc></polyline><polyline fill="none" points="114.68758589122444,119.66455110465176 113.83368490822613,140.8000333942473 117.035813591443,146.14194570016116 123.0131204649806,147.76774327387102 132.83298175875098,141.49680508556776 134.32730847690254,118.73551561543718 125.36134816519916,112.0 116.60886309947819,116.41292567458004 114.04716015420854,140.33551884675398 120.66489276476204,147.30322976852767 128.35000160243362,146.37420254875906 132.40603126678616,142.19357662112452 134.54078372195363,120.36132753989659 127.49610062129796,112.6967781551648 120.87836800981313,113.16129683866166 116.3953878544271,117.80647984752432 113.40673441812396,140.1032615462318 122.15921948291361,148.0 132.40603126678616,143.1226050911937 135.18120945896953,123.61294883536175 134.32730847690254,116.87744380184449 130.27127881161869,113.3935561538674 122.15921948291361,112.23225940275006 117.24928883556277,114.78711168235168 111.48545720800757,123.61294883536175 114.04716015420854,140.56777612888254 118.31666506361216,146.8387161931023 126.42872439231724,147.53548652934842 132.19255602173507,142.65809089131653 134.11383323185146,121.98713861336 128.77695209346712,112.6967781551648 122.3726947279647,112.0 116.60886309947819,115.48388921190053 114.04716015420854,140.33551884675398 119.81099178176373,147.30322976852767 127.49610062129796,147.07097298954614 133.04645700380206,140.56777612888254 134.96773421391845,121.29036254296079 131.76560553070158,115.2516300524585 125.57482341118157,112.23225940275006 116.3953878544271,116.1806665849872 113.83368490822613,139.87100422848016 120.02446702774614,147.07097298954614 127.49610062129796,146.8387161931023 133.25993224885315,140.8000333942473 134.75425896700472,121.29036254296079 128.9904273385182,112.6967781551648 118.10318981856108,113.62581545230933 114.90106113534421,119.89680993393995 114.68758589122444,142.89034799975343 125.14787292014807,147.53548652934842 132.40603126678616,140.8000333942473 133.25993224885315,119.89680993393995 130.27127881161869,114.55485247145407 124.29397193808109,113.16129683866166 116.60886309947819,119.20003339461982 114.90106113534421,140.1032615462318 123.6535462019965,147.07097298954614 131.97908077575266,141.49680508556776 133.47340749483556,121.52262125024572 131.33865503873676,115.94840747769922 125.57482341118157,113.16129683866166 116.60886309947819,118.9677745134104 113.83368490822613,140.33551884675398 122.15921948291361,148.0 127.92305111140013,147.53548652934842 130.48475405853242,143.1226050911937 133.25993224885315,121.0581038184464 126.42872439231724,113.62581545230933 121.09184325486422,114.09033399634063 116.8223383454606,119.20003339461982 114.90106113534421,139.40648954198696 122.3726947279647,146.60645937989466 131.33865503873676,142.65809089131653 133.25993224885315,119.89680993393995 126.00177390221506,113.3935561538674 117.035813591443,119.20003339461982 115.11453638132662,139.87100422848016 122.15921948291361,146.8387161931023 131.5521302856505,141.03229064284824 133.25993224885315,119.89680993393995 125.14787292014807,113.62581545230933 116.60886309947819,119.43229225859977 114.90106113534421,140.1032615462318 123.86702144797891,147.07097298954614 131.33865503873676,141.9613194600679 133.04645700380206,119.20003339461982 125.78829865623266,113.62581545230933 116.8223383454606,118.03873881534673 114.26063539925963,139.87100422848016 121.30531850084662,146.8387161931023 131.33865503873676,142.65809089131653 134.11383323185146,121.0581038184464 126.00177390221506,113.62581545230933 120.45141751877964,114.55485247145407 114.90106113534421,120.8258450764697 113.19325917121023,139.40648954198696" stroke="#4dd2ff" stroke-linecap="round" stroke-linejoin="round" stroke-width="0.5"><title>2024-04-09 5.6km</title><desc>1712653834000</desc></polyline><polyline fill="none" points="160.53122810088098,118.56606966350228 160.11501834727824,139.84909410309047 163.6528012547642,146.1886894754134 168.64731829985976,147.09434487274848 174.47425485309213,145.96227558329701 178.63635239191353,140.5283370995894 180.5092962840572,118.11323772999458 176.97151337657124,113.35849834070541 170.52026219293475,112.0 161.98796223849058,118.79248560452834 160.53122810088098,140.75475139776245 169.89594756159931,147.5471724702511 178.63635239191353,140.5283370995894 180.09308653045446,119.2453174367547 175.09856948442757,113.13208199315704 170.72836706973612,112.67924924637191 161.98796223849058,119.2453174367547 159.69880859274417,139.3962653542403 163.6528012547642,145.7358616751153 169.68784268386662,147.5471724702511 178.8444572687149,140.30192278441973 180.71740116085857,120.1509808965493 172.80941583868116,112.22641643229872 164.90143051557243,113.81133098574355 161.36364760808647,118.33965370524675 160.11501834727824,141.2075799438171 169.0635280534625,147.32075868011452 178.42824751511216,141.2075799438171 180.5092962840572,118.33965370524675 177.59582800790668,114.037747282302 171.14457682333887,112.22641643229872 161.57175248488784,118.79248560452834 160.11501834727824,141.66040842118673 169.0635280534625,148.0 178.2201426383108,141.66040842118673 180.5092962840572,117.88682173844427 170.93647194560617,112.4528328482993 161.98796223849058,117.66040572966449 159.49070371501148,140.75475139776245 166.56626953091472,148.0 172.18510120734572,147.32075868011452 177.80393288377672,141.66040842118673 180.30119140725583,118.33965370524675 177.59582800790668,114.037747282302 170.52026219293475,112.22641643229872 161.36364760808647,119.01890152902342 159.90691347047687,141.66040842118673 163.44469637796283,146.41510334983468 169.0635280534625,147.77358624362387 178.2201426383108,141.8868226353079 180.71740116085857,119.01890152902342 178.0120377605781,114.26416356186382 170.93647194560617,112.4528328482993 161.57175248488784,117.66040572966449 159.28259883914143,139.3962653542403 166.15005977638066,147.32075868011452 172.60131096094847,147.32075868011452 177.80393288377672,142.79247932019643 180.92550603765994,123.32080087205395 176.76340849883854,113.13208199315704 164.277115884237,114.037747282302 160.94743785448372,119.69814920029603 160.3231232231483,142.33965101116337 165.1095353923738,147.09434487274848 170.93647194560617,147.5471724702511 179.05256214458495,139.62267973762937 180.5092962840572,119.69814920029603 177.1796182533726,114.26416356186382 169.0635280534625,112.22641643229872 161.36364760808647,118.33965370524675 159.49070371501148,140.75475139776245 168.85542317666113,148.0 178.42824751511216,141.66040842118673 180.5092962840572,118.79248560452834 178.2201426383108,114.71699607139453 171.14457682333887,112.0 164.90143051557243,114.26416356186382 160.94743785448372,120.1509808965493 161.1555427312851,140.5283370995894 169.2716329311952,146.1886894754134 177.1796182533726,140.9811656794045 178.63635239191353,119.01890152902342 171.7688914546743,113.35849834070541 160.73933297675103,120.83022831380367 159.07449396234006,138.0377787007019" stroke="#4dd2ff" stroke-linecap="round" stroke-linejoin="round" stroke-width="0.5"><title>2024-04-08 5.0km</title><desc>1712568268000</desc></polyline><polyline fill="none" points="19.7485990235582,165.25158479553647 21.9815774532035,182.25769813661464 27.462524510920048,185.3497082204558 34.16145980171859,183.5828457120806 38.62741666287184,177.8405352574773 38.01842254586518,155.09204177255742 28.680512744933367,152.0 21.16958529688418,159.95095801516436 20.763589218258858,182.03684015013278 25.838540197350085,186.01228138781153 34.567455880343914,184.90799269266427 38.22142058517784,178.50311011075974 38.4244186244905,155.31290177535266 27.056528432294726,152.88344083726406 20.763589218258858,162.60127259464934 20.560591180808842,181.37426608987153 26.447534315288067,185.79142368212342 34.16145980171859,184.90799269266427 38.62741666287184,178.50311011075974 38.22142058517784,154.8711817532312 27.462524510920048,152.88344083726406 21.37258333619684,159.28837899840437 19.95159706287086,180.26997565920465 28.883510784246027,186.6748544073198 38.01842254586518,179.82825937122107 39.43940882012248,159.06751929339953 35.988442154601216,153.54602129128762 30.50749509781599,152.4417204519268 24.823550001718104,153.98774151154794 21.77857941482216,158.84665957116522 20.560591180808842,180.93254996673204 24.214555883780122,185.3497082204558 32.13147941045463,185.79142368212342 38.22142058517784,179.82825937122107 38.8304147021845,156.85892133158632 31.928481372073293,152.22086023399606 21.9815774532035,158.1840803064406 20.15459510218352,179.82825937122107 23.605561766773462,184.90799269266427 28.680512744933367,186.01228138781153 37.81542450655252,181.15340803703293 39.8454048987478,159.95095801516436 37.0034323502332,154.6503217178397 30.10149901919067,152.88344083726406 23.808559806086123,155.9754816845525 20.96658725850284,161.49697514250875 20.560591180808842,183.1411299200263 23.808559806086123,186.6748544073198 30.913491176441312,186.89571204781532 37.81542450655252,179.60740120266564 39.8454048987478,158.62579983263277 30.71049313619733,152.66258065239526 21.9815774532035,158.404940078035 19.545600983314216,180.7116918808315 26.650532353669405,187.77914244239219 37.81542450655252,180.04911752347834 39.64240685850382,159.06751929339953 35.78544411435723,153.3251611564774 30.50749509781599,152.4417204519268 21.5755813755095,158.84665957116522 20.35759314056486,180.7116918808315 29.69550294149667,186.23313907766715 37.81542450655252,179.16568481526338 39.43940882012248,157.5215008938685 30.71049313619733,152.88344083726406 21.5755813755095,159.28837899840437 20.15459510218352,179.82825937122107 24.214555883780122,184.90799269266427 30.30449705850333,186.23313907766715 38.01842254586518,179.16568481526338 39.43940882012248,157.5215008938685 35.78544411435723,153.54602129128762 28.07151862885803,152.88344083726406 20.763589218258858,162.1595536635723 20.15459510218352,182.920271998737 23.605561766773462,186.89571204781532 31.928481372073293,186.45399675075896 38.22142058517784,178.50311011075974 38.4244186244905,155.75462173111737 29.28950686380267,152.0 21.37258333619684,159.28837899840437 20.15459510218352,180.04911752347834 26.041538236662745,185.79142368212342 31.928481372073293,185.57056595920585 38.4244186244905,178.28225184348412 39.43940882012248,157.96322051854804 35.988442154601216,153.54602129128762 29.086508823558688,152.66258065239526 21.16958529688418,159.95095801516436 20.96658725850284,181.59512412617914 26.650532353669405,186.6748544073198 34.16145980171859,185.57056595920585 39.03341274242848,172.76078977715224 37.0034323502332,155.9754816845525 25.432544118724763,154.4294616652187 19.95159706287086,166.79759914707392 20.763589218258858,184.46627709828317 25.432544118724763,187.5582848689519 33.146469607017934,186.01228138781153 38.4244186244905,178.0613935587462 40.04840293712914,160.61353688314557 38.01842254586518,155.09204177255742 30.913491176441312,152.88344083726406 24.823550001718104,154.6503217178397 19.95159706287086,166.5767400036566 20.763589218258858,184.46627709828317 25.229546080343425,187.3374272780493 33.34946764539927,185.79142368212342 38.4244186244905,178.0613935587462 38.22142058517784,155.75462173111737 27.66552255023271,152.66258065239526 20.96658725850284,161.71783466590568 21.37258333619684,182.25769813661464 27.66552255023271,187.3374272780493 34.770453919656575,186.89571204781532 38.62741666287184,181.59512412617914 38.8304147021845,156.63806144427508 26.85353039391339,152.66258065239526 20.560591180808842,161.05525604565628 19.545600983314216,181.81598214642145 22.793569610454142,186.6748544073198 29.89850097987801,187.77914244239219 38.4244186244905,179.38654301688075 39.23641078080982,157.30064105591737 27.868520588614047,152.88344083726406 20.35759314056486,161.9386941732373 19.7485990235582,183.1411299200263 23.605561766773462,187.1165696713142 30.10149901919067,187.5582848689519 36.191440192982554,184.46627709828317 39.03341274242848,178.7239683624357 39.8454048987478,157.30064105591737 28.680512744933367,152.4417204519268 20.560591180808842,160.1718176540453 19.7485990235582,182.25769813661464 23.402563728392124,186.45399675075896 30.913491176441312,188.0 38.22142058517784,182.03684015013278 39.8454048987478,158.1840803064406 37.0034323502332,154.20860159629956 29.28950686380267,152.4417204519268 21.16958529688418,158.84665957116522 18.93660686723888,180.26997565920465 21.5755813755095,185.12885046424344 27.462524510920048,187.5582848689519 37.81542450655252,182.03684015013278 40.04840293712914,159.95095801516436 31.11648921482265,152.4417204519268 21.9815774532035,158.1840803064406 19.7485990235582,179.82825937122107 29.492504901252687,187.5582848689519 38.62741666287184,182.25769813661464 40.65739705506712,161.05525604565628 36.80043431092054,154.8711817532312 31.11648921482265,152.88344083726406 21.5755813755095,158.84665957116522 19.545600983314216,180.49083377839997 22.59057157114148,185.3497082204558 29.492504901252687,187.5582848689519 38.8304147021845,180.93254996673204 40.2514009764418,161.05525604565628 37.61242646723986,155.75462173111737 30.71049313619733,152.4417204519268 21.37258333619684,159.06751929339953 19.95159706287086,181.15340803703293 23.19956568814814,185.57056595920585 29.492504901252687,187.3374272780493 38.01842254586518,181.81598214642145 39.8454048987478,160.1718176540453 30.50749509781599,152.88344083726406 21.37258333619684,159.95095801516436 19.7485990235582,181.37426608987153 29.89850097987801,186.89571204781532 38.4244186244905,180.49083377839997 40.2514009764418,159.50923868711106 29.89850097987801,152.66258065239526 21.16958529688418,159.95095801516436 19.95159706287086,180.49083377839997 29.69550294149667,186.89571204781532 38.22142058517784,180.93254996673204 39.64240685850382,159.28837899840437 35.379448036663234,153.7668814100325 29.492504901252687,152.88344083726406 21.5755813755095,160.3926772766281 19.545600983314216,180.7116918808315 28.47751470655203,187.5582848689519 38.22142058517784,182.6994140613824 41.06339313276112,161.27611560258083 37.409428427927196,154.4294616652187 25.838540197350085,153.7668814100325 21.16958529688418,160.61353688314557 19.95159706287086,177.8405352574773" stroke="#4dd2ff" stroke-linecap="round" stroke-linejoin="round" stroke-width="0.5"><title>2024-04-06 11.8km</title><desc>1712394949000</desc></polyline><polyline fill="none" points="68.07220712304115,183.55846398649737 76.02208220027387,188.0 83.54223430156708,181.68834167066962 86.12057216465473,161.35068922280334 83.54223430156708,154.5714423255995 75.59235922433436,152.70130266225897 70.43568349722773,156.20781361334957 67.42762265726924,177.24679668596946 73.01402136031538,186.1298803430982 83.54223430156708,182.38963767001405 86.33543365355581,160.18185460055247 82.25306537002325,154.33767492882907 75.1626362465322,153.63637263397686 70.22082200925797,157.37664972199127 67.64248414617032,179.116921659559 73.22888285014778,186.36364536103792 82.89764983579516,183.3246987578459 85.69084918685257,160.64938850165345 80.96389643847942,153.87014008359984 74.08832880388945,153.87014008359984 70.0059605203569,158.07795117795467 67.64248414617032,178.4156249256339 72.15457540657371,185.89611530699767 83.11251132376492,183.09093351243064 85.90571067575365,160.64938850165345 79.67472750600427,153.40260516735725 69.79109903238714,157.61041689128615 66.9978996803984,180.5195146559272 74.94777475856245,186.83117534592748 83.75709578953683,181.4545763025526 86.12057216465473,160.88315542577766 83.327372812666,155.2727444106713 77.95583559852093,152.93507018173113 69.1465145656839,158.311718294397 66.9978996803984,178.88315609912388 74.08832880388945,186.59741036244668 83.97195727843791,181.2208109172061 85.90571067575365,160.4156215598341 77.74097410961986,152.93507018173113 69.57623754441738,158.07795117795467 67.64248414617032,179.58445272780955 74.94777475856245,186.83117534592748 83.97195727843791,181.2208109172061 85.69084918685257,159.01301954011433 77.09638964384794,153.16883768350817 69.57623754441738,158.311718294397 67.8573456350714,180.28574919956736 76.23694369010627,186.59741036244668 84.40168025530875,180.75328009319492 86.12057216465473,159.71432062867098 78.38555857446045,153.16883768350817 69.1465145656839,159.01301954011433 67.64248414617032,180.28574919956736 75.37749773450196,186.83117534592748 84.18681876733899,181.4545763025526 86.12057216465473,159.94808762311004 77.5261126216501,153.16883768350817 69.1465145656839,159.01301954011433 67.42762265726924,180.28574919956736 76.23694369010627,186.83117534592748 83.97195727843791,181.4545763025526 85.90571067575365,159.94808762311004 78.60042006429285,152.93507018173113 69.36137605458498,158.07795117795467 67.64248414617032,179.35068720206618 74.51805178169161,186.59741036244668 80.74903494957834,185.42858518264256 84.18681876733899,181.2208109172061 86.12057216465473,159.24678658717312 78.38555857446045,152.93507018173113 69.79109903238714,157.8441840435844 67.42762265726924,179.35068720206618 73.8734673159197,186.59741036244668 83.75709578953683,182.1558723547496 85.90571067575365,160.18185460055247 79.03014304023236,152.46753512625583 70.0059605203569,157.37664972199127 67.42762265726924,179.58445272780955 74.73291326873004,186.59741036244668 81.39361941535026,185.19482009438798 84.61654174420983,180.5195146559272 85.47598769888282,158.77925247582607 76.88152815587819,152.70130266225897 69.1465145656839,158.54548539384268 67.64248414617032,180.987045513466 75.59235922433436,186.83117534592748 84.18681876733899,180.75328009319492 85.90571067575365,159.94808762311004 77.74097410961986,152.93507018173113 68.93165307864547,159.48055361700244 67.64248414617032,179.58445272780955 75.37749773450196,186.59741036244668 83.97195727843791,181.68834167066962 85.90571067575365,160.18185460055247 77.09638964384794,152.93507018173113 69.36137605458498,158.77925247582607 67.64248414617032,180.5195146559272 72.79915987234563,186.36364536103792 83.54223430156708,182.38963767001405 86.33543365355581,160.4156215598341 77.74097410961986,152.70130266225897 69.79109903238714,157.8441840435844 68.07220712304115,180.05198372644372 76.23694369010627,186.83117534592748 84.18681876733899,180.75328009319492 86.12057216465473,160.18185460055247 82.03820388019085,154.10390751506202 76.88152815587819,152.70130266225897 69.57623754441738,158.77925247582607 67.64248414617032,179.81821823655628 76.23694369010627,186.83117534592748 83.97195727843791,182.38963767001405 85.90571067575365,159.48055361700244 77.74097410961986,152.23376757162623 70.22082200925797,156.44158086995594 67.64248414617032,179.81821823655628 70.6505449861288,184.96105498890392 76.45180517807603,186.83117534592748 84.61654174420983,180.28574919956736 85.90571067575365,159.48055361700244 81.82334239315242,153.63637263397686 76.23694369010627,152.46753512625583 69.57623754441738,158.07795117795467 67.8573456350714,180.5195146559272 77.09638964384794,187.29870526026934 84.18681876733899,181.68834167066962 85.69084918685257,159.48055361700244 77.31125113274902,152.0 69.36137605458498,158.07795117795467 67.42762265726924,179.116921659559 74.08832880388945,186.59741036244668 83.97195727843791,181.92210702155717 85.69084918685257,159.71432062867098 78.38555857446045,152.70130266225897 72.79915987234563,153.40260516735725 69.36137605458498,159.01301954011433 67.64248414617032,179.81821823655628 75.80722071323544,186.83117534592748 84.40168025530875,181.2208109172061 85.69084918685257,160.18185460055247 77.95583559852093,152.46753512625583 69.36137605458498,158.77925247582607 67.8573456350714,180.75328009319492 75.59235922433436,187.29870526026934 84.18681876733899,181.2208109172061 85.69084918685257,158.77925247582607 82.25306537002325,154.10390751506202 75.59235922433436,152.70130266225897 69.36137605458498,158.77925247582607 68.07220712304115,180.75328009319492 76.88152815587819,186.83117534592748 84.40168025530875,180.05198372644372 85.90571067575365,159.01301954011433 76.45180517807603,152.46753512625583 70.43568349722773,156.67534810886718 67.21276116929948,164.6234238401521 66.9978996803984,182.62340296804905" stroke="#4dd2ff" stroke-linecap="round" stroke-linejoin="round" stroke-width="0.5"><title>2024-04-03 9.7km</title><desc>1712137473000</desc></polyline><polyline fill="none" points="110.46551896166056,173.88240205077454 116.30469523090869,172.70593269425444 114.14203735347837,179.05886198906228 118.89988468401134,186.35295017133467 129.9294398603961,186.35295017133467 136.20114770624787,163.29416200425476 132.74089510180056,153.41177246859297 124.52279516682029,152.0 118.68361889570951,155.29413477377966 116.08842944353819,178.82356854062527 119.11615047231317,186.82353592454456 126.68545304425061,186.82353592454456 132.3083635251969,182.82355477591045 134.68728719186038,161.1765097170137 129.49690828565508,154.1176584654022 118.89988468401134,158.3529711177107 116.08842944353819,180.7059156380128 122.79266886413097,187.29412160813808 132.3083635251969,182.3529684243258 134.25475561525673,160.94121493096463 128.1993135586381,153.41177246859297 118.68361889570951,158.3529711177107 116.30469523090869,181.41179550881498 123.65773201547563,187.76470722071826 132.3083635251969,182.5882616089657 134.68728719186038,160.70592012698762 128.84811092168093,153.88236315036193 122.79266886413097,154.58824904100038 118.25108732096851,159.29415093222633 115.87216365523636,180.7059156380128 123.0089346524328,188.0 132.09209773875773,182.5882616089657 134.47102140448987,160.0000356088858 128.84811092168093,153.88236315036193 118.25108732096851,159.0588560050819 115.87216365523636,179.5294488342479 118.68361889570951,185.6470714090392 124.73906095419079,187.76470722071826 132.95716088917106,181.6470887644682 134.47102140448987,160.23533046571538 128.6318451333791,153.64706781809218 123.87399780284613,153.64706781809218 118.25108732096851,158.82356106000952 115.87216365523636,179.76474222983234 122.36013728845865,187.76470722071826 131.8758319504559,183.52943417197093 134.68728719186038,161.1765097170137 130.36197143606842,154.1176584654022 124.73906095419079,153.88236315036193 118.46735310927033,158.82356106000952 116.08842944353819,180.2353289697785 121.06254256144166,187.0588287753053 132.3083635251969,185.88236434734426" stroke="#4dd2ff" stroke-linecap="round" stroke-linejoin="round" stroke-width="0.5"><title>2024-04-02 3.0km</title><desc>1712049520000</desc></polyline><polyline fill="none" points="162.82693103794008,163.32871285523288 161.4385951096192,182.96505812904797 165.60360289458185,187.24475919967517 171.85111457202584,187.49650615244173 176.4789009988308,182.20981619879603 178.79279421269894,157.2867374115158 170.92555728647858,152.0 163.52109900210053,158.0419849352911 161.2072057891637,182.20981619879603 165.14082425273955,186.99301222898066 171.61972525063902,187.49650615244173 176.4789009988308,181.95806885091588 178.79279421269894,157.53848660504445 171.1569466078654,152.0 163.52109900210053,157.790235779481 160.9758164677769,181.45457409857772 169.0744427163154,188.0 176.4789009988308,182.46156352804974 179.02418353315443,158.54548319033347 172.08250389248133,152.0 163.52109900210053,157.790235779481 160.9758164677769,181.7063214846421 168.38027475122362,188.0 176.24751167744398,182.96505812904797 179.02418353315443,158.79723228956573 172.31389321479946,152.0 163.52109900210053,157.53848660504445 160.9758164677769,181.45457409857772 167.91749610845,188.0 176.24751167744398,182.96505812904797 179.25557285454124,159.30073043168522 173.0080611789599,152.25174958934076 163.75248832441866,157.03498819912784 160.9758164677769,180.95107927243225 168.38027475122362,188.0 176.24751167744398,182.96505812904797 179.02418353315443,158.79723228956573 172.08250389248133,152.0 163.75248832441866,157.03498819912784 160.9758164677769,181.45457409857772 168.61166407261044,188.0 176.4789009988308,182.20981619879603 179.02418353315443,159.04898137017153 171.85111457202584,152.0 163.52109900210053,158.0419849352911 160.9758164677769,181.7063214846421 168.61166407261044,188.0 176.4789009988308,182.46156352804974 179.02418353315443,158.2937340727076 171.61972525063902,152.0 163.52109900210053,158.0419849352911 160.9758164677769,181.20282669458538 163.98387764580548,186.23777120211162 170.23138932231814,187.74825308588333 176.4789009988308,182.20981619879603 179.02418353315443,158.54548319033347 171.1569466078654,152.0 163.52109900210053,158.0419849352911 160.9758164677769,180.95107927243225 167.91749610845,188.0 176.24751167744398,182.96505812904797 179.25557285454124,159.8042284976691 172.77667185664177,152.25174958934076 163.98387764580548,156.7832389685791 160.9758164677769,180.95107927243225 166.2977708587423,187.49650615244173 176.24751167744398,182.96505812904797 179.25557285454124,159.30073043168522 173.2394504994154,152.25174958934076 164.44665628764778,155.77624185592867 160.74442714545876,180.19583688979037 163.75248832441866,186.23777120211162 170.0,188.0 175.55334371328354,184.22379430336878 179.25557285454124,160.81122440565377 174.62778642773628,152.75524870981462 165.83499221596867,154.01399618387222 161.90137375332415,183.72029989003204 166.76054950151592,187.74825308588333 173.0080611789599,186.74126523872837 177.63584760576487,174.65738757350482" stroke="#4dd2ff" stroke-linecap="round" stroke-linejoin="round" stroke-width="0.5"><title>2024-03-30 4.8km</title><desc>1711782999000</desc></polyline><polyline fill="none" points="19.645719839259982,206.6939253672026 21.221371166408062,223.3469610530883 25.94832515437156,227.2653100802563 33.15130265709013,226.77551670838147 38.55353578366339,219.67350458097644 38.10334969032556,194.69389125495218 27.298883436247706,192.7346978345886 21.446464214473963,199.34697092790157 21.446464214473963,222.61227008863352 27.74906952958554,228.0 34.72695398516953,226.28572326269932 38.77862883172929,219.67350458097644 40.354280159808695,201.3061603908427 37.87825664319098,194.20409300969914 29.999999999068677,192.0 24.59776687156409,195.42858848464675 20.54609202593565,219.1837100731209 22.79702249635011,224.81634248793125 29.324720858596265,228.0 38.55353578366339,221.38778478093445 39.453907972201705,196.65308350254782 29.77490695286542,192.48979857494123 21.896650307811797,199.591869674623 21.896650307811797,224.57144562760368 30.450186093337834,227.75510337855667 36.97788445558399,223.83675493765622 39.90409406553954,201.55105899111368 38.328442737460136,195.42858848464675 33.37639570329338,192.2448992971331 23.247208589687943,196.4081845358014 20.32099897880107,220.65309337619692 25.94832515437156,227.2653100802563 36.75279140844941,223.3469610530883 39.90409406553954,201.3061603908427 35.177140079438686,193.4693955045659 23.247208589687943,193.4693955045659" stroke="#4dd2ff" stroke-linecap="round" stroke-linejoin="round" stroke-width="0.5"><title>2024-03-28 2.0km</title><desc>1711615120000</desc></polyline><polyline fill="none" points="67.56728330627084,207.30005265027285 65.29243746586144,207.750053020427 67.56728330627084,209.55005382816307 65.08563329838216,208.42505344958045 67.56728330627084,209.10005372739397 68.18769580870867,223.27502456586808 72.73738748859614,227.32500396389514 79.97553334385157,227.55000265920535 86.17965836171061,219.90003756829537 87.21367919724435,196.2750225465279 82.25037918332964,192.45000265957788 76.0462541654706,192.45000265957788 68.80810831021518,200.55003901640885 67.36047913879156,221.02503365511075 75.21903749648482,228.0 85.14563752524555,222.15002932073548 87.00687503162771,198.52503197267652 83.90481252130121,193.12500652228482 78.9415125073865,192.0 69.63532497826964,198.30003110552207 68.18769580870867,219.22503971401602 71.08295415062457,224.85001720208675 76.25305833201855,226.87500652275048 84.11161668971181,222.15002932073548 86.17965836171061,200.32503830105998 78.9415125073865,193.35000777663663 70.66934581566602,198.52503197267652 69.2217166442424,220.8000344708562 76.66666666604578,226.87500652275048 84.732029190287,220.8000344708562 85.97285419423133,197.8500293213874 78.52790417242795,192.90000525140204 70.66934581566602,199.20003447169438 69.01491247676313,220.12503681937233 75.42584166303277,226.87500652275048 84.52522502373904,220.8000344708562 85.97285419423133,199.42503527132794 77.70068750344217,192.45000265957788 70.87614998221397,198.52503197267652 68.6013041427359,220.12503681937233 75.83944999799132,226.87500652275048 84.93883335776627,220.8000344708562 86.59326669666916,199.42503527132794 79.35512084141374,192.90000525140204 71.08295415062457,198.30003110552207 68.80810831021518,219.90003756829537 70.25573748070747,224.62501830467954 75.42584166303277,226.4250090138521 84.732029190287,221.47503197169863 86.59326669666916,200.77503971522674 79.56192500889301,193.8000102341175 70.87614998221397,198.0750302216038 68.80810831021518,220.8000344708562 76.25305833201855,226.65000777621754 84.732029190287,221.02503365511075 86.38646252918988,198.52503197267652 78.73470833990723,193.35000777663663 70.87614998221397,199.20003447169438 68.80810831021518,220.35003605415113 76.25305833201855,226.87500652275048 82.87079168576747,225.97501143696718 85.97285419423133,221.70003110496327 88.24770003464073,200.10003756918013" stroke="#4dd2ff" stroke-linecap="round" stroke-linejoin="round" stroke-width="0.5"><title>2024-03-26 3.7km</title><desc>1711445960000</desc></polyline><polyline fill="none" points="113.62732150964439,219.60003613168374 121.5686039114371,228.0 131.0540245557204,222.4800262216013 132.8187539782375,198.24002894153818 127.96574806701392,192.0 116.49500682204962,196.08002029685304 113.40673033334315,218.88003820506856 115.39205093309283,224.40001817792654 122.23037744499743,227.7600013371557 130.61284219939262,222.96002431795932 133.25993633270264,199.44003311591223 128.84811277780682,192.2400013373699 117.15678035560995,197.04002431873232 114.28909504413605,210.96005035145208 116.93618917744607,224.40001817792654 122.67155979946256,227.04000524268486 127.96574806701392,224.88001598790288 132.59816280007362,200.8800375328865 128.84811277780682,193.92001019744202 122.45096862223,193.20000650780275 118.03914506640285,196.80002334038727 115.17145975492895,217.92004071897827 120.02446566615254,226.32000898616388 129.0687039559707,223.44002234353684 132.59816280007362,199.92003465956077 127.52456571068615,192.96000524237752 118.03914506640285,197.04002431873232 115.17145975492895,218.40003949822858 120.24505684431642,226.32000898616388 128.84811277780682,223.44002234353684 131.0540245557204,195.60001817787997 123.55392451025546,192.48000265681185 117.3773715319112,198.7200306651648 115.39205093309283,221.28003066475503 119.3626921325922,225.84001139178872 125.53924511093646,226.08001019759104" stroke="#4dd2ff" stroke-linecap="round" stroke-linejoin="round" stroke-width="0.5"><title>2024-03-25 2.1km</title><desc>1711359274000</desc></polyline><polyline fill="none" points="174.56029634084553,224.53847979404964 178.80243247095495,201.00003938702866 173.92397592123598,193.61539361812174 162.8944219816476,198.46156939771026 160.56124711036682,218.07696501840837 166.9244513064623,226.61539238411933 176.25715079251677,222.92310236906633 178.80243247095495,201.00003938702866 172.65133508201689,193.84616406611167 162.8944219816476,198.6923394834157 160.56124711036682,219.46157646668144 167.34866491891444,226.61539238411933 176.46925759967417,222.23079749941826 178.80243247095495,200.0769596323371 172.4392282757908,193.84616406611167 162.8944219816476,198.46156939771026 160.77335391752422,219.69234498101287 162.68231517635286,224.53847979404964 168.62130575813353,226.84616036294028 176.68136440590024,221.30772409797646 178.80243247095495,201.46157916006632 173.28765550162643,193.84616406611167 162.8944219816476,197.53848888352513 160.77335391752422,219.69234498101287 167.34866491891444,227.07692832523026 176.04504398722202,222.69233409664594 178.80243247095495,201.00003938702866 172.86344188917428,193.384623153368 163.106528788805,197.30771871237084 160.56124711036682,220.1538819577545 162.68231517635286,224.76924792909995 169.04551937058568,227.30769627005793 176.89347121212631,221.07695570518263 178.59032566472888,199.84618965047412 172.01501466240734,193.384623153368 166.07602407969534,194.53847530600615 162.47020836919546,199.15387960150838 160.9854607237503,221.30772409797646 169.25762617774308,226.84616036294028 177.1055780192837,220.38465042086318 178.59032566472888,200.0769596323371 172.4392282757908,193.384623153368 162.68231517635286,199.15387960150838 160.77335391752422,220.61541886557825 168.19709214568138,226.61539238411933 176.25715079251677,222.23079749941826 178.59032566472888,199.84618965047412 171.16658743657172,193.384623153368 162.47020836919546,198.9231095511932 160.9854607237503,220.84618729376234 168.19709214568138,227.07692832523026 176.68136440590024,222.23079749941826 178.80243247095495,200.0769596323371 175.19661676045507,194.07693449687213 163.3186355959624,197.30771871237084 160.77335391752422,218.30773363588378 165.86391727346927,226.61539238411933 176.04504398722202,223.15387062425725 178.80243247095495,200.53849954390898 172.22712146956474,193.61539361812174 162.8944219816476,198.00002917530946 160.77335391752422,219.92311347764917 166.7123444993049,226.38462438760325 175.83293718006462,223.84617528691888 179.01453927811235,201.2308092820458 174.77240314800292,194.07693449687213 168.19709214568138,193.384623153368 163.106528788805,198.00002917530946 159.28860627114773,218.07696501840837 160.9854607237503,224.30771164270118 166.9244513064623,228.0 172.4392282757908,227.76923210755922 177.52979163173586,222.92310236906633 180.7113937297836,201.69234902062453 174.984509954229,192.46154112019576 167.98498533852398,192.0 161.83388794958591,197.07694852352142 159.28860627114773,219.23080793465488 165.86391727346927,227.30769627005793 176.89347121212631,225.46155222924426" stroke="#4dd2ff" stroke-linecap="round" stroke-linejoin="round" stroke-width="0.5"><title>2024-03-24 4.9km</title><desc>1711273464000</desc></polyline><polyline fill="none" points="19.85010259784758,258.06139355921187 21.677084130235016,264.466277098516 26.752032831311226,267.7791424423922 32.638973323628306,266.67485440778546 37.51092407666147,261.8159821466543 39.54090355709195,238.6257998328656 37.91691997181624,234.65032171760686 31.826981532387435,232.66258065239526 25.128049246035516,234.2086015965324 21.474086182191968,238.84665957163088 20.256098494865,260.93254996743053 24.113059506751597,266.01228138851 31.01498973928392,267.5582848684862 38.32291586883366,259.3865430173464 38.52591381594539,235.75462173088454 31.21798768825829,232.66258065239526 23.707063611596823,235.09204177302308 20.662094390019774,240.39267727709375 19.444106701761484,259.82825937122107 25.940041039139032,268.0 33.044969220645726,266.67485440778546 37.3079261276871,262.03684014989994 40.75889124441892,241.71783466567285 38.11991792079061,234.65032171760686 32.43597537558526,232.44172045146115 23.91006155870855,235.09204177302308 20.865092338994145,239.9509580146987 20.662094390019774,263.8037035835441 26.549034883268178,268.0 32.43597537558526,267.5582848684862 38.52591381594539,259.3865430173464 38.52591381594539,235.75462173088454 28.78201231174171,232.0 21.06809028610587,239.73009835928679 19.647104650735855,260.71169188059866 23.504065662622452,266.45399675075896 30.0,267.33742727781646 38.32291586883366,259.6074012031313 39.134907661005855,236.85892133158632 35.88694049231708,233.1043010049034 28.985010258853436,232.44172045146115 20.865092338994145,240.1718176540453 20.05310054589063,262.4785561077297 31.01498973928392,267.1165696710814 38.11991792079061,259.6074012031313 38.11991792079061,235.75462173088454 30.405995895154774,232.2208602342289 21.474086182191968,237.3006410561502 19.24110875464976,261.1534080368001 23.30106771364808,266.2331390781328 31.01498973928392,267.5582848684862 38.11991792079061,260.04911752347834 37.713922024704516,234.42946166568436 29.79700205102563,232.2208602342289 24.113059506751597,235.09204177302308 19.647104650735855,251.65649612457491 22.28607797436416,265.12885046424344 34.87195075210184,265.7914236818906 39.743901505135,241.05525604612194 35.277946648187935,233.32516115601175 23.91006155870855,235.09204177302308 19.647104650735855,256.9571018887218 21.06809028610587,264.466277098516 26.34603693522513,267.1165696710814 36.495934336446226,263.36198782431893 39.946899452246726,241.49697514227591 37.10492818057537,234.42946166568436 23.707063611596823,234.42946166568436 20.256098494865,247.01845827442594 21.677084130235016,264.466277098516 27.767022571526468,267.5582848684862 35.07494870014489,265.34970822022296 38.32291586883366,260.26997565990314 39.946899452246726,241.71783466567285 36.90193023253232,234.42946166568436 26.955030779354274,232.88344083703123 20.865092338994145,240.1718176540453 19.85010259784758,262.03684014989994 25.534045143052936,267.1165696710814 32.43597537558526,266.2331390781328 37.10492818057537,254.5276587617118 36.089938439428806,235.75462173088454 29.79700205102563,233.76688140979968 23.30106771364808,236.85892133158632 19.444106701761484,250.77306090574712" stroke="#4dd2ff" stroke-linecap="round" stroke-linejoin="round" stroke-width="0.5"><title>2024-03-22 5.0km</title><desc>1711100044000</desc></polyline><polyline fill="none" points="65.70603924058378,245.5000504956115 69.42851648014039,264.62501830467954 75.63264521118253,267.7750013382174 81.836773943156,265.9750114369672 85.97285976447165,261.25003282143734 87.42048980202526,250.90005372674204 84.73203401826322,235.6000193899963 76.25305808428675,232.67500396375544 70.25573364365846,240.32503830082715 69.42851648014039,261.9250302207656 74.3918194649741,267.1000052515883 80.3891439056024,267.1000052515883 85.35244689136744,260.1250368193723 85.14564259909093,238.52503197221085 78.3211009958759,233.5750090132933 70.46253793500364,240.32503830082715 69.42851648014039,261.25003282143734 73.15099371876568,266.2000102335587 78.73470957670361,267.3250039643608 84.73203401826322,259.22503971424885 85.55925118178129,237.85002932092175 79.76873103156686,232.9000052518677 70.46253793500364,238.30003110552207 68.60129931475967,259.9000375682954 77.08027524873614,266.65000777645037 82.45718681626022,265.5250137934927 86.1796640548855,259.22503971424885 86.38646834623069,236.27502254606225 83.9048168528825,232.9000052518677 76.04625379387289,232.0 69.01490789745003,238.75003282213584 67.77408215217292,261.0250336548779 77.08027524873614,268.0 85.55925118178129,259.6750383002218 87.62729409243912,239.875036819838 84.52522972598672,232.22500133840367 71.70336368121207,234.02501143701375 66.74006069637835,256.75004628673196" stroke="#4dd2ff" stroke-linecap="round" stroke-linejoin="round" stroke-width="0.5"><title>2024-03-21 2.2km</title><desc>1711013104000</desc></polyline></svg>