<?xml version="1.0" encoding="utf-8" ?>
<svg baseProfile="full" height="300mm" version="1.1" viewBox="0,0,200,300" width="200mm" xmlns="http://www.w3.org/2000/svg" xmlns:ev="http://www.w3.org/2001/xml-events" xmlns:xlink="http://www.w3.org/1999/xlink"><defs /><rect fill="#222222" height="300" width="200" x="0" y="0" /><text fill="#FFFFFF" style="font-size:12px; font-family:Arial; font-weight:bold;" x="10" y="20">Over 2km Runs</text><text fill="#FFFFFF" style="font-size:4px; font-family:Arial" x="10" y="280">ATHLETE</text><text fill="#FFFFFF" style="font-size:9px; font-family:Arial" x="10" y="290">作怪</text><text fill="#FFFFFF" style="font-size:4px; font-family:Arial" x="120" y="280">STATISTICS</text><text fill="#FFFFFF" style="font-size:3px; font-family:Arial" x="120" y="285">Number: 17</text><text fill="#FFFFFF" style="font-size:3px; font-family:Arial" x="120" y="290">Weekly: 3.4</text><text fill="#FFFFFF" style="font-size:3px; font-family:Arial" x="141" y="285">Total: 84.2 km</text><text fill="#FFFFFF" style="font-size:3px; font-family:Arial" x="141" y="290">Avg: 5.0 km</text><text fill="#FFFFFF" style="font-size:3px; font-family:Arial" x="167" y="285">Min: 2.0 km</text><text fill="#FFFFFF" style="font-size:3px; font-family:Arial" x="167" y="290">Max: 11.8 km</text><polyline fill="none" points="23.775449192151427,41.36254226532765 21.44890230987221,61.10629964922555 26.79996013827622,68.44689801638015 33.08163671940565,70.21876420197077 40.52658674120903,64.90316286194138 43.08578831143677,40.85629056044854 34.71021953690797,33.515632337424904 24.706067943945527,40.35003878059797 23.310139815323055,64.1437905607745 31.918363278731704,70.7250115131028 40.9918961180374,64.90316286194138 42.85313362441957,41.36254226532765 34.01225547213107,33.515632337424904 24.706067943945527,41.36254226532765 23.07748512737453,63.384418088477105 31.453053902834654,69.965640517883 40.9918961180374,64.39691467932425 42.85313362441957,41.61566808866337 35.87349297758192,34.275011513149366 25.171377319842577,39.84378692531027 23.07748512737453,63.89066642150283 31.68570859078318,70.21876420197077 40.9918961180374,64.1437905607745 43.08578831143677,42.12191967945546 34.94287422578782,34.021885140100494 25.171377319842577,40.096912862034515 23.310139815323055,62.87816967815161 25.869341385550797,67.68752650986426 32.61632734257728,70.21876420197077 40.9918961180374,64.39691467932425 42.85313362441957,40.096912862034515 32.848982031457126,33.768758748658 25.171377319842577,40.096912862034515 23.542794504202902,64.1437905607745 32.383672655560076,70.97813514037989 40.75924143008888,64.65003877971321 43.08578831143677,40.85629056044854 34.71021953690797,33.768758748658 25.636686697602272,40.35003878059797 23.07748512737453,62.87816967815161 27.26526951417327,68.95314559270628 33.546946096234024,70.47188786650077 40.9918961180374,64.39691467932425 42.3878242475912,40.60316468006931 33.314291407354176,33.768758748658 25.636686697602272,40.35003878059797 23.775449192151427,62.87816967815161 29.824471085332334,70.21876420197077 40.52658674120903,64.65003877971321 43.08578831143677,42.12191967945546 34.477564848959446,33.768758748658 25.636686697602272,39.84378692531027 23.542794504202902,62.371921193553135 29.824471085332334,70.21876420197077 40.52658674120903,65.15628692437895 43.55109768919647,41.86879389337264 35.40818360168487,34.528137867338955 25.636686697602272,39.84378692531027 23.07748512737453,63.13129389262758 31.220399213954806,70.7250115131028 40.75924143008888,64.39691467932425 42.85313362441957,40.60316468006931 34.94287422578782,34.021885140100494 28.89385233260691,35.28751681558788 25.636686697602272,40.35003878059797 23.542794504202902,64.65003877971321 32.15101796761155,70.7250115131028 41.22455080598593,63.89066642150283 42.85313362441957,40.35003878059797 33.314291407354176,34.275011513149366 25.171377319842577,40.60316468006931 23.775449192151427,64.1437905607745 31.918363278731704,70.21876420197077 40.9918961180374,63.63754226407036 42.85313362441957,40.85629056044854 34.71021953690797,34.021885140100494 25.636686697602272,39.59066096926108 23.310139815323055,64.39691467932425 30.987744526937604,70.47188786650077 40.293932053260505,65.15628692437895 43.08578831143677,41.10941642220132 33.546946096234024,34.021885140100494 24.2407585689798,38.831282986560836 21.44890230987221,63.13129389262758 28.195888267830014,71.23125874809921 35.17552891280502,71.48438233789057 41.6898601828143,66.92815483291633 43.78375237714499,46.4250551413279 38.43269454874098,33.009379459545016 32.15101796761155,32.25 25.636686697602272,37.059400364756584 20.98359293397516,59.081304194405675 23.542794504202902,69.71251681447029 29.35916170850396,72.75 37.26942110713571,71.23125874809921 44.01640706509352,61.61254832427949" stroke="#4dd2ff" stroke-linecap="round" stroke-linejoin="round" stroke-width="0.5"><title>2024-04-15 5.9km</title><desc>1713172666000</desc></polyline><polyline fill="none" points="81.39671856584027,36.53946710494347 81.67178105283529,44.7193428738974 83.68890595808625,46.61467278224882 86.34784333221614,46.41516449768096 88.73171821981668,43.622045379830524 89.19015569798648,34.5443678421434 85.06421839306131,32.25 81.9468435398303,35.54191784677096 81.58009355748072,44.22057139757089 83.23046847945079,46.41516449768096 85.52265587123111,46.714426913065836 88.82340571563691,44.02106275490951 88.91509321145713,33.74632730148733 85.52265587123111,32.3497552057961 82.58865600964054,34.24510269530583 81.39671856584027,43.522291017347015 83.59721846226603,46.51491864351556 86.8062808108516,46.41516449768096 88.91509321145713,44.32032570778392 89.55690568080172,35.04314293793868 86.34784333221614,32.44951040390879 82.03853103611618,35.14289793453645 81.30503107048571,43.12327349325642 84.05565594043583,46.714426913065836 88.45665573282167,45.018605670076795 89.55690568080172,35.34240790538024 86.98965580202639,32.649020777782425 82.58865600964054,34.24510269530583 81.39671856584027,43.82155408221297 83.96396844508126,46.714426913065836 88.18159324582666,45.41762262722477 89.64859317662194,35.940937639563344 87.81484326347709,32.848531121970154 85.61434336705133,32.44951040390879 82.68034350546077,34.045592560316436 81.4884060616605,43.32278227014467 83.78059345344082,46.61467278224882 88.18159324582666,45.41762262722477 88.91509321145713,33.74632730148733 84.69746841024607,32.649020777782425 82.13021853100508,35.34240790538024 81.67178105283529,44.32032570778392 85.61434336705133,46.714426913065836 88.82340571563691,44.12081707990728 89.37353068962693,35.14289793453645 86.07278084522113,32.54926559445448 82.13021853100508,35.14289793453645 81.4884060616605,44.32032570778392 84.78915590560064,46.714426913065836 88.5483432286419,44.22057139757089 89.37353068962693,35.242652923683636 85.79771835822612,32.3497552057961 82.22190602729097,34.943387933657505 81.4884060616605,44.42008001054637 84.51409341860563,46.714426913065836 87.17303079320118,46.31541034427937 88.82340571563691,44.22057139757089 89.46521818544716,34.943387933657505 85.98109334986657,32.44951040390879 82.22190602729097,35.04314293793868 81.67178105283529,44.02106275490951 84.69746841024607,46.714426913065836 88.45665573282167,44.918851411901414 89.55690568080172,35.04314293793868 85.98109334986657,32.44951040390879 82.3135935231112,34.6441228762269 81.58009355748072,43.72179973497987 84.33071842743084,46.714426913065836 88.45665573282167,44.8190971466247 89.46521818544716,35.44216287997551 86.53121832385659,32.54926559445448 82.49696851428598,34.344857751741074 81.4884060616605,44.22057139757089 84.51409341860563,46.81418103678152 88.5483432286419,44.918851411901414 89.46521818544716,35.34240790538024 86.53121832385659,32.54926559445448 81.39671856584027,34.5443678421434 80.84659359231591,44.7193428738974 78.64609369635582,48.50999999663327 79.83803113969043,55.293254270683974 71.67784402472898,57.088815803057514 69.2939691375941,66.7648557771463 65.35140682337806,71.05421186389867 70.2108440939337,72.75" stroke="#4dd2ff" stroke-linecap="round" stroke-linejoin="round" stroke-width="0.5"><title>2024-04-14 5.4km</title><desc>1713087921000</desc></polyline><polyline fill="none" points="110.47158850356936,59.52555917412974 116.29587196465582,71.09694749349728 127.18474974203855,71.64796507800929 132.75580348726362,62.556164391338825 133.009033203125,36.6581848654896 122.12015542667359,33.07653506426141 114.77649367041886,40.239831182407215 112.75065594445914,65.0357486223802 117.05556111223996,70.54592982702889 123.89276343677193,71.92347383964807 132.24934405554086,64.48473004833795 134.0219520656392,39.13778653298505 122.87984457425773,32.5255117083434 114.52326395455748,40.79085338418372 112.75065594445914,65.31125787831843 121.86692571081221,71.64796507800929 131.9961143406108,65.86227632802911 134.78164121322334,41.89289753930643 125.91860116180032,32.5255117083434 115.536182818003,38.035741552943364 113.2571153761819,64.76023934548721 122.12015542667359,72.19898258009925 131.7428846238181,66.6888038488105 134.2751817824319,41.066364453639835 124.65245258342475,32.80102339643054 115.2829531012103,39.13778653298505 112.49742622859776,64.2092207306996 120.60077713243663,72.75 131.9961143406108,66.13778552296571 134.78164121322334,42.16840852680616 126.93152002524585,33.07653506426141 115.536182818003,38.8622753189411 113.0038856593892,63.65820203279145 121.10723656322807,71.64796507800929 131.7428846238181,66.96431298158132 134.52841149643064,41.066364453639835 124.90568230021745,32.5255117083434 115.536182818003,38.58676408464089 113.0038856593892,63.93371139164083 119.08139883819968,71.64796507800929 127.69120917282999,71.09694749349728 132.24934405554086,66.41329469624907 134.2751817824319,40.51534229400568 124.90568230021745,32.5255117083434 115.536182818003,38.31125282892026 113.2571153761819,65.31125787831843 121.86692571081221,72.75 132.75580348726362,65.31125787831843 134.2751817824319,39.13778653298505 124.39922286849469,32.5255117083434 114.77649367041886,39.688808899139985 112.49742622859776,64.76023934548721 122.12015542667359,72.19898258009925 132.24934405554086,65.0357486223802 134.52841149643064,40.51534229400568 124.39922286849469,32.25 115.2829531012103,38.31125282892026 113.0038856593892,62.83167383191176 119.08139883819968,71.64796507800929 132.24934405554086,66.13778552296571 134.2751817824319,39.13778653298505 126.17183087859303,32.5255117083434 115.2829531012103,38.31125282892026 113.2571153761819,64.76023934548721 120.09431770071387,71.92347383964807 131.7428846238181,66.6888038488105 134.52841149643064,42.16840852680616 126.17183087859303,32.25 115.2829531012103,38.035741552943364 113.0038856593892,63.93371139164083 121.10723656322807,71.92347383964807 131.7428846238181,66.6888038488105 134.78164121322334,40.239831182407215 128.45089832041413,33.35204671067186 119.58785826899111,33.35204671067186 111.73773708194494,50.15821819193661 111.48450736608356,63.93371139164083 110.21835878677666,58.42352029518224" stroke="#4dd2ff" stroke-linecap="round" stroke-linejoin="round" stroke-width="0.5"><title>2024-04-13 4.9km</title><desc>1713000859000</desc></polyline><polyline fill="none" points="155.76353024877608,49.27553565707058 157.66033344063908,67.84875141317025 163.3507430171594,71.46019841521047 172.12345778010786,70.94427764648572 175.91706416383386,61.39972950192168 176.6283653602004,38.44111360167153 166.19594780448824,33.79777944274247 158.37163463793695,42.0525914025493 156.9490322433412,64.23730062856339 161.4539398252964,69.39651487767696 168.32985139638186,70.17039634939283 175.44286336563528,63.97933971392922 176.86546576023102,38.44111360167153 166.43304820358753,33.79777944274247 158.37163463793695,43.34240398649126 157.4232330415398,64.23730062856339 166.67014860268682,70.68631723383442 175.20576296653599,64.75322240102105 177.5767669575289,41.02074098819867 169.0411525927484,33.53981625009328 159.55713663250208,39.47296478739008 157.66033344063908,63.72137877903879 165.95884740632027,70.42835680069402 175.20576296653599,64.23730062856339 177.5767669575289,40.7627783366479 169.2782529918477,33.28185303858481 159.55713663250208,39.988890265347436 157.66033344063908,64.23730062856339 166.43304820358753,70.68631723383442 175.20576296653599,65.01118325837888 177.5767669575289,39.988890265347436 167.85565059725195,33.28185303858481 159.3200362343341,40.50481566507369 158.13453423883766,65.78506571403705 169.5153533918783,70.42835680069402 175.91706416383386,62.68953484878875 176.39126496203244,35.34555818978697 164.29914461262524,32.76592655782588 157.66033344063908,41.53666623355821 156.23773104697466,65.78506571403705 162.16524102166295,71.71815877081826 168.32985139638186,72.23407942405902 177.33966655749828,64.49526152433828 177.81386735476553,36.63537328247912 166.67014860268682,32.25 157.4232330415398,39.988890265347436 155.76353024877608,65.78506571403705 160.26843782979995,71.97611910710111 168.09275099728256,72.49203972192481 177.5767669575289,63.4634178255219 178.52516855299473,38.18315075710416 165.4846466081217,33.02388980798423 156.71193184517324,41.278703620657325 155.76353024877608,65.52710491418839 165.0104458099231,72.75 176.39126496203244,66.30098725412972 179.71067054755986,41.79462882806547 174.02026097197086,33.02388980798423 162.16524102166295,34.05574261513539 156.71193184517324,42.56851649424061 157.66033344063908,66.04302649386227 168.80405219458044,71.20223804097623 175.67996376473457,64.49526152433828 177.81386735476553,41.278703620657325 173.5460601747036,34.82963201822713 167.3814497999847,33.02388980798423 158.60873503703624,40.50481566507369 157.89743383973837,63.97933971392922 166.19594780448824,70.42835680069402 175.67996376473457,64.49526152433828 177.5767669575289,40.7627783366479 169.0411525927484,33.28185303858481 159.0829358343035,40.50481566507369 157.89743383973837,64.23730062856339 165.0104458099231,70.94427764648572 172.5976585773751,69.39651487767696 176.15416456293315,64.23730062856339 178.05096775479615,40.7627783366479 169.5153533918783,33.28185303858481 157.66033344063908,41.02074098819867 155.28932945150882,61.915651698131114" stroke="#4dd2ff" stroke-linecap="round" stroke-linejoin="round" stroke-width="0.5"><title>2024-04-12 5.1km</title><desc>1712913892000</desc></polyline><polyline fill="none" points="12.625000000465661,90.64225744310534 12.25,96.35418082267279 14.649999999906868,99.04693432769272 18.399999999906868,97.33336468454218 19.375,89.82626594719477 18.700000000186265,88.11268181877676 16.600000000093132,87.13348967942875 13.524999999906868,88.84707534621703 12.700000000186265,96.43577951123007 14.649999999906868,98.80213882919634 18.475000000093132,97.17016743519343 19.299999999813735,89.82626594719477 16.975000000093132,87.21508905803785 13.675000000279397,88.6838768273592 12.775000000372529,96.35418082267279 15.250000000465661,98.96533583430573 18.325000000186265,97.57816051249392 19.375,90.15266261884244 16.975000000093132,87.13348967942875 13.675000000279397,88.6838768273592 12.775000000372529,96.27258212782908 14.575000000186265,98.80213882919634 18.325000000186265,97.57816051249392 19.225000000558794,89.66306757472921 16.825000000186265,87.29668843047693 13.675000000279397,88.60227755858796 12.775000000372529,95.94618728756905 14.350000000093132,98.63894179952331 16.600000000093132,98.80213882919634 18.475000000093132,97.33336468454218 19.299999999813735,90.23426177143119 18.550000000279397,88.0310825072811 14.649999999906868,87.45988715690328 13.300000000279397,89.49986917799106 12.25,97.41496329999063 20.200000000186265,100.35250939178513 22.75,99.53652515972499 25.899999999906868,96.43577951123007 30.475000000093132,97.90455486462452 31.524999999906868,100.02611577231437 31.299999999813735,105.9011859818711 35.5749999997206,111.61302946129581 42.9250000002794,114.30574529996375 50.5,115.36651032062946 52.75,113.89775847888086 52.52499999990687,100.18931259418605 51.549999999813735,100.59730454231612 51.25,103.29004757280927" stroke="#4dd2ff" stroke-linecap="round" stroke-linejoin="round" stroke-width="0.5"><title>2024-04-11 3.0km</title><desc>1712828151000</desc></polyline><polyline fill="none" points="67.77353412657976,89.62261999282055 66.81289552152157,113.4000375685282 70.41529028955847,119.40968891256489 77.13976052310318,121.23871118319221 88.18710447754711,114.18390572117642 89.86822203639895,88.57745506730862 79.78151668515056,81.0 69.93497098702937,85.96454138378613 67.05305517278612,112.87745870254003 74.49800436012447,120.71613348950632 83.14375180192292,119.67097786720842 87.70678517501801,114.96777369873598 90.10838168673217,90.40649348217994 82.18311319872737,81.78387542441487 74.7381640104577,82.30645894352347 69.69481133576483,87.53228982840665 66.3325762199238,112.61616923939437 76.17912191804498,121.5 87.70678517501801,116.0129307275638 90.82886064052582,94.06456743972376 89.86822203639895,86.48712427704595 85.30518866330385,82.56775067304261 76.17912191804498,81.2612918280065 70.6554499398917,84.13550064247102 64.17113935854286,94.06456743972376 67.05305517278612,113.13874814496376 71.85624819621444,120.19355571712367 80.9823149414733,120.97742234542966 87.46662552375346,115.49035225249827 89.6280623851344,92.23553093988448 83.62407110445201,81.78387542441487 76.41928156930953,81.0 69.93497098702937,84.91937536327168 67.05305517278612,112.87745870254003 73.53736575413495,120.71613348950632 82.18311319872737,120.45484461332671 88.42726412881166,113.13874814496376 90.58870098926127,91.45165786077268 86.98630622122437,84.65808380884118 80.02167633734643,81.2612918280065 69.69481133576483,85.70324990805238 66.81289552152157,112.3548797571566 73.77752540633082,120.45484461332671 82.18311319872737,120.19355571712367 88.66742377914488,113.4000375685282 90.34854133799672,91.45165786077268 83.86423075571656,81.78387542441487 71.61608854494989,82.82904238370247 68.01369377691299,89.88391117542051 67.77353412657976,115.75164149980992 79.54135703481734,120.97742234542966 87.70678517501801,113.4000375685282 88.66742377914488,89.88391117542051 85.30518866330385,83.87420903029852 78.58071842975914,82.30645894352347 69.93497098702937,89.1000375689473 68.01369377691299,112.61616923939437 77.8602394759655,120.45484461332671 87.22646587248892,114.18390572117642 88.90758343134075,91.71294890646823 86.50598691869527,85.44195841229521 80.02167633734643,82.30645894352347 69.93497098702937,88.83874632744119 66.81289552152157,112.87745870254003 76.17912191804498,121.5 82.66343250032514,120.97742234542966 85.5453483145684,116.0129307275638 88.66742377914488,91.1903667957522 80.9823149414733,82.82904238370247 74.97832366172224,83.35162574588321 70.1751306373626,89.1000375689473 68.01369377691299,111.83230073470622 76.41928156930953,119.93226680229418 86.50598691869527,115.49035225249827 88.66742377914488,89.88391117542051 80.50199563894421,82.56775067304261 70.41529028955847,89.1000375689473 68.25385342817754,112.3548797571566 76.17912191804498,120.19355571712367 86.74614657089114,113.66132697300054 88.66742377914488,89.88391117542051 79.54135703481734,82.82904238370247 69.93497098702937,89.36132879066281 68.01369377691299,112.61616923939437 78.10039912816137,120.45484461332671 86.50598691869527,114.70648439228535 88.42726412881166,89.1000375689473 80.26183598861098,82.82904238370247 70.1751306373626,87.79358116723597 67.29321482405066,112.3548797571566 75.21848331391811,120.19355571712367 86.50598691869527,115.49035225249827 89.6280623851344,91.1903667957522 80.50199563894421,82.82904238370247 74.2578447079286,83.87420903029852 68.01369377691299,90.9290757109411 66.09241656772792,111.83230073470622" stroke="#4dd2ff" stroke-linecap="round" stroke-linejoin="round" stroke-width="0.5"><title>2024-04-09 5.6km</title><desc>1712653834000</desc></polyline><polyline fill="none" points="111.84763161372393,88.38682837155648 111.37939564045519,112.33023086609319 115.3594014113769,119.46227566013113 120.9782330878079,120.48113798210397 127.53353671077639,119.20756003120914 132.2158964406699,113.09437923692167 134.32295832037926,87.87739244638942 130.34295254945755,82.52831063326448 123.08529496658593,81.0 113.4864575183019,88.641546305269 111.84763161372393,113.34909532265738 122.38294100761414,120.99056902900338 132.2158964406699,113.09437923692167 133.8547223461792,89.15098211634904 128.2358906697482,82.27359224227257 123.31941295322031,81.76415540231392 113.4864575183019,89.15098211634904 110.91115966718644,111.82079852349125 115.3594014113769,118.95284438459203 122.14882302004844,120.99056902900338 132.4500144282356,112.83966313279234 134.5570763060823,90.16985350870527 125.66059281863272,81.25471848645248 116.76410933025181,83.03774735890329 112.7841035593301,88.132110418519 111.37939564045519,113.85852743685246 121.44646906014532,120.73585351509973 131.98177845496684,113.85852743685246 134.32295832037926,88.132110418519 131.04530650842935,83.29246569261886 123.78764892648906,81.25471848645248 113.01822154596448,88.641546305269 111.37939564045519,114.36795947398059 121.44646906014532,121.5 131.74766046833247,114.36795947398059 134.32295832037926,87.62267445586622 123.55353093985468,81.50943695451133 113.4864575183019,87.36795644601807 110.67704167962074,113.34909532265738 118.63705322239548,121.5 124.9582388587296,120.73585351509973 131.27942449506372,114.36795947398059 134.08884033374488,88.132110418519 131.04530650842935,83.29246569261886 123.08529496658593,81.25471848645248 112.7841035593301,88.89626422012225 111.14527765475214,114.36795947398059 115.12528342567384,119.71699126856402 121.44646906014532,121.24528452428058 131.74766046833247,114.62267546495423 134.5570763060823,88.89626422012225 131.5135424816981,83.54718400724232 123.55353093985468,81.50943695451133 113.01822154596448,87.36795644601807 110.44292369484901,111.82079852349125 118.16881724912673,120.73585351509973 125.42647483106703,120.73585351509973 131.27942449506372,115.64153923536651 134.79119429271668,93.73590098135173 130.10883456189185,82.27359224227257 116.06175537034869,83.29246569261886 112.31586758606136,89.66041785036214 111.61351362708956,115.13210738776252 116.99822731688619,120.48113798210397 123.55353093985468,120.99056902900338 132.68413241300732,112.07551470515318 134.32295832037926,89.66041785036214 130.5770705351606,83.54718400724232 121.44646906014532,81.25471848645248 112.7841035593301,88.132110418519 110.67704167962074,113.34909532265738 121.21235107444227,121.5 131.98177845496684,114.36795947398059 134.32295832037926,88.641546305269 131.74766046833247,84.05662058060989 123.78764892648906,81.0 116.76410933025181,83.54718400724232 112.31586758606136,90.16985350870527 112.54998557269573,113.09437923692167 121.68058704771101,119.46227566013113 130.5770705351606,113.60381138930097 132.2158964406699,88.89626422012225 124.49000288639218,82.52831063326448 112.08174959942698,90.93400685302913 110.20880570728332,110.29250103840604" stroke="#4dd2ff" stroke-linecap="round" stroke-linejoin="round" stroke-width="0.5"><title>2024-04-08 5.0km</title><desc>1712568268000</desc></polyline><polyline fill="none" points="155.96717390231788,95.90803289483301 158.4792746361345,115.03991040377878 164.64534007571638,118.5184217481874 172.18164227809757,116.53070142609067 177.20584374573082,110.0706021648366 176.52072536479682,84.47854699403979 166.01557683944702,81.0 157.5657834596932,89.94482776708901 157.10903787147254,114.79144516889937 162.81835772283375,119.2638165615499 172.63838786631823,118.0214917792473 176.74909815844148,110.81599887483753 176.97747095301747,84.72701449738815 164.18859448749572,81.99387094192207 157.10903787147254,92.9264316689223 156.8806650787592,114.04604935110547 163.50347610469908,119.01535164238885 172.18164227809757,118.0214917792473 177.20584374573082,110.81599887483753 176.74909815844148,84.23007947253063 164.64534007571638,81.99387094192207 157.79415625426918,89.19942637323402 156.19554669689387,112.80372261675075 166.2439496330917,120.0092112084385 176.52072536479682,112.3067917926237 178.11933492310345,88.95095920516178 174.23699742462486,82.73927395278588 168.0709319859743,81.49693550844677 161.67649375274777,83.23620920046233 158.25090184248984,88.70249201753177 156.8806650787592,113.54911871277727 160.99137536995113,118.5184217481874 169.8979143379256,119.01535164238885 176.74909815844148,112.3067917926237 177.43421654123813,86.46628649812192 169.66954154428095,81.2484677634202 158.4792746361345,87.9570903449785 156.42391949053854,112.3067917926237 160.30625698901713,118.0214917792473 166.01557683944702,119.2638165615499 176.29235257115215,113.79758404172026 178.5760805113241,89.94482776708901 175.37886139471084,83.98161193262786 167.61418639775366,81.99387094192207 160.5346297826618,85.47241689520888 157.33741066604853,91.68409703532234 156.8806650787592,116.03377116005868 160.5346297826618,120.0092112084385 168.52767757419497,120.25767605379224 176.29235257115215,112.05832635308616 178.5760805113241,88.45402481174096 168.29930477961898,81.7454032341484 158.4792746361345,88.20555758778937 155.73880110681057,113.30065336613916 163.73184889927506,121.25153524777852 176.29235257115215,112.55525721400045 178.34770771674812,88.95095920516178 174.00862463004887,82.4908063011244 168.0709319859743,81.49693550844677 158.02252904884517,88.70249201753177 156.6522922841832,113.30065336613916 167.157440809533,119.51228146255016 176.29235257115215,111.56139541743323 178.11933492310345,87.21168850548565 168.29930477961898,81.99387094192207 158.02252904884517,89.19942637323402 156.42391949053854,112.3067917926237 160.99137536995113,118.0214917792473 167.84255919232965,119.51228146255016 176.52072536479682,111.56139541743323 178.11933492310345,87.21168850548565 174.00862463004887,82.73927395278588 165.3304584575817,81.99387094192207 157.10903787147254,92.42949787154794 156.42391949053854,115.78530599875376 160.30625698901713,120.25767605379224 169.66954154428095,119.76074634492397 176.74909815844148,110.81599887483753 176.97747095301747,85.22394944750704 166.70069522224367,81.0 157.79415625426918,89.19942637323402 156.42391949053854,112.55525721400045 163.04673051647842,119.01535164238885 169.66954154428095,118.76688670413569 176.97747095301747,110.56753332400694 178.11933492310345,87.70862308354117 174.23699742462486,82.73927395278588 166.47232242766768,81.7454032341484 157.5657834596932,89.94482776708901 157.33741066604853,114.29451464186423 163.73184889927506,120.0092112084385 172.18164227809757,118.76688670413569 177.66258933581412,104.35588849941269 175.37886139471084,85.47241689520888 162.3616121346131,83.73314437363297 156.19554669689387,97.64729904057458 157.10903787147254,117.52456173556857 162.3616121346131,121.00307047762908 171.0397783080116,119.2638165615499 176.97747095301747,110.31906775361858 178.80445330496877,90.6902289937716 176.52072536479682,84.47854699403979 168.52767757419497,81.99387094192207 161.67649375274777,83.98161193262786 156.19554669689387,97.39883250417188 157.10903787147254,117.52456173556857 162.13323934096843,120.75460568792187 171.26815110165626,119.01535164238885 176.97747095301747,110.31906775361858 176.74909815844148,85.22394944750704 164.87371286936104,81.7454032341484 157.33741066604853,91.9325639992021 157.79415625426918,115.03991040377878 164.87371286936104,120.75460568792187 172.8667606599629,120.25767605379224 177.20584374573082,114.29451464186423 177.43421654123813,86.21781912492588 163.96022169385105,81.7454032341484 156.8806650787592,91.18716305145063 155.73880110681057,114.54297991492786 159.39276581257582,120.0092112084385 167.38581360317767,121.25153524777852 176.97747095301747,111.80986089422368 177.89096212945879,86.96322118793614 165.1020856630057,81.99387094192207 156.6522922841832,92.18103094492108 155.96717390231788,116.03377116005868 160.30625698901713,120.5061408802867 167.61418639775366,121.00307047762908 174.46537021826953,117.52456173556857 177.66258933581412,111.06446440774016 178.5760805113241,86.96322118793614 166.01557683944702,81.49693550844677 156.8806650787592,90.1932948611211 155.96717390231788,115.03991040377878 160.07788419537246,119.76074634492397 168.52767757419497,121.5 176.74909815844148,114.79144516889937 178.5760805113241,87.9570903449785 175.37886139471084,83.48467679601163 166.70069522224367,81.49693550844677 157.5657834596932,88.70249201753177 155.05368272587657,112.80372261675075 158.02252904884517,118.2699567724485 164.64534007571638,121.00307047762908 176.29235257115215,114.79144516889937 178.80445330496877,89.94482776708901 168.75605036783963,81.49693550844677 158.4792746361345,87.9570903449785 155.96717390231788,112.3067917926237 166.929068014957,121.00307047762908 177.20584374573082,115.03991040377878 179.48957168776542,91.18716305145063 175.15048860013485,84.23007947253063 168.75605036783963,81.99387094192207 158.02252904884517,88.70249201753177 155.73880110681057,113.0521880008746 159.16439301799983,118.5184217481874 166.929068014957,121.00307047762908 177.43421654123813,113.54911871277727 179.03282609861344,91.18716305145063 176.06397977657616,85.22394944750704 168.29930477961898,81.49693550844677 157.79415625426918,88.95095920516178 156.19554669689387,113.79758404172026 159.84951140079647,118.76688670413569 166.929068014957,120.75460568792187 176.52072536479682,114.54297991492786 178.5760805113241,90.1932948611211 168.0709319859743,81.99387094192207 157.79415625426918,89.94482776708901 155.96717390231788,114.04604935110547 167.38581360317767,120.25767605379224 176.97747095301747,113.0521880008746 179.03282609861344,89.44789352314547 167.38581360317767,81.7454032341484 157.5657834596932,89.94482776708901 156.19554669689387,113.0521880008746 167.157440809533,120.25767605379224 176.74909815844148,113.54911871277727 178.34770771674812,89.19942637323402 173.55187904275954,82.98774158628657 166.929068014957,81.99387094192207 158.02252904884517,90.44176193629391 155.73880110681057,113.30065336613916 165.78720404580235,121.00307047762908 176.74909815844148,115.53684081928805 179.94631727505475,91.43563005304895 175.8356069829315,83.73314437363297 162.81835772283375,82.98774158628657 157.5657834596932,90.6902289937716 156.19554669689387,110.0706021648366" stroke="#4dd2ff" stroke-linecap="round" stroke-linejoin="round" stroke-width="0.5"><title>2024-04-06 11.8km</title><desc>1712394949000</desc></polyline><polyline fill="none" points="22.831233013421297,165.25327198463492 31.774842475540936,170.25 40.23501358833164,163.14938437961973 43.13564368430525,140.26952537568286 40.23501358833164,132.642872616183 31.291404126212,130.53896549507044 25.49014393426478,134.48379031475633 22.106075488962233,158.15264627174474 28.39077403023839,168.14611538592726 40.23501358833164,163.93834237894043 43.37736285943538,138.95458642556332 38.784698540344834,132.3798842949327 30.807965776883066,131.59091921313666 25.24842475913465,135.79873093706556 22.347794664092362,160.2565368670039 28.63249320536852,168.40910103125498 39.5098560648039,164.99028610251844 42.65220533404499,139.48056206433102 37.33438349235803,131.8539075939916 29.59936990402639,131.8539075939916 25.006705584935844,136.587695075199 22.347794664092362,159.4675780411344 27.42389733158052,167.88312972034328 39.751575239002705,164.72730020130984 42.89392450917512,139.48056206433102 35.88406844437122,131.32793081342243 24.764986410737038,136.06171900290065 21.62263714056462,161.834453987889 30.56624660268426,168.9350722641684 40.476732762530446,162.88639834034257 43.13564368430525,139.74354985402897 39.99329441320151,133.43183746212162 33.95031504705548,130.80195395438932 24.03982888534665,136.85068308119662 21.62263714056462,159.99355061142705 29.59936990402639,168.6720866577234 40.718451937660575,162.62341228174046 42.89392450917512,139.21757425460964 33.70859587285668,130.80195395438932 24.52326723653823,136.587695075199 22.347794664092362,160.78250931878574 30.56624660268426,168.9350722641684 40.718451937660575,162.62341228174046 42.65220533404499,137.6396469825413 32.983438349328935,131.0649423939176 24.52326723653823,136.85068308119662 22.589513838291168,161.57146784942597 32.016561650671065,168.6720866577234 41.20189028698951,162.09744010469876 43.13564368430525,138.42861070716754 34.43375339638442,131.0649423939176 24.03982888534665,137.6396469825413 22.347794664092362,161.57146784942597 31.049684951081872,168.9350722641684 40.960171112790704,162.88639834034257 43.13564368430525,138.6915985760279 33.46687669865787,131.0649423939176 24.03982888534665,137.6396469825413 22.106075488962233,161.57146784942597 32.016561650671065,168.9350722641684 40.718451937660575,162.88639834034257 42.89392450917512,138.6915985760279 34.67547257151455,130.80195395438932 24.281548061408103,136.587695075199 22.347794664092362,160.51952310232446 30.082808253355324,168.6720866577234 37.09266431815922,167.357158330502 40.960171112790704,162.62341228174046 43.13564368430525,137.90263491054066 34.43375339638442,130.80195395438932 24.764986410737038,136.32470704917796 22.106075488962233,160.51952310232446 29.357650729827583,168.6720866577234 40.476732762530446,163.67535639903508 42.89392450917512,138.95458642556332 35.15891091991216,130.27597701689228 25.006705584935844,135.79873093706556 22.106075488962233,160.78250931878574 30.324527426622808,168.6720866577234 37.817821841686964,167.09417260624468 41.443609461188316,161.834453987889 42.41048616077751,137.37665903521702 32.741719174198806,130.53896549507044 24.03982888534665,137.1136710678693 22.347794664092362,162.36042620264925 31.291404126212,168.9350722641684 40.960171112790704,162.09744010469876 42.89392450917512,138.6915985760279 33.70859587285668,130.80195395438932 23.798109712079167,138.16562281921506 22.347794664092362,160.78250931878574 31.049684951081872,168.6720866577234 40.718451937660575,163.14938437961973 42.89392450917512,138.95458642556332 32.983438349328935,130.80195395438932 24.281548061408103,137.37665903521702 22.347794664092362,161.834453987889 28.149054856039584,168.40910103125498 40.23501358833164,163.93834237894043 43.37736285943538,139.21757425460964 33.70859587285668,130.53896549507044 24.764986410737038,136.32470704917796 22.831233013421297,161.30848169210367 32.016561650671065,168.9350722641684 40.960171112790704,162.09744010469876 43.13564368430525,138.95458642556332 38.542979365214705,132.11689595435746 32.741719174198806,130.53896549507044 24.52326723653823,137.37665903521702 22.347794664092362,161.04549551592208 32.016561650671065,168.9350722641684 40.718451937660575,163.93834237894043 42.89392450917512,138.16562281921506 33.70859587285668,130.0129885179922 25.24842475913465,134.74677847861312 22.347794664092362,161.04549551592208 25.731863109394908,166.8311868624296 32.25828082486987,168.9350722641684 41.443609461188316,161.57146784942597 42.89392450917512,138.16562281921506 38.30126019194722,131.59091921313666 32.016561650671065,130.27597701689228 24.52326723653823,136.587695075199 22.589513838291168,161.834453987889 32.983438349328935,169.4610434176866 40.960171112790704,163.14938437961973 42.65220533404499,138.16562281921506 33.22515752352774,129.75 24.281548061408103,136.587695075199 22.106075488962233,160.2565368670039 29.59936990402639,168.6720866577234 40.718451937660575,163.4123703991063 42.65220533404499,138.42861070716754 34.43375339638442,130.53896549507044 28.149054856039584,131.32793081342243 24.281548061408103,137.6396469825413 22.347794664092362,161.04549551592208 31.53312330134213,168.9350722641684 41.20189028698951,162.62341228174046 42.65220533404499,138.95458642556332 33.95031504705548,130.27597701689228 24.281548061408103,137.37665903521702 22.589513838291168,162.09744010469876 31.291404126212,169.4610434176866 40.960171112790704,162.62341228174046 42.65220533404499,137.37665903521702 38.784698540344834,132.11689595435746 31.291404126212,130.53896549507044 24.281548061408103,137.37665903521702 22.831233013421297,162.09744010469876 32.741719174198806,168.9350722641684 41.20189028698951,161.30848169210367 42.89392450917512,137.6396469825413 32.25828082486987,130.27597701689228 25.49014393426478,135.00976662244648 21.864356314763427,143.9513518200256 21.62263714056462,164.20132833905518" stroke="#4dd2ff" stroke-linecap="round" stroke-linejoin="round" stroke-width="0.5"><title>2024-04-03 9.7km</title><desc>1712137473000</desc></polyline><polyline fill="none" points="63.02370883151889,154.36770230717957 69.5927821341902,153.04417428094894 67.15979202277958,160.19121973752044 72.51237026881427,168.39706894243136 84.92061984259635,168.39706894243136 91.97629116848111,142.4559322546702 88.08350698836148,131.33824402699247 78.83814456127584,129.75 72.2690712576732,133.45590162021108 69.34948312398046,159.92651460808702 72.75566928088665,168.9264779149089 81.2711346745491,168.9264779149089 87.59690896607935,164.42649912275374 90.27319808956236,140.0735734316986 84.43402182031423,132.13236577343196 72.51237026881427,136.8970925072208 69.34948312398046,162.0441550926771 76.89175247214735,169.45588680892251 87.59690896607935,163.8970894771628 89.78660006728023,139.80886679701507 82.97422775253654,131.33824402699247 72.2690712576732,136.8970925072208 69.5927821341902,162.8382699470967 77.86494851671159,169.98529562307522 87.59690896607935,164.16179430997 90.27319808956236,139.54416014254093 83.70412478689104,131.86765854386613 76.89175247214735,132.6617801708635 71.78247323539108,137.9559197986964 69.10618411190808,162.0441550926771 77.13505148328841,170.25 87.35360995586962,164.16179430997 90.02989907935262,138.75004005990922 83.70412478689104,131.86765854386613 71.78247323539108,137.6912130054552 69.10618411190808,160.72062993841246 72.2690712576732,167.60295533505268 79.0814435724169,169.98529562307522 88.32680599950254,163.1029748597648 90.02989907935262,139.014746773988 83.46082577481866,131.60295129544102 78.10824752785265,131.60295129544102 71.78247323539108,137.4265061924234 69.10618411190808,160.98533500847407 76.4051544489339,169.98529562307522 87.11031094379723,165.22061344329268 90.27319808956236,140.0735734316986 85.40721786487848,132.13236577343196 79.0814435724169,131.86765854386613 72.02577224746346,137.4265061924234 69.34948312398046,161.51474509085529 74.94536038208753,169.19118237216026 87.59690896607935,167.86765989055857" stroke="#4dd2ff" stroke-linecap="round" stroke-linejoin="round" stroke-width="0.5"><title>2024-04-02 3.0km</title><desc>1712049520000</desc></polyline><polyline fill="none" points="114.43029741756618,142.4948019622825 112.86841949820518,164.58569039520808 117.55405325628817,169.40035409969278 124.58250389248133,169.68356942152604 129.78876362368464,163.73604322387837 132.3918934892863,135.69757958804257 123.54125194717199,129.75 115.21123637724668,136.54723305231892 112.60810651257634,163.73604322387837 117.03342728409916,169.11713875760324 124.32219090685248,169.68356942152604 129.78876362368464,163.45282745733857 132.3918934892863,135.98079743073322 123.80156493280083,129.75 115.21123637724668,136.26401525200345 112.34779352601618,162.88639586116187 121.45874805562198,170.25 129.78876362368464,164.01925896899775 132.65220647491515,137.11366858915426 124.8428168790415,129.75 115.21123637724668,136.26401525200345 112.34779352601618,163.16961167030968 120.67780909594148,170.25 129.52845063712448,164.58569039520808 132.65220647491515,137.39688632590696 125.10312986653298,129.75 115.21123637724668,135.98079743073322 112.34779352601618,162.88639586116187 120.15718312188983,170.25 129.52845063712448,164.58569039520808 132.9125194614753,137.96332173561677 125.88406882621348,130.03321828809567 115.47154936473817,135.41436172416434 112.34779352601618,162.31996418139897 120.67780909594148,170.25 129.52845063712448,164.58569039520808 132.65220647491515,137.39688632590696 124.8428168790415,129.75 115.47154936473817,135.41436172416434 112.34779352601618,162.88639586116187 120.93812208157033,170.25 129.78876362368464,163.73604322387837 132.65220647491515,137.6801040417049 124.58250389248133,129.75 115.21123637724668,136.54723305231892 112.34779352601618,163.16961167030968 120.93812208157033,170.25 129.78876362368464,164.01925896899775 132.65220647491515,136.83045083167963 124.32219090685248,129.75 115.21123637724668,136.54723305231892 112.34779352601618,162.60318003152497 115.73186235129833,168.2674926025793 122.76031298749149,169.96678472170606 129.78876362368464,163.73604322387837 132.65220647491515,137.11366858915426 123.80156493280083,129.75 115.21123637724668,136.54723305231892 112.34779352601618,162.31996418139897 120.15718312188983,170.25 129.52845063712448,164.58569039520808 132.9125194614753,138.52975706011057 125.62375583872199,130.03321828809567 115.73186235129833,135.131143839797 112.34779352601618,162.31996418139897 118.33499221596867,169.68356942152604 129.52845063712448,164.58569039520808 132.9125194614753,137.96332173561677 126.144381810911,130.03321828809567 116.25248832348734,133.99827208812349 112.08748053852469,161.47031650110148 115.47154936473817,168.2674926025793 122.5,170.25 128.74751167744398,166.00176859134808 132.9125194614753,139.6626274564769 127.706259730272,130.59965479862876 117.81436624284834,132.01574570708908 113.38904547225684,165.43533737654798 118.855618189089,169.96678472170606 125.88406882621348,168.83392339362763 131.09032855648547,155.23956102016382" stroke="#4dd2ff" stroke-linecap="round" stroke-linejoin="round" stroke-width="0.5"><title>2024-03-30 4.8km</title><desc>1711782999000</desc></polyline><polyline fill="none" points="155.8514348194003,146.2806660379283 157.6240425631404,165.01533118472435 162.94186579808593,169.42347384011373 171.04521549027413,168.87245629681274 177.1227277573198,160.88269265345298 176.6162684019655,132.7806276618503 164.4612438660115,130.57653506379575 157.87727224174887,138.01534229377285 157.87727224174887,164.188803849509 164.9677032204345,170.25 172.8178232340142,168.32143867062405 177.37595743592829,160.88269265345298 179.1485651805997,140.21943043963984 176.36303872335702,132.22960463585332 167.49999999906868,129.75 161.42248773109168,133.6071620453149 156.8643535291776,160.3316738321446 159.39665030874312,166.66838529892266 166.74031096696854,170.25 177.1227277573198,162.81125787831843 178.13564646895975,134.98471894022077 167.24677032139152,130.3010233968962 158.38373159617186,138.29085338371806 158.38373159617186,166.39287633099593 168.0064593553543,169.97449130075984 175.3501200126484,165.56634930474684 178.64210582431406,140.49494136497378 176.86949807964265,133.6071620453149 171.29844516608864,130.0255117090419 159.90310966409743,134.7092076027766 156.61112385150045,161.98473004810512 162.94186579808593,169.42347384011373 175.09689033497125,165.01533118472435 178.64210582431406,140.21943043963984 173.32428259029984,131.40306994249113 159.90310966409743,131.40306994249113" stroke="#4dd2ff" stroke-linecap="round" stroke-linejoin="round" stroke-width="0.5"><title>2024-03-28 2.0km</title><desc>1711615120000</desc></polyline><polyline fill="none" points="22.263193720020354,195.71255923132412 19.70399214886129,196.21880964795128 22.263193720020354,198.24381055659615 19.471337460912764,196.97818513051607 22.263193720020354,197.73756044334732 22.96115778479725,213.68440263648517 28.079560924321413,218.24062945926562 36.22247501183301,218.4937529915478 43.20211565680802,209.88754226407036 44.365389097481966,183.30940036475658 38.781676582060754,179.0062529919669 31.802035936154425,179.0062529919669 23.65912184957415,188.11879389337264 22.030539031140506,211.15316286194138 30.871417183429003,219.0 42.03884221613407,212.41878298553638 44.132734410464764,185.84066096926108 40.6429140875116,179.7656323374249 35.05920157022774,178.5 24.58974060136825,185.5875349934213 22.96115778479725,209.1281696781516 26.21832341887057,215.45626935223117 32.03469062410295,217.73438233789057 40.87556877639145,212.41878298553638 43.20211565680802,187.86566808866337 35.05920157022774,180.018758748658 25.75301404297352,185.84066096926108 24.1244312254712,210.9000387797132 32.5,217.73438233789057 41.5735328393057,210.9000387797132 42.969460968859494,185.08128298656084 34.59389219339937,179.5125059077982 25.75301404297352,186.60003878059797 23.89177653659135,210.14066642150283 31.104071871377528,217.73438233789057 41.340878151357174,210.9000387797132 42.969460968859494,186.8531646800693 33.66327344160527,179.0062529919669 25.98566872999072,185.84066096926108 23.4264671606943,210.14066642150283 31.5693812482059,217.73438233789057 41.806187527254224,210.9000387797132 43.66742503363639,186.8531646800693 35.524510947056115,179.5125059077982 26.21832341887057,185.5875349934213 23.65912184957415,209.88754226407036 25.287704666145146,215.20314559270628 31.104071871377528,217.2281351403799 41.5735328393057,211.65941096819006 43.66742503363639,188.37191967945546 35.75716563500464,180.52501151314937 25.98566872999072,185.33440899918787 23.65912184957415,210.9000387797132 32.03469062410295,217.4812587480992 41.5735328393057,211.15316286194138 43.434770345687866,185.84066096926108 34.82654688227922,180.018758748658 25.98566872999072,186.60003878059797 23.65912184957415,210.3937905607745 32.03469062410295,217.73438233789057 39.47964064683765,216.72188786650077 42.969460968859494,211.9125349931419 45.528662539087236,187.61254226532765" stroke="#4dd2ff" stroke-linecap="round" stroke-linejoin="round" stroke-width="0.5"><title>2024-03-26 3.7km</title><desc>1711445960000</desc></polyline><polyline fill="none" points="66.58073669858277,209.55004064831883 75.514679399319,219.0 86.18577762506902,212.79002949944697 88.1710982248187,185.52003255928867 82.71146657504141,178.5 69.80688267480582,183.09002283401787 66.33257162477821,208.74004298099317 68.56605729926378,214.9500204504002 76.25917462445796,218.730001504533 85.68944747373462,213.33002735790797 88.66742837429047,186.87003725557588 83.70412687398493,178.77000150457025 70.55137789901346,184.17002735869028 67.32523192465305,199.8300566454418 70.30321282334626,214.9500204504002 76.75550477392972,217.9200058982242 82.71146657504141,215.49001798639074 87.9229331491515,188.4900422245264 83.70412687398493,180.66001147241332 76.50733969919384,179.85000732145272 71.5440381988883,183.9000262580812 68.3178922245279,207.6600458091125 73.77752387337387,217.110010109609 83.95229194965214,213.87002513650805 87.9229331491515,187.4100389922969 82.21513642370701,179.58000589790754 71.5440381988883,184.17002735869028 68.3178922245279,208.20004443568178 74.02568894904107,217.110010109609 83.70412687398493,213.87002513650805 86.18577762506902,182.5500204502605 77.74816507380456,179.04000298911706 70.79954297281802,186.06003449857235 68.56605729926378,211.44003449799493 73.0330286482349,216.57001281599514 79.98165074922144,216.84001147234812" stroke="#4dd2ff" stroke-linecap="round" stroke-linejoin="round" stroke-width="0.5"><title>2024-03-25 2.1km</title><desc>1711359274000</desc></polyline><polyline fill="none" points="127.63033338356763,215.10578976827674 132.4027365297079,188.62504431023262 126.91447291150689,180.31731782038696 114.50622473005205,185.76926557230763 111.881403000094,207.8365856455639 119.0400077207014,217.44231643225066 129.53929464146495,213.28849016525783 132.4027365297079,188.62504431023262 125.48275196738541,180.57693457440473 114.50622473005205,186.02888191887178 111.881403000094,209.39427352510393 119.51724803447723,217.44231643225066 129.77791479974985,212.50964718684554 132.4027365297079,187.58657958637923 125.24413181003183,180.57693457440473 114.50622473005205,185.76926557230763 112.12002315744758,209.653888103785 114.2676045736298,215.10578976827674 120.94896897859871,217.70193040836602 130.0165349561721,211.47118961019441 132.4027365297079,189.14427655516192 126.19861243944615,180.57693457440473 114.50622473005205,184.73079999396577 112.12002315744758,209.653888103785 119.51724803447723,217.96154436608776 129.3006744850427,213.02887585875578 132.4027365297079,188.62504431023262 125.72137212473899,180.0577010475099 114.74484488833696,184.47118355124258 111.881403000094,210.1731172024738 114.2676045736298,215.36540392017923 121.42620929237455,218.22115830378607 130.2551551135257,211.21157516818494 132.16411637235433,187.32696335669607 124.76689149532467,180.0577010475099 118.08552709035575,181.35578471934423 114.02898441627622,186.54811455169693 112.35864331480116,211.47118961019441 121.66482945065945,217.70193040836602 130.4937752718106,210.4327317236457 132.16411637235433,187.58657958637923 125.24413181003183,180.0577010475099 114.2676045736298,186.54811455169693 112.12002315744758,210.69234622386284 120.47172866482288,217.44231643225066 129.53929464146495,212.50964718684554 132.16411637235433,187.32696335669607 123.81241086684167,180.0577010475099 114.02898441627622,186.28849824517965 112.35864331480116,210.95196070545353 120.47172866482288,217.96154436608776 130.0165349561721,212.50964718684554 132.4027365297079,187.58657958637923 128.34619385562837,180.83655130909756 114.98346504569054,184.47118355124258 112.12002315744758,208.09620034042746 117.84690693300217,217.44231643225066 129.3006744850427,213.5481044522021 132.4027365297079,188.10581198707223 125.00551165267825,180.31731782038696 114.50622473005205,185.25003282236867 112.12002315744758,209.91350266244262 118.8013875624165,217.18270243611187 129.0620543276891,214.32694719778374 132.6413566879928,188.88466044235975 127.86895354092121,180.83655130909756 120.47172866482288,180.0577010475099 114.74484488833696,185.25003282236867 110.4496820550412,207.8365856455639 112.35864331480116,214.84617559798062 119.0400077207014,219.0 125.24413181003183,218.74038612097502 130.97101558558643,213.28849016525783 134.55031794589013,189.40389264840633 128.1075736982748,179.01923376019113 120.23310850653797,178.5 113.31312394421548,184.2115670889616 110.4496820550412,209.13465892663226 117.84690693300217,218.22115830378607 130.2551551135257,216.14424625807442" stroke="#4dd2ff" stroke-linecap="round" stroke-linejoin="round" stroke-width="0.5"><title>2024-03-24 4.9km</title><desc>1711273464000</desc></polyline><polyline fill="none" points="156.08136542327702,207.81906775431708 158.13671964779496,215.02456173603423 163.84603693615645,218.75153524801135 170.468844990246,217.50921120890416 175.9497895874083,212.04297991516069 178.23351650312543,185.95402481220663 176.40653496980667,181.48161193262786 169.55535422451794,179.2454032341484 162.01905540376902,180.9846767964773 157.90834695659578,186.20249201823026 156.53811080753803,211.04911871347576 160.87719194591045,216.7638165622484 168.64186345785856,218.50307047716342 176.86328035313636,209.30986089468934 177.09165304433554,182.72394944750704 168.87023614998907,179.2454032341484 160.4204465635121,181.97854699473828 156.9948561899364,187.9417619369924 155.62462004087865,209.80679179285653 162.9325461704284,219.0 170.925590374507,217.50921120890416 175.7214168952778,212.29144516889937 179.60375265125185,189.43256399896927 176.63490766193718,181.48161193262786 170.24047229904681,178.99693550821394 160.64881925471127,181.97854699473828 157.2232288820669,187.44482776685618 156.9948561899364,214.27916653174907 163.61766424495727,219.0 170.24047229904681,218.50307047716342 177.09165304433554,209.30986089468934 177.09165304433554,182.72394944750704 166.12976385187358,178.5 157.4516015732661,187.19636065443046 155.85299273300916,210.80065336590633 160.19207387138158,217.26074634492397 167.50000000093132,218.25460568768904 176.86328035313636,209.55832635355182 177.77677111886442,183.96628649812192 174.1228080559522,179.74233863083646 166.35813654307276,178.99693550821394 157.2232288820669,187.6932948611211 156.30973811540753,212.7883756214287 168.64186345785856,218.00614088005386 176.63490766193718,209.55832635355182 176.63490766193718,182.72394944750704 167.9567453833297,178.74846776365303 157.90834695659578,184.4632211884018 155.39624734967947,211.29758404148743 159.96370117925107,217.01228146301582 168.64186345785856,218.50307047716342 176.63490766193718,210.05525721423328 176.1781622786075,181.2331443738658 167.27162730880082,178.74846776365303 160.87719194591045,181.97854699473828 155.85299273300916,200.6135581403505 158.82183772232383,215.7699567724485 172.9809445971623,216.51535164238885 178.4618891943246,188.6871630519163 173.437689980492,179.99080630065873 160.64881925471127,181.97854699473828 155.85299273300916,206.57673962507397 157.4516015732661,215.02456173603423 163.38929155282676,218.00614088005386 174.80792612954974,213.78223630250432 178.6902618855238,189.18409703532234 175.49304420407861,181.2331443738658 160.4204465635121,181.2331443738658 156.53811080753803,195.3957655588165 158.13671964779496,215.02456173603423 164.987900394015,218.50307047716342 173.2093172883615,216.01842174795456 176.86328035313636,210.30372261744924 178.6902618855238,189.43256399896927 175.26467151287943,181.2331443738658 164.07440962735564,179.49387094192207 157.2232288820669,187.6932948611211 156.08136542327702,212.29144516889937 162.4758007870987,218.00614088005386 170.24047229904681,217.01228146301582 175.49304420407861,203.8436161072459 174.35118074622005,182.72394944750704 167.27162730880082,180.48774158605374 159.96370117925107,183.96628649812192 155.62462004087865,199.61969351908192" stroke="#4dd2ff" stroke-linecap="round" stroke-linejoin="round" stroke-width="0.5"><title>2024-03-22 5.0km</title><desc>1711100044000</desc></polyline><polyline fill="none" points="20.16929414588958,242.43755680741742 24.357081040740013,263.9531455927063 31.33672586362809,267.4968765054364 38.316370686516166,265.47188786650077 42.9694672357291,260.1562869239133 44.59805102739483,248.5125604425557 41.573538270778954,231.30002181371674 32.0346903456375,228.00937945931219 25.287700350396335,236.6156680881977 24.357081040740013,260.9156589983031 29.940796898677945,266.7375059078913 36.68778689391911,266.7375059078913 42.271502752788365,258.89066642173566 42.038847925141454,234.5906609685626 34.36123862024397,229.02188513986766 25.520355177111924,236.6156680881977 24.357081040740013,260.1562869239133 28.5448679337278,265.72501151286997 34.826548274606466,266.9906294597313 41.573538270778954,257.87816967861727 42.504157580435276,233.83128298586234 35.9898224119097,228.26250590826385 25.520355177111924,234.33753499365412 23.42646173015237,258.6375422643032 32.96530965529382,266.23125874856487 39.0143351694569,264.9656405176502 43.20212206244469,257.87816967861727 43.4347768900916,232.05940036429092 40.64291896019131,228.26250590826385 31.80203551892191,227.25 23.89177138544619,234.8437869248446 22.49584242142737,259.90316286170855 32.96530965529382,267.75 42.504157580435276,258.3844180877786 44.83070585504174,236.10941642220132 41.34088344313204,227.5031265055295 26.916284142062068,229.52813786664046 21.332568284124136,255.09380207257345" stroke="#4dd2ff" stroke-linecap="round" stroke-linejoin="round" stroke-width="0.5"><title>2024-03-21 2.2km</title><desc>1711013104000</desc></polyline></svg>