<?xml version="1.0" encoding="utf-8" ?>
<svg baseProfile="full" height="300mm" version="1.1" viewBox="0,0,200,300" width="200mm" xmlns="http://www.w3.org/2000/svg" xmlns:ev="http://www.w3.org/2001/xml-events" xmlns:xlink="http://www.w3.org/1999/xlink"><defs /><rect fill="#222222" height="300" width="200" x="0" y="0" /><text fill="#FFFFFF" style="font-size:12px; font-family:Arial; font-weight:bold;" x="10" y="20">Over 2km Runs</text><text fill="#FFFFFF" style="font-size:4px; font-family:Arial" x="10" y="280">ATHLETE</text><text fill="#FFFFFF" style="font-size:9px; font-family:Arial" x="10" y="290">作怪</text><text fill="#FFFFFF" style="font-size:4px; font-family:Arial" x="120" y="280">STATISTICS</text><text fill="#FFFFFF" style="font-size:3px; font-family:Arial" x="120" y="285">Number: 27</text><text fill="#FFFFFF" style="font-size:3px; font-family:Arial" x="120" y="290">Weekly: 3.4</text><text fill="#FFFFFF" style="font-size:3px; font-family:Arial" x="141" y="285">Total: 130.8 km</text><text fill="#FFFFFF" style="font-size:3px; font-family:Arial" x="141" y="290">Avg: 4.8 km</text><text fill="#FFFFFF" style="font-size:3px; font-family:Arial" x="167" y="285">Min: 2.0 km</text><text fill="#FFFFFF" style="font-size:3px; font-family:Arial" x="167" y="290">Max: 12.3 km</text><polyline fill="none" points="19.533193142153323,41.96474580396898 22.063503237441182,61.65883693168871 29.654433524236083,64.19999999995343 35.104332190938294,58.270615958143026 36.077528381720185,36.67061191890389 28.097319618798792,32.435297682415694 21.479585522785783,38.57650125818327 21.09030704665929,61.23530953167938 28.68123733345419,64.19999999995343 34.90969295240939,57.42356008174829 35.2989714294672,36.24708078056574 30.432990475557745,32.85882939118892 23.036699429154396,35.400018313666806 19.533193142153323,55.7294475666713 22.842060189694166,62.92941875127144 28.097319618798792,64.19999999995343 33.35257904790342,61.023545808158815 35.88288914319128,43.658866555662826 35.493610667064786,37.30590850766748 31.79546514339745,33.91765838582069 26.5402057133615,33.28236103709787 22.25814247597009,36.24708078056574 19.922471618279815,57.84708805102855 25.956287999637425,63.77647298038937 34.32577523868531,59.964726951671764 36.466806856915355,41.11768504790962 32.18474361952394,33.91765838582069 27.513401905074716,32.85882939118892 22.452781713567674,36.03531518741511 19.922471618279815,57.63532407418825 25.372370285913348,63.988236498320475 34.52041447721422,59.329435447696596 36.077528381720185,39.423562774667516 30.043712000362575,31.800000000046566 21.67422476131469,34.76472129672766" stroke="#4dd2ff" stroke-linecap="round" stroke-linejoin="round" stroke-width="0.5"><title>2024-05-09 2.0km</title><desc>1715244227000</desc></polyline><polyline fill="none" points="54.00540357735008,41.12058420246467 55.63717442099005,59.09591389284469 66.24368491023779,63.53425013599917 72.15885422099382,57.0986604175996 73.9945964217186,40.23291077837348 71.75091150961816,34.46302704606205 65.63177084363997,31.800000000046566 57.88085933215916,34.68494585878216 55.22923171054572,57.0986604175996 62.77617186587304,64.19999999995343 71.34296879917383,59.761664752615616 73.79062506649643,38.457563132978976 66.44765626545995,32.2438380070962 57.47291662171483,35.57262094295584 55.43320306483656,58.873996906680986 61.96028644312173,63.97808339539915 70.1191406659782,61.093166024191305 73.58665371034294,39.56715553579852 67.05957033205777,32.465756985591725 56.65703119896352,36.682214425178245 55.22923171054572,57.98632879508659 61.144401021301746,63.53425013599917 71.34296879917383,59.09591389284469 73.17871099989861,38.23564460268244 66.24368491023779,32.02191901230253 57.47291662171483,36.01645838562399 55.63717442099005,57.542494639288634 61.5523437326774,63.312333481851965 70.73105473257601,59.5397478165105 72.97473964374512,38.01372605585493 67.05957033205777,32.465756985591725 56.86100255511701,33.79727050871588" stroke="#4dd2ff" stroke-linecap="round" stroke-linejoin="round" stroke-width="0.5"><title>2024-05-05 2.0km</title><desc>1714901559000</desc></polyline><polyline fill="none" points="91.70688987430185,45.12916029035114 92.2723292009905,59.89369295304641 96.60736403986812,63.789875810733065 102.45023708418012,63.789875810733065 109.047029228881,57.227880438324064 109.80094833206385,36.516479512210935 101.69631798099726,32.00506449514069 93.21472807880491,37.746864137006924 92.08384942542762,58.253193250857294 99.81152022443712,64.19999999995343 108.10463035106659,58.253193250857294 109.98942810762674,37.54180007125251 107.72767079994082,33.64557990641333 101.3193584298715,31.800000000046566 92.46080897562206,38.567120247520506 89.63361234217882,54.97219090163708 94.53408650774509,62.35444066557102 100.56543932668865,63.789875810733065 108.2931101275608,57.843068171758205 109.80094833206385,38.156992222648114 103.20415618550032,32.210128975100815 94.15712695661932,36.926607781788334 91.89536964986473,58.253193250857294 98.30368201993406,64.19999999995343 107.72767079994082,59.89369295304641 109.80094833206385,48.205111153190956 110.17790788318962,38.156992222648114 107.72767079994082,34.055708604864776 100.94239887874573,32.00506449514069 94.34560673311353,34.87596581946127 91.51841009873897,55.79244185704738 96.795843815431,63.584813692839816 101.69631798099726,63.789875810733065 107.35071124881506,59.48356811911799 110.3663876587525,39.59244003938511 108.85854945424944,34.87596581946127 104.52351461537182,32.620257889153436 99.05760112218559,32.41519344015978 93.40320785436779,36.72154365456663 90.76449099648744,56.40762991295196 93.02624830324203,61.534191673155874 101.3193584298715,63.99493791302666 108.48158990219235,56.40762991295196 109.42398878093809,36.311415354022756 103.95807528868318,32.620257889153436 97.36128314211965,33.44051553332247 92.64928875211626,39.7975039514713 93.21472807880491,61.12406708532944 102.82719663437456,63.37975156027824 107.9161505755037,59.27850567968562 109.23550900444388,52.921562439063564 108.85854945424944,35.08103008498438 102.26175730768591,32.00506449514069 95.4764853855595,34.055708604864776 92.2723292009905,39.7975039514713 92.08384942542762,60.50888008833863 101.50783820543438,63.789875810733065 108.48158990219235,57.02281783055514 109.61246855650097,35.6962227888871 100.0,32.00506449514069 92.08384942542762,39.38737611169927 92.46080897562206,61.12406708532944 96.98432359099388,64.19999999995343 103.20415618550032,63.37975156027824 109.23550900444388,54.767128124367446 109.61246855650097,35.6962227888871 105.65439326874912,32.210128975100815 98.68064157199115,32.41519344015978 92.08384942542762,39.38737611169927 92.08384942542762,60.30381772527471 101.69631798099726,64.19999999995343 108.67006967775524,57.227880438324064 109.98942810762674,37.13167189410888 106.78527192212641,33.235451145330444 100.37695955205709,32.41519344015978 92.46080897562206,37.746864137006924 92.2723292009905,59.68863054388203 101.13087865430862,64.19999999995343 108.48158990219235,56.81775520602241 109.42398878093809,36.106351180933416 104.52351461537182,32.210128975100815 97.9267224688083,32.620257889153436 92.2723292009905,39.7975039514713 90.57601122092456,58.458255767356604" stroke="#4dd2ff" stroke-linecap="round" stroke-linejoin="round" stroke-width="0.5"><title>2024-04-29 5.0km</title><desc>1714382183000</desc></polyline><polyline fill="none" points="128.0035715997219,59.20002562133595 134.06982762739062,63.80000239354558 142.8934727581218,59.8000230405014 145.65086186211556,40.40003827959299 143.44495057873428,35.20001844014041 137.01104267127812,33.00000700238161 129.47417912166566,39.20003459881991 127.63591971900314,59.000026451889426 130.76096070278436,63.000007001450285 136.09191296994686,63.80000239354558 142.70964681822807,59.40002477564849 143.62877651955932,39.400035249767825 137.5625204909593,33.80001137102954 128.92270130105317,39.60003588581458 128.0035715997219,58.60002806736156 136.64339079055935,62.800008116522804 143.07729869894683,57.800031119491905 143.62877651955932,37.80002962425351 135.54043514840305,33.6000103012193 127.63591971900314,42.80004402436316 126.34913813788444,48.000049081398174 130.02565694227815,61.60001449007541 136.09191296994686,63.2000058721751 140.6875614747405,60.80001844000071 143.81260245852172,39.400035249767825 139.03312801383436,33.80001137102954 129.65800506155938,37.200027267448604 127.81974565982819,54.80004043341614 132.96687198616564,62.20001137070358 141.7905171168968,58.800027266843244 144.1802543401718,39.20003459881991 139.76843177434057,33.80001137102954 134.98895732779056,33.4000092165079 130.2094828831032,37.80002962425351 128.37122348044068,57.40003255568445 131.68009040411562,61.60001449007541 136.8272167313844,62.20001137070358 144.1802543401718,55.40003883955069 139.58460583444685,31.800000000046566 129.1065272409469,37.40002806810662 127.08444189932197,55.800037702778354 133.3345238668844,64.19999999995343 142.8934727581218,59.8000230405014 145.2832099813968,40.80003938637674 142.8934727581218,35.60002032550983 137.5625204909593,33.00000700238161 132.7830460453406,34.00001242570579 128.18739753961563,39.20003459881991 126.90061595849693,57.40003255568445 133.3345238668844,63.80000239354558 139.21695395372808,63.2000058721751 142.8934727581218,59.40002477564849 145.09938404150307,39.60003588581458 137.93017237167805,32.80000587226823 128.5550494203344,37.60002885386348 127.08444189932197,56.40003588539548 130.57713476289064,61.60001449007541 135.7242610892281,63.000007001450285 143.81260245852172,55.800037702778354 144.91555810067803,38.200031120097265 142.70964681822807,34.800016495166346 135.35660920944065,33.00000700238161 128.18739753961563,38.60003255633637 126.90061595849693,57.40003255568445 133.1506979269907,64.19999999995343 142.52582087833434,59.40002477564849 145.2832099813968,39.60003588581458 142.52582087833434,34.60001550009474 137.19486861117184,32.80000587226823 128.18739753961563,38.60003255633637 126.7167900186032,56.600035248789936 132.7830460453406,63.80000239354558 142.8934727581218,58.40002885297872 145.09938404150307,38.60003255633637 138.29782425239682,32.60000472771935 128.5550494203344,37.60002885386348 127.08444189932197,56.600035248789936 133.51834980677813,64.00000120420009 142.70964681822807,58.60002806736156 144.36408028006554,39.20003459881991 137.74634643178433,33.2000081166625 128.37122348044068,38.60003255633637 127.08444189932197,57.00003393297084 129.84183100238442,62.20001137070358 135.1727832686156,63.600003567989916 142.3419949375093,56.600035248789936 143.81260245852172,39.00003393320367 136.8272167313844,33.2000081166625 129.1065272409469,39.20003459881991 128.0035715997219,57.60003184527159 134.98895732779056,62.60000921576284 142.15816899761558,57.40003255568445 143.62877651955932,39.00003393320367 137.19486861117184,33.6000103012193 128.92270130105317,39.00003393320367 126.34913813788444,56.600035248789936" stroke="#4dd2ff" stroke-linecap="round" stroke-linejoin="round" stroke-width="0.5"><title>2024-04-28 5.8km</title><desc>1714295019000</desc></polyline><polyline fill="none" points="162.27598037105054,45.68575791385956 164.5044015366584,60.4530794438906 169.36641135066748,63.7591860643588 175.64650736097246,62.87755799549632 180.1033496921882,57.80819147685543 181.11626840382814,35.98777515231632 172.202583742328,32.24081871751696 165.31473650503904,38.412273835157976 163.69406656734645,58.02859889785759 166.93540644366294,62.87755799549632 172.81033496931195,63.979593040654436 180.1033496921882,57.80819147685543 182.12918711453676,39.73472682153806 181.7240196308121,35.98777515231632 175.64650736097246,32.02040936751291 165.922487732023,36.64900226332247 164.0992340510711,57.14696911443025 166.53023895900697,61.99592966167256 171.59483251534402,63.7591860643588 179.49559846520424,59.130635756999254 180.91368466056883,36.64900226332247 172.202583742328,31.800000000046566 167.13799018599093,34.444911314873025 165.11215276364237,39.51431803195737 165.31473650503904,60.893893874716014 173.01291871257126,64.19999999995343 177.874928525649,61.55511539662257 181.5214358875528,39.51431803195737 176.6594260726124,32.46122805099003 171.18966503161937,32.24081871751696 166.32765521667898,36.20818420546129 163.89665030967444,56.04493151255883 170.37933006230742,63.979593040654436 179.49559846520424,58.91022841818631 181.5214358875528,37.75104711949825 175.0387561339885,32.02040936751291 166.1250714752823,36.64900226332247 164.0992340510711,56.2653390658088 169.97416257765144,63.7591860643588 179.6981822066009,58.469413691200316 181.5214358875528,38.19186494639143 177.874928525649,32.46122805099003 167.7457414129749,33.78368370886892 163.69406656734645,56.48574660322629 170.17674632091075,63.7591860643588 179.29301472287625,58.689821063075215 181.5214358875528,38.412273835157976 176.6594260726124,32.24081871751696 171.39224877394736,31.800000000046566 165.922487732023,36.428593242540956 164.0992340510711,56.2653390658088 169.5689950939268,63.318372062640265 178.48267975263298,60.01226494787261 181.3188521442935,39.07350040250458 175.64650736097246,32.46122805099003 169.5689950939268,33.122455954086035 164.0992340510711,38.412273835157976 161.87081288639456,56.48574660322629" stroke="#4dd2ff" stroke-linecap="round" stroke-linejoin="round" stroke-width="0.5"><title>2024-04-26 3.3km</title><desc>1714123626000</desc></polyline><polyline fill="none" points="18.550640356726944,90.0462008304894 21.79587498214096,101.0538663752377 25.613798069767654,104.16923549259081 30.767994238995016,103.7538531459868 34.77681348193437,99.18464322690852 36.876671181060374,84.4385053764563 36.30398271698505,79.2461846715305 31.531578857451677,74.46924104704522 21.414082671515644,78.62310553435236 19.50512112863362,97.52311048284173 25.232005761004984,103.33847073675133 34.585917327553034,99.39233474992216 36.30398271698505,79.66157068591565 29.431721158325672,73.63846740336157 21.22318651806563,78.4154124581255 19.50512112863362,97.73080213065259 24.468421143479645,103.13077950873412 34.01322886347771,99.60002625756897 36.11308656260371,79.2461846715305 28.859032695181668,73.8461608379148 20.841394209302962,79.03849164163694 19.886913436464965,98.35387697978877 23.51394037064165,103.13077950873412 29.622617311775684,103.54616194870323 34.3950211731717,99.60002625756897 36.30398271698505,79.86926366901025 30.004409621469676,73.43077395414002 21.414082671515644,77.79233313421719 19.696017283014953,97.10772714181803 26.377382687292993,103.54616194870323 34.9677096363157,97.73080213065259 36.11308656260371,79.03849164163694 29.240825003944337,73.22308048862033 19.886913436464965,78.20771936583333 19.50512112863362,82.153885462787 19.696017283014953,100.22310068667866 24.086628834716976,104.37692664307542 30.19530577585101,103.96154432720505 36.11308656260371,97.73080213065259 36.494878872297704,77.3769468406681 27.71365576889366,72.60000000009313 23.13214806187898,73.63846740336157 19.886913436464965,79.03849164163694 18.550640356726944,98.76926013384946 23.13214806187898,103.96154432720505 28.286344232037663,105.0 35.73129425384104,98.97695168829523 37.44935964420438,79.66157068591565 31.913371165283024,72.8076935117133 25.04110960662365,72.60000000009313 20.841394209302962,75.71540104574524 18.74153651110828,99.39233474992216" stroke="#4dd2ff" stroke-linecap="round" stroke-linejoin="round" stroke-width="0.5"><title>2024-04-25 3.0km</title><desc>1714037269000</desc></polyline><polyline fill="none" points="54.9850302124396,95.74289350025356 62.075455888174474,104.11837206291966 71.19171747099608,101.25307944417 73.82530415058136,80.31431803223677 68.96329797245562,74.14286522264592 61.67028870712966,74.36327447416261 58.83411843702197,77.4490022638347 56.60569893848151,97.94696911447681 61.67028870712966,104.33877907227725 71.5968846520409,101.03267220407724 74.02788774017245,80.9755443520844 71.19171747099608,75.24491131515242 61.67028870712966,74.14286522264592 53.566945077851415,83.8408566901926 58.22636766452342,102.1347082387656 64.70904256869107,105.0 69.57104874495417,103.23674386180937 73.0149697875604,77.4490022638347 63.08837384264916,73.48163736891001 53.97211225889623,80.7551355951 57.21344971098006,101.03267220407724 61.467705115675926,104.5591860646382 68.76071438193321,103.45715093635954 73.0149697875604,98.16737658483908 74.02788774017245,80.09390922542661 69.57104874495417,73.70204667025246 62.88579025212675,73.48163736891001 58.42895125411451,77.4490022638347 56.20053175650537,96.62452394352295 61.467705115675926,104.33877907227725 71.79946824256331,100.59185767453164 74.02788774017245,79.65309156337753 66.93746206630021,73.26122805150226 57.821200483478606,78.55104711977765 55.79536457546055,97.50615412299521 61.467705115675926,104.5591860646382 70.58396669849753,102.79592966171913 74.23047133162618,80.31431803223677 68.15296361036599,73.04081871779636 59.03670202754438,76.34695699531585 56.20053175650537,96.8449315126054 61.467705115675926,104.11837206291966 70.98913388047367,101.69389387476258 74.43305492307991,81.8571792144794 72.812386197038,75.46532048401423 65.11420974973589,72.60000000009313 59.03670202754438,76.78777515236288 56.60569893848151,98.38778403890319 62.68320666067302,104.5591860646382 72.40721901506186,100.59185767453164 74.02788774017245,79.21227383520454 66.93746206630021,73.04081871779636 58.023784074001014,77.66941126761958 56.20053175650537,99.48982106358744 64.30387538578361,104.5591860646382 72.60980260651559,99.48982106358744 73.42013696953654,77.4490022638347 65.72196052130312,73.04081871779636 58.023784074001014,78.33063818141818 56.60569893848151,99.04900630260818 63.29095743224025,104.33877907227725 72.40721901506186,99.48982106358744 73.62272056005895,78.33063818141818 64.91162615828216,73.04081871779636 58.42895125411451,77.66941126761958 56.60569893848151,99.04900630260818 65.51937693078071,105.0 72.60980260651559,98.16737658483908 73.82530415058136,78.33063818141818 64.70904256869107,73.26122805150226 58.023784074001014,79.43268270744011 56.80828252900392,99.04900630260818 65.11420974973589,104.33877907227725 72.60980260651559,98.608191476902 74.02788774017245,79.21227383520454 70.38138310890645,74.14286522264592 64.50645897723734,73.26122805150226 58.023784074001014,79.21227383520454 58.023784074001014,100.37145038554445" stroke="#4dd2ff" stroke-linecap="round" stroke-linejoin="round" stroke-width="0.5"><title>2024-04-22 4.9km</title><desc>1713776322000</desc></polyline><polyline fill="none" points="91.084447234869,82.60004189261235 92.55505387671292,98.80003037978895 101.19486789777875,103.40000921627507 106.52581697329879,98.0000332519412 106.89346863422543,78.40002885367721 97.33452546223998,73.6000058723148 91.81975055672228,80.60003650654107 91.81975055672228,100.40002391603775 96.41539631132036,104.20000472804531 102.48164870776236,104.40000356826931 107.81259778421372,97.60003459849395 107.62877195421606,77.0000230409205 98.25365461409092,73.80000700219534 92.00357638578862,80.00003459933214 92.00357638578862,100.40002391603775 95.12861549947411,103.60000811656937 102.84930036962032,104.20000472804531 107.62877195421606,98.80003037978895 108.36407527513802,77.60002562194131 100.27573874592781,73.20000356808305 92.7388797076419,78.40002885367721 90.71679557487369,97.60003459849395 93.6580088576302,103.00001137075014 99.54043542500585,104.60000239405781 107.4449461242184,99.00002962374128 108.73172693606466,79.00003112037666 99.90808708500117,73.80000700219534 92.37122804671526,79.00003112037666 91.26827306579798,98.6000311197713 94.57713800948113,103.20001030131243 100.27573874592781,104.60000239405781 107.62877195421606,98.6000311197713 108.36407527513802,77.80002645240165 100.64339040685445,73.20000356808305 92.37122804671526,79.4000325568486 91.6359247257933,100.00002562161535 95.31244133040309,103.80000700172968 101.74634538777173,104.60000239405781 107.9964236151427,98.2000325564295 108.36407527513802,78.00002726796083 100.09191291593015,73.6000058723148 94.57713800948113,75.60001649521291 92.1874022167176,79.80003393325023 90.90062140394002,97.80003393255174 93.84183468855917,102.80001242551953 99.17278376407921,105.0 107.62877195421606,98.80003037978895 108.91555276606232,78.40002885367721 100.64339040685445,73.6000058723148 92.37122804671526,79.20003184583038 91.084447234869,98.80003037978895 99.35660959407687,105.0 107.07729446422309,100.40002391603775 109.46703025698662,82.80004234937951 107.9964236151427,77.0000230409205 104.13608118053526,74.40001030103303 93.6580088576302,76.4000203255564 90.5329697439447,96.20003884029575 93.84183468855917,102.60001346538775 100.27573874592781,104.60000239405781 105.60668782144785,101.80001747468486 109.46703025698662,82.80004234937951 105.23903616145253,74.40001030103303 95.12861549947411,74.80001242598519 91.6359247257933,80.60003650654107 91.6359247257933,100.6000230407808 98.98895793408155,105.0 104.68755867052823,103.00001137075014 107.9964236151427,97.80003393255174 109.09937859605998,80.20003525004722 100.82721623685211,72.5999999998603 92.55505387671292,78.60002962453291 90.90062140394002,98.6000311197713 99.54043542500585,105.0 107.62877195421606,99.60002726712264 109.09937859605998,79.80003393325023 101.19486789777875,73.6000058723148 92.1874022167176,78.40002885367721 90.5329697439447,96.60003770329058" stroke="#4dd2ff" stroke-linecap="round" stroke-linejoin="round" stroke-width="0.5"><title>2024-04-21 5.0km</title><desc>1713688153000</desc></polyline><polyline fill="none" points="136.58535809395835,78.8890206416254 137.24388594925404,83.58585991495056 139.21946951653808,84.22271788137732 141.04871355975047,83.18782349221874 142.14625998586416,75.54549530753866 141.12188332155347,73.55529666872462 138.85362070798874,73.07764844142366 137.24388594925404,74.27176860760665 136.292679047212,81.7548911383492 138.48777189897373,84.14311065652873 141.4877321301028,82.55096490652068 142.14625998586416,75.14745587762445 139.95116713363677,72.99804038286675 137.0243766643107,74.66980836493894 136.365848809015,81.9937133314088 138.85362070798874,84.22271788137732 141.4877321301028,82.47135755646741 142.14625998586416,75.14745587762445 139.43897880148143,72.99804038286675 137.0243766643107,74.82902422646293 136.365848809015,82.07332071691053 138.85362070798874,84.22271788137732 141.56090189190581,82.31214283849113 142.14625998586416,75.06784797384171 139.65848808689043,72.99804038286675 137.0243766643107,74.74941629864043 136.43901857035235,82.23253547068452 138.85362070798874,84.22271788137732 141.56090189190581,82.31214283849113 142.14625998586416,75.14745587762445 139.21946951653808,72.99804038286675 136.9512069025077,74.98824006388895 136.43901857035235,82.39175020041876 138.85362070798874,84.22271788137732 141.4877321301028,82.47135755646741 142.07309022406116,75.06784797384171 139.36580903967842,72.99804038286675 136.9512069025077,74.82902422646293 136.365848809015,82.1529280966497 138.99996023112908,84.22271788137732 141.56090189190581,82.1529280966497 142.07309022406116,75.06784797384171 139.14629975473508,72.99804038286675 136.9512069025077,74.90863214811543 136.58535809395835,82.71017958852462 138.63411142257974,84.22271788137732 140.97554379794747,83.34703807922779 142.07309022406116,76.50078933208715 140.53652522759512,73.2368645411334 137.1707161879167,74.43098452826962 136.292679047212,81.67528372863308 137.82924404367805,83.90428894589422 139.73165784822777,84.14311065652873 141.2682228446938,82.86939424701268 142.14625998586416,75.46588743350003 140.31701594218612,73.07764844142366 137.39022547286004,74.03294468153035 136.73169761756435,82.9490015671472 139.73165784822777,84.14311065652873 141.63407165324315,81.67528372863308 142.07309022406116,74.90863214811543 138.99996023112908,73.07764844142366 136.8780371407047,75.06784797384171 136.58535809395835,82.71017958852462 138.99996023112908,84.22271788137732 141.4877321301028,82.47135755646741 142.14625998586416,75.14745587762445 139.58531832508743,72.99804038286675 136.9512069025077,74.90863214811543 136.58535809395835,82.71017958852462 139.51214856328443,84.14311065652873 141.63407165324315,81.67528372863308 141.78041117684916,74.35137657099403 139.65848808689043,72.99804038286675 137.3170557115227,74.11255266272929 136.292679047212,81.67528372863308 137.53656499646604,83.82468169700587 134.31709547992796,87.00896700378507 134.39026524219662,91.30773705424508 128.9025331120938,91.78537709917873 127.73181692464277,92.9794762734673 126.48793097492307,100.94010319659719 123.487970743794,103.80591431242647 125.75623335782439,105.0 123.26846145838499,103.64670278632548 126.56110073672608,100.06443714973284 127.58547740103677,92.74065654573496 134.24392571859062,90.9097035197774 135.63415119145066,85.17800411651842 144.1950133140199,86.2128965703887 148.731538541615,81.9937133314088 144.70720164617524,84.85957546683494 141.85358093865216,84.70036110613728 142.07309022406116,74.5902004254167 141.1950530828908,73.07764844142366 139.07312999293208,72.59999999997672 136.65852785576135,74.82902422646293 136.073169761803,82.71017958852462 139.14629975473508,84.38193231343757 141.4145623682998,81.9937133314088 141.92675070045516,74.51059247984085 140.97554379794747,72.91843231831444 138.48777189897373,72.83882424753392 136.512188332621,75.22706377547001 136.073169761803,83.18782349221874 139.07312999293208,84.30232510052156 141.1950530828908,81.91410593950422 141.85358093865216,74.43098452826962 140.82920427434146,72.99804038286675 138.56094166077673,72.83882424753392 136.146339523606,76.18235808593454 135.70732095325366,82.07332071691053 136.65852785576135,83.90428894589422 138.99996023112908,84.38193231343757 141.04871355975047,82.71017958852462 141.92675070045516,75.38627955352422 140.02433689543977,72.67960808851058 136.8780371407047,74.11255266272929 135.70732095325366,82.1529280966497 137.90241380501539,84.22271788137732 141.1950530828908,82.07332071691053 141.99992046225816,74.82902422646293 140.90237403614447,72.99804038286675 139.43897880148143,72.67960808851058 136.0,75.70471103792079 135.56098142964765,82.55096490652068 138.78045094618574,84.38193231343757 141.2682228446938,81.9937133314088 141.70724141551182,74.43098452826962 139.29263927834108,72.67960808851058 136.292679047212,74.98824006388895 135.70732095325366,82.31214283849113 138.48777189897373,84.46153952059103 141.2682228446938,81.91410593950422 141.70724141551182,74.35137657099403 139.21946951653808,72.67960808851058 136.43901857035235,74.51059247984085 135.70732095325366,82.07332071691053 138.48777189897373,84.30232510052156 141.12188332155347,82.47135755646741 141.78041117684916,74.51059247984085 139.21946951653808,72.67960808851058 136.146339523606,75.06784797384171 135.85366047685966,82.1529280966497 138.56094166077673,84.30232510052156 141.1950530828908,82.07332071691053 141.92675070045516,74.51059247984085 139.58531832508743,72.67960808851058 136.365848809015,74.51059247984085 135.41464190604165,81.91410593950422 138.34143237536773,84.30232510052156 141.1950530828908,82.55096490652068 141.70724141551182,74.51059247984085 138.99996023112908,72.67960808851058 136.219509285409,74.98824006388895 135.63415119145066,82.47135755646741 138.48777189897373,84.30232510052156 141.2682228446938,82.07332071691053 141.78041117684916,74.74941629864043 139.29263927834108,72.75921617099084 136.292679047212,74.43098452826962 135.48781166831031,81.67528372863308 138.34143237536773,84.14311065652873 141.2682228446938,81.9937133314088 141.85358093865216,74.5902004254167 139.14629975473508,72.67960808851058 136.365848809015,74.51059247984085 135.56098142964765,81.91410593950422 138.4146021376364,84.22271788137732 141.3413926064968,82.23253547068452 141.92675070045516,74.98824006388895 139.51214856328443,72.75921617099084 136.43901857035235,74.51059247984085 135.56098142964765,81.91410593950422 138.1950928522274,84.38193231343757 141.1950530828908,82.1529280966497 142.07309022406116,74.82902422646293 141.12188332155347,73.15725649421802 139.29263927834108,72.75921617099084 136.292679047212,74.43098452826962 135.56098142964765,81.9937133314088 138.1950928522274,84.22271788137732 141.3413926064968,82.07332071691053 141.70724141551182,74.5902004254167 140.97554379794747,73.2368645411334 138.92679046932608,72.75921617099084 136.073169761803,74.5902004254167 135.70732095325366,82.1529280966497 138.70728118391708,84.22271788137732 141.12188332155347,82.55096490652068 141.70724141551182,74.27176860760665 139.07312999293208,72.67960808851058 136.43901857035235,73.31647258187877 135.56098142964765,74.66980836493894" stroke="#4dd2ff" stroke-linecap="round" stroke-linejoin="round" stroke-width="0.5"><title>2024-04-18 12.3km</title><desc>1713432540000</desc></polyline><polyline fill="none" points="180.63613879680634,97.00803377921693 179.4449472380802,76.92002100637183 171.30513825826347,73.03200239152648 165.15064854174852,78.86402835068293 163.95945698395371,99.8160244319588 170.11394669953734,104.56800239090808 175.6728406380862,103.48800808703527 179.04788338579237,98.95202759816311 179.84201109036803,76.92002100637183 175.07724485825747,73.03200239152648 169.51835092157125,73.24800356314518 164.7535846894607,78.64802759885788 163.95945698395371,99.16802683123387 167.53303165826946,104.13600471802056 172.89339366927743,105.0 179.24641531147063,98.08803050662391 180.43760686926544,78.86402835068293 172.29779789038002,72.60000000009313 164.7535846894607,79.08002908574417 163.76092505734414,98.95202759816311 169.31981899496168,104.56800239090808 178.45228760596365,100.03202359890565 180.43760686926544,80.16003251913935 178.45228760596365,75.40801438945346 172.29779789038002,72.60000000009313 164.95211661513895,78.43202683120035 163.76092505734414,99.16802683123387 169.51835092157125,104.78400120371953 175.6728406380862,103.27200917783193 178.65081953257322,98.95202759816311 179.84201109036803,78.43202683120035 171.10660633258522,72.60000000009313 165.15064854174852,78.86402835068293 163.95945698395371,99.38402604707517 172.09926596377045,105.0 178.8493514591828,98.5200290849898 179.4449472380802,78.00002524768934 175.6728406380862,74.11200808733702 168.5256912894547,73.68000585725531 165.15064854174852,79.08002908574417 164.35652083624154,100.03202359890565 173.4889894472435,104.13600471802056 178.8493514591828,96.14403610560112 179.24641531147063,77.35202275170013 173.88605330046266,73.4640047182329 168.5256912894547,74.32800917816348 164.35652083624154,84.69604252954014 165.9447762472555,102.84001131076366 172.49632981605828,104.3520035627298 177.658159901388,100.46402188646607 179.84201109036803,79.94403186463751 177.4596279738471,75.40801438945346 172.09926596377045,73.68000585725531 165.15064854174852,76.05601732223295 163.363861204125,80.3760331578087" stroke="#4dd2ff" stroke-linecap="round" stroke-linejoin="round" stroke-width="0.5"><title>2024-04-17 3.1km</title><desc>1713344929000</desc></polyline><polyline fill="none" points="21.02035935316235,120.69003381230868 19.159121847711504,136.48503971938044 23.439968110993505,142.35751841310412 28.46530937589705,143.77501136157662 34.42126939352602,139.52253028959967 36.46863064914942,120.28503244835883 29.768175629898906,114.41250586998649 21.764854355715215,119.88003102457151 20.648111851885915,138.91503244871274 27.534690622240305,144.18000921071507 34.79351689480245,139.52253028959967 36.28250689897686,120.69003381230868 29.209804377518594,114.41250586998649 21.764854355715215,120.69003381230868 20.46198810171336,138.30753447092138 27.162443121895194,143.5725124143064 34.79351689480245,139.1175317435991 36.28250689897686,120.89253447111696 30.698794381693006,115.02000921056606 22.137101856060326,119.47502954024822 20.46198810171336,138.7125331372954 27.34856687206775,143.77501136157662 34.79351689480245,138.91503244871274 36.46863064914942,121.2975357437972 29.954299381002784,114.81750811217353 22.137101856060326,119.67753028986044 20.648111851885915,137.90253574261442 22.695473108440638,141.75002120807767 28.093061874620616,143.77501136157662 34.79351689480245,139.1175317435991 36.28250689897686,119.67753028986044 28.279185625724494,114.61500699911267 22.137101856060326,119.67753028986044 20.834235602989793,138.91503244871274 27.90693812444806,144.38250811235048 34.60739314369857,139.32003102381714 36.46863064914942,120.28503244835883 29.768175629898906,114.61500699911267 22.509349358268082,119.88003102457151 20.46198810171336,137.90253574261442 23.812215611338615,142.7625164743513 28.837556877173483,143.97751029348 34.79351689480245,139.1175317435991 35.91025939770043,120.08253174414858 28.651433126069605,114.61500699911267 22.509349358268082,119.88003102457151 21.02035935316235,137.90253574261442 25.859576867893338,143.77501136157662 34.42126939352602,139.32003102381714 36.46863064914942,121.2975357437972 29.582051878795028,114.61500699911267 22.509349358268082,119.47502954024822 20.834235602989793,137.49753695493564 25.859576867893338,143.77501136157662 34.42126939352602,139.72502953954972 36.840878151357174,121.09503511479124 30.326546881347895,115.2225102938246 22.509349358268082,119.47502954024822 20.46198810171336,138.1050351143349 26.976319370791316,144.18000921071507 34.60739314369857,139.1175317435991 36.28250689897686,120.08253174414858 29.954299381002784,114.81750811217353 25.115081866271794,115.83001345256343 22.509349358268082,119.88003102457151 20.834235602989793,139.32003102381714 27.720814373344183,144.18000921071507 34.97964064497501,138.7125331372954 36.28250689897686,119.88003102457151 28.651433126069605,115.02000921056606 22.137101856060326,120.08253174414858 21.02035935316235,138.91503244871274 27.534690622240305,143.77501136157662 34.79351689480245,138.51003381144255 36.28250689897686,120.28503244835883 29.768175629898906,114.81750811217353 22.509349358268082,119.272528775502 20.648111851885915,139.1175317435991 26.790195621550083,143.97751029348 34.23514564242214,139.72502953954972 36.46863064914942,120.48753313790075 28.837556877173483,114.81750811217353 21.39260685443878,118.66502638929524 19.159121847711504,138.1050351143349 24.556710613891482,144.58500699861906 30.140423130244017,144.78750587045215 35.35188814625144,141.14252386661246 37.02700190152973,124.74004411324859 32.74615563824773,114.00750356772915 27.720814373344183,113.4000000001397 22.509349358268082,117.24752029194497 18.786874347366393,134.86504335561767 20.834235602989793,143.37001345166937 25.487329366616905,145.80000000004657 31.815536885522306,144.58500699861906 37.213125651702285,136.8900386595633" stroke="#4dd2ff" stroke-linecap="round" stroke-linejoin="round" stroke-width="0.5"><title>2024-04-15 5.9km</title><desc>1713172666000</desc></polyline><polyline fill="none" points="67.11737485276535,116.83157368400134 67.33742484264076,123.37547429912956 68.95112476637587,124.89173822582234 71.07827466586605,124.73213159822626 72.98537457594648,122.4976363038877 73.35212455829605,115.23549427377293 70.05137471435592,113.40000000002328 67.5574748320505,116.03353427746333 67.26407484617084,122.97645711805671 68.58437478356063,124.73213159822626 70.41812469717115,124.97154153051088 73.05872457288206,122.81685020396253 73.13207456935197,114.59706184116658 70.41812469717115,113.4798041646718 68.07092480780557,114.99608215631451 67.11737485276535,122.41783281392418 68.87777476990595,124.81193491484737 71.44502464868128,124.73213159822626 73.13207456935197,123.05626056628535 73.64552454464138,115.63451435038587 71.07827466586605,113.55960832315031 67.63082482898608,115.71431834768737 67.04402485629544,122.09861879458185 69.24452475272119,124.97154153051088 72.76532458607107,123.61488453607308 73.64552454464138,115.8739263243624 71.59172464208677,113.71921662223758 68.07092480780557,114.99608215631451 67.11737485276535,122.65724326577038 69.17117475625128,124.97154153051088 72.54527459666133,123.9340981017449 73.71887454111129,116.35275011172052 72.25187461078167,113.87882489763433 70.49147469364107,113.55960832315031 68.14427480427548,114.836474048323 67.19072484970093,122.25822581618559 69.02447476284578,124.89173822582234 72.54527459666133,123.9340981017449 73.13207456935197,114.59706184116658 69.75797472847626,113.71921662223758 67.70417482499033,115.8739263243624 67.33742484264076,123.05626056628535 70.49147469364107,124.97154153051088 73.05872457288206,122.89665366394911 73.4988245521672,115.71431834768737 70.8582246764563,113.63941247557523 67.70417482499033,115.71431834768737 67.19072484970093,123.05626056628535 69.83132472494617,124.97154153051088 72.83867458300665,122.97645711805671 73.4988245521672,115.79412233905168 70.63817468704656,113.4798041646718 67.77752482192591,115.55471034691436 67.19072484970093,123.13606400846038 69.61127473507077,124.97154153051088 71.7384246350266,124.65232827543514 73.05872457288206,122.97645711805671 73.57217454863712,115.55471034691436 70.78487467998639,113.55960832315031 67.77752482192591,115.63451435038587 67.33742484264076,122.81685020396253 69.75797472847626,124.97154153051088 72.76532458607107,123.53508112957934 73.64552454464138,115.63451435038587 70.78487467998639,113.55960832315031 67.85087481839582,115.31529830105137 67.26407484617084,122.57743978808867 69.46457474213094,124.97154153051088 72.76532458607107,123.45527771738125 73.57217454863712,115.95373030402698 71.22497465927154,113.63941247557523 67.99757481133565,115.07588620146271 67.19072484970093,122.97645711805671 69.61127473507077,125.05134482949506 72.83867458300665,123.53508112957934 73.57217454863712,115.8739263243624 71.22497465927154,113.63941247557523 67.11737485276535,115.23549427377293 66.67727487394586,123.37547429912956 64.91687495680526,126.40799999731826 65.87042491184548,131.83460341655882 59.34227521996945,133.27105264249258 57.43517530988902,141.01188462181017 54.28112545888871,144.44336949114222 58.16867527551949,145.79999999998836" stroke="#4dd2ff" stroke-linecap="round" stroke-linejoin="round" stroke-width="0.5"><title>2024-04-14 5.4km</title><desc>1713087921000</desc></polyline><polyline fill="none" points="90.37727080285549,135.22044733911753 95.03669757116586,144.47755799465813 103.74779979325831,144.91837206226774 108.20464278943837,137.6449315128848 108.4072265625,116.92654789239168 99.69612434133887,114.061228051316 93.82119493652135,119.79186494578607 92.20052475482225,139.6285988977179 95.64444889035076,144.03674386139028 101.11421074904501,145.13877907162532 107.79947524424642,139.1877840384841 109.21756165195256,118.91022922634147 100.30387565959245,113.62040936644189 93.61861116345972,120.23268270725384 92.20052475482225,139.84900630265474 99.49354056827724,144.91837206226774 107.59689147211611,140.28982106223702 109.82531297020614,121.11431803135201 102.73488092888147,113.62040936644189 94.4289462538436,118.02859324240126 92.60569230094552,139.40819147625007 99.69612434133887,145.35918606398627 107.39430769905448,140.9510430789087 109.42014542594552,120.45309156295843 101.72196206636727,113.8408187169116 94.22636248078197,118.91022922634147 91.99794098269194,138.96737658441998 98.48062170576304,145.80000000004657 107.59689147211611,140.51022841827944 109.82531297020614,121.33472682139836 103.54521602019668,114.061228051316 94.4289462538436,118.68982025515288 92.40310852788389,138.52656162623316 98.88578925095499,144.91837206226774 107.39430769905448,141.17145038512535 109.62272919714451,120.45309156295843 101.92454584036022,113.62040936644189 94.4289462538436,118.46941126766615 92.40310852788389,138.7469691131264 97.26511907018721,144.91837206226774 104.15296733845025,144.47755799465813 107.79947524424642,140.73063575685956 109.42014542594552,120.01227383501828 101.92454584036022,113.62040936644189 94.4289462538436,118.24900226318277 92.60569230094552,139.84900630265474 99.49354056827724,145.80000000004657 108.20464278943837,139.84900630265474 109.42014542594552,118.91022922634147 101.51937829423696,113.62040936644189 93.82119493652135,119.35104711935855 91.99794098269194,139.40819147625007 99.69612434133887,145.35918606398627 107.79947524424642,139.6285988977179 109.62272919714451,120.01227383501828 101.51937829423696,113.39999999990687 94.22636248078197,118.24900226318277 92.40310852788389,137.86533906543627 97.26511907018721,144.91837206226774 107.79947524424642,140.51022841827944 109.42014542594552,118.91022922634147 102.93746470287442,113.62040936644189 94.22636248078197,118.24900226318277 92.60569230094552,139.40819147625007 98.0754541605711,145.13877907162532 107.39430769905448,140.9510430789087 109.62272919714451,121.33472682139836 102.93746470287442,113.39999999990687 94.22636248078197,118.02859324240126 92.40310852788389,138.7469691131264 98.88578925095499,145.13877907162532 107.39430769905448,140.9510430789087 109.82531297020614,119.79186494578607 104.76071865577251,114.28163736849092 97.67028661537915,114.28163736849092 91.39018966536969,127.72657455340959 91.18760589230806,138.7469691131264 90.17468702979386,134.3388162360061" stroke="#4dd2ff" stroke-linecap="round" stroke-linejoin="round" stroke-width="0.5"><title>2024-04-13 4.9km</title><desc>1713000859000</desc></polyline><polyline fill="none" points="126.61082419939339,127.0204285257496 128.12826675269753,141.87900113058276 132.68059441447258,144.76815873221494 139.6987662250176,144.3554221172817 142.73365133162588,136.7197836015839 143.30269228946418,118.3528908812441 134.95675824489444,114.63822355424054 128.69730771053582,121.24207312217914 127.55922579579055,138.9898405028507 131.16315186116844,143.11721190228127 136.663881117478,143.73631707951427 142.35429069399834,138.78347177105024 143.4923726087436,118.3528908812441 135.14643856324255,114.63822355424054 128.69730771053582,122.27392318914644 127.93858643434942,138.9898405028507 135.3361188834533,144.1490537871141 142.16461037378758,139.40257792081684 144.0614135665819,120.41659279051237 137.2329220753163,114.43185300007463 129.64570930600166,119.17837182991207 128.12826675269753,138.57710302318446 134.767077925615,143.94268544064835 142.16461037378758,138.9898405028507 144.0614135665819,120.21022266941145 137.42260239459574,114.22548243100755 129.64570930600166,119.59111221227795 128.12826675269753,138.9898405028507 135.14643856324255,144.1490537871141 142.16461037378758,139.60894660674967 144.0614135665819,119.59111221227795 136.28452047891915,114.22548243100755 129.45602898858488,120.00385253224522 128.50762739218771,140.22805257118307 137.61228271387517,143.94268544064835 142.73365133162588,137.75162787898444 143.11301197018474,115.87644655187614 133.4393156915903,113.81274124630727 128.12826675269753,120.82933298684657 126.99018483888358,140.22805257118307 131.73219281807542,144.97452701674774 136.663881117478,145.38726353924721 143.87173324730247,139.1962092195172 144.25109388493001,116.90829862607643 135.3361188834533,113.4000000001397 127.93858643434942,119.59111221227795 126.61082419939339,140.22805257118307 130.21475026477128,145.1808952856809 136.47420079819858,145.59363177744672 144.0614135665819,138.37073426041752 144.82013484369963,118.14652060554363 134.38771728798747,114.01911184657365 127.36954547744244,120.6229628964793 126.61082419939339,140.0216839313507 134.00835664849728,145.80000000004657 143.11301197018474,140.64078980335034 145.76853643916547,121.03570306254551 141.21620877832174,114.01911184657365 131.73219281807542,114.84459409234114 127.36954547744244,121.65481319534592 128.12826675269753,140.43442119495012 137.04324175603688,144.56179043278098 142.54397101234645,139.1962092195172 144.25109388493001,120.6229628964793 140.8368481406942,115.46370561467484 135.9051598412916,114.01911184657365 128.88698803074658,120.00385253224522 128.31794707290828,138.78347177105024 134.95675824489444,143.94268544064835 142.54397101234645,139.1962092195172 144.0614135665819,120.21022266941145 137.2329220753163,114.22548243100755 129.26634866837412,120.00385253224522 128.31794707290828,138.9898405028507 134.00835664849728,144.3554221172817 140.07812686264515,143.11721190228127 142.9233316509053,138.9898405028507 144.44077420420945,120.21022266941145 137.61228271387517,114.22548243100755 128.12826675269753,120.41659279051237 126.23146356176585,137.13252135855146" stroke="#4dd2ff" stroke-linecap="round" stroke-linejoin="round" stroke-width="0.5"><title>2024-04-12 5.1km</title><desc>1712913892000</desc></polyline><polyline fill="none" points="156.10000000032596,121.11380595446099 155.80000000004657,125.68334465811495 157.7200000002049,127.83754746214254 160.7200000002049,126.46669174759882 161.50000000023283,120.46101275773253 160.95999999996275,119.09014545497485 159.28000000026077,118.30679174349643 156.8200000000652,119.6776602769387 156.160000000149,125.74862360896077 157.7200000002049,127.64171106333379 160.78000000002794,126.33613394811982 161.43999999994412,120.46101275773253 159.5800000000745,118.37207124638371 156.94000000040978,119.54710146185244 156.2200000002049,125.68334465811495 158.20000000018626,127.77226866740966 160.660000000149,126.66252840991365 161.50000000023283,120.7221300950041 159.5800000000745,118.30679174349643 156.94000000040978,119.54710146185244 156.2200000002049,125.61806570226327 157.660000000149,127.64171106333379 160.660000000149,126.66252840991365 161.3800000003539,120.33045405976009 159.46000000019558,118.43735074438155 156.94000000040978,119.48182204685872 156.2200000002049,125.35694983002031 157.4800000002142,127.51115343958372 159.28000000026077,127.64171106333379 160.78000000002794,126.46669174759882 161.43999999994412,120.78740941709839 160.84000000008382,119.02486600581324 157.7200000002049,118.56790972547606 156.64000000013039,120.19989534234628 155.80000000004657,126.53197063994594 162.160000000149,128.8820075134281 164.19999999995343,128.22922012774507 166.7200000002049,125.74862360896077 170.38000000012107,126.92364389169961 171.21999999997206,128.6208926178515 171.04000000003725,133.32094878546195 174.45999999996275,137.89042356901336 180.34000000008382,140.04459623992443 186.39999999990687,140.893208256457 188.19999999995343,139.71820678305812 188.02000000001863,128.75145007536048 187.2399999999907,129.07784363382962 187.0,131.23203805822413" stroke="#4dd2ff" stroke-linecap="round" stroke-linejoin="round" stroke-width="0.5"><title>2024-04-11 3.0km</title><desc>1712828151000</desc></polyline><polyline fill="none" points="20.21882730163634,161.09809599420987 19.45031641703099,180.12003005482256 22.33223223220557,184.9277511301916 27.71180841792375,186.3909689465072 36.54968358203769,180.74712457694113 37.89457762893289,160.2619640538469 29.82521334849298,154.19999999995343 21.947976789437234,158.17163310712203 19.642444138415158,179.7019669620786 25.59840348828584,185.97290679160506 32.51500144228339,185.13678229390644 36.165428140200675,181.37421895889565 38.08670534938574,161.72519478574395 31.746490558609366,154.82710033957846 25.790531208738685,155.24516715481877 21.75584906898439,159.42583186272532 19.0660609761253,179.49293539160863 26.943297534249723,186.60000000009313 36.165428140200675,182.21034458186477 38.66308851260692,164.65165395173244 37.89457762893289,158.58969942154363 34.24415093101561,155.45420053834096 26.943297534249723,154.4090334624052 22.524359951727092,156.7084005139768 17.33691148739308,164.65165395173244 19.642444138415158,179.91099851601757 23.484998556785285,185.5548445736058 30.78585195261985,186.1819378763903 35.97330041974783,181.79228180204518 37.70244990848005,163.18842475186102 32.899256884120405,154.82710033957846 27.13542525563389,154.19999999995343 21.947976789437234,157.33550029061735 19.642444138415158,179.7019669620786 24.82989260368049,185.97290679160506 31.746490558609366,185.76387569052167 36.741811303421855,179.91099851601757 38.470960792154074,162.56132628861815 35.589044976979494,157.12646704702638 30.017341069877148,154.4090334624052 21.75584906898439,157.96259992639534 19.45031641703099,179.283903805539 25.02202032506466,185.76387569052167 31.746490558609366,185.5548445736058 36.9339390238747,180.12003005482256 38.278833070769906,162.56132628861815 33.09138460457325,154.82710033957846 23.29287083633244,155.66323390696198 20.41095502115786,161.3071289404761 20.21882730163634,182.0013131997548 29.633085628040135,186.1819378763903 36.165428140200675,180.12003005482256 36.9339390238747,161.3071289404761 34.24415093101561,156.49936722405255 28.86457474436611,155.24516715481877 21.947976789437234,160.68003005511127 20.41095502115786,179.49293539160863 28.28819158114493,185.76387569052167 35.78117269836366,180.74712457694113 37.12606674525887,162.77035912498832 35.20478953514248,157.75356672983617 30.017341069877148,155.24516715481877 21.947976789437234,160.47099706204608 19.45031641703099,179.7019669620786 26.943297534249723,186.60000000009313 32.13074600044638,186.1819378763903 34.43627865239978,182.21034458186477 36.9339390238747,162.3522934364155 30.78585195261985,155.66323390696198 25.98265892919153,156.08130059670657 22.140104510821402,160.68003005511127 20.41095502115786,178.86584058776498 27.13542525563389,185.34581344178878 35.20478953514248,181.79228180204518 36.9339390238747,161.3071289404761 30.40159651171416,155.45420053834096 22.33223223220557,160.68003005511127 20.60308274347335,179.283903805539 26.943297534249723,185.5548445736058 35.39691725652665,180.32906157849357 36.9339390238747,161.3071289404761 29.633085628040135,155.66323390696198 21.947976789437234,160.88906303257681 20.41095502115786,179.49293539160863 28.480319302529097,185.76387569052167 35.20478953514248,181.1651875139214 36.741811303421855,160.68003005511127 30.209468791261315,155.66323390696198 22.140104510821402,159.63486493378878 19.834571859799325,179.283903805539 26.174786650575697,185.5548445736058 35.20478953514248,181.79228180204518 37.70244990848005,162.3522934364155 30.40159651171416,155.66323390696198 25.406275766901672,156.49936722405255 20.41095502115786,162.14326056884602 18.873933254741132,178.86584058776498" stroke="#4dd2ff" stroke-linecap="round" stroke-linejoin="round" stroke-width="0.5"><title>2024-04-09 5.6km</title><desc>1712653834000</desc></polyline><polyline fill="none" points="55.47810529079288,160.10946269729175 55.103516512550414,179.26418469287455 58.28752112854272,184.96982052829117 62.782586470246315,185.78491038572975 68.02682936843485,184.766048025107 71.77271715272218,179.8755033898633 73.45836665574461,159.70191395725124 70.27436203882098,155.42264850670472 64.46823597326875,154.20000000018626 56.78916601464152,160.31323704426177 55.47810529079288,180.07927625835873 63.906352805905044,186.19245522329584 71.77271715272218,179.8755033898633 73.08377787657082,160.7207856932655 68.58871253579855,155.21887379395775 64.65553036238998,154.8113243218977 56.78916601464152,160.7207856932655 54.72892773337662,178.85663881897926 58.28752112854272,184.5622755077202 63.71905841585249,186.19245522329584 71.96001154184341,179.67173050623387 73.64566104486585,161.53588280710392 66.52847425453365,154.40377478930168 59.41128746327013,155.83019788726233 56.22728284727782,159.9056883349549 55.103516512550414,180.4868219497148 63.157175248488784,185.98868281231262 71.58542276360095,180.4868219497148 73.45836665574461,159.9056883349549 70.83624520711601,156.0339725543745 65.03011914063245,154.40377478930168 56.414577236399055,160.31323704426177 55.103516512550414,180.89436757937074 63.157175248488784,186.60000000009313 71.39812837447971,180.89436757937074 73.45836665574461,159.49813956487924 64.84282475151122,154.60754956374876 56.78916601464152,159.2943651569076 54.541633343324065,180.07927625835873 60.90964257810265,186.60000000009313 65.96659108716995,185.98868281231262 71.02353959530592,180.89436757937074 73.27107226662338,159.9056883349549 70.83624520711601,156.0339725543745 64.46823597326875,154.40377478930168 56.22728284727782,160.51701137633063 54.91622212342918,180.89436757937074 58.10022673942149,185.17359301517718 63.157175248488784,186.39622761961073 71.39812837447971,181.09814037196338 73.64566104486585,160.51701137633063 71.21083398442715,156.237747205887 64.84282475151122,154.60754956374876 56.414577236399055,159.2943651569076 54.35433895513415,178.85663881897926 60.53505379892886,185.98868281231262 66.34117986448109,185.98868281231262 71.02353959530592,181.9132313884329 73.83295543398708,164.38872078526765 70.08706764969975,155.21887379395775 58.849404295906425,156.0339725543745 55.85269406903535,161.1283342805691 55.290810900740325,181.5056859103497 59.598581853322685,185.78491038572975 64.84282475151122,186.19245522329584 72.14730593003333,179.0604117643088 73.45836665574461,161.1283342805691 70.46165642794222,156.237747205887 63.157175248488784,154.40377478930168 56.22728284727782,159.9056883349549 54.541633343324065,180.07927625835873 62.96988085936755,186.60000000009313 71.58542276360095,180.89436757937074 73.45836665574461,160.31323704426177 71.39812837447971,156.64529646467417 65.03011914063245,154.20000000018626 59.41128746327013,156.237747205887 55.85269406903535,161.53588280710392 56.039988458156586,179.8755033898633 63.34446963761002,184.96982052829117 70.46165642794222,180.28304911172017 71.77271715272218,160.51701137633063 65.59200230892748,155.42264850670472 55.665399678982794,162.14720548246987 54.16704456601292,177.6340008310508" stroke="#4dd2ff" stroke-linecap="round" stroke-linejoin="round" stroke-width="0.5"><title>2024-04-08 5.0km</title><desc>1712568268000</desc></polyline><polyline fill="none" points="90.77373912092298,166.12642631609924 92.78341970779002,181.43192832311615 97.71627205982804,184.21473739854991 103.74531382136047,182.62456114101224 107.76467499602586,177.4564817319624 107.21658029127866,156.98283759551123 98.81246147025377,154.20000000018626 92.05262676719576,161.35586221376434 91.68723029643297,181.23315613530576 96.25468617770821,184.8110532492865 104.11071029212326,183.81719342363067 107.3992785261944,178.0527991000563 107.58197676204145,157.18161159800366 97.35087558906525,154.99509675358422 91.68723029643297,163.74114533537067 91.50453206244856,180.63683948107064 96.80278088338673,184.61228131409734 103.74531382136047,183.81719342363067 107.76467499602586,178.0527991000563 107.3992785261944,156.78406357811764 97.71627205982804,154.99509675358422 92.2353250021115,160.7595410987269 90.95643735677004,179.64297809358686 98.99515970610082,185.40736896684393 107.21658029127866,179.24543343414553 108.49546793755144,160.56076736422256 105.38959793932736,155.5914191622287 100.45674558822066,154.5975484070368 95.3411950012669,155.988967360463 92.60072147287428,160.36199361411855 91.50453206244856,180.23929497040808 94.79310029558837,184.21473739854991 101.91833146940917,184.61228131409734 107.3992785261944,179.24543343414553 107.94737323187292,158.5730291986838 101.73563323449343,154.3987742108293 92.78341970779002,159.76567227602936 91.13913559168577,179.24543343414553 94.24500558990985,183.81719342363067 98.81246147025377,184.8110532492865 107.03388205636293,180.43806723342277 108.86086440831423,161.35586221376434 106.30308911483735,156.58528954628855 100.09134911745787,154.99509675358422 94.42770382575691,157.7779335163068 91.86992853228003,162.74727762839757 91.50453206244856,182.22701692814007 94.42770382575691,185.40736896684393 100.82214205898345,185.60614084312692 107.03388205636293,179.0466610826552 108.86086440831423,160.16321984957904 100.63944382313639,154.79632258741185 92.78341970779002,159.9644460703712 90.59104088507593,180.0405226929579 96.98547911830246,186.40122819831595 107.03388205636293,179.44420577120036 108.67816617246717,160.56076736422256 105.2068997034803,155.39264504099265 100.45674558822066,154.5975484070368 92.41802323795855,160.36199361411855 91.3218338266015,180.0405226929579 99.72595264669508,185.00982517004013 107.03388205636293,178.64911633403972 108.49546793755144,159.16935080452822 100.63944382313639,154.99509675358422 92.41802323795855,160.7595410987269 91.13913559168577,179.24543343414553 94.79310029558837,183.81719342363067 100.27404735330492,185.00982517004013 107.21658029127866,178.64911633403972 108.49546793755144,159.16935080452822 105.2068997034803,155.5914191622287 98.26436676550657,154.99509675358422 91.68723029643297,163.34359829733148 91.13913559168577,182.028244799003 94.24500558990985,185.60614084312692 101.73563323449343,185.2085970758926 107.3992785261944,178.0527991000563 107.58197676204145,157.5791595580522 99.36055617686361,154.20000000018626 92.2353250021115,160.7595410987269 91.13913559168577,179.44420577120036 96.43738441262394,184.61228131409734 101.73563323449343,184.41350936354138 107.58197676204145,177.85402665939182 108.49546793755144,159.56689846678637 105.38959793932736,155.5914191622287 99.17785794101655,154.79632258741185 92.05262676719576,161.35586221376434 91.86992853228003,180.8356117135845 96.98547911830246,185.40736896684393 103.74531382136047,184.41350936354138 108.13007146771997,172.88471079966985 106.30308911483735,157.7779335163068 95.88928970694542,156.3865154988598 90.95643735677004,167.51783923245966 91.68723029643297,183.41964938864112 95.88928970694542,186.20245638210326 102.83182264585048,184.8110532492865 107.58197676204145,177.65525420289487 109.04356264322996,161.95218319515698 107.21658029127866,156.98283759551123 100.82214205898345,154.99509675358422 95.3411950012669,156.58528954628855 90.95643735677004,167.31906600343063 91.68723029643297,183.41964938864112 95.70659147202969,186.00368455052376 103.01452088076621,184.61228131409734 107.58197676204145,177.65525420289487 107.3992785261944,157.5791595580522 97.89897029474378,154.79632258741185 91.86992853228003,162.9460511994548 92.2353250021115,181.43192832311615 97.89897029474378,186.00368455052376 104.29340852703899,185.60614084312692 107.76467499602586,180.8356117135845 107.94737323187292,158.37425530003384 97.16817735414952,154.79632258741185 91.50453206244856,162.34973044134676 90.59104088507593,181.03438393212855 93.5142126493156,185.40736896684393 99.90865088254213,186.40122819831595 107.58197676204145,178.84788871533237 108.3127697026357,158.97057695058174 98.08166852965951,154.99509675358422 91.3218338266015,163.14482475607656 90.77373912092298,182.22701692814007 94.24500558990985,185.80491270427592 100.09134911745787,186.20245638210326 105.57229617424309,183.41964938864112 108.13007146771997,178.25157152628526 108.86086440831423,158.97057695058174 98.81246147025377,154.5975484070368 91.50453206244856,161.55463588889688 90.77373912092298,181.43192832311615 94.06230735499412,185.2085970758926 100.82214205898345,186.60000000009313 107.3992785261944,181.23315613530576 108.86086440831423,159.76567227602936 106.30308911483735,156.18774143699557 99.36055617686361,154.5975484070368 92.05262676719576,160.36199361411855 90.04294618032873,179.64297809358686 92.41802323795855,184.01596541819163 97.71627205982804,186.20245638210326 107.03388205636293,181.23315613530576 109.04356264322996,161.35586221376434 101.00484029389918,154.5975484070368 92.78341970779002,159.76567227602936 90.77373912092298,179.24543343414553 99.54325441177934,186.20245638210326 107.76467499602586,181.43192832311615 109.59165734890848,162.34973044134676 106.12039087992162,156.78406357811764 101.00484029389918,154.99509675358422 92.41802323795855,160.36199361411855 90.59104088507593,179.84175040083937 93.33151441346854,184.21473739854991 99.54325441177934,186.20245638210326 107.94737323187292,180.23929497040808 109.2262608781457,162.34973044134676 106.85118382051587,157.5791595580522 100.63944382313639,154.5975484070368 92.2353250021115,160.56076736422256 90.95643735677004,180.43806723342277 93.87960911914706,184.41350936354138 99.54325441177934,186.00368455052376 107.21658029127866,181.03438393212855 108.86086440831423,161.55463588889688 100.45674558822066,154.99509675358422 92.2353250021115,161.35586221376434 90.77373912092298,180.63683948107064 99.90865088254213,185.60614084312692 107.58197676204145,179.84175040083937 109.2262608781457,160.95831481856294 99.90865088254213,154.79632258741185 92.05262676719576,161.35586221376434 90.95643735677004,179.84175040083937 99.72595264669508,185.60614084312692 107.3992785261944,180.23929497040808 108.67816617246717,160.7595410987269 104.84150323364884,155.7901932692621 99.54325441177934,154.99509675358422 92.41802323795855,161.75340954912826 90.59104088507593,180.0405226929579 98.62976323533803,186.20245638210326 107.3992785261944,181.82947265543044 109.95705381967127,162.54850404243916 106.66848558560014,156.3865154988598 96.25468617770821,155.7901932692621 92.05262676719576,161.95218319515698 90.95643735677004,177.4564817319624" stroke="#4dd2ff" stroke-linecap="round" stroke-linejoin="round" stroke-width="0.5"><title>2024-04-06 11.8km</title><desc>1712394949000</desc></polyline><polyline fill="none" points="128.26498641073704,182.6026175878942 135.41987398080528,186.60000000009313 142.18801087141037,180.91950750374235 144.50851494818926,162.61562030087225 142.18801087141037,156.51429809327237 135.03312330134213,154.83117239619605 130.39211514778435,157.98703225213103 127.68486039154232,176.9221170176752 132.71261922456324,184.91689230897464 142.18801087141037,181.5506739031989 144.70189028792083,161.5636691406835 141.02775883302093,156.30390743608586 134.64637262187898,155.6727353706956 130.19873980805278,159.03898474993184 127.87823573220521,178.60522949392907 132.90599456522614,185.12728082528338 141.60788485221565,182.39222888206132 144.1217642677948,161.98444965155795 139.86750679463148,155.88312607537955 133.6794959232211,155.88312607537955 130.0053644683212,159.67015606025234 127.87823573220521,177.97406243323348 131.93911786563694,184.70650377636775 141.8012601910159,182.18184016132727 144.31513960752636,161.98444965155795 138.70725475531071,155.46234465087764 129.81198912858963,159.24937520246021 127.29810971207917,179.86756319040433 134.4529972821474,185.54805781156756 142.38138621114194,180.70911867241375 144.50851494818926,162.19483988336287 141.99463553074747,157.145469969837 137.16025203838944,155.04156316374429 129.2318631093949,159.88054646505043 127.29810971207917,178.39484048937447 133.6794959232211,185.3376693262253 142.5747615499422,180.49872982571833 144.31513960752636,161.77405940392055 136.96687669865787,155.04156316374429 129.61861378978938,159.67015606025234 127.87823573220521,179.026007455308 134.4529972821474,185.54805781156756 142.5747615499422,180.49872982571833 144.1217642677948,160.51171758631244 136.38675067946315,155.2519539152272 129.61861378978938,159.88054646505043 128.07161107100546,179.6571742799133 135.61324932053685,185.3376693262253 142.96151223033667,180.07795208413154 144.50851494818926,161.14288856601343 137.54700271692127,155.2519539152272 129.2318631093949,160.51171758631244 127.87823573220521,179.6571742799133 134.83974796161056,185.54805781156756 142.7681368906051,180.70911867241375 144.50851494818926,161.35327886114828 136.7735013589263,155.2519539152272 129.2318631093949,160.51171758631244 127.68486039154232,179.6571742799133 135.61324932053685,185.54805781156756 142.5747615499422,180.70911867241375 144.31513960752636,161.35327886114828 137.74037805758417,155.04156316374429 129.42523844912648,159.67015606025234 127.87823573220521,178.81561848218553 134.06624660361558,185.3376693262253 139.6741314548999,184.28572666458786 142.7681368906051,180.49872982571833 144.50851494818926,160.72210792871192 137.54700271692127,155.04156316374429 129.81198912858963,159.45976563938893 127.68486039154232,178.81561848218553 133.48612058442086,185.3376693262253 142.38138621114194,181.34028511936776 144.31513960752636,161.5636691406835 138.127128736116,154.62078161374666 130.0053644683212,159.03898474993184 127.68486039154232,179.026007455308 134.25962194241583,185.3376693262253 140.25425747409463,184.075338085182 143.15488756913692,179.86756319040433 143.92838892899454,160.30132722854614 136.19337533973157,154.83117239619605 129.2318631093949,160.0909368544817 127.87823573220521,180.2883409622591 135.03312330134213,185.54805781156756 142.7681368906051,180.07795208413154 144.31513960752636,161.35327886114828 136.96687669865787,155.04156316374429 129.03848777059466,160.93249825551175 127.87823573220521,179.026007455308 134.83974796161056,185.3376693262253 142.5747615499422,180.91950750374235 144.31513960752636,161.5636691406835 136.38675067946315,155.04156316374429 129.42523844912648,160.30132722854614 127.87823573220521,179.86756319040433 132.51924388483167,185.12728082528338 142.18801087141037,181.5506739031989 144.70189028792083,161.77405940392055 136.96687669865787,154.83117239619605 129.81198912858963,159.45976563938893 128.26498641073704,179.44678535405546 135.61324932053685,185.54805781156756 142.7681368906051,180.07795208413154 144.50851494818926,161.5636691406835 140.83438349235803,156.09351676376536 136.19337533973157,154.83117239619605 129.61861378978938,160.30132722854614 127.87823573220521,179.23639641306363 135.61324932053685,185.54805781156756 142.5747615499422,181.5506739031989 144.31513960752636,160.93249825551175 136.96687669865787,154.41039081453346 130.19873980805278,158.19742278312333 127.87823573220521,179.23639641306363 130.58549048751593,183.8649494901765 135.80662466026843,185.54805781156756 143.15488756913692,179.6571742799133 144.31513960752636,160.93249825551175 140.64100815355778,155.6727353706956 135.61324932053685,154.62078161374666 129.61861378978938,159.67015606025234 128.07161107100546,179.86756319040433 136.38675067946315,185.96883473428898 142.7681368906051,180.91950750374235 144.1217642677948,160.93249825551175 136.58012601919472,154.20000000018626 129.42523844912648,159.67015606025234 127.68486039154232,178.60522949392907 133.6794959232211,185.3376693262253 142.5747615499422,181.1298963194713 144.1217642677948,161.14288856601343 137.54700271692127,154.83117239619605 132.51924388483167,155.46234465087764 129.42523844912648,160.51171758631244 127.87823573220521,179.23639641306363 135.22649864200503,185.54805781156756 142.96151223033667,180.49872982571833 144.1217642677948,161.5636691406835 137.16025203838944,154.62078161374666 129.42523844912648,160.30132722854614 128.07161107100546,180.07795208413154 135.03312330134213,185.96883473428898 142.7681368906051,180.49872982571833 144.1217642677948,160.30132722854614 141.02775883302093,156.09351676376536 135.03312330134213,154.83117239619605 129.42523844912648,160.30132722854614 128.26498641073704,180.07795208413154 136.19337533973157,185.54805781156756 142.96151223033667,179.44678535405546 144.31513960752636,160.51171758631244 135.80662466026843,154.62078161374666 130.39211514778435,158.4078132980503 127.49148505181074,165.5610814562533 127.29810971207917,181.7610626714304" stroke="#4dd2ff" stroke-linecap="round" stroke-linejoin="round" stroke-width="0.5"><title>2024-04-03 9.7km</title><desc>1712137473000</desc></polyline><polyline fill="none" points="160.41896706540138,173.89416184602305 165.67422570753843,172.83533942489885 163.72783361840993,178.55297579034232 168.00989621598274,185.11765515431762 177.93649587407708,185.11765515431762 183.58103293552995,164.36474580410868 180.46680559124798,155.47059522173367 173.07051565032452,154.20000000018626 167.81525700632483,157.1647212964017 165.47958649974316,178.3412116866093 168.20453542564064,185.54118233220652 175.01690773945302,185.54118233220652 180.07752717286348,181.9411992984824 182.2185584725812,162.45885874563828 177.5472174566239,156.10589261888526 168.00989621598274,159.9176740059629 165.47958649974316,180.03532407432795 171.5134019786492,185.96470944746397 180.07752717286348,181.51767158182338 181.82928005419672,162.24709343793802 176.37938220240176,155.47059522173367 167.81525700632483,159.9176740059629 165.67422570753843,180.6706159580499 172.29195881448686,186.388236498693 180.07752717286348,181.72943544830196 182.2185584725812,162.03532811440527 176.96329982951283,155.894126835512 171.5134019786492,156.5294241369702 167.42597858887166,160.76473583909683 165.28494729008526,180.03532407432795 171.70804118737578,186.60000000009313 179.88288796506822,181.72943544830196 182.02391926385462,161.40003204811364 176.96329982951283,155.894126835512 167.42597858887166,160.5529704047367 165.28494729008526,178.97650395100936 167.81525700632483,184.48236426827498 173.2651548590511,186.388236498693 180.66144479997456,180.88237988809124 182.02391926385462,161.61179741937667 176.76866061985493,155.68236103653908 172.48659802321345,155.68236103653908 167.42597858887166,160.34120495407842 165.28494729008526,179.18826800701208 171.1241235602647,186.388236498693 179.6882487554103,182.57649075472727 182.2185584725812,162.45885874563828 178.32577429246157,156.10589261888526 173.2651548590511,155.894126835512 167.62061779852957,160.34120495407842 165.47958649974316,179.61179607291706 169.95628830604255,185.7529458978679 180.07752717286348,184.69412791263312" stroke="#4dd2ff" stroke-linecap="round" stroke-linejoin="round" stroke-width="0.5"><title>2024-04-02 3.0km</title><desc>1712049520000</desc></polyline><polyline fill="none" points="21.544237934984267,205.1958415696863 20.294735599309206,222.8685523159802 24.043242605403066,226.72028327942826 29.666003114543855,226.94685553689487 33.83101089950651,222.18883457873017 35.913514791987836,199.7580636702478 28.83300155773759,194.99999999976717 22.168989102356136,200.43778644152917 20.08648520987481,222.18883457873017 23.626741827465594,226.49371100589633 29.45775272604078,226.94685553689487 33.83101089950651,221.96226196573116 35.913514791987836,199.9846379442606 29.041251947171986,194.99999999976717 22.168989102356136,200.2112122012768 19.878234821371734,221.5091166885104 27.166998444125056,227.39999999990687 33.83101089950651,222.41540717496537 36.12176518049091,200.890934871044 29.874253503978252,194.99999999976717 22.168989102356136,200.2112122012768 19.878234821371734,221.73568933596835 26.542247276753187,227.39999999990687 33.62276051007211,222.8685523159802 36.12176518049091,201.1175090605393 30.08250389341265,194.99999999976717 22.168989102356136,199.9846379442606 19.878234821371734,221.5091166885104 26.125746497884393,227.39999999990687 33.62276051007211,222.8685523159802 36.33001556992531,201.57065738830715 30.70725506171584,195.2265746302437 22.377239492721856,199.5314893790055 19.878234821371734,221.0559713449329 26.542247276753187,227.39999999990687 33.62276051007211,222.8685523159802 36.12176518049091,201.1175090605393 29.874253503978252,194.99999999976717 22.377239492721856,199.5314893790055 19.878234821371734,221.5091166885104 26.750497666187584,227.39999999990687 33.83101089950651,222.18883457873017 36.12176518049091,201.34408323303796 29.666003114543855,194.99999999976717 22.168989102356136,200.43778644152917 19.878234821371734,221.73568933596835 26.750497666187584,227.39999999990687 33.83101089950651,222.41540717496537 36.12176518049091,200.66436066525057 29.45775272604078,194.99999999976717 22.168989102356136,200.43778644152917 19.878234821371734,221.28254402498715 22.58548988122493,225.8139940816909 28.20825039036572,227.17342777713202 33.83101089950651,222.18883457873017 36.12176518049091,200.890934871044 29.041251947171986,194.99999999976717 22.168989102356136,200.43778644152917 19.878234821371734,221.0559713449329 26.125746497884393,227.39999999990687 33.62276051007211,222.8685523159802 36.33001556992531,202.02380564785562 30.49900467135012,195.2265746302437 22.58548988122493,199.3049150716979 19.878234821371734,221.0559713449329 24.667993773706257,226.94685553689487 33.62276051007211,222.8685523159802 36.33001556992531,201.57065738830715 30.915505449287593,195.2265746302437 23.001990659162402,198.39861767017283 19.669984431006014,220.37625320069492 22.377239492721856,225.8139940816909 28.000000000931323,227.39999999990687 32.99800934270024,224.00141487270594 36.33001556992531,202.93010196485557 32.165007784962654,195.67972383880988 24.251492994837463,196.8125965653453 20.711236378178,223.54826990095899 25.08449455164373,227.17342777713202 30.70725506171584,226.26713871466927 34.87226284574717,215.3916488159448" stroke="#4dd2ff" stroke-linecap="round" stroke-linejoin="round" stroke-width="0.5"><title>2024-03-30 4.8km</title><desc>1711782999000</desc></polyline><polyline fill="none" points="54.68114785570651,208.22453283029608 56.099234050139785,223.21226494782604 60.353492639027536,226.73877907218412 66.83617239259183,226.29796503763646 71.69818220566958,219.90615412266925 71.29301472194493,197.42450212943368 61.568995092995465,195.66122805094346 56.301817793399096,201.6122738351114 56.301817793399096,222.55104307970032 61.97416257672012,227.39999999990687 68.2542585870251,225.85715093649924 71.90076594892889,219.90615412266925 73.31885214429349,203.37554435175844 71.09043097868562,196.98368370882235 64.0,195.0 59.13799018505961,198.08572963625193 55.49148282315582,219.46533906576224 57.517320247367024,224.53470823913813 63.39224877394736,227.39999999990687 71.69818220566958,221.44900630274788 72.50851717591286,199.18777515226975 63.79741625767201,195.4408187174704 56.70698527712375,201.83268270711415 56.70698527712375,224.31430106493644 64.40516748465598,227.17959304060787 70.28009601030499,223.65307944384404 72.91368465963751,203.59595309197903 71.49559846427292,198.08572963625193 67.03875613305718,195.22040936746635 57.92248773109168,198.96736608212814 55.288899081759155,220.78778403857723 60.353492639027536,226.73877907218412 70.077512267977,223.21226494782604 72.91368465963751,203.37554435175844 68.65942607168108,196.32245595403947 57.92248773109168,196.32245595403947" stroke="#4dd2ff" stroke-linecap="round" stroke-linejoin="round" stroke-width="0.5"><title>2024-03-28 2.0km</title><desc>1711615120000</desc></polyline><polyline fill="none" points="91.81055497657508,208.77004738501273 89.76319371908903,209.17504771822132 91.81055497657508,210.79504844523035 89.57706996891648,209.78254810441285 91.81055497657508,210.3900483546313 92.36892622802407,223.147522109095 96.46364874020219,226.7925035674125 102.97798001021147,226.9950023931451 108.56169252563268,220.11003381130286 109.4923112783581,198.84752029180527 105.02534126583487,195.40500239352696 99.44162874855101,195.40500239352696 92.92729747947305,202.69503511465155 91.6244312254712,221.12253028945997 98.69713374692947,227.39999999990687 107.63107377290726,222.1350263885688 109.30618752818555,200.8725287753623 106.51433127000928,196.0125058698468 102.04736125655472,195.0 93.6717924810946,200.6700279947836 92.36892622802407,219.50253574247472 94.97465873602778,224.56501548178494 99.62775249965489,226.38750587031245 106.70045502111316,222.1350263885688 108.56169252563268,202.49253447097726 102.04736125655472,196.21500699897297 94.60241123382002,200.8725287753623 93.29954498074949,220.92003102367744 100.0,226.38750587031245 107.25882627163082,220.92003102367744 108.37556877546012,200.26502638915554 101.67511375527829,195.81000472628511 94.60241123382002,201.4800310244318 93.11342122964561,220.3125331371557 98.88325749710202,226.38750587031245 107.07270252145827,220.92003102367744 108.37556877546012,201.68253174400888 100.93061875365674,195.40500239352696 94.7885349849239,200.8725287753623 92.74117372836918,220.3125331371557 99.25550499837846,226.38750587031245 107.4449500227347,220.92003102367744 108.93394002690911,201.68253174400888 102.41960875783116,195.81000472628511 94.97465873602778,200.6700279947836 92.92729747947305,220.11003381130286 94.23016373254359,224.3625164742116 98.88325749710202,225.98250811221078 107.25882627163082,221.52752877445891 108.93394002690911,202.8975357436575 102.60573250800371,196.62000921042636 94.7885349849239,200.46752719930373 92.92729747947305,220.92003102367744 99.62775249965489,226.18500699847937 107.25882627163082,221.12253028945997 108.74781627673656,200.8725287753623 101.86123750638217,196.21500699897297 94.7885349849239,201.4800310244318 92.92729747947305,220.51503244857304 99.62775249965489,226.38750587031245 105.58371251728386,225.5775102933403 108.37556877546012,221.7300279943738 110.42293003108352,202.29003381216899" stroke="#4dd2ff" stroke-linecap="round" stroke-linejoin="round" stroke-width="0.5"><title>2024-03-26 3.7km</title><desc>1711445960000</desc></polyline><polyline fill="none" points="127.26458935905248,219.8400325186085 134.41174352075905,227.39999999990687 142.94862210098654,222.432023599511 144.5368785802275,200.61602604738437 140.16917326115072,195.0 129.84550614003092,198.6720182672143 127.0660573001951,219.1920343847014 128.85284583922476,224.16001636022702 135.00733970012516,227.1840012036264 142.5515579795465,222.8640218861401 144.9339426998049,201.69602980441414 140.9633014993742,195.2160012035165 130.44110232032835,199.5360218868591 127.86018554028124,212.06404531630687 130.24257025960833,224.16001636022702 135.40440381970257,226.53600471862592 140.16917326115072,224.5920143891126 144.33834651950747,202.99203377962112 140.9633014993742,196.72800917783752 135.20587175991386,196.08000585692935 131.2352305604145,199.3200210062787 128.65431377943605,218.32803664729 133.02201909944415,225.88800808764063 141.16183356009424,223.29602010920644 144.33834651950747,202.1280311937444 139.77210913971066,195.86400471813977 131.2352305604145,199.5360218868591 128.65431377943605,218.76003554835916 133.22055116016418,225.88800808764063 140.9633014993742,223.29602010920644 142.94862210098654,198.2400163600687 136.1985320597887,195.4320023912005 130.63963437918574,201.04802759876475 128.85284583922476,221.3520275983028 132.42642291914672,225.45601025270298 137.98532059974968,225.67200917797163" stroke="#4dd2ff" stroke-linecap="round" stroke-linejoin="round" stroke-width="0.5"><title>2024-03-25 2.1km</title><desc>1711359274000</desc></polyline><polyline fill="none" points="176.1042667068541,224.28463181457482 179.92218922358006,203.10003544809297 175.53157832846045,196.45385425630957 165.6049797842279,200.81541245779954 163.50512239988893,218.46926851640455 169.23200617637485,226.15385314566083 177.63143571279943,222.83079213206656 179.92218922358006,203.10003544809297 174.3862015735358,196.66154765943065 165.6049797842279,201.02310553495772 163.50512239988893,219.71541882003658 169.61379842739552,226.15385314566083 177.8223318392411,222.20771774929017 179.92218922358006,202.26926366891712 174.19530544802547,196.66154765943065 165.6049797842279,200.81541245779954 163.6960185263306,219.92311048298143 165.41408365871757,224.28463181457482 170.75917518232018,226.36154432664625 178.01322796475142,221.37695168796927 179.92218922358006,203.51542124408297 174.95888995099813,196.66154765943065 165.6049797842279,199.98463999526575 163.6960185263306,219.92311048298143 169.61379842739552,226.5692354927305 177.44053958822042,222.6231006870512 179.92218922358006,203.10003544809297 174.57709769997746,196.2461608380545 165.79587590973824,199.77694684104063 163.50512239988893,220.33849376207218 165.41408365871757,224.49232313618995 171.14096743427217,226.7769266429823 178.20412409026176,221.16926013468765 179.73129309806973,202.06157068535686 173.81351319607347,196.2461608380545 168.46842167247087,197.28462777542882 165.22318753227592,201.43849164131097 163.88691465184093,221.37695168796927 171.33186356071383,226.36154432664625 178.39502021670341,220.54618537868373 179.73129309806973,202.26926366891712 174.19530544802547,196.2461608380545 165.41408365871757,201.43849164131097 163.6960185263306,220.75387697899714 170.3773829312995,226.15385314566083 177.63143571279943,222.20771774929017 179.73129309806973,202.06157068535686 173.0499286931008,196.2461608380545 165.22318753227592,201.2307985960506 163.88691465184093,220.9615685644094 170.3773829312995,226.5692354927305 178.01322796475142,222.20771774929017 179.92218922358006,202.26926366891712 176.67695508431643,196.86924104718491 165.9867720361799,199.77694684104063 163.6960185263306,218.67696027224883 168.2775255460292,226.15385314566083 177.44053958822042,223.0384835617151 179.92218922358006,202.68464958970435 174.00440932251513,196.45385425630957 165.6049797842279,200.40002625784837 163.6960185263306,220.13080212986097 169.0411100499332,225.94616194884293 177.24964346177876,223.66155775799416 180.11308535002172,203.3077283538878 176.29516283329576,196.86924104718491 170.3773829312995,196.2461608380545 165.79587590973824,200.40002625784837 162.35974564403296,218.46926851640455 163.88691465184093,224.0769404785242 169.23200617637485,227.39999999990687 174.19530544802547,227.19230889668688 178.7768124686554,222.83079213206656 181.64025435689837,203.7231141186785 176.4860589588061,195.41538700810634 170.18648680485785,195.0 164.6504991548136,199.56925367121585 162.35974564403296,219.50772714125924 168.2775255460292,226.7769266429823 178.20412409026176,225.11539700627327" stroke="#4dd2ff" stroke-linecap="round" stroke-linejoin="round" stroke-width="0.5"><title>2024-03-24 4.9km</title><desc>1711273464000</desc></polyline><polyline fill="none" points="18.865092338994145,259.25525420345366 20.50937571749091,265.01964938873425 25.07682954892516,268.0012281984091 30.3750759921968,267.0073689671699 34.75983166974038,262.63438393198885 36.586813202127814,241.76321984967217 35.12522797565907,238.18528954591602 29.64428337942809,236.39632258727215 23.61524432245642,237.7877414370887 20.326677564531565,241.9619936144445 19.23048864584416,261.83929497073404 22.701753556728363,266.4110532498453 28.91349076665938,267.80245638173074 35.49062428250909,260.44788871565834 35.673322435468435,239.1791595579125 29.096188919618726,236.39632258727215 22.33635725080967,238.5828375958372 19.595884951762855,243.35340954945423 18.49969603214413,260.84543343423866 24.34603693615645,268.19999999995343 30.740472299046814,267.0073689671699 34.57713351584971,262.83315613493323 37.68300212081522,244.54605119908229 35.30792612954974,238.18528954591602 30.19237783830613,236.19754840643145 22.519055403769016,238.5828375958372 19.778583105653524,242.9558622133918 19.595884951762855,264.4233332253061 24.894131395965815,268.19999999995343 30.19237783830613,267.80245638173074 35.673322435468435,260.44788871565834 35.673322435468435,239.1791595579125 26.903811081312597,235.80000000004657 19.96128125768155,242.7570885233581 18.6823941860348,261.6405226928182 22.153659096919,266.8085970757529 28.000000000931323,267.60368455015123 35.49062428250909,260.6466610827483 36.2214168952778,240.1730291985441 33.29824644420296,236.7938709044829 27.086509234271944,236.19754840643145 19.778583105653524,243.15463588875718 19.047790491953492,263.23070049704984 28.91349076665938,267.4049127041362 35.30792612954974,260.6466610827483 35.30792612954974,239.1791595579125 28.365396306850016,235.99877421092242 20.326677564531565,240.57057695067488 18.316997879184783,262.03806723305024 21.97096094302833,266.6098251703661 28.91349076665938,267.80245638173074 35.30792612954974,261.0442057712935 34.942529822699726,237.98651549918577 27.817301847040653,235.99877421092242 22.701753556728363,238.5828375958372 18.6823941860348,253.49084651237354 21.057470177300274,265.6159654180519 32.38475567754358,266.21228131395765 36.76951135508716,243.9497304414399 32.7501519843936,236.99264504062012 22.519055403769016,238.5828375958372 18.6823941860348,258.2613917000126 19.96128125768155,265.01964938873425 24.711433242075145,267.4049127041362 33.846340903081,264.02578904200345 36.95220950804651,244.34727762825787 34.39443536289036,237.98651549918577 22.33635725080967,237.98651549918577 19.23048864584416,249.3166124469135 20.50937571749091,265.01964938873425 25.99032031558454,267.80245638173074 32.56745383050293,265.8147373984102 35.49062428250909,261.2429780939128 36.95220950804651,244.54605119908229 34.211737209931016,237.98651549918577 25.259527701884508,236.59509675344452 19.778583105653524,243.15463588875718 18.865092338994145,262.83315613493323 23.980640629306436,267.4049127041362 30.19237783830613,266.6098251703661 34.39443536289036,256.07489288575016 33.480944596230984,239.1791595579125 27.817301847040653,237.39019326888956 21.97096094302833,240.1730291985441 18.49969603214413,252.69575481512584" stroke="#4dd2ff" stroke-linecap="round" stroke-linejoin="round" stroke-width="0.5"><title>2024-03-22 5.0km</title><desc>1711100044000</desc></polyline><polyline fill="none" points="54.135435316711664,247.95004544593394 57.485664832405746,265.16251647425815 63.069380691275,267.9975012044888 68.65309654921293,266.37751029315405 72.37557378783822,262.12502953922376 73.67844082135707,252.81004835409112 71.25883061625063,239.04001745092683 63.62775227613747,236.40750356740318 58.230160280130804,243.29253447055817 57.485664832405746,262.7325271987356 61.95263751875609,267.3900047263596 67.35022951476276,267.3900047263596 71.81720220204443,261.11253313720226 71.63107834011316,241.67252877471037 65.48899089638144,237.21750811184756 58.41628414206207,243.29253447055817 57.485664832405746,262.12502953922376 60.835894347168505,266.5800092101563 65.86123861931264,267.5925035676919 71.25883061625063,260.3025357427541 72.00332606397569,241.06502638873644 66.79185792896897,236.6100047265645 58.41628414206207,241.47002799483016 56.741169383749366,260.9100338113494 64.37224772479385,266.98500699875876 69.21146813500673,265.97251241421327 72.56169764976948,260.3025357427541 72.74782151170075,239.64752029138617 70.51433516759425,236.6100047265645 63.44162841513753,235.79999999981374 57.11341710854322,241.87502953992225 55.99667393695563,261.9225302892737 64.37224772479385,268.19999999995343 72.00332606397569,260.70753447012976 73.86456468328834,242.88753313780762 71.07270675431937,236.00250120437704 59.533027313649654,237.6225102932658 55.06605462729931,258.0750416580122" stroke="#4dd2ff" stroke-linecap="round" stroke-linejoin="round" stroke-width="0.5"><title>2024-03-21 2.2km</title><desc>1711013104000</desc></polyline></svg>