<?xml version="1.0" encoding="utf-8" ?>
<svg baseProfile="full" height="300mm" version="1.1" viewBox="0,0,200,300" width="200mm" xmlns="http://www.w3.org/2000/svg" xmlns:ev="http://www.w3.org/2001/xml-events" xmlns:xlink="http://www.w3.org/1999/xlink"><defs /><rect fill="#222222" height="300" width="200" x="0" y="0" /><text fill="#FFFFFF" style="font-size:12px; font-family:Arial; font-weight:bold;" x="10" y="20">Over 2km Runs</text><text fill="#FFFFFF" style="font-size:4px; font-family:Arial" x="10" y="280">ATHLETE</text><text fill="#FFFFFF" style="font-size:9px; font-family:Arial" x="10" y="290">作怪</text><text fill="#FFFFFF" style="font-size:4px; font-family:Arial" x="120" y="280">STATISTICS</text><text fill="#FFFFFF" style="font-size:3px; font-family:Arial" x="120" y="285">Number: 25</text><text fill="#FFFFFF" style="font-size:3px; font-family:Arial" x="120" y="290">Weekly: 3.6</text><text fill="#FFFFFF" style="font-size:3px; font-family:Arial" x="141" y="285">Total: 126.7 km</text><text fill="#FFFFFF" style="font-size:3px; font-family:Arial" x="141" y="290">Avg: 5.1 km</text><text fill="#FFFFFF" style="font-size:3px; font-family:Arial" x="167" y="285">Min: 2.0 km</text><text fill="#FFFFFF" style="font-size:3px; font-family:Arial" x="167" y="290">Max: 12.3 km</text><polyline fill="none" points="19.70688987430185,45.12916029035114 20.272329200990498,59.89369295304641 24.607364039868116,63.789875810733065 30.450237084180117,63.789875810733065 37.047029228881,57.227880438324064 37.800948332063854,36.516479512210935 29.696317980997264,32.00506449514069 21.21472807880491,37.746864137006924 20.083849425427616,58.253193250857294 27.811520224437118,64.19999999995343 36.10463035106659,58.253193250857294 37.989428107626736,37.54180007125251 35.727670799940825,33.64557990641333 29.3193584298715,31.800000000046566 20.460808975622058,38.567120247520506 17.63361234217882,54.97219090163708 22.534086507745087,62.35444066557102 28.565439326688647,63.789875810733065 36.293110127560794,57.843068171758205 37.800948332063854,38.156992222648114 31.204156185500324,32.210128975100815 22.157126956619322,36.926607781788334 19.895369649864733,58.253193250857294 26.303682019934058,64.19999999995343 35.727670799940825,59.89369295304641 37.800948332063854,48.205111153190956 38.17790788318962,38.156992222648114 35.727670799940825,34.055708604864776 28.942398878745735,32.00506449514069 22.345606733113527,34.87596581946127 19.51841009873897,55.79244185704738 24.795843815431,63.584813692839816 29.696317980997264,63.789875810733065 35.35071124881506,59.48356811911799 38.3663876587525,39.59244003938511 36.85854945424944,34.87596581946127 32.52351461537182,32.620257889153436 27.057601122185588,32.41519344015978 21.403207854367793,36.72154365456663 18.76449099648744,56.40762991295196 21.026248303242028,61.534191673155874 29.3193584298715,63.99493791302666 36.481589902192354,56.40762991295196 37.42398878093809,36.311415354022756 31.958075288683176,32.620257889153436 25.361283142119646,33.44051553332247 20.649288752116263,39.7975039514713 21.21472807880491,61.12406708532944 30.82719663437456,63.37975156027824 35.91615057550371,59.27850567968562 37.235509004443884,52.921562439063564 36.85854945424944,35.08103008498438 30.26175730768591,32.00506449514069 23.4764853855595,34.055708604864776 20.272329200990498,39.7975039514713 20.083849425427616,60.50888008833863 29.507838205434382,63.789875810733065 36.481589902192354,57.02281783055514 37.61246855650097,35.6962227888871 28.0,32.00506449514069 20.083849425427616,39.38737611169927 20.460808975622058,61.12406708532944 24.98432359099388,64.19999999995343 31.204156185500324,63.37975156027824 37.235509004443884,54.767128124367446 37.61246855650097,35.6962227888871 33.65439326874912,32.210128975100815 26.680641571991146,32.41519344015978 20.083849425427616,39.38737611169927 20.083849425427616,60.30381772527471 29.696317980997264,64.19999999995343 36.67006967775524,57.227880438324064 37.989428107626736,37.13167189410888 34.78527192212641,33.235451145330444 28.376959552057087,32.41519344015978 20.460808975622058,37.746864137006924 20.272329200990498,59.68863054388203 29.130878654308617,64.19999999995343 36.481589902192354,56.81775520602241 37.42398878093809,36.106351180933416 32.52351461537182,32.210128975100815 25.926722468808293,32.620257889153436 20.272329200990498,39.7975039514713 18.576011220924556,58.458255767356604" stroke="#4dd2ff" stroke-linecap="round" stroke-linejoin="round" stroke-width="0.5"><title>2024-04-29 5.0km</title><desc>1714382183000</desc></polyline><polyline fill="none" points="56.00357159972191,59.20002562133595 62.06982762739062,63.80000239354558 70.89347275812179,59.8000230405014 73.65086186211556,40.40003827959299 71.44495057873428,35.20001844014041 65.01104267127812,33.00000700238161 57.47417912166566,39.20003459881991 55.63591971900314,59.000026451889426 58.76096070278436,63.000007001450285 64.09191296994686,63.80000239354558 70.70964681822807,59.40002477564849 71.62877651955932,39.400035249767825 65.56252049095929,33.80001137102954 56.922701301053166,39.60003588581458 56.00357159972191,58.60002806736156 64.64339079055935,62.800008116522804 71.07729869894683,57.800031119491905 71.62877651955932,37.80002962425351 63.54043514840305,33.6000103012193 55.63591971900314,42.80004402436316 54.34913813788444,48.000049081398174 58.02565694227815,61.60001449007541 64.09191296994686,63.2000058721751 68.6875614747405,60.80001844000071 71.81260245852172,39.400035249767825 67.03312801383436,33.80001137102954 57.65800506155938,37.200027267448604 55.819745659828186,54.80004043341614 60.96687198616564,62.20001137070358 69.79051711689681,58.800027266843244 72.18025434017181,39.20003459881991 67.76843177434057,33.80001137102954 62.98895732779056,33.4000092165079 58.20948288310319,37.80002962425351 56.371223480440676,57.40003255568445 59.68009040411562,61.60001449007541 64.8272167313844,62.20001137070358 72.18025434017181,55.40003883955069 67.58460583444685,31.800000000046566 57.10652724094689,37.40002806810662 55.08444189932197,55.800037702778354 61.33452386688441,64.19999999995343 70.89347275812179,59.8000230405014 73.2832099813968,40.80003938637674 70.89347275812179,35.60002032550983 65.56252049095929,33.00000700238161 60.7830460453406,34.00001242570579 56.18739753961563,39.20003459881991 54.90061595849693,57.40003255568445 61.33452386688441,63.80000239354558 67.21695395372808,63.2000058721751 70.89347275812179,59.40002477564849 73.09938404150307,39.60003588581458 65.93017237167805,32.80000587226823 56.5550494203344,37.60002885386348 55.08444189932197,56.40003588539548 58.57713476289064,61.60001449007541 63.724261089228094,63.000007001450285 71.81260245852172,55.800037702778354 72.91555810067803,38.200031120097265 70.70964681822807,34.800016495166346 63.35660920944065,33.00000700238161 56.18739753961563,38.60003255633637 54.90061595849693,57.40003255568445 61.15069792699069,64.19999999995343 70.52582087833434,59.40002477564849 73.2832099813968,39.60003588581458 70.52582087833434,34.60001550009474 65.19486861117184,32.80000587226823 56.18739753961563,38.60003255633637 54.716790018603206,56.600035248789936 60.7830460453406,63.80000239354558 70.89347275812179,58.40002885297872 73.09938404150307,38.60003255633637 66.29782425239682,32.60000472771935 56.5550494203344,37.60002885386348 55.08444189932197,56.600035248789936 61.51834980677813,64.00000120420009 70.70964681822807,58.60002806736156 72.36408028006554,39.20003459881991 65.74634643178433,33.2000081166625 56.371223480440676,38.60003255633637 55.08444189932197,57.00003393297084 57.841831002384424,62.20001137070358 63.1727832686156,63.600003567989916 70.3419949375093,56.600035248789936 71.81260245852172,39.00003393320367 64.8272167313844,33.2000081166625 57.10652724094689,39.20003459881991 56.00357159972191,57.60003184527159 62.98895732779056,62.60000921576284 70.15816899761558,57.40003255568445 71.62877651955932,39.00003393320367 65.19486861117184,33.6000103012193 56.922701301053166,39.00003393320367 54.34913813788444,56.600035248789936" stroke="#4dd2ff" stroke-linecap="round" stroke-linejoin="round" stroke-width="0.5"><title>2024-04-28 5.8km</title><desc>1714295019000</desc></polyline><polyline fill="none" points="90.27598037105054,45.68575791385956 92.5044015366584,60.4530794438906 97.36641135066748,63.7591860643588 103.64650736097246,62.87755799549632 108.1033496921882,57.80819147685543 109.11626840382814,35.98777515231632 100.20258374232799,32.24081871751696 93.31473650503904,38.412273835157976 91.69406656734645,58.02859889785759 94.93540644366294,62.87755799549632 100.81033496931195,63.979593040654436 108.1033496921882,57.80819147685543 110.12918711453676,39.73472682153806 109.72401963081211,35.98777515231632 103.64650736097246,32.02040936751291 93.922487732023,36.64900226332247 92.09923405107111,57.14696911443025 94.53023895900697,61.99592966167256 99.59483251534402,63.7591860643588 107.49559846520424,59.130635756999254 108.91368466056883,36.64900226332247 100.20258374232799,31.800000000046566 95.13799018599093,34.444911314873025 93.11215276364237,39.51431803195737 93.31473650503904,60.893893874716014 101.01291871257126,64.19999999995343 105.87492852564901,61.55511539662257 109.5214358875528,39.51431803195737 104.6594260726124,32.46122805099003 99.18966503161937,32.24081871751696 94.32765521667898,36.20818420546129 91.89665030967444,56.04493151255883 98.37933006230742,63.979593040654436 107.49559846520424,58.91022841818631 109.5214358875528,37.75104711949825 103.0387561339885,32.02040936751291 94.12507147528231,36.64900226332247 92.09923405107111,56.2653390658088 97.97416257765144,63.7591860643588 107.6981822066009,58.469413691200316 109.5214358875528,38.19186494639143 105.87492852564901,32.46122805099003 95.7457414129749,33.78368370886892 91.69406656734645,56.48574660322629 98.17674632091075,63.7591860643588 107.29301472287625,58.689821063075215 109.5214358875528,38.412273835157976 104.6594260726124,32.24081871751696 99.39224877394736,31.800000000046566 93.922487732023,36.428593242540956 92.09923405107111,56.2653390658088 97.56899509392679,63.318372062640265 106.48267975263298,60.01226494787261 109.31885214429349,39.07350040250458 103.64650736097246,32.46122805099003 97.56899509392679,33.122455954086035 92.09923405107111,38.412273835157976 89.87081288639456,56.48574660322629" stroke="#4dd2ff" stroke-linecap="round" stroke-linejoin="round" stroke-width="0.5"><title>2024-04-26 3.3km</title><desc>1714123626000</desc></polyline><polyline fill="none" points="126.55064035672694,49.24620083044283 129.79587498214096,60.25386637519114 133.61379806976765,63.36923549254425 138.76799423899502,62.95385314594023 142.77681348193437,58.384643226861954 144.87667118106037,43.63850537640974 144.30398271698505,38.446184671483934 139.53157885745168,33.66924104699865 129.41408267151564,37.823105534305796 127.50512112863362,56.723110482795164 133.23200576100498,62.53847073670477 142.58591732755303,58.59233474987559 144.30398271698505,38.86157068586908 137.43172115832567,32.83846740331501 129.22318651806563,37.615412458078936 127.50512112863362,56.930802130606025 132.46842114347965,62.330779508687556 142.0132288634777,58.800026257522404 144.1130865626037,38.446184671483934 136.85903269518167,33.04616083786823 128.84139420930296,38.23849164159037 127.88691343646497,57.5538769797422 131.51394037064165,62.330779508687556 137.62261731177568,62.74616194865666 142.3950211731717,58.800026257522404 144.30398271698505,39.069263668963686 138.00440962146968,32.630773954093456 129.41408267151564,36.99233313417062 127.69601728301495,56.307727141771466 134.377382687293,62.74616194865666 142.9677096363157,56.930802130606025 144.1130865626037,38.23849164159037 137.24082500394434,32.42308048857376 127.88691343646497,37.40771936578676 127.50512112863362,41.353885462740436 127.69601728301495,59.4231006866321 132.08662883471698,63.576926643028855 138.195305775851,63.16154432715848 144.1130865626037,56.930802130606025 144.4948788722977,36.57694684062153 135.71365576889366,31.800000000046566 131.13214806187898,32.83846740331501 127.88691343646497,38.23849164159037 126.55064035672694,57.96926013380289 131.13214806187898,63.16154432715848 136.28634423203766,64.19999999995343 143.73129425384104,58.176951688248664 145.44935964420438,38.86157068586908 139.91337116528302,32.00769351166673 133.04110960662365,31.800000000046566 128.84139420930296,34.91540104569867 126.74153651110828,58.59233474987559" stroke="#4dd2ff" stroke-linecap="round" stroke-linejoin="round" stroke-width="0.5"><title>2024-04-25 3.0km</title><desc>1714037269000</desc></polyline><polyline fill="none" points="162.9850302124396,54.94289350020699 170.07545588817447,63.318372062873095 179.19171747099608,60.45307944412343 181.82530415058136,39.514318032190204 176.96329797245562,33.34286522259936 169.67028870712966,33.56327447411604 166.83411843702197,36.649002263788134 164.6056989384815,57.14696911443025 169.67028870712966,63.53877907223068 179.5968846520409,60.23267220403068 182.02788774017245,40.17554435203783 179.19171747099608,34.444911315105855 169.67028870712966,33.34286522259936 161.56694507785141,43.04085669014603 166.22636766452342,61.33470823871903 172.70904256869107,64.19999999995343 177.57104874495417,62.43674386176281 181.0149697875604,36.649002263788134 171.08837384264916,32.68163736886345 161.97211225889623,39.955135595053434 165.21344971098006,60.23267220403068 169.46770511567593,63.75918606459163 176.7607143819332,62.65715093631297 181.0149697875604,57.36737658479251 182.02788774017245,39.29390922538005 177.57104874495417,32.90204667020589 170.88579025212675,32.68163736886345 166.4289512541145,36.649002263788134 164.20053175650537,55.82452394347638 169.46770511567593,63.53877907223068 179.7994682425633,59.79185767448507 182.02788774017245,38.85309156333096 174.9374620663002,32.46122805145569 165.8212004834786,37.75104711973108 163.79536457546055,56.70615412294865 169.46770511567593,63.75918606459163 178.58396669849753,61.99592966167256 182.23047133162618,39.514318032190204 176.152963610366,32.24081871774979 167.03670202754438,35.546956995269284 164.20053175650537,56.04493151255883 169.46770511567593,63.318372062873095 178.98913388047367,60.893893874716014 182.4330549230799,41.057179214432836 180.812386197038,34.66532048396766 173.1142097497359,31.800000000046566 167.03670202754438,35.98777515231632 164.6056989384815,57.587784038856626 170.68320666067302,63.75918606459163 180.40721901506186,59.79185767448507 182.02788774017245,38.412273835157976 174.9374620663002,32.24081871774979 166.02378407400101,36.869411267573014 164.20053175650537,58.689821063540876 172.3038753857836,63.75918606459163 180.6098026065156,58.689821063540876 181.42013696953654,36.649002263788134 173.72196052130312,32.24081871774979 166.02378407400101,37.530638181371614 164.6056989384815,58.24900630256161 171.29095743224025,63.53877907223068 180.40721901506186,58.689821063540876 181.62272056005895,37.530638181371614 172.91162615828216,32.24081871774979 166.4289512541145,36.869411267573014 164.6056989384815,58.24900630256161 173.5193769307807,64.19999999995343 180.6098026065156,57.36737658479251 181.82530415058136,37.530638181371614 172.70904256869107,32.46122805145569 166.02378407400101,38.63268270739354 164.80828252900392,58.24900630256161 173.1142097497359,63.53877907223068 180.6098026065156,57.80819147685543 182.02788774017245,38.412273835157976 178.38138310890645,33.34286522259936 172.50645897723734,32.46122805145569 166.02378407400101,38.412273835157976 166.02378407400101,59.57145038549788" stroke="#4dd2ff" stroke-linecap="round" stroke-linejoin="round" stroke-width="0.5"><title>2024-04-22 4.9km</title><desc>1713776322000</desc></polyline><polyline fill="none" points="19.084447234869003,92.80004189256579 20.55505387671292,109.00003037974238 29.19486789777875,113.6000092162285 34.52581697329879,108.20003325189464 34.89346863422543,88.60002885363065 25.33452546223998,83.80000587226823 19.819750556722283,90.80003650649451 19.819750556722283,110.60002391599119 24.415396311320364,114.40000472799875 30.48164870776236,114.60000356822275 35.81259778421372,107.80003459844738 35.62877195421606,87.20002304087393 26.25365461409092,84.00000700214878 20.00357638578862,90.20003459928557 20.00357638578862,110.60002391599119 23.128615499474108,113.8000081165228 30.849300369620323,114.40000472799875 35.62877195421606,109.00003037974238 36.36407527513802,87.80002562189475 28.27573874592781,83.40000356803648 20.7388797076419,88.60002885363065 18.716795574873686,107.80003459844738 21.658008857630193,113.20001137070358 27.540435425005853,114.80000239401124 35.444946124218404,109.20002962369472 36.73172693606466,89.2000311203301 27.90808708500117,84.00000700214878 20.37122804671526,89.2000311203301 19.268273065797985,108.80003111972474 22.577138009481132,113.40001030126587 28.27573874592781,114.80000239401124 35.62877195421606,108.80003111972474 36.36407527513802,88.00002645235509 28.64339040685445,83.40000356803648 20.37122804671526,89.60003255680203 19.635924725793302,110.20002562156878 23.31244133040309,114.00000700168312 29.746345387771726,114.80000239401124 35.9964236151427,108.40003255638294 36.36407527513802,88.20002726791427 28.091912915930152,83.80000587226823 22.577138009481132,85.80001649516635 20.1874022167176,90.00003393320367 18.900621403940022,108.00003393250518 21.841834688559175,113.00001242547296 27.172783764079213,115.19999999995343 35.62877195421606,109.00003037974238 36.91555276606232,88.60002885363065 28.64339040685445,83.80000587226823 20.37122804671526,89.40003184578381 19.084447234869003,109.00003037974238 27.356609594076872,115.19999999995343 35.07729446422309,110.60002391599119 37.46703025698662,93.00004234933294 35.9964236151427,87.20002304087393 32.13608118053526,84.60001030098647 21.658008857630193,86.60002032550983 18.532969743944705,106.40003884024918 21.841834688559175,112.80001346534118 28.27573874592781,114.80000239401124 33.60668782144785,112.0000174746383 37.46703025698662,93.00004234933294 33.23903616145253,84.60001030098647 23.128615499474108,85.00001242593862 19.635924725793302,90.80003650649451 19.635924725793302,110.80002304073423 26.988957934081554,115.19999999995343 32.68755867052823,113.20001137070358 35.9964236151427,108.00003393250518 37.09937859605998,90.40003525000066 28.82721623685211,82.79999999981374 20.55505387671292,88.80002962448634 18.900621403940022,108.80003111972474 27.540435425005853,115.19999999995343 35.62877195421606,109.80002726707608 37.09937859605998,90.00003393320367 29.19486789777875,83.80000587226823 20.1874022167176,88.60002885363065 18.532969743944705,106.80003770324402" stroke="#4dd2ff" stroke-linecap="round" stroke-linejoin="round" stroke-width="0.5"><title>2024-04-21 5.0km</title><desc>1713688153000</desc></polyline><polyline fill="none" points="64.58535809395835,89.08902064163703 65.24388594925404,93.7858599149622 67.21946951653808,94.42271788138896 69.04871355975047,93.38782349223038 70.14625998586416,85.7454953075503 69.12188332155347,83.75529666873626 66.85362070798874,83.2776484414353 65.24388594925404,84.47176860761829 64.292679047212,91.95489113836084 66.48777189897373,94.34311065654038 69.48773213010281,92.75096490653232 70.14625998586416,85.3474558776361 67.95116713363677,83.19804038287839 65.0243766643107,84.86980836495059 64.365848809015,92.19371333142044 66.85362070798874,94.42271788138896 69.48773213010281,92.67135755647905 70.14625998586416,85.3474558776361 67.43897880148143,83.19804038287839 65.0243766643107,85.02902422647458 64.365848809015,92.27332071692217 66.85362070798874,94.42271788138896 69.56090189190581,92.51214283850277 70.14625998586416,85.26784797385335 67.65848808689043,83.19804038287839 65.0243766643107,84.94941629865207 64.43901857035235,92.43253547069617 66.85362070798874,94.42271788138896 69.56090189190581,92.51214283850277 70.14625998586416,85.3474558776361 67.21946951653808,83.19804038287839 64.95120690250769,85.1882400639006 64.43901857035235,92.5917502004304 66.85362070798874,94.42271788138896 69.48773213010281,92.67135755647905 70.07309022406116,85.26784797385335 67.36580903967842,83.19804038287839 64.95120690250769,85.02902422647458 64.365848809015,92.35292809666134 66.99996023112908,94.42271788138896 69.56090189190581,92.35292809666134 70.07309022406116,85.26784797385335 67.14629975473508,83.19804038287839 64.95120690250769,85.10863214812707 64.58535809395835,92.91017958853627 66.63411142257974,94.42271788138896 68.97554379794747,93.54703807923943 70.07309022406116,86.7007893320988 68.53652522759512,83.43686454114504 65.1707161879167,84.63098452828126 64.292679047212,91.87528372864472 65.82924404367805,94.10428894590586 67.73165784822777,94.34311065654038 69.26822284469381,93.06939424702432 70.14625998586416,85.66588743351167 68.31701594218612,83.2776484414353 65.39022547286004,84.232944681542 64.73169761756435,93.14900156715885 67.73165784822777,94.34311065654038 69.63407165324315,91.87528372864472 70.07309022406116,85.10863214812707 66.99996023112908,83.2776484414353 64.87803714070469,85.26784797385335 64.58535809395835,92.91017958853627 66.99996023112908,94.42271788138896 69.48773213010281,92.67135755647905 70.14625998586416,85.3474558776361 67.58531832508743,83.19804038287839 64.95120690250769,85.10863214812707 64.58535809395835,92.91017958853627 67.51214856328443,94.34311065654038 69.63407165324315,91.87528372864472 69.78041117684916,84.55137657100568 67.65848808689043,83.19804038287839 65.3170557115227,84.31255266274093 64.292679047212,91.87528372864472 65.53656499646604,94.02468169701751 62.31709547992796,97.20896700379672 62.39026524219662,101.50773705425672 56.902533112093806,101.98537709919037 55.73181692464277,103.17947627347894 54.487930974923074,111.14010319660883 51.487970743793994,114.00591431243811 53.756233357824385,115.20000000001164 51.26846145838499,113.84670278633712 54.561100736726075,110.26443714974448 55.58547740103677,102.9406565457466 62.24392571859062,101.10970351978904 63.634151191450655,95.37800411653006 72.19501331401989,96.41289657040033 76.73153854161501,92.19371333142044 72.70720164617524,95.05957546684658 69.85358093865216,94.90036110614892 70.07309022406116,84.79020042542834 69.19505308289081,83.2776484414353 67.07312999293208,82.79999999998836 64.65852785576135,85.02902422647458 64.073169761803,92.91017958853627 67.14629975473508,94.58193231344922 69.41456236829981,92.19371333142044 69.92675070045516,84.7105924798525 68.97554379794747,83.11843231832609 66.48777189897373,83.03882424754556 64.51218833262101,85.42706377548166 64.073169761803,93.38782349223038 67.07312999293208,94.5023251005332 69.19505308289081,92.11410593951587 69.85358093865216,84.63098452828126 68.82920427434146,83.19804038287839 66.56094166077673,83.03882424754556 64.146339523606,86.38235808594618 63.70732095325366,92.27332071692217 64.65852785576135,94.10428894590586 66.99996023112908,94.58193231344922 69.04871355975047,92.91017958853627 69.92675070045516,85.58627955353586 68.02433689543977,82.87960808852222 64.87803714070469,84.31255266274093 63.70732095325366,92.35292809666134 65.90241380501539,94.42271788138896 69.19505308289081,92.27332071692217 69.99992046225816,85.02902422647458 68.90237403614447,83.19804038287839 67.43897880148143,82.87960808852222 64.0,85.90471103793243 63.560981429647654,92.75096490653232 66.78045094618574,94.58193231344922 69.26822284469381,92.19371333142044 69.70724141551182,84.63098452828126 67.29263927834108,82.87960808852222 64.292679047212,85.1882400639006 63.70732095325366,92.51214283850277 66.48777189897373,94.66153952060267 69.26822284469381,92.11410593951587 69.70724141551182,84.55137657100568 67.21946951653808,82.87960808852222 64.43901857035235,84.7105924798525 63.70732095325366,92.27332071692217 66.48777189897373,94.5023251005332 69.12188332155347,92.67135755647905 69.78041117684916,84.7105924798525 67.21946951653808,82.87960808852222 64.146339523606,85.26784797385335 63.85366047685966,92.35292809666134 66.56094166077673,94.5023251005332 69.19505308289081,92.27332071692217 69.92675070045516,84.7105924798525 67.58531832508743,82.87960808852222 64.365848809015,84.7105924798525 63.41464190604165,92.11410593951587 66.34143237536773,94.5023251005332 69.19505308289081,92.75096490653232 69.70724141551182,84.7105924798525 66.99996023112908,82.87960808852222 64.219509285409,85.1882400639006 63.634151191450655,92.67135755647905 66.48777189897373,94.5023251005332 69.26822284469381,92.27332071692217 69.78041117684916,84.94941629865207 67.29263927834108,82.95921617100248 64.292679047212,84.63098452828126 63.487811668310314,91.87528372864472 66.34143237536773,94.34311065654038 69.26822284469381,92.19371333142044 69.85358093865216,84.79020042542834 67.14629975473508,82.87960808852222 64.365848809015,84.7105924798525 63.560981429647654,92.11410593951587 66.4146021376364,94.42271788138896 69.34139260649681,92.43253547069617 69.92675070045516,85.1882400639006 67.51214856328443,82.95921617100248 64.43901857035235,84.7105924798525 63.560981429647654,92.11410593951587 66.19509285222739,94.58193231344922 69.19505308289081,92.35292809666134 70.07309022406116,85.02902422647458 69.12188332155347,83.35725649422966 67.29263927834108,82.95921617100248 64.292679047212,84.63098452828126 63.560981429647654,92.19371333142044 66.19509285222739,94.42271788138896 69.34139260649681,92.27332071692217 69.70724141551182,84.79020042542834 68.97554379794747,83.43686454114504 66.92679046932608,82.95921617100248 64.073169761803,84.79020042542834 63.70732095325366,92.35292809666134 66.70728118391708,94.42271788138896 69.12188332155347,92.75096490653232 69.70724141551182,84.47176860761829 67.07312999293208,82.87960808852222 64.43901857035235,83.51647258189041 63.560981429647654,84.86980836495059" stroke="#4dd2ff" stroke-linecap="round" stroke-linejoin="round" stroke-width="0.5"><title>2024-04-18 12.3km</title><desc>1713432540000</desc></polyline><polyline fill="none" points="108.63613879680634,107.20803377917036 107.4449472380802,87.12002100632526 99.30513825826347,83.23200239147991 93.15064854174852,89.06402835063636 91.95945698395371,110.01602443191223 98.11394669953734,114.76800239086151 103.6728406380862,113.6880080869887 107.04788338579237,109.15202759811655 107.84201109036803,87.12002100632526 103.07724485825747,83.23200239147991 97.51835092157125,83.44800356309861 92.7535846894607,88.84802759881131 91.95945698395371,109.36802683118731 95.53303165826946,114.33600471797399 100.89339366927743,115.19999999995343 107.24641531147063,108.28803050657734 108.43760686926544,89.06402835063636 100.29779789038002,82.80000000004657 92.7535846894607,89.2800290856976 91.76092505734414,109.15202759811655 97.31981899496168,114.76800239086151 106.45228760596365,110.23202359885909 108.43760686926544,90.36003251909278 106.45228760596365,85.60801438940689 100.29779789038002,82.80000000004657 92.95211661513895,88.63202683115378 91.76092505734414,109.36802683118731 97.51835092157125,114.98400120367296 103.6728406380862,113.47200917778537 106.65081953257322,109.15202759811655 107.84201109036803,88.63202683115378 99.10660633258522,82.80000000004657 93.15064854174852,89.06402835063636 91.95945698395371,109.5840260470286 100.09926596377045,115.19999999995343 106.8493514591828,108.72002908494323 107.4449472380802,88.20002524764277 103.6728406380862,84.31200808729045 96.5256912894547,83.88000585720874 93.15064854174852,89.2800290856976 92.35652083624154,110.23202359885909 101.48898944724351,114.33600471797399 106.8493514591828,106.34403610555455 107.24641531147063,87.55202275165357 101.88605330046266,83.66400471818633 96.5256912894547,84.52800917811692 92.35652083624154,94.89604252949357 93.9447762472555,113.04001131071709 100.49632981605828,114.55200356268324 105.65815990138799,110.6640218864195 107.84201109036803,90.14403186459094 105.45962797384709,85.60801438940689 100.09926596377045,83.88000585720874 93.15064854174852,86.25601732218638 91.36386120412499,90.57603315776214" stroke="#4dd2ff" stroke-linecap="round" stroke-linejoin="round" stroke-width="0.5"><title>2024-04-17 3.1km</title><desc>1713344929000</desc></polyline><polyline fill="none" points="129.02035935316235,90.09003381221555 127.1591218477115,105.8850397192873 131.4399681109935,111.75751841301098 136.46530937589705,113.17501136148348 142.42126939352602,108.92253028950654 144.46863064914942,89.6850324482657 137.7681756298989,83.81250586989336 129.76485435571522,89.28003102447838 128.64811185188591,108.3150324486196 135.5346906222403,113.58000921062194 142.79351689480245,108.92253028950654 144.28250689897686,90.09003381221555 137.2098043775186,83.81250586989336 129.76485435571522,90.09003381221555 128.46198810171336,107.70753447082825 135.1624431218952,112.97251241421327 142.79351689480245,108.51753174350597 144.28250689897686,90.29253447102383 138.698794381693,84.42000921047293 130.13710185606033,88.87502954015508 128.46198810171336,108.11253313720226 135.34856687206775,113.17501136148348 142.79351689480245,108.3150324486196 144.46863064914942,90.69753574370407 137.95429938100278,84.2175081120804 130.13710185606033,89.07753028976731 128.64811185188591,107.30253574252129 130.69547310844064,111.15002120798454 136.09306187462062,113.17501136148348 142.79351689480245,108.51753174350597 144.28250689897686,89.07753028976731 136.2791856257245,84.01500699901953 130.13710185606033,89.07753028976731 128.8342356029898,108.3150324486196 135.90693812444806,113.78250811225735 142.60739314369857,108.720031023724 144.46863064914942,89.6850324482657 137.7681756298989,84.01500699901953 130.50934935826808,89.28003102447838 128.46198810171336,107.30253574252129 131.81221561133862,112.16251647425815 136.83755687717348,113.37751029338688 142.79351689480245,108.51753174350597 143.91025939770043,89.48253174405545 136.6514331260696,84.01500699901953 130.50934935826808,89.28003102447838 129.02035935316235,107.30253574252129 133.85957686789334,113.17501136148348 142.42126939352602,108.720031023724 144.46863064914942,90.69753574370407 137.58205187879503,84.01500699901953 130.50934935826808,88.87502954015508 128.8342356029898,106.89753695484251 133.85957686789334,113.17501136148348 142.42126939352602,109.12502953945659 144.84087815135717,90.49503511469811 138.3265468813479,84.62251029373147 130.50934935826808,88.87502954015508 128.46198810171336,107.50503511424176 134.97631937079132,113.58000921062194 142.60739314369857,108.51753174350597 144.28250689897686,89.48253174405545 137.95429938100278,84.2175081120804 133.1150818662718,85.2300134524703 130.50934935826808,89.28003102447838 128.8342356029898,108.720031023724 135.72081437334418,113.58000921062194 142.979640644975,108.11253313720226 144.28250689897686,89.28003102447838 136.6514331260696,84.42000921047293 130.13710185606033,89.48253174405545 129.02035935316235,108.3150324486196 135.5346906222403,113.17501136148348 142.79351689480245,107.91003381134942 144.28250689897686,89.6850324482657 137.7681756298989,84.2175081120804 130.50934935826808,88.67252877540886 128.64811185188591,108.51753174350597 134.79019562155008,113.37751029338688 142.23514564242214,109.12502953945659 144.46863064914942,89.88753313780762 136.83755687717348,84.2175081120804 129.39260685443878,88.0650263892021 127.1591218477115,107.50503511424176 132.55671061389148,113.98500699852593 138.14042313024402,114.18750587035902 143.35188814625144,110.54252386651933 145.02700190152973,94.14004411315545 140.74615563824773,83.40750356763601 135.72081437334418,82.80000000004657 130.50934935826808,86.64752029185183 126.78687434736639,104.26504335552454 128.8342356029898,112.77001345157623 133.4873293666169,115.19999999995343 139.8155368855223,113.98500699852593 145.21312565170228,106.29003865947016" stroke="#4dd2ff" stroke-linecap="round" stroke-linejoin="round" stroke-width="0.5"><title>2024-04-15 5.9km</title><desc>1713172666000</desc></polyline><polyline fill="none" points="175.11737485276535,86.23157368402462 175.33742484264076,92.77547429915285 176.95112476637587,94.29173822584562 179.07827466586605,94.13213159824954 180.98537457594648,91.89763630391099 181.35212455829605,84.63549427379621 178.05137471435592,82.80000000004657 175.5574748320505,85.43353427748661 175.26407484617084,92.37645711808 176.58437478356063,94.13213159824954 178.41812469717115,94.37154153053416 181.05872457288206,92.21685020398581 181.13207456935197,83.99706184118986 178.41812469717115,82.87980416469509 176.07092480780557,84.3960821563378 175.11737485276535,91.81783281394746 176.87777476990595,94.21193491487065 179.44502464868128,94.13213159824954 181.13207456935197,92.45626056630863 181.64552454464138,85.03451435040915 179.07827466586605,82.9596083231736 175.63082482898608,85.11431834771065 175.04402485629544,91.49861879460514 177.2445247527212,94.37154153053416 180.76532458607107,93.01488453609636 181.64552454464138,85.27392632438568 179.59172464208677,83.11921662226086 176.07092480780557,84.3960821563378 175.11737485276535,92.05724326579366 177.17117475625128,94.37154153053416 180.54527459666133,93.33409810176818 181.7188745411113,85.75275011174381 180.25187461078167,83.27882489765761 178.49147469364107,82.9596083231736 176.14427480427548,84.23647404834628 175.19072484970093,91.65822581620887 177.02447476284578,94.29173822584562 180.54527459666133,93.33409810176818 181.13207456935197,83.99706184118986 177.75797472847626,83.11921662226086 175.70417482499033,85.27392632438568 175.33742484264076,92.45626056630863 178.49147469364107,94.37154153053416 181.05872457288206,92.29665366397239 181.4988245521672,85.11431834771065 178.8582246764563,83.03941247559851 175.70417482499033,85.11431834771065 175.19072484970093,92.45626056630863 177.83132472494617,94.37154153053416 180.83867458300665,92.37645711808 181.4988245521672,85.19412233907497 178.63817468704656,82.87980416469509 175.7775248219259,84.95471034693765 175.19072484970093,92.53606400848366 177.61127473507077,94.37154153053416 179.7384246350266,94.05232827545842 181.05872457288206,92.37645711808 181.57217454863712,84.95471034693765 178.7848746799864,82.9596083231736 175.7775248219259,85.03451435040915 175.33742484264076,92.21685020398581 177.75797472847626,94.37154153053416 180.76532458607107,92.93508112960262 181.64552454464138,85.03451435040915 178.7848746799864,82.9596083231736 175.85087481839582,84.71529830107465 175.26407484617084,91.97743978811195 177.46457474213094,94.37154153053416 180.76532458607107,92.85527771740453 181.57217454863712,85.35373030405026 179.22497465927154,83.03941247559851 175.99757481133565,84.47588620148599 175.19072484970093,92.37645711808 177.61127473507077,94.45134482951835 180.83867458300665,92.93508112960262 181.57217454863712,85.27392632438568 179.22497465927154,83.03941247559851 175.11737485276535,84.63549427379621 174.67727487394586,92.77547429915285 172.91687495680526,95.80799999734154 173.87042491184548,101.2346034165821 167.34227521996945,102.67105264251586 165.43517530988902,110.41188462183345 162.2811254588887,113.8433694911655 166.1686752755195,115.20000000001164" stroke="#4dd2ff" stroke-linecap="round" stroke-linejoin="round" stroke-width="0.5"><title>2024-04-14 5.4km</title><desc>1713087921000</desc></polyline><polyline fill="none" points="18.37727080285549,155.6204473390244 23.03669757116586,164.877557994565 31.74779979325831,165.3183720621746 36.20464278943837,158.04493151279166 36.4072265625,137.32654789229855 27.696124341338873,134.46122805122286 21.82119493652135,140.19186494569294 20.200524754822254,160.02859889762476 23.64444889035076,164.43674386129715 29.114210749045014,165.5387790715322 35.79947524424642,159.58778403839096 37.217561651952565,139.31022922624834 28.30387565959245,134.02040936634876 21.61861116345972,140.6326827071607 20.200524754822254,160.2490063025616 27.49354056827724,165.3183720621746 35.59689147211611,160.6898210621439 37.82531297020614,141.51431803125888 30.734880928881466,134.02040936634876 22.428946253843606,138.42859324230812 20.60569230094552,159.80819147615694 27.696124341338873,165.75918606389314 35.39430769905448,161.35104307881556 37.42014542594552,140.8530915628653 29.72196206636727,134.24081871681847 22.226362480781972,139.31022922624834 19.997940982691944,159.36737658432685 26.480621705763042,166.19999999995343 35.59689147211611,160.9102284181863 37.82531297020614,141.73472682130523 31.545216020196676,134.46122805122286 22.428946253843606,139.08982025505975 20.403108527883887,158.92656162614003 26.885789250954986,165.3183720621746 35.39430769905448,161.57145038503222 37.62272919714451,140.8530915628653 29.924545840360224,134.02040936634876 22.428946253843606,138.869411267573 20.403108527883887,159.14696911303326 25.26511907018721,165.3183720621746 32.15296733845025,164.877557994565 35.79947524424642,161.13063575676642 37.42014542594552,140.41227383492514 29.924545840360224,134.02040936634876 22.428946253843606,138.64900226308964 20.60569230094552,160.2490063025616 27.49354056827724,166.19999999995343 36.20464278943837,160.2490063025616 37.42014542594552,139.31022922624834 29.519378294236958,134.02040936634876 21.82119493652135,139.75104711926542 19.997940982691944,159.80819147615694 27.696124341338873,165.75918606389314 35.79947524424642,160.02859889762476 37.62272919714451,140.41227383492514 29.519378294236958,133.79999999981374 22.226362480781972,138.64900226308964 20.403108527883887,158.26533906534314 25.26511907018721,165.3183720621746 35.79947524424642,160.9102284181863 37.42014542594552,139.31022922624834 30.937464702874422,134.02040936634876 22.226362480781972,138.64900226308964 20.60569230094552,159.80819147615694 26.0754541605711,165.5387790715322 35.39430769905448,161.35104307881556 37.62272919714451,141.73472682130523 30.937464702874422,133.79999999981374 22.226362480781972,138.42859324230812 20.403108527883887,159.14696911303326 26.885789250954986,165.5387790715322 35.39430769905448,161.35104307881556 37.82531297020614,140.19186494569294 32.76071865577251,134.6816373683978 25.670286615379155,134.6816373683978 19.39018966536969,148.12657455331646 19.187605892308056,159.14696911303326 18.17468702979386,154.73881623591296" stroke="#4dd2ff" stroke-linecap="round" stroke-linejoin="round" stroke-width="0.5"><title>2024-04-13 4.9km</title><desc>1713000859000</desc></polyline><polyline fill="none" points="54.61082419939339,147.42042852565646 56.12826675269753,162.27900113048963 60.68059441447258,165.1681587321218 67.69876622501761,164.75542211718857 70.73365133162588,157.11978360149078 71.30269228946418,138.75289088115096 62.956758244894445,135.0382235541474 56.697307710535824,141.642073122086 55.55922579579055,159.38984050275758 59.163151861168444,163.51721190218814 64.66388111747801,164.13631707942113 70.35429069399834,159.1834717709571 71.49237260874361,138.75289088115096 63.146438563242555,135.0382235541474 56.697307710535824,142.6739231890533 55.93858643434942,159.38984050275758 63.33611888345331,164.54905378702097 70.16461037378758,159.8025779207237 72.0614135665819,140.81659279041924 65.23292207531631,134.8318529999815 57.64570930600166,139.57837182981893 56.12826675269753,158.97710302309133 62.76707792561501,164.34268544055521 70.16461037378758,159.38984050275758 72.0614135665819,140.61022266931832 65.42260239459574,134.62548243091442 57.64570930600166,139.99111221218482 56.12826675269753,159.38984050275758 63.146438563242555,164.54905378702097 70.16461037378758,160.00894660665654 72.0614135665819,139.99111221218482 64.28452047891915,134.62548243091442 57.456028988584876,140.4038525321521 56.507627392187715,160.62805257108994 65.61228271387517,164.34268544055521 70.73365133162588,158.1516278788913 71.11301197018474,136.276446551783 61.43931569159031,134.21274124621414 56.12826675269753,141.22933298675343 54.99018483888358,160.62805257108994 59.73219281807542,165.3745270166546 64.66388111747801,165.78726353915408 71.87173324730247,159.59620921942405 72.25109388493001,137.3082986259833 63.33611888345331,133.80000000004657 55.93858643434942,139.99111221218482 54.61082419939339,160.62805257108994 58.21475026477128,165.58089528558776 64.47420079819858,165.99363177735358 72.0614135665819,158.7707342603244 72.82013484369963,138.5465206054505 62.38771728798747,134.41911184648052 55.36954547744244,141.02296289638616 54.61082419939339,160.42168393125758 62.00835664849728,166.19999999995343 71.11301197018474,161.0407898032572 73.76853643916547,141.43570306245238 69.21620877832174,134.41911184648052 59.73219281807542,135.244594092248 55.36954547744244,142.0548131952528 56.12826675269753,160.834421194857 65.04324175603688,164.96179043268785 70.54397101234645,159.59620921942405 72.25109388493001,141.02296289638616 68.8368481406942,135.8637056145817 63.905159841291606,134.41911184648052 56.88698803074658,140.4038525321521 56.31794707290828,159.1834717709571 62.956758244894445,164.34268544055521 70.54397101234645,159.59620921942405 72.0614135665819,140.61022266931832 65.23292207531631,134.62548243091442 57.26634866837412,140.4038525321521 56.31794707290828,159.38984050275758 62.00835664849728,164.75542211718857 68.07812686264515,163.51721190218814 70.92333165090531,159.38984050275758 72.44077420420945,140.61022266931832 65.61228271387517,134.62548243091442 56.12826675269753,140.81659279041924 54.23146356176585,157.53252135845833" stroke="#4dd2ff" stroke-linecap="round" stroke-linejoin="round" stroke-width="0.5"><title>2024-04-12 5.1km</title><desc>1712913892000</desc></polyline><polyline fill="none" points="84.10000000032596,141.51380595448427 83.80000000004657,146.08334465813823 85.72000000020489,148.23754746216582 88.72000000020489,146.8666917476221 89.50000000023283,140.86101275775582 88.95999999996275,139.49014545499813 87.28000000026077,138.70679174351972 84.82000000006519,140.07766027696198 84.16000000014901,146.14862360898405 85.72000000020489,148.04171106335707 88.78000000002794,146.7361339481431 89.43999999994412,140.86101275775582 87.5800000000745,138.772071246407 84.94000000040978,139.94710146187572 84.22000000020489,146.08334465813823 86.20000000018626,148.17226866743295 88.66000000014901,147.06252840993693 89.50000000023283,141.1221300950274 87.5800000000745,138.70679174351972 84.94000000040978,139.94710146187572 84.22000000020489,146.01806570228655 85.66000000014901,148.04171106335707 88.66000000014901,147.06252840993693 89.3800000003539,140.73045405978337 87.46000000019558,138.83735074440483 84.94000000040978,139.881822046882 84.22000000020489,145.7569498300436 85.4800000002142,147.911153439607 87.28000000026077,148.04171106335707 88.78000000002794,146.8666917476221 89.43999999994412,141.18740941712167 88.84000000008382,139.42486600583652 85.72000000020489,138.96790972549934 84.64000000013039,140.59989534236956 83.80000000004657,146.93197063996922 90.16000000014901,149.2820075134514 92.19999999995343,148.62922012776835 94.72000000020489,146.14862360898405 98.38000000012107,147.3236438917229 99.21999999997206,149.02089261787478 99.04000000003725,153.72094878548523 102.45999999996275,158.29042356903665 108.34000000008382,160.4445962399477 114.39999999990687,161.29320825648028 116.19999999995343,160.1182067830814 116.02000000001863,149.15145007538376 115.23999999999069,149.4778436338529 115.0,151.63203805824742" stroke="#4dd2ff" stroke-linecap="round" stroke-linejoin="round" stroke-width="0.5"><title>2024-04-11 3.0km</title><desc>1712828151000</desc></polyline><polyline fill="none" points="128.21882730163634,140.69809599407017 127.45031641703099,159.72003005468287 130.33223223220557,164.5277511300519 135.71180841792375,165.9909689463675 144.5496835820377,160.34712457680143 145.8945776289329,139.8619640537072 137.82521334849298,133.79999999981374 129.94797678943723,137.77163310698234 127.64244413841516,159.3019669619389 133.59840348828584,165.57290679146536 140.5150014422834,164.73678229376674 144.16542814020067,160.97421895875596 146.08670534938574,141.32519478560425 139.74649055860937,134.42710033943877 133.79053120873868,134.84516715467907 129.7558490689844,139.02583186258562 127.0660609761253,159.09293539146893 134.94329753424972,166.19999999995343 144.16542814020067,161.81034458172508 146.66308851260692,144.25165395159274 145.8945776289329,138.18969942140393 142.2441509310156,135.05420053820126 134.94329753424972,134.0090334622655 130.5243599517271,136.3084005138371 125.33691148739308,144.25165395159274 127.64244413841516,159.51099851587787 131.48499855678529,165.1548445734661 138.78585195261985,165.7819378762506 143.97330041974783,161.39228180190548 145.70244990848005,142.78842475172132 140.8992568841204,134.42710033943877 135.1354252556339,133.79999999981374 129.94797678943723,136.93550029047765 127.64244413841516,159.3019669619389 132.8298926036805,165.57290679146536 139.74649055860937,165.36387569038197 144.74181130342185,159.51099851587787 146.47096079215407,142.16132628847845 143.5890449769795,136.72646704688668 138.01734106987715,134.0090334622655 129.7558490689844,137.56259992625564 127.45031641703099,158.8839038053993 133.02202032506466,165.36387569038197 139.74649055860937,165.1548445734661 144.9339390238747,159.72003005468287 146.2788330707699,142.16132628847845 141.09138460457325,134.42710033943877 131.29287083633244,135.26323390682228 128.41095502115786,140.9071289403364 128.21882730163634,161.6013131996151 137.63308562804013,165.7819378762506 144.16542814020067,159.72003005468287 144.9339390238747,140.9071289403364 142.2441509310156,136.09936722391285 136.8645747443661,134.84516715467907 129.94797678943723,140.28003005497158 128.41095502115786,159.09293539146893 136.28819158114493,165.36387569038197 143.78117269836366,160.34712457680143 145.12606674525887,142.37035912484862 143.20478953514248,137.35356672969647 138.01734106987715,134.84516715467907 129.94797678943723,140.07099706190638 127.45031641703099,159.3019669619389 134.94329753424972,166.19999999995343 140.13074600044638,165.7819378762506 142.43627865239978,161.81034458172508 144.9339390238747,141.9522934362758 138.78585195261985,135.26323390682228 133.98265892919153,135.68130059656687 130.1401045108214,140.28003005497158 128.41095502115786,158.46584058762528 135.1354252556339,164.94581344164908 143.20478953514248,161.39228180190548 144.9339390238747,140.9071289403364 138.40159651171416,135.05420053820126 130.33223223220557,140.28003005497158 128.60308274347335,158.8839038053993 134.94329753424972,165.1548445734661 143.39691725652665,159.92906157835387 144.9339390238747,140.9071289403364 137.63308562804013,135.26323390682228 129.94797678943723,140.48906303243712 128.41095502115786,159.09293539146893 136.4803193025291,165.36387569038197 143.20478953514248,160.7651875137817 144.74181130342185,140.28003005497158 138.20946879126132,135.26323390682228 130.1401045108214,139.23486493364908 127.83457185979933,158.8839038053993 134.1747866505757,165.1548445734661 143.20478953514248,161.39228180190548 145.70244990848005,141.9522934362758 138.40159651171416,135.26323390682228 133.40627576690167,136.09936722391285 128.41095502115786,141.74326056870632 126.87393325474113,158.46584058762528" stroke="#4dd2ff" stroke-linecap="round" stroke-linejoin="round" stroke-width="0.5"><title>2024-04-09 5.6km</title><desc>1712653834000</desc></polyline><polyline fill="none" points="163.47810529079288,139.70946269715205 163.1035165125504,158.86418469273485 166.28752112854272,164.56982052815147 170.78258647024632,165.38491038559005 176.02682936843485,164.3660480249673 179.77271715272218,159.4755033897236 181.4583666557446,139.30191395711154 178.27436203882098,135.02264850656502 172.46823597326875,133.80000000004657 164.78916601464152,139.91323704412207 163.47810529079288,159.67927625821903 171.90635280590504,165.79245522315614 179.77271715272218,159.4755033897236 181.08377787657082,140.3207856931258 176.58871253579855,134.81887379381806 172.65553036238998,134.411324321758 164.78916601464152,140.3207856931258 162.72892773337662,158.45663881883956 166.28752112854272,164.1622755075805 171.7190584158525,165.79245522315614 179.96001154184341,159.27173050609417 181.64566104486585,141.13588280696422 174.52847425453365,134.00377478916198 167.41128746327013,135.43019788712263 164.22728284727782,139.5056883348152 163.1035165125504,160.0868219495751 171.15717524848878,165.58868281217292 179.58542276360095,160.0868219495751 181.4583666557446,139.5056883348152 178.836245207116,135.6339725542348 173.03011914063245,134.00377478916198 164.41457723639905,139.91323704412207 163.1035165125504,160.49436757923104 171.15717524848878,166.19999999995343 179.3981283744797,160.49436757923104 181.4583666557446,139.09813956473954 172.84282475151122,134.20754956360906 164.78916601464152,138.8943651567679 162.54163334332407,159.67927625821903 168.90964257810265,166.19999999995343 173.96659108716995,165.58868281217292 179.02353959530592,160.49436757923104 181.27107226662338,139.5056883348152 178.836245207116,135.6339725542348 172.46823597326875,134.00377478916198 164.22728284727782,140.11701137619093 162.91622212342918,160.49436757923104 166.1002267394215,164.77359301503748 171.15717524848878,165.99622761947103 179.3981283744797,160.69814037182368 181.64566104486585,140.11701137619093 179.21083398442715,135.8377472057473 172.84282475151122,134.20754956360906 164.41457723639905,138.8943651567679 162.35433895513415,158.45663881883956 168.53505379892886,165.58868281217292 174.3411798644811,165.58868281217292 179.02353959530592,161.5132313882932 181.83295543398708,143.98872078512795 178.08706764969975,134.81887379381806 166.84940429590642,135.6339725542348 163.85269406903535,140.7283342804294 163.29081090074033,161.10568591021 167.59858185332268,165.38491038559005 172.84282475151122,165.79245522315614 180.14730593003333,158.6604117641691 181.4583666557446,140.7283342804294 178.46165642794222,135.8377472057473 171.15717524848878,134.00377478916198 164.22728284727782,139.5056883348152 162.54163334332407,159.67927625821903 170.96988085936755,166.19999999995343 179.58542276360095,160.49436757923104 181.4583666557446,139.91323704412207 179.3981283744797,136.24529646453448 173.03011914063245,133.80000000004657 167.41128746327013,135.8377472057473 163.85269406903535,141.13588280696422 164.03998845815659,159.4755033897236 171.34446963761002,164.56982052815147 178.46165642794222,159.88304911158048 179.77271715272218,140.11701137619093 173.59200230892748,135.02264850656502 163.6653996789828,141.74720548233017 162.16704456601292,157.2340008309111" stroke="#4dd2ff" stroke-linecap="round" stroke-linejoin="round" stroke-width="0.5"><title>2024-04-08 5.0km</title><desc>1712568268000</desc></polyline><polyline fill="none" points="18.773739120922983,196.72642631595954 20.783419707790017,212.03192832297646 25.716272059828043,214.81473739841022 31.74531382136047,213.22456114087254 35.76467499602586,208.0564817318227 35.21658029127866,187.58283759537153 26.812461470253766,184.80000000004657 20.05262676719576,191.95586221362464 19.687230296432972,211.83315613516606 24.25468617770821,215.4110532491468 32.11071029212326,214.41719342349097 35.399278526194394,208.6527990999166 35.58197676204145,187.78161159786396 25.350875589065254,185.59509675344452 19.687230296432972,194.34114533523098 19.50453206244856,211.23683948093094 24.80278088338673,215.21228131395765 31.74531382136047,214.41719342349097 35.76467499602586,208.6527990999166 35.399278526194394,187.38406357797794 25.716272059828043,185.59509675344452 20.235325002111495,191.35954109858721 18.95643735677004,210.24297809344716 26.99515970610082,216.00736896670423 35.21658029127866,209.84543343400583 36.49546793755144,191.16076736408286 33.38959793932736,186.191419162089 28.456745588220656,185.1975484068971 23.341195001266897,186.5889673603233 20.600721472874284,190.96199361397885 19.50453206244856,210.83929497026838 22.793100295588374,214.81473739841022 29.918331469409168,215.21228131395765 35.399278526194394,209.84543343400583 35.947373231872916,189.1730291985441 29.735633234493434,184.9987742106896 20.783419707790017,190.36567227588966 19.139135591685772,209.84543343400583 22.24500558990985,214.41719342349097 26.812461470253766,215.4110532491468 35.03388205636293,211.03806723328307 36.86086440831423,191.95586221362464 34.30308911483735,187.18528954614885 28.091349117457867,185.59509675344452 22.427703825756907,188.3779335161671 19.869928532280028,193.34727762825787 19.50453206244856,212.82701692800038 22.427703825756907,216.00736896670423 28.822142058983445,216.20614084298722 35.03388205636293,209.6466610825155 36.86086440831423,190.76321984943934 28.63944382313639,185.39632258727215 20.783419707790017,190.5644460702315 18.591040885075927,210.6405226928182 24.985479118302464,217.00122819817625 35.03388205636293,210.04420577106066 36.67816617246717,191.16076736408286 33.2068997034803,185.99264504085295 28.456745588220656,185.1975484068971 20.41802323795855,190.96199361397885 19.321833826601505,210.6405226928182 27.725952646695077,215.60982516990043 35.03388205636293,209.24911633390002 36.49546793755144,189.76935080438852 28.63944382313639,185.59509675344452 20.41802323795855,191.35954109858721 19.139135591685772,209.84543343400583 22.793100295588374,214.41719342349097 28.274047353304923,215.60982516990043 35.21658029127866,209.24911633390002 36.49546793755144,189.76935080438852 33.2068997034803,186.191419162089 26.264366765506566,185.59509675344452 19.687230296432972,193.94359829719178 19.139135591685772,212.6282447988633 22.24500558990985,216.20614084298722 29.735633234493434,215.8085970757529 35.399278526194394,208.6527990999166 35.58197676204145,188.1791595579125 27.36055617686361,184.80000000004657 20.235325002111495,191.35954109858721 19.139135591685772,210.04420577106066 24.437384412623942,215.21228131395765 29.735633234493434,215.01350936340168 35.58197676204145,208.45402665925212 36.49546793755144,190.16689846664667 33.38959793932736,186.191419162089 27.177857941016555,185.39632258727215 20.05262676719576,191.95586221362464 19.869928532280028,211.4356117134448 24.985479118302464,216.00736896670423 31.74531382136047,215.01350936340168 36.13007146771997,203.48471079953015 34.30308911483735,188.3779335161671 23.88928970694542,186.9865154987201 18.95643735677004,198.11783923231997 19.687230296432972,214.01964938850142 23.88928970694542,216.80245638196357 30.83182264585048,215.4110532491468 35.58197676204145,208.25525420275517 37.04356264322996,192.55218319501728 35.21658029127866,187.58283759537153 28.822142058983445,185.59509675344452 23.341195001266897,187.18528954614885 18.95643735677004,197.91906600329094 19.687230296432972,214.01964938850142 23.706591472029686,216.60368455038406 31.014520880766213,215.21228131395765 35.58197676204145,208.25525420275517 35.399278526194394,188.1791595579125 25.898970294743776,185.39632258727215 19.869928532280028,193.54605119931512 20.235325002111495,212.03192832297646 25.898970294743776,216.60368455038406 32.29340852703899,216.20614084298722 35.76467499602586,211.4356117134448 35.947373231872916,188.97425529989414 25.16817735414952,185.39632258727215 19.50453206244856,192.94973044120707 18.591040885075927,211.63438393198885 21.514212649315596,216.00736896670423 27.908650882542133,217.00122819817625 35.58197676204145,209.44788871519268 36.312769702635705,189.57057695044205 26.08166852965951,185.59509675344452 19.321833826601505,193.74482475593686 18.773739120922983,212.82701692800038 22.24500558990985,216.40491270413622 28.091349117457867,216.80245638196357 33.57229617424309,214.01964938850142 36.13007146771997,208.85157152614556 36.86086440831423,189.57057695044205 26.812461470253766,185.1975484068971 19.50453206244856,192.15463588875718 18.773739120922983,212.03192832297646 22.062307354994118,215.8085970757529 28.822142058983445,217.19999999995343 35.399278526194394,211.83315613516606 36.86086440831423,190.36567227588966 34.30308911483735,186.78774143685587 27.36055617686361,185.1975484068971 20.05262676719576,190.96199361397885 18.042946180328727,210.24297809344716 20.41802323795855,214.61596541805193 25.716272059828043,216.80245638196357 35.03388205636293,211.83315613516606 37.04356264322996,191.95586221362464 29.00484029389918,185.1975484068971 20.783419707790017,190.36567227588966 18.773739120922983,209.84543343400583 27.543254411779344,216.80245638196357 35.76467499602586,212.03192832297646 37.591657348908484,192.94973044120707 34.120390879921615,187.38406357797794 29.00484029389918,185.59509675344452 20.41802323795855,190.96199361397885 18.591040885075927,210.44175040069968 21.33151441346854,214.81473739841022 27.543254411779344,216.80245638196357 35.947373231872916,210.83929497026838 37.226260878145695,192.94973044120707 34.85118382051587,188.1791595579125 28.63944382313639,185.1975484068971 20.235325002111495,191.16076736408286 18.95643735677004,211.03806723328307 21.879609119147062,215.01350936340168 27.543254411779344,216.60368455038406 35.21658029127866,211.63438393198885 36.86086440831423,192.15463588875718 28.456745588220656,185.59509675344452 20.235325002111495,191.95586221362464 18.773739120922983,211.23683948093094 27.908650882542133,216.20614084298722 35.58197676204145,210.44175040069968 37.226260878145695,191.55831481842324 27.908650882542133,185.39632258727215 20.05262676719576,191.95586221362464 18.95643735677004,210.44175040069968 27.725952646695077,216.20614084298722 35.399278526194394,210.83929497026838 36.67816617246717,191.35954109858721 32.84150323364884,186.3901932691224 27.543254411779344,185.59509675344452 20.41802323795855,192.35340954898857 18.591040885075927,210.6405226928182 26.629763235338032,216.80245638196357 35.399278526194394,212.42947265529074 37.95705381967127,193.14850404229946 34.66848558560014,186.9865154987201 24.25468617770821,186.3901932691224 20.05262676719576,192.55218319501728 18.95643735677004,208.0564817318227" stroke="#4dd2ff" stroke-linecap="round" stroke-linejoin="round" stroke-width="0.5"><title>2024-04-06 11.8km</title><desc>1712394949000</desc></polyline><polyline fill="none" points="56.26498641073704,213.2026175877545 63.41987398080528,217.19999999995343 70.18801087141037,211.51950750360265 72.50851494818926,193.21562030073255 70.18801087141037,187.11429809313267 63.03312330134213,185.43117239605635 58.39211514778435,188.58703225199133 55.684860391542315,207.5221170175355 60.71261922456324,215.51689230883494 70.18801087141037,212.15067390305921 72.70189028792083,192.1636691405438 69.02775883302093,186.90390743594617 62.64637262187898,186.2727353705559 58.19873980805278,189.63898474979214 55.87823573220521,209.20522949378937 60.90599456522614,215.72728082514368 69.60788485221565,212.99222888192162 72.12176426779479,192.58444965141825 67.86750679463148,186.48312607523985 61.67949592322111,186.48312607523985 58.005364468321204,190.27015606011264 55.87823573220521,208.5740624330938 59.939117865636945,215.30650377622806 69.8012601910159,212.78184016118757 72.31513960752636,192.58444965141825 66.70725475531071,186.06234465073794 57.81198912858963,189.84937520232052 55.29810971207917,210.46756319026463 62.45299728214741,216.14805781142786 70.38138621114194,211.30911867227405 72.50851494818926,192.79483988322318 69.99463553074747,187.7454699696973 65.16025203838944,185.6415631636046 57.23186310939491,190.48054646491073 55.29810971207917,208.99484048923478 61.67949592322111,215.9376693260856 70.5747615499422,211.09872982557863 72.31513960752636,192.37405940378085 64.96687669865787,185.6415631636046 57.61861378978938,190.27015606011264 55.87823573220521,209.6260074551683 62.45299728214741,216.14805781142786 70.5747615499422,211.09872982557863 72.12176426779479,191.11171758617274 64.38675067946315,185.8519539150875 57.61861378978938,190.48054646491073 56.071611071005464,210.2571742797736 63.61324932053685,215.9376693260856 70.96151223033667,210.67795208399184 72.50851494818926,191.74288856587373 65.54700271692127,185.8519539150875 57.23186310939491,191.11171758617274 55.87823573220521,210.2571742797736 62.839747961610556,216.14805781142786 70.76813689060509,211.30911867227405 72.50851494818926,191.95327886100858 64.7735013589263,185.8519539150875 57.23186310939491,191.11171758617274 55.684860391542315,210.2571742797736 63.61324932053685,216.14805781142786 70.5747615499422,211.30911867227405 72.31513960752636,191.95327886100858 65.74037805758417,185.6415631636046 57.42523844912648,190.27015606011264 55.87823573220521,209.41561848204583 62.06624660361558,215.9376693260856 67.67413145489991,214.88572666444816 70.76813689060509,211.09872982557863 72.50851494818926,191.32210792857222 65.54700271692127,185.6415631636046 57.81198912858963,190.05976563924924 55.684860391542315,209.41561848204583 61.48612058442086,215.9376693260856 70.38138621114194,211.94028511922807 72.31513960752636,192.1636691405438 66.12712873611599,185.22078161360696 58.005364468321204,189.63898474979214 55.684860391542315,209.6260074551683 62.25962194241583,215.9376693260856 68.25425747409463,214.6753380850423 71.15488756913692,210.46756319026463 71.92838892899454,190.90132722840644 64.19337533973157,185.43117239605635 57.23186310939491,190.690936854342 55.87823573220521,210.8883409621194 63.03312330134213,216.14805781142786 70.76813689060509,210.67795208399184 72.31513960752636,191.95327886100858 64.96687669865787,185.6415631636046 57.03848777059466,191.53249825537205 55.87823573220521,209.6260074551683 62.839747961610556,215.9376693260856 70.5747615499422,211.51950750360265 72.31513960752636,192.1636691405438 64.38675067946315,185.6415631636046 57.42523844912648,190.90132722840644 55.87823573220521,210.46756319026463 60.51924388483167,215.72728082514368 70.18801087141037,212.15067390305921 72.70189028792083,192.37405940378085 64.96687669865787,185.43117239605635 57.81198912858963,190.05976563924924 56.26498641073704,210.04678535391577 63.61324932053685,216.14805781142786 70.76813689060509,210.67795208399184 72.50851494818926,192.1636691405438 68.83438349235803,186.69351676362567 64.19337533973157,185.43117239605635 57.61861378978938,190.90132722840644 55.87823573220521,209.83639641292393 63.61324932053685,216.14805781142786 70.5747615499422,212.15067390305921 72.31513960752636,191.53249825537205 64.96687669865787,185.01039081439376 58.19873980805278,188.79742278298363 55.87823573220521,209.83639641292393 58.585490487515926,214.46494949003682 63.806624660268426,216.14805781142786 71.15488756913692,210.2571742797736 72.31513960752636,191.53249825537205 68.64100815355778,186.2727353705559 63.61324932053685,185.22078161360696 57.61861378978938,190.27015606011264 56.071611071005464,210.46756319026463 64.38675067946315,216.56883473414928 70.76813689060509,211.51950750360265 72.12176426779479,191.53249825537205 64.58012601919472,184.80000000004657 57.42523844912648,190.27015606011264 55.684860391542315,209.20522949378937 61.67949592322111,215.9376693260856 70.5747615499422,211.7298963193316 72.12176426779479,191.74288856587373 65.54700271692127,185.43117239605635 60.51924388483167,186.06234465073794 57.42523844912648,191.11171758617274 55.87823573220521,209.83639641292393 63.226498642005026,216.14805781142786 70.96151223033667,211.09872982557863 72.12176426779479,192.1636691405438 65.16025203838944,185.22078161360696 57.42523844912648,190.90132722840644 56.071611071005464,210.67795208399184 63.03312330134213,216.56883473414928 70.76813689060509,211.09872982557863 72.12176426779479,190.90132722840644 69.02775883302093,186.69351676362567 63.03312330134213,185.43117239605635 57.42523844912648,190.90132722840644 56.26498641073704,210.67795208399184 64.19337533973157,216.14805781142786 70.96151223033667,210.04678535391577 72.31513960752636,191.11171758617274 63.806624660268426,185.22078161360696 58.39211514778435,189.00781329791062 55.49148505181074,196.1610814561136 55.29810971207917,212.3610626712907" stroke="#4dd2ff" stroke-linecap="round" stroke-linejoin="round" stroke-width="0.5"><title>2024-04-03 9.7km</title><desc>1712137473000</desc></polyline><polyline fill="none" points="88.41896706540138,204.49416184588335 93.67422570753843,203.43533942475915 91.72783361840993,209.15297579020262 96.00989621598274,215.71765515417792 105.93649587407708,215.71765515417792 111.58103293552995,194.96474580396898 108.46680559124798,186.07059522159398 101.07051565032452,184.80000000004657 95.81525700632483,187.764721296262 93.47958649974316,208.94121168646961 96.20453542564064,216.14118233206682 103.01690773945302,216.14118233206682 108.07752717286348,212.5411992983427 110.21855847258121,193.05885874549858 105.54721745662391,186.70589261874557 96.00989621598274,190.5176740058232 93.47958649974316,210.63532407418825 99.5134019786492,216.56470944732428 108.07752717286348,212.11767158168368 109.82928005419672,192.84709343779832 104.37938220240176,186.07059522159398 95.81525700632483,190.5176740058232 93.67422570753843,211.2706159579102 100.29195881448686,216.9882364985533 108.07752717286348,212.32943544816226 110.21855847258121,192.63532811426558 104.96329982951283,186.4941268353723 99.5134019786492,187.1294241368305 95.42597858887166,191.36473583895713 93.28494729008526,210.63532407418825 99.70804118737578,217.19999999995343 107.88288796506822,212.32943544816226 110.02391926385462,192.00003204797395 104.96329982951283,186.4941268353723 95.42597858887166,191.152970404597 93.28494729008526,209.57650395086966 95.81525700632483,215.08236426813528 101.26515485905111,216.9882364985533 108.66144479997456,211.48237988795154 110.02391926385462,192.21179741923697 104.76866061985493,186.28236103639938 100.48659802321345,186.28236103639938 95.42597858887166,190.94120495393872 93.28494729008526,209.78826800687239 99.1241235602647,216.9882364985533 107.68824875541031,213.17649075458758 110.21855847258121,193.05885874549858 106.32577429246157,186.70589261874557 101.26515485905111,186.4941268353723 95.62061779852957,190.94120495393872 93.47958649974316,210.21179607277736 97.95628830604255,216.3529458977282 108.07752717286348,215.29412791249342" stroke="#4dd2ff" stroke-linecap="round" stroke-linejoin="round" stroke-width="0.5"><title>2024-04-02 3.0km</title><desc>1712049520000</desc></polyline><polyline fill="none" points="129.54423793498427,194.99584156973287 128.2947355993092,212.66855231602676 132.04324260540307,216.52028327947482 137.66600311454386,216.74685553694144 141.8310108995065,211.98883457877673 143.91351479198784,189.55806367029436 136.8330015577376,184.79999999981374 130.16898910235614,190.23778644157574 128.0864852098748,211.98883457877673 131.6267418274656,216.2937110059429 137.45775272604078,216.74685553694144 141.8310108995065,211.76226196577772 143.91351479198784,189.78463794430718 137.041251947172,184.79999999981374 130.16898910235614,190.01121220132336 127.87823482137173,211.30911668855697 135.16699844412506,217.19999999995343 141.8310108995065,212.21540717501193 144.1217651804909,190.69093487109058 137.87425350397825,184.79999999981374 130.16898910235614,190.01121220132336 127.87823482137173,211.5356893360149 134.5422472767532,217.19999999995343 141.6227605100721,212.66855231602676 144.1217651804909,190.91750906058587 138.08250389341265,184.79999999981374 130.16898910235614,189.78463794430718 127.87823482137173,211.30911668855697 134.1257464978844,217.19999999995343 141.6227605100721,212.66855231602676 144.3300155699253,191.37065738835372 138.70725506171584,185.02657463029027 130.37723949272186,189.33148937905207 127.87823482137173,210.85597134497948 134.5422472767532,217.19999999995343 141.6227605100721,212.66855231602676 144.1217651804909,190.91750906058587 137.87425350397825,184.79999999981374 130.37723949272186,189.33148937905207 127.87823482137173,211.30911668855697 134.75049766618758,217.19999999995343 141.8310108995065,211.98883457877673 144.1217651804909,191.14408323308453 137.66600311454386,184.79999999981374 130.16898910235614,190.23778644157574 127.87823482137173,211.5356893360149 134.75049766618758,217.19999999995343 141.8310108995065,212.21540717501193 144.1217651804909,190.46436066529714 137.45775272604078,184.79999999981374 130.16898910235614,190.23778644157574 127.87823482137173,211.0825440250337 130.58548988122493,215.61399408173747 136.20825039036572,216.97342777717859 141.8310108995065,211.98883457877673 144.1217651804909,190.69093487109058 137.041251947172,184.79999999981374 130.16898910235614,190.23778644157574 127.87823482137173,210.85597134497948 134.1257464978844,217.19999999995343 141.6227605100721,212.66855231602676 144.3300155699253,191.8238056479022 138.49900467135012,185.02657463029027 130.58548988122493,189.10491507174447 127.87823482137173,210.85597134497948 132.66799377370626,216.74685553694144 141.6227605100721,212.66855231602676 144.3300155699253,191.37065738835372 138.9155054492876,185.02657463029027 131.0019906591624,188.1986176702194 127.66998443100601,210.17625320074148 130.37723949272186,215.61399408173747 136.00000000093132,217.19999999995343 140.99800934270024,213.8014148727525 144.3300155699253,192.73010196490213 140.16500778496265,185.47972383885644 132.25149299483746,186.61259656539187 128.711236378178,213.34826990100555 133.08449455164373,216.97342777717859 138.70725506171584,216.06713871471584 142.87226284574717,205.19164881599136" stroke="#4dd2ff" stroke-linecap="round" stroke-linejoin="round" stroke-width="0.5"><title>2024-03-30 4.8km</title><desc>1711782999000</desc></polyline><polyline fill="none" points="162.6811478557065,198.02453283034265 164.09923405013978,213.0122649478726 168.35349263902754,216.53877907223068 174.83617239259183,216.09796503768303 179.69818220566958,209.70615412271582 179.29301472194493,187.22450212948024 169.56899509299546,185.46122805099003 164.3018177933991,191.41227383515798 164.3018177933991,212.3510430797469 169.97416257672012,217.19999999995343 176.2542585870251,215.6571509365458 179.9007659489289,209.70615412271582 181.3188521442935,193.175544351805 179.09043097868562,186.78368370886892 172.0,184.80000000004657 167.1379901850596,187.8857296362985 163.49148282315582,209.2653390658088 165.51732024736702,214.3347082391847 171.39224877394736,217.19999999995343 179.69818220566958,211.24900630279444 180.50851717591286,188.98777515231632 171.797416257672,185.24081871751696 164.70698527712375,191.6326827071607 164.70698527712375,214.114301064983 172.40516748465598,216.97959304065444 178.280096010305,213.4530794438906 180.9136846596375,193.3959530920256 179.49559846427292,187.8857296362985 175.03875613305718,185.0204093675129 165.92248773109168,188.7673660821747 163.28889908175915,210.5877840386238 168.35349263902754,216.53877907223068 178.077512267977,213.0122649478726 180.9136846596375,193.175544351805 176.65942607168108,186.12245595408604 165.92248773109168,186.12245595408604" stroke="#4dd2ff" stroke-linecap="round" stroke-linejoin="round" stroke-width="0.5"><title>2024-03-28 2.0km</title><desc>1711615120000</desc></polyline><polyline fill="none" points="19.810554976575077,249.5700473850593 17.76319371908903,249.9750477182679 19.810554976575077,251.59504844527692 17.577069968916476,250.58254810445942 19.810554976575077,251.19004835467786 20.368926228024065,263.9475221091416 24.46364874020219,267.59250356745906 30.977980010211468,267.7950023931917 36.56169252563268,260.9100338113494 37.4923112783581,239.64752029185183 33.02534126583487,236.20500239357352 27.44162874855101,236.20500239357352 20.927297479473054,243.4950351146981 19.6244312254712,261.92253028950654 26.697133746929467,268.19999999995343 35.63107377290726,262.93502638861537 37.306187528185546,241.67252877540886 34.51433127000928,236.81250586989336 30.047361256554723,235.80000000004657 21.6717924810946,241.47002799483016 20.368926228024065,260.3025357425213 22.974658736027777,265.3650154818315 27.62775249965489,267.187505870359 34.70045502111316,262.93502638861537 36.56169252563268,243.29253447102383 30.047361256554723,237.01500699901953 22.60241123382002,241.67252877540886 21.299544980749488,261.720031023724 28.0,267.187505870359 35.258826271630824,261.720031023724 36.375568775460124,241.0650263892021 29.67511375527829,236.61000472633168 22.60241123382002,242.28003102447838 21.11342122964561,261.11253313720226 26.883257497102022,267.187505870359 35.07270252145827,261.720031023724 36.375568775460124,242.48253174405545 28.930618753656745,236.20500239357352 22.7885349849239,241.67252877540886 20.741173728369176,261.11253313720226 27.255504998378456,267.187505870359 35.4449500227347,261.720031023724 36.93394002690911,242.48253174405545 30.419608757831156,236.61000472633168 22.974658736027777,241.47002799483016 20.927297479473054,260.9100338113494 22.230163732543588,265.16251647425815 26.883257497102022,266.78250811225735 35.258826271630824,262.3275287745055 36.93394002690911,243.69753574370407 30.60573250800371,237.42000921047293 22.7885349849239,241.2675271993503 20.927297479473054,261.720031023724 27.62775249965489,266.98500699852593 35.258826271630824,261.92253028950654 36.74781627673656,241.67252877540886 29.861237506382167,237.01500699901953 22.7885349849239,242.28003102447838 20.927297479473054,261.3150324486196 27.62775249965489,267.187505870359 33.58371251728386,266.3775102933869 36.375568775460124,262.5300279944204 38.422930031083524,243.09003381221555" stroke="#4dd2ff" stroke-linecap="round" stroke-linejoin="round" stroke-width="0.5"><title>2024-03-26 3.7km</title><desc>1711445960000</desc></polyline><polyline fill="none" points="55.26458935905248,260.64003251865506 62.411743520759046,268.19999999995343 70.94862210098654,263.2320235995576 72.5368785802275,241.41602604743093 68.16917326115072,235.80000000004657 57.84550614003092,239.47201826726086 55.0660573001951,259.99203438474797 56.852845839224756,264.9600163602736 63.00733970012516,267.98400120367296 70.55155797954649,263.6640218861867 72.9339426998049,242.4960298044607 68.96330149937421,236.01600120356306 58.441102320328355,240.33602188690566 55.860185540281236,252.86404531635344 58.24257025960833,264.9600163602736 63.404403819702566,267.3360047186725 68.16917326115072,265.39201438915916 72.33834651950747,243.7920337796677 68.96330149937421,237.5280091778841 63.20587175991386,236.8800058569759 59.23523056041449,240.12002100632526 56.65431377943605,259.12803664733656 61.02201909944415,266.6880080876872 69.16183356009424,264.096020109253 72.33834651950747,242.92803119379096 67.77210913971066,236.66400471818633 59.23523056041449,240.33602188690566 56.65431377943605,259.5600355484057 61.22055116016418,266.6880080876872 68.96330149937421,264.096020109253 70.94862210098654,239.04001636011526 64.1985320597887,236.23200239124708 58.639634379185736,241.8480275988113 56.852845839224756,262.1520275983494 60.42642291914672,266.25601025274955 65.98532059974968,266.4720091780182" stroke="#4dd2ff" stroke-linecap="round" stroke-linejoin="round" stroke-width="0.5"><title>2024-03-25 2.1km</title><desc>1711359274000</desc></polyline><polyline fill="none" points="104.1042667068541,265.0846318146214 107.92218922358006,243.90003544813953 103.53157832846045,237.25385425635614 93.60497978422791,241.6154124578461 91.50512239988893,259.2692685164511 97.23200617637485,266.9538531457074 105.63143571279943,263.63079213211313 107.92218922358006,243.90003544813953 102.3862015735358,237.46154765947722 93.60497978422791,241.8231055350043 91.50512239988893,260.51541882008314 97.61379842739552,266.9538531457074 105.82233183924109,263.00771774933673 107.92218922358006,243.06926366896369 102.19530544802547,237.46154765947722 93.60497978422791,241.6154124578461 91.69601852633059,260.723110483028 93.41408365871757,265.0846318146214 98.75917518232018,267.1615443266928 106.01322796475142,262.17695168801583 107.92218922358006,244.31542124412954 102.95888995099813,237.46154765947722 93.60497978422791,240.78463999531232 91.69601852633059,260.723110483028 97.61379842739552,267.3692354927771 105.44053958822042,263.42310068709776 107.92218922358006,243.90003544813953 102.57709769997746,237.04616083810106 93.79587590973824,240.5769468410872 91.50512239988893,261.13849376211874 93.41408365871757,265.2923231362365 99.14096743427217,267.57692664302886 106.20412409026176,261.9692601347342 107.73129309806973,242.86157068540342 101.81351319607347,237.04616083810106 96.46842167247087,238.08462777547538 93.22318753227592,242.23849164135754 91.88691465184093,262.17695168801583 99.33186356071383,267.1615443266928 106.39502021670341,261.3461853787303 107.73129309806973,243.06926366896369 102.19530544802547,237.04616083810106 93.41408365871757,242.23849164135754 91.69601852633059,261.5538769790437 98.37738293129951,266.9538531457074 105.63143571279943,263.00771774933673 107.73129309806973,242.86157068540342 101.04992869310081,237.04616083810106 93.22318753227592,242.03079859609716 91.88691465184093,261.76156856445596 98.37738293129951,267.3692354927771 106.01322796475142,263.00771774933673 107.92218922358006,243.06926366896369 104.67695508431643,237.66924104723148 93.9867720361799,240.5769468410872 91.69601852633059,259.4769602722954 96.27752554602921,266.9538531457074 105.44053958822042,263.8384835617617 107.92218922358006,243.48464958975092 102.00440932251513,237.25385425635614 93.60497978422791,241.20002625789493 91.69601852633059,260.93080212990753 97.0411100499332,266.7461619488895 105.24964346177876,264.4615577580407 108.11308535002172,244.10772835393436 104.29516283329576,237.66924104723148 98.37738293129951,237.04616083810106 93.79587590973824,241.20002625789493 90.35974564403296,259.2692685164511 91.88691465184093,264.87694047857076 97.23200617637485,268.19999999995343 102.19530544802547,267.99230889673345 106.77681246865541,263.63079213211313 109.64025435689837,244.52311411872506 104.4860589588061,236.2153870081529 98.18648680485785,235.80000000004657 92.65049915481359,240.3692536712624 90.35974564403296,260.3077271413058 96.27752554602921,267.57692664302886 106.20412409026176,265.91539700631984" stroke="#4dd2ff" stroke-linecap="round" stroke-linejoin="round" stroke-width="0.5"><title>2024-03-24 4.9km</title><desc>1711273464000</desc></polyline><polyline fill="none" points="126.86509233899415,259.25525420345366 128.5093757174909,265.01964938873425 133.07682954892516,268.0012281984091 138.3750759921968,267.0073689671699 142.75983166974038,262.63438393198885 144.58681320212781,241.76321984967217 143.12522797565907,238.18528954591602 137.6442833794281,236.39632258727215 131.61524432245642,237.7877414370887 128.32667756453156,241.9619936144445 127.23048864584416,261.83929497073404 130.70175355672836,266.4110532498453 136.91349076665938,267.80245638173074 143.4906242825091,260.44788871565834 143.67332243546844,239.1791595579125 137.09618891961873,236.39632258727215 130.33635725080967,238.5828375958372 127.59588495176286,243.35340954945423 126.49969603214413,260.84543343423866 132.34603693615645,268.19999999995343 138.74047229904681,267.0073689671699 142.5771335158497,262.83315613493323 145.68300212081522,244.54605119908229 143.30792612954974,238.18528954591602 138.19237783830613,236.19754840643145 130.51905540376902,238.5828375958372 127.77858310565352,242.9558622133918 127.59588495176286,264.4233332253061 132.89413139596581,268.19999999995343 138.19237783830613,267.80245638173074 143.67332243546844,260.44788871565834 143.67332243546844,239.1791595579125 134.9038110813126,235.80000000004657 127.96128125768155,242.7570885233581 126.6823941860348,261.6405226928182 130.153659096919,266.8085970757529 136.00000000093132,267.60368455015123 143.4906242825091,260.6466610827483 144.2214168952778,240.1730291985441 141.29824644420296,236.7938709044829 135.08650923427194,236.19754840643145 127.77858310565352,243.15463588875718 127.04779049195349,263.23070049704984 136.91349076665938,267.4049127041362 143.30792612954974,260.6466610827483 143.30792612954974,239.1791595579125 136.36539630685002,235.99877421092242 128.32667756453156,240.57057695067488 126.31699787918478,262.03806723305024 129.97096094302833,266.6098251703661 136.91349076665938,267.80245638173074 143.30792612954974,261.0442057712935 142.94252982269973,237.98651549918577 135.81730184704065,235.99877421092242 130.70175355672836,238.5828375958372 126.6823941860348,253.49084651237354 129.05747017730027,265.6159654180519 140.38475567754358,266.21228131395765 144.76951135508716,243.9497304414399 140.7501519843936,236.99264504062012 130.51905540376902,238.5828375958372 126.6823941860348,258.2613917000126 127.96128125768155,265.01964938873425 132.71143324207515,267.4049127041362 141.846340903081,264.02578904200345 144.9522095080465,244.34727762825787 142.39443536289036,237.98651549918577 130.33635725080967,237.98651549918577 127.23048864584416,249.3166124469135 128.5093757174909,265.01964938873425 133.99032031558454,267.80245638173074 140.56745383050293,265.8147373984102 143.4906242825091,261.2429780939128 144.9522095080465,244.54605119908229 142.21173720993102,237.98651549918577 133.2595277018845,236.59509675344452 127.77858310565352,243.15463588875718 126.86509233899415,262.83315613493323 131.98064062930644,267.4049127041362 138.19237783830613,266.6098251703661 142.39443536289036,256.07489288575016 141.48094459623098,239.1791595579125 135.81730184704065,237.39019326888956 129.97096094302833,240.1730291985441 126.49969603214413,252.69575481512584" stroke="#4dd2ff" stroke-linecap="round" stroke-linejoin="round" stroke-width="0.5"><title>2024-03-22 5.0km</title><desc>1711100044000</desc></polyline><polyline fill="none" points="162.13543531671166,247.95004544593394 165.48566483240575,265.16251647425815 171.069380691275,267.9975012044888 176.65309654921293,266.37751029315405 180.37557378783822,262.12502953922376 181.67844082135707,252.81004835409112 179.25883061625063,239.04001745092683 171.62775227613747,236.40750356740318 166.2301602801308,243.29253447055817 165.48566483240575,262.7325271987356 169.9526375187561,267.3900047263596 175.35022951476276,267.3900047263596 179.81720220204443,261.11253313720226 179.63107834011316,241.67252877471037 173.48899089638144,237.21750811184756 166.41628414206207,243.29253447055817 165.48566483240575,262.12502953922376 168.8358943471685,266.5800092101563 173.86123861931264,267.5925035676919 179.25883061625063,260.3025357427541 180.0033260639757,241.06502638873644 174.79185792896897,236.6100047265645 166.41628414206207,241.47002799483016 164.74116938374937,260.9100338113494 172.37224772479385,266.98500699875876 177.21146813500673,265.97251241421327 180.56169764976948,260.3025357427541 180.74782151170075,239.64752029138617 178.51433516759425,236.6100047265645 171.44162841513753,235.79999999981374 165.11341710854322,241.87502953992225 163.99667393695563,261.9225302892737 172.37224772479385,268.19999999995343 180.0033260639757,260.70753447012976 181.86456468328834,242.88753313780762 179.07270675431937,236.00250120437704 167.53302731364965,237.6225102932658 163.0660546272993,258.0750416580122" stroke="#4dd2ff" stroke-linecap="round" stroke-linejoin="round" stroke-width="0.5"><title>2024-03-21 2.2km</title><desc>1711013104000</desc></polyline></svg>