<?xml version="1.0" encoding="utf-8" ?>
<svg baseProfile="full" height="300mm" version="1.1" viewBox="0,0,200,300" width="200mm" xmlns="http://www.w3.org/2000/svg" xmlns:ev="http://www.w3.org/2001/xml-events" xmlns:xlink="http://www.w3.org/1999/xlink"><defs /><rect fill="#222222" height="300" width="200" x="0" y="0" /><text fill="#FFFFFF" style="font-size:12px; font-family:Arial; font-weight:bold;" x="10" y="20">Over 2km Runs</text><text fill="#FFFFFF" style="font-size:4px; font-family:Arial" x="10" y="280">ATHLETE</text><text fill="#FFFFFF" style="font-size:9px; font-family:Arial" x="10" y="290">作怪</text><text fill="#FFFFFF" style="font-size:4px; font-family:Arial" x="120" y="280">STATISTICS</text><text fill="#FFFFFF" style="font-size:3px; font-family:Arial" x="120" y="285">Number: 10</text><text fill="#FFFFFF" style="font-size:3px; font-family:Arial" x="120" y="290">Weekly: 3.3</text><text fill="#FFFFFF" style="font-size:3px; font-family:Arial" x="141" y="285">Total: 49.3 km</text><text fill="#FFFFFF" style="font-size:3px; font-family:Arial" x="141" y="290">Avg: 4.9 km</text><text fill="#FFFFFF" style="font-size:3px; font-family:Arial" x="167" y="285">Min: 2.0 km</text><text fill="#FFFFFF" style="font-size:3px; font-family:Arial" x="167" y="290">Max: 11.8 km</text><polyline fill="none" points="24.622898533940315,52.877377193188295 27.97236618027091,78.38654720503837 36.19378676638007,83.0245623306837 46.242189701646566,80.37426856788807 52.94112499244511,71.76080288621597 52.027633817866445,37.63806265871972 38.02076911740005,33.0 26.754377944394946,44.926437022630125 26.145383827388287,78.05526022519916 33.75781029462814,84.0184220818337 46.85118382051587,82.3619890389964 52.33213087543845,72.75466516637243 52.63662793673575,37.969352663261816 35.58479264751077,34.32516125566326 26.145383827388287,48.90190889197402 25.84088676981628,77.06139913480729 34.671301471069455,83.68713552318513 46.242189701646566,82.3619890389964 52.94112499244511,72.75466516637243 52.33213087543845,37.306772629963234 36.19378676638007,34.32516125566326 27.0588750038296,43.93256849749014 24.927395593374968,75.40496348892339 38.32526617497206,85.01228161109611 52.027633817866445,74.7423890568316 54.159113228321075,43.601278939982876 48.9826632309705,35.31903193681501 40.76124264486134,33.662580678006634 32.23532500118017,35.98161226720549 27.667869120836258,43.26998935663141 25.84088676981628,76.39882495021448 31.32183382473886,83.0245623306837 43.197219114750624,83.68713552318513 52.33213087543845,74.7423890568316 53.245622051879764,40.28838199726306 42.89272205717862,33.331290350994095 27.97236618027091,42.27612045966089 25.231892650946975,74.7423890568316 30.408342650160193,82.3619890389964 38.02076911740005,84.0184220818337 51.72313676029444,76.73011205531657 54.76810734719038,44.926437022630125 50.50514852441847,36.97548257675953 40.15224852785468,34.32516125566326 30.7128397077322,38.96322252671234 26.44988088682294,47.24546271376312 25.84088676981628,79.71169487992302 30.7128397077322,85.01228161109611 41.370236763730645,85.34356807149015 51.72313676029444,74.41110180388205 54.76810734719038,42.93869974906556 41.06573970429599,33.99387097870931 27.97236618027091,42.607410117052495 24.318401474505663,76.06753782136366 34.97579853050411,86.6687136637047 51.72313676029444,75.0736762851011 54.46361028775573,43.601278939982876 48.67816617153585,34.987741734599695 40.76124264486134,33.662580678006634 27.36337206326425,43.26998935663141 25.536389710381627,76.06753782136366 39.54325441084802,84.34970861650072 51.72313676029444,73.74852722301148 54.159113228321075,41.28225134056993 41.06573970429599,34.32516125566326 27.36337206326425,43.93256849749014 25.231892650946975,74.7423890568316 31.32183382473886,82.3619890389964 40.45674558728933,84.34970861650072 52.027633817866445,73.74852722301148 54.159113228321075,41.28225134056993 48.67816617153585,35.31903193681501 37.10727794282138,34.32516125566326 26.145383827388287,48.23933049524203 25.231892650946975,79.38040799810551 30.408342650160193,85.34356807149015 42.89272205717862,84.68099512625486 52.33213087543845,72.75466516637243 52.63662793673575,38.63193259644322 38.93426029384136,33.0 27.0588750038296,43.93256849749014 25.231892650946975,75.0736762851011 34.062307354062796,83.68713552318513 42.89272205717862,83.35584893869236 52.63662793673575,72.4233777653426 54.159113228321075,41.94483077782206 48.9826632309705,35.31903193681501 38.62976323440671,33.99387097870931 26.754377944394946,44.926437022630125 26.44988088682294,77.3926861891523 34.97579853050411,85.01228161109611 46.242189701646566,83.35584893869236 53.550119111314416,64.14118466596119 50.50514852441847,38.96322252671234 33.148816177621484,36.64419249794446 24.927395593374968,55.19639872061089 26.145383827388287,81.69941564719193 33.148816177621484,86.33742730342783 44.719704408198595,84.0184220818337 52.63662793673575,72.09209033800289 55.07260440476239,45.920305324718356 52.027633817866445,37.63806265871972 41.370236763730645,34.32516125566326 32.23532500118017,36.97548257675953 24.927395593374968,54.865110005484894 26.145383827388287,81.69941564719193 32.84431911818683,86.00614091707394 45.02420146763325,83.68713552318513 52.63662793673575,72.09209033800289 52.33213087543845,38.63193259644322 36.49828382395208,33.99387097870931 26.44988088682294,47.576751998858526 27.0588750038296,78.38654720503837 36.49828382395208,86.00614091707394 47.15568087808788,85.34356807149015 52.94112499244511,77.3926861891523 53.245622051879764,39.95709216641262 35.28029558993876,33.99387097870931 25.84088676981628,46.58288406860083 24.318401474505663,77.72397321974859 29.19035441428423,85.01228161109611 39.847751470282674,86.6687136637047 52.63662793673575,74.07981452532113 53.85461617074907,40.950961583992466 36.802780881524086,34.32516125566326 25.536389710381627,47.90804125973955 24.622898533940315,79.71169487992302 30.408342650160193,85.67485450673848 40.15224852785468,86.33742730342783 49.28716028854251,81.69941564719193 53.550119111314416,73.08595254342072 54.76810734719038,40.950961583992466 38.02076911740005,33.662580678006634 25.84088676981628,45.25772648118436 24.622898533940315,78.38654720503837 30.10384559072554,84.68099512625486 41.370236763730645,87.0 52.33213087543845,78.05526022519916 54.76810734719038,42.27612045966089 50.50514852441847,36.31290239468217 38.93426029384136,33.662580678006634 26.754377944394946,43.26998935663141 23.404910299926996,75.40496348892339 27.36337206326425,82.693275696598 36.19378676638007,86.33742730342783 51.72313676029444,78.05526022519916 55.07260440476239,44.926437022630125 41.67473382130265,33.662580678006634 27.97236618027091,42.27612045966089 24.622898533940315,74.7423890568316 39.23875735141337,86.33742730342783 52.94112499244511,78.38654720503837 55.9860955812037,46.58288406860083 50.20065146498382,37.306772629963234 41.67473382130265,34.32516125566326 27.36337206326425,43.26998935663141 24.318401474505663,75.73625066783279 28.885857354849577,83.0245623306837 39.23875735141337,86.33742730342783 53.245622051879764,76.39882495021448 55.37710146419704,46.58288406860083 51.418639700859785,38.63193259644322 41.06573970429599,33.662580678006634 27.0588750038296,43.601278939982876 24.927395593374968,76.73011205531657 29.79934853129089,83.35584893869236 39.23875735141337,86.00614091707394 52.027633817866445,77.72397321974859 54.76810734719038,45.25772648118436 40.76124264486134,34.32516125566326 27.0588750038296,44.926437022630125 24.622898533940315,77.06139913480729 39.847751470282674,85.34356807149015 52.63662793673575,75.73625066783279 55.37710146419704,44.26385803055018 39.847751470282674,33.99387097870931 26.754377944394946,44.926437022630125 24.927395593374968,75.73625066783279 39.54325441084802,85.34356807149015 52.33213087543845,76.39882495021448 54.46361028775573,43.93256849749014 48.06917205452919,35.650322115048766 39.23875735141337,34.32516125566326 27.36337206326425,45.58901591482572 24.318401474505663,76.06753782136366 37.7162720579654,86.33742730342783 52.33213087543845,79.04912109230645 56.59508969821036,46.91417340398766 51.11414264142513,36.64419249794446 33.75781029462814,35.650322115048766 26.754377944394946,45.920305324718356 24.927395593374968,71.76080288621597" stroke="#4dd2ff" stroke-linecap="round" stroke-linejoin="round" stroke-width="0.5"><title>2024-04-06 11.8km</title><desc>1712394949000</desc></polyline><polyline fill="none" points="87.10831068456173,80.33769597951323 99.03312330134213,87.0 110.31335145235062,77.53251250600442 114.1808582469821,47.026033834088594 110.31335145235062,36.85716348839924 98.38853883557022,34.051953993272036 90.65352524630725,39.31172041967511 86.14143398590386,70.87019502883777 94.52103204093874,84.19482051441446 110.31335145235062,78.58445650478825 114.50315047986805,45.272781900595874 108.37959805503488,36.50651239277795 97.7439543697983,35.45455895084888 90.3312330134213,41.064974582754076 86.46372622065246,73.67538248933852 94.84332427382469,84.5454680416733 109.34647475369275,79.98704813653603 113.53627377934754,45.974082752130926 106.44584465771914,35.80521012516692 96.13249320536852,35.80521012516692 90.00894078053534,42.11692676693201 86.46372622065246,72.62343738833442 93.23186310939491,83.84417296014726 109.6687669865787,79.63640026841313 113.85856601409614,45.974082752130926 104.5120912604034,35.10390775091946 89.68664854764938,41.41562533704564 85.49684952013195,75.77927198354155 97.42166213691235,85.24676301842555 110.63564368523657,77.18186445347965 114.1808582469821,46.32473313855007 109.99105921760201,37.90911661600694 101.93375339731574,34.40260527236387 88.71977184899151,42.46757744112983 85.49684952013195,73.3247341485694 96.13249320536852,84.89611554332078 110.95793591625988,76.8312163753435 113.85856601409614,45.623432339634746 101.61146116442978,34.40260527236387 89.36435631662607,42.11692676693201 86.46372622065246,74.37667909171432 97.42166213691235,85.24676301842555 110.95793591625988,76.8312163753435 113.53627377934754,43.51952931005508 100.64458446577191,34.75325652491301 89.36435631662607,42.46757744112983 86.78601845167577,75.42862379923463 99.35541553422809,84.89611554332078 111.60252038389444,76.12992013944313 114.1808582469821,44.57148094289005 102.57833786122501,34.75325652491301 88.71977184899151,43.51952931005508 86.46372622065246,75.42862379923463 98.06624660268426,85.24676301842555 111.28022815100849,77.18186445347965 114.1808582469821,44.922131434548646 101.28916893154383,34.75325652491301 88.71977184899151,43.51952931005508 86.14143398590386,75.42862379923463 99.35541553422809,85.24676301842555 110.95793591625988,77.18186445347965 113.85856601409614,44.922131434548646 102.90063009597361,34.40260527236387 89.04206408187747,42.11692676693201 86.46372622065246,74.02603080309927 96.77707767300308,84.89611554332078 106.12355242483318,83.14287777384743 111.28022815100849,76.8312163753435 114.1808582469821,43.87017988041043 102.57833786122501,34.40260527236387 89.68664854764938,41.76627606526017 86.14143398590386,74.02603080309927 95.81020097434521,84.89611554332078 110.63564368523657,78.23380853189155 113.85856601409614,45.272781900595874 103.54521456174552,33.70130268903449 90.00894078053534,41.064974582754076 86.14143398590386,74.37667909171432 97.09936990402639,84.89611554332078 107.09042912349105,82.79223014134914 111.92481261491776,75.77927198354155 113.21398154832423,43.16887871362269 100.32229223288596,34.051953993272036 88.71977184899151,42.81822809064761 86.46372622065246,76.480568270199 98.38853883557022,85.24676301842555 111.28022815100849,76.12992013944313 113.85856601409614,44.922131434548646 101.61146116442978,34.40260527236387 88.3974796179682,44.22083042562008 86.46372622065246,74.37667909171432 98.06624660268426,84.89611554332078 110.95793591625988,77.53251250600442 113.85856601409614,45.272781900595874 100.64458446577191,34.40260527236387 89.04206408187747,43.16887871362269 86.46372622065246,75.77927198354155 94.19873980805278,84.5454680416733 110.31335145235062,78.58445650478825 114.50315047986805,45.623432339634746 101.61146116442978,34.051953993272036 89.68664854764938,41.76627606526017 87.10831068456173,75.07797558931634 99.35541553422809,85.24676301842555 111.28022815100849,76.12992013944313 114.1808582469821,45.272781900595874 108.05730582028627,36.15586127247661 100.32229223288596,34.051953993272036 89.36435631662607,43.16887871362269 86.46372622065246,74.727327354718 99.35541553422809,85.24676301842555 110.95793591625988,78.58445650478825 113.85856601409614,44.22083042562008 101.61146116442978,33.35065135732293 90.3312330134213,39.6623713048175 86.46372622065246,74.727327354718 90.97581747919321,82.44158248323947 99.67770776711404,85.24676301842555 111.92481261491776,75.42862379923463 113.85856601409614,44.22083042562008 107.73501358926296,35.45455895084888 99.35541553422809,33.70130268903449 89.36435631662607,42.11692676693201 86.78601845167577,75.77927198354155 100.64458446577191,85.94805788993835 111.28022815100849,77.53251250600442 113.53627377934754,44.22083042562008 100.96687669865787,33.0 89.04206408187747,42.11692676693201 86.14143398590386,73.67538248933852 96.13249320536852,84.89611554332078 110.95793591625988,77.8831605319865 113.53627377934754,44.57148094289005 102.57833786122501,34.051953993272036 94.19873980805278,35.10390775091946 89.04206408187747,43.51952931005508 86.46372622065246,74.727327354718 98.71083107031882,85.24676301842555 111.60252038389444,76.8312163753435 113.53627377934754,45.272781900595874 101.93375339731574,33.70130268903449 89.04206408187747,43.16887871362269 86.78601845167577,76.12992013944313 98.38853883557022,85.94805788993835 111.28022815100849,76.8312163753435 113.53627377934754,43.16887871362269 108.37959805503488,36.15586127247661 98.38853883557022,34.051953993272036 89.04206408187747,43.16887871362269 87.10831068456173,76.12992013944313 100.32229223288596,85.24676301842555 111.60252038389444,75.07797558931634 113.85856601409614,43.51952931005508 99.67770776711404,33.70130268903449 90.65352524630725,40.01302216295153 85.8191417530179,51.935135759878904 85.49684952013195,78.93510445207357" stroke="#4dd2ff" stroke-linecap="round" stroke-linejoin="round" stroke-width="0.5"><title>2024-04-03 9.7km</title><desc>1712137473000</desc></polyline><polyline fill="none" points="140.69827844202518,65.82360307639465 149.45704284496605,64.05889904126525 146.2130560297519,73.58829298336059 153.3498270250857,84.52942525688559 169.89415979012847,84.52942525688559 179.30172155797482,49.94124300638214 174.11134265176952,35.11765870265663 161.78419275023043,33.0 153.02542834356427,37.94120216043666 149.13264416530728,73.23535281093791 153.67422570846975,85.23530388670042 165.0281795654446,85.23530388670042 173.4625452887267,79.23533216351643 177.0309307873249,46.7647645752877 169.24536242708564,36.176487697754055 153.3498270250857,42.52945667644963 149.13264416530728,76.0588734569028 159.18900329619646,85.94118241174147 173.4625452887267,78.5294526363723 176.38213342241943,46.411822396330535 167.29897033795714,35.11765870265663 153.02542834356427,42.52945667644963 149.45704284496605,77.11769326310605 160.48659802228212,86.64706083061174 173.4625452887267,78.88239241344854 177.0309307873249,46.05888019036502 168.2721663825214,35.82354472531006 159.18900329619646,36.882373561151326 152.37663098052144,43.941226398106664 148.80824548378587,76.0588734569028 159.51340197771788,87.0 173.13814660720527,78.88239241344854 176.7065321058035,45.0000534132123 168.2721663825214,35.82354472531006 152.37663098052144,43.588284007273614 148.80824548378587,74.29417325137183 153.02542834356427,83.4706071135588 162.1085914298892,86.64706083061174 174.43574133329093,77.47063314635307 176.7065321058035,45.35299569834024 167.94776769913733,35.47060172725469 160.81099670380354,35.47060172725469 152.37663098052144,43.23534158989787 148.80824548378587,74.64711334463209 158.54020593315363,86.64706083061174 172.81374792568386,80.29415125772357 177.0309307873249,46.7647645752877 170.5429571531713,36.176487697754055 162.1085914298892,35.82354472531006 152.7010296639055,43.23534158989787 149.13264416530728,75.3529934543185 156.5938138421625,85.58824316272512 173.4625452887267,83.82354652089998" stroke="#4dd2ff" stroke-linecap="round" stroke-linejoin="round" stroke-width="0.5"><title>2024-04-02 3.0km</title><desc>1712049520000</desc></polyline><polyline fill="none" points="29.24039655737579,109.9930692827329 27.15789266489446,139.44758719345555 33.40540434233844,145.86713879927993 42.77667185664177,146.24475922854617 49.71835149824619,138.31472429819405 53.189191319048405,100.93010611692443 41.38833593018353,93.0 30.281648503616452,102.06297740293667 26.81080868281424,138.31472429819405 32.711236378178,145.48951834300533 42.42958787642419,146.24475922854617 49.71835149824619,137.937103276141 53.189191319048405,101.30772990733385 41.735419910401106,93.0 30.281648503616452,101.68535366887227 26.46372470073402,137.18186114775017 38.61166407354176,147.0 49.71835149824619,138.69234529184178 53.536275301128626,102.81822478538379 43.12375583872199,93.0 30.281648503616452,101.68535366887227 26.46372470073402,137.5594822266139 37.5704121273011,147.0 49.37126751616597,139.44758719345555 53.536275301128626,103.19584843423218 43.47083982266486,93.0 30.281648503616452,101.30772990733385 26.46372470073402,137.18186114775017 36.876244163140655,147.0 49.37126751616597,139.44758719345555 53.8833592813462,103.95109564717859 44.51209176890552,93.37762438412756 30.628732485696673,100.55248229857534 26.46372470073402,136.42661890853196 37.5704121273011,147.0 49.37126751616597,139.44758719345555 53.536275301128626,103.19584843423218 43.12375583872199,93.0 30.628732485696673,100.55248229857534 26.46372470073402,137.18186114775017 37.91749610938132,147.0 49.71835149824619,138.31472429819405 53.536275301128626,103.57347205514088 42.77667185664177,93.0 30.281648503616452,102.06297740293667 26.46372470073402,137.5594822266139 37.91749610938132,147.0 49.71835149824619,138.69234529184178 53.536275301128626,102.44060110859573 42.42958787642419,93.0 30.281648503616452,102.06297740293667 26.46372470073402,136.80424004187807 30.975816467776895,144.35665680328384 40.347083983942866,146.62237962847576 49.71835149824619,138.31472429819405 53.536275301128626,102.81822478538379 41.735419910401106,93.0 30.281648503616452,102.06297740293667 26.46372470073402,136.42661890853196 36.876244163140655,147.0 49.37126751616597,139.44758719345555 53.8833592813462,104.70634274650365 44.165007784962654,93.37762438412756 30.975816467776895,100.17485845275223 26.46372470073402,136.42661890853196 34.446656288579106,146.24475922854617 49.37126751616597,139.44758719345555 53.8833592813462,103.95109564717859 44.8591757491231,93.37762438412756 31.669984431937337,98.66436278354377 26.116640718653798,135.29375533480197 30.628732485696673,144.35665680328384 40.0,147.0 48.33001556992531,141.33569145482033 53.8833592813462,106.21683660848066 46.94167964160442,94.13287306483835 33.752488324418664,96.02099427580833 27.852060629054904,140.58044983493164 35.14082425273955,146.62237962847576 44.51209176890552,145.11189785785973 51.4537714086473,126.98608135990798" stroke="#4dd2ff" stroke-linecap="round" stroke-linejoin="round" stroke-width="0.5"><title>2024-03-30 4.8km</title><desc>1711782999000</desc></polyline><polyline fill="none" points="84.4685797598213,115.04088805057108 86.83205675147474,140.02044157963246 93.922487732023,145.8979651206173 104.72695398703218,145.1632750625722 112.83030367642641,134.51025687111542 112.155024535954,97.04083688277751 95.94832515530288,94.10204675188288 87.16969632171094,104.02045639185235 87.16969632171094,138.91840513283387 96.6236042957753,147.0 107.09043097868562,144.4285848941654 113.16794324852526,134.51025687111542 115.53142024204135,106.95924058649689 111.81738496571779,96.30613951478153 100.0,93.0 91.89665030874312,98.14288272708654 85.81913803890347,133.77556510968134 89.19553374499083,142.22451373189688 98.98708128929138,147.0 112.83030367642641,137.08167717140168 114.18086195923388,99.97962525347248 99.6623604297638,93.73469786252826 87.84497546218336,104.38780451193452 87.84497546218336,141.85716844163835 100.67527914047241,146.632655067835 110.46682668291032,140.75513240648434 114.85614109970629,107.32658848678693 112.4926641061902,98.14288272708654 105.06459355540574,93.36734894569963 89.87081288546324,99.61227680370212 85.48149846866727,135.97964006429538 93.922487732023,145.8979651206173 110.12918711267412,140.02044157963246 114.85614109970629,106.95924058649689 107.76571012102067,95.20409325696528 89.87081288546324,95.20409325696528" stroke="#4dd2ff" stroke-linecap="round" stroke-linejoin="round" stroke-width="0.5"><title>2024-03-28 2.0km</title><desc>1711615120000</desc></polyline><polyline fill="none" points="146.3509249612689,115.95007897517644 142.93865619972348,116.62507953052409 146.3509249612689,119.32508074236102 142.62844994850457,117.63758017402142 146.3509249612689,118.65008059120737 147.281543713063,139.91253684880212 154.1060812342912,145.9875059458427 164.96330001577735,146.32500398880802 174.26948754303157,134.85005635209382 175.8205187972635,99.41253381967545 168.37556877732277,93.67500398936681 159.0693812482059,93.67500398936681 148.21216246671975,105.82505852449685 146.04071870818734,136.5375504824333 157.82855624519289,147.0 172.71845628879964,138.2250439808704 175.51031254790723,102.78754795901477 170.8572187833488,94.68750978331082 163.41226876154542,93.0 149.45298746973276,102.45004665805027 147.281543713063,133.83755957102403 151.62443122640252,142.27502580313012 159.37958749942482,145.31250978377648 171.1674250345677,138.2250439808704 174.26948754303157,105.48755745147355 163.41226876154542,95.02501166495495 151.0040187239647,102.78754795901477 148.83257496729493,136.20005170628428 160.0,145.31250978377648 172.0980437863618,136.20005170628428 173.9592812936753,101.77504398208112 162.7918562591076,94.35000787721947 151.0040187239647,103.80005170730874 148.52236871607602,135.18755522882566 158.1387624964118,145.31250978377648 171.78783753700554,136.20005170628428 173.9592812936753,104.13755290675908 161.55103125609457,93.67500398936681 151.3142249751836,102.78754795901477 147.90195621550083,135.18755522882566 158.75917499884963,145.31250978377648 172.40825003758073,136.20005170628428 174.8899000454694,104.13755290675908 164.03268126398325,94.35000787721947 151.62443122640252,102.45004665805027 148.21216246671975,134.85005635209382 150.38360622152686,141.9375274570193 158.1387624964118,144.6375135204289 172.0980437863618,137.21254795743152 174.8899000454694,106.16255957284011 164.34288751520216,95.70001535094343 151.3142249751836,102.11254533240572 148.21216246671975,136.20005170628428 159.37958749942482,144.9750116642099 172.0980437863618,136.5375504824333 174.57969379611313,102.78754795901477 163.1020625103265,95.02501166495495 151.3142249751836,103.80005170730874 148.21216246671975,135.52505408111028 159.37958749942482,145.31250978377648 169.30618752911687,143.96251715556718 173.9592812936753,137.5500466574449 177.37155005335808,105.1500563537702" stroke="#4dd2ff" stroke-linecap="round" stroke-linejoin="round" stroke-width="0.5"><title>2024-03-26 3.7km</title><desc>1711445960000</desc></polyline><polyline fill="none" points="25.44098226726055,194.40005419775844 37.35290586948395,207.0 51.58103683590889,198.72003933228552 54.22813096828759,162.36004341207445 46.94862210191786,153.0 29.742510234937072,159.12003044551238 25.110095500946045,193.32005730783567 28.088076401501894,201.6000272668898 38.34556616842747,206.64000200573355 50.91926330141723,199.4400364770554 54.8899045009166,164.16004967410117 48.27216916717589,153.36000200593844 30.735170535743237,160.56003647809848 26.433642568066716,181.4400755269453 30.404283767566085,201.6000272668898 39.00733970105648,205.5600078641437 46.94862210191786,202.32002398185432 53.89724420197308,166.32005629921332 48.27216916717589,155.88001529639587 38.676452934741974,154.8000097614713 32.05871760100126,160.2000350104645 27.757189635187387,191.88006107881665 35.03669850155711,204.480013479013 48.60305593535304,200.16003351518884 53.89724420197308,164.88005198957399 46.286848567426205,154.44000786356628 32.05871760100126,160.56003647809848 27.757189635187387,192.6000592475757 35.36758526787162,204.480013479013 48.27216916717589,200.16003351518884 51.58103683590889,158.4000272671692 40.33088676817715,153.7200039853342 31.066057300195098,163.0800459976308 28.088076401501894,196.9200459974818 34.04403820075095,203.76001708768308 43.308867668733,204.12001529661939" stroke="#4dd2ff" stroke-linecap="round" stroke-linejoin="round" stroke-width="0.5"><title>2024-03-25 2.1km</title><desc>1711359274000</desc></polyline><polyline fill="none" points="106.84044451080263,201.80771969119087 113.20364870503545,166.50005908031017 105.8859638813883,155.42309042718261 89.34163297340274,162.6923540965654 85.84187066555023,192.11544752772897 95.38667695969343,204.92308857664466 109.38572618737817,199.38465355383232 113.20364870503545,166.50005908031017 103.97700262255967,155.76924609951675 89.34163297340274,163.03850922500715 85.84187066555023,194.19236470013857 96.02299737930298,204.92308857664466 109.70388639904559,198.3461962491274 113.20364870503545,165.11543944850564 103.6588424127549,155.76924609951675 89.34163297340274,162.6923540965654 86.160030875355,194.53851747186854 89.02347276359797,201.80771969119087 97.93195863813162,205.26924054464325 110.02204660885036,196.9615861470811 113.20364870503545,167.1923687402159 104.93148325197399,155.76924609951675 89.34163297340274,161.30773332575336 86.160030875355,194.53851747186854 96.02299737930298,205.6153924879618 109.06756597943604,199.03850114531815 113.20364870503545,166.50005908031017 104.29516283236444,155.07693473016843 89.65979318320751,160.96157806832343 85.84187066555023,195.23082293663174 89.02347276359797,202.15387189388275 98.56827905587852,205.9615444052033 110.34020681679249,196.61543355789036 112.88548849709332,164.76928447559476 103.02252199314535,155.07693473016843 94.11403612047434,156.80771295912564 88.70531255379319,163.73081940272823 86.47819108515978,196.9615861470811 98.88643926754594,205.26924054464325 110.6583670284599,195.5769756315276 112.88548849709332,165.11543944850564 103.6588424127549,155.07693473016843 89.02347276359797,163.73081940272823 86.160030875355,195.9231282984838 97.29563821852207,204.92308857664466 109.38572618737817,198.3461962491274 112.88548849709332,164.76928447559476 101.7498811557889,155.07693473016843 88.70531255379319,163.3846643269062 86.47819108515978,196.26928094075993 97.29563821852207,205.6153924879618 110.02204660885036,198.3461962491274 113.20364870503545,165.11543944850564 107.79492514021695,156.1154017453082 89.97795339301229,160.96157806832343 86.160030875355,192.4616004540585 93.79587591066957,204.92308857664466 109.06756597943604,199.73080593626946 113.20364870503545,165.8077493160963 103.34068220295012,155.42309042718261 89.34163297340274,162.00004376331344 86.160030875355,194.88467021659017 95.06851674988866,204.5769365816377 108.74940576963127,200.76926293037832 113.52180891670287,166.84621392330155 107.1586047206074,156.1154017453082 97.29563821852207,155.07693473016843 89.65979318320751,162.00004376331344 83.93290940672159,192.11544752772897 86.47819108515978,201.4615674642846 95.38667695969343,207.0 103.6588424127549,206.65384816145524 111.29468744620681,199.38465355383232 116.06709059327841,167.53852353105322 107.47676493041217,153.69231168041006 96.9774780087173,153.0 87.75083192437887,160.61542278528214 83.93290940672159,193.84621190233156 93.79587591066957,205.9615444052033 110.34020681679249,203.19232834409922" stroke="#4dd2ff" stroke-linecap="round" stroke-linejoin="round" stroke-width="0.5"><title>2024-03-24 4.9km</title><desc>1711273464000</desc></polyline><polyline fill="none" points="144.77515389956534,192.09209033916704 147.51562619768083,201.69941564812325 155.12804924882948,206.66871366393752 163.95845998823643,205.0122816117946 171.26638611778617,197.72397322021425 174.31135533750057,162.93869974953122 171.875379960984,156.97548257675953 162.74047229997814,153.9938709787093 152.6920738723129,156.31290239514783 147.21112927608192,163.26998935756274 145.3841477446258,196.3988249511458 151.1695892624557,204.01842208299786 161.52248461171985,206.33742730296217 172.48437380604446,194.07981452601962 172.78887072764337,158.63193259644322 161.8269815351814,153.9938709787093 150.56059541925788,157.63806265965104 145.99314158782363,165.58901591598988 144.16616005450487,194.74238905706443 153.9100615605712,207.0 164.5674538332969,205.0122816117946 170.9618891943246,198.05526022496633 176.13833686895669,167.5767519986257 172.17987688444555,156.97548257675953 163.65396306663752,153.66258067754097 150.8650923408568,157.63806265965104 146.2976385112852,164.9264370223973 145.99314158782363,200.70555537566543 154.82355232723057,207.0 163.65396306663752,206.33742730296217 172.78887072764337,194.07981452601962 172.78887072764337,158.63193259644322 158.17301847040653,153.0 146.60213543102145,164.595147539163 144.47065697796643,196.06753782136366 150.25609849579632,204.6809951264877 160.00000000186265,206.0061409168411 172.48437380604446,194.41110180481337 173.7023614924401,160.2883819974959 168.8304107412696,154.65645150770433 158.47751539200544,153.66258067754097 146.2976385112852,165.2577264814172 145.07965082116425,198.71783416182734 161.52248461171985,205.67485450673848 172.17987688444555,194.41110180481337 172.17987688444555,158.63193259644322 160.60899384506047,153.33129035145976 147.21112927608192,160.95096158445813 143.86166313290596,196.73011205531657 149.9516015741974,204.34970861743204 161.52248461171985,206.33742730296217 172.17987688444555,195.07367628556676 171.57088303938508,156.64419249864295 159.6955030784011,153.33129035145976 151.1695892624557,157.63806265965104 144.47065697796643,182.48474418721162 148.4291169643402,202.69327569683082 167.3079261314124,203.68713552318513 174.61585225909948,166.58288406929933 167.9169199746102,154.98774173436686 150.8650923408568,157.63806265965104 144.47065697796643,190.43565283319913 146.60213543102145,201.69941564812325 154.51905540376902,205.67485450673848 169.74390150606632,200.04298173682764 174.9203491806984,167.24546271376312 170.6573922727257,156.64419249864295 150.56059541925788,156.64419249864295 145.3841477446258,175.52768741175532 147.51562619768083,201.69941564812325 156.65053386054933,206.33742730296217 167.6124230530113,203.0245623306837 172.48437380604446,195.4049634898547 174.9203491806984,167.5767519986257 170.3528953511268,156.64419249864295 155.4325461704284,154.3251612558961 146.2976385112852,165.2577264814172 144.77515389956534,198.05526022496633 153.30106771737337,205.67485450673848 163.65396306663752,204.34970861743204 170.6573922727257,186.79148814291693 169.1349076628685,158.63193259644322 159.6955030784011,155.65032211481594 149.9516015741974,160.2883819974959 144.16616005450487,181.15959135862067" stroke="#4dd2ff" stroke-linecap="round" stroke-linejoin="round" stroke-width="0.5"><title>2024-03-22 5.0km</title><desc>1711100044000</desc></polyline><polyline fill="none" points="23.55905886180699,233.25007574330084 29.142774721607566,261.9375274570193 38.448967818170786,266.66250200755894 47.75516091659665,263.9625171555672 53.9592896476388,256.8750492320396 56.13073470257223,241.35008059022948 52.098051028326154,218.40002908511087 39.379587126895785,214.01250594574958 30.383600467815995,225.48755745124072 29.142774721607566,257.88754533138126 36.58772919885814,265.65000787726603 45.58371585793793,265.65000787726603 53.02867033705115,255.1875552290585 52.71846389956772,222.78754795808345 42.481651494279504,215.36251351982355 30.69380690343678,225.48755745124072 29.142774721607566,256.8750492320396 34.7264905795455,264.3000153505709 43.10206436738372,265.9875059465412 52.098051028326154,253.8375595714897 53.33887677453458,221.77504398138262 44.65309654921293,214.35000787791796 30.69380690343678,222.4500466582831 27.90194897353649,254.85005635255948 40.62041287496686,264.97501166467555 48.68578022532165,263.28752069035545 54.26949608325958,253.8375595714897 54.57970252074301,219.41253381920978 50.85722528025508,214.35000787791796 39.069380691275,213.0 28.522361846640706,223.12504923320375 26.661123229190707,256.53755048220046 40.62041287496686,267.0 53.33887677453458,254.5125574504491 56.440941140055656,224.81255522975698 51.787844590842724,213.33750200737268 32.555045522749424,216.03751715575345 25.110091045498848,250.12506943009794" stroke="#4dd2ff" stroke-linecap="round" stroke-linejoin="round" stroke-width="0.5"><title>2024-03-21 2.2km</title><desc>1711013104000</desc></polyline></svg>