<?xml version="1.0" encoding="utf-8" ?>
<svg baseProfile="full" height="300mm" version="1.1" viewBox="0,0,200,300" width="200mm" xmlns="http://www.w3.org/2000/svg" xmlns:ev="http://www.w3.org/2001/xml-events" xmlns:xlink="http://www.w3.org/1999/xlink"><defs /><rect fill="#222222" height="300" width="200" x="0" y="0" /><text fill="#FFFFFF" style="font-size:12px; font-family:Arial; font-weight:bold;" x="10" y="20">Over 2km Runs</text><text fill="#FFFFFF" style="font-size:4px; font-family:Arial" x="10" y="280">ATHLETE</text><text fill="#FFFFFF" style="font-size:9px; font-family:Arial" x="10" y="290">作怪</text><text fill="#FFFFFF" style="font-size:4px; font-family:Arial" x="120" y="280">STATISTICS</text><text fill="#FFFFFF" style="font-size:3px; font-family:Arial" x="120" y="285">Number: 29</text><text fill="#FFFFFF" style="font-size:3px; font-family:Arial" x="120" y="290">Weekly: 3.2</text><text fill="#FFFFFF" style="font-size:3px; font-family:Arial" x="141" y="285">Total: 136.9 km</text><text fill="#FFFFFF" style="font-size:3px; font-family:Arial" x="141" y="290">Avg: 4.7 km</text><text fill="#FFFFFF" style="font-size:3px; font-family:Arial" x="167" y="285">Min: 2.0 km</text><text fill="#FFFFFF" style="font-size:3px; font-family:Arial" x="167" y="290">Max: 12.3 km</text><polyline fill="none" points="36.914974335581064,55.738890214124694 37.29433494526893,35.51466899481602 29.707122744992375,31.799999999813735 20.981828714720905,35.51466899481602 18.895345360040665,57.38984050299041 27.241278779692948,64.19999999995343 35.39753189496696,58.83442119508982 37.104654639959335,37.37200161605142 28.18968030437827,32.006370631279424 19.843746884725988,39.229332987219095 18.70566505473107,58.21531527698971 22.11991054471582,62.755422117654234 27.810319694690406,63.78726353915408 35.77689250558615,57.38984050299041 36.53561372496188,36.959261141950265 28.18968030437827,32.21274124644697 20.412787799723446,38.197482380317524 19.085025664418936,58.21531527698971 22.11991054471582,62.549053786555305 27.620639390312135,63.993631777120754 35.39753189496696,58.421683931490406 36.72529403027147,36.546520605450496 33.50072884559631,33.24459409271367 27.051598474383354,32.62548243138008 20.223107494413853,38.81659279111773 18.895345360040665,57.596209219424054 22.499271154403687,62.755422117654234 29.138081829994917,63.78726353915408 35.77689250558615,57.18347177049145 36.914974335581064,36.75289088184945 28.948401524685323,31.799999999813735 20.223107494413853,37.78474202891812 18.70566505473107,58.421683931490406 27.241278779692948,63.993631777120754 35.77689250558615,58.62805257062428 37.29433494526893,36.959261141950265 33.1213682340458,32.62548243138008 26.10319694969803,32.21274124644697 20.03342718910426,38.197482380317524 18.70566505473107,58.00894660665654 27.620639390312135,63.993631777120754 32.74200762528926,62.342685440788046 35.96657280996442,57.38984050299041 36.914974335581064,37.37200161605142 28.379360609687865,32.21274124644697 20.412787799723446,38.197482380317524 18.895345360040665,58.21531527698971 22.309590850025415,62.549053786555305 30.08648335468024,63.993631777120754" stroke="#4dd2ff" stroke-linecap="round" stroke-linejoin="round" stroke-width="0.5"><title>2024-05-13 3.1km</title><desc>1715589913000</desc></polyline><polyline fill="none" points="56.738875361159444,41.20004043378867 57.841831002384424,60.200021245051175 67.03312801476568,63.600003567989916 71.62877652049065,57.40003255568445 72.36408028006554,36.400023916270584 64.09191296994686,32.60000472771935 59.86391634494066,34.00001242570579 58.02565694320947,38.8000332522206 57.290353181771934,58.40002885297872 65.56252049282193,62.60000921576284 71.07729869987816,57.00003393297084 70.89347275905311,36.800025621661916 63.724261090159416,33.80001137102954 54.716790018603206,39.20003459881991 56.003571601584554,58.00003037904389 63.54043514933437,64.00000120420009 67.76843177527189,63.000007001450285 71.81260246038437,57.60003184527159 73.09938404150307,37.40002806810662 65.74634643271565,32.40000356850214 59.86391634494066,34.00001242570579 56.55504942126572,39.20003459881991 56.187397540546954,58.800027266843244 60.41539416555315,63.40000472730026 66.48165019322187,64.00000120420009 71.81260246038437,58.00003037904389 73.2832099813968,37.80002962425351 71.99642840027809,34.20001346594654 65.01104267220944,32.20000239391811 56.92270130198449,37.200027267448604 55.81974566075951,57.20003325142898 63.724261090159416,63.80000239354558 71.62877652049065,58.40002885297872 72.91555810160935,37.80002962425351 70.52582087833434,33.6000103012193 64.82721673231572,31.800000000046566 56.92270130198449,38.00003037950955 55.635919720865786,57.800031119491905 63.724261090159416,64.19999999995343 71.62877652049065,58.20002962346189 71.81260246038437,37.40002806810662 64.64339079149067,33.6000103012193 58.20948288310319,38.60003255633637 57.290353181771934,58.60002806736156 65.56252049282193,62.60000921576284 70.89347275905311,56.80003459821455 71.99642840027809,35.80002124560997 69.79051711689681,32.80000587226823 63.54043514933437,32.20000239391811 56.371223481372,38.8000332522206" stroke="#4dd2ff" stroke-linecap="round" stroke-linejoin="round" stroke-width="0.5"><title>2024-05-12 3.1km</title><desc>1715507107000</desc></polyline><polyline fill="none" points="91.53319314215332,41.96474580396898 94.06350323744118,61.65883693168871 101.65443352423608,64.19999999995343 107.1043321909383,58.270615958143026 108.07752838172019,36.67061191890389 100.09731961879879,32.435297682415694 93.47958552278578,38.57650125818327 93.09030704665929,61.23530953167938 100.68123733345419,64.19999999995343 106.90969295240939,57.42356008174829 107.2989714294672,36.24708078056574 102.43299047555774,32.85882939118892 95.0366994291544,35.400018313666806 91.53319314215332,55.7294475666713 94.84206018969417,62.92941875127144 100.09731961879879,64.19999999995343 105.35257904790342,61.023545808158815 107.88288914319128,43.658866555662826 107.49361066706479,37.30590850766748 103.79546514339745,33.91765838582069 98.5402057133615,33.28236103709787 94.25814247597009,36.24708078056574 91.92247161827981,57.84708805102855 97.95628799963742,63.77647298038937 106.32577523868531,59.964726951671764 108.46680685691535,41.11768504790962 104.18474361952394,33.91765838582069 99.51340190507472,32.85882939118892 94.45278171356767,36.03531518741511 91.92247161827981,57.63532407418825 97.37237028591335,63.988236498320475 106.52041447721422,59.329435447696596 108.07752838172019,39.423562774667516 102.04371200036258,31.800000000046566 93.67422476131469,34.76472129672766" stroke="#4dd2ff" stroke-linecap="round" stroke-linejoin="round" stroke-width="0.5"><title>2024-05-09 2.0km</title><desc>1715244227000</desc></polyline><polyline fill="none" points="126.00540357735008,41.12058420246467 127.63717442099005,59.09591389284469 138.2436849102378,63.53425013599917 144.15885422099382,57.0986604175996 145.9945964217186,40.23291077837348 143.75091150961816,34.46302704606205 137.63177084363997,31.800000000046566 129.88085933215916,34.68494585878216 127.22923171054572,57.0986604175996 134.77617186587304,64.19999999995343 143.34296879917383,59.761664752615616 145.79062506649643,38.457563132978976 138.44765626545995,32.2438380070962 129.47291662171483,35.57262094295584 127.43320306483656,58.873996906680986 133.96028644312173,63.97808339539915 142.1191406659782,61.093166024191305 145.58665371034294,39.56715553579852 139.05957033205777,32.465756985591725 128.65703119896352,36.682214425178245 127.22923171054572,57.98632879508659 133.14440102130175,63.53425013599917 143.34296879917383,59.09591389284469 145.1787109998986,38.23564460268244 138.2436849102378,32.02191901230253 129.47291662171483,36.01645838562399 127.63717442099005,57.542494639288634 133.5523437326774,63.312333481851965 142.731054732576,59.5397478165105 144.97473964374512,38.01372605585493 139.05957033205777,32.465756985591725 128.861002555117,33.79727050871588" stroke="#4dd2ff" stroke-linecap="round" stroke-linejoin="round" stroke-width="0.5"><title>2024-05-05 2.0km</title><desc>1714901559000</desc></polyline><polyline fill="none" points="163.70688987430185,45.12916029035114 164.2723292009905,59.89369295304641 168.60736403986812,63.789875810733065 174.45023708418012,63.789875810733065 181.047029228881,57.227880438324064 181.80094833206385,36.516479512210935 173.69631798099726,32.00506449514069 165.2147280788049,37.746864137006924 164.08384942542762,58.253193250857294 171.81152022443712,64.19999999995343 180.1046303510666,58.253193250857294 181.98942810762674,37.54180007125251 179.72767079994082,33.64557990641333 173.3193584298715,31.800000000046566 164.46080897562206,38.567120247520506 161.63361234217882,54.97219090163708 166.5340865077451,62.35444066557102 172.56543932668865,63.789875810733065 180.2931101275608,57.843068171758205 181.80094833206385,38.156992222648114 175.20415618550032,32.210128975100815 166.15712695661932,36.926607781788334 163.89536964986473,58.253193250857294 170.30368201993406,64.19999999995343 179.72767079994082,59.89369295304641 181.80094833206385,48.205111153190956 182.17790788318962,38.156992222648114 179.72767079994082,34.055708604864776 172.94239887874573,32.00506449514069 166.34560673311353,34.87596581946127 163.51841009873897,55.79244185704738 168.795843815431,63.584813692839816 173.69631798099726,63.789875810733065 179.35071124881506,59.48356811911799 182.3663876587525,39.59244003938511 180.85854945424944,34.87596581946127 176.52351461537182,32.620257889153436 171.0576011221856,32.41519344015978 165.4032078543678,36.72154365456663 162.76449099648744,56.40762991295196 165.02624830324203,61.534191673155874 173.3193584298715,63.99493791302666 180.48158990219235,56.40762991295196 181.4239887809381,36.311415354022756 175.95807528868318,32.620257889153436 169.36128314211965,33.44051553332247 164.64928875211626,39.7975039514713 165.2147280788049,61.12406708532944 174.82719663437456,63.37975156027824 179.9161505755037,59.27850567968562 181.23550900444388,52.921562439063564 180.85854945424944,35.08103008498438 174.2617573076859,32.00506449514069 167.4764853855595,34.055708604864776 164.2723292009905,39.7975039514713 164.08384942542762,60.50888008833863 173.50783820543438,63.789875810733065 180.48158990219235,57.02281783055514 181.61246855650097,35.6962227888871 172.0,32.00506449514069 164.08384942542762,39.38737611169927 164.46080897562206,61.12406708532944 168.98432359099388,64.19999999995343 175.20415618550032,63.37975156027824 181.23550900444388,54.767128124367446 181.61246855650097,35.6962227888871 177.65439326874912,32.210128975100815 170.68064157199115,32.41519344015978 164.08384942542762,39.38737611169927 164.08384942542762,60.30381772527471 173.69631798099726,64.19999999995343 180.67006967775524,57.227880438324064 181.98942810762674,37.13167189410888 178.7852719221264,33.235451145330444 172.3769595520571,32.41519344015978 164.46080897562206,37.746864137006924 164.2723292009905,59.68863054388203 173.13087865430862,64.19999999995343 180.48158990219235,56.81775520602241 181.4239887809381,36.106351180933416 176.52351461537182,32.210128975100815 169.9267224688083,32.620257889153436 164.2723292009905,39.7975039514713 162.57601122092456,58.458255767356604" stroke="#4dd2ff" stroke-linecap="round" stroke-linejoin="round" stroke-width="0.5"><title>2024-04-29 5.0km</title><desc>1714382183000</desc></polyline><polyline fill="none" points="20.00357159972191,100.00002562138252 26.069827627390623,104.60000239359215 34.89347275812179,100.60002304054797 37.65086186211556,81.20003827963956 35.44495057873428,76.00001844018698 29.01104267127812,73.80000700242817 21.474179121665657,80.00003459886648 19.63591971900314,99.80002645193599 22.76096070278436,103.80000700149685 28.09191296994686,104.60000239359215 34.709646818228066,100.20002477569506 35.628776519559324,80.20003524981439 29.562520490959287,74.6000113710761 20.922701301053166,80.40003588586114 20.00357159972191,99.40002806740813 28.64339079055935,103.60000811656937 35.077298698946834,98.60003111953847 35.628776519559324,78.60002962430008 27.54043514840305,74.40001030126587 19.63591971900314,83.60004402440973 18.349138137884438,88.80004908144474 22.025656942278147,102.40001449012198 28.09191296994686,104.00000587222166 32.687561474740505,101.60001844004728 35.812602458521724,80.20003524981439 31.033128013834357,74.6000113710761 21.65800506155938,78.00002726749517 19.819745659828186,95.60004043346271 24.966871986165643,103.00001137075014 33.79051711689681,99.60002726688981 36.180254340171814,80.00003459886648 31.76843177434057,74.6000113710761 26.98895732779056,74.20000921655446 22.209482883103192,78.60002962430008 20.371223480440676,98.20003255573101 23.680090404115617,102.40001449012198 28.827216731384397,103.00001137075014 36.180254340171814,96.20003883959725 31.584605834446847,72.60000000009313 21.10652724094689,78.20002806815319 19.084441899321973,96.60003770282492 25.33452386688441,105.0 34.89347275812179,100.60002304054797 37.283209981396794,81.6000393864233 34.89347275812179,76.4000203255564 29.562520490959287,73.80000700242817 24.783046045340598,74.80001242575236 20.18739753961563,80.00003459886648 18.900615958496928,98.20003255573101 25.33452386688441,104.60000239359215 31.21695395372808,104.00000587222166 34.89347275812179,100.20002477569506 37.09938404150307,80.40003588586114 29.930172371678054,73.6000058723148 20.5550494203344,78.40002885391004 19.084441899321973,97.20003588544205 22.577134762890637,102.40001449012198 27.724261089228094,103.80000700149685 35.812602458521724,96.60003770282492 36.91555810067803,79.00003112014383 34.709646818228066,75.60001649521291 27.35660920944065,73.80000700242817 20.18739753961563,79.40003255638294 18.900615958496928,98.20003255573101 25.150697926990688,105.0 34.52582087833434,100.20002477569506 37.283209981396794,80.40003588586114 34.52582087833434,75.40001550014131 29.19486861117184,73.6000058723148 20.18739753961563,79.40003255638294 18.716790018603206,97.4000352488365 24.783046045340598,104.60000239359215 34.89347275812179,99.20002885302529 37.09938404150307,79.40003255638294 30.297824252396822,73.40000472776592 20.5550494203344,78.40002885391004 19.084441899321973,97.4000352488365 25.518349806778133,104.80000120424666 34.709646818228066,99.40002806740813 36.36408028006554,80.00003459886648 29.746346431784332,74.00000811670907 20.371223480440676,79.40003255638294 19.084441899321973,97.8000339330174 21.841831002384424,103.00001137075014 27.172783268615603,104.40000356803648 34.3419949375093,97.4000352488365 35.812602458521724,79.80003393325023 28.827216731384397,74.00000811670907 21.10652724094689,80.00003459886648 20.00357159972191,98.40003184531815 26.98895732779056,103.4000092158094 34.158168997615576,98.20003255573101 35.628776519559324,79.80003393325023 29.19486861117184,74.40001030126587 20.922701301053166,79.80003393325023 18.349138137884438,97.4000352488365" stroke="#4dd2ff" stroke-linecap="round" stroke-linejoin="round" stroke-width="0.5"><title>2024-04-28 5.8km</title><desc>1714295019000</desc></polyline><polyline fill="none" points="54.27598037105054,86.48575791390613 56.504401536658406,101.25307944393717 61.36641135066748,104.55918606440537 67.64650736097246,103.67755799554288 72.1033496921882,98.608191476902 73.11626840382814,76.78777515236288 64.20258374232799,73.04081871756352 57.314736505039036,79.21227383520454 55.694066567346454,98.82859889790416 58.93540644366294,103.67755799554288 64.81033496931195,104.779593040701 72.1033496921882,98.608191476902 74.12918711453676,80.53472682158463 73.72401963081211,76.78777515236288 67.64650736097246,72.82040936755948 57.922487732023,77.44900226336904 56.09923405107111,97.94696911447681 58.530238959006965,102.79592966171913 63.594832515344024,104.55918606440537 71.49559846520424,99.93063575704582 72.91368466056883,77.44900226336904 64.20258374232799,72.60000000009313 59.13799018599093,75.24491131491959 57.11215276364237,80.31431803200394 57.314736505039036,101.69389387476258 65.01291871257126,105.0 69.87492852564901,102.35511539666913 73.5214358875528,80.31431803200394 68.6594260726124,73.2612280510366 63.18966503161937,73.04081871756352 58.32765521667898,77.00818420550786 55.89665030967444,96.8449315126054 62.37933006230742,104.779593040701 71.49559846520424,99.71022841823287 73.5214358875528,78.55104711954482 67.0387561339885,72.82040936755948 58.12507147528231,77.44900226336904 56.09923405107111,97.06533906585537 61.97416257765144,104.55918606440537 71.6981822066009,99.26941369124688 73.5214358875528,78.991864946438 69.87492852564901,73.2612280510366 59.745741412974894,74.58368370891549 55.694066567346454,97.28574660327286 62.17674632091075,104.55918606440537 71.29301472287625,99.48982106312178 73.5214358875528,79.21227383520454 68.6594260726124,73.04081871756352 63.39224877394736,72.60000000009313 57.922487732023,77.22859324258752 56.09923405107111,97.06533906585537 61.56899509392679,104.11837206268683 70.48267975263298,100.81226494791918 73.31885214429349,79.87350040255114 67.64650736097246,73.2612280510366 61.56899509392679,73.9224559541326 56.09923405107111,79.21227383520454 53.87081288639456,97.28574660327286" stroke="#4dd2ff" stroke-linecap="round" stroke-linejoin="round" stroke-width="0.5"><title>2024-04-26 3.3km</title><desc>1714123626000</desc></polyline><polyline fill="none" points="90.55064035672694,90.0462008304894 93.79587498214096,101.0538663752377 97.61379806976765,104.16923549259081 102.76799423899502,103.7538531459868 106.77681348193437,99.18464322690852 108.87667118106037,84.4385053764563 108.30398271698505,79.2461846715305 103.53157885745168,74.46924104704522 93.41408267151564,78.62310553435236 91.50512112863362,97.52311048284173 97.23200576100498,103.33847073675133 106.58591732755303,99.39233474992216 108.30398271698505,79.66157068591565 101.43172115832567,73.63846740336157 93.22318651806563,78.4154124581255 91.50512112863362,97.73080213065259 96.46842114347965,103.13077950873412 106.0132288634777,99.60002625756897 108.11308656260371,79.2461846715305 100.85903269518167,73.8461608379148 92.84139420930296,79.03849164163694 91.88691343646497,98.35387697978877 95.51394037064165,103.13077950873412 101.62261731177568,103.54616194870323 106.3950211731717,99.60002625756897 108.30398271698505,79.86926366901025 102.00440962146968,73.43077395414002 93.41408267151564,77.79233313421719 91.69601728301495,97.10772714181803 98.377382687293,103.54616194870323 106.9677096363157,97.73080213065259 108.11308656260371,79.03849164163694 101.24082500394434,73.22308048862033 91.88691343646497,78.20771936583333 91.50512112863362,82.153885462787 91.69601728301495,100.22310068667866 96.08662883471698,104.37692664307542 102.19530577585101,103.96154432720505 108.11308656260371,97.73080213065259 108.4948788722977,77.3769468406681 99.71365576889366,72.60000000009313 95.13214806187898,73.63846740336157 91.88691343646497,79.03849164163694 90.55064035672694,98.76926013384946 95.13214806187898,103.96154432720505 100.28634423203766,105.0 107.73129425384104,98.97695168829523 109.44935964420438,79.66157068591565 103.91337116528302,72.8076935117133 97.04110960662365,72.60000000009313 92.84139420930296,75.71540104574524 90.74153651110828,99.39233474992216" stroke="#4dd2ff" stroke-linecap="round" stroke-linejoin="round" stroke-width="0.5"><title>2024-04-25 3.0km</title><desc>1714037269000</desc></polyline><polyline fill="none" points="126.9850302124396,95.74289350025356 134.07545588817447,104.11837206291966 143.19171747099608,101.25307944417 145.82530415058136,80.31431803223677 140.96329797245562,74.14286522264592 133.67028870712966,74.36327447416261 130.83411843702197,77.4490022638347 128.6056989384815,97.94696911447681 133.67028870712966,104.33877907227725 143.5968846520409,101.03267220407724 146.02788774017245,80.9755443520844 143.19171747099608,75.24491131515242 133.67028870712966,74.14286522264592 125.56694507785141,83.8408566901926 130.22636766452342,102.1347082387656 136.70904256869107,105.0 141.57104874495417,103.23674386180937 145.0149697875604,77.4490022638347 135.08837384264916,73.48163736891001 125.97211225889623,80.7551355951 129.21344971098006,101.03267220407724 133.46770511567593,104.5591860646382 140.7607143819332,103.45715093635954 145.0149697875604,98.16737658483908 146.02788774017245,80.09390922542661 141.57104874495417,73.70204667025246 134.88579025212675,73.48163736891001 130.4289512541145,77.4490022638347 128.20053175650537,96.62452394352295 133.46770511567593,104.33877907227725 143.7994682425633,100.59185767453164 146.02788774017245,79.65309156337753 138.9374620663002,73.26122805150226 129.8212004834786,78.55104711977765 127.79536457546055,97.50615412299521 133.46770511567593,104.5591860646382 142.58396669849753,102.79592966171913 146.23047133162618,80.31431803223677 140.152963610366,73.04081871779636 131.03670202754438,76.34695699531585 128.20053175650537,96.8449315126054 133.46770511567593,104.11837206291966 142.98913388047367,101.69389387476258 146.4330549230799,81.8571792144794 144.812386197038,75.46532048401423 137.1142097497359,72.60000000009313 131.03670202754438,76.78777515236288 128.6056989384815,98.38778403890319 134.68320666067302,104.5591860646382 144.40721901506186,100.59185767453164 146.02788774017245,79.21227383520454 138.9374620663002,73.04081871779636 130.02378407400101,77.66941126761958 128.20053175650537,99.48982106358744 136.3038753857836,104.5591860646382 144.6098026065156,99.48982106358744 145.42013696953654,77.4490022638347 137.72196052130312,73.04081871779636 130.02378407400101,78.33063818141818 128.6056989384815,99.04900630260818 135.29095743224025,104.33877907227725 144.40721901506186,99.48982106358744 145.62272056005895,78.33063818141818 136.91162615828216,73.04081871779636 130.4289512541145,77.66941126761958 128.6056989384815,99.04900630260818 137.5193769307807,105.0 144.6098026065156,98.16737658483908 145.82530415058136,78.33063818141818 136.70904256869107,73.26122805150226 130.02378407400101,79.43268270744011 128.80828252900392,99.04900630260818 137.1142097497359,104.33877907227725 144.6098026065156,98.608191476902 146.02788774017245,79.21227383520454 142.38138310890645,74.14286522264592 136.50645897723734,73.26122805150226 130.02378407400101,79.21227383520454 130.02378407400101,100.37145038554445" stroke="#4dd2ff" stroke-linecap="round" stroke-linejoin="round" stroke-width="0.5"><title>2024-04-22 4.9km</title><desc>1713776322000</desc></polyline><polyline fill="none" points="163.084447234869,82.60004189261235 164.55505387671292,98.80003037978895 173.19486789777875,103.40000921627507 178.5258169732988,98.0000332519412 178.89346863422543,78.40002885367721 169.33452546223998,73.6000058723148 163.81975055672228,80.60003650654107 163.81975055672228,100.40002391603775 168.41539631132036,104.20000472804531 174.48164870776236,104.40000356826931 179.81259778421372,97.60003459849395 179.62877195421606,77.0000230409205 170.25365461409092,73.80000700219534 164.00357638578862,80.00003459933214 164.00357638578862,100.40002391603775 167.1286154994741,103.60000811656937 174.84930036962032,104.20000472804531 179.62877195421606,98.80003037978895 180.36407527513802,77.60002562194131 172.2757387459278,73.20000356808305 164.7388797076419,78.40002885367721 162.7167955748737,97.60003459849395 165.6580088576302,103.00001137075014 171.54043542500585,104.60000239405781 179.4449461242184,99.00002962374128 180.73172693606466,79.00003112037666 171.90808708500117,73.80000700219534 164.37122804671526,79.00003112037666 163.26827306579798,98.6000311197713 166.57713800948113,103.20001030131243 172.2757387459278,104.60000239405781 179.62877195421606,98.6000311197713 180.36407527513802,77.80002645240165 172.64339040685445,73.20000356808305 164.37122804671526,79.4000325568486 163.6359247257933,100.00002562161535 167.3124413304031,103.80000700172968 173.74634538777173,104.60000239405781 179.9964236151427,98.2000325564295 180.36407527513802,78.00002726796083 172.09191291593015,73.6000058723148 166.57713800948113,75.60001649521291 164.1874022167176,79.80003393325023 162.90062140394002,97.80003393255174 165.84183468855917,102.80001242551953 171.1727837640792,105.0 179.62877195421606,98.80003037978895 180.91555276606232,78.40002885367721 172.64339040685445,73.6000058723148 164.37122804671526,79.20003184583038 163.084447234869,98.80003037978895 171.35660959407687,105.0 179.0772944642231,100.40002391603775 181.46703025698662,82.80004234937951 179.9964236151427,77.0000230409205 176.13608118053526,74.40001030103303 165.6580088576302,76.4000203255564 162.5329697439447,96.20003884029575 165.84183468855917,102.60001346538775 172.2757387459278,104.60000239405781 177.60668782144785,101.80001747468486 181.46703025698662,82.80004234937951 177.23903616145253,74.40001030103303 167.1286154994741,74.80001242598519 163.6359247257933,80.60003650654107 163.6359247257933,100.6000230407808 170.98895793408155,105.0 176.68755867052823,103.00001137075014 179.9964236151427,97.80003393255174 181.09937859605998,80.20003525004722 172.8272162368521,72.5999999998603 164.55505387671292,78.60002962453291 162.90062140394002,98.6000311197713 171.54043542500585,105.0 179.62877195421606,99.60002726712264 181.09937859605998,79.80003393325023 173.19486789777875,73.6000058723148 164.1874022167176,78.40002885367721 162.5329697439447,96.60003770329058" stroke="#4dd2ff" stroke-linecap="round" stroke-linejoin="round" stroke-width="0.5"><title>2024-04-21 5.0km</title><desc>1713688153000</desc></polyline><polyline fill="none" points="28.585358093958348,119.68902064161375 29.243885949254036,124.38585991493892 31.219469516538084,125.02271788136568 33.04871355975047,123.9878234922071 34.14625998586416,116.34549530752702 33.12188332155347,114.35529666871298 30.85362070798874,113.87764844141202 29.243885949254036,115.071768607595 28.292679047212005,122.55489113833755 30.487771898973733,124.94311065651709 33.48773213010281,123.35096490650903 34.14625998586416,115.94745587761281 31.951167133636773,113.7980403828551 29.024376664310694,115.4698083649273 28.365848809015006,122.79371333139716 30.85362070798874,125.02271788136568 33.48773213010281,123.27135755645577 34.14625998586416,115.94745587761281 31.438978801481426,113.7980403828551 29.024376664310694,115.62902422645129 28.365848809015006,122.87332071689889 30.85362070798874,125.02271788136568 33.560901891905814,123.11214283847949 34.14625998586416,115.86784797383007 31.65848808689043,113.7980403828551 29.024376664310694,115.54941629862878 28.439018570352346,123.03253547067288 30.85362070798874,125.02271788136568 33.560901891905814,123.11214283847949 34.14625998586416,115.94745587761281 31.219469516538084,113.7980403828551 28.951206902507693,115.78824006387731 28.439018570352346,123.19175020040711 30.85362070798874,125.02271788136568 33.48773213010281,123.27135755645577 34.07309022406116,115.86784797383007 31.365809039678425,113.7980403828551 28.951206902507693,115.62902422645129 28.365848809015006,122.95292809663806 30.99996023112908,125.02271788136568 33.560901891905814,122.95292809663806 34.07309022406116,115.86784797383007 31.146299754735082,113.7980403828551 28.951206902507693,115.70863214810379 28.585358093958348,123.51017958851298 30.634111422579736,125.02271788136568 32.975543797947466,124.14703807921614 34.07309022406116,117.30078933207551 32.53652522759512,114.03686454112176 29.170716187916696,115.23098452825798 28.292679047212005,122.47528372862143 29.829244043678045,124.70428894588258 31.73165784822777,124.94311065651709 33.26822284469381,123.66939424700104 34.14625998586416,116.26588743348839 32.31701594218612,113.87764844141202 29.39022547286004,114.83294468151871 28.73169761756435,123.74900156713556 31.73165784822777,124.94311065651709 33.634071653243154,122.47528372862143 34.07309022406116,115.70863214810379 30.99996023112908,113.87764844141202 28.87803714070469,115.86784797383007 28.585358093958348,123.51017958851298 30.99996023112908,125.02271788136568 33.48773213010281,123.27135755645577 34.14625998586416,115.94745587761281 31.585318325087428,113.7980403828551 28.951206902507693,115.70863214810379 28.585358093958348,123.51017958851298 31.512148563284427,124.94311065651709 33.634071653243154,122.47528372862143 33.78041117684916,115.15137657098239 31.65848808689043,113.7980403828551 29.3170557115227,114.91255266271764 28.292679047212005,122.47528372862143 29.53656499646604,124.62468169699423 26.317095479927957,127.80896700377343 26.39026524219662,132.10773705423344 20.902533112093806,132.5853770991671 19.73181692464277,133.77947627345566 18.487930974923074,141.74010319658555 15.487970743793994,144.60591431241482 17.756233357824385,145.79999999998836 15.26846145838499,144.44670278631384 18.561100736726075,140.8644371497212 19.58547740103677,133.54065654572332 26.243925718590617,131.70970351976575 27.634151191450655,125.97800411650678 36.19501331401989,127.01289657037705 40.73153854161501,122.79371333139716 36.707201646175236,125.6595754668233 33.85358093865216,125.50036110612564 34.07309022406116,115.39020042540506 33.19505308289081,113.87764844141202 31.07312999293208,113.39999999996508 28.65852785576135,115.62902422645129 28.073169761803,123.51017958851298 31.146299754735082,125.18193231342593 33.41456236829981,122.79371333139716 33.92675070045516,115.31059247982921 32.975543797947466,113.7184323183028 30.487771898973733,113.63882424752228 28.512188332621008,116.02706377545837 28.073169761803,123.9878234922071 31.07312999293208,125.10232510050992 33.19505308289081,122.71410593949258 33.85358093865216,115.23098452825798 32.829204274341464,113.7980403828551 30.560941660776734,113.63882424752228 28.146339523606002,116.9823580859229 27.707320953253657,122.87332071689889 28.65852785576135,124.70428894588258 30.99996023112908,125.18193231342593 33.04871355975047,123.51017958851298 33.92675070045516,116.18627955351258 32.024336895439774,113.47960808849894 28.87803714070469,114.91255266271764 27.707320953253657,122.95292809663806 29.902413805015385,125.02271788136568 33.19505308289081,122.87332071689889 33.99992046225816,115.62902422645129 32.902374036144465,113.7980403828551 31.438978801481426,113.47960808849894 28.0,116.50471103790915 27.560981429647654,123.35096490650903 30.780450946185738,125.18193231342593 33.26822284469381,122.79371333139716 33.70724141551182,115.23098452825798 31.292639278341085,113.47960808849894 28.292679047212005,115.78824006387731 27.707320953253657,123.11214283847949 30.487771898973733,125.26153952057939 33.26822284469381,122.71410593949258 33.70724141551182,115.15137657098239 31.219469516538084,113.47960808849894 28.439018570352346,115.31059247982921 27.707320953253657,122.87332071689889 30.487771898973733,125.10232510050992 33.12188332155347,123.27135755645577 33.78041117684916,115.31059247982921 31.219469516538084,113.47960808849894 28.146339523606002,115.86784797383007 27.85366047685966,122.95292809663806 30.560941660776734,125.10232510050992 33.19505308289081,122.87332071689889 33.92675070045516,115.31059247982921 31.585318325087428,113.47960808849894 28.365848809015006,115.31059247982921 27.414641906041652,122.71410593949258 30.34143237536773,125.10232510050992 33.19505308289081,123.35096490650903 33.70724141551182,115.31059247982921 30.99996023112908,113.47960808849894 28.219509285409003,115.78824006387731 27.634151191450655,123.27135755645577 30.487771898973733,125.10232510050992 33.26822284469381,122.87332071689889 33.78041117684916,115.54941629862878 31.292639278341085,113.5592161709792 28.292679047212005,115.23098452825798 27.487811668310314,122.47528372862143 30.34143237536773,124.94311065651709 33.26822284469381,122.79371333139716 33.85358093865216,115.39020042540506 31.146299754735082,113.47960808849894 28.365848809015006,115.31059247982921 27.560981429647654,122.71410593949258 30.414602137636393,125.02271788136568 33.34139260649681,123.03253547067288 33.92675070045516,115.78824006387731 31.512148563284427,113.5592161709792 28.439018570352346,115.31059247982921 27.560981429647654,122.71410593949258 30.19509285222739,125.18193231342593 33.19505308289081,122.95292809663806 34.07309022406116,115.62902422645129 33.12188332155347,113.95725649420638 31.292639278341085,113.5592161709792 28.292679047212005,115.23098452825798 27.560981429647654,122.79371333139716 30.19509285222739,125.02271788136568 33.34139260649681,122.87332071689889 33.70724141551182,115.39020042540506 32.975543797947466,114.03686454112176 30.92679046932608,113.5592161709792 28.073169761803,115.39020042540506 27.707320953253657,122.95292809663806 30.707281183917075,125.02271788136568 33.12188332155347,123.35096490650903 33.70724141551182,115.071768607595 31.07312999293208,113.47960808849894 28.439018570352346,114.11647258186713 27.560981429647654,115.4698083649273" stroke="#4dd2ff" stroke-linecap="round" stroke-linejoin="round" stroke-width="0.5"><title>2024-04-18 12.3km</title><desc>1713432540000</desc></polyline><polyline fill="none" points="72.63613879680634,137.8080337792635 71.4449472380802,117.72002100641839 63.30513825826347,113.83200239157304 57.150648541748524,119.6640283507295 55.959456983953714,140.61602443200536 62.11394669953734,145.36800239095464 67.6728406380862,144.28800808708183 71.04788338579237,139.75202759820968 71.84201109036803,117.72002100641839 67.07724485825747,113.83200239157304 61.518350921571255,114.04800356319174 56.753584689460695,119.44802759890445 55.959456983953714,139.96802683128044 59.533031658269465,144.93600471806712 64.89339366927743,145.80000000004657 71.24641531147063,138.88803050667048 72.43760686926544,119.6640283507295 64.29779789038002,113.4000000001397 56.753584689460695,119.88002908579074 55.76092505734414,139.75202759820968 61.31981899496168,145.36800239095464 70.45228760596365,140.83202359895222 72.43760686926544,120.96003251918592 70.45228760596365,116.20801438950002 64.29779789038002,113.4000000001397 56.95211661513895,119.23202683124691 55.76092505734414,139.96802683128044 61.518350921571255,145.5840012037661 67.6728406380862,144.0720091778785 70.65081953257322,139.75202759820968 71.84201109036803,119.23202683124691 63.106606332585216,113.4000000001397 57.150648541748524,119.6640283507295 55.959456983953714,140.18402604712173 64.09926596377045,145.80000000004657 70.8493514591828,139.32002908503637 71.4449472380802,118.8000252477359 67.6728406380862,114.91200808738358 60.5256912894547,114.48000585730188 57.150648541748524,119.88002908579074 56.35652083624154,140.83202359895222 65.48898944724351,144.93600471806712 70.8493514591828,136.94403610564768 71.24641531147063,118.1520227517467 65.88605330046266,114.26400471827947 60.5256912894547,115.12800917821005 56.35652083624154,125.4960425295867 57.944776247255504,143.64001131081022 64.49632981605828,145.15200356277637 69.65815990138799,141.26402188651264 71.84201109036803,120.74403186468408 69.45962797384709,116.20801438950002 64.09926596377045,114.48000585730188 57.150648541748524,116.85601732227951 55.36386120412499,121.17603315785527" stroke="#4dd2ff" stroke-linecap="round" stroke-linejoin="round" stroke-width="0.5"><title>2024-04-17 3.1km</title><desc>1713344929000</desc></polyline><polyline fill="none" points="93.02035935316235,120.69003381230868 91.1591218477115,136.48503971938044 95.4399681109935,142.35751841310412 100.46530937589705,143.77501136157662 106.42126939352602,139.52253028959967 108.46863064914942,120.28503244835883 101.7681756298989,114.41250586998649 93.76485435571522,119.88003102457151 92.64811185188591,138.91503244871274 99.5346906222403,144.18000921071507 106.79351689480245,139.52253028959967 108.28250689897686,120.69003381230868 101.2098043775186,114.41250586998649 93.76485435571522,120.69003381230868 92.46198810171336,138.30753447092138 99.1624431218952,143.5725124143064 106.79351689480245,139.1175317435991 108.28250689897686,120.89253447111696 102.698794381693,115.02000921056606 94.13710185606033,119.47502954024822 92.46198810171336,138.7125331372954 99.34856687206775,143.77501136157662 106.79351689480245,138.91503244871274 108.46863064914942,121.2975357437972 101.95429938100278,114.81750811217353 94.13710185606033,119.67753028986044 92.64811185188591,137.90253574261442 94.69547310844064,141.75002120807767 100.09306187462062,143.77501136157662 106.79351689480245,139.1175317435991 108.28250689897686,119.67753028986044 100.2791856257245,114.61500699911267 94.13710185606033,119.67753028986044 92.83423560298979,138.91503244871274 99.90693812444806,144.38250811235048 106.60739314369857,139.32003102381714 108.46863064914942,120.28503244835883 101.7681756298989,114.61500699911267 94.50934935826808,119.88003102457151 92.46198810171336,137.90253574261442 95.81221561133862,142.7625164743513 100.83755687717348,143.97751029348 106.79351689480245,139.1175317435991 107.91025939770043,120.08253174414858 100.6514331260696,114.61500699911267 94.50934935826808,119.88003102457151 93.02035935316235,137.90253574261442 97.85957686789334,143.77501136157662 106.42126939352602,139.32003102381714 108.46863064914942,121.2975357437972 101.58205187879503,114.61500699911267 94.50934935826808,119.47502954024822 92.83423560298979,137.49753695493564 97.85957686789334,143.77501136157662 106.42126939352602,139.72502953954972 108.84087815135717,121.09503511479124 102.3265468813479,115.2225102938246 94.50934935826808,119.47502954024822 92.46198810171336,138.1050351143349 98.97631937079132,144.18000921071507 106.60739314369857,139.1175317435991 108.28250689897686,120.08253174414858 101.95429938100278,114.81750811217353 97.1150818662718,115.83001345256343 94.50934935826808,119.88003102457151 92.83423560298979,139.32003102381714 99.72081437334418,144.18000921071507 106.979640644975,138.7125331372954 108.28250689897686,119.88003102457151 100.6514331260696,115.02000921056606 94.13710185606033,120.08253174414858 93.02035935316235,138.91503244871274 99.5346906222403,143.77501136157662 106.79351689480245,138.51003381144255 108.28250689897686,120.28503244835883 101.7681756298989,114.81750811217353 94.50934935826808,119.272528775502 92.64811185188591,139.1175317435991 98.79019562155008,143.97751029348 106.23514564242214,139.72502953954972 108.46863064914942,120.48753313790075 100.83755687717348,114.81750811217353 93.39260685443878,118.66502638929524 91.1591218477115,138.1050351143349 96.55671061389148,144.58500699861906 102.14042313024402,144.78750587045215 107.35188814625144,141.14252386661246 109.02700190152973,124.74004411324859 104.74615563824773,114.00750356772915 99.72081437334418,113.4000000001397 94.50934935826808,117.24752029194497 90.78687434736639,134.86504335561767 92.83423560298979,143.37001345166937 97.4873293666169,145.80000000004657 103.8155368855223,144.58500699861906 109.21312565170228,136.8900386595633" stroke="#4dd2ff" stroke-linecap="round" stroke-linejoin="round" stroke-width="0.5"><title>2024-04-15 5.9km</title><desc>1713172666000</desc></polyline><polyline fill="none" points="139.11737485276535,116.83157368400134 139.33742484264076,123.37547429912956 140.95112476637587,124.89173822582234 143.07827466586605,124.73213159822626 144.98537457594648,122.4976363038877 145.35212455829605,115.23549427377293 142.05137471435592,113.40000000002328 139.5574748320505,116.03353427746333 139.26407484617084,122.97645711805671 140.58437478356063,124.73213159822626 142.41812469717115,124.97154153051088 145.05872457288206,122.81685020396253 145.13207456935197,114.59706184116658 142.41812469717115,113.4798041646718 140.07092480780557,114.99608215631451 139.11737485276535,122.41783281392418 140.87777476990595,124.81193491484737 143.44502464868128,124.73213159822626 145.13207456935197,123.05626056628535 145.64552454464138,115.63451435038587 143.07827466586605,113.55960832315031 139.63082482898608,115.71431834768737 139.04402485629544,122.09861879458185 141.2445247527212,124.97154153051088 144.76532458607107,123.61488453607308 145.64552454464138,115.8739263243624 143.59172464208677,113.71921662223758 140.07092480780557,114.99608215631451 139.11737485276535,122.65724326577038 141.17117475625128,124.97154153051088 144.54527459666133,123.9340981017449 145.7188745411113,116.35275011172052 144.25187461078167,113.87882489763433 142.49147469364107,113.55960832315031 140.14427480427548,114.836474048323 139.19072484970093,122.25822581618559 141.02447476284578,124.89173822582234 144.54527459666133,123.9340981017449 145.13207456935197,114.59706184116658 141.75797472847626,113.71921662223758 139.70417482499033,115.8739263243624 139.33742484264076,123.05626056628535 142.49147469364107,124.97154153051088 145.05872457288206,122.89665366394911 145.4988245521672,115.71431834768737 142.8582246764563,113.63941247557523 139.70417482499033,115.71431834768737 139.19072484970093,123.05626056628535 141.83132472494617,124.97154153051088 144.83867458300665,122.97645711805671 145.4988245521672,115.79412233905168 142.63817468704656,113.4798041646718 139.7775248219259,115.55471034691436 139.19072484970093,123.13606400846038 141.61127473507077,124.97154153051088 143.7384246350266,124.65232827543514 145.05872457288206,122.97645711805671 145.57217454863712,115.55471034691436 142.7848746799864,113.55960832315031 139.7775248219259,115.63451435038587 139.33742484264076,122.81685020396253 141.75797472847626,124.97154153051088 144.76532458607107,123.53508112957934 145.64552454464138,115.63451435038587 142.7848746799864,113.55960832315031 139.85087481839582,115.31529830105137 139.26407484617084,122.57743978808867 141.46457474213094,124.97154153051088 144.76532458607107,123.45527771738125 145.57217454863712,115.95373030402698 143.22497465927154,113.63941247557523 139.99757481133565,115.07588620146271 139.19072484970093,122.97645711805671 141.61127473507077,125.05134482949506 144.83867458300665,123.53508112957934 145.57217454863712,115.8739263243624 143.22497465927154,113.63941247557523 139.11737485276535,115.23549427377293 138.67727487394586,123.37547429912956 136.91687495680526,126.40799999731826 137.87042491184548,131.83460341655882 131.34227521996945,133.27105264249258 129.43517530988902,141.01188462181017 126.28112545888871,144.44336949114222 130.1686752755195,145.79999999998836" stroke="#4dd2ff" stroke-linecap="round" stroke-linejoin="round" stroke-width="0.5"><title>2024-04-14 5.4km</title><desc>1713087921000</desc></polyline><polyline fill="none" points="162.3772708028555,135.22044733911753 167.03669757116586,144.47755799465813 175.7477997932583,144.91837206226774 180.20464278943837,137.6449315128848 180.4072265625,116.92654789239168 171.69612434133887,114.061228051316 165.82119493652135,119.79186494578607 164.20052475482225,139.6285988977179 167.64444889035076,144.03674386139028 173.11421074904501,145.13877907162532 179.79947524424642,139.1877840384841 181.21756165195256,118.91022922634147 172.30387565959245,113.62040936644189 165.61861116345972,120.23268270725384 164.20052475482225,139.84900630265474 171.49354056827724,144.91837206226774 179.5968914721161,140.28982106223702 181.82531297020614,121.11431803135201 174.73488092888147,113.62040936644189 166.4289462538436,118.02859324240126 164.60569230094552,139.40819147625007 171.69612434133887,145.35918606398627 179.39430769905448,140.9510430789087 181.42014542594552,120.45309156295843 173.72196206636727,113.8408187169116 166.22636248078197,118.91022922634147 163.99794098269194,138.96737658441998 170.48062170576304,145.80000000004657 179.5968914721161,140.51022841827944 181.82531297020614,121.33472682139836 175.54521602019668,114.061228051316 166.4289462538436,118.68982025515288 164.4031085278839,138.52656162623316 170.88578925095499,144.91837206226774 179.39430769905448,141.17145038512535 181.6227291971445,120.45309156295843 173.92454584036022,113.62040936644189 166.4289462538436,118.46941126766615 164.4031085278839,138.7469691131264 169.2651190701872,144.91837206226774 176.15296733845025,144.47755799465813 179.79947524424642,140.73063575685956 181.42014542594552,120.01227383501828 173.92454584036022,113.62040936644189 166.4289462538436,118.24900226318277 164.60569230094552,139.84900630265474 171.49354056827724,145.80000000004657 180.20464278943837,139.84900630265474 181.42014542594552,118.91022922634147 173.51937829423696,113.62040936644189 165.82119493652135,119.35104711935855 163.99794098269194,139.40819147625007 171.69612434133887,145.35918606398627 179.79947524424642,139.6285988977179 181.6227291971445,120.01227383501828 173.51937829423696,113.39999999990687 166.22636248078197,118.24900226318277 164.4031085278839,137.86533906543627 169.2651190701872,144.91837206226774 179.79947524424642,140.51022841827944 181.42014542594552,118.91022922634147 174.93746470287442,113.62040936644189 166.22636248078197,118.24900226318277 164.60569230094552,139.40819147625007 170.0754541605711,145.13877907162532 179.39430769905448,140.9510430789087 181.6227291971445,121.33472682139836 174.93746470287442,113.39999999990687 166.22636248078197,118.02859324240126 164.4031085278839,138.7469691131264 170.88578925095499,145.13877907162532 179.39430769905448,140.9510430789087 181.82531297020614,119.79186494578607 176.7607186557725,114.28163736849092 169.67028661537915,114.28163736849092 163.3901896653697,127.72657455340959 163.18760589230806,138.7469691131264 162.17468702979386,134.3388162360061" stroke="#4dd2ff" stroke-linecap="round" stroke-linejoin="round" stroke-width="0.5"><title>2024-04-13 4.9km</title><desc>1713000859000</desc></polyline><polyline fill="none" points="18.61082419939339,167.82042852579616 20.128266752697527,182.67900113062933 24.68059441447258,185.5681587322615 31.698766225017607,185.15542211732827 34.73365133162588,177.51978360163048 35.302692289464176,159.15289088129066 26.956758244894445,155.4382235542871 20.697307710535824,162.0420731222257 19.559225795790553,179.78984050289728 23.163151861168444,183.91721190232784 28.663881117478013,184.53631707956083 34.35429069399834,179.5834717710968 35.49237260874361,159.15289088129066 27.146438563242555,155.4382235542871 20.697307710535824,163.073923189193 19.938586434349418,179.78984050289728 27.33611888345331,184.94905378716066 34.16461037378758,180.2025779208634 36.061413566581905,161.21659279055893 29.23292207531631,155.2318530001212 21.645709306001663,159.97837182995863 20.128266752697527,179.37710302323103 26.767077925615013,184.7426854406949 34.16461037378758,179.78984050289728 36.061413566581905,161.01022266945802 29.422602394595742,155.02548243105412 21.645709306001663,160.39111221232451 20.128266752697527,179.78984050289728 27.146438563242555,184.94905378716066 34.16461037378758,180.40894660679623 36.061413566581905,160.39111221232451 28.28452047891915,155.02548243105412 21.456028988584876,160.80385253229178 20.507627392187715,181.02805257122964 29.612282713875175,184.7426854406949 34.73365133162588,178.551627879031 35.11301197018474,156.6764465519227 25.43931569159031,154.61274124635383 20.128266752697527,161.62933298689313 18.99018483888358,181.02805257122964 23.73219281807542,185.7745270167943 28.663881117478013,186.18726353929378 35.87173324730247,179.99620921956375 36.251093884930015,157.708298626123 27.33611888345331,154.20000000018626 19.938586434349418,160.39111221232451 18.61082419939339,181.02805257122964 22.214750264771283,185.98089528572746 28.47420079819858,186.39363177749328 36.061413566581905,179.1707342604641 36.820134843699634,158.9465206055902 26.38771728798747,154.81911184662022 19.369545477442443,161.42296289652586 18.61082419939339,180.82168393139727 26.008356648497283,186.60000000009313 35.11301197018474,181.4407898033969 37.76853643916547,161.83570306259207 33.21620877832174,154.81911184662022 23.73219281807542,155.6445940923877 19.369545477442443,162.4548131953925 20.128266752697527,181.23442119499668 29.043241756036878,185.36179043282755 34.54397101234645,179.99620921956375 36.251093884930015,161.42296289652586 32.8368481406942,156.2637056147214 27.905159841291606,154.81911184662022 20.88698803074658,160.80385253229178 20.317947072908282,179.5834717710968 26.956758244894445,184.7426854406949 34.54397101234645,179.99620921956375 36.061413566581905,161.01022266945802 29.23292207531631,155.02548243105412 21.26634866837412,160.80385253229178 20.317947072908282,179.78984050289728 26.008356648497283,185.15542211732827 32.07812686264515,183.91721190232784 34.92333165090531,179.78984050289728 36.44077420420945,161.01022266945802 29.612282713875175,155.02548243105412 20.128266752697527,161.21659279055893 18.23146356176585,177.93252135859802" stroke="#4dd2ff" stroke-linecap="round" stroke-linejoin="round" stroke-width="0.5"><title>2024-04-12 5.1km</title><desc>1712913892000</desc></polyline><polyline fill="none" points="48.10000000032596,161.91380595450755 47.800000000046566,166.4833446581615 49.72000000020489,168.6375474621891 52.72000000020489,167.26669174764538 53.50000000023283,161.2610127577791 52.95999999996275,159.8901454550214 51.28000000026077,159.106791743543 48.82000000006519,160.47766027698526 48.16000000014901,166.54862360900734 49.72000000020489,168.44171106338035 52.78000000002794,167.1361339481664 53.43999999994412,161.2610127577791 51.580000000074506,159.17207124643028 48.94000000040978,160.347101461899 48.22000000020489,166.4833446581615 50.200000000186265,168.57226866745623 52.66000000014901,167.4625284099602 53.50000000023283,161.52213009505067 51.580000000074506,159.106791743543 48.94000000040978,160.347101461899 48.22000000020489,166.41806570230983 49.66000000014901,168.44171106338035 52.66000000014901,167.4625284099602 53.3800000003539,161.13045405980665 51.46000000019558,159.2373507444281 48.94000000040978,160.2818220469053 48.22000000020489,166.15694983006688 49.480000000214204,168.3111534396303 51.28000000026077,168.44171106338035 52.78000000002794,167.26669174764538 53.43999999994412,161.58740941714495 52.84000000008382,159.8248660058598 49.72000000020489,159.36790972552262 48.640000000130385,160.99989534239285 47.800000000046566,167.3319706399925 54.16000000014901,169.68200751347467 56.199999999953434,169.02922012779163 58.72000000020489,166.54862360900734 62.38000000012107,167.72364389174618 63.21999999997206,169.42089261789806 63.04000000003725,174.12094878550852 66.45999999996275,178.69042356905993 72.34000000008382,180.844596239971 78.39999999990687,181.69320825650357 80.19999999995343,180.5182067831047 80.02000000001863,169.55145007540705 79.23999999999069,169.87784363387618 79.0,172.0320380582707" stroke="#4dd2ff" stroke-linecap="round" stroke-linejoin="round" stroke-width="0.5"><title>2024-04-11 3.0km</title><desc>1712828151000</desc></polyline><polyline fill="none" points="92.21882730163634,161.09809599420987 91.45031641703099,180.12003005482256 94.33223223220557,184.9277511301916 99.71180841792375,186.3909689465072 108.54968358203769,180.74712457694113 109.8945776289329,160.2619640538469 101.82521334849298,154.19999999995343 93.94797678943723,158.17163310712203 91.64244413841516,179.7019669620786 97.59840348828584,185.97290679160506 104.51500144228339,185.13678229390644 108.16542814020067,181.37421895889565 110.08670534938574,161.72519478574395 103.74649055860937,154.82710033957846 97.79053120873868,155.24516715481877 93.75584906898439,159.42583186272532 91.0660609761253,179.49293539160863 98.94329753424972,186.60000000009313 108.16542814020067,182.21034458186477 110.66308851260692,164.65165395173244 109.8945776289329,158.58969942154363 106.24415093101561,155.45420053834096 98.94329753424972,154.4090334624052 94.52435995172709,156.7084005139768 89.33691148739308,164.65165395173244 91.64244413841516,179.91099851601757 95.48499855678529,185.5548445736058 102.78585195261985,186.1819378763903 107.97330041974783,181.79228180204518 109.70244990848005,163.18842475186102 104.8992568841204,154.82710033957846 99.13542525563389,154.19999999995343 93.94797678943723,157.33550029061735 91.64244413841516,179.7019669620786 96.82989260368049,185.97290679160506 103.74649055860937,185.76387569052167 108.74181130342185,179.91099851601757 110.47096079215407,162.56132628861815 107.5890449769795,157.12646704702638 102.01734106987715,154.4090334624052 93.75584906898439,157.96259992639534 91.45031641703099,179.283903805539 97.02202032506466,185.76387569052167 103.74649055860937,185.5548445736058 108.9339390238747,180.12003005482256 110.2788330707699,162.56132628861815 105.09138460457325,154.82710033957846 95.29287083633244,155.66323390696198 92.41095502115786,161.3071289404761 92.21882730163634,182.0013131997548 101.63308562804013,186.1819378763903 108.16542814020067,180.12003005482256 108.9339390238747,161.3071289404761 106.24415093101561,156.49936722405255 100.86457474436611,155.24516715481877 93.94797678943723,160.68003005511127 92.41095502115786,179.49293539160863 100.28819158114493,185.76387569052167 107.78117269836366,180.74712457694113 109.12606674525887,162.77035912498832 107.20478953514248,157.75356672983617 102.01734106987715,155.24516715481877 93.94797678943723,160.47099706204608 91.45031641703099,179.7019669620786 98.94329753424972,186.60000000009313 104.13074600044638,186.1819378763903 106.43627865239978,182.21034458186477 108.9339390238747,162.3522934364155 102.78585195261985,155.66323390696198 97.98265892919153,156.08130059670657 94.1401045108214,160.68003005511127 92.41095502115786,178.86584058776498 99.13542525563389,185.34581344178878 107.20478953514248,181.79228180204518 108.9339390238747,161.3071289404761 102.40159651171416,155.45420053834096 94.33223223220557,160.68003005511127 92.60308274347335,179.283903805539 98.94329753424972,185.5548445736058 107.39691725652665,180.32906157849357 108.9339390238747,161.3071289404761 101.63308562804013,155.66323390696198 93.94797678943723,160.88906303257681 92.41095502115786,179.49293539160863 100.4803193025291,185.76387569052167 107.20478953514248,181.1651875139214 108.74181130342185,160.68003005511127 102.20946879126132,155.66323390696198 94.1401045108214,159.63486493378878 91.83457185979933,179.283903805539 98.1747866505757,185.5548445736058 107.20478953514248,181.79228180204518 109.70244990848005,162.3522934364155 102.40159651171416,155.66323390696198 97.40627576690167,156.49936722405255 92.41095502115786,162.14326056884602 90.87393325474113,178.86584058776498" stroke="#4dd2ff" stroke-linecap="round" stroke-linejoin="round" stroke-width="0.5"><title>2024-04-09 5.6km</title><desc>1712653834000</desc></polyline><polyline fill="none" points="127.47810529079288,160.10946269729175 127.10351651255041,179.26418469287455 130.28752112854272,184.96982052829117 134.78258647024632,185.78491038572975 140.02682936843485,184.766048025107 143.77271715272218,179.8755033898633 145.4583666557446,159.70191395725124 142.27436203882098,155.42264850670472 136.46823597326875,154.20000000018626 128.78916601464152,160.31323704426177 127.47810529079288,180.07927625835873 135.90635280590504,186.19245522329584 143.77271715272218,179.8755033898633 145.08377787657082,160.7207856932655 140.58871253579855,155.21887379395775 136.65553036238998,154.8113243218977 128.78916601464152,160.7207856932655 126.72892773337662,178.85663881897926 130.28752112854272,184.5622755077202 135.7190584158525,186.19245522329584 143.96001154184341,179.67173050623387 145.64566104486585,161.53588280710392 138.52847425453365,154.40377478930168 131.41128746327013,155.83019788726233 128.22728284727782,159.9056883349549 127.10351651255041,180.4868219497148 135.15717524848878,185.98868281231262 143.58542276360095,180.4868219497148 145.4583666557446,159.9056883349549 142.836245207116,156.0339725543745 137.03011914063245,154.40377478930168 128.41457723639905,160.31323704426177 127.10351651255041,180.89436757937074 135.15717524848878,186.60000000009313 143.3981283744797,180.89436757937074 145.4583666557446,159.49813956487924 136.84282475151122,154.60754956374876 128.78916601464152,159.2943651569076 126.54163334332407,180.07927625835873 132.90964257810265,186.60000000009313 137.96659108716995,185.98868281231262 143.02353959530592,180.89436757937074 145.27107226662338,159.9056883349549 142.836245207116,156.0339725543745 136.46823597326875,154.40377478930168 128.22728284727782,160.51701137633063 126.91622212342918,180.89436757937074 130.1002267394215,185.17359301517718 135.15717524848878,186.39622761961073 143.3981283744797,181.09814037196338 145.64566104486585,160.51701137633063 143.21083398442715,156.237747205887 136.84282475151122,154.60754956374876 128.41457723639905,159.2943651569076 126.35433895513415,178.85663881897926 132.53505379892886,185.98868281231262 138.3411798644811,185.98868281231262 143.02353959530592,181.9132313884329 145.83295543398708,164.38872078526765 142.08706764969975,155.21887379395775 130.84940429590642,156.0339725543745 127.85269406903535,161.1283342805691 127.29081090074033,181.5056859103497 131.59858185332268,185.78491038572975 136.84282475151122,186.19245522329584 144.14730593003333,179.0604117643088 145.4583666557446,161.1283342805691 142.46165642794222,156.237747205887 135.15717524848878,154.40377478930168 128.22728284727782,159.9056883349549 126.54163334332407,180.07927625835873 134.96988085936755,186.60000000009313 143.58542276360095,180.89436757937074 145.4583666557446,160.31323704426177 143.3981283744797,156.64529646467417 137.03011914063245,154.20000000018626 131.41128746327013,156.237747205887 127.85269406903535,161.53588280710392 128.03998845815659,179.8755033898633 135.34446963761002,184.96982052829117 142.46165642794222,180.28304911172017 143.77271715272218,160.51701137633063 137.59200230892748,155.42264850670472 127.6653996789828,162.14720548246987 126.16704456601292,177.6340008310508" stroke="#4dd2ff" stroke-linecap="round" stroke-linejoin="round" stroke-width="0.5"><title>2024-04-08 5.0km</title><desc>1712568268000</desc></polyline><polyline fill="none" points="162.77373912092298,166.12642631609924 164.78341970779002,181.43192832311615 169.71627205982804,184.21473739854991 175.74531382136047,182.62456114101224 179.76467499602586,177.4564817319624 179.21658029127866,156.98283759551123 170.81246147025377,154.20000000018626 164.05262676719576,161.35586221376434 163.68723029643297,181.23315613530576 168.2546861777082,184.8110532492865 176.11071029212326,183.81719342363067 179.3992785261944,178.0527991000563 179.58197676204145,157.18161159800366 169.35087558906525,154.99509675358422 163.68723029643297,163.74114533537067 163.50453206244856,180.63683948107064 168.80278088338673,184.61228131409734 175.74531382136047,183.81719342363067 179.76467499602586,178.0527991000563 179.3992785261944,156.78406357811764 169.71627205982804,154.99509675358422 164.2353250021115,160.7595410987269 162.95643735677004,179.64297809358686 170.99515970610082,185.40736896684393 179.21658029127866,179.24543343414553 180.49546793755144,160.56076736422256 177.38959793932736,155.5914191622287 172.45674558822066,154.5975484070368 167.3411950012669,155.988967360463 164.60072147287428,160.36199361411855 163.50453206244856,180.23929497040808 166.79310029558837,184.21473739854991 173.91833146940917,184.61228131409734 179.3992785261944,179.24543343414553 179.94737323187292,158.5730291986838 173.73563323449343,154.3987742108293 164.78341970779002,159.76567227602936 163.13913559168577,179.24543343414553 166.24500558990985,183.81719342363067 170.81246147025377,184.8110532492865 179.03388205636293,180.43806723342277 180.86086440831423,161.35586221376434 178.30308911483735,156.58528954628855 172.09134911745787,154.99509675358422 166.4277038257569,157.7779335163068 163.86992853228003,162.74727762839757 163.50453206244856,182.22701692814007 166.4277038257569,185.40736896684393 172.82214205898345,185.60614084312692 179.03388205636293,179.0466610826552 180.86086440831423,160.16321984957904 172.6394438231364,154.79632258741185 164.78341970779002,159.9644460703712 162.59104088507593,180.0405226929579 168.98547911830246,186.40122819831595 179.03388205636293,179.44420577120036 180.67816617246717,160.56076736422256 177.2068997034803,155.39264504099265 172.45674558822066,154.5975484070368 164.41802323795855,160.36199361411855 163.3218338266015,180.0405226929579 171.72595264669508,185.00982517004013 179.03388205636293,178.64911633403972 180.49546793755144,159.16935080452822 172.6394438231364,154.99509675358422 164.41802323795855,160.7595410987269 163.13913559168577,179.24543343414553 166.79310029558837,183.81719342363067 172.27404735330492,185.00982517004013 179.21658029127866,178.64911633403972 180.49546793755144,159.16935080452822 177.2068997034803,155.5914191622287 170.26436676550657,154.99509675358422 163.68723029643297,163.34359829733148 163.13913559168577,182.028244799003 166.24500558990985,185.60614084312692 173.73563323449343,185.2085970758926 179.3992785261944,178.0527991000563 179.58197676204145,157.5791595580522 171.3605561768636,154.20000000018626 164.2353250021115,160.7595410987269 163.13913559168577,179.44420577120036 168.43738441262394,184.61228131409734 173.73563323449343,184.41350936354138 179.58197676204145,177.85402665939182 180.49546793755144,159.56689846678637 177.38959793932736,155.5914191622287 171.17785794101655,154.79632258741185 164.05262676719576,161.35586221376434 163.86992853228003,180.8356117135845 168.98547911830246,185.40736896684393 175.74531382136047,184.41350936354138 180.13007146771997,172.88471079966985 178.30308911483735,157.7779335163068 167.88928970694542,156.3865154988598 162.95643735677004,167.51783923245966 163.68723029643297,183.41964938864112 167.88928970694542,186.20245638210326 174.83182264585048,184.8110532492865 179.58197676204145,177.65525420289487 181.04356264322996,161.95218319515698 179.21658029127866,156.98283759551123 172.82214205898345,154.99509675358422 167.3411950012669,156.58528954628855 162.95643735677004,167.31906600343063 163.68723029643297,183.41964938864112 167.7065914720297,186.00368455052376 175.0145208807662,184.61228131409734 179.58197676204145,177.65525420289487 179.3992785261944,157.5791595580522 169.89897029474378,154.79632258741185 163.86992853228003,162.9460511994548 164.2353250021115,181.43192832311615 169.89897029474378,186.00368455052376 176.293408527039,185.60614084312692 179.76467499602586,180.8356117135845 179.94737323187292,158.37425530003384 169.16817735414952,154.79632258741185 163.50453206244856,162.34973044134676 162.59104088507593,181.03438393212855 165.5142126493156,185.40736896684393 171.90865088254213,186.40122819831595 179.58197676204145,178.84788871533237 180.3127697026357,158.97057695058174 170.0816685296595,154.99509675358422 163.3218338266015,163.14482475607656 162.77373912092298,182.22701692814007 166.24500558990985,185.80491270427592 172.09134911745787,186.20245638210326 177.5722961742431,183.41964938864112 180.13007146771997,178.25157152628526 180.86086440831423,158.97057695058174 170.81246147025377,154.5975484070368 163.50453206244856,161.55463588889688 162.77373912092298,181.43192832311615 166.06230735499412,185.2085970758926 172.82214205898345,186.60000000009313 179.3992785261944,181.23315613530576 180.86086440831423,159.76567227602936 178.30308911483735,156.18774143699557 171.3605561768636,154.5975484070368 164.05262676719576,160.36199361411855 162.04294618032873,179.64297809358686 164.41802323795855,184.01596541819163 169.71627205982804,186.20245638210326 179.03388205636293,181.23315613530576 181.04356264322996,161.35586221376434 173.00484029389918,154.5975484070368 164.78341970779002,159.76567227602936 162.77373912092298,179.24543343414553 171.54325441177934,186.20245638210326 179.76467499602586,181.43192832311615 181.59165734890848,162.34973044134676 178.12039087992162,156.78406357811764 173.00484029389918,154.99509675358422 164.41802323795855,160.36199361411855 162.59104088507593,179.84175040083937 165.33151441346854,184.21473739854991 171.54325441177934,186.20245638210326 179.94737323187292,180.23929497040808 181.2262608781457,162.34973044134676 178.85118382051587,157.5791595580522 172.6394438231364,154.5975484070368 164.2353250021115,160.56076736422256 162.95643735677004,180.43806723342277 165.87960911914706,184.41350936354138 171.54325441177934,186.00368455052376 179.21658029127866,181.03438393212855 180.86086440831423,161.55463588889688 172.45674558822066,154.99509675358422 164.2353250021115,161.35586221376434 162.77373912092298,180.63683948107064 171.90865088254213,185.60614084312692 179.58197676204145,179.84175040083937 181.2262608781457,160.95831481856294 171.90865088254213,154.79632258741185 164.05262676719576,161.35586221376434 162.95643735677004,179.84175040083937 171.72595264669508,185.60614084312692 179.3992785261944,180.23929497040808 180.67816617246717,160.7595410987269 176.84150323364884,155.7901932692621 171.54325441177934,154.99509675358422 164.41802323795855,161.75340954912826 162.59104088507593,180.0405226929579 170.62976323533803,186.20245638210326 179.3992785261944,181.82947265543044 181.95705381967127,162.54850404243916 178.66848558560014,156.3865154988598 168.2546861777082,155.7901932692621 164.05262676719576,161.95218319515698 162.95643735677004,177.4564817319624" stroke="#4dd2ff" stroke-linecap="round" stroke-linejoin="round" stroke-width="0.5"><title>2024-04-06 11.8km</title><desc>1712394949000</desc></polyline><polyline fill="none" points="20.264986410737038,223.40261758770794 27.419873980805278,227.39999999990687 34.18801087141037,221.7195075035561 36.50851494818926,203.415620300686 34.18801087141037,197.3142980930861 27.03312330134213,195.6311723960098 22.392115147784352,198.78703225194477 19.684860391542315,217.72211701748893 24.71261922456324,225.71689230878837 34.18801087141037,222.35067390301265 36.70189028792083,202.36366914049722 33.027758833020926,197.1039074358996 26.64637262187898,196.47273537050933 22.19873980805278,199.83898474974558 19.878235732205212,219.4052294937428 24.905994565226138,225.9272808250971 33.60788485221565,223.19222888187505 36.12176426779479,202.7844496513717 31.86750679463148,196.6831260751933 25.67949592322111,196.6831260751933 22.005364468321204,200.47015606006607 19.878235732205212,218.77406243304722 23.939117865636945,225.5065037761815 33.8012601910159,222.981840161141 36.31513960752636,202.7844496513717 30.707254755310714,196.26234465069138 21.81198912858963,200.04937520227395 19.298109712079167,220.66756319021806 26.452997282147408,226.3480578113813 34.381386211141944,221.5091186722275 36.50851494818926,202.9948398831766 33.99463553074747,197.94546996965073 29.160252038389444,195.84156316355802 21.231863109394908,200.68054646486416 19.298109712079167,219.1948404891882 25.67949592322111,226.13766932603903 34.574761549942195,221.29872982553206 36.31513960752636,202.57405940373428 28.96687669865787,195.84156316355802 21.61861378978938,200.47015606006607 19.878235732205212,219.82600745512173 26.452997282147408,226.3480578113813 34.574761549942195,221.29872982553206 36.12176426779479,201.31171758612618 28.386750679463148,196.05195391504094 21.61861378978938,200.68054646486416 20.071611071005464,220.45717427972704 27.613249320536852,226.13766932603903 34.961512230336666,220.87795208394527 36.50851494818926,201.94288856582716 29.54700271692127,196.05195391504094 21.231863109394908,201.31171758612618 19.878235732205212,220.45717427972704 26.839747961610556,226.3480578113813 34.76813689060509,221.5091186722275 36.50851494818926,202.15327886096202 28.773501358926296,196.05195391504094 21.231863109394908,201.31171758612618 19.684860391542315,220.45717427972704 27.613249320536852,226.3480578113813 34.574761549942195,221.5091186722275 36.31513960752636,202.15327886096202 29.740378057584167,195.84156316355802 21.425238449126482,200.47015606006607 19.878235732205212,219.61561848199926 26.066246603615582,226.13766932603903 31.674131454899907,225.0857266644016 34.76813689060509,221.29872982553206 36.50851494818926,201.52210792852566 29.54700271692127,195.84156316355802 21.81198912858963,200.25976563920267 19.684860391542315,219.61561848199926 25.48612058442086,226.13766932603903 34.381386211141944,222.1402851191815 36.31513960752636,202.36366914049722 30.127128736115992,195.4207816135604 22.005364468321204,199.83898474974558 19.684860391542315,219.82600745512173 26.259621942415833,226.13766932603903 32.25425747409463,224.87533808499575 35.15488756913692,220.66756319021806 35.928388928994536,201.10132722835988 28.193375339731574,195.6311723960098 21.231863109394908,200.89093685429543 19.878235732205212,221.08834096207283 27.03312330134213,226.3480578113813 34.76813689060509,220.87795208394527 36.31513960752636,202.15327886096202 28.96687669865787,195.84156316355802 21.038487770594656,201.73249825532548 19.878235732205212,219.82600745512173 26.839747961610556,226.13766932603903 34.574761549942195,221.7195075035561 36.31513960752636,202.36366914049722 28.386750679463148,195.84156316355802 21.425238449126482,201.10132722835988 19.878235732205212,220.66756319021806 24.519243884831667,225.9272808250971 34.18801087141037,222.35067390301265 36.70189028792083,202.57405940373428 28.96687669865787,195.6311723960098 21.81198912858963,200.25976563920267 20.264986410737038,220.2467853538692 27.613249320536852,226.3480578113813 34.76813689060509,220.87795208394527 36.50851494818926,202.36366914049722 32.83438349235803,196.8935167635791 28.193375339731574,195.6311723960098 21.61861378978938,201.10132722835988 19.878235732205212,220.03639641287737 27.613249320536852,226.3480578113813 34.574761549942195,222.35067390301265 36.31513960752636,201.73249825532548 28.96687669865787,195.2103908143472 22.19873980805278,198.99742278293706 19.878235732205212,220.03639641287737 22.585490487515926,224.66494948999025 27.806624660268426,226.3480578113813 35.15488756913692,220.45717427972704 36.31513960752636,201.73249825532548 32.64100815355778,196.47273537050933 27.613249320536852,195.4207816135604 21.61861378978938,200.47015606006607 20.071611071005464,220.66756319021806 28.386750679463148,226.7688347341027 34.76813689060509,221.7195075035561 36.12176426779479,201.73249825532548 28.580126019194722,195.0 21.425238449126482,200.47015606006607 19.684860391542315,219.4052294937428 25.67949592322111,226.13766932603903 34.574761549942195,221.92989631928504 36.12176426779479,201.94288856582716 29.54700271692127,195.6311723960098 24.519243884831667,196.26234465069138 21.425238449126482,201.31171758612618 19.878235732205212,220.03639641287737 27.226498642005026,226.3480578113813 34.961512230336666,221.29872982553206 36.12176426779479,202.36366914049722 29.160252038389444,195.4207816135604 21.425238449126482,201.10132722835988 20.071611071005464,220.87795208394527 27.03312330134213,226.7688347341027 34.76813689060509,221.29872982553206 36.12176426779479,201.10132722835988 33.027758833020926,196.8935167635791 27.03312330134213,195.6311723960098 21.425238449126482,201.10132722835988 20.264986410737038,220.87795208394527 28.193375339731574,226.3480578113813 34.961512230336666,220.2467853538692 36.31513960752636,201.31171758612618 27.806624660268426,195.4207816135604 22.392115147784352,199.20781329786405 19.49148505181074,206.36108145606704 19.298109712079167,222.56106267124414" stroke="#4dd2ff" stroke-linecap="round" stroke-linejoin="round" stroke-width="0.5"><title>2024-04-03 9.7km</title><desc>1712137473000</desc></polyline><polyline fill="none" points="52.418967065401375,214.6941618458368 57.674225707538426,213.63533942471258 55.72783361840993,219.35297579015605 60.009896215982735,225.91765515413135 69.93649587407708,225.91765515413135 75.58103293552995,205.16474580392241 72.46680559124798,196.2705952215474 65.07051565032452,195.0 59.81525700632483,197.96472129621543 57.479586499743164,219.14121168642305 60.20453542564064,226.34118233202025 67.01690773945302,226.34118233202025 72.07752717286348,222.74119929829612 74.21855847258121,203.25885874545202 69.54721745662391,196.905892618699 60.009896215982735,200.71767400577664 57.479586499743164,220.83532407414168 63.5134019786492,226.7647094472777 72.07752717286348,222.31767158163711 73.82928005419672,203.04709343775176 68.37938220240176,196.2705952215474 59.81525700632483,200.71767400577664 57.674225707538426,221.47061595786363 64.29195881448686,227.18823649850674 72.07752717286348,222.5294354481157 74.21855847258121,202.835328114219 68.96329982951283,196.69412683532573 63.5134019786492,197.32942413678393 59.42597858887166,201.56473583891056 57.284947290085256,220.83532407414168 63.708041187375784,227.39999999990687 71.88288796506822,222.5294354481157 74.02391926385462,202.20003204792738 68.96329982951283,196.69412683532573 59.42597858887166,201.35297040455043 57.284947290085256,219.7765039508231 59.81525700632483,225.2823642680887 65.26515485905111,227.18823649850674 72.66144479997456,221.68237988790497 74.02391926385462,202.4117974191904 68.76866061985493,196.4823610363528 64.48659802321345,196.4823610363528 59.42597858887166,201.14120495389216 57.284947290085256,219.98826800682582 63.12412356026471,227.18823649850674 71.68824875541031,223.376490754541 74.21855847258121,203.25885874545202 70.32577429246157,196.905892618699 65.26515485905111,196.69412683532573 59.620617798529565,201.14120495389216 57.479586499743164,220.4117960727308 61.95628830604255,226.55294589768164 72.07752717286348,225.49412791244686" stroke="#4dd2ff" stroke-linecap="round" stroke-linejoin="round" stroke-width="0.5"><title>2024-04-02 3.0km</title><desc>1712049520000</desc></polyline><polyline fill="none" points="93.54423793498427,205.1958415696863 92.2947355993092,222.8685523159802 96.04324260540307,226.72028327942826 101.66600311454386,226.94685553689487 105.83101089950651,222.18883457873017 107.91351479198784,199.7580636702478 100.83300155773759,194.99999999976717 94.16898910235614,200.43778644152917 92.08648520987481,222.18883457873017 95.6267418274656,226.49371100589633 101.45775272604078,226.94685553689487 105.83101089950651,221.96226196573116 107.91351479198784,199.9846379442606 101.04125194717199,194.99999999976717 94.16898910235614,200.2112122012768 91.87823482137173,221.5091166885104 99.16699844412506,227.39999999990687 105.83101089950651,222.41540717496537 108.12176518049091,200.890934871044 101.87425350397825,194.99999999976717 94.16898910235614,200.2112122012768 91.87823482137173,221.73568933596835 98.54224727675319,227.39999999990687 105.62276051007211,222.8685523159802 108.12176518049091,201.1175090605393 102.08250389341265,194.99999999976717 94.16898910235614,199.9846379442606 91.87823482137173,221.5091166885104 98.12574649788439,227.39999999990687 105.62276051007211,222.8685523159802 108.33001556992531,201.57065738830715 102.70725506171584,195.2265746302437 94.37723949272186,199.5314893790055 91.87823482137173,221.0559713449329 98.54224727675319,227.39999999990687 105.62276051007211,222.8685523159802 108.12176518049091,201.1175090605393 101.87425350397825,194.99999999976717 94.37723949272186,199.5314893790055 91.87823482137173,221.5091166885104 98.75049766618758,227.39999999990687 105.83101089950651,222.18883457873017 108.12176518049091,201.34408323303796 101.66600311454386,194.99999999976717 94.16898910235614,200.43778644152917 91.87823482137173,221.73568933596835 98.75049766618758,227.39999999990687 105.83101089950651,222.41540717496537 108.12176518049091,200.66436066525057 101.45775272604078,194.99999999976717 94.16898910235614,200.43778644152917 91.87823482137173,221.28254402498715 94.58548988122493,225.8139940816909 100.20825039036572,227.17342777713202 105.83101089950651,222.18883457873017 108.12176518049091,200.890934871044 101.04125194717199,194.99999999976717 94.16898910235614,200.43778644152917 91.87823482137173,221.0559713449329 98.12574649788439,227.39999999990687 105.62276051007211,222.8685523159802 108.33001556992531,202.02380564785562 102.49900467135012,195.2265746302437 94.58548988122493,199.3049150716979 91.87823482137173,221.0559713449329 96.66799377370626,226.94685553689487 105.62276051007211,222.8685523159802 108.33001556992531,201.57065738830715 102.9155054492876,195.2265746302437 95.0019906591624,198.39861767017283 91.66998443100601,220.37625320069492 94.37723949272186,225.8139940816909 100.00000000093132,227.39999999990687 104.99800934270024,224.00141487270594 108.33001556992531,202.93010196485557 104.16500778496265,195.67972383880988 96.25149299483746,196.8125965653453 92.711236378178,223.54826990095899 97.08449455164373,227.17342777713202 102.70725506171584,226.26713871466927 106.87226284574717,215.3916488159448" stroke="#4dd2ff" stroke-linecap="round" stroke-linejoin="round" stroke-width="0.5"><title>2024-03-30 4.8km</title><desc>1711782999000</desc></polyline><polyline fill="none" points="126.68114785570651,208.22453283029608 128.09923405013978,223.21226494782604 132.35349263902754,226.73877907218412 138.83617239259183,226.29796503763646 143.69818220566958,219.90615412266925 143.29301472194493,197.42450212943368 133.56899509299546,195.66122805094346 128.3018177933991,201.6122738351114 128.3018177933991,222.55104307970032 133.97416257672012,227.39999999990687 140.2542585870251,225.85715093649924 143.9007659489289,219.90615412266925 145.3188521442935,203.37554435175844 143.09043097868562,196.98368370882235 136.0,195.0 131.1379901850596,198.08572963625193 127.49148282315582,219.46533906576224 129.51732024736702,224.53470823913813 135.39224877394736,227.39999999990687 143.69818220566958,221.44900630274788 144.50851717591286,199.18777515226975 135.797416257672,195.4408187174704 128.70698527712375,201.83268270711415 128.70698527712375,224.31430106493644 136.40516748465598,227.17959304060787 142.280096010305,223.65307944384404 144.9136846596375,203.59595309197903 143.49559846427292,198.08572963625193 139.03875613305718,195.22040936746635 129.92248773109168,198.96736608212814 127.28889908175915,220.78778403857723 132.35349263902754,226.73877907218412 142.077512267977,223.21226494782604 144.9136846596375,203.37554435175844 140.65942607168108,196.32245595403947 129.92248773109168,196.32245595403947" stroke="#4dd2ff" stroke-linecap="round" stroke-linejoin="round" stroke-width="0.5"><title>2024-03-28 2.0km</title><desc>1711615120000</desc></polyline><polyline fill="none" points="163.81055497657508,208.77004738501273 161.76319371908903,209.17504771822132 163.81055497657508,210.79504844523035 161.57706996891648,209.78254810441285 163.81055497657508,210.3900483546313 164.36892622802407,223.147522109095 168.4636487402022,226.7925035674125 174.97798001021147,226.9950023931451 180.56169252563268,220.11003381130286 181.4923112783581,198.84752029180527 177.02534126583487,195.40500239352696 171.441628748551,195.40500239352696 164.92729747947305,202.69503511465155 163.6244312254712,221.12253028945997 170.69713374692947,227.39999999990687 179.63107377290726,222.1350263885688 181.30618752818555,200.8725287753623 178.51433127000928,196.0125058698468 174.04736125655472,195.0 165.6717924810946,200.6700279947836 164.36892622802407,219.50253574247472 166.97465873602778,224.56501548178494 171.6277524996549,226.38750587031245 178.70045502111316,222.1350263885688 180.56169252563268,202.49253447097726 174.04736125655472,196.21500699897297 166.60241123382002,200.8725287753623 165.2995449807495,220.92003102367744 172.0,226.38750587031245 179.25882627163082,220.92003102367744 180.37556877546012,200.26502638915554 173.6751137552783,195.81000472628511 166.60241123382002,201.4800310244318 165.1134212296456,220.3125331371557 170.88325749710202,226.38750587031245 179.07270252145827,220.92003102367744 180.37556877546012,201.68253174400888 172.93061875365674,195.40500239352696 166.7885349849239,200.8725287753623 164.74117372836918,220.3125331371557 171.25550499837846,226.38750587031245 179.4449500227347,220.92003102367744 180.9339400269091,201.68253174400888 174.41960875783116,195.81000472628511 166.97465873602778,200.6700279947836 164.92729747947305,220.11003381130286 166.2301637325436,224.3625164742116 170.88325749710202,225.98250811221078 179.25882627163082,221.52752877445891 180.9339400269091,202.8975357436575 174.6057325080037,196.62000921042636 166.7885349849239,200.46752719930373 164.92729747947305,220.92003102367744 171.6277524996549,226.18500699847937 179.25882627163082,221.12253028945997 180.74781627673656,200.8725287753623 173.86123750638217,196.21500699897297 166.7885349849239,201.4800310244318 164.92729747947305,220.51503244857304 171.6277524996549,226.38750587031245 177.58371251728386,225.5775102933403 180.37556877546012,221.7300279943738 182.42293003108352,202.29003381216899" stroke="#4dd2ff" stroke-linecap="round" stroke-linejoin="round" stroke-width="0.5"><title>2024-03-26 3.7km</title><desc>1711445960000</desc></polyline><polyline fill="none" points="19.26458935905248,260.64003251865506 26.411743520759046,268.19999999995343 34.94862210098654,263.2320235995576 36.536878580227494,241.41602604743093 32.16917326115072,235.80000000004657 21.84550614003092,239.47201826726086 19.066057300195098,259.99203438474797 20.852845839224756,264.9600163602736 27.007339700125158,267.98400120367296 34.55155797954649,263.6640218861867 36.9339426998049,242.4960298044607 32.96330149937421,236.01600120356306 22.441102320328355,240.33602188690566 19.860185540281236,252.86404531635344 22.24257025960833,264.9600163602736 27.404403819702566,267.3360047186725 32.16917326115072,265.39201438915916 36.33834651950747,243.7920337796677 32.96330149937421,237.5280091778841 27.20587175991386,236.8800058569759 23.235230560414493,240.12002100632526 20.654313779436052,259.12803664733656 25.02201909944415,266.6880080876872 33.16183356009424,264.096020109253 36.33834651950747,242.92803119379096 31.772109139710665,236.66400471818633 23.235230560414493,240.33602188690566 20.654313779436052,259.5600355484057 25.220551160164177,266.6880080876872 32.96330149937421,264.096020109253 34.94862210098654,239.04001636011526 28.198532059788704,236.23200239124708 22.639634379185736,241.8480275988113 20.852845839224756,262.1520275983494 24.426422919146717,266.25601025274955 29.985320599749684,266.4720091780182" stroke="#4dd2ff" stroke-linecap="round" stroke-linejoin="round" stroke-width="0.5"><title>2024-03-25 2.1km</title><desc>1711359274000</desc></polyline><polyline fill="none" points="68.1042667068541,265.0846318146214 71.92218922358006,243.90003544813953 67.53157832846045,237.25385425635614 57.60497978422791,241.6154124578461 55.50512239988893,259.2692685164511 61.23200617637485,266.9538531457074 69.63143571279943,263.63079213211313 71.92218922358006,243.90003544813953 66.3862015735358,237.46154765947722 57.60497978422791,241.8231055350043 55.50512239988893,260.51541882008314 61.61379842739552,266.9538531457074 69.82233183924109,263.00771774933673 71.92218922358006,243.06926366896369 66.19530544802547,237.46154765947722 57.60497978422791,241.6154124578461 55.69601852633059,260.723110483028 57.41408365871757,265.0846318146214 62.75917518232018,267.1615443266928 70.01322796475142,262.17695168801583 71.92218922358006,244.31542124412954 66.95888995099813,237.46154765947722 57.60497978422791,240.78463999531232 55.69601852633059,260.723110483028 61.61379842739552,267.3692354927771 69.44053958822042,263.42310068709776 71.92218922358006,243.90003544813953 66.57709769997746,237.04616083810106 57.79587590973824,240.5769468410872 55.50512239988893,261.13849376211874 57.41408365871757,265.2923231362365 63.14096743427217,267.57692664302886 70.20412409026176,261.9692601347342 71.73129309806973,242.86157068540342 65.81351319607347,237.04616083810106 60.46842167247087,238.08462777547538 57.223187532275915,242.23849164135754 55.886914651840925,262.17695168801583 63.33186356071383,267.1615443266928 70.39502021670341,261.3461853787303 71.73129309806973,243.06926366896369 66.19530544802547,237.04616083810106 57.41408365871757,242.23849164135754 55.69601852633059,261.5538769790437 62.37738293129951,266.9538531457074 69.63143571279943,263.00771774933673 71.73129309806973,242.86157068540342 65.04992869310081,237.04616083810106 57.223187532275915,242.03079859609716 55.886914651840925,261.76156856445596 62.37738293129951,267.3692354927771 70.01322796475142,263.00771774933673 71.92218922358006,243.06926366896369 68.67695508431643,237.66924104723148 57.9867720361799,240.5769468410872 55.69601852633059,259.4769602722954 60.27752554602921,266.9538531457074 69.44053958822042,263.8384835617617 71.92218922358006,243.48464958975092 66.00440932251513,237.25385425635614 57.60497978422791,241.20002625789493 55.69601852633059,260.93080212990753 61.041110049933195,266.7461619488895 69.24964346177876,264.4615577580407 72.11308535002172,244.10772835393436 68.29516283329576,237.66924104723148 62.37738293129951,237.04616083810106 57.79587590973824,241.20002625789493 54.359745644032955,259.2692685164511 55.886914651840925,264.87694047857076 61.23200617637485,268.19999999995343 66.19530544802547,267.99230889673345 70.77681246865541,263.63079213211313 73.64025435689837,244.52311411872506 68.4860589588061,236.2153870081529 62.18648680485785,235.80000000004657 56.65049915481359,240.3692536712624 54.359745644032955,260.3077271413058 60.27752554602921,267.57692664302886 70.20412409026176,265.91539700631984" stroke="#4dd2ff" stroke-linecap="round" stroke-linejoin="round" stroke-width="0.5"><title>2024-03-24 4.9km</title><desc>1711273464000</desc></polyline><polyline fill="none" points="90.86509233899415,259.25525420345366 92.50937571749091,265.01964938873425 97.07682954892516,268.0012281984091 102.3750759921968,267.0073689671699 106.75983166974038,262.63438393198885 108.58681320212781,241.76321984967217 107.12522797565907,238.18528954591602 101.64428337942809,236.39632258727215 95.61524432245642,237.7877414370887 92.32667756453156,241.9619936144445 91.23048864584416,261.83929497073404 94.70175355672836,266.4110532498453 100.91349076665938,267.80245638173074 107.49062428250909,260.44788871565834 107.67332243546844,239.1791595579125 101.09618891961873,236.39632258727215 94.33635725080967,238.5828375958372 91.59588495176286,243.35340954945423 90.49969603214413,260.84543343423866 96.34603693615645,268.19999999995343 102.74047229904681,267.0073689671699 106.57713351584971,262.83315613493323 109.68300212081522,244.54605119908229 107.30792612954974,238.18528954591602 102.19237783830613,236.19754840643145 94.51905540376902,238.5828375958372 91.77858310565352,242.9558622133918 91.59588495176286,264.4233332253061 96.89413139596581,268.19999999995343 102.19237783830613,267.80245638173074 107.67332243546844,260.44788871565834 107.67332243546844,239.1791595579125 98.9038110813126,235.80000000004657 91.96128125768155,242.7570885233581 90.6823941860348,261.6405226928182 94.153659096919,266.8085970757529 100.00000000093132,267.60368455015123 107.49062428250909,260.6466610827483 108.2214168952778,240.1730291985441 105.29824644420296,236.7938709044829 99.08650923427194,236.19754840643145 91.77858310565352,243.15463588875718 91.04779049195349,263.23070049704984 100.91349076665938,267.4049127041362 107.30792612954974,260.6466610827483 107.30792612954974,239.1791595579125 100.36539630685002,235.99877421092242 92.32667756453156,240.57057695067488 90.31699787918478,262.03806723305024 93.97096094302833,266.6098251703661 100.91349076665938,267.80245638173074 107.30792612954974,261.0442057712935 106.94252982269973,237.98651549918577 99.81730184704065,235.99877421092242 94.70175355672836,238.5828375958372 90.6823941860348,253.49084651237354 93.05747017730027,265.6159654180519 104.38475567754358,266.21228131395765 108.76951135508716,243.9497304414399 104.7501519843936,236.99264504062012 94.51905540376902,238.5828375958372 90.6823941860348,258.2613917000126 91.96128125768155,265.01964938873425 96.71143324207515,267.4049127041362 105.846340903081,264.02578904200345 108.95220950804651,244.34727762825787 106.39443536289036,237.98651549918577 94.33635725080967,237.98651549918577 91.23048864584416,249.3166124469135 92.50937571749091,265.01964938873425 97.99032031558454,267.80245638173074 104.56745383050293,265.8147373984102 107.49062428250909,261.2429780939128 108.95220950804651,244.54605119908229 106.21173720993102,237.98651549918577 97.25952770188451,236.59509675344452 91.77858310565352,243.15463588875718 90.86509233899415,262.83315613493323 95.98064062930644,267.4049127041362 102.19237783830613,266.6098251703661 106.39443536289036,256.07489288575016 105.48094459623098,239.1791595579125 99.81730184704065,237.39019326888956 93.97096094302833,240.1730291985441 90.49969603214413,252.69575481512584" stroke="#4dd2ff" stroke-linecap="round" stroke-linejoin="round" stroke-width="0.5"><title>2024-03-22 5.0km</title><desc>1711100044000</desc></polyline><polyline fill="none" points="126.13543531671166,247.95004544593394 129.48566483240575,265.16251647425815 135.069380691275,267.9975012044888 140.65309654921293,266.37751029315405 144.37557378783822,262.12502953922376 145.67844082135707,252.81004835409112 143.25883061625063,239.04001745092683 135.62775227613747,236.40750356740318 130.2301602801308,243.29253447055817 129.48566483240575,262.7325271987356 133.9526375187561,267.3900047263596 139.35022951476276,267.3900047263596 143.81720220204443,261.11253313720226 143.63107834011316,241.67252877471037 137.48899089638144,237.21750811184756 130.41628414206207,243.29253447055817 129.48566483240575,262.12502953922376 132.8358943471685,266.5800092101563 137.86123861931264,267.5925035676919 143.25883061625063,260.3025357427541 144.0033260639757,241.06502638873644 138.79185792896897,236.6100047265645 130.41628414206207,241.47002799483016 128.74116938374937,260.9100338113494 136.37224772479385,266.98500699875876 141.21146813500673,265.97251241421327 144.56169764976948,260.3025357427541 144.74782151170075,239.64752029138617 142.51433516759425,236.6100047265645 135.44162841513753,235.79999999981374 129.11341710854322,241.87502953992225 127.99667393695563,261.9225302892737 136.37224772479385,268.19999999995343 144.0033260639757,260.70753447012976 145.86456468328834,242.88753313780762 143.07270675431937,236.00250120437704 131.53302731364965,237.6225102932658 127.06605462729931,258.0750416580122" stroke="#4dd2ff" stroke-linecap="round" stroke-linejoin="round" stroke-width="0.5"><title>2024-03-21 2.2km</title><desc>1711013104000</desc></polyline></svg>