<?xml version="1.0" encoding="utf-8" ?>
<svg baseProfile="full" height="300mm" version="1.1" viewBox="0,0,200,300" width="200mm" xmlns="http://www.w3.org/2000/svg" xmlns:ev="http://www.w3.org/2001/xml-events" xmlns:xlink="http://www.w3.org/1999/xlink"><defs /><rect fill="#222222" height="300" width="200" x="0" y="0" /><text fill="#FFFFFF" style="font-size:12px; font-family:Arial; font-weight:bold;" x="10" y="20">Over 2km Runs</text><text fill="#FFFFFF" style="font-size:4px; font-family:Arial" x="10" y="280">ATHLETE</text><text fill="#FFFFFF" style="font-size:9px; font-family:Arial" x="10" y="290">作怪</text><text fill="#FFFFFF" style="font-size:4px; font-family:Arial" x="120" y="280">STATISTICS</text><text fill="#FFFFFF" style="font-size:3px; font-family:Arial" x="120" y="285">Number: 15</text><text fill="#FFFFFF" style="font-size:3px; font-family:Arial" x="120" y="290">Weekly: 3.8</text><text fill="#FFFFFF" style="font-size:3px; font-family:Arial" x="141" y="285">Total: 72.9 km</text><text fill="#FFFFFF" style="font-size:3px; font-family:Arial" x="141" y="290">Avg: 4.9 km</text><text fill="#FFFFFF" style="font-size:3px; font-family:Arial" x="167" y="285">Min: 2.0 km</text><text fill="#FFFFFF" style="font-size:3px; font-family:Arial" x="167" y="290">Max: 11.8 km</text><polyline fill="none" points="21.169694404117763,61.4939297856763 27.382263428531587,73.83674399298616 38.99706639163196,74.42449608328752 44.93952372018248,64.72657535062172 45.20963541697711,37.102063856553286 33.594832454808056,33.28163740201853 25.761593248695135,40.92248659464531 23.600699674338102,67.37146519729868 28.19259852077812,73.2489918153733 35.48561433237046,74.71837209560908 44.39930032659322,66.783712051576 46.290082204155624,39.74697230174206 34.405167546123266,32.69387915544212 25.491481551900506,41.510243609780446 23.600699674338102,67.66534173698165 33.32472075894475,74.42449608328752 44.12918862979859,68.25309474999085 47.10041729453951,42.68575737532228 37.64650790579617,32.69387915544212 26.571928339079022,38.571457656566054 24.14092306792736,67.07758863526396 33.594832454808056,75.01224808534607 43.85907693207264,69.13472410547547 46.56019390095025,41.80412208405323 36.29594942275435,32.98775828955695 26.301816642284393,39.74697230174206 23.330587977543473,66.48983544600196 31.974162274971604,75.60000000009313 44.12918862979859,68.54697122448124 47.10041729453951,42.97963576181792 38.72695469390601,33.28163740201853 26.571928339079022,39.45309367356822 23.87081137020141,65.90208216849715 32.51438566856086,74.42449608328752 43.85907693207264,69.42860051384196 46.83030559681356,41.80412208405323 36.5660611204803,32.69387915544212 26.571928339079022,39.159215023741126 23.87081137020141,66.19595881784335 30.35349209420383,74.42449608328752 39.5372897842899,73.83674399298616 44.39930032659322,68.8408476759214 46.56019390095025,41.21636511362158 36.5660611204803,32.69387915544212 26.571928339079022,38.8653363508638 24.14092306792736,67.66534173698165 33.32472075894475,75.60000000009313 44.93952372018248,67.66534173698165 46.56019390095025,39.74697230174206 36.02583772595972,32.69387915544212 25.761593248695135,40.33472949243151 23.330587977543473,67.07758863526396 33.594832454808056,75.01224808534607 44.39930032659322,67.37146519729868 46.83030559681356,41.21636511362158 36.02583772595972,32.4000000001397 26.301816642284393,38.8653363508638 23.87081137020141,65.02045208751224 30.35349209420383,74.42449608328752 44.39930032659322,68.54697122448124 46.56019390095025,39.74697230174206 37.91661960352212,32.69387915544212 26.301816642284393,38.8653363508638 24.14092306792736,67.07758863526396 31.433938881382346,74.71837209560908 43.85907693207264,69.13472410547547 46.83030559681356,42.97963576181792 37.91661960352212,32.4000000001397 26.301816642284393,38.571457656566054 23.87081137020141,66.19595881784335 32.51438566856086,74.71837209560908 43.85907693207264,69.13472410547547 47.10041729453951,40.92248659464531 40.347624874673784,33.57551649142988 30.893715486861765,33.57551649142988 22.520252887159586,51.50209940481 22.250141190364957,66.19595881784335 20.89958270639181,60.31842164811678" stroke="#4dd2ff" stroke-linecap="round" stroke-linejoin="round" stroke-width="0.5"><title>2024-04-13 4.9km</title><desc>1713000859000</desc></polyline><polyline fill="none" points="87.4810989331454,50.56057136785239 89.50435567088425,70.37200150755234 95.57412588596344,74.22421164321713 104.9316882994026,73.67389615648426 108.97820177488029,63.49304480222054 109.73692305199802,39.00385450851172 98.60901099257171,34.05096473917365 90.26307694707066,42.8560974963475 88.74563439376652,66.51978733739816 93.55086914822459,72.02294920291752 100.88517482299358,72.84842277271673 108.4723875913769,66.24462902825326 109.98983014468104,39.00385450851172 98.8619180843234,34.05096473917365 90.26307694707066,44.23189758579247 89.25144857820123,66.51978733739816 99.11482517700642,73.39873838284984 108.21948049776256,67.07010389468633 110.74855142179877,41.755457054357976 101.6438961001113,33.775804000208154 91.5276124086231,40.10449577332474 89.50435567088425,65.96947069768794 98.35610390082002,73.12358058756217 108.21948049776256,66.51978733739816 110.74855142179877,41.480296892579645 101.896803191863,33.50064324145205 91.5276124086231,40.65481628337875 89.50435567088425,66.51978733739816 98.8619180843234,73.39873838284984 108.21948049776256,67.34526214236394 110.74855142179877,40.65481628337875 100.37936063855886,33.50064324145205 91.2747053168714,41.205136709613726 90.01016985531896,68.17073676176369 102.14971028454602,73.12358058756217 108.97820177488029,64.86883717216551 109.48401596024632,35.70192873594351 96.58575425483286,32.95032166177407 89.50435567088425,42.305777315981686 87.98691311758012,68.17073676176369 94.30959042347968,74.49936935584992 100.88517482299358,75.04968471918255 110.49564432911575,66.79494562628679 111.00145851261914,37.077731501543894 99.11482517700642,32.4000000001397 89.25144857820123,40.65481628337875 87.4810989331454,68.17073676176369 92.28633368574083,74.77452704776078 100.63226773124188,75.32484237011522 110.74855142179877,65.69431234733202 111.76017979066819,38.7286941409111 97.8502897163853,33.225482462206855 88.49272730294615,42.03061719541438 87.4810989331454,67.89557857532054 97.3444755319506,75.60000000009313 109.48401596024632,68.72105307108723 113.02471525128931,42.58093741675839 106.95494503714144,33.225482462206855 94.30959042347968,34.3261254564859 88.49272730294615,43.40641759405844 89.50435567088425,68.44589492678642 101.39098900835961,73.94905391032808 108.7252946831286,66.79494562628679 111.00145851261914,42.03061719541438 106.44913085363805,35.15160748618655 99.87354645412415,33.225482462206855 90.515984040685,41.205136709613726 89.75726276356727,66.24462902825326 98.60901099257171,73.12358058756217 108.7252946831286,66.79494562628679 110.74855142179877,41.480296892579645 101.6438961001113,33.50064324145205 91.02179822418839,41.205136709613726 89.75726276356727,66.51978733739816 97.3444755319506,73.67389615648426 105.4375024838373,72.02294920291752 109.23110886756331,66.51978733739816 111.25436560530216,41.480296892579645 102.14971028454602,33.50064324145205 89.50435567088425,41.755457054357976 86.97528474871069,64.04336181166582" stroke="#4dd2ff" stroke-linecap="round" stroke-linejoin="round" stroke-width="0.5"><title>2024-04-12 5.1km</title><desc>1712913892000</desc></polyline><polyline fill="none" points="144.80000000074506,42.685074605979025 144.39999999990687,48.77779287751764 146.9600000004284,51.65006328281015 150.9600000004284,49.82225566345733 152.00000000046566,41.814683676930144 151.28000000026077,39.98686060658656 149.0400000005029,38.94238899135962 145.76000000024214,40.770213702577166 144.8800000003539,48.864831478567794 146.9600000004284,51.38894808443729 151.04000000003725,49.64817859744653 151.9199999999255,41.814683676930144 149.43999999994412,39.029428328503855 145.92000000039116,40.59613528242335 144.9600000004284,48.77779287751764 147.6000000005588,51.56302488979418 150.8800000003539,50.083371213288046 152.00000000046566,42.16284012666438 149.43999999994412,38.94238899135962 145.92000000039116,40.59613528242335 144.9600000004284,48.69075426959898 146.8800000003539,51.38894808443729 150.8800000003539,50.083371213288046 151.84000000031665,41.64060541300569 149.28000000026077,39.11646765912883 145.92000000039116,40.50909606239293 144.9600000004284,48.342599773430265 146.64000000013039,51.214871252770536 149.0400000005029,51.38894808443729 151.04000000003725,49.82225566345733 151.9199999999255,42.249879222828895 151.12000000057742,39.89982134103775 146.9600000004284,39.290546300588176 145.5200000004843,41.46652712312061 144.39999999990687,49.90929418662563 152.8800000003539,53.04267668456305 155.60000000009313,52.17229350365233 158.9600000004284,48.864831478567794 163.84000000031665,50.431525188847445 164.95999999996275,52.69452349038329 164.7200000002049,58.961265047313645 169.28000000026077,65.05389809201006 177.12000000011176,67.92612831993029 185.20000000018626,69.05761100864038 187.60000000009313,67.49094237736426 187.35999999986961,52.86860010039527 186.32000000029802,53.30379151168745 186.0,56.17605074425228" stroke="#4dd2ff" stroke-linecap="round" stroke-linejoin="round" stroke-width="0.5"><title>2024-04-11 3.0km</title><desc>1712828151000</desc></polyline><polyline fill="none" points="23.625103069469333,89.59746132558212 22.600421889685094,114.96004007291049 26.442976309917867,121.37033484014682 33.61574455816299,123.32129192864522 45.399578110314906,115.79616610263474 47.192770171910524,88.48261873843148 36.43361779861152,80.4000000001397 25.930635719560087,85.69551080930978 22.856592184863985,114.40262261615135 30.797871317714453,122.76387572218664 40.02000192273408,121.64904305851087 44.88723752088845,116.63229194516316 47.448940467089415,90.43359304778278 38.99532074574381,81.23613378615119 31.05404161196202,81.79355620639399 25.67446542531252,87.36777581693605 22.08808130118996,114.1239138552919 32.591063380241394,123.60000000009313 44.88723752088845,117.7471261091996 48.21745135076344,94.33553860220127 47.192770171910524,86.25293256225996 42.32553457468748,82.07226738450117 32.591063380241394,80.6787112832535 26.699146603234112,83.74453401868232 19.78254864923656,94.33553860220127 22.856592184863985,114.68133135442622 27.979998076334596,122.2064594316762 37.71446927078068,123.04258383531123 44.63106722664088,117.18970906944014 46.93659987766296,92.38456633570604 40.53234251216054,81.23613378615119 32.84723367448896,80.4000000001397 25.930635719560087,84.58066705428064 22.856592184863985,114.40262261615135 29.773190138861537,122.76387572218664 38.99532074574381,122.4851675874088 45.65574840456247,114.68133135442622 47.96128105651587,91.54843505169265 44.1187266362831,84.3019560626708 36.68978809379041,80.6787112832535 25.67446542531252,85.4167999017518 22.600421889685094,113.84520507417619 30.029360434040427,122.4851675874088 38.99532074574381,122.2064594316762 45.91191869881004,114.96004007291049 47.70511076133698,91.54843505169265 40.78851280640811,81.23613378615119 27.723827782087028,82.35097854258493 23.881273362785578,89.87617192044854 23.625103069469333,117.46841759979725 36.177447504363954,123.04258383531123 44.88723752088845,114.96004007291049 45.91191869881004,89.87617192044854 42.32553457468748,83.46582296560518 35.15276632551104,81.79355620639399 25.930635719560087,89.04004007345065 23.881273362785578,114.1239138552919 34.38425544183701,122.4851675874088 44.37489693053067,115.79616610263474 46.16808899398893,91.8271455001086 43.60638604685664,85.13808897300623 36.68978809379041,81.79355620639399 25.930635719560087,88.76132941595279 22.600421889685094,114.40262261615135 32.591063380241394,123.60000000009313 39.507661334238946,123.04258383531123 42.58170486986637,117.7471261091996 45.91191869881004,91.26972458208911 37.71446927078068,82.35097854258493 31.310211906209588,82.9084007954225 26.186806013807654,89.04004007345065 23.881273362785578,113.28778745047748 32.84723367448896,121.92775125568733 43.60638604685664,117.18970906944014 45.91191869881004,89.87617192044854 37.20212868228555,82.07226738450117 26.442976309917867,89.04004007345065 24.137443657964468,113.84520507417619 32.591063380241394,122.2064594316762 43.86255634203553,115.23874877137132 45.91191869881004,89.87617192044854 36.177447504363954,82.35097854258493 25.930635719560087,89.3187507102266 23.881273362785578,114.1239138552919 34.6404257370159,122.4851675874088 43.60638604685664,116.35358335194178 45.65574840456247,89.04004007345065 36.94595838803798,82.35097854258493 26.186806013807654,87.64648657827638 23.112762479111552,113.84520507417619 31.56638220138848,122.2064594316762 43.60638604685664,117.18970906944014 46.93659987766296,91.26972458208911 37.20212868228555,82.35097854258493 30.541701022535563,83.46582296560518 23.881273362785578,90.99101409176365 21.83191100601107,113.28778745047748" stroke="#4dd2ff" stroke-linecap="round" stroke-linejoin="round" stroke-width="0.5"><title>2024-04-09 5.6km</title><desc>1712653834000</desc></polyline><polyline fill="none" points="88.6374737219885,88.27928359643556 88.13802201673388,113.81891292380169 92.38336150627583,121.42642737086862 98.3767819609493,122.513213847531 105.36910582520068,121.15473070018925 110.36362287122756,114.63400451955386 112.6111555416137,87.73588527622633 108.36581605300307,82.03019800898619 100.62431463226676,80.4000000001397 90.38555468712002,88.5509827255737 88.6374737219885,114.90570167754777 99.8751370748505,123.05660696444102 110.36362287122756,114.63400451955386 112.1117038372904,89.09438092424534 106.11828338168561,81.75849839183502 100.8740404844284,81.21509909583256 90.38555468712002,89.09438092424534 87.6385703124106,113.27551842504181 92.38336150627583,120.88303401018493 99.62541122175753,123.05660696444102 110.61334872338921,114.3623073415365 112.86088139377534,90.18117707595229 103.37129900697619,80.67169971903786 93.88171661924571,82.5735971829854 89.63637712970376,88.00758444634266 88.13802201673388,115.4490959327668 98.8762336652726,122.78491041623056 110.11389701906592,115.4490959327668 112.6111555416137,88.00758444634266 109.11499360948801,82.8452967389021 101.3734921887517,80.67169971903786 89.88610298279673,88.5509827255737 88.13802201673388,115.99249010556377 98.8762336652726,123.60000000009313 109.86417116690427,115.99249010556377 112.6111555416137,87.46418608631939 101.12376633565873,80.94339941814542 90.38555468712002,87.19248687569052 87.38884445931762,114.90570167754777 95.87952343840152,123.60000000009313 102.62212144955993,122.78491041623056 109.36471946164966,115.99249010556377 112.36142968945205,88.00758444634266 109.11499360948801,82.8452967389021 100.62431463226676,80.67169971903786 89.63637712970376,88.82268183492124 87.88829616550356,115.99249010556377 92.13363565411419,121.69812401989475 98.8762336652726,123.32830349262804 109.86417116690427,116.26418716250919 112.86088139377534,88.82268183492124 109.6144453138113,83.11699627432972 101.12376633565873,80.94339941814542 89.88610298279673,87.19248687569052 87.1391186080873,113.27551842504181 95.3800717331469,122.78491041623056 103.12157315388322,122.78491041623056 109.36471946164966,117.35097518446855 113.11060724593699,93.98496104683727 108.1160901999101,81.75849839183502 93.13253906182945,82.8452967389021 89.13692542631179,89.63777904049493 88.38774786889553,116.80758121353574 94.13144247233868,122.513213847531 101.12376633565873,123.05660696444102 110.86307457461953,113.5472156854812 112.6111555416137,89.63777904049493 108.61554190516472,83.11699627432972 98.8762336652726,80.67169971903786 89.63637712970376,88.00758444634266 87.38884445931762,114.90570167754777 98.62650781311095,123.60000000009313 110.11389701906592,115.99249010556377 112.6111555416137,88.5509827255737 109.86417116690427,83.66039528604597 101.3734921887517,80.4000000001397 93.88171661924571,83.11699627432972 89.13692542631179,90.18117707595229 89.38665127847344,114.63400451955386 99.12595951836556,121.42642737086862 108.61554190516472,115.17739881528541 110.36362287122756,88.82268183492124 102.12266974616796,82.03019800898619 88.88719957321882,90.99627397651784 86.88939275499433,111.6453344412148" stroke="#4dd2ff" stroke-linecap="round" stroke-linejoin="round" stroke-width="0.5"><title>2024-04-08 5.0km</title><desc>1712568268000</desc></polyline><polyline fill="none" points="153.6983188278973,96.3019017544575 156.37789294403046,116.70923776412383 162.95502941310406,120.41964986454695 170.99375176150352,118.29941485449672 176.35289999470115,111.40864230901934 175.6221070550382,84.11045012692921 164.41661529429257,80.4000000001397 155.40350235626101,89.9411496182438 154.91630706191063,116.4442081800662 161.00624823663384,121.21473766560666 171.4809470558539,119.88959123124368 175.86570470128208,112.20373213314451 176.1093023493886,84.37548213056289 162.46783411875367,81.4601290046703 154.91630706191063,93.12152711348608 154.67270941566676,115.6491193077527 161.7370411772281,120.94970841845497 170.99375176150352,119.88959123124368 176.35289999470115,112.20373213314451 175.86570470128208,83.84541810397059 162.95502941310406,81.4601290046703 155.64710000250489,89.14605479803868 153.9419164750725,114.32397079118527 164.66021294053644,122.00982528901659 175.6221070550382,113.79391124541871 177.32729058340192,88.88102315203287 173.18613058514893,82.255225549452 166.60899411700666,80.93006454245187 159.78826000075787,82.7852898137644 156.13429529685527,88.61599148530513 154.67270941566676,115.11905996012501 159.05746706016362,120.41964986454695 168.55777529254556,120.94970841845497 175.86570470128208,113.79391124541871 176.59649764187634,86.23070559790358 168.31417764537036,80.66503228084184 156.37789294403046,87.82089636777528 154.18551412131637,113.79391124541871 158.32667412050068,119.88959123124368 164.41661529429257,121.21473766560666 175.37850940786302,115.38408964429982 177.8144858777523,89.9411496182438 174.40411881916225,83.58038606145419 166.12179882265627,81.4601290046703 158.57027176674455,85.17057802132331 155.15990470908582,91.7963701710105 154.67270941566676,117.76935590407811 158.57027176674455,122.00982528901659 167.09618941135705,122.27485445723869 175.37850940786302,113.52888144319877 177.8144858777523,88.35095979925245 166.85259176325053,81.19509678310715 156.37789294403046,88.085928093642 153.4547211797908,114.85403025709093 161.9806388244033,123.33497093105689 175.37850940786302,114.05894102808088 177.5708882296458,88.88102315203287 172.94253293704242,81.99019338772632 166.60899411700666,80.93006454245187 155.8906976506114,88.61599148530513 154.42911176849157,114.85403025709093 165.6346035292372,121.47976689320058 175.37850940786302,112.99882177845575 177.32729058340192,87.02580107259564 166.85259176325053,81.4601290046703 155.8906976506114,89.14605479803868 154.18551412131637,113.79391124541871 159.05746706016362,119.88959123124368 166.36539646983147,121.47976689320058 175.6221070550382,112.99882177845575 177.32729058340192,87.02580107259564 172.94253293704242,82.255225549452 163.6858223536983,81.4601290046703 154.91630706191063,92.59146439633332 154.18551412131637,117.50432639848441 158.32667412050068,122.27485445723869 168.31417764537036,121.74479610100389 175.86570470128208,112.20373213314451 176.1093023493886,84.90554607729428 165.14740823581815,80.4000000001397 155.64710000250489,89.14605479803868 154.18551412131637,114.05894102808088 161.2498458828777,120.94970841845497 168.31417764537036,120.68467915104702 176.1093023493886,111.93870221241377 177.32729058340192,87.55586462235078 173.18613058514893,82.255225549452 164.90381058864295,81.19509678310715 155.40350235626101,89.9411496182438 155.15990470908582,115.91414895141497 161.9806388244033,122.00982528901659 170.99375176150352,120.68467915104702 176.84009528998286,105.31294773286209 174.40411881916225,85.17057802132331 160.51905294228345,83.3153539984487 153.9419164750725,98.15711897634901 154.91630706191063,119.35953251784667 160.51905294228345,123.0699418426957 169.7757635274902,121.21473766560666 176.1093023493886,111.67367227049544 178.05808352399617,90.73624425986782 175.6221070550382,84.11045012692921 167.09618941135705,81.4601290046703 159.78826000075787,83.58038606145419 153.9419164750725,97.89208800438792 154.91630706191063,119.35953251784667 160.27545529510826,122.80491273361258 170.0193611746654,120.94970841845497 176.1093023493886,111.67367227049544 175.86570470128208,84.90554607729428 163.19862705934793,81.19509678310715 155.15990470908582,92.06140159908682 155.64710000250489,116.70923776412383 163.19862705934793,122.80491273361258 171.7245447030291,122.27485445723869 176.35289999470115,115.91414895141497 176.59649764187634,85.96567373303697 162.22423647157848,81.19509678310715 154.67270941566676,91.26630725478753 153.4547211797908,116.1791785757523 157.35228353273124,122.00982528901659 165.87820117548108,123.33497093105689 176.1093023493886,113.2638516202569 177.08369293622673,86.76076926710084 163.44222470652312,81.4601290046703 154.42911176849157,92.3264330078382 153.6983188278973,117.76935590407811 158.32667412050068,122.53988360543735 166.12179882265627,123.0699418426957 173.4297282313928,119.35953251784667 176.84009528998286,112.46876203478314 177.8144858777523,86.76076926710084 164.41661529429257,80.93006454245187 154.67270941566676,90.20618118508719 153.6983188278973,116.70923776412383 158.0830764733255,121.74479610100389 167.09618941135705,123.60000000009313 175.86570470128208,116.4442081800662 177.8144858777523,87.82089636777528 174.40411881916225,83.0503219156526 165.14740823581815,80.93006454245187 155.40350235626101,88.61599148530513 152.72392824012786,114.32397079118527 155.8906976506114,120.15462055732496 162.95502941310406,123.0699418426957 175.37850940786302,116.4442081800662 178.05808352399617,89.9411496182438 167.33978705760092,80.93006454245187 156.37789294403046,87.82089636777528 153.6983188278973,113.79391124541871 165.3910058811307,123.0699418426957 176.35289999470115,116.70923776412383 178.78887646552175,91.26630725478753 174.16052117291838,83.84541810397059 167.33978705760092,81.4601290046703 155.8906976506114,88.61599148530513 153.4547211797908,114.58900053426623 157.10868588462472,120.41964986454695 165.3910058811307,123.0699418426957 176.59649764187634,115.11905996012501 178.30168117117137,91.26630725478753 175.13491176068783,84.90554607729428 166.85259176325053,80.93006454245187 155.64710000250489,88.88102315203287 153.9419164750725,115.38408964429982 157.8394788261503,120.68467915104702 165.3910058811307,122.80491273361258 175.6221070550382,116.1791785757523 177.8144858777523,90.20618118508719 166.60899411700666,81.4601290046703 155.64710000250489,89.9411496182438 153.6983188278973,115.6491193077527 165.87820117548108,122.27485445723869 176.1093023493886,114.58900053426623 178.30168117117137,89.41108642448671 165.87820117548108,81.19509678310715 155.40350235626101,89.9411496182438 153.9419164750725,114.58900053426623 165.6346035292372,122.27485445723869 175.86570470128208,115.11905996012501 177.5708882296458,89.14605479803868 172.45533764362335,82.52025769208558 165.3910058811307,81.4601290046703 155.8906976506114,90.47121273190714 153.4547211797908,114.85403025709093 164.17301764711738,123.0699418426957 175.86570470128208,117.2392968737986 179.27607175894082,91.53133872314356 174.89131411351264,83.3153539984487 161.00624823663384,82.52025769208558 155.40350235626101,90.73624425986782 153.9419164750725,111.40864230901934" stroke="#4dd2ff" stroke-linecap="round" stroke-linejoin="round" stroke-width="0.5"><title>2024-04-06 11.8km</title><desc>1712394949000</desc></polyline><polyline fill="none" points="23.686648547649384,166.27015678375028 33.22649864014238,171.60000000009313 42.25068116094917,164.02601000503637 45.34468659758568,139.6208270676434 42.25068116094917,131.48573079076596 32.71083106845617,129.24156319489703 26.52282019611448,133.44937633606605 22.913147188723087,158.69615602353588 29.616825631819665,169.35585641185753 42.25068116094917,164.8675652043894 45.60252038296312,138.21822552080266 40.70367844309658,131.2052099145949 32.19516349490732,130.36364716105163 26.264986409805715,134.85197966662236 23.170980975031853,160.94030599179678 29.874659419059753,169.6363744335249 41.477179802022874,165.98963850946166 44.8290190231055,138.77926620212384 39.156675725243986,130.64416810055263 30.905994564294815,130.64416810055263 26.007152624428272,135.69354141363874 23.170980975031853,160.0987499107141 28.585490487515926,169.0753383685369 41.73501358833164,165.70912021491677 45.08685281034559,138.77926620212384 37.60967300739139,130.08312620106153 25.749318838119507,135.1325002699159 22.397479616105556,162.62341758725233 31.937329709529877,170.19741041515954 42.508514947257936,163.74549156310968 45.34468659758568,139.05978651111946 41.99284737370908,132.32729329308495 35.54700271692127,129.52208421821706 24.975817478261888,135.97406195336953 22.397479616105556,160.65978731913492 30.905994564294815,169.91689243493602 42.7663487335667,163.4649731006939 45.08685281034559,138.49874587194063 35.28916893154383,129.52208421821706 25.491485052742064,135.69354141363874 23.170980975031853,161.50134327355772 31.937329709529877,170.19741041515954 42.7663487335667,163.4649731006939 44.8290190231055,136.81562344823033 34.51566757261753,129.8026052203495 25.491485052742064,135.97406195336953 23.428814761340618,162.34289903962053 33.48433242738247,169.91689243493602 43.28201630618423,162.90393611206673 45.34468659758568,137.65718475473113 36.0626702895388,129.8026052203495 24.975817478261888,136.81562344823033 23.170980975031853,162.34289903962053 32.452997281216085,170.19741041515954 43.02418251987547,163.74549156310968 45.34468659758568,137.93770514801145 35.03133514523506,129.8026052203495 24.975817478261888,136.81562344823033 22.913147188723087,162.34289903962053 33.48433242738247,170.19741041515954 42.7663487335667,163.74549156310968 45.08685281034559,137.93770514801145 36.320504075847566,129.52208421821706 25.233651265501976,135.69354141363874 23.170980975031853,161.22082464280538 31.421662136912346,169.91689243493602 38.89884193893522,168.51430221949704 43.02418251987547,163.4649731006939 45.34468659758568,137.09614390484057 36.0626702895388,129.52208421821706 25.749318838119507,135.41302085248753 22.913147188723087,161.22082464280538 30.64816077798605,169.91689243493602 42.508514947257936,164.58704682579264 45.08685281034559,138.21822552080266 36.8361716484651,128.96104215155356 26.007152624428272,134.85197966662236 22.913147188723087,161.50134327355772 31.67949592228979,169.91689243493602 39.67234329786152,168.23378411354497 43.539850092493,162.62341758725233 44.57118523772806,136.53510297113098 34.257833786308765,129.24156319489703 24.975817478261888,136.25458247261122 23.170980975031853,163.18445461639203 32.71083106845617,170.19741041515954 43.02418251987547,162.90393611206673 45.08685281034559,137.93770514801145 35.28916893154383,129.52208421821706 24.717983692884445,137.3766643407289 23.170980975031853,161.50134327355772 32.452997281216085,169.91689243493602 42.7663487335667,164.02601000503637 45.08685281034559,138.21822552080266 34.51566757261753,129.52208421821706 25.233651265501976,136.53510297113098 23.170980975031853,162.62341758725233 29.358991846442223,169.6363744335249 42.25068116094917,164.8675652043894 45.60252038296312,138.49874587194063 35.28916893154383,129.24156319489703 25.749318838119507,135.41302085248753 23.686648547649384,162.0623804719653 33.48433242738247,170.19741041515954 43.02418251987547,162.90393611206673 45.34468659758568,138.21822552080266 40.44584465585649,130.92468901816756 34.257833786308765,129.24156319489703 25.491485052742064,136.53510297113098 23.170980975031853,161.7818618840538 33.48433242738247,170.19741041515954 42.7663487335667,164.8675652043894 45.08685281034559,137.3766643407289 35.28916893154383,128.68052108609118 26.264986409805715,133.72989704390056 23.170980975031853,161.7818618840538 26.78065398335457,167.95326598663814 33.742166213691235,170.19741041515954 43.539850092493,162.34289903962053 45.08685281034559,137.3766643407289 40.18801087141037,130.36364716105163 33.48433242738247,128.96104215155356 25.491485052742064,135.69354141363874 23.428814761340618,162.62341758725233 34.51566757261753,170.75844631250948 43.02418251987547,164.02601000503637 44.8290190231055,137.3766643407289 34.773501357994974,128.4000000001397 25.233651265501976,135.69354141363874 22.913147188723087,160.94030599179678 30.905994564294815,169.91689243493602 42.7663487335667,164.3065284260083 44.8290190231055,137.65718475473113 36.0626702895388,129.24156319489703 29.358991846442223,130.08312620106153 25.233651265501976,136.81562344823033 23.170980975031853,161.7818618840538 32.96866485569626,170.19741041515954 43.28201630618423,163.4649731006939 44.8290190231055,138.21822552080266 35.54700271692127,128.96104215155356 25.233651265501976,136.53510297113098 23.428814761340618,162.90393611206673 32.71083106845617,170.75844631250948 43.02418251987547,163.4649731006939 44.8290190231055,136.53510297113098 40.70367844309658,130.92468901816756 32.71083106845617,129.24156319489703 25.233651265501976,136.53510297113098 23.686648547649384,162.90393611206673 34.257833786308765,170.19741041515954 43.28201630618423,162.0623804719653 45.08685281034559,136.81562344823033 33.742166213691235,128.96104215155356 26.52282019611448,134.01041773078032 22.655313402414322,143.5481086082291 22.397479616105556,165.14808356179856" stroke="#4dd2ff" stroke-linecap="round" stroke-linejoin="round" stroke-width="0.5"><title>2024-04-03 9.7km</title><desc>1712137473000</desc></polyline><polyline fill="none" points="84.55862275324762,154.65888246102259 91.5656342767179,153.24711923324503 88.97044482454658,160.8706343867816 94.67986162099987,169.62354020541534 107.91532783210278,169.62354020541534 115.44137724675238,141.95299440529197 111.28907412104309,130.09412696235813 101.4273541988805,128.4000000001397 94.42034267447889,132.35296172834933 91.30611533205956,160.58828224870376 94.93938056658953,170.18824310950004 104.02254365291446,170.18824310950004 110.77003622986376,165.38826573104598 113.6247446294874,139.41181166050956 107.39628994185477,130.94119015848264 94.67986162099987,136.02356534125283 91.30611533205956,162.84709876566194 99.35120263695717,170.7529459297657 110.77003622986376,164.8235621091444 113.10570673830807,139.12945791706443 105.83917627017945,130.09412696235813 94.42034267447889,136.02356534125283 91.5656342767179,163.6941546103917 100.38927841838449,171.31764866481535 110.77003622986376,165.1059139308054 113.6247446294874,138.84710415219888 106.61773310601711,130.65883578034118 99.35120263695717,131.50589884910733 93.90130478423089,137.1529811185319 91.0465963864699,162.84709876566194 99.61072158254683,171.60000000009313 110.51051728613675,165.1059139308054 113.36522568482906,138.00004273070954 106.61773310601711,130.65883578034118 93.90130478423089,136.87062720605172 91.0465963864699,161.43533860123716 94.42034267447889,168.77648569084704 101.68687314447016,171.31764866481535 111.54859306663275,163.97650651726872 113.36522568482906,138.28239655890502 106.35821415949613,130.37648138194345 100.64879736304283,130.37648138194345 93.90130478423089,136.5882732719183 91.0465963864699,161.71769067575224 98.83216474577785,171.31764866481535 110.25099834054708,166.235321006272 113.6247446294874,139.41181166050956 108.4343657232821,130.94119015848264 101.68687314447016,130.65883578034118 94.16082373075187,136.5882732719183 91.30611533205956,162.28239476378076 97.27505107410252,170.47059453022666 110.77003622986376,169.05883721681312" stroke="#4dd2ff" stroke-linecap="round" stroke-linejoin="round" stroke-width="0.5"><title>2024-04-02 3.0km</title><desc>1712049520000</desc></polyline><polyline fill="none" points="157.39231724571437,141.99445542646572 155.7263141311705,165.55806975485757 160.72432347387075,170.6937110396102 168.22133748512715,170.99580738297664 173.7746811984107,164.6517794386018 176.55135305412114,134.7440848937258 167.11066874302924,128.4000000001397 158.22531880252063,135.6503819222562 155.44864694587886,164.6517794386018 160.16898910328746,170.39161467482336 167.9436702998355,170.99580738297664 173.7746811984107,164.3496826211922 176.55135305412114,135.04618392605335 167.38833592832088,128.4000000001397 158.22531880252063,135.34828293533064 155.17097976058722,163.7454889183864 164.8893312588334,171.60000000009313 173.7746811984107,164.95387623365968 176.82902023941278,136.2545798283536 168.4990046704188,128.4000000001397 158.22531880252063,135.34828293533064 155.17097976058722,164.04758578166366 164.05632970202714,171.60000000009313 173.49701401311904,165.55806975485757 176.82902023941278,136.55667874752544 168.7766718575731,128.4000000001397 158.22531880252063,135.04618392605335 155.17097976058722,163.7454889183864 163.5009953295812,171.60000000009313 173.49701401311904,165.55806975485757 177.10668742470443,137.16087651788257 169.60967341437936,128.7020995072089 158.5029859887436,134.44198583904654 155.17097976058722,163.14129512687214 164.05632970202714,171.60000000009313 173.49701401311904,165.55806975485757 176.82902023941278,136.55667874752544 168.4990046704188,128.4000000001397 158.5029859887436,134.44198583904654 155.17097976058722,163.7454889183864 164.3339968873188,171.60000000009313 173.7746811984107,164.6517794386018 176.82902023941278,136.85877764434554 168.22133748512715,128.4000000001397 158.22531880252063,135.6503819222562 155.17097976058722,164.04758578166366 164.3339968873188,171.60000000009313 173.7746811984107,164.95387623365968 176.82902023941278,135.95248088729568 167.9436702998355,128.4000000001397 158.22531880252063,135.6503819222562 155.17097976058722,163.44339203368872 158.78065317403525,169.48532544262707 166.27766718622297,171.29790370306 173.7746811984107,164.6517794386018 176.82902023941278,136.2545798283536 167.38833592832088,128.4000000001397 158.22531880252063,135.6503819222562 155.17097976058722,163.14129512687214 163.5009953295812,171.60000000009313 173.49701401311904,165.55806975485757 177.10668742470443,137.76507419743575 169.3320062281564,128.7020995072089 158.78065317403525,134.13988676248118 155.17097976058722,163.14129512687214 161.55732503067702,170.99580738297664 173.49701401311904,165.55806975485757 177.10668742470443,137.16087651788257 169.88734059873968,128.7020995072089 159.33598754461855,132.9314902271144 154.89331257436424,162.23500426788814 158.5029859887436,169.48532544262707 166.0,171.60000000009313 172.66401245631278,167.06855316390283 177.10668742470443,138.97346928692423 171.55334371235222,129.3062984519638 161.0019906591624,130.81679542083293 156.28164850268513,166.464359868085 162.11265940126032,171.29790370306 169.60967341437936,170.08951828652062 175.16301712673157,155.58886508829892" stroke="#4dd2ff" stroke-linecap="round" stroke-linejoin="round" stroke-width="0.5"><title>2024-03-30 4.8km</title><desc>1711782999000</desc></polyline><polyline fill="none" points="21.574863807298243,194.0327104406897 23.46564540080726,214.01635326398537 29.137990185059607,218.71837209630758 37.781563189812005,218.13062005024403 44.26424294151366,209.60820549703203 43.72401962894946,179.63266950612888 30.758660123683512,177.28163740155287 23.73575705755502,185.21636511362158 23.73575705755502,213.1347241064068 31.298883436247706,219.60000000009313 39.67234478332102,217.54286791547202 44.534354598261416,209.60820549703203 46.42513619270176,187.56739246915095 43.453907972201705,179.04491161182523 34.0,176.4000000001397 27.517320246435702,180.51430618180893 22.65531043149531,209.0204520879779 25.356426996178925,215.7796109856572 33.18966503161937,219.60000000009313 44.26424294151366,211.66534173721448 45.34468956757337,181.9837002030108 33.72988834325224,176.9877582900226 24.275980370119214,185.51024360954762 24.275980370119214,215.48573475331068 34.540223312564194,219.30612405436113 42.37346134707332,214.60410592518747 45.88491287920624,187.86127078952268 43.9941312847659,180.51430618180893 38.05167484469712,176.69387915660627 25.89665030874312,181.68982144305483 22.385198775678873,210.783712051576 29.137990185059607,218.71837209630758 42.10334969032556,214.01635326398537 45.88491287920624,187.56739246915095 40.21256809588522,178.16327460552566 25.89665030874312,178.16327460552566" stroke="#4dd2ff" stroke-linecap="round" stroke-linejoin="round" stroke-width="0.5"><title>2024-03-28 2.0km</title><desc>1711615120000</desc></polyline><polyline fill="none" points="89.080739967525,194.76006318023428 86.35092495847493,195.3000636245124 89.080739967525,197.46006459393539 86.10275995824486,196.11006413935684 89.080739967525,196.9200644728262 89.82523496914655,213.93002947908826 95.28486498538405,218.7900047567673 103.97064001206309,219.06000319099985 111.41559003386647,209.88004508172162 112.65641503687948,181.53002705588005 106.70045502018183,176.94000319158658 99.25550499744713,176.94000319158658 90.56972997169942,186.66004681959748 88.83257496543229,211.23004038608633 98.26284499466419,219.60000000009313 110.17476502992213,212.58003518474288 112.40825003758073,184.23003836721182 108.68577502574772,177.7500078266021 102.72981500811875,176.4000000001397 91.56238997355103,183.96003732644022 89.82523496914655,209.07004765677266 93.29954497981817,215.8200206423644 99.5036699976772,218.25000782706775 108.93394002690911,212.58003518474288 111.41559003386647,186.3900459613651 102.72981500811875,178.02000933210365 92.80321497749537,184.23003836721182 91.06605997309089,210.96004136512056 99.99999999906868,218.25000782706775 109.67843502853066,210.96004136512056 111.16742503270507,183.4200351855252 102.23348500579596,177.48000630177557 92.80321497749537,185.04004136589356 90.81789497099817,210.15004418301396 98.51100999489427,218.25000782706775 109.43027002830058,210.96004136512056 111.16742503270507,185.31004232540727 101.24082500394434,176.94000319158658 93.05137997865677,184.23003836721182 90.32156497053802,210.15004418301396 99.00733999721706,218.25000782706775 109.92660002876073,210.96004136512056 111.91192003525794,185.31004232540727 103.22614500951022,177.48000630177557 93.29954497981817,183.96003732644022 90.56972997169942,209.88004508172162 92.3068849761039,215.55002196552232 98.51100999489427,217.71001081634313 109.67843502853066,211.77003836608492 111.91192003525794,186.9300476582721 103.4743100097403,178.56001228070818 93.05137997865677,183.690036265878 90.56972997169942,210.96004136512056 99.5036699976772,217.9800093313679 109.67843502853066,211.23004038608633 111.66375503502786,184.23003836721182 102.48165000695735,178.02000933210365 93.05137997865677,185.04004136589356 90.56972997169942,210.42004326474853 99.5036699976772,218.25000782706775 107.4449500227347,217.17001372436062 111.16742503270507,212.04003732604906 113.89724004082382,186.1200450831093" stroke="#4dd2ff" stroke-linecap="round" stroke-linejoin="round" stroke-width="0.5"><title>2024-03-26 3.7km</title><desc>1711445960000</desc></polyline><polyline fill="none" points="154.35278581269085,209.52004335820675 163.8823246937245,219.60000000009313 175.26482946798205,212.97603146592155 177.38250477425754,183.88803472998552 171.5588976815343,176.4000000001397 157.79400818701833,181.2960243562702 154.08807640057057,208.65604584640823 156.47046111989766,215.2800218136981 164.67645293381065,219.31200160481967 174.7354106400162,213.55202918173745 177.91192360036075,185.32803973928094 172.6177353337407,176.68800160498358 158.58813642710447,182.44802918261848 155.14691405370831,199.1520604218822 158.32342701312155,215.2800218136981 165.20587175991386,218.4480062914081 171.5588976815343,215.85601918562315 177.1177953602746,187.05604503955692 172.6177353337407,178.70401223702356 164.94116234686226,177.84000780945644 159.64697408024222,182.1600280085113 156.20575170684606,207.5040488629602 162.0293587995693,217.58401078358293 172.88244474772364,214.12802681233734 177.1177953602746,185.9040415917989 171.0294788526371,177.55200629099272 159.64697408024222,182.44802918261848 156.20575170684606,208.08004739810713 162.29406821355224,217.58401078358293 172.6177353337407,214.12802681233734 175.26482946798205,180.72002181364223 166.2647094130516,176.97600318840705 158.85284583922476,184.46403679833747 156.47046111989766,211.536036798032 161.23523055948317,217.00801367033273 168.64709413331002,217.29601223720238" stroke="#4dd2ff" stroke-linecap="round" stroke-linejoin="round" stroke-width="0.5"><title>2024-03-25 2.1km</title><desc>1711359274000</desc></polyline><polyline fill="none" points="39.472355608828366,263.44617575313896 44.56291896477342,235.2000472645741 38.70877110492438,226.3384723418858 25.473306378349662,232.15388327743858 22.673496533185244,255.69235802232288 30.309341568499804,265.93847086117603 41.50858095102012,261.5077228429727 44.56291896477342,235.2000472645741 37.18160209804773,226.6153968796134 25.473306378349662,232.43080738023855 22.673496533185244,257.3538917603437 30.81839790288359,265.93847086117603 41.763109119609,260.6769569993485 44.56291896477342,234.09235155885108 36.92707393039018,226.6153968796134 25.473306378349662,232.15388327743858 22.92802470177412,257.6308139776811 25.21877821162343,263.44617575313896 32.34556691069156,266.21539243590087 42.01763728726655,259.5692689176649 44.56291896477342,235.75389499240555 37.94518660195172,226.6153968796134 25.473306378349662,231.04618666064925 22.92802470177412,257.6308139776811 30.81839790288359,266.49231399060227 41.25405278429389,261.23080091620795 44.56291896477342,235.2000472645741 37.43613026663661,226.06154778436758 25.72783454693854,230.76926245493814 22.673496533185244,258.18465834949166 25.21877821162343,263.72309751529247 32.854623245075345,266.7692355243489 42.272165453992784,259.2923468463123 44.30839079711586,233.8154275806155 36.41801759414375,226.06154778436758 29.291228896006942,227.44617036753334 24.964250043034554,232.98465552204289 23.182552868500352,259.5692689176649 33.10915141366422,266.21539243590087 42.52669362258166,258.4615805053618 44.30839079711586,234.09235155885108 36.92707393039018,226.06154778436758 25.21877821162343,232.98465552204289 22.92802470177412,258.73850263888016 31.83651057537645,265.93847086117603 41.50858095102012,260.6769569993485 44.30839079711586,233.8154275806155 35.399904924444854,226.06154778436758 24.964250043034554,232.70773146185093 23.182552868500352,259.01542475260794 31.83651057537645,266.49231399060227 42.01763728726655,260.6769569993485 44.56291896477342,234.09235155885108 40.23594011273235,226.89232139661908 25.982362715527415,230.76926245493814 22.92802470177412,255.96928036329336 29.036700728349388,265.93847086117603 41.25405278429389,261.7846447492484 44.56291896477342,234.64619945315644 36.672545762732625,226.3384723418858 25.473306378349662,231.6000350106042 22.92802470177412,257.9077361735981 30.054813399910927,265.6615492652636 40.99952461570501,262.61541034444235 44.81744713336229,235.47697113873437 39.72688377741724,226.89232139661908 31.83651057537645,226.06154778436758 25.72783454693854,231.6000350106042 21.146327525377274,255.69235802232288 23.182552868500352,263.1692539714277 30.309341568499804,267.60000000009313 36.92707393039018,267.32307852921076 43.03574995789677,261.5077228429727 46.85367247555405,236.03081882512197 39.9814119450748,224.9538493445143 31.581982406787574,224.4000000001397 24.20066554006189,230.4923382285051 21.146327525377274,257.0769695218187 29.036700728349388,266.7692355243489 42.272165453992784,264.55386267532595" stroke="#4dd2ff" stroke-linecap="round" stroke-linejoin="round" stroke-width="0.5"><title>2024-03-24 4.9km</title><desc>1711273464000</desc></polyline><polyline fill="none" points="87.8201231174171,255.67367227142677 90.01250095665455,263.35953251854517 96.102439397946,267.3349709312897 103.16676798835397,266.00982528948225 109.01310889236629,260.17917857621796 111.44908426888287,232.35095979948528 109.50030396692455,227.5803860614542 102.19237783923745,225.19509678310715 94.15365909598768,227.05032191611826 89.76890341937542,232.61599148600362 88.307318193838,259.11905996105634 92.93567140866071,265.21473766630515 101.21798768825829,267.06994184246287 109.98749904241413,257.2638516209554 110.23109657969326,228.90554607729428 101.46158522646874,225.19509678310715 92.44847633410245,228.11045012786053 88.79451326839626,234.47121273283847 87.33292804285884,257.79391124565154 95.12804924789816,267.60000000009313 103.65396306477487,266.00982528948225 108.76951135415584,260.4442081800662 112.91066949348897,236.06140159908682 109.743901505135,227.5803860614542 102.92317045107484,224.9300645419862 92.69207387138158,228.11045012786053 89.03811080753803,233.94114961801097 88.79451326839626,262.5644443004858 95.85884186066687,267.60000000009313 102.92317045107484,267.06994184246287 110.23109657969326,257.2638516209554 110.23109657969326,228.90554607729428 98.53841477446258,224.4000000001397 89.28170834388584,233.67611803137697 87.57652558106929,258.8540302570909 92.204878795892,265.7447961012367 100.0,266.8049127336126 109.98749904241413,257.52888144389726 110.96188919339329,230.23070559790358 107.06432859133929,225.72516120621003 98.78201231174171,224.9300645419862 89.03811080753803,234.2061811850872 88.06372065562755,260.974267329555 101.21798768825829,266.53988360543735 109.743901505135,257.52888144389726 109.743901505135,228.90554607729428 100.48719507455826,224.6650322813075 89.76890341937542,230.7607692675665 87.08933050557971,259.3840896442998 91.96128125675023,265.47976689389907 101.21798768825829,267.06994184246287 109.743901505135,258.05894102854654 109.25670642964542,227.31535399891436 99.75640246178955,224.6650322813075 92.93567140866071,228.11045012786053 87.57652558106929,247.987795349909 90.74329356942326,264.15462055732496 105.846340903081,264.9497084186878 111.692681806162,235.26630725548603 106.33353597857058,225.9901933874935 92.69207387138158,228.11045012786053 87.57652558106929,254.34852226660587 89.28170834388584,263.35953251854517 95.61524432245642,266.53988360543735 107.795121204108,262.03438538941555 111.93627934344113,235.7963701710105 108.52591381687671,227.31535399891436 92.44847633410245,227.31535399891436 88.307318193838,242.42214992945082 90.01250095665455,263.35953251854517 97.32042708620429,267.06994184246287 106.08993844036013,264.41964986454695 109.98749904241413,258.3239707921166 111.93627934344113,236.06140159908682 108.28231627959758,227.31535399891436 96.34603693522513,225.4601290046703 89.03811080753803,234.2061811850872 87.8201231174171,260.4442081800662 94.64085417147726,266.53988360543735 102.92317045107484,265.47976689389907 108.52591381687671,251.43319051433355 107.3079261276871,228.90554607729428 99.75640246178955,226.52025769185275 91.96128125675023,230.23070559790358 87.33292804285884,246.92767308698967" stroke="#4dd2ff" stroke-linecap="round" stroke-linejoin="round" stroke-width="0.5"><title>2024-03-22 5.0km</title><desc>1711100044000</desc></polyline><polyline fill="none" points="152.84724708925933,240.60006059450097 157.314219776541,263.55002196575515 164.7591742547229,267.33000160590746 172.20412873197347,265.1700137243606 177.1674317177385,259.5000393856317 178.9045877624303,247.0800644720439 175.6784408222884,228.72002326813526 165.50366970151663,225.2100047566928 158.30688037350774,234.39004596089944 157.314219776541,260.31003626505844 163.27018335834146,266.5200063018128 170.46697268635035,266.5200063018128 176.42293627001345,258.1500441832468 176.17477111984044,232.23003836651333 167.9853211948648,226.29001081595197 158.5550455218181,234.39004596089944 157.314219776541,259.5000393856317 161.78119246289134,265.4400122803636 168.48165149241686,266.79000475723296 175.6784408222884,257.0700476572383 176.67110141832381,231.42003518505953 169.7224772386253,225.48000630224124 158.5550455218181,231.96003732667305 156.32155917864293,257.88004508195445 166.4963302994147,265.98000933183357 172.94862418062985,264.63001655228436 177.4155968669802,257.0700476572383 177.66376201529056,229.5300270554144 174.68578022439033,225.48000630224124 165.25550455320626,224.39999999990687 156.8178894771263,232.500039386563 155.3288985826075,259.2300403858535 166.4963302994147,267.60000000009313 176.67110141832381,257.61004596040584 179.152752911672,233.8500441836659 175.43027567211539,224.67000160599127 160.04403641819954,226.83001372450963 154.08807283546776,254.10005554393865" stroke="#4dd2ff" stroke-linecap="round" stroke-linejoin="round" stroke-width="0.5"><title>2024-03-21 2.2km</title><desc>1711013104000</desc></polyline></svg>