<?xml version="1.0" encoding="utf-8" ?>
<svg baseProfile="full" height="300mm" version="1.1" viewBox="0,0,200,300" width="200mm" xmlns="http://www.w3.org/2000/svg" xmlns:ev="http://www.w3.org/2001/xml-events" xmlns:xlink="http://www.w3.org/1999/xlink"><defs /><rect fill="#222222" height="300" width="200" x="0" y="0" /><text fill="#FFFFFF" style="font-size:12px; font-family:Arial; font-weight:bold;" x="10" y="20">Over 2km Runs</text><text fill="#FFFFFF" style="font-size:4px; font-family:Arial" x="10" y="280">ATHLETE</text><text fill="#FFFFFF" style="font-size:9px; font-family:Arial" x="10" y="290">作怪</text><text fill="#FFFFFF" style="font-size:4px; font-family:Arial" x="120" y="280">STATISTICS</text><text fill="#FFFFFF" style="font-size:3px; font-family:Arial" x="120" y="285">Number: 32</text><text fill="#FFFFFF" style="font-size:3px; font-family:Arial" x="120" y="290">Weekly: 3.2</text><text fill="#FFFFFF" style="font-size:3px; font-family:Arial" x="141" y="285">Total: 145.2 km</text><text fill="#FFFFFF" style="font-size:3px; font-family:Arial" x="141" y="290">Avg: 4.5 km</text><text fill="#FFFFFF" style="font-size:3px; font-family:Arial" x="167" y="285">Min: 2.0 km</text><text fill="#FFFFFF" style="font-size:3px; font-family:Arial" x="167" y="290">Max: 12.3 km</text><polyline fill="none" points="19.43201604951173,42.70718520833179 21.027362482622266,59.29287467896938 26.522444642148912,61.99286054051481 31.30848394241184,60.45001182309352 35.03095895331353,53.314324494684115 33.61287323478609,33.835726108867675 25.636141068302095,32.100002279505134 20.49558033887297,34.60715854680166 18.19119104463607,53.314324494684115 23.68627320509404,61.80000450112857 29.89039822295308,62.18571656499989 33.79013394936919,58.13573701563291 36.094523241743445,39.6214637667872 30.95396251231432,32.678577018901706 23.50901249051094,32.29286054056138 20.318319623358548,34.99287467915565 18.368451760150492,54.47146432148293 24.395316064357758,62.18571656499989 33.43561251927167,58.71430591237731 35.91726252716035,38.85003282944672 29.89039822295308,32.48571878694929 24.572576778940856,32.29286054056138 19.78653747867793,35.76430677087046 18.19119104463607,54.47146432148293 21.736405341885984,61.02858020039275 27.23148750141263,62.57142857136205 35.03095895331353,55.628603629767895 35.20821966882795,36.53573863161728 26.16792321205139,31.714285714318976 19.60927676409483,37.30717026209459 18.722973190248013,56.978598832851276 26.87696607131511,62.378572575515136 32.372048230841756,59.678587118163705 34.49917680863291,55.628603629767895 35.74000181257725,37.11431237589568 31.13122322782874,32.29286054056138 23.86353391967714,31.90714400401339 19.25475533399731,37.69288599002175 19.077494620345533,57.364311618264765 22.7999696303159,61.99286054051481 27.58600893151015,62.57142857136205 34.67643752414733,55.24289058474824 35.03095895331353,35.571448769653216 24.749837493523955,32.29286054056138 19.60927676409483,37.30717026209459 19.78653747867793,59.29287467896938 26.34518392663449,62.378572575515136 32.90383037459105,59.678587118163705 35.91726252716035,39.81432146485895 32.372048230841756,33.064293439965695 25.636141068302095,31.90714400401339 19.96379819419235,34.99287467915565" stroke="#4dd2ff" stroke-linecap="round" stroke-linejoin="round" stroke-width="0.5"><title>2024-05-21 3.1km</title><desc>1716282759000</desc></polyline><polyline fill="none" points="55.06291489675641,38.91431668540463 54.87383681535721,57.63430898217484 57.899086121469736,61.337149505037814 63.38235049042851,61.95428910735063 70.56731759291142,56.400027700001374 71.32362991943955,36.03430655878037 62.81511624529958,32.94857807690278 56.575539549812675,38.708601776044816 55.63014914188534,57.63430898217484 62.43696008250117,62.36571543244645 70.00008334778249,58.4571628626436 71.89086416456848,37.68002700037323 64.51681898068637,32.74286272167228 56.575539549812675,38.091456956695765 55.44107106048614,56.60574128548615 62.62603816296905,62.36571543244645 70.56731759291142,57.63430898217484 71.89086416456848,38.91431668540463 64.89497514348477,33.15429341653362 57.142773794941604,38.297171912156045 55.44107106048614,57.2228819495067 60.92433542851359,62.36571543244645 68.86561485845596,59.6914432218764 72.26902032736689,40.148605815600604 71.32362991943955,36.03430655878037 65.8403655514121,32.94857807690278 57.33185187634081,37.88574198610149 55.44107106048614,57.017168410355225 62.62603816296905,62.57142857136205 70.37823951151222,58.0457359533757 71.89086416456848,36.85716690309346 66.02944363374263,31.714285714086145 61.491569673642516,31.920001146383584 56.38646146841347,35.828591434285045 55.06291489675641,42.00003847293556" stroke="#4dd2ff" stroke-linecap="round" stroke-linejoin="round" stroke-width="0.5"><title>2024-05-16 2.1km</title><desc>1715854249000</desc></polyline><polyline fill="none" points="91.36817291844636,38.997371573001146 92.42513133585453,57.01333711342886 95.94832606334239,61.42147960327566 101.40927789080888,62.57142857136205 107.39870892651379,57.20499564008787 108.63182708155364,36.697451959364116 105.63711156323552,33.24756866833195 99.11920131836087,32.28926692926325 92.95361054502428,38.0390719845891 92.24897160101682,56.438361446605995 100.0,62.379770445637405 106.87022971734405,56.82167857233435 108.27950760908425,37.27243205648847 100.52847920916975,33.24756866833195 94.01056896336377,37.27243205648847 92.95361054502428,55.288409726461396 99.64768052753061,61.03816316626035 105.46095182653517,57.971629603998736 107.39870892651379,38.0390719845891 105.28479209076613,34.20587004814297 100.35231947246939,32.86424801568501 94.36288843583316,37.65575204906054 93.12977028265595,55.09675105661154 99.82384026423097,60.84650492644869 106.69406998157501,55.863385651027784 107.57486866321415,38.0390719845891 102.11391683574766,31.90594613389112 95.24368711840361,33.24756866833195 92.95361054502428,37.080772038782015 92.07281186431646,57.20499564008787 100.0,62.379770445637405 107.92718813568354,55.480068382341415 108.27950760908425,36.50579189858399 101.05695841833949,31.714285714086145 95.77216632757336,32.67258766829036 92.60129107348621,37.080772038782015 91.54433265514672,55.671727024484426 99.47152079083025,61.99645415181294 107.39870892651379,56.246702862670645 108.27950760908425,36.697451959364116 102.11391683574766,32.28926692926325 92.95361054502428,36.12247173325159 91.54433265514672,54.90509237162769 94.36288843583316,60.07987182261422 99.2953610541299,62.57142857136205 107.0463894540444,57.20499564008787 108.63182708155364,36.50579189858399 105.63711156323552,33.055908349109814 97.53376369085163,32.28926692926325 93.12977028265595,35.54749137838371 92.24897160101682,41.68060851236805" stroke="#4dd2ff" stroke-linecap="round" stroke-linejoin="round" stroke-width="0.5"><title>2024-05-15 3.1km</title><desc>1715764820000</desc></polyline><polyline fill="none" points="144.91902317665517,54.51322877523489 145.28031899500638,35.252065709326416 138.05440261494368,31.714285714086145 129.74459877610207,35.252065709326416 127.75747177097946,56.08556238375604 135.70597978960723,62.57142857136205 143.47383989952505,57.461353519232944 145.09967108629644,37.02095391997136 136.60921933781356,31.910829172702506 128.6607113191858,38.789840940153226 127.5768238613382,56.871728835161775 130.82848623301834,61.195640112040564 136.24792351853102,62.17834622762166 143.8351357197389,56.08556238375604 144.55772735737264,36.62786775431596 136.60921933781356,32.10737261548638 129.20265504717827,37.80712607642636 127.93811968062073,56.871728835161775 130.82848623301834,60.99909884436056 136.06727560982108,62.37488740659319 143.47383989952505,57.06827041087672 144.7383752670139,36.23478152905591 141.66736080497503,33.09008961217478 135.52533188089728,32.50045945844613 129.022007137537,38.39675503899343 127.75747177097946,56.28210401837714 131.18978205230087,61.195640112040564 137.51245888601989,62.17834622762166 143.8351357197389,55.88902073376812 144.91902317665517,36.43132464913651 137.33181097637862,31.714285714086145 129.022007137537,37.414040027419105 127.5768238613382,57.06827041087672 135.70597978960723,62.37488740659319 143.8351357197389,57.26481197215617 145.28031899500638,36.62786775431596 141.3060649856925,32.50045945844613 134.62209233362228,32.10737261548638 128.84135922789574,37.80712607642636 127.5768238613382,56.67518724431284 136.06727560982108,62.37488740659319 140.94476916640997,60.80255756271072 144.01578362844884,56.08556238375604 144.91902317665517,37.02095391997136 136.78986724745482,32.10737261548638 129.20265504717827,37.80712607642636 127.75747177097946,56.871728835161775 131.0091341426596,60.99909884436056 138.4156984332949,62.37488740659319" stroke="#4dd2ff" stroke-linecap="round" stroke-linejoin="round" stroke-width="0.5"><title>2024-05-13 3.1km</title><desc>1715589913000</desc></polyline><polyline fill="none" points="165.9417860582471,40.66670517507009 166.99222000222653,58.76192499534227 175.74583620391786,62.00000339793041 180.12264430429786,56.09526910050772 180.82293360028416,36.095260872505605 172.94467901904136,32.47619497869164 168.9180155666545,33.80953564331867 167.16729232668877,38.38098404952325 166.46700302977115,57.047646526712924 174.34525761194527,61.04762782459147 179.5974273327738,55.714318031212315 179.42235500831157,36.4762148775626 172.5945343710482,33.619058448355645 164.01599049381912,38.76193771301769 165.2414967622608,56.66669559897855 172.41946204658598,62.38095352775417 176.44612549990416,61.428578096674755 180.2977166287601,56.2857446144335 181.52322289627045,37.04764577909373 174.52032993547618,32.2857176840771 168.9180155666545,33.80953564331867 165.76671373378485,38.76193771301769 165.4165690857917,57.4285973967053 169.44323253817856,61.80952831171453 175.22061923146248,62.38095352775417 180.2977166287601,56.66669559897855 181.6982952207327,37.42859964212403 180.472788952291,34.00001282454468 173.8200406394899,32.09524037502706 166.11685838270932,36.85716882604174 165.06642443779856,55.90479357284494 172.5945343710482,62.19047846994363 180.12264430429786,57.047646526712924 181.34815057273954,37.42859964212403 179.07221036031842,33.42858123918995 173.64496831595898,31.714285714086145 166.11685838270932,37.61907655163668 164.89135211426765,56.47622011369094 172.5945343710482,62.57142857136205 180.12264430429786,56.85717107006349 180.2977166287601,37.04764577909373 173.46989599149674,33.42858123918995 167.34236465021968,38.19050719635561 166.46700302977115,57.23812196869403 174.34525761194527,61.04762782459147 179.42235500831157,55.5238424744457 180.472788952291,35.523829757701606 178.3719210634008,32.66667225910351 172.41946204658598,32.09524037502706 165.59164141025394,38.38098404952325" stroke="#4dd2ff" stroke-linecap="round" stroke-linejoin="round" stroke-width="0.5"><title>2024-05-12 3.1km</title><desc>1715507107000</desc></polyline><polyline fill="none" points="19.079231563955545,75.68071028939448 21.489050703123212,94.43698755395599 28.718508118763566,96.85714285704307 33.90888780169189,91.21011043619365 34.835741315968335,70.6386780180037 27.235542494803667,66.60504541173577 20.932938593439758,72.45381072210148 20.562197187915444,94.03362812544219 27.7916546035558,96.85714285704307 33.72351709753275,90.40339055401273 34.094258503988385,70.2353150290437 29.459990929812193,67.00840894388966 22.41590421833098,69.42858886998147 19.079231563955545,88.78995006345212 22.23053351417184,95.64706547744572 27.235542494803667,96.85714285704307 32.24055147450417,93.83194838860072 34.65037061274052,77.2941586242523 34.2796292072162,71.243722388288 30.757585851475596,68.01681751012802 25.752576870843768,67.41177241620608 21.674421405419707,70.2353150290437 19.44997296947986,90.8067505247891 25.196464762091637,96.45378379081376 33.16740498878062,92.82354947761633 35.20648272149265,74.87398575968109 31.12832725699991,68.01681751012802 26.679430386051536,67.00840894388966 21.859792108647525,70.0336335117463 19.44997296947986,90.60507054673508 24.640352653339505,96.65546333184466 33.35277569293976,92.21850995020941 34.835741315968335,73.26053597591817 29.08924952428788,66.0 21.118309296667576,68.8235440920107" stroke="#4dd2ff" stroke-linecap="round" stroke-linejoin="round" stroke-width="0.5"><title>2024-05-09 2.0km</title><desc>1715244227000</desc></polyline><polyline fill="none" points="54.052765312604606,74.87674685940146 55.60683278273791,91.99610846932046 65.70827134419233,96.22309536766261 71.34176592621952,90.09396230219863 73.09009183105081,74.03134359838441 70.95324905775487,68.53621623432264 65.12549604289234,66.0 57.74367555510253,68.74756748462096 55.21831591613591,90.09396230219863 62.40587796829641,96.85714285704307 70.56473219022155,92.63015690725297 72.89583339728415,72.34053631708957 65.90252977702767,66.42270286381245 57.3551586875692,69.59297232655808 55.41257434897125,91.78475895873271 61.628844232298434,96.64579370990396 69.39918158762157,93.89825335633941 72.70157496258616,73.39729098649696 66.48530507925898,66.63405427196994 56.578124951571226,70.64972802391276 55.21831591613591,90.93936075712554 60.85181049723178,96.22309536766261 70.56473219022155,91.99610846932046 72.31305809598416,72.12918533594348 65.70827134419233,66.2113514400553 57.3551586875692,70.0156746529974 55.60683278273791,90.51666156109422 61.24032736569643,96.01174617325887 69.98195688892156,92.41880744416267 72.11879966128618,71.91783433873206 66.48530507925898,66.63405427196994 56.77238338626921,67.90216238913126" stroke="#4dd2ff" stroke-linecap="round" stroke-linejoin="round" stroke-width="0.5"><title>2024-05-05 2.0km</title><desc>1714901559000</desc></polyline><polyline fill="none" points="92.10179987922311,78.69443837180734 92.64031352382153,92.75589805049822 96.76891813147813,96.46654839115217 102.33355912659317,96.46654839115217 108.61621831171215,90.2170289887581 109.33423650544137,70.49188524973579 101.61554093286395,66.19529951899312 93.5378362648189,71.66368013061583 92.46080897562206,91.19351738179103 99.8204954508692,96.85714285704307 107.7186955716461,91.19351738179103 109.51374105364084,71.46838102024049 107.35968647524714,67.75769514893182 101.25653183739632,66.0 92.81981807108968,72.4448764261324 90.12724984902889,88.06875323969871 94.79436810128391,95.09946730057709 100.5385136436671,96.46654839115217 107.89820011984557,90.80292206839658 109.33423650544137,72.05427830736153 103.05157731845975,66.39059902378358 94.43535900581628,70.88248360180296 92.28130442742258,91.19351738179103 98.38445906620473,96.85714285704307 107.35968647524714,92.75589805049822 109.33423650544137,81.62391538405791 109.69324560184032,72.05427830736153 107.35968647524714,68.14829390938394 100.89752274006605,66.19529951899312 94.61486355401576,68.92949125659652 91.92229533102363,88.84994462551549 96.9484226796776,96.2712511359714 101.61554093286395,96.46654839115217 107.0006773788482,92.36530297063291 109.87275015003979,73.42137146601453 108.436713764444,68.92949125659652 104.3081091567874,66.78119798959233 99.1024772580713,66.58589851437137 93.71734081301838,70.68718443298712 91.20427713822573,89.43583801225759 93.35833171568811,94.31827778392471 101.25653183739632,96.66184563143179 108.07770466804504,89.43583801225759 108.97522740904242,70.29658605158329 103.76959551125765,66.78119798959233 97.48693632427603,67.56239574588835 92.99932262022048,73.6166704299394 93.5378362648189,93.92768293828703 102.6925682220608,96.07595386682078 107.53919102344662,92.17000540927984 108.79572286084294,86.11577375140041 108.436713764444,69.1247905571945 102.15405457746238,66.19529951899312 95.69189084228128,68.14829390938394 92.64031352382153,73.6166704299394 92.46080897562206,93.34179056016728 101.43603638466448,96.46654839115217 108.07770466804504,90.02173126698472 109.15473195724189,69.71068837027997 99.99999999906868,66.19529951899312 92.46080897562206,73.2260724871885 92.81981807108968,93.92768293828703 97.1279272288084,96.85714285704307 103.05157731845975,96.07595386682078 108.79572286084294,87.87345535657369 109.15473195724189,69.71068837027997 105.38513644598424,66.39059902378358 98.74346816260368,66.58589851437137 92.46080897562206,73.2260724871885 92.46080897562206,93.1464930716902 101.61554093286395,96.85714285704307 108.25720921624452,90.2170289887581 109.51374105364084,71.0777827561833 106.46216373424977,67.36709632887505 100.35900909639895,66.58589851437137 92.81981807108968,71.66368013061583 92.64031352382153,92.56060051801614 101.07702728826553,96.85714285704307 108.07770466804504,89.82643352961168 108.97522740904242,70.10128683899529 104.3081091567874,66.39059902378358 98.02544996887445,66.78119798959233 92.64031352382153,73.6166704299394 91.02477259002626,91.38881501648575" stroke="#4dd2ff" stroke-linecap="round" stroke-linejoin="round" stroke-width="0.5"><title>2024-04-29 5.0km</title><desc>1714382183000</desc></polyline><polyline fill="none" points="128.81292533315718,92.09526249626651 134.5903120264411,96.47619275562465 142.99378357920796,92.66668860986829 145.61986844055355,74.19051264692098 143.51900055166334,69.23811280005611 137.3914692113176,67.14286381169222 130.2135039260611,73.04765199869871 128.46278068516403,91.90478709689341 131.43901019357145,95.71429238235578 136.51610759086907,96.47619275562465 142.81871125567704,92.28573788143694 143.69407287612557,73.23812880902551 137.91668618284166,67.90477273403667 129.6882869536057,73.42860560538247 128.81292533315718,91.52383625437506 137.04132456239313,95.52381725376472 143.1688559036702,90.76193439937197 143.69407287612557,71.71431392780505 135.9908906184137,67.71429552487098 128.46278068516403,76.47623240412213 127.23727441765368,81.4286181726493 130.73872089851648,94.38096618070267 136.51610759086907,95.90476749720983 140.89291569124907,93.61906518088654 143.8691451996565,73.23812880902551 139.31726477481425,67.90477273403667 130.388576249592,71.14288311172277 128.63785300962627,87.90480041271076 133.53987808246166,94.95239178137854 141.94334963522851,91.71431168238632 144.21928984858096,73.04765199869871 140.01755407080054,67.90477273403667 135.4656736459583,67.52381830126978 130.9137932220474,71.71431392780505 129.16306998208165,90.38098338618875 132.31437181401998,94.38096618070267 137.21639688685536,94.95239178137854 144.21928984858096,88.47622746601701 139.84248174726963,65.99999999976717 129.86335927806795,71.33336006477475 127.93756371363997,88.85717876441777 133.8900227304548,96.85714285704307 142.99378357920796,92.66668860986829 145.26972379162908,74.57146608224139 142.99378357920796,69.61906697647646 137.91668618284166,67.14286381169222 133.36480575799942,68.09524992899969 128.98799765761942,73.04765199869871 127.76249139010906,90.38098338618875 133.8900227304548,96.47619275562465 139.49233709927648,95.90476749720983 142.99378357920796,92.28573788143694 145.09465146809816,73.42860560538247 138.2668308308348,66.95238654478453 129.33814230561256,71.52383700362407 127.93756371363997,89.42860560491681 131.26393787004054,94.38096618070267 136.16596294287592,95.71429238235578 143.8691451996565,88.85717876441777 144.91957914456725,72.09526773332618 142.81871125567704,68.85715856659226 135.81581829488277,67.14286381169222 128.98799765761942,72.47622148203664 127.76249139010906,90.38098338618875 133.7149504069239,96.85714285704307 142.64363893214613,92.28573788143694 145.26972379162908,73.42860560538247 142.64363893214613,68.66668142843992 137.5665415348485,66.95238654478453 128.98799765761942,72.47622148203664 127.58741906564683,89.61908118939027 133.36480575799942,96.47619275562465 142.99378357920796,91.33336081239395 145.09465146809816,72.47622148203664 138.61697547882795,66.76190926437266 129.33814230561256,71.52383700362407 127.93756371363997,89.61908118939027 134.06509505398571,96.6666678134352 142.81871125567704,91.52383625437506 144.39436217211187,73.04765199869871 138.0917585073039,67.33334106323309 129.16306998208165,72.47622148203664 127.93756371363997,90.00003231689334 130.56364857405424,94.95239178137854 135.64074597042054,96.28571768361144 142.4685666076839,89.61908118939027 143.8691451996565,72.85717517440207 137.21639688685536,67.33334106323309 129.86335927806795,73.04765199869871 128.81292533315718,90.57145890011452 135.4656736459583,95.3333421102725 142.29349428322166,90.38098338618875 143.69407287612557,72.85717517440207 137.5665415348485,67.71429552487098 129.6882869536057,72.85717517440207 127.23727441765368,89.61908118939027" stroke="#4dd2ff" stroke-linecap="round" stroke-linejoin="round" stroke-width="0.5"><title>2024-04-28 5.8km</title><desc>1714295019000</desc></polyline><polyline fill="none" points="163.59617178048939,79.22453134623356 165.71847765240818,93.28864708915353 170.34896319080144,96.43732006126083 176.33000701013952,95.59767428133637 180.5746187530458,90.769706168212 181.53930324036628,69.98835728759877 173.0500797536224,66.41982734994963 166.49022524245083,72.2974036524538 164.94673006329685,90.97961799800396 168.0337204216048,95.59767428133637 173.62889044638723,96.64723146730103 180.5746187530458,90.769706168212 182.50398772768676,73.55688268691301 182.1181139331311,69.98835728759877 176.33000701013952,66.20991368312389 167.06903593428433,70.61809739354067 165.33260385785252,90.13997058500536 167.64784662704915,94.75802824925631 172.47126906178892,96.43732006126083 179.9958080612123,92.02917691110633 181.34636634308845,70.61809739354067 173.0500797536224,66.0 168.22665731888264,68.51896315696649 166.297288345173,73.34696955396794 166.49022524245083,93.70847035665065 173.8218273445964,96.85714285704307 178.452312881127,94.33820513938554 181.92517703492194,73.34696955396794 177.29469149746,66.62974100094289 172.08539526723325,66.41982734994963 167.45490972977132,70.19827067176811 165.1396669605747,89.09041096409783 171.31364767812192,96.64723146730103 179.9958080612123,91.81926516001113 181.92517703492194,71.66766392323188 175.7511963173747,66.20991368312389 167.26197283249348,70.61809739354067 165.33260385785252,89.30032291985117 170.92777388263494,96.43732006126083 180.18874495849013,91.3994416105561 181.92517703492194,72.08749042497948 178.452312881127,66.62974100094289 168.80546801164746,67.88922257977538 164.94673006329685,89.51023486000486 171.1207107808441,96.43732006126083 179.80287116393447,91.60935339331627 181.92517703492194,72.2974036524538 177.29469149746,66.41982734994963 172.27833216451108,66.0 167.06903593428433,70.4081840403378 165.33260385785252,89.30032291985117 170.54190008807927,96.01749720238149 179.03112357389182,92.86882375972345 181.7322401367128,72.9271432403475 176.33000701013952,66.62974100094289 170.54190008807927,67.25948186102323 165.33260385785252,72.2974036524538 163.21029798686504,89.51023486000486" stroke="#4dd2ff" stroke-linecap="round" stroke-linejoin="round" stroke-width="0.5"><title>2024-04-26 3.3km</title><desc>1714123626000</desc></polyline><polyline fill="none" points="18.143467006273568,116.90114364819601 21.23416664917022,127.38463464332744 24.870283876545727,130.3516528501641 29.77904213219881,129.95605061529204 33.59696522075683,125.60442212084308 35.59682969562709,111.56048131128773 35.05141211114824,106.61541397310793 30.506265577860177,102.0659438543953 20.870554924942553,106.02200527116656 19.052496312186122,124.02200998389162 24.506672153249383,129.56044832081534 33.415159358642995,125.80222357157618 35.05141211114824,107.01101970090531 28.506401102989912,101.27473086072132 20.688749064691365,105.82420234126039 19.052496312186122,124.21981155336834 23.779448707588017,129.36264715134166 32.86974177509546,126.00002500740811 34.86960624996573,106.61541397310793 27.96098351944238,101.47253413149156 20.325137342326343,106.41761108743958 19.416108034551144,124.81321617146023 22.87041940074414,129.36264715134166 28.6882069632411,129.75824947515503 33.23335349839181,126.00002500740811 35.05141211114824,107.20882254210301 29.051818686537445,101.07692757551558 20.870554924942553,105.2307934614364 19.234302173368633,123.6264068018645 25.597507320344448,129.75824947515503 33.77877108193934,124.21981155336834 34.86960624996573,106.41761108743958 28.3245952418074,100.87912427494302 19.416108034551144,105.62639939622022 19.052496312186122,109.38465282181278 19.234302173368633,126.59342922549695 23.415836985222995,130.5494539460633 29.233624547719955,130.1538517405279 34.86960624996573,124.21981155336834 35.23321797326207,104.8351874675136 26.87014835048467,100.28571428591385 22.506807677447796,101.27473086072132 19.416108034551144,106.41761108743958 18.143467006273568,125.20881917513907 22.506807677447796,130.1538517405279 27.415565934963524,131.14285714295693 34.505994527600706,125.40662065590732 36.14224728010595,107.01101970090531 30.8698773002252,100.4835176304914 24.324866292066872,100.28571428591385 20.325137342326343,103.25276290089823 18.32527286745608,125.80222357157618" stroke="#4dd2ff" stroke-linecap="round" stroke-linejoin="round" stroke-width="0.5"><title>2024-04-25 3.0km</title><desc>1714037269000</desc></polyline><polyline fill="none" points="54.9857430588454,122.32656523841433 61.73852941673249,130.30321148852818 70.42068330477923,127.57436137553304 72.92886109557003,107.63268384034745 68.29837902169675,101.7551097359974 61.352655910886824,101.96502330899239 58.65154136810452,104.90381167992018 56.52923708409071,124.42568487115204 61.352655910886824,130.5131229260005 70.80655681155622,127.36444971826859 73.12179784756154,108.26242319261655 70.42068330477923,102.80467744311318 61.352655910886824,101.7551097359974 53.63518578838557,110.99129208596423 58.07273110933602,128.41400784649886 64.24670720752329,131.14285714295693 68.87718928046525,129.46356558264233 72.15711408294737,104.90381167992018 62.7032131832093,101.125368922716 54.021059294231236,108.05251009063795 57.10804734379053,127.36444971826859 61.15971915796399,130.72303434740752 68.10544226877391,129.67347708228044 72.15711408294737,124.63559674751014 73.12179784756154,107.42277069110423 68.87718928046525,101.33528254320845 62.51027643028647,101.125368922716 58.26566786132753,104.90381167992018 56.14336357731372,123.16621327959001 61.15971915796399,130.5131229260005 70.99949356447905,126.94462635694072 73.12179784756154,107.0029443462845 66.3690114915371,100.91545528708957 57.68685760255903,105.95337820937857 55.75749007239938,124.00586106954142 61.15971915796399,130.72303434740752 69.84187304601073,129.04374253517017 73.3147346014157,107.63268384034745 67.52663201000541,100.70554163609631 58.84447812102735,103.8542447576765 56.14336357731372,123.37612525024451 61.15971915796399,130.30321148852818 70.22774655278772,127.99418464279734 73.50767135526985,109.10207544243895 71.96417733002454,103.01459093717858 64.63258071336895,100.28571428591385 58.84447812102735,104.27407157374546 56.52923708409071,124.8455086085014 62.31733967643231,130.72303434740752 71.57830382324755,126.94462635694072 73.12179784756154,106.58311793836765 66.3690114915371,100.70554163609631 57.87979435548186,105.11372501705773 56.14336357731372,125.89506767969579 63.8608337007463,130.72303434740752 71.77124057710171,125.89506767969579 72.54298758972436,104.90381167992018 65.21139097306877,100.70554163609631 57.87979435548186,105.74346493463963 56.52923708409071,125.4752440978773 62.89614993520081,130.5131229260005 71.57830382324755,125.89506767969579 72.7359243426472,105.74346493463963 64.4396439595148,100.70554163609631 58.26566786132753,105.11372501705773 56.52923708409071,125.4752440978773 65.01845421921462,131.14285714295693 71.77124057710171,124.63559674751014 72.92886109557003,105.74346493463963 64.24670720752329,100.91545528708957 57.87979435548186,106.79303115000948 56.72217383701354,125.4752440978773 64.63258071336895,130.5131229260005 71.77124057710171,125.05542045435868 73.12179784756154,106.58311793836765 69.64893629401922,101.7551097359974 64.05377045460045,100.91545528708957 57.87979435548186,106.58311793836765 57.87979435548186,126.7347146528773" stroke="#4dd2ff" stroke-linecap="round" stroke-linejoin="round" stroke-width="0.5"><title>2024-04-22 4.9km</title><desc>1713776322000</desc></polyline><polyline fill="none" points="91.50899736583233,109.80956370732747 92.9095751196146,125.23812417150475 101.13796942587942,129.619056396652 106.21506378334016,124.47622214513831 106.56520822178572,105.80955128953792 97.46145282033831,101.23810083093122 92.20928624365479,107.90479667298496 92.20928624365479,126.76192753924988 96.58609172515571,130.3809568840079 102.36347495950758,130.57143196999095 107.44056931789964,124.09527104650624 107.26549709867686,104.47621242026798 98.33681391738355,101.42857809737325 92.38435846194625,107.33336628531106 92.38435846194625,126.76192753924988 95.3605861896649,129.8095315399114 102.71361939888448,130.3809568840079 107.26549709867686,125.23812417150475 107.965785975568,105.04764344962314 100.26260832883418,100.85714625543915 93.08464733976871,105.80955128953792 91.15885292831808,124.09527104650624 93.96000843588263,129.23810606752522 99.56231945194304,130.761907042237 107.0904248803854,125.4285996418912 108.31593041494489,106.38098201947287 99.91246389038861,101.42857809737325 92.73450290132314,106.38098201947287 91.68406958598644,125.04764868575148 94.83536953199655,129.42858123942278 100.26260832883418,130.761907042237 107.26549709867686,125.04764868575148 107.965785975568,105.23812043108046 100.61275276727974,100.85714625543915 92.73450290132314,106.76193576864898 92.034214024432,126.38097678287886 95.53565840888768,130.00000666850246 101.66318608354777,130.761907042237 107.61564153805375,124.66669767303392 107.965785975568,105.42859739833511 100.08753610961139,101.23810083093122 94.83536953199655,103.14287285297178 92.55943068210036,107.14288946054876 91.33392514660954,124.28574660257436 94.13508065510541,129.04763088189065 99.21217501349747,131.14285714295693 107.26549709867686,125.23812417150475 108.49100263416767,105.80955128953792 100.61275276727974,101.23810083093122 92.73450290132314,106.57145890104584 91.50899736583233,125.23812417150475 99.38724723272026,131.14285714295693 106.74028044100851,126.76192753924988 109.01621929183602,110.00004033301957 107.61564153805375,104.47621242026798 103.93912493344396,102.00000981078483 93.96000843588263,103.90478126262315 90.98378070816398,122.76194175286219 94.13508065510541,128.85715568158776 100.26260832883418,130.761907042237 105.33970268722624,128.09525473811664 109.01621929183602,110.00004033301957 104.98955824878067,102.00000981078483 95.3605861896649,102.38096421537921 92.034214024432,107.90479667298496 92.034214024432,126.9524028962478 99.03710279427469,131.14285714295693 104.46434159111232,129.23810606752522 107.61564153805375,124.28574660257436 108.66607485245913,107.52384309563786 100.78782498650253,100.28571428591385 92.9095751196146,106.00002821418457 91.33392514660954,125.04764868575148 99.56231945194304,131.14285714295693 107.26549709867686,126.00002596899867 108.66607485245913,107.14288946054876 101.13796942587942,101.23810083093122 92.55943068210036,105.80955128953792 90.98378070816398,123.14289305103011" stroke="#4dd2ff" stroke-linecap="round" stroke-linejoin="round" stroke-width="0.5"><title>2024-04-21 5.0km</title><desc>1713688153000</desc></polyline><polyline fill="none" points="136.98605532757938,106.27525775396498 137.61322471383028,110.7484380142414 139.49473287304863,111.35496941080783 141.23687005694956,110.36935570684727 142.28215236752294,103.09094791195821 141.30655554449186,101.19552063685842 139.14630543626845,100.74061756324954 137.61322471383028,101.87787486438174 136.7073133783415,109.00465822702972 138.7978779990226,111.27915300620953 141.65498298127204,109.76282372046262 142.28215236752294,102.71186274057254 140.19158774637617,100.66480036464054 137.40416825166903,102.25696034758585 136.77699886565097,109.23210793471662 139.14630543626845,111.35496941080783 141.65498298127204,109.68700719665503 142.28215236752294,102.71186274057254 139.70378933520988,100.66480036464054 137.40416825166903,102.40859450137941 136.77699886565097,109.30792449228466 139.14630543626845,111.35496941080783 141.7246684685815,109.5353741318686 142.28215236752294,102.63604568934534 139.9128457971383,100.66480036464054 137.40416825166903,102.3327774272766 136.84668435296044,109.45955759112258 139.14630543626845,111.35496941080783 141.7246684685815,109.5353741318686 142.28215236752294,102.71186274057254 139.49473287304863,100.66480036464054 137.3344827645924,102.56022863223916 136.84668435296044,109.61119066708488 139.14630543626845,111.35496941080783 141.65498298127204,109.68700719665503 142.21246687998064,102.63604568934534 139.63410384766757,100.66480036464054 137.3344827645924,102.40859450137941 136.77699886565097,109.38374104443938 139.2856764108874,111.35496941080783 141.7246684685815,109.38374104443938 142.21246687998064,102.63604568934534 139.42504738550633,100.66480036464054 137.3344827645924,102.48441156960325 136.98605532757938,109.91445675096475 138.93724897387438,111.35496941080783 141.16718456940725,110.5209886468947 142.21246687998064,104.00075174483936 140.74907164555043,100.89225194393657 137.54353922698647,102.02950907457853 136.7073133783415,108.92884164629504 138.17070861300454,111.05170375795569 139.98253128421493,111.27915300620953 141.4459265191108,110.06608975905692 142.28215236752294,103.01513088907814 140.5400151833892,100.74061756324954 137.75259568868205,101.65042350621661 137.12542630266398,110.14190625445917 139.98253128421493,111.27915300620953 141.79435395589098,108.92884164629504 142.21246687998064,102.48441156960325 139.2856764108874,100.74061756324954 137.26479727728292,102.63604568934534 136.98605532757938,109.91445675096475 139.2856764108874,111.35496941080783 141.65498298127204,109.68700719665503 142.28215236752294,102.71186274057254 139.843160309596,100.66480036464054 137.3344827645924,102.48441156960325 136.98605532757938,109.91445675096475 139.77347482251935,111.27915300620953 141.79435395589098,108.92884164629504 141.93372493074276,101.95369197236141 139.9128457971383,100.66480036464054 137.68291020137258,101.72624063119292 136.7073133783415,108.92884164629504 137.89196666353382,110.97588733048178 134.82580521935597,114.00854000356048 134.89549070689827,118.10260671831202 129.66907915426418,118.55750199919567 128.554111356847,119.69473930809181 127.36945807165466,127.27628875867231 124.51235308940522,130.00563267845428 126.67260319786146,131.1428571428405 124.30329662724398,129.85400265362114 127.43914355896413,126.44232109497534 128.41474038199522,119.46729194832733 134.75611973227933,117.72352716169553 136.0801439920906,112.26476582523901 144.2333460135851,113.25037768605398 148.55384623003192,109.23210793471662 144.72114442521706,111.96150044462411 142.0034104178194,111.80986772011966 142.21246687998064,102.18114326230716 141.3762410315685,100.74061756324954 139.35536189819686,100.28571428568102 137.05574081512168,102.40859450137941 136.49825691618025,109.91445675096475 139.42504738550633,111.50660220324062 141.58529749372974,109.23210793471662 142.0730959053617,102.10532617126592 141.16718456940725,100.58898316026898 138.7978779990226,100.51316595001845 136.91636984050274,102.7876797861536 136.49825691618025,110.36935570684727 139.35536189819686,111.43078580999281 141.3762410315685,109.15629137092037 142.0034104178194,102.02950907457853 141.0278135947883,100.66480036464054 138.8675634865649,100.51316595001845 136.56794240348972,103.6974838913302 136.1498294796329,109.30792449228466 137.05574081512168,111.05170375795569 139.2856764108874,111.50660220324062 141.23687005694956,109.91445675096475 142.0730959053617,102.9393138604355 140.26127323391847,100.36153151286999 137.26479727728292,101.72624063119292 136.1498294796329,109.38374104443938 138.240394100314,111.35496941080783 141.3762410315685,109.30792449228466 142.14278139267117,102.40859450137941 141.09749908233061,100.66480036464054 139.70378933520988,100.36153151286999 136.42857142863795,103.24258194083814 136.01045850478113,109.76282372046262 139.07661994872615,111.50660220324062 141.4459265191108,109.23210793471662 141.86403944343328,102.02950907457853 139.5644183603581,100.36153151286999 136.7073133783415,102.56022863223916 136.1498294796329,109.5353741318686 138.7978779990226,111.5824185910169 141.4459265191108,109.15629137092037 141.86403944343328,101.95369197236141 139.49473287304863,100.36153151286999 136.84668435296044,102.10532617126592 136.1498294796329,109.30792449228466 138.7978779990226,111.43078580999281 141.30655554449186,109.68700719665503 141.93372493074276,102.10532617126592 139.49473287304863,100.36153151286999 136.56794240348972,102.63604568934534 136.28920045425184,109.38374104443938 138.8675634865649,111.43078580999281 141.3762410315685,109.30792449228466 142.0730959053617,102.10532617126592 139.843160309596,100.36153151286999 136.77699886565097,102.10532617126592 135.87108752992935,109.15629137092037 138.65850702440366,111.43078580999281 141.3762410315685,109.76282372046262 141.86403944343328,102.10532617126592 139.2856764108874,100.36153151286999 136.6376278907992,102.56022863223916 136.0801439920906,109.68700719665503 138.7978779990226,111.43078580999281 141.4459265191108,109.30792449228466 141.93372493074276,102.3327774272766 139.5644183603581,100.43734873423818 136.7073133783415,102.02950907457853 135.94077301747166,108.92884164629504 138.65850702440366,111.27915300620953 141.4459265191108,109.23210793471662 142.0034104178194,102.18114326230716 139.42504738550633,100.36153151286999 136.77699886565097,102.10532617126592 136.01045850478113,109.15629137092037 138.7281925121788,111.35496941080783 141.51561200642027,109.45955759112258 142.0730959053617,102.56022863223916 139.77347482251935,100.43734873423818 136.84668435296044,102.10532617126592 136.01045850478113,109.15629137092037 138.51913605001755,111.50660220324062 141.3762410315685,109.38374104443938 142.21246687998064,102.40859450137941 141.30655554449186,100.81643475638703 139.5644183603581,100.43734873423818 136.7073133783415,102.02950907457853 136.01045850478113,109.23210793471662 138.51913605001755,111.35496941080783 141.51561200642027,109.30792449228466 141.86403944343328,102.18114326230716 141.16718456940725,100.89225194393657 139.2159909233451,100.43734873423818 136.49825691618025,102.18114326230716 136.1498294796329,109.38374104443938 139.00693446118385,111.35496941080783 141.30655554449186,109.76282372046262 141.86403944343328,101.87787486438174 139.35536189819686,100.36153151286999 136.84668435296044,100.96806912560714 136.01045850478113,102.25696034758585" stroke="#4dd2ff" stroke-linecap="round" stroke-linejoin="round" stroke-width="0.5"><title>2024-04-18 12.3km</title><desc>1713432540000</desc></polyline><polyline fill="none" points="181.08203694876283,123.53146074223332 179.9475687975064,104.40002000611275 172.19536976888776,100.69714513490908 166.3339509917423,106.25145557220094 165.19948284048587,126.20573755423538 171.06090161856264,130.73143084859475 176.35508632101119,129.7028648450505 179.56941274739802,125.38288342696615 180.32572484761477,104.40002000611275 175.78785224538296,100.69714513490908 170.49366754386574,100.90286053647287 165.95579494163394,106.04574057040736 165.19948284048587,125.58859698218293 168.60288729239255,130.32000449346378 173.70799397025257,131.14285714295693 179.75849077198654,124.56002905406058 180.892958923243,106.25145557220094 173.14075989462435,100.28571428591385 165.95579494163394,106.4571705579292 165.01040481589735,125.38288342696615 170.30458951927722,130.73143084859475 179.0021786717698,126.41145104682073 180.892958923243,107.48574525653385 179.0021786717698,102.96001370437443 173.14075989462435,100.28571428591385 166.14487296622247,105.84002555371262 165.01040481589735,125.58859698218293 170.49366754386574,130.93714400357567 176.35508632101119,129.49715159810148 179.19125669728965,125.38288342696615 180.32572484761477,105.84002555371262 172.00629174523056,100.28571428591385 166.3339509917423,106.25145557220094 165.19948284048587,125.79431052110158 172.95168187003583,131.14285714295693 179.3803347228095,124.97145627159625 179.9475687975064,105.42859547398984 176.35508632101119,101.72572198789567 169.54827741812915,101.3142912928015 166.3339509917423,106.4571705579292 165.57763889152557,126.41145104682073 174.27522804494947,130.32000449346378 179.3803347228095,122.70860581495799 179.75849077198654,104.81145023973659 174.65338409505785,101.10857592220418 169.54827741812915,101.93143731262535 165.57763889152557,111.80575479008257 167.09026309195906,129.08572505810298 173.32983791921288,130.5257176789455 178.24586657155305,126.82287798728794 180.32572484761477,107.28003034740686 178.0567885460332,102.96001370437443 172.95168187003583,101.3142912928015 166.3339509917423,103.57715935469605 164.63224876578897,107.691460150294" stroke="#4dd2ff" stroke-linecap="round" stroke-linejoin="round" stroke-width="0.5"><title>2024-04-17 3.1km</title><desc>1713344929000</desc></polyline><polyline fill="none" points="20.495580337010324,141.51431791647337 18.722973188385367,156.557180685224 22.799969629384577,162.1500175362453 27.586008929647505,163.50001082057133 33.25835180282593,159.45002884720452 35.20821966603398,141.12860233173706 28.826833933591843,135.5357198761776 21.204623196274042,140.74288668995723 20.141058906912804,158.87145947501995 26.699705354869366,163.88572305766866 33.61287323292345,159.45002884720452 35.03095895238221,141.51431791647337 28.295051788911223,135.5357198761776 21.204623196274042,141.51431791647337 19.963798192329705,158.29288997221738 26.345183925703168,163.30715468036942 33.61287323292345,159.06431594630703 35.03095895238221,141.70717568672262 29.713137506507337,136.11429448635317 21.55914462544024,140.35717099066824 19.963798192329705,158.67860298790038 26.522444640286267,163.50001082057133 33.61287323292345,158.87145947501995 35.20821966603398,142.0928911846131 29.00409464817494,135.9214362972416 21.55914462544024,140.55002884729765 20.141058906912804,157.90717689786106 22.09092677012086,161.57144876965322 27.231487499549985,163.50001082057133 33.61287323292345,159.06431594630703 35.03095895238221,140.55002884729765 27.408748215064406,135.72857809439301 21.55914462544024,140.55002884729765 20.318319622427225,158.87145947501995 27.05422678589821,164.07857915456407 33.43561251834035,159.25717240362428 35.20821966603398,141.12860233173706 28.826833933591843,135.72857809439301 21.91366605553776,140.74288668995723 19.963798192329705,157.90717689786106 23.154491058550775,162.5357299754396 27.940530359745026,163.6928669461049 33.61287323292345,159.06431594630703 34.67643752228469,140.9357445181813 27.763269644230604,135.72857809439301 21.91366605553776,140.74288668995723 20.495580337010324,157.90717689786106 25.10435892175883,163.50001082057133 33.25835180282593,159.25717240362428 35.20821966603398,142.0928911846131 28.649573219008744,135.72857809439301 21.91366605553776,140.35717099066824 20.318319622427225,157.52146376646124 25.10435892175883,163.50001082057133 33.25835180282593,159.64288527565077 35.562741097062826,141.9000334427692 29.35861607734114,136.30715266079642 21.91366605553776,140.35717099066824 19.963798192329705,158.10003344202414 26.167923210188746,163.88572305766866 33.43561251834035,159.06431594630703 35.03095895238221,140.9357445181813 29.00409464817494,135.9214362972416 24.395316063426435,136.88572709774598 21.91366605553776,140.74288668995723 20.318319622427225,159.25717240362428 26.876966070383787,163.88572305766866 33.79013394750655,158.67860298790038 35.03095895238221,140.74288668995723 27.763269644230604,136.11429448635317 21.55914462544024,140.9357445181813 20.495580337010324,158.87145947501995 26.699705354869366,163.50001082057133 33.61287323292345,158.4857464870438 35.03095895238221,141.12860233173706 28.826833933591843,135.9214362972416 21.91366605553776,140.1643131193705 20.141058906912804,159.06431594630703 25.99066249653697,163.6928669461049 33.08109108824283,159.64288527565077 35.20821966603398,141.32146013132297 27.940530359745026,135.9214362972416 20.850101767107844,139.5857394183986 18.722973188385367,158.10003344202414 23.863533918745816,164.27143523679115 29.18135536275804,164.4642913050484 34.14465537760407,160.99287987290882 35.740001811645925,145.37147058406845 31.663005370646715,135.15000339783728 26.876966070383787,134.57142857159488 21.91366605553776,138.23573361127637 18.36845175921917,155.0143270054832 20.318319622427225,163.11429852549918 24.749837492592633,165.42857142863795 30.776701795868576,164.27143523679115 35.917262526229024,156.9428939614445" stroke="#4dd2ff" stroke-linecap="round" stroke-linejoin="round" stroke-width="0.5"><title>2024-04-15 5.9km</title><desc>1713172666000</desc></polyline><polyline fill="none" points="66.54035700275563,137.83959398471052 66.74992842134088,144.07188028487144 68.2867854917422,145.5159411674249 70.31264253892004,145.3639348554425 72.12892816751264,143.23584409890464 72.47821386507712,136.31951835594373 69.33464258513413,134.57142857142026 66.95949984015897,137.07955645472975 66.68007128196768,143.6918639219366 67.93749979394488,145.3639348554425 69.68392828293145,145.59194431477226 72.19878530711867,143.53985733707668 72.2686424467247,135.71148746774998 69.68392828293145,134.6474325377494 67.44849981693551,136.09150681545725 66.54035700275563,143.15984077512985 68.216928352369,145.43993801414035 70.66192823671736,145.3639348554425 72.2686424467247,143.76786720595555 72.75764242350124,136.6995374765247 70.31264253892004,134.7234364981996 67.029356979765,136.7755412834813 66.4704998631496,142.85582742339466 68.56621404993348,145.59194431477226 71.91935674869455,144.2998900343082 72.75764242350124,136.9275488803396 70.80164251592942,134.8754444021033 67.44849981693551,136.09150681545725 66.54035700275563,143.38785072928295 68.49635691056028,145.59194431477226 71.7097853301093,144.60390295402613 72.82749956310727,137.38357153494144 71.43035677215084,135.02745228342246 69.75378542253748,134.7234364981996 67.51835695654154,135.9394990936271 66.61021414236166,143.00783411064185 68.35664263134822,145.5159411674249 71.7097853301093,144.60390295402613 72.2686424467247,135.71148746774998 69.05521402694285,134.8754444021033 67.0992141191382,136.9275488803396 66.74992842134088,143.76786720595555 69.75378542253748,145.59194431477226 72.19878530711867,143.6158606322715 72.61792814475484,136.7755412834813 70.10307112010196,134.79944045294542 67.0992141191382,136.7755412834813 66.61021414236166,143.76786720595555 69.12507116631605,145.59194431477226 71.98921388853341,143.6918639219366 72.61792814475484,136.85154508473352 69.89349970174953,134.6474325377494 67.16907125874422,136.62353366374737 66.61021414236166,143.84387048421195 68.91549974773079,145.59194431477226 70.94135679490864,145.28793169086566 72.19878530711867,143.6918639219366 72.68778528412804,136.62353366374737 70.03321398096159,134.7234364981996 67.16907125874422,136.6995374765247 66.74992842134088,143.53985733707668 69.05521402694285,145.59194431477226 71.91935674869455,144.22388679004507 72.75764242350124,136.6995374765247 70.03321398096159,134.7234364981996 67.23892839858308,136.39552219142206 66.68007128196768,143.3118474171497 68.77578546875156,145.59194431477226 71.91935674869455,144.14788354031043 72.68778528412804,137.00355267047416 70.45235681836493,134.79944045294542 67.37864267756231,136.16751066799043 66.61021414236166,143.6918639219366 68.91549974773079,145.6679474566481 71.98921388853341,144.22388679004507 72.68778528412804,136.9275488803396 70.45235681836493,134.79944045294542 66.54035700275563,136.31951835594373 66.12121416558512,144.07188028487144 64.44464281620458,146.9599999974016 65.35278563015163,152.12819373002276 59.13550020940602,153.4962406118284 57.31921458081342,160.86846154456725 54.31535757984966,164.13654237246374 58.01778597640805,165.42857142857974" stroke="#4dd2ff" stroke-linecap="round" stroke-linejoin="round" stroke-width="0.5"><title>2024-04-14 5.4km</title><desc>1713087921000</desc></polyline><polyline fill="none" points="90.83549600187689,155.35280698980205 95.27304530609399,164.16910285199992 103.5693331360817,164.58892577374354 107.81394551414996,157.66183953615837 108.0068824402988,137.93004561169073 99.71059461031109,135.2011695727706 94.115423749201,140.6589189961087 92.5719283381477,159.551046569366 95.85185608547181,163.74927986809053 101.06115309428424,164.79883721098304 107.42807166092098,159.1312228939496 108.77863014489412,139.81926592974924 100.28940538968891,134.78134225378744 93.92248682212085,141.07874543545768 92.5719283381477,159.76095838355832 99.51765768416226,164.58892577374354 107.23513473477215,160.18078196421266 109.35744092427194,141.91839812509716 102.60464850440621,134.78134225378744 94.6942345276475,138.97961261169985 92.95780219137669,159.34113473934121 99.71059461031109,165.00874863239005 107.04219780862331,160.81051721796393 108.97156707197428,141.28865863126703 101.63996387273073,134.99125592107885 94.50129760056734,139.81926592974924 92.37899141199887,158.92131103295833 98.5529730534181,165.42857142863795 107.23513473477215,160.390693731606 109.35744092427194,142.1283112585079 103.37639620993286,135.2011695727706 94.6942345276475,139.609352623811 92.76486526429653,158.50148726301268 98.93884690571576,164.58892577374354 107.04219780862331,161.0204289383255 109.16450399719179,141.28865863126703 101.83290079981089,134.78134225378744 94.6942345276475,139.39943930250593 92.76486526429653,158.71139915543608 97.39535149559379,164.58892577374354 103.95520698837936,164.16910285199992 107.42807166092098,160.6006054827012 108.97156707197428,140.86883222381584 101.83290079981089,134.78134225378744 94.6942345276475,139.1895259649027 92.95780219137669,159.76095838355832 99.51765768416226,165.42857142863795 107.81394551414996,159.76095838355832 108.97156707197428,139.81926592974924 101.4470269465819,134.78134225378744 94.115423749201,140.23909249459393 92.37899141199887,159.34113473934121 99.71059461031109,165.00874863239005 107.42807166092098,159.551046569366 109.16450399719179,140.86883222381584 101.4470269465819,134.57142857136205 94.50129760056734,139.1895259649027 92.76486526429653,157.8717514909804 97.39535149559379,164.58892577374354 107.42807166092098,160.390693731606 108.97156707197428,139.81926592974924 102.79758543055505,134.78134225378744 94.50129760056734,139.1895259649027 92.95780219137669,159.34113473934121 98.16709920018911,164.79883721098304 107.04219780862331,160.81051721796393 109.16450399719179,142.1283112585079 102.79758543055505,134.57142857136205 94.50129760056734,138.97961261169985 92.76486526429653,158.71139915543608 98.93884690571576,164.79883721098304 107.04219780862331,160.81051721796393 109.35744092427194,140.6589189961087 104.53401776775718,135.4110832081642 97.78122534789145,135.4110832081642 91.80018063355237,148.21578528895043 91.60724370740354,158.71139915543608 90.64255907572806,154.51315831998363" stroke="#4dd2ff" stroke-linecap="round" stroke-linejoin="round" stroke-width="0.5"><title>2024-04-13 4.9km</title><desc>1713000859000</desc></polyline><polyline fill="none" points="127.48649923782796,147.54326526261866 128.93168262112886,161.69428679114208 133.26723277568817,164.4458654592745 139.95120592787862,164.0527829688508 142.84157269634306,156.7807462872006 143.38351646531373,139.2884675061796 135.43500785157084,135.75068909930997 129.47362639103085,142.04006964014843 128.3897388521582,158.9427052407991 131.82204939145595,162.8735351448413 137.06083915941417,163.46315912343562 142.4802768509835,158.74616359150968 143.56416438892484,139.2884675061796 135.61565577425063,135.75068909930997 129.47362639103085,143.02278398978524 128.75103469844908,158.9427052407991 135.79630369786173,163.85624170210212 142.2996289273724,159.33578849607147 144.1061081578955,141.25389789580368 137.60278292838484,135.5541457142681 130.37686600536108,140.07463983795606 128.93168262112886,158.54962192685343 135.25435992889106,163.65970041952096 142.2996289273724,158.9427052407991 144.1061081578955,141.05735492310487 137.78343085106462,135.35760231525637 130.37686600536108,140.4677259165328 128.93168262112886,158.9427052407991 135.61565577425063,163.85624170210212 142.2996289273724,159.53233010158874 144.1061081578955,140.4677259165328 136.69954331312329,135.35760231525637 130.19621808361262,140.8608119355049 129.29297846835107,160.12195482989773 137.96407877467573,163.65970041952096 142.84157269634306,157.7634551229421 143.20286854263395,136.9299490971025 133.98982446733862,134.9645154727623 128.93168262112886,141.64698379696347 127.84779508411884,160.12195482989773 132.3639931594953,164.64240668271668 137.06083915941417,165.03548908489756 143.9254602342844,159.13924687588587 144.2867560805753,137.9126653582789 135.79630369786173,134.57142857159488 128.75103469844908,140.4677259165328 127.48649923782796,160.12195482989773 130.91880977526307,164.8389478912577 136.8801912367344,165.23203026433475 144.1061081578955,158.3530802479945 144.82869985047728,139.0919243863318 134.89306408260018,135.1610589013435 128.20909093040973,141.45044085383415 127.48649923782796,159.9254132679198 134.5317682363093,165.42857142863795 143.20286854263395,160.51503790798597 145.7319394648075,141.84352672612295 141.39638931211084,135.1610589013435 132.3639931594953,135.9472324687522 128.20909093040973,142.4331554241944 128.93168262112886,160.31849637627602 137.42213500570506,164.24932422162965 142.66092477366328,159.13924687588587 144.2867560805753,141.45044085383415 141.03509346675128,136.5368624900002 136.3382474668324,135.1610589013435 129.65427431464195,140.8608119355049 129.11233054473996,158.74616359150968 135.43500785157084,163.65970041952096 142.66092477366328,159.13924687588587 144.1061081578955,141.05735492310487 137.60278292838484,135.35760231525637 130.01557016000152,140.8608119355049 129.11233054473996,158.9427052407991 134.5317682363093,164.0527829688508 140.3125017741695,162.8735351448413 143.02222061995417,158.9427052407991 144.4674040041864,141.05735492310487 137.96407877467573,135.35760231525637 128.93168262112886,141.25389789580368 127.12520339153707,157.17382986540906" stroke="#4dd2ff" stroke-linecap="round" stroke-linejoin="round" stroke-width="0.5"><title>2024-04-12 5.1km</title><desc>1712913892000</desc></polyline><polyline fill="none" points="157.71428571478464,141.91791043285048 157.42857142863795,146.2698520553531 159.2571428574156,148.32147377345245 162.11428571445867,147.01589690247783 162.8571428572759,141.29620262642857 162.34285714291036,139.9906147190486 160.74285714305006,139.24456356529845 158.4000000001397,140.55015264474787 157.7714285715483,146.33202248474117 159.2571428574156,148.13496291748015 162.17142857145518,146.89155614108313 162.80000000004657,141.29620262642857 161.02857142873108,139.3067345204181 158.51428571459837,140.42581091605825 157.82857142877765,146.2698520553531 159.7142857145518,148.25930349278497 162.05714285746217,147.20240800949978 162.8571428572759,141.54488580481848 161.02857142873108,139.24456356529845 158.51428571459837,140.42581091605825 157.82857142877765,146.20768162119202 159.20000000018626,148.13496291748015 162.05714285746217,147.20240800949978 162.7428571432829,141.17186100932304 160.91428571450524,139.36890547082294 158.51428571459837,140.36364004464122 157.82857142877765,145.95899983815616 159.02857142873108,148.01062232343247 160.74285714305006,148.13496291748015 162.17142857145518,147.01589690247783 162.80000000004657,141.60705658770166 162.22857142891735,139.9284438150935 159.2571428574156,139.49324735760456 158.22857142891735,141.04751937370747 157.42857142863795,147.07806727616116 163.4857142858673,149.31619763182243 165.42857142863795,148.69449535978492 167.82857142877765,146.33202248474117 171.3142857144121,147.4510894206469 172.11428571445867,149.06751677888678 171.9428571430035,153.54376074805623 175.19999999995343,157.89564149430953 180.8000000002794,159.9472345142276 186.57142857159488,160.75543643475976 188.28571428591385,159.6363874124945 188.11428571445867,149.19185721460963 187.37142857140861,149.50270822271705 187.14285714295693,151.55432196019683" stroke="#4dd2ff" stroke-linecap="round" stroke-linejoin="round" stroke-width="0.5"><title>2024-04-11 3.0km</title><desc>1712828151000</desc></polyline><polyline fill="none" points="19.732216477394104,175.4267580898013 19.00030134897679,193.54288576659746 21.744983077980578,198.12166774296202 26.86838896945119,199.51520852046087 35.28541293554008,194.14011864480563 36.56626440864056,174.63044195598923 28.881155570037663,168.8571428572759 21.37902551330626,172.63965057814494 19.18328013177961,193.1447304401081 24.855622368864715,199.1170540873427 31.442858515307307,198.32074504182674 34.91945537086576,194.737351389369 36.74924318958074,176.02399503416382 30.71094338875264,169.45438127592206 25.038601150736213,169.8525401474908 21.196046732366085,173.83412558352575 18.634343786165118,192.9456527538132 26.1364738419652,199.71428571431898 34.91945537086576,195.5336615066044 37.29817953519523,178.81109900167212 36.56626440864056,173.03780897310935 33.08966755308211,170.05161956045777 26.1364738419652,169.05622234521434 21.927961858920753,171.2460957276635 16.98753474932164,178.81109900167212 19.18328013177961,193.3438081103377 22.84285576827824,198.7188995941542 29.79604947846383,199.31613131100312 34.73647658992559,195.13550647813827 36.383285626769066,177.41754738288 31.808816079981625,169.45438127592206 26.319452623836696,168.8571428572759 21.37902551330626,171.84333361010067 19.18328013177961,193.1447304401081 24.123707241378725,199.1170540873427 30.71094338875264,198.91797684831545 35.468391716480255,193.3438081103377 37.115200754255056,176.82031075120904 34.37051902525127,171.64425433054566 29.06413435190916,169.05622234521434 21.196046732366085,172.4405713584274 19.00030134897679,192.74657505308278 24.306686023250222,198.91797684831545 30.71094338875264,198.7188995941542 35.65137049835175,193.54288576659746 36.932221971452236,176.82031075120904 31.9917948609218,169.45438127592206 22.659876986406744,170.25069895898923 19.91519525833428,175.62583708623424 19.732216477394104,195.33458399982192 28.698176788166165,199.31613131100312 34.91945537086576,193.54288576659746 35.65137049835175,175.62583708623424 33.08966755308211,171.0470164041035 27.966261660680175,169.8525401474908 21.37902551330626,175.02860005246475 19.91519525833428,192.9456527538132 27.417325315065682,198.91797684831545 34.55349780712277,194.14011864480563 35.83434928115457,177.01938964310102 34.004561461508274,172.2414921238087 29.06413435190916,169.8525401474908 21.37902551330626,174.82952101156116 19.00030134897679,193.1447304401081 26.1364738419652,199.71428571431898 31.076900952495635,199.31613131100312 33.272646334953606,195.5336615066044 35.65137049835175,176.6212318444159 29.79604947846383,170.25069895898923 25.22157993260771,170.64885771111585 21.562004295177758,175.02860005246475 19.91519525833428,192.34841960738413 26.319452623836696,198.51982232555747 34.004561461508274,195.13550647813827 35.65137049835175,175.62583708623424 29.430091915652156,170.05161956045777 21.744983077980578,175.02860005246475 20.098174040205777,192.74657505308278 26.1364738419652,198.7188995941542 34.187540244311094,193.7419634081889 35.65137049835175,175.62583708623424 28.698176788166165,170.25069895898923 21.37902551330626,175.22767907870002 19.91519525833428,192.9456527538132 27.600304097868502,198.91797684831545 34.004561461508274,194.53827382274903 35.468391716480255,175.02860005246475 29.24711313378066,170.25069895898923 21.562004295177758,174.03320469870232 19.36625891365111,192.74657505308278 25.404558714479208,198.7188995941542 34.004561461508274,195.13550647813827 36.383285626769066,176.6212318444159 29.430091915652156,170.25069895898923 24.672643586993217,171.0470164041035 19.91519525833428,176.42215292272158 18.451365003362298,192.34841960738413" stroke="#4dd2ff" stroke-linecap="round" stroke-linejoin="round" stroke-width="0.5"><title>2024-04-09 5.6km</title><desc>1712653834000</desc></polyline><polyline fill="none" points="55.45533837284893,174.48520256881602 55.09858715441078,192.72779494547285 58.13097250368446,198.16173383616842 62.411987114697695,198.93800989119336 67.40650415979326,197.96766478568316 70.97401633579284,193.31000322825275 72.57939681503922,174.09706091159023 69.54701146576554,170.02157000638545 64.01736759394407,168.85714285704307 56.703967632725835,174.67927337531 55.45533837284893,193.50407262681983 63.48224076721817,199.32614783174358 70.97401633579284,193.31000322825275 72.22264559753239,175.0674149459228 67.94163098651916,169.827498851344 64.19574320223182,169.43935649702325 56.703967632725835,175.0674149459228 54.74183593690395,192.33965601795353 58.13097250368446,197.77359572146088 63.3038651579991,199.32614783174358 71.15239194501191,193.115933815483 72.75777242332697,175.84369791136123 65.97949928976595,169.05121408496052 59.20122615620494,170.4097122733947 56.16884080693126,174.29113174742088 55.09858715441078,193.89221138041466 62.7687383312732,199.1320788685698 70.79564072750509,193.89221138041466 72.57939681503922,174.29113174742088 70.08213829249144,170.60378338489681 64.55249441973865,169.05121408496052 56.34721641615033,174.67927337531 55.09858715441078,194.28035007533617 62.7687383312732,199.71428571431898 70.61726511828601,194.28035007533617 72.57939681503922,173.90299006155692 64.37411881051958,169.2452852986753 56.703967632725835,173.70891919685528 54.56346032768488,193.50407262681983 60.62823102623224,199.71428571431898 65.44437246397138,199.1320788685698 70.26051390077919,194.28035007533617 72.40102120675147,174.29113174742088 70.08213829249144,170.60378338489681 64.01736759394407,169.05121408496052 56.16884080693126,174.87334416783415 54.92021154612303,194.28035007533617 57.95259689539671,198.35580287128687 62.7687383312732,199.52021678024903 70.61726511828601,194.47441940172575 72.75777242332697,174.87334416783415 70.43888950906694,170.7978544817306 64.37411881051958,169.2452852986753 56.34721641615033,173.70891919685528 54.38508471939713,192.33965601795353 60.27147980872542,199.1320788685698 65.80112368054688,199.1320788685698 70.26051390077919,195.25069656036794 72.93614803254604,178.5606864618603 69.36863585654646,169.827498851344 58.66609932947904,170.60378338489681 55.81208958942443,175.4555564573966 55.276962763629854,194.8625580095686 59.37960176542401,198.93800989119336 64.37411881051958,199.32614783174358 71.33076755329967,192.53372548962943 72.57939681503922,175.4555564573966 69.72538707405329,170.7978544817306 62.7687383312732,169.05121408496052 56.16884080693126,174.29113174742088 54.56346032768488,193.50407262681983 62.59036272298545,199.71428571431898 70.79564072750509,194.28035007533617 72.57939681503922,174.67927337531 70.61726511828601,171.1859966327902 64.55249441973865,168.85714285704307 59.20122615620494,170.7978544817306 55.81208958942443,175.84369791136123 55.99046519771218,193.31000322825275 62.94711394049227,198.16173383616842 69.72538707405329,193.69814201095141 70.97401633579284,174.87334416783415 65.08762124646455,170.02157000638545 55.63371398020536,176.42590998322703 54.20670911017805,191.17523888638243" stroke="#4dd2ff" stroke-linecap="round" stroke-linejoin="round" stroke-width="0.5"><title>2024-04-08 5.0km</title><desc>1712568268000</desc></polyline><polyline fill="none" points="91.21308487746865,180.21564411045983 93.12706638872623,194.79231268865988 97.82502100989223,197.44260704610497 103.56696554459631,195.9281534673646 107.39492856804281,191.00617307797074 106.87293361127377,171.50746437651105 98.86901092436165,168.8571428572759 92.43107311241329,175.67224972718395 92.08307647332549,194.6030058430042 96.43303445540369,198.01052690390497 103.91496218368411,197.0639937366359 107.04693192988634,191.57409438071772 107.22093024943024,171.69677295046858 97.47702437080443,169.61437786044553 92.08307647332549,177.94394793827087 91.90907815471292,194.03508521988988 96.95502941310406,197.8212202989962 103.56696554459631,197.0639937366359 107.39492856804281,191.57409438071772 107.04693192988634,171.31815578858368 97.82502100989223,169.61437786044553 92.60507143102586,175.1043248558417 91.38708319701254,193.08855056506582 99.04300924390554,198.5784466350451 106.87293361127377,192.70993660390377 108.09092184621841,174.91501653729938 105.13295041862875,170.18230396392755 100.43499579839408,169.23576038749889 95.56304285861552,170.560921295546 92.95306807011366,174.7257082038559 91.90907815471292,193.65647140005603 95.04104790091515,197.44260704610497 101.8269823519513,197.8212202989962 107.04693192988634,192.70993660390377 107.56892688758671,173.0219325700309 101.65298403333873,169.04645162913948 93.12706638872623,174.15778311993927 91.56108151655644,192.70993660390377 94.51905294321477,197.0639937366359 98.86901092436165,198.01052690390497 106.69893529172987,193.84577831742354 108.43891848437488,175.67224972718395 106.0029420144856,171.1288471869193 100.08699915930629,169.61437786044553 94.69305126275867,172.2646985866595 92.25707479286939,176.9974072650075 91.90907815471292,195.54953993158415 94.69305126275867,198.5784466350451 100.78299243748188,198.7677531838417 106.69893529172987,192.52062960225157 108.43891848437488,174.53639985667542 100.60899411700666,169.4250691307243 93.12706638872623,174.3470914955251 91.03908655792475,193.46716446941718 97.12902773171663,199.52497923653573 106.69893529172987,192.89924359158613 108.26492016483098,174.91501653729938 104.95895209908485,169.99299527704716 100.43499579839408,169.23576038749889 92.77906975056976,174.7257082038559 91.73507983516902,193.46716446941718 99.73900252114981,198.19983349530958 106.69893529172987,192.14201555610634 108.09092184621841,173.5898579088971 100.60899411700666,169.61437786044553 92.77906975056976,175.1043248558417 91.56108151655644,192.70993660390377 95.04104790091515,197.0639937366359 100.26099747978151,198.19983349530958 106.87293361127377,192.14201555610634 108.09092184621841,173.5898579088971 104.95895209908485,170.18230396392755 98.3470159675926,169.61437786044553 92.08307647332549,177.56533171166666 91.56108151655644,195.36023314180784 94.51905294321477,198.7677531838417 101.65298403333873,198.38914007227868 107.04693192988634,191.57409438071772 107.22093024943024,172.07539005530998 99.39100588299334,168.8571428572759 92.60507143102586,175.1043248558417 91.56108151655644,192.89924359158613 96.60703277401626,197.8212202989962 101.65298403333873,197.63191367941909 107.22093024943024,191.384787294548 108.09092184621841,173.96847473015077 105.13295041862875,170.18230396392755 99.21700756344944,169.4250691307243 92.43107311241329,175.67224972718395 92.25707479286939,194.22439210815355 97.12902773171663,198.5784466350451 103.56696554459631,197.63191367941909 107.74292520806193,186.65210552350618 106.0029420144856,172.2646985866595 96.08503781631589,170.93953857035376 91.38708319701254,181.54079926898703 92.08307647332549,196.68538036989048 96.08503781631589,199.33567274478264 102.69697394873947,198.01052690390497 107.22093024943024,191.1954801932443 108.61291680391878,176.24017447140068 106.87293361127377,171.50746437651105 100.78299243748188,169.61437786044553 95.56304285861552,171.1288471869193 91.38708319701254,181.35149143170565 92.08307647332549,196.68538036989048 95.91103949770331,199.14636623836122 102.87097226828337,197.8212202989962 107.22093024943024,191.1954801932443 107.04693192988634,172.07539005530998 97.9990193285048,169.4250691307243 92.25707479286939,177.18671542801894 92.60507143102586,194.79231268865988 97.9990193285048,199.14636623836122 104.08896050229669,198.7677531838417 107.39492856804281,194.22439210815355 107.56892688758671,172.8326240950264 97.30302605219185,169.4250691307243 91.90907815471292,176.6187908963766 91.03908655792475,194.41369898268022 93.82305966690183,198.5784466350451 99.91300084069371,199.52497923653573 107.22093024943024,192.33132258593105 107.91692352667451,173.4005494765006 98.1730176480487,169.61437786044553 91.73507983516902,177.37602357706055 91.21308487746865,195.54953993158415 94.51905294321477,198.9570597182028 100.08699915930629,199.33567274478264 105.30694873724133,196.68538036989048 107.74292520806193,191.76340145338327 108.43891848437488,173.4005494765006 98.86901092436165,169.23576038749889 91.90907815471292,175.86155798938125 91.21308487746865,194.79231268865988 94.3450546246022,198.38914007227868 100.78299243748188,199.71428571431898 107.04693192988634,194.6030058430042 108.43891848437488,174.15778311993927 106.0029420144856,170.75022993981838 99.39100588299334,169.23576038749889 92.43107311241329,174.7257082038559 90.51709160022438,193.08855056506582 92.77906975056976,197.25330039812252 97.82502100989223,199.33567274478264 106.69893529172987,194.6030058430042 108.61291680391878,175.67224972718395 100.95699075609446,169.23576038749889 93.12706638872623,174.15778311993927 91.21308487746865,192.70993660390377 99.56500420160592,199.33567274478264 107.39492856804281,194.79231268865988 109.13491176161915,176.6187908963766 105.8289436949417,171.31815578858368 100.95699075609446,169.61437786044553 92.77906975056976,174.7257082038559 91.03908655792475,193.27785752434283 93.6490613464266,197.44260704610497 99.56500420160592,199.33567274478264 107.56892688758671,193.65647140005603 108.78691512253135,176.6187908963766 106.52493697218597,172.07539005530998 100.60899411700666,169.23576038749889 92.60507143102586,174.91501653729938 91.38708319701254,193.84577831742354 94.1710563050583,197.63191367941909 99.56500420160592,199.14636623836122 106.87293361127377,194.41369898268022 108.43891848437488,175.86155798938125 100.43499579839408,169.61437786044553 92.60507143102586,175.67224972718395 91.21308487746865,194.03508521988988 99.91300084069371,198.7677531838417 107.22093024943024,193.27785752434283 108.78691512253135,175.29363316041417 99.91300084069371,169.4250691307243 92.43107311241329,175.67224972718395 91.38708319701254,193.27785752434283 99.73900252114981,198.7677531838417 107.04693192988634,193.65647140005603 108.26492016483098,175.1043248558417 104.61095546092838,170.37161263707094 99.56500420160592,169.61437786044553 92.77906975056976,176.05086623714305 91.03908655792475,193.46716446941718 98.69501260574907,199.33567274478264 107.04693192988634,195.17092633852735 109.48290839977562,176.8080990880262 106.3509386535734,170.93953857035376 96.43303445540369,170.37161263707094 92.43107311241329,176.24017447140068 91.38708319701254,191.00617307797074" stroke="#4dd2ff" stroke-linecap="round" stroke-linejoin="round" stroke-width="0.5"><title>2024-04-06 11.8km</title><desc>1712394949000</desc></polyline><polyline fill="none" points="129.06189182028174,195.9072548453696 135.87607045844197,199.71428571431898 142.3219151161611,194.30429286067374 144.53191899880767,176.87201933399774 142.3219151161611,171.06123627908528 135.50773647800088,169.45825942489319 131.08772871270776,172.46384023991413 128.5093908496201,190.49725430225953 133.29773259535432,198.11132600833662 142.3219151161611,194.90540371718816 144.71608598902822,175.87016108608805 141.21691317483783,170.86086422461085 135.1394024975598,170.25974797201343 130.9035617224872,173.46569976164028 128.69355783984065,192.10021856543608 133.48189958557487,198.31169602368027 141.76941414549947,195.7068846495822 144.16358501743525,176.2709044299554 140.11191123258322,170.460120071657 134.21856754645705,170.460120071657 130.71939473226666,174.06681529525667 128.69355783984065,191.49910707911476 132.56106463447213,197.91095597739331 141.9535811347887,195.50651443912648 144.3477520076558,176.2709044299554 139.00690929125994,170.05937585770153 130.53522774204612,173.66607162123546 128.141056869179,193.30244113365188 134.95523550733924,198.71243601082824 142.50608210545033,194.10392254497856 144.53191899880767,176.47127607930452 142.13774812500924,171.66235235217027 137.5335733704269,169.65863158437423 129.98272677045316,174.26718710944988 128.141056869179,191.8998480848968 134.21856754645705,198.51206602482125 142.69024909567088,193.90355221461505 144.3477520076558,176.0705327654723 137.34940638020635,169.65863158437423 130.3510607527569,174.06681529525667 128.69355783984065,192.50095948111266 134.95523550733924,198.71243601082824 142.69024909567088,193.90355221461505 144.16358501743525,174.86830246285535 136.7969054095447,169.8590037287213 130.3510607527569,174.26718710944988 128.8777248300612,193.10207074251957 136.06023744866252,198.51206602482125 143.05858307611197,193.50281150848605 144.53191899880767,175.46941768168472 137.90190734993666,169.8590037287213 129.98272677045316,174.86830246285535 128.69355783984065,193.10207074251957 135.323569486849,198.71243601082824 142.87441608682275,194.10392254497856 144.53191899880767,175.66978939133696 137.1652393899858,169.8590037287213 129.98272677045316,174.86830246285535 128.5093908496201,193.10207074251957 136.06023744866252,198.71243601082824 142.69024909567088,194.10392254497856 144.3477520076558,175.66978939133696 138.08607434108853,169.65863158437423 130.16689376160502,174.06681529525667 128.69355783984065,192.3005890303757 134.58690152689815,198.51206602482125 139.927744243294,197.51021587080322 142.87441608682275,193.90355221461505 144.53191899880767,175.0686742174439 137.90190734993666,169.65863158437423 130.53522774204612,173.86644346592948 128.5093908496201,192.3005890303757 134.0344005562365,198.51206602482125 142.50608210545033,194.70503344689496 144.3477520076558,175.87016108608805 138.4544083205983,169.25788725097664 130.71939473226666,173.46569976164028 128.5093908496201,192.50095948111266 134.77106851618737,198.51206602482125 140.48024521395564,197.30984579515643 143.24275006633252,193.30244113365188 143.97941802814603,174.66793069359846 136.61273841932416,169.45825942489319 129.98272677045316,174.46755890897475 128.69355783984065,193.70318186865188 135.50773647800088,198.71243601082824 142.87441608682275,193.50281150848605 144.3477520076558,175.66978939133696 137.34940638020635,169.65863158437423 129.79855978116393,175.26904595736414 128.69355783984065,192.50095948111266 135.323569486849,198.51206602482125 142.69024909567088,194.30429286067374 144.3477520076558,175.87016108608805 136.7969054095447,169.65863158437423 130.16689376160502,174.66793069359846 128.69355783984065,193.30244113365188 133.11356560513377,198.31169602368027 142.3219151161611,194.90540371718816 144.71608598902822,176.0705327654723 137.34940638020635,169.45825942489319 130.53522774204612,173.86644346592948 129.06189182028174,192.90170033695176 136.06023744866252,198.71243601082824 142.87441608682275,193.50281150848605 144.53191899880767,175.87016108608805 141.03274618368596,170.66049215570092 136.61273841932416,169.45825942489319 130.3510607527569,174.66793069359846 128.69355783984065,192.70132991694845 136.06023744866252,198.71243601082824 142.69024909567088,194.90540371718816 144.3477520076558,175.26904595736414 137.34940638020635,169.05751506146044 130.9035617224872,172.66421217424795 128.69355783984065,192.70132991694845 131.2718957029283,197.10947570460849 136.24440443888307,198.71243601082824 143.24275006633252,193.10207074251957 144.3477520076558,175.26904595736414 140.84857919439673,170.25974797201343 136.06023744866252,169.25788725097664 130.3510607527569,174.06681529525667 128.8777248300612,193.30244113365188 136.7969054095447,199.11317593720742 142.87441608682275,194.30429286067374 144.16358501743525,175.26904595736414 136.98107239976525,168.85714285704307 130.16689376160502,174.06681529525667 128.5093908496201,192.10021856543608 134.21856754645705,198.51206602482125 142.69024909567088,194.50466316123493 144.16358501743525,175.46941768168472 137.90190734993666,169.45825942489319 133.11356560513377,170.05937585770153 130.16689376160502,174.86830246285535 128.69355783984065,192.70132991694845 135.69190346915275,198.71243601082824 143.05858307611197,193.90355221461505 144.16358501743525,175.87016108608805 137.5335733704269,169.25788725097664 130.16689376160502,174.66793069359846 128.8777248300612,193.50281150848605 135.50773647800088,199.11317593720742 142.87441608682275,193.90355221461505 144.16358501743525,174.66793069359846 141.21691317483783,170.66049215570092 135.50773647800088,169.45825942489319 130.16689376160502,174.66793069359846 129.06189182028174,193.50281150848605 136.61273841932416,198.71243601082824 143.05858307611197,192.90170033695176 144.3477520076558,174.86830246285535 136.24440443888307,169.25788725097664 131.08772871270776,172.86458409321494 128.32522385939956,179.67722043441609 128.141056869179,195.1057739725802" stroke="#4dd2ff" stroke-linecap="round" stroke-linejoin="round" stroke-width="0.5"><title>2024-04-03 9.7km</title><desc>1712137473000</desc></polyline><polyline fill="none" points="161.82758768089116,187.61348747229204 166.832595910877,186.60508516663685 164.97888915985823,192.05045313364826 169.05704401433468,198.3025287182536 178.5109484512359,198.3025287182536 183.88669803272933,178.5378531466704 180.9207672290504,170.06723354454152 173.8766815699637,168.8571428572759 168.87167333811522,171.68068694882095 166.64722523652017,191.84877303498797 169.24241468962282,198.70588793535717 175.7303883228451,198.70588793535717 180.55002587847412,195.2773326651659 182.58910330664366,176.72272261464968 178.1402071006596,170.67227868456393 169.05704401433468,174.3025466722902 166.64722523652017,193.46221340401098 172.3937161685899,199.10924709262326 180.55002587847412,194.8739729351364 182.21836195513606,176.52104136929847 177.02798304893076,170.06723354454152 168.87167333811522,174.3025466722902 166.832595910877,194.06725329323672 173.13519886974245,199.51260618912056 180.55002587847412,195.07565280771814 182.58910330664366,176.31936010881327 177.5840950747952,170.4705969861243 172.3937161685899,171.07564203510992 168.50093198847026,175.10927222762257 166.46185456123203,193.46221340401098 172.57908684387803,199.71428571431898 180.3646552041173,195.07565280771814 182.40373263135552,175.71431623632088 177.5840950747952,170.4705969861243 168.50093198847026,174.90759086143225 166.46185456123203,192.4538132864982 168.87167333811522,197.69748977920972 174.06205224525183,199.51260618912056 181.10613790433854,194.26893322658725 182.40373263135552,175.91599754220806 177.39872439950705,170.2689152727835 173.3205695450306,170.2689152727835 168.50093198847026,174.70590948010795 166.46185456123203,192.6554933397565 172.0229748180136,199.51260618912056 180.17928452789783,195.88237214740366 182.58910330664366,176.72272261464968 178.88168980181217,170.67227868456393 174.06205224525183,170.4705969861243 168.6863026637584,174.70590948010795 166.64722523652017,193.0588534027338 170.91075076628476,198.90756752179004 180.55002587847412,197.89916944061406" stroke="#4dd2ff" stroke-linecap="round" stroke-linejoin="round" stroke-width="0.5"><title>2024-04-02 3.0km</title><desc>1712049520000</desc></polyline><polyline fill="none" points="20.994512317702174,212.85318244737573 19.804510094225407,229.68433553911746 23.374516766518354,233.3526507425122 28.729526774957776,233.56843384471722 32.696200856007636,229.036985313287 34.679537896066904,207.67434635269456 27.936191959306598,203.1428571427241 21.58951343037188,208.32170137297362 19.606176390312612,229.036985313287 22.977849358692765,233.13686762470752 28.53119307104498,233.56843384471722 32.696200856007636,228.82120187208056 34.679537896066904,207.89013137551956 28.134525663219392,203.1428571427241 21.58951343037188,208.10591638227925 19.407842686399817,228.38963494170457 26.34952232707292,234.0 32.696200856007636,229.2527687381953 34.8778715999797,208.7532713059336 28.92786047887057,203.1428571427241 21.58951343037188,208.10591638227925 19.407842686399817,228.60541841527447 25.754521215334535,234.0 32.49786715209484,229.68433553911746 34.8778715999797,208.9690562481992 29.126194183714688,203.1428571427241 21.58951343037188,207.89013137551956 19.407842686399817,228.38963494170457 25.357853806577623,234.0 32.49786715209484,229.68433553911746 35.07620530389249,209.4006260840688 29.72119529545307,203.35864250501618 21.787847135215998,207.4585613135714 19.407842686399817,227.95806794753298 25.754521215334535,234.0 32.49786715209484,229.68433553911746 34.8778715999797,208.9690562481992 28.92786047887057,203.1428571427241 21.787847135215998,207.4585613135714 19.407842686399817,228.38963494170457 25.95285491924733,234.0 32.696200856007636,229.036985313287 34.8778715999797,209.18484117439948 28.729526774957776,203.1428571427241 21.58951343037188,208.32170137297362 19.407842686399817,228.60541841527447 25.95285491924733,234.0 32.696200856007636,229.2527687381953 34.8778715999797,208.5374863478355 28.53119307104498,203.1428571427241 21.58951343037188,208.32170137297362 19.407842686399817,228.17385145253502 21.98618083819747,232.4895181732718 27.341190847568214,233.7842169306241 32.696200856007636,229.036985313287 34.8778715999797,208.7532713059336 28.134525663219392,203.1428571427241 21.58951343037188,208.32170137297362 19.407842686399817,227.95806794753298 25.357853806577623,234.0 32.49786715209484,229.68433553911746 35.07620530389249,209.83219585521147 29.522861591540277,203.35864250501618 21.98618083819747,207.2427762588486 19.407842686399817,227.95806794753298 23.96951787918806,233.56843384471722 32.49786715209484,229.68433553911746 35.07620530389249,209.4006260840688 29.919528998434544,203.35864250501618 22.38284824602306,206.3796358765103 19.2095089815557,227.3107173340395 21.787847135215998,232.4895181732718 27.142857142724097,234.0 31.902866039425135,230.7632522599306 35.07620530389249,210.69533520471305 31.109531222842634,203.79021317977458 23.57285047043115,204.86913958610967 20.201177502050996,230.33168561989442 24.366185286082327,233.7842169306241 29.72119529545307,232.92108449013904 33.68786937650293,222.56347506283782" stroke="#4dd2ff" stroke-linecap="round" stroke-linejoin="round" stroke-width="0.5"><title>2024-03-30 4.8km</title><desc>1711782999000</desc></polyline><polyline fill="none" points="54.69633129052818,215.7376503145788 56.046889571473,230.01168090268038 60.098564418032765,233.37026578304358 66.27254513558,232.95044289296493 70.90303067211062,226.86300392635167 70.51715687755495,205.45190679002553 61.25618580263108,203.7725981438998 56.23982646968216,209.44026079541072 56.23982646968216,229.3819457902573 61.642059597186744,234.0 67.62310341652483,232.53061993955635 71.09596757031977,226.86300392635167 72.44652585219592,211.11956604919396 70.32421998027712,205.0320797227323 63.57142857089639,203.14285714295693 58.94094303343445,206.0816472726874 55.468078879639506,226.4431800628081 57.39744785428047,231.2711507040076 62.99261787906289,234.0 70.90303067211062,228.33238695492037 71.67477826215327,207.1312144305557 63.378491673618555,203.56268449290656 56.62570026423782,209.65017400681973 56.62570026423782,231.06123910937458 63.957302366383374,233.79008861025795 69.55247239023447,230.43150423211046 72.06065205670893,211.32947913510725 70.71009377483279,206.0816472726874 66.46548203192651,203.3527708260808 57.783321648836136,206.92130103055388 55.275141982361674,227.70265146531165 60.098564418032765,233.37026578304358 69.35953549295664,230.01168090268038 72.06065205670893,211.11956604919396 68.00897721108049,204.40233900398016 57.783321648836136,204.40233900398016" stroke="#4dd2ff" stroke-linecap="round" stroke-linejoin="round" stroke-width="0.5"><title>2024-03-28 2.0km</title><desc>1711615120000</desc></polyline><polyline fill="none" points="92.2005285480991,216.2571879858151 90.25066068489105,216.64290258893743 92.2005285480991,218.18576042423956 90.07339997030795,217.22147438512184 92.2005285480991,217.80004605208524 92.73231069277972,229.95002105645835 96.63204641826451,233.42143196915276 102.83617143705487,233.61428799363784 108.1539928810671,227.05717505840585 109.04029645491391,206.80716218263842 104.78603930026293,203.52857370814309 99.46821785531938,203.52857370814309 93.26409283746034,210.47146201413125 92.02326783258468,228.02145741856657 98.75917499605566,234.0 107.26768930722028,228.98573941760696 108.86303574126214,208.73574169073254 106.20412501879036,204.10714844753966 101.94986786320806,203.14285714295693 93.97313569579273,208.54288380453363 92.73231069277972,226.4786054692231 95.21396069973707,231.30001474451274 99.64547856990248,233.03571987641044 106.38138573337346,228.98573941760696 108.1539928810671,210.27860425808467 101.94986786320806,204.30000666575506 94.85943927057087,208.73574169073254 93.61861426662654,227.82860097498633 99.99999999906868,233.03571987641044 106.91316787712276,227.82860097498633 107.976732166484,208.15716798976064 101.59534643311054,203.91429021558724 94.85943927057087,209.31431526131928 93.44135355111212,227.25003155926242 98.93643571063876,233.03571987641044 106.73590716253966,227.82860097498633 107.976732166484,209.50717308954336 100.88630357477814,203.52857370814309 95.03669998515397,208.73574169073254 93.08683212194592,227.25003155926242 99.29095714073628,233.03571987641044 107.09042859170586,227.82860097498633 108.50851431116462,209.50717308954336 102.30438929237425,203.91429021558724 95.21396069973707,208.54288380453363 93.26409283746034,227.05717505840585 94.50491784047335,231.10715854680166 98.93643571063876,232.65000772592612 106.91316787712276,228.40717026148923 108.50851431116462,210.66431975597516 102.48165000788867,204.68572305771522 95.03669998515397,208.35002590413205 93.26409283746034,227.82860097498633 99.64547856990248,232.8428638081532 106.91316787712276,228.02145741856657 108.33125359658152,208.73574169073254 101.77260714862496,204.30000666575506 95.03669998515397,209.31431526131928 93.26409283746034,227.442888046382 99.64547856990248,233.03571987641044 105.31782144494355,232.26429551746696 107.976732166484,228.60002666153014 109.92660002969205,210.08574648783542" stroke="#4dd2ff" stroke-linecap="round" stroke-linejoin="round" stroke-width="0.5"><title>2024-03-26 3.7km</title><desc>1711445960000</desc></polyline><polyline fill="none" points="128.10913272295147,226.80003097001463 134.91594620980322,234.0 143.046306761913,229.26859390409663 144.5589319812134,208.4914533784613 140.39921262860298,203.1428571427241 130.5671487050131,206.64001739723608 127.92005457170308,226.18288989015855 129.62175794225186,230.91430129529908 135.48318066634238,233.7942868603859 142.66815045662224,229.68002084386535 144.93708828557283,209.5200283851009 141.15552523732185,203.3485725747887 131.13438316155225,207.46287798741832 128.67636718042195,219.3943288726732 130.9453050084412,230.91430129529908 135.8613369707018,233.17714735097252 140.39921262860298,231.32572798943147 144.36985382810235,210.75431788526475 141.15552523732185,204.78858016920276 135.6722588185221,204.1714341493789 131.89069577120245,207.25716286315583 129.43267979007214,225.36003490211442 133.59239914175123,232.5600077023264 141.3446033904329,230.09144772286527 144.36985382810235,209.9314582797233 140.02105632331222,203.96571877924725 131.89069577120245,207.46287798741832 129.43267979007214,225.77146242698655 133.78147729486227,232.5600077023264 141.15552523732185,230.09144772286527 143.046306761913,206.2285870097112 136.617649580352,203.5542879914865 131.32346131280065,208.9028834272176 129.62175794225186,228.24002628400922 133.02516468521208,232.14858119306155 138.31935295183212,232.35429445514455" stroke="#4dd2ff" stroke-linecap="round" stroke-linejoin="round" stroke-width="0.5"><title>2024-03-25 2.1km</title><desc>1711359274000</desc></polyline><polyline fill="none" points="176.76596829108894,231.03298268071376 180.40208497457206,210.85717661725357 176.22055078856647,204.52748024417087 166.76664741244167,208.68134519807063 164.76678323745728,225.49454144435003 170.22095826268196,232.81319347210228 178.2204149644822,229.64837345923297 180.40208497457206,210.85717661725357 175.12971578352153,204.72528348537162 166.76664741244167,208.8791481286753 164.76678323745728,226.6813512572553 170.58456993009895,232.81319347210228 178.40222079865634,229.05496928514913 180.40208497457206,210.06596539914608 174.94790994934738,204.72528348537162 166.76664741244167,208.68134519807063 164.94858907163143,226.8791528409347 166.58484157919884,231.03298268071376 171.6754049351439,233.01099459687248 178.5840266328305,228.26376351248473 180.40208497457206,211.25278213713318 175.675133286044,204.72528348537162 166.76664741244167,207.89013332873583 164.94858907163143,226.8791528409347 170.58456993009895,233.20879570744 178.03860913123935,229.45057208277285 180.40208497457206,210.85717661725357 175.311521618627,204.32967698853463 166.94845324754715,207.6923303247895 164.76678323745728,227.27475596382283 166.58484157919884,231.23078393912874 172.0390166034922,233.40659680287354 178.76583246700466,228.06596203288063 180.2202791403979,209.86816255748272 174.58429828099906,204.32967698853463 169.493734925054,205.3186931195669 166.40303574502468,209.27475394424982 165.1303949058056,228.26376351248473 172.22082243766636,233.01099459687248 178.9476383011788,227.47255750373006 180.2202791403979,210.06596539914608 174.94790994934738,204.32967698853463 166.58484157919884,209.27475394424982 164.94858907163143,227.67035902757198 171.3117932677269,232.81319347210228 178.2204149644822,229.05496928514913 180.2202791403979,209.86816255748272 173.85707494523376,204.32967698853463 166.40303574502468,209.07695104391314 165.1303949058056,227.86816053744406 171.3117932677269,233.20879570744 178.5840266328305,229.05496928514913 180.40208497457206,210.06596539914608 177.3113857936114,204.9230867116712 167.1302590817213,207.6923303247895 164.94858907163143,225.69234311650507 169.31192909087986,232.81319347210228 178.03860913123935,229.84617482079193 180.40208497457206,210.46157103776932 174.76610411610454,204.52748024417087 166.76664741244167,208.28573929308914 164.94858907163143,227.0769544094801 170.03915242757648,232.6153923321981 177.85680329613388,230.439578817226 180.58389080874622,211.05497938464396 176.94777412619442,204.9230867116712 171.3117932677269,204.32967698853463 166.94845324754715,208.28573929308914 163.67594823241234,225.49454144435003 165.1303949058056,230.8351814080961 170.22095826268196,234.0 174.94790994934738,233.80219894926995 179.31124996952713,229.64837345923297 182.03833748213947,211.45058487495407 177.12957996036857,203.53846381721087 171.12998743262142,203.1428571427241 165.8576182425022,207.49452730594203 163.67594823241234,226.48354965820909 169.31192909087986,233.40659680287354 178.76583246700466,231.82418762519956" stroke="#4dd2ff" stroke-linecap="round" stroke-linejoin="round" stroke-width="0.5"><title>2024-03-24 4.9km</title><desc>1711273464000</desc></polyline><polyline fill="none" points="18.442945084534585,259.76690876530483 20.00892925541848,265.2568089417182 24.358885284513235,268.0964078078978 29.404834277927876,267.1498752068728 33.58079206664115,262.9851275542751 35.320774477906525,243.1078284282703 33.92878854833543,239.70027575804852 28.708841314539313,237.99649770208634 22.966899354942143,239.3216585116461 19.834931014105678,243.2971367756836 18.79094156809151,262.2278999721166 22.096908149309456,266.5819554759655 28.012848349288106,267.90710131591186 34.27678503096104,260.90275115775876 34.45078327227384,240.64681862667203 28.186846590600908,237.99649770208634 21.748911667615175,240.07889294833876 19.138938049785793,244.6222948092036 18.094948602840304,261.28136517549865 23.66289232019335,268.285714285681 29.7528307614848,267.1498752068728 33.40679382439703,263.17443441436626 36.364763924852014,245.75814399914816 34.102786789648235,239.70027575804852 29.230836036615074,237.8071889586281 21.922909908927977,240.07889294833876 19.312936291098595,244.243678298546 19.138938049785793,264.6888887861278 24.184887044131756,268.285714285681 29.230836036615074,267.90710131591186 34.45078327227384,260.90275115775876 34.45078327227384,240.64681862667203 26.09886769670993,237.42857142863795 19.486934531480074,244.05437002237886 18.268946844153106,262.03859304077923 21.574913426302373,266.9605686436407 27.14285714365542,267.7177948097233 34.27678503096104,261.0920581740793 34.97277799528092,241.59336114139296 32.18880613707006,238.37511514732614 26.27286593709141,237.8071889586281 19.312936291098595,244.4329865607433 18.616943325847387,263.55304809240624 28.012848349288106,267.52848828956485 34.102786789648235,261.0920581740793 34.102786789648235,240.64681862667203 27.4908536253497,237.61788020073436 19.834931014105678,241.9719780483283 17.920950361527503,262.4172068887856 21.40091518405825,266.7712620671373 28.012848349288106,267.90710131591186 34.102786789648235,261.470672163181 33.75479030702263,239.51096714194864 26.968858901411295,237.61788020073436 22.096908149309456,240.07889294833876 18.268946844153106,254.2769966784399 20.530923978425562,265.82472896948457 31.318814931437373,266.39264887035824 35.49477271921933,245.1902194682043 31.666811414062977,238.56442384817638 21.922909908927977,240.07889294833876 18.268946844153106,258.8203730476089 19.486934531480074,265.2568089417182 24.01088880188763,267.52848828956485 32.71080086007714,264.3102752780542 35.66877096053213,245.56883583636954 33.23279558401555,239.51096714194864 21.748911667615175,239.51096714194864 18.79094156809151,250.30153566389345 20.00892925541848,265.2568089417182 25.228876491077244,267.90710131591186 31.492813171818852,266.014035617467 34.27678503096104,261.65997913712636 35.66877096053213,245.75814399914816 33.058797342702746,239.51096714194864 24.532883525826037,238.18580643180758 19.312936291098595,244.4329865607433 18.442945084534585,263.17443441436626 23.314895837567747,267.52848828956485 29.230836036615074,266.7712620671373 33.23279558401555,256.73799322452396 32.36280437745154,240.64681862667203 26.968858901411295,238.943041208433 21.40091518405825,241.59336114139296 18.094948602840304,253.51976649067365" stroke="#4dd2ff" stroke-linecap="round" stroke-linejoin="round" stroke-width="0.5"><title>2024-03-22 5.0km</title><desc>1711100044000</desc></polyline><polyline fill="none" points="54.17660506349057,249.00004328181967 57.36729983985424,265.3928728327155 62.685124467127025,268.09285829006694 68.00294909439981,266.550009803148 71.54816551227123,262.50002813269384 72.78899125847965,253.6286174801644 70.48460058681667,240.51430233428255 63.21690692938864,238.00714625464752 58.07634312286973,244.56431854353286 57.36729983985424,263.0785973321181 61.62155954167247,267.5142902156804 66.76212334726006,267.5142902156804 71.01638304907829,261.5357458451763 70.83912222832441,243.02145597618073 64.98951513879001,238.77857915428467 58.2536039436236,244.56431854353286 57.36729983985424,262.50002813269384 60.55799461621791,266.7428659144789 65.34403678029776,267.7071462550666 70.48460058681667,260.76431975513697 71.19364386983216,242.442882274976 66.23034088406712,238.20000450173393 58.2536039436236,242.82859809044749 56.65825655590743,261.3428893443197 63.925950213335454,267.12857809406705 68.53473155666143,266.1642975374125 71.7254263330251,260.76431975513697 71.90268715377897,241.09287646808662 69.77555730193853,238.20000450173393 63.03964610863477,237.42857142863795 57.01277819741517,243.21431384747848 55.94921327289194,262.3071717042476 63.925950213335454,268.285714285681 71.19364386983216,261.1500328287948 72.96625207923353,244.17860298836604 70.30733976513147,237.6214297185652 59.31716887000948,239.16429551760666 55.062909168191254,258.6428968172986" stroke="#4dd2ff" stroke-linecap="round" stroke-linejoin="round" stroke-width="0.5"><title>2024-03-21 2.2km</title><desc>1711013104000</desc></polyline></svg>