<?xml version="1.0" encoding="utf-8" ?>
<svg baseProfile="full" height="300mm" version="1.1" viewBox="0,0,200,300" width="200mm" xmlns="http://www.w3.org/2000/svg" xmlns:ev="http://www.w3.org/2001/xml-events" xmlns:xlink="http://www.w3.org/1999/xlink"><defs /><rect fill="#222222" height="300" width="200" x="0" y="0" /><text fill="#FFFFFF" style="font-size:12px; font-family:Arial; font-weight:bold;" x="10" y="20">Over 2km Runs</text><text fill="#FFFFFF" style="font-size:4px; font-family:Arial" x="10" y="280">ATHLETE</text><text fill="#FFFFFF" style="font-size:9px; font-family:Arial" x="10" y="290">作怪</text><text fill="#FFFFFF" style="font-size:4px; font-family:Arial" x="120" y="280">STATISTICS</text><text fill="#FFFFFF" style="font-size:3px; font-family:Arial" x="120" y="285">Number: 20</text><text fill="#FFFFFF" style="font-size:3px; font-family:Arial" x="120" y="290">Weekly: 4.0</text><text fill="#FFFFFF" style="font-size:3px; font-family:Arial" x="141" y="285">Total: 104.6 km</text><text fill="#FFFFFF" style="font-size:3px; font-family:Arial" x="141" y="290">Avg: 5.2 km</text><text fill="#FFFFFF" style="font-size:3px; font-family:Arial" x="167" y="285">Min: 2.0 km</text><text fill="#FFFFFF" style="font-size:3px; font-family:Arial" x="167" y="290">Max: 12.3 km</text><polyline fill="none" points="21.35555904265493,44.750052365940064 23.193817344494164,65.00003797491081 33.99358487036079,70.75001152069308 40.65727121569216,64.00004156515934 41.11683579161763,39.50003606732935 29.168156826868653,33.50000734068453 22.27468819450587,42.25004563340917 22.27468819450587,67.00002989522181 28.019245388917625,71.75000591040589 35.60206088423729,72.00000446056947 42.26574722956866,63.50004324829206 42.03596494253725,37.75002880138345 30.317068265751004,33.75000875280239 22.504470481537282,41.50004324945621 22.504470481537282,67.00002989522181 26.410769373178482,71.00001014606096 36.06162546109408,71.75000591040589 42.03596494253725,65.00003797491081 42.955094093456864,38.50003202771768 32.84467343147844,33.00000446033664 23.42359963338822,39.50003606732935 20.895994467660785,63.50004324829206 24.57251107133925,70.2500142136123 31.925544280558825,72.2500029928051 41.80618265457451,65.25003702985123 43.414658669382334,40.25003890064545 32.38510885555297,33.75000875280239 22.964035057462752,40.25003890064545 21.58534133154899,64.75003889994696 25.721422511152923,70.50001287669875 32.84467343147844,72.2500029928051 42.03596494253725,64.75003889994696 42.955094093456864,38.75003306567669 33.30423800740391,33.00000446033664 22.964035057462752,40.750040696235374 22.044905906543136,66.50003202725202 26.64055166207254,71.25000875256956 34.682931734248996,72.2500029928051 42.49552951846272,64.25004069576971 42.955094093456864,39.00003408524208 32.614891143515706,33.50000734068453 25.721422511152923,36.00002061924897 22.734252769500017,41.25004241685383 21.125776754692197,63.75004241568968 24.802293360233307,70.00001553213224 31.465979704633355,72.75 42.03596494253725,65.00003797491081 43.644440956413746,39.50003606732935 33.30423800740391,33.50000734068453 22.964035057462752,40.50003980775364 21.35555904265493,65.00003797491081 31.695761991664767,72.75 41.346618078649044,67.00002989522181 44.33378782030195,45.0000529368408 42.49552951846272,37.75002880138345 37.67010147403926,34.50001287669875 24.57251107133925,37.00002540717833 20.66621217969805,61.75004855054431 24.802293360233307,69.75001683202572 32.84467343147844,72.2500029928051 39.50835977587849,68.75002184370533 44.33378782030195,45.0000529368408 39.04879520088434,34.50001287669875 26.410769373178482,35.0000155325979 22.044905906543136,42.25004563340917 22.044905906543136,67.25002880115062 31.23619741667062,72.75 38.35944833792746,70.2500142136123 42.49552951846272,63.75004241568968 43.87422324437648,41.75004406273365 33.53402029443532,32.25 23.193817344494164,39.75003703101538 21.125776754692197,64.75003889994696 31.925544280558825,72.75 42.03596494253725,66.00003408431076 43.87422324437648,41.25004241685383 33.99358487036079,33.50000734068453 22.734252769500017,39.50003606732935 20.66621217969805,62.25004712934606" stroke="#4dd2ff" stroke-linecap="round" stroke-linejoin="round" stroke-width="0.5"><title>2024-04-21 5.0km</title><desc>1713688153000</desc></polyline><polyline fill="none" points="78.23169761709869,40.11127580201719 79.05485743656754,45.98232489370275 81.52433689543977,46.7783973517362 83.81089194910601,45.48477936524432 85.18282498186454,35.93186913442332 83.90235415194184,33.44412083597854 81.06702588452026,32.847060551750474 79.05485743656754,34.33971075958107 77.86584880854934,43.693613923038356 80.60971487313509,46.67888832069002 84.35966516239569,44.6887061331654 85.18282498186454,35.434319847030565 82.43895891681314,32.74755047855433 78.7804708299227,34.83726045617368 77.95731101091951,43.992141664261 81.06702588452026,46.7783973517362 84.35966516239569,44.58919694565702 85.18282498186454,35.434319847030565 81.79872350208461,32.74755047855433 78.7804708299227,35.03628028312232 77.95731101091951,44.09165089612361 81.06702588452026,46.7783973517362 84.45112736430019,44.390178548172116 85.18282498186454,35.33480996731669 82.07311010826379,32.74755047855433 78.7804708299227,34.93677037337329 78.04877321282402,44.290669338312 81.06702588452026,46.7783973517362 84.45112736430019,44.390178548172116 85.18282498186454,35.434319847030565 81.52433689543977,32.74755047855433 78.6890086280182,35.2353000799194 78.04877321282402,44.48968775058165 81.06702588452026,46.7783973517362 84.35966516239569,44.58919694565702 85.09136277949437,35.33480996731669 81.70726129924878,32.74755047855433 78.6890086280182,35.03628028312232 77.95731101091951,44.19116012088489 81.24995028879493,46.7783973517362 84.45112736430019,44.19116012088489 85.09136277949437,35.33480996731669 81.4328746930696,32.74755047855433 78.6890086280182,35.13579018518794 78.23169761709869,44.88772448571399 80.79263927787542,46.7783973517362 83.71942974673584,45.683797599049285 85.09136277949437,37.12598666513804 83.17065653437749,33.04608067648951 78.96339523466304,34.53873066033702 77.86584880854934,43.594104660791345 79.7865550541319,46.38036118238233 82.1645723101683,46.67888832069002 84.08527855575085,45.086742808809504 85.18282498186454,35.83235929196235 82.89626992773265,32.847060551750474 79.23778184084222,34.041180851869285 78.41462202183902,45.18625195894856 82.1645723101683,46.67888832069002 84.54258956667036,43.594104660791345 85.09136277949437,35.13579018518794 81.24995028879493,32.847060551750474 78.59754642564803,35.33480996731669 78.23169761709869,44.88772448571399 81.24995028879493,46.7783973517362 84.35966516239569,44.58919694565702 85.18282498186454,35.434319847030565 81.98164790589362,32.74755047855433 78.6890086280182,35.13579018518794 78.23169761709869,44.88772448571399 81.89018570398912,46.67888832069002 84.54258956667036,43.594104660791345 84.72551397094503,34.43922071380075 82.07311010826379,32.74755047855433 79.14631963893771,34.14069082844071 77.86584880854934,43.594104660791345 79.42070624558255,46.280852121300995 75.39636934967712,50.26120875473134 75.48783155204728,55.63467131787911 68.6281663896516,56.231721373973414 67.16477115545422,57.72434534190688 65.60991371842101,67.67512899579015 61.85996342962608,71.25739289051853 64.69529169658199,72.75 61.58557682298124,71.05837848293595 65.70137592032552,66.5805464371806 66.98184675071388,57.42582068219781 75.30490714823827,55.13712939969264 77.04268898908049,47.972505145706236 87.74376664264128,49.266120712971315 93.4144231765531,43.992141664261 88.38400205783546,47.57446933363099 84.81697617284954,47.375451382715255 85.09136277949437,34.73775053175632 83.99381635338068,32.847060551750474 81.34141249069944,32.25 78.32315981946886,35.03628028312232 77.59146220237017,44.88772448571399 81.4328746930696,46.97741539182607 84.26820296002552,43.992141664261 84.9084383752197,34.63824059977196 83.71942974673584,32.64804039790761 80.60971487313509,32.54853030946106 78.14023541519418,35.53382971929386 77.59146220237017,45.48477936524432 81.34141249069944,46.87790637568105 83.99381635338068,43.89263242436573 84.81697617284954,34.53873066033702 83.53650534292683,32.74755047855433 80.70117707550526,32.54853030946106 77.68292440427467,36.72794760740362 77.13415119145066,44.09165089612361 78.32315981946886,46.38036118238233 81.24995028879493,46.97741539182607 83.81089194910601,44.88772448571399 84.9084383752197,35.73284944193438 82.5304211191833,32.34951011068188 78.59754642564803,34.14069082844071 77.13415119145066,44.19116012088489 79.8780172560364,46.7783973517362 83.99381635338068,44.09165089612361 84.99990057758987,35.03628028312232 83.627967545297,32.74755047855433 81.79872350208461,32.34951011068188 77.49999999953434,36.13088879745919 76.95122678717598,44.6887061331654 80.9755636821501,46.97741539182607 84.08527855575085,43.992141664261 84.63405176904052,34.53873066033702 81.61579909734428,32.34951011068188 77.86584880854934,35.2353000799194 77.13415119145066,44.390178548172116 80.60971487313509,47.07692440075334 84.08527855575085,43.89263242436573 84.63405176904052,34.43922071380075 81.52433689543977,32.34951011068188 78.04877321282402,34.63824059977196 77.13415119145066,44.09165089612361 80.60971487313509,46.87790637568105 83.90235415194184,44.58919694565702 84.72551397094503,34.63824059977196 81.52433689543977,32.34951011068188 77.68292440427467,35.33480996731669 77.31707559572533,44.19116012088489 80.70117707550526,46.87790637568105 83.99381635338068,44.09165089612361 84.9084383752197,34.63824059977196 81.98164790589362,32.34951011068188 77.95731101091951,34.63824059977196 76.76830238243565,43.89263242436573 80.42679046932608,46.87790637568105 83.99381635338068,44.6887061331654 84.63405176904052,34.63824059977196 81.24995028879493,32.34951011068188 77.77438660617918,35.2353000799194 77.04268898908049,44.58919694565702 80.60971487313509,46.87790637568105 84.08527855575085,44.09165089612361 84.72551397094503,34.93677037337329 81.61579909734428,32.44902021379676 77.86584880854934,34.53873066033702 76.85976458480582,43.594104660791345 80.42679046932608,46.67888832069002 84.08527855575085,43.992141664261 84.81697617284954,34.73775053175632 81.4328746930696,32.34951011068188 77.95731101091951,34.63824059977196 76.95122678717598,43.89263242436573 80.51825267169625,46.7783973517362 84.17674075812101,44.290669338312 84.9084383752197,35.2353000799194 81.89018570398912,32.44902021379676 78.04877321282402,34.63824059977196 76.95122678717598,43.89263242436573 80.2438660650514,46.97741539182607 83.99381635338068,44.19116012088489 85.09136277949437,35.03628028312232 83.90235415194184,32.94657061772887 81.61579909734428,32.44902021379676 77.86584880854934,34.53873066033702 76.95122678717598,43.992141664261 80.2438660650514,46.7783973517362 84.17674075812101,44.09165089612361 84.63405176904052,34.73775053175632 83.71942974673584,33.04608067648951 81.15848808642477,32.44902021379676 77.59146220237017,34.73775053175632 77.13415119145066,44.19116012088489 80.88410147977993,46.7783973517362 83.90235415194184,44.6887061331654 84.63405176904052,34.33971075958107 81.34141249069944,32.34951011068188 78.04877321282402,33.14559072733391 76.95122678717598,34.83726045617368" stroke="#4dd2ff" stroke-linecap="round" stroke-linejoin="round" stroke-width="0.5"><title>2024-04-18 12.3km</title><desc>1713432540000</desc></polyline><polyline fill="none" points="133.2951734950766,62.76004222407937 131.80618404690176,37.65002625784837 121.63142282143235,32.79000298958272 113.93831067625433,40.080035438295454 112.4493212280795,66.2700305399485 120.14243337325752,72.21000298880972 127.09105079621077,70.8600101089105 131.30985423084348,65.19003449799493 132.30251386202872,37.65002625784837 126.34655607212335,32.79000298958272 119.39793865103275,33.06000445387326 113.44198086112738,39.81003449880518 112.4493212280795,65.46003353921697 116.91628957167268,71.67000589775853 123.61674208566546,72.75 131.5580191379413,64.1100381333381 133.04700858611614,40.080035438295454 122.87224736157805,32.25 113.44198086112738,40.35003635729663 112.20115632098168,65.19003449799493 119.1497737430036,72.21000298880972 130.56535950675607,66.54002949874848 133.04700858611614,41.70004064892419 130.56535950675607,35.76001798687503 122.87224736157805,32.25 113.69014576729387,39.54003353929147 112.20115632098168,65.46003353921697 119.39793865103275,72.48000150453299 127.09105079621077,70.59001147234812 130.8135244147852,65.19003449799493 132.30251386202872,39.54003353929147 121.38325791526586,32.25 113.93831067625433,40.080035438295454 112.4493212280795,65.73003255878575 122.62408245354891,72.75 131.06168932281435,64.65003635641187 131.80618404690176,39.000031559728086 127.09105079621077,34.14001010917127 118.15711411088705,33.60000732168555 113.93831067625433,40.35003635729663 112.9456510450691,66.54002949874848 124.36123680789024,71.67000589775853 131.06168932281435,61.680045132292435 131.5580191379413,38.19002843950875 124.85756662487984,33.33000589767471 118.15711411088705,34.41001147287898 112.9456510450691,47.37005316186696 114.93097030743957,70.05001413845457 123.12041226960719,71.94000445352867 129.57269987557083,67.0800273581408 132.30251386202872,41.43003983073868 129.32453496661037,35.76001798687503 122.62408245354891,33.60000732168555 113.93831067625433,36.57002165284939 111.7048265049234,41.97004144731909" stroke="#4dd2ff" stroke-linecap="round" stroke-linejoin="round" stroke-width="0.5"><title>2024-04-17 3.1km</title><desc>1713344929000</desc></polyline><polyline fill="none" points="158.77544919215143,41.36254226532765 156.4489023098722,61.10629964922555 161.79996013827622,68.44689801638015 168.08163671940565,70.21876420197077 175.52658674120903,64.90316286194138 178.08578831143677,40.85629056044854 169.71021953690797,33.515632337424904 159.70606794394553,40.35003878059797 158.31013981532305,64.1437905607745 166.9183632787317,70.7250115131028 175.9918961180374,64.90316286194138 177.85313362441957,41.36254226532765 169.01225547213107,33.515632337424904 159.70606794394553,41.36254226532765 158.07748512737453,63.384418088477105 166.45305390283465,69.965640517883 175.9918961180374,64.39691467932425 177.85313362441957,41.61566808866337 170.87349297758192,34.275011513149366 160.17137731984258,39.84378692531027 158.07748512737453,63.89066642150283 166.68570859078318,70.21876420197077 175.9918961180374,64.1437905607745 178.08578831143677,42.12191967945546 169.94287422578782,34.021885140100494 160.17137731984258,40.096912862034515 158.31013981532305,62.87816967815161 160.8693413855508,67.68752650986426 167.61632734257728,70.21876420197077 175.9918961180374,64.39691467932425 177.85313362441957,40.096912862034515 167.84898203145713,33.768758748658 160.17137731984258,40.096912862034515 158.5427945042029,64.1437905607745 167.38367265556008,70.97813514037989 175.75924143008888,64.65003877971321 178.08578831143677,40.85629056044854 169.71021953690797,33.768758748658 160.63668669760227,40.35003878059797 158.07748512737453,62.87816967815161 162.26526951417327,68.95314559270628 168.54694609623402,70.47188786650077 175.9918961180374,64.39691467932425 177.3878242475912,40.60316468006931 168.31429140735418,33.768758748658 160.63668669760227,40.35003878059797 158.77544919215143,62.87816967815161 164.82447108533233,70.21876420197077 175.52658674120903,64.65003877971321 178.08578831143677,42.12191967945546 169.47756484895945,33.768758748658 160.63668669760227,39.84378692531027 158.5427945042029,62.371921193553135 164.82447108533233,70.21876420197077 175.52658674120903,65.15628692437895 178.55109768919647,41.86879389337264 170.40818360168487,34.528137867338955 160.63668669760227,39.84378692531027 158.07748512737453,63.13129389262758 166.2203992139548,70.7250115131028 175.75924143008888,64.39691467932425 177.85313362441957,40.60316468006931 169.94287422578782,34.021885140100494 163.8938523326069,35.28751681558788 160.63668669760227,40.35003878059797 158.5427945042029,64.65003877971321 167.15101796761155,70.7250115131028 176.22455080598593,63.89066642150283 177.85313362441957,40.35003878059797 168.31429140735418,34.275011513149366 160.17137731984258,40.60316468006931 158.77544919215143,64.1437905607745 166.9183632787317,70.21876420197077 175.9918961180374,63.63754226407036 177.85313362441957,40.85629056044854 169.71021953690797,34.021885140100494 160.63668669760227,39.59066096926108 158.31013981532305,64.39691467932425 165.9877445269376,70.47188786650077 175.2939320532605,65.15628692437895 178.08578831143677,41.10941642220132 168.54694609623402,34.021885140100494 159.2407585689798,38.831282986560836 156.4489023098722,63.13129389262758 163.19588826783001,71.23125874809921 170.17552891280502,71.48438233789057 176.6898601828143,66.92815483291633 178.783752377145,46.4250551413279 173.43269454874098,33.009379459545016 167.15101796761155,32.25 160.63668669760227,37.059400364756584 155.98359293397516,59.081304194405675 158.5427945042029,69.71251681447029 164.35916170850396,72.75 172.2694211071357,71.23125874809921 179.01640706509352,61.61254832427949" stroke="#4dd2ff" stroke-linecap="round" stroke-linejoin="round" stroke-width="0.5"><title>2024-04-15 5.9km</title><desc>1713172666000</desc></polyline><polyline fill="none" points="36.396718565840274,85.28946710494347 36.671781052835286,93.4693428738974 38.68890595808625,95.36467278224882 41.347843332216144,95.16516449768096 43.731718219816685,92.37204537983052 44.190155697986484,83.2943678421434 40.06421839306131,81.0 36.9468435398303,84.29191784677096 36.58009355748072,92.9705713975709 38.23046847945079,95.16516449768096 40.52265587123111,95.46442691306584 43.82340571563691,92.77106275490951 43.91509321145713,82.49632730148733 40.52265587123111,81.0997552057961 37.588656009640545,82.99510269530583 36.396718565840274,92.27229101734702 38.59721846226603,95.26491864351556 41.806280810851604,95.16516449768096 43.91509321145713,93.07032570778392 44.55690568080172,83.79314293793868 41.347843332216144,81.19951040390879 37.03853103611618,83.89289793453645 36.30503107048571,91.87327349325642 39.05565594043583,95.46442691306584 43.45665573282167,93.7686056700768 44.55690568080172,84.09240790538024 41.98965580202639,81.39902077778243 37.588656009640545,82.99510269530583 36.396718565840274,92.57155408221297 38.963968445081264,95.46442691306584 43.18159324582666,94.16762262722477 44.648593176621944,84.69093763956334 42.81484326347709,81.59853112197015 40.61434336705133,81.19951040390879 37.68034350546077,82.79559256031644 36.4884060616605,92.07278227014467 38.780593453440815,95.36467278224882 43.18159324582666,94.16762262722477 43.91509321145713,82.49632730148733 39.697468410246074,81.39902077778243 37.130218531005085,84.09240790538024 36.671781052835286,93.07032570778392 40.61434336705133,95.46442691306584 43.82340571563691,92.87081707990728 44.37353068962693,83.89289793453645 41.07278084522113,81.29926559445448 37.130218531005085,83.89289793453645 36.4884060616605,93.07032570778392 39.78915590560064,95.46442691306584 43.5483432286419,92.9705713975709 44.37353068962693,83.99265292368364 40.79771835822612,81.0997552057961 37.22190602729097,83.6933879336575 36.4884060616605,93.17008001054637 39.514093418605626,95.46442691306584 42.17303079320118,95.06541034427937 43.82340571563691,92.9705713975709 44.465218185447156,83.6933879336575 40.98109334986657,81.19951040390879 37.22190602729097,83.79314293793868 36.671781052835286,92.77106275490951 39.697468410246074,95.46442691306584 43.45665573282167,93.66885141190141 44.55690568080172,83.79314293793868 40.98109334986657,81.19951040390879 37.313593523111194,83.3941228762269 36.58009355748072,92.47179973497987 39.33071842743084,95.46442691306584 43.45665573282167,93.5690971466247 44.465218185447156,84.19216287997551 41.53121832385659,81.29926559445448 37.49696851428598,83.09485775174107 36.4884060616605,92.9705713975709 39.514093418605626,95.56418103678152 43.5483432286419,93.66885141190141 44.465218185447156,84.09240790538024 41.53121832385659,81.29926559445448 36.396718565840274,83.2943678421434 35.84659359231591,93.4693428738974 33.64609369635582,97.25999999663327 34.83803113969043,104.04325427068397 26.677844024728984,105.83881580305751 24.293969137594104,115.5148557771463 20.351406823378056,119.80421186389867 25.2108440939337,121.5" stroke="#4dd2ff" stroke-linecap="round" stroke-linejoin="round" stroke-width="0.5"><title>2024-04-14 5.4km</title><desc>1713087921000</desc></polyline><polyline fill="none" points="65.47158850356936,108.27555917412974 71.29587196465582,119.84694749349728 82.18474974203855,120.39796507800929 87.75580348726362,111.30616439133883 88.009033203125,85.4081848654896 77.12015542667359,81.8265350642614 69.77649367041886,88.98983118240722 67.75065594445914,113.7857486223802 72.05556111223996,119.29592982702889 78.89276343677193,120.67347383964807 87.24934405554086,113.23473004833795 89.0219520656392,87.88778653298505 77.87984457425773,81.2755117083434 69.52326395455748,89.54085338418372 67.75065594445914,114.06125787831843 76.86692571081221,120.39796507800929 86.9961143406108,114.61227632802911 89.78164121322334,90.64289753930643 80.91860116180032,81.2755117083434 70.536182818003,86.78574155294336 68.2571153761819,113.51023934548721 77.12015542667359,120.94898258009925 86.7428846238181,115.4388038488105 89.2751817824319,89.81636445363984 79.65245258342475,81.55102339643054 70.2829531012103,87.88778653298505 67.49742622859776,112.9592207306996 75.60077713243663,121.5 86.9961143406108,114.88778552296571 89.78164121322334,90.91840852680616 81.93152002524585,81.8265350642614 70.536182818003,87.6122753189411 68.0038856593892,112.40820203279145 76.10723656322807,120.39796507800929 86.7428846238181,115.71431298158132 89.52841149643064,89.81636445363984 79.90568230021745,81.2755117083434 70.536182818003,87.33676408464089 68.0038856593892,112.68371139164083 74.08139883819968,120.39796507800929 82.69120917282999,119.84694749349728 87.24934405554086,115.16329469624907 89.2751817824319,89.26534229400568 79.90568230021745,81.2755117083434 70.536182818003,87.06125282892026 68.2571153761819,114.06125787831843 76.86692571081221,121.5 87.75580348726362,114.06125787831843 89.2751817824319,87.88778653298505 79.39922286849469,81.2755117083434 69.77649367041886,88.43880889913999 67.49742622859776,113.51023934548721 77.12015542667359,120.94898258009925 87.24934405554086,113.7857486223802 89.52841149643064,89.26534229400568 79.39922286849469,81.0 70.2829531012103,87.06125282892026 68.0038856593892,111.58167383191176 74.08139883819968,120.39796507800929 87.24934405554086,114.88778552296571 89.2751817824319,87.88778653298505 81.17183087859303,81.2755117083434 70.2829531012103,87.06125282892026 68.2571153761819,113.51023934548721 75.09431770071387,120.67347383964807 86.7428846238181,115.4388038488105 89.52841149643064,90.91840852680616 81.17183087859303,81.0 70.2829531012103,86.78574155294336 68.0038856593892,112.68371139164083 76.10723656322807,120.67347383964807 86.7428846238181,115.4388038488105 89.78164121322334,88.98983118240722 83.45089832041413,82.10204671067186 74.58785826899111,82.10204671067186 66.73773708194494,98.90821819193661 66.48450736608356,112.68371139164083 65.21835878677666,107.17352029518224" stroke="#4dd2ff" stroke-linecap="round" stroke-linejoin="round" stroke-width="0.5"><title>2024-04-13 4.9km</title><desc>1713000859000</desc></polyline><polyline fill="none" points="110.76353024877608,98.02553565707058 112.66033344063908,116.59875141317025 118.3507430171594,120.21019841521047 127.12345778010786,119.69427764648572 130.91706416383386,110.14972950192168 131.6283653602004,87.19111360167153 121.19594780448824,82.54777944274247 113.37163463793695,90.8025914025493 111.94903224334121,112.98730062856339 116.4539398252964,118.14651487767696 123.32985139638186,118.92039634939283 130.44286336563528,112.72933971392922 131.86546576023102,87.19111360167153 121.43304820358753,82.54777944274247 113.37163463793695,92.09240398649126 112.42323304153979,112.98730062856339 121.67014860268682,119.43631723383442 130.20576296653599,113.50322240102105 132.5767669575289,89.77074098819867 124.0411525927484,82.28981625009328 114.55713663250208,88.22296478739008 112.66033344063908,112.47137877903879 120.95884740632027,119.17835680069402 130.20576296653599,112.98730062856339 132.5767669575289,89.5127783366479 124.2782529918477,82.03185303858481 114.55713663250208,88.73889026534744 112.66033344063908,112.98730062856339 121.43304820358753,119.43631723383442 130.20576296653599,113.76118325837888 132.5767669575289,88.73889026534744 122.85565059725195,82.03185303858481 114.32003623433411,89.25481566507369 113.13453423883766,114.53506571403705 124.5153533918783,119.17835680069402 130.91706416383386,111.43953484878875 131.39126496203244,84.09555818978697 119.29914461262524,81.51592655782588 112.66033344063908,90.28666623355821 111.23773104697466,114.53506571403705 117.16524102166295,120.46815877081826 123.32985139638186,120.98407942405902 132.33966655749828,113.24526152433828 132.81386735476553,85.38537328247912 121.67014860268682,81.0 112.42323304153979,88.73889026534744 110.76353024877608,114.53506571403705 115.26843782979995,120.72611910710111 123.09275099728256,121.24203972192481 132.5767669575289,112.2134178255219 133.52516855299473,86.93315075710416 120.4846466081217,81.77388980798423 111.71193184517324,90.02870362065732 110.76353024877608,114.27710491418839 120.01044580992311,121.5 131.39126496203244,115.05098725412972 134.71067054755986,90.54462882806547 129.02026097197086,81.77388980798423 117.16524102166295,82.80574261513539 111.71193184517324,91.31851649424061 112.66033344063908,114.79302649386227 123.80405219458044,119.95223804097623 130.67996376473457,113.24526152433828 132.81386735476553,90.02870362065732 128.5460601747036,83.57963201822713 122.3814497999847,81.77388980798423 113.60873503703624,89.25481566507369 112.89743383973837,112.72933971392922 121.19594780448824,119.17835680069402 130.67996376473457,113.24526152433828 132.5767669575289,89.5127783366479 124.0411525927484,82.03185303858481 114.0829358343035,89.25481566507369 112.89743383973837,112.98730062856339 120.01044580992311,119.69427764648572 127.59765857737511,118.14651487767696 131.15416456293315,112.98730062856339 133.05096775479615,89.5127783366479 124.5153533918783,82.03185303858481 112.66033344063908,89.77074098819867 110.28932945150882,110.66565169813111" stroke="#4dd2ff" stroke-linecap="round" stroke-linejoin="round" stroke-width="0.5"><title>2024-04-12 5.1km</title><desc>1712913892000</desc></polyline><polyline fill="none" points="147.62500000046566,90.64225744310534 147.25,96.35418082267279 149.64999999990687,99.04693432769272 153.39999999990687,97.33336468454218 154.375,89.82626594719477 153.70000000018626,88.11268181877676 151.60000000009313,87.13348967942875 148.52499999990687,88.84707534621703 147.70000000018626,96.43577951123007 149.64999999990687,98.80213882919634 153.47500000009313,97.17016743519343 154.29999999981374,89.82626594719477 151.97500000009313,87.21508905803785 148.6750000002794,88.6838768273592 147.77500000037253,96.35418082267279 150.25000000046566,98.96533583430573 153.32500000018626,97.57816051249392 154.375,90.15266261884244 151.97500000009313,87.13348967942875 148.6750000002794,88.6838768273592 147.77500000037253,96.27258212782908 149.57500000018626,98.80213882919634 153.32500000018626,97.57816051249392 154.2250000005588,89.66306757472921 151.82500000018626,87.29668843047693 148.6750000002794,88.60227755858796 147.77500000037253,95.94618728756905 149.35000000009313,98.63894179952331 151.60000000009313,98.80213882919634 153.47500000009313,97.33336468454218 154.29999999981374,90.23426177143119 153.5500000002794,88.0310825072811 149.64999999990687,87.45988715690328 148.3000000002794,89.49986917799106 147.25,97.41496329999063 155.20000000018626,100.35250939178513 157.75,99.53652515972499 160.89999999990687,96.43577951123007 165.47500000009313,97.90455486462452 166.52499999990687,100.02611577231437 166.29999999981374,105.9011859818711 170.5749999997206,111.61302946129581 177.9250000002794,114.30574529996375 185.5,115.36651032062946 187.75,113.89775847888086 187.52499999990687,100.18931259418605 186.54999999981374,100.59730454231612 186.25,103.29004757280927" stroke="#4dd2ff" stroke-linecap="round" stroke-linejoin="round" stroke-width="0.5"><title>2024-04-11 3.0km</title><desc>1712828151000</desc></polyline><polyline fill="none" points="22.77353412657976,138.37261999282055 21.81289552152157,162.1500375685282 25.41529028955847,168.1596889125649 32.13976052310318,169.9887111831922 43.18710447754711,162.93390572117642 44.86822203639895,137.32745506730862 34.781516685150564,129.75 24.934970987029374,134.71454138378613 22.053055172786117,161.62745870254003 29.49800436012447,169.46613348950632 38.14375180192292,168.42097786720842 42.70678517501801,163.71777369873598 45.10838168673217,139.15649348217994 37.18311319872737,130.53387542441487 29.738164010457695,131.05645894352347 24.694811335764825,136.28228982840665 21.332576219923794,161.36616923939437 31.179121918044984,170.25 42.70678517501801,164.7629307275638 45.82886064052582,142.81456743972376 44.86822203639895,135.23712427704595 40.30518866330385,131.3177506730426 31.179121918044984,130.0112918280065 25.655449939891696,132.88550064247102 19.17113935854286,142.81456743972376 22.053055172786117,161.88874814496376 26.856248196214437,168.94355571712367 35.982314941473305,169.72742234542966 42.466625523753464,164.24035225249827 44.6280623851344,140.98553093988448 38.624071104452014,130.53387542441487 31.419281569309533,129.75 24.934970987029374,133.66937536327168 22.053055172786117,161.62745870254003 28.537365754134953,169.46613348950632 37.18311319872737,169.2048446133267 43.42726412881166,161.88874814496376 45.58870098926127,140.20165786077268 41.98630622122437,133.40808380884118 35.021676337346435,130.0112918280065 24.694811335764825,134.45324990805238 21.81289552152157,161.1048797571566 28.777525406330824,169.2048446133267 37.18311319872737,168.94355571712367 43.66742377914488,162.1500375685282 45.34854133799672,140.20165786077268 38.86423075571656,130.53387542441487 26.61608854494989,131.57904238370247 23.013693776912987,138.6339111754205 22.77353412657976,164.50164149980992 34.54135703481734,169.72742234542966 42.70678517501801,162.1500375685282 43.66742377914488,138.6339111754205 40.30518866330385,132.62420903029852 33.580718429759145,131.05645894352347 24.934970987029374,137.8500375689473 23.013693776912987,161.36616923939437 32.8602394759655,169.2048446133267 42.226465872488916,162.93390572117642 43.907583431340754,140.46294890646823 41.50598691869527,134.1919584122952 35.021676337346435,131.05645894352347 24.934970987029374,137.58874632744119 21.81289552152157,161.62745870254003 31.179121918044984,170.25 37.66343250032514,169.72742234542966 40.5453483145684,164.7629307275638 43.66742377914488,139.9403667957522 35.982314941473305,131.57904238370247 29.978323661722243,132.1016257458832 25.1751306373626,137.8500375689473 23.013693776912987,160.58230073470622 31.419281569309533,168.68226680229418 41.50598691869527,164.24035225249827 43.66742377914488,138.6339111754205 35.50199563894421,131.3177506730426 25.41529028955847,137.8500375689473 23.253853428177536,161.1048797571566 31.179121918044984,168.94355571712367 41.74614657089114,162.41132697300054 43.66742377914488,138.6339111754205 34.54135703481734,131.57904238370247 24.934970987029374,138.1113287906628 23.013693776912987,161.36616923939437 33.10039912816137,169.2048446133267 41.50598691869527,163.45648439228535 43.42726412881166,137.8500375689473 35.26183598861098,131.57904238370247 25.1751306373626,136.54358116723597 22.293214824050665,161.1048797571566 30.218483313918114,168.94355571712367 41.50598691869527,164.24035225249827 44.6280623851344,139.9403667957522 35.50199563894421,131.57904238370247 29.257844707928598,132.62420903029852 23.013693776912987,139.6790757109411 21.092416567727923,160.58230073470622" stroke="#4dd2ff" stroke-linecap="round" stroke-linejoin="round" stroke-width="0.5"><title>2024-04-09 5.6km</title><desc>1712653834000</desc></polyline><polyline fill="none" points="66.84763161372393,137.13682837155648 66.37939564045519,161.0802308660932 70.3594014113769,168.21227566013113 75.9782330878079,169.23113798210397 82.53353671077639,167.95756003120914 87.2158964406699,161.84437923692167 89.32295832037926,136.62739244638942 85.34295254945755,131.27831063326448 78.08529496658593,129.75 68.4864575183019,137.391546305269 66.84763161372393,162.09909532265738 77.38294100761414,169.74056902900338 87.2158964406699,161.84437923692167 88.85472234617919,137.90098211634904 83.23589066974819,131.02359224227257 78.31941295322031,130.51415540231392 68.4864575183019,137.90098211634904 65.91115966718644,160.57079852349125 70.3594014113769,167.70284438459203 77.14882302004844,169.74056902900338 87.45001442823559,161.58966313279234 89.55707630608231,138.91985350870527 80.66059281863272,130.00471848645248 71.76410933025181,131.7877473589033 67.7841035593301,136.882110418519 66.37939564045519,162.60852743685246 76.44646906014532,169.48585351509973 86.98177845496684,162.60852743685246 89.32295832037926,136.882110418519 86.04530650842935,132.04246569261886 78.78764892648906,130.00471848645248 68.01822154596448,137.391546305269 66.37939564045519,163.1179594739806 76.44646906014532,170.25 86.74766046833247,163.1179594739806 89.32295832037926,136.37267445586622 78.55353093985468,130.25943695451133 68.4864575183019,136.11795644601807 65.67704167962074,162.09909532265738 73.63705322239548,170.25 79.9582388587296,169.48585351509973 86.27942449506372,163.1179594739806 89.08884033374488,136.882110418519 86.04530650842935,132.04246569261886 78.08529496658593,130.00471848645248 67.7841035593301,137.64626422012225 66.14527765475214,163.1179594739806 70.12528342567384,168.46699126856402 76.44646906014532,169.99528452428058 86.74766046833247,163.37267546495423 89.55707630608231,137.64626422012225 86.5135424816981,132.29718400724232 78.55353093985468,130.25943695451133 68.01822154596448,136.11795644601807 65.44292369484901,160.57079852349125 73.16881724912673,169.48585351509973 80.42647483106703,169.48585351509973 86.27942449506372,164.3915392353665 89.79119429271668,142.48590098135173 85.10883456189185,131.02359224227257 71.06175537034869,132.04246569261886 67.31586758606136,138.41041785036214 66.61351362708956,163.88210738776252 71.99822731688619,169.23113798210397 78.55353093985468,169.74056902900338 87.68413241300732,160.82551470515318 89.32295832037926,138.41041785036214 85.5770705351606,132.29718400724232 76.44646906014532,130.00471848645248 67.7841035593301,136.882110418519 65.67704167962074,162.09909532265738 76.21235107444227,170.25 86.98177845496684,163.1179594739806 89.32295832037926,137.391546305269 86.74766046833247,132.8066205806099 78.78764892648906,129.75 71.76410933025181,132.29718400724232 67.31586758606136,138.91985350870527 67.54998557269573,161.84437923692167 76.68058704771101,168.21227566013113 85.5770705351606,162.35381138930097 87.2158964406699,137.64626422012225 79.49000288639218,131.27831063326448 67.08174959942698,139.68400685302913 65.20880570728332,159.04250103840604" stroke="#4dd2ff" stroke-linecap="round" stroke-linejoin="round" stroke-width="0.5"><title>2024-04-08 5.0km</title><desc>1712568268000</desc></polyline><polyline fill="none" points="110.96717390231788,144.658032894833 113.4792746361345,163.78991040377878 119.64534007571638,167.2684217481874 127.18164227809757,165.28070142609067 132.20584374573082,158.8206021648366 131.52072536479682,133.2285469940398 121.01557683944702,129.75 112.5657834596932,138.694827767089 112.10903787147254,163.54144516889937 117.81835772283375,168.0138165615499 127.63838786631823,166.7714917792473 131.74909815844148,159.56599887483753 131.97747095301747,133.47701449738815 119.18859448749572,130.74387094192207 112.10903787147254,141.6764316689223 111.8806650787592,162.79604935110547 118.50347610469908,167.76535164238885 127.18164227809757,166.7714917792473 132.20584374573082,159.56599887483753 131.74909815844148,132.98007947253063 119.64534007571638,130.74387094192207 112.79415625426918,137.94942637323402 111.19554669689387,161.55372261675075 121.24394963309169,168.7592112084385 131.52072536479682,161.0567917926237 133.11933492310345,137.70095920516178 129.23699742462486,131.48927395278588 123.07093198597431,130.24693550844677 116.67649375274777,131.98620920046233 113.25090184248984,137.45249201753177 111.8806650787592,162.29911871277727 115.99137536995113,167.2684217481874 124.89791433792561,167.76535164238885 131.74909815844148,161.0567917926237 132.43421654123813,135.21628649812192 124.66954154428095,129.9984677634202 113.4792746361345,136.7070903449785 111.42391949053854,161.0567917926237 115.30625698901713,166.7714917792473 121.01557683944702,168.0138165615499 131.29235257115215,162.54758404172026 133.5760805113241,138.694827767089 130.37886139471084,132.73161193262786 122.61418639775366,130.74387094192207 115.5346297826618,134.22241689520888 112.33741066604853,140.43409703532234 111.8806650787592,164.78377116005868 115.5346297826618,168.7592112084385 123.52767757419497,169.00767605379224 131.29235257115215,160.80832635308616 133.5760805113241,137.20402481174096 123.29930477961898,130.4954032341484 113.4792746361345,136.95555758778937 110.73880110681057,162.05065336613916 118.73184889927506,170.00153524777852 131.29235257115215,161.30525721400045 133.34770771674812,137.70095920516178 129.00862463004887,131.2408063011244 123.07093198597431,130.24693550844677 113.02252904884517,137.45249201753177 111.6522922841832,162.05065336613916 122.157440809533,168.26228146255016 131.29235257115215,160.31139541743323 133.11933492310345,135.96168850548565 123.29930477961898,130.74387094192207 113.02252904884517,137.94942637323402 111.42391949053854,161.0567917926237 115.99137536995113,166.7714917792473 122.84255919232965,168.26228146255016 131.52072536479682,160.31139541743323 133.11933492310345,135.96168850548565 129.00862463004887,131.48927395278588 120.3304584575817,130.74387094192207 112.10903787147254,141.17949787154794 111.42391949053854,164.53530599875376 115.30625698901713,169.00767605379224 124.66954154428095,168.51074634492397 131.74909815844148,159.56599887483753 131.97747095301747,133.97394944750704 121.70069522224367,129.75 112.79415625426918,137.94942637323402 111.42391949053854,161.30525721400045 118.04673051647842,167.76535164238885 124.66954154428095,167.5168867041357 131.97747095301747,159.31753332400694 133.11933492310345,136.45862308354117 129.23699742462486,131.48927395278588 121.47232242766768,130.4954032341484 112.5657834596932,138.694827767089 112.33741066604853,163.04451464186423 118.73184889927506,168.7592112084385 127.18164227809757,167.5168867041357 132.66258933581412,153.10588849941269 130.37886139471084,134.22241689520888 117.3616121346131,132.48314437363297 111.19554669689387,146.39729904057458 112.10903787147254,166.27456173556857 117.3616121346131,169.75307047762908 126.03977830801159,168.0138165615499 131.97747095301747,159.06906775361858 133.80445330496877,139.4402289937716 131.52072536479682,133.2285469940398 123.52767757419497,130.74387094192207 116.67649375274777,132.73161193262786 111.19554669689387,146.14883250417188 112.10903787147254,166.27456173556857 117.13323934096843,169.50460568792187 126.26815110165626,167.76535164238885 131.97747095301747,159.06906775361858 131.74909815844148,133.97394944750704 119.87371286936104,130.4954032341484 112.33741066604853,140.6825639992021 112.79415625426918,163.78991040377878 119.87371286936104,169.50460568792187 127.86676065996289,169.00767605379224 132.20584374573082,163.04451464186423 132.43421654123813,134.96781912492588 118.96022169385105,130.4954032341484 111.8806650787592,139.93716305145063 110.73880110681057,163.29297991492786 114.39276581257582,168.7592112084385 122.38581360317767,170.00153524777852 131.97747095301747,160.55986089422368 132.89096212945879,135.71322118793614 120.10208566300571,130.74387094192207 111.6522922841832,140.93103094492108 110.96717390231788,164.78377116005868 115.30625698901713,169.2561408802867 122.61418639775366,169.75307047762908 129.46537021826953,166.27456173556857 132.66258933581412,159.81446440774016 133.5760805113241,135.71322118793614 121.01557683944702,130.24693550844677 111.8806650787592,138.9432948611211 110.96717390231788,163.78991040377878 115.07788419537246,168.51074634492397 123.52767757419497,170.25 131.74909815844148,163.54144516889937 133.5760805113241,136.7070903449785 130.37886139471084,132.23467679601163 121.70069522224367,130.24693550844677 112.5657834596932,137.45249201753177 110.05368272587657,161.55372261675075 113.02252904884517,167.0199567724485 119.64534007571638,169.75307047762908 131.29235257115215,163.54144516889937 133.80445330496877,138.694827767089 123.75605036783963,130.24693550844677 113.4792746361345,136.7070903449785 110.96717390231788,161.0567917926237 121.92906801495701,169.75307047762908 132.20584374573082,163.78991040377878 134.48957168776542,139.93716305145063 130.15048860013485,132.98007947253063 123.75605036783963,130.74387094192207 113.02252904884517,137.45249201753177 110.73880110681057,161.8021880008746 114.16439301799983,167.2684217481874 121.92906801495701,169.75307047762908 132.43421654123813,162.29911871277727 134.03282609861344,139.93716305145063 131.06397977657616,133.97394944750704 123.29930477961898,130.24693550844677 112.79415625426918,137.70095920516178 111.19554669689387,162.54758404172026 114.84951140079647,167.5168867041357 121.92906801495701,169.50460568792187 131.52072536479682,163.29297991492786 133.5760805113241,138.9432948611211 123.07093198597431,130.74387094192207 112.79415625426918,138.694827767089 110.96717390231788,162.79604935110547 122.38581360317767,169.00767605379224 131.97747095301747,161.8021880008746 134.03282609861344,138.19789352314547 122.38581360317767,130.4954032341484 112.5657834596932,138.694827767089 111.19554669689387,161.8021880008746 122.157440809533,169.00767605379224 131.74909815844148,162.29911871277727 133.34770771674812,137.94942637323402 128.55187904275954,131.73774158628657 121.92906801495701,130.74387094192207 113.02252904884517,139.19176193629391 110.73880110681057,162.05065336613916 120.78720404580235,169.75307047762908 131.74909815844148,164.28684081928805 134.94631727505475,140.18563005304895 130.8356069829315,132.48314437363297 117.81835772283375,131.73774158628657 112.5657834596932,139.4402289937716 111.19554669689387,158.8206021648366" stroke="#4dd2ff" stroke-linecap="round" stroke-linejoin="round" stroke-width="0.5"><title>2024-04-06 11.8km</title><desc>1712394949000</desc></polyline><polyline fill="none" points="157.8312330134213,165.25327198463492 166.77484247554094,170.25 175.23501358833164,163.14938437961973 178.13564368430525,140.26952537568286 175.23501358833164,132.642872616183 166.291404126212,130.53896549507044 160.49014393426478,134.48379031475633 157.10607548896223,158.15264627174474 163.3907740302384,168.14611538592726 175.23501358833164,163.93834237894043 178.37736285943538,138.95458642556332 173.78469854034483,132.3798842949327 165.80796577688307,131.59091921313666 160.24842475913465,135.79873093706556 157.34779466409236,160.2565368670039 163.63249320536852,168.40910103125498 174.5098560648039,164.99028610251844 177.652205334045,139.48056206433102 172.33438349235803,131.8539075939916 164.5993699040264,131.8539075939916 160.00670558493584,136.587695075199 157.34779466409236,159.4675780411344 162.42389733158052,167.88312972034328 174.7515752390027,164.72730020130984 177.89392450917512,139.48056206433102 170.88406844437122,131.32793081342243 159.76498641073704,136.06171900290065 156.62263714056462,161.834453987889 165.56624660268426,168.9350722641684 175.47673276253045,162.88639834034257 178.13564368430525,139.74354985402897 174.9932944132015,133.43183746212162 168.95031504705548,130.80195395438932 159.03982888534665,136.85068308119662 156.62263714056462,159.99355061142705 164.5993699040264,168.6720866577234 175.71845193766057,162.62341228174046 177.89392450917512,139.21757425460964 168.70859587285668,130.80195395438932 159.52326723653823,136.587695075199 157.34779466409236,160.78250931878574 165.56624660268426,168.9350722641684 175.71845193766057,162.62341228174046 177.652205334045,137.6396469825413 167.98343834932894,131.0649423939176 159.52326723653823,136.85068308119662 157.58951383829117,161.57146784942597 167.01656165067106,168.6720866577234 176.2018902869895,162.09744010469876 178.13564368430525,138.42861070716754 169.43375339638442,131.0649423939176 159.03982888534665,137.6396469825413 157.34779466409236,161.57146784942597 166.04968495108187,168.9350722641684 175.9601711127907,162.88639834034257 178.13564368430525,138.6915985760279 168.46687669865787,131.0649423939176 159.03982888534665,137.6396469825413 157.10607548896223,161.57146784942597 167.01656165067106,168.9350722641684 175.71845193766057,162.88639834034257 177.89392450917512,138.6915985760279 169.67547257151455,130.80195395438932 159.2815480614081,136.587695075199 157.34779466409236,160.51952310232446 165.08280825335532,168.6720866577234 172.09266431815922,167.357158330502 175.9601711127907,162.62341228174046 178.13564368430525,137.90263491054066 169.43375339638442,130.80195395438932 159.76498641073704,136.32470704917796 157.10607548896223,160.51952310232446 164.35765072982758,168.6720866577234 175.47673276253045,163.67535639903508 177.89392450917512,138.95458642556332 170.15891091991216,130.27597701689228 160.00670558493584,135.79873093706556 157.10607548896223,160.78250931878574 165.3245274266228,168.6720866577234 172.81782184168696,167.09417260624468 176.44360946118832,161.834453987889 177.4104861607775,137.37665903521702 167.7417191741988,130.53896549507044 159.03982888534665,137.1136710678693 157.34779466409236,162.36042620264925 166.291404126212,168.9350722641684 175.9601711127907,162.09744010469876 177.89392450917512,138.6915985760279 168.70859587285668,130.80195395438932 158.79810971207917,138.16562281921506 157.34779466409236,160.78250931878574 166.04968495108187,168.6720866577234 175.71845193766057,163.14938437961973 177.89392450917512,138.95458642556332 167.98343834932894,130.80195395438932 159.2815480614081,137.37665903521702 157.34779466409236,161.834453987889 163.14905485603958,168.40910103125498 175.23501358833164,163.93834237894043 178.37736285943538,139.21757425460964 168.70859587285668,130.53896549507044 159.76498641073704,136.32470704917796 157.8312330134213,161.30848169210367 167.01656165067106,168.9350722641684 175.9601711127907,162.09744010469876 178.13564368430525,138.95458642556332 173.5429793652147,132.11689595435746 167.7417191741988,130.53896549507044 159.52326723653823,137.37665903521702 157.34779466409236,161.04549551592208 167.01656165067106,168.9350722641684 175.71845193766057,163.93834237894043 177.89392450917512,138.16562281921506 168.70859587285668,130.0129885179922 160.24842475913465,134.74677847861312 157.34779466409236,161.04549551592208 160.7318631093949,166.8311868624296 167.25828082486987,168.9350722641684 176.44360946118832,161.57146784942597 177.89392450917512,138.16562281921506 173.30126019194722,131.59091921313666 167.01656165067106,130.27597701689228 159.52326723653823,136.587695075199 157.58951383829117,161.834453987889 167.98343834932894,169.4610434176866 175.9601711127907,163.14938437961973 177.652205334045,138.16562281921506 168.22515752352774,129.75 159.2815480614081,136.587695075199 157.10607548896223,160.2565368670039 164.5993699040264,168.6720866577234 175.71845193766057,163.4123703991063 177.652205334045,138.42861070716754 169.43375339638442,130.53896549507044 163.14905485603958,131.32793081342243 159.2815480614081,137.6396469825413 157.34779466409236,161.04549551592208 166.53312330134213,168.9350722641684 176.2018902869895,162.62341228174046 177.652205334045,138.95458642556332 168.95031504705548,130.27597701689228 159.2815480614081,137.37665903521702 157.58951383829117,162.09744010469876 166.291404126212,169.4610434176866 175.9601711127907,162.62341228174046 177.652205334045,137.37665903521702 173.78469854034483,132.11689595435746 166.291404126212,130.53896549507044 159.2815480614081,137.37665903521702 157.8312330134213,162.09744010469876 167.7417191741988,168.9350722641684 176.2018902869895,161.30848169210367 177.89392450917512,137.6396469825413 167.25828082486987,130.27597701689228 160.49014393426478,135.00976662244648 156.86435631476343,143.9513518200256 156.62263714056462,164.20132833905518" stroke="#4dd2ff" stroke-linecap="round" stroke-linejoin="round" stroke-width="0.5"><title>2024-04-03 9.7km</title><desc>1712137473000</desc></polyline><polyline fill="none" points="18.02370883151889,203.11770230717957 24.5927821341902,201.79417428094894 22.159792022779584,208.94121973752044 27.512370268814266,217.14706894243136 39.92061984259635,217.14706894243136 46.97629116848111,191.2059322546702 43.08350698836148,180.08824402699247 33.83814456127584,178.5 27.269071257673204,182.20590162021108 24.349483123980463,208.67651460808702 27.75566928088665,217.6764779149089 36.2711346745491,217.6764779149089 42.596908966079354,213.17649912275374 45.27319808956236,188.8235734316986 39.43402182031423,180.88236577343196 27.512370268814266,185.6470925072208 24.349483123980463,210.7941550926771 31.891752472147346,218.20588680892251 42.596908966079354,212.6470894771628 44.78660006728023,188.55886679701507 37.974227752536535,180.08824402699247 27.269071257673204,185.6470925072208 24.5927821341902,211.5882699470967 32.86494851671159,218.73529562307522 42.596908966079354,212.91179430997 45.27319808956236,188.29416014254093 38.70412478689104,180.61765854386613 31.891752472147346,181.4117801708635 26.78247323539108,186.7059197986964 24.106184111908078,210.7941550926771 32.13505148328841,219.0 42.353609955869615,212.91179430997 45.02989907935262,187.50004005990922 38.70412478689104,180.61765854386613 26.78247323539108,186.4412130054552 24.106184111908078,209.47062993841246 27.269071257673204,216.35295533505268 34.0814435724169,218.73529562307522 43.32680599950254,211.8529748597648 45.02989907935262,187.764746773988 38.46082577481866,180.35295129544102 33.108247527852654,180.35295129544102 26.78247323539108,186.1765061924234 24.106184111908078,209.73533500847407 31.4051544489339,218.73529562307522 42.11031094379723,213.97061344329268 45.27319808956236,188.8235734316986 40.407217864878476,180.88236577343196 34.0814435724169,180.61765854386613 27.025772247463465,186.1765061924234 24.349483123980463,210.26474509085529 29.94536038208753,217.94118237216026 42.596908966079354,216.61765989055857" stroke="#4dd2ff" stroke-linecap="round" stroke-linejoin="round" stroke-width="0.5"><title>2024-04-02 3.0km</title><desc>1712049520000</desc></polyline><polyline fill="none" points="69.43029741756618,191.2448019622825 67.86841949820518,213.33569039520808 72.55405325628817,218.15035409969278 79.58250389248133,218.43356942152604 84.78876362368464,212.48604322387837 87.3918934892863,184.44757958804257 78.54125194717199,178.5 70.21123637724668,185.29723305231892 67.60810651257634,212.48604322387837 72.03342728409916,217.86713875760324 79.32219090685248,218.43356942152604 84.78876362368464,212.20282745733857 87.3918934892863,184.73079743073322 78.80156493280083,178.5 70.21123637724668,185.01401525200345 67.34779352601618,211.63639586116187 76.45874805562198,219.0 84.78876362368464,212.76925896899775 87.65220647491515,185.86366858915426 79.8428168790415,178.5 70.21123637724668,185.01401525200345 67.34779352601618,211.91961167030968 75.67780909594148,219.0 84.52845063712448,213.33569039520808 87.65220647491515,186.14688632590696 80.10312986653298,178.5 70.21123637724668,184.73079743073322 67.34779352601618,211.63639586116187 75.15718312188983,219.0 84.52845063712448,213.33569039520808 87.91251946147531,186.71332173561677 80.88406882621348,178.78321828809567 70.47154936473817,184.16436172416434 67.34779352601618,211.06996418139897 75.67780909594148,219.0 84.52845063712448,213.33569039520808 87.65220647491515,186.14688632590696 79.8428168790415,178.5 70.47154936473817,184.16436172416434 67.34779352601618,211.63639586116187 75.93812208157033,219.0 84.78876362368464,212.48604322387837 87.65220647491515,186.4301040417049 79.58250389248133,178.5 70.21123637724668,185.29723305231892 67.34779352601618,211.91961167030968 75.93812208157033,219.0 84.78876362368464,212.76925896899775 87.65220647491515,185.58045083167963 79.32219090685248,178.5 70.21123637724668,185.29723305231892 67.34779352601618,211.35318003152497 70.73186235129833,217.0174926025793 77.76031298749149,218.71678472170606 84.78876362368464,212.48604322387837 87.65220647491515,185.86366858915426 78.80156493280083,178.5 70.21123637724668,185.29723305231892 67.34779352601618,211.06996418139897 75.15718312188983,219.0 84.52845063712448,213.33569039520808 87.91251946147531,187.27975706011057 80.62375583872199,178.78321828809567 70.73186235129833,183.881143839797 67.34779352601618,211.06996418139897 73.33499221596867,218.43356942152604 84.52845063712448,213.33569039520808 87.91251946147531,186.71332173561677 81.144381810911,178.78321828809567 71.25248832348734,182.74827208812349 67.08748053852469,210.22031650110148 70.47154936473817,217.0174926025793 77.5,219.0 83.74751167744398,214.75176859134808 87.91251946147531,188.4126274564769 82.706259730272,179.34965479862876 72.81436624284834,180.76574570708908 68.38904547225684,214.18533737654798 73.855618189089,218.71678472170606 80.88406882621348,217.58392339362763 86.09032855648547,203.98956102016382" stroke="#4dd2ff" stroke-linecap="round" stroke-linejoin="round" stroke-width="0.5"><title>2024-03-30 4.8km</title><desc>1711782999000</desc></polyline><polyline fill="none" points="110.85143481940031,195.0306660379283 112.62404256314039,213.76533118472435 117.94186579808593,218.17347384011373 126.04521549027413,217.62245629681274 132.1227277573198,209.63269265345298 131.6162684019655,181.5306276618503 119.4612438660115,179.32653506379575 112.87727224174887,186.76534229377285 112.87727224174887,212.938803849509 119.96770322043449,219.0 127.81782323401421,217.07143867062405 132.37595743592829,209.63269265345298 134.1485651805997,188.96943043963984 131.36303872335702,180.97960463585332 122.49999999906868,178.5 116.42248773109168,182.3571620453149 111.8643535291776,209.0816738321446 114.39665030874312,215.41838529892266 121.74031096696854,219.0 132.1227277573198,211.56125787831843 133.13564646895975,183.73471894022077 122.24677032139152,179.0510233968962 113.38373159617186,187.04085338371806 113.38373159617186,215.14287633099593 123.00645935535431,218.72449130075984 130.3501200126484,214.31634930474684 133.64210582431406,189.24494136497378 131.86949807964265,182.3571620453149 126.29844516608864,178.7755117090419 114.90310966409743,183.4592076027766 111.61112385150045,210.73473004810512 117.94186579808593,218.17347384011373 130.09689033497125,213.76533118472435 133.64210582431406,188.96943043963984 128.32428259029984,180.15306994249113 114.90310966409743,180.15306994249113" stroke="#4dd2ff" stroke-linecap="round" stroke-linejoin="round" stroke-width="0.5"><title>2024-03-28 2.0km</title><desc>1711615120000</desc></polyline><polyline fill="none" points="157.26319372002035,195.71255923132412 154.7039921488613,196.21880964795128 157.26319372002035,198.24381055659615 154.47133746091276,196.97818513051607 157.26319372002035,197.73756044334732 157.96115778479725,213.68440263648517 163.0795609243214,218.24062945926562 171.222475011833,218.4937529915478 178.20211565680802,209.88754226407036 179.36538909748197,183.30940036475658 173.78167658206075,179.0062529919669 166.80203593615443,179.0062529919669 158.65912184957415,188.11879389337264 157.0305390311405,211.15316286194138 165.871417183429,219.0 177.03884221613407,212.41878298553638 179.13273441046476,185.84066096926108 175.6429140875116,179.7656323374249 170.05920157022774,178.5 159.58974060136825,185.5875349934213 157.96115778479725,209.1281696781516 161.21832341887057,215.45626935223117 167.03469062410295,217.73438233789057 175.87556877639145,212.41878298553638 178.20211565680802,187.86566808866337 170.05920157022774,180.018758748658 160.75301404297352,185.84066096926108 159.1244312254712,210.9000387797132 167.5,217.73438233789057 176.5735328393057,210.9000387797132 177.9694609688595,185.08128298656084 169.59389219339937,179.5125059077982 160.75301404297352,186.60003878059797 158.89177653659135,210.14066642150283 166.10407187137753,217.73438233789057 176.34087815135717,210.9000387797132 177.9694609688595,186.8531646800693 168.66327344160527,179.0062529919669 160.98566872999072,185.84066096926108 158.4264671606943,210.14066642150283 166.5693812482059,217.73438233789057 176.80618752725422,210.9000387797132 178.6674250336364,186.8531646800693 170.52451094705611,179.5125059077982 161.21832341887057,185.5875349934213 158.65912184957415,209.88754226407036 160.28770466614515,215.20314559270628 166.10407187137753,217.2281351403799 176.5735328393057,211.65941096819006 178.6674250336364,188.37191967945546 170.75716563500464,180.52501151314937 160.98566872999072,185.33440899918787 158.65912184957415,210.9000387797132 167.03469062410295,217.4812587480992 176.5735328393057,211.15316286194138 178.43477034568787,185.84066096926108 169.82654688227922,180.018758748658 160.98566872999072,186.60003878059797 158.65912184957415,210.3937905607745 167.03469062410295,217.73438233789057 174.47964064683765,216.72188786650077 177.9694609688595,211.9125349931419 180.52866253908724,187.61254226532765" stroke="#4dd2ff" stroke-linecap="round" stroke-linejoin="round" stroke-width="0.5"><title>2024-03-26 3.7km</title><desc>1711445960000</desc></polyline><polyline fill="none" points="21.58073669858277,258.3000406483188 30.514679399318993,267.75 41.18577762506902,261.540029499447 43.17109822481871,234.27003255928867 37.71146657504141,227.25 24.80688267480582,231.84002283401787 21.33257162477821,257.49004298099317 23.566057299263775,263.7000204504002 31.259174624457955,267.480001504533 40.68944747373462,262.08002735790797 43.667428374290466,235.62003725557588 38.70412687398493,227.52000150457025 25.55137789901346,232.92002735869028 22.325231924653053,248.5800566454418 25.303212823346257,263.7000204504002 31.755504773929715,266.6700058982242 37.71146657504141,264.24001798639074 42.922933149151504,237.2400422245264 38.70412687398493,229.41001147241332 31.507339699193835,228.60000732145272 26.544038198888302,232.6500262580812 23.317892224527895,256.4100458091125 28.777523873373866,265.860010109609 38.952291949652135,262.62002513650805 42.922933149151504,236.1600389922969 37.21513642370701,228.33000589790754 26.544038198888302,232.92002735869028 23.317892224527895,256.9500444356818 29.02568894904107,265.860010109609 38.70412687398493,262.62002513650805 41.18577762506902,231.3000204502605 32.74816507380456,227.79000298911706 25.799542972818017,234.81003449857235 23.566057299263775,260.19003449799493 28.033028648234904,265.32001281599514 34.981650749221444,265.5900114723481" stroke="#4dd2ff" stroke-linecap="round" stroke-linejoin="round" stroke-width="0.5"><title>2024-03-25 2.1km</title><desc>1711359274000</desc></polyline><polyline fill="none" points="82.63033338356763,263.85578976827674 87.40273652970791,237.37504431023262 81.91447291150689,229.06731782038696 69.50622473005205,234.51926557230763 66.881403000094,256.5865856455639 74.0400077207014,266.19231643225066 84.53929464146495,262.0384901652578 87.40273652970791,237.37504431023262 80.48275196738541,229.32693457440473 69.50622473005205,234.77888191887178 66.881403000094,258.1442735251039 74.51724803447723,266.19231643225066 84.77791479974985,261.25964718684554 87.40273652970791,236.33657958637923 80.24413181003183,229.32693457440473 69.50622473005205,234.51926557230763 67.12002315744758,258.403888103785 69.2676045736298,263.85578976827674 75.94896897859871,266.451930408366 85.01653495617211,260.2211896101944 87.40273652970791,237.89427655516192 81.19861243944615,229.32693457440473 69.50622473005205,233.48079999396577 67.12002315744758,258.403888103785 74.51724803447723,266.71154436608776 84.30067448504269,261.7788758587558 87.40273652970791,237.37504431023262 80.72137212473899,228.8077010475099 69.74484488833696,233.22118355124258 66.881403000094,258.9231172024738 69.2676045736298,264.11540392017923 76.42620929237455,266.97115830378607 85.25515511352569,259.96157516818494 87.16411637235433,236.07696335669607 79.76689149532467,228.8077010475099 73.08552709035575,230.10578471934423 69.02898441627622,235.29811455169693 67.35864331480116,260.2211896101944 76.66482945065945,266.451930408366 85.49377527181059,259.1827317236457 87.16411637235433,236.33657958637923 80.24413181003183,228.8077010475099 69.2676045736298,235.29811455169693 67.12002315744758,259.44234622386284 75.47172866482288,266.19231643225066 84.53929464146495,261.25964718684554 87.16411637235433,236.07696335669607 78.81241086684167,228.8077010475099 69.02898441627622,235.03849824517965 67.35864331480116,259.70196070545353 75.47172866482288,266.71154436608776 85.01653495617211,261.25964718684554 87.40273652970791,236.33657958637923 83.34619385562837,229.58655130909756 69.98346504569054,233.22118355124258 67.12002315744758,256.84620034042746 72.84690693300217,266.19231643225066 84.30067448504269,262.2981044522021 87.40273652970791,236.85581198707223 80.00551165267825,229.06731782038696 69.50622473005205,234.00003282236867 67.12002315744758,258.6635026624426 73.8013875624165,265.93270243611187 84.06205432768911,263.07694719778374 87.64135668799281,237.63466044235975 82.86895354092121,229.58655130909756 75.47172866482288,228.8077010475099 69.74484488833696,234.00003282236867 65.4496820550412,256.5865856455639 67.35864331480116,263.5961755979806 74.0400077207014,267.75 80.24413181003183,267.490386120975 85.97101558558643,262.0384901652578 89.55031794589013,238.15389264840633 83.10757369827479,227.76923376019113 75.23310850653797,227.25 68.31312394421548,232.9615670889616 65.4496820550412,257.88465892663226 72.84690693300217,266.97115830378607 85.25515511352569,264.8942462580744" stroke="#4dd2ff" stroke-linecap="round" stroke-linejoin="round" stroke-width="0.5"><title>2024-03-24 4.9km</title><desc>1711273464000</desc></polyline><polyline fill="none" points="111.08136542327702,256.5690677543171 113.13671964779496,263.77456173603423 118.84603693615645,267.50153524801135 125.468844990246,266.25921120890416 130.9497895874083,260.7929799151607 133.23351650312543,234.70402481220663 131.40653496980667,230.23161193262786 124.55535422451794,227.9954032341484 117.01905540376902,229.7346767964773 112.90834695659578,234.95249201823026 111.53811080753803,259.79911871347576 115.87719194591045,265.5138165622484 123.64186345785856,267.2530704771634 131.86328035313636,258.05986089468934 132.09165304433554,231.47394944750704 123.87023614998907,227.9954032341484 115.42044656351209,230.72854699473828 111.9948561899364,236.6917619369924 110.62462004087865,258.55679179285653 117.9325461704284,267.75 125.92559037450701,266.25921120890416 130.7214168952778,261.0414451688994 134.60375265125185,238.18256399896927 131.63490766193718,230.23161193262786 125.24047229904681,227.74693550821394 115.64881925471127,230.72854699473828 112.2232288820669,236.19482776685618 111.9948561899364,263.02916653174907 118.61766424495727,267.75 125.24047229904681,267.2530704771634 132.09165304433554,258.05986089468934 132.09165304433554,231.47394944750704 121.12976385187358,227.25 112.45160157326609,235.94636065443046 110.85299273300916,259.5506533659063 115.19207387138158,266.010746344924 122.50000000093132,267.00460568768904 131.86328035313636,258.3083263535518 132.77677111886442,232.71628649812192 129.1228080559522,228.49233863083646 121.35813654307276,227.74693550821394 112.2232288820669,236.4432948611211 111.30973811540753,261.5383756214287 123.64186345785856,266.75614088005386 131.63490766193718,258.3083263535518 131.63490766193718,231.47394944750704 122.95674538332969,227.49846776365303 112.90834695659578,233.2132211884018 110.39624734967947,260.0475840414874 114.96370117925107,265.7622814630158 123.64186345785856,267.2530704771634 131.63490766193718,258.8052572142333 131.1781622786075,229.9831443738658 122.27162730880082,227.49846776365303 115.87719194591045,230.72854699473828 110.85299273300916,249.3635581403505 113.82183772232383,264.5199567724485 127.9809445971623,265.26535164238885 133.4618891943246,237.4371630519163 128.437689980492,228.74080630065873 115.64881925471127,230.72854699473828 110.85299273300916,255.32673962507397 112.45160157326609,263.77456173603423 118.38929155282676,266.75614088005386 129.80792612954974,262.5322363025043 133.6902618855238,237.93409703532234 130.49304420407861,229.9831443738658 115.42044656351209,229.9831443738658 111.53811080753803,244.1457655588165 113.13671964779496,263.77456173603423 119.98790039401501,267.2530704771634 128.2093172883615,264.76842174795456 131.86328035313636,259.05372261744924 133.6902618855238,238.18256399896927 130.26467151287943,229.9831443738658 119.07440962735564,228.24387094192207 112.2232288820669,236.4432948611211 111.08136542327702,261.0414451688994 117.4758007870987,266.75614088005386 125.24047229904681,265.7622814630158 130.49304420407861,252.5936161072459 129.35118074622005,231.47394944750704 122.27162730880082,229.23774158605374 114.96370117925107,232.71628649812192 110.62462004087865,248.36969351908192" stroke="#4dd2ff" stroke-linecap="round" stroke-linejoin="round" stroke-width="0.5"><title>2024-03-22 5.0km</title><desc>1711100044000</desc></polyline><polyline fill="none" points="155.16929414588958,242.43755680741742 159.35708104074,263.9531455927063 166.3367258636281,267.4968765054364 173.31637068651617,265.47188786650077 177.9694672357291,260.1562869239133 179.59805102739483,248.5125604425557 176.57353827077895,231.30002181371674 167.0346903456375,228.00937945931219 160.28770035039634,236.6156680881977 159.35708104074,260.9156589983031 164.94079689867795,266.7375059078913 171.6877868939191,266.7375059078913 177.27150275278836,258.89066642173566 177.03884792514145,234.5906609685626 169.36123862024397,229.02188513986766 160.52035517711192,236.6156680881977 159.35708104074,260.1562869239133 163.5448679337278,265.72501151286997 169.82654827460647,266.9906294597313 176.57353827077895,257.87816967861727 177.50415758043528,233.83128298586234 170.9898224119097,228.26250590826385 160.52035517711192,234.33753499365412 158.42646173015237,258.6375422643032 167.96530965529382,266.23125874856487 174.0143351694569,264.9656405176502 178.2021220624447,257.87816967861727 178.4347768900916,232.05940036429092 175.6429189601913,228.26250590826385 166.8020355189219,227.25 158.8917713854462,234.8437869248446 157.49584242142737,259.90316286170855 167.96530965529382,267.75 177.50415758043528,258.3844180877786 179.83070585504174,236.10941642220132 176.34088344313204,227.5031265055295 161.91628414206207,229.52813786664046 156.33256828412414,255.09380207257345" stroke="#4dd2ff" stroke-linecap="round" stroke-linejoin="round" stroke-width="0.5"><title>2024-03-21 2.2km</title><desc>1711013104000</desc></polyline></svg>