<?xml version="1.0" encoding="utf-8" ?>
<svg baseProfile="full" height="300mm" version="1.1" viewBox="0,0,200,300" width="200mm" xmlns="http://www.w3.org/2000/svg" xmlns:ev="http://www.w3.org/2001/xml-events" xmlns:xlink="http://www.w3.org/1999/xlink"><defs /><rect fill="#222222" height="300" width="200" x="0" y="0" /><text fill="#FFFFFF" style="font-size:12px; font-family:Arial; font-weight:bold;" x="10" y="20">Over 2km Runs</text><text fill="#FFFFFF" style="font-size:4px; font-family:Arial" x="10" y="280">ATHLETE</text><text fill="#FFFFFF" style="font-size:9px; font-family:Arial" x="10" y="290">作怪</text><text fill="#FFFFFF" style="font-size:4px; font-family:Arial" x="120" y="280">STATISTICS</text><text fill="#FFFFFF" style="font-size:3px; font-family:Arial" x="120" y="285">Number: 31</text><text fill="#FFFFFF" style="font-size:3px; font-family:Arial" x="120" y="290">Weekly: 3.4</text><text fill="#FFFFFF" style="font-size:3px; font-family:Arial" x="141" y="285">Total: 142.1 km</text><text fill="#FFFFFF" style="font-size:3px; font-family:Arial" x="141" y="290">Avg: 4.6 km</text><text fill="#FFFFFF" style="font-size:3px; font-family:Arial" x="167" y="285">Min: 2.0 km</text><text fill="#FFFFFF" style="font-size:3px; font-family:Arial" x="167" y="290">Max: 12.3 km</text><polyline fill="none" points="18.63434346858412,38.91431668540463 18.445265387184918,57.63430898217484 21.470514693297446,61.337149505037814 26.953779062256217,61.95428910735063 34.13874616473913,56.400027700001374 34.895058491267264,36.03430655878037 26.386544817127287,32.94857807690278 20.146968121640384,38.708601776044816 19.20157771371305,57.63430898217484 26.008388654328883,62.36571543244645 33.5715119196102,58.4571628626436 35.46229273639619,37.68002700037323 28.088247552514076,32.74286272167228 20.146968121640384,38.091456956695765 19.012499632313848,56.60574128548615 26.197466734796762,62.36571543244645 34.13874616473913,57.63430898217484 35.46229273639619,38.91431668540463 28.46640371531248,33.15429341653362 20.714202366769314,38.297171912156045 19.012499632313848,57.2228819495067 24.495764000341296,62.36571543244645 32.437043430283666,59.6914432218764 35.8404488991946,40.148605815600604 34.895058491267264,36.03430655878037 29.411794123239815,32.94857807690278 20.903280448168516,37.88574198610149 19.012499632313848,57.017168410355225 26.197466734796762,62.57142857136205 33.94966808333993,58.0457359533757 35.46229273639619,36.85716690309346 29.60087220557034,31.714285714086145 25.062998245470226,31.920001146383584 19.957890040241182,35.828591434285045 18.63434346858412,42.00003847293556" stroke="#4dd2ff" stroke-linecap="round" stroke-linejoin="round" stroke-width="0.5"><title>2024-05-16 2.1km</title><desc>1715854249000</desc></polyline><polyline fill="none" points="54.93960149027407,38.997371573001146 55.99655990768224,57.01333711342886 59.5197546351701,61.42147960327566 64.98070646263659,62.57142857136205 70.9701374983415,57.20499564008787 72.20325565338135,36.697451959364116 69.20854013506323,33.24756866833195 62.690629890188575,32.28926692926325 56.525039116851985,38.0390719845891 55.82040017284453,56.438361446605995 63.57142857182771,62.379770445637405 70.44165828917176,56.82167857233435 71.85093618091196,37.27243205648847 64.09990778099746,33.24756866833195 57.581997535191476,37.27243205648847 56.525039116851985,55.288409726461396 63.21910909935832,61.03816316626035 69.03238039836287,57.971629603998736 70.9701374983415,38.0390719845891 68.85622066259384,34.20587004814297 63.9237480442971,32.86424801568501 57.934317007660866,37.65575204906054 56.701198854483664,55.09675105661154 63.395268836058676,60.84650492644869 70.26549855340272,55.863385651027784 71.14629723504186,38.0390719845891 65.68534540757537,31.90594613389112 58.81511569023132,33.24756866833195 56.525039116851985,37.080772038782015 55.64424043614417,57.20499564008787 63.57142857182771,62.379770445637405 71.49861670751125,55.480068382341415 71.85093618091196,36.50579189858399 64.6283869901672,31.714285714086145 59.34359489940107,32.67258766829036 56.17271964531392,37.080772038782015 55.11576122697443,55.671727024484426 63.042949362657964,61.99645415181294 70.9701374983415,56.246702862670645 71.85093618091196,36.697451959364116 65.68534540757537,32.28926692926325 56.525039116851985,36.12247173325159 55.11576122697443,54.90509237162769 57.934317007660866,60.07987182261422 62.86678962595761,62.57142857136205 70.61781802587211,57.20499564008787 72.20325565338135,36.50579189858399 69.20854013506323,33.055908349109814 61.10519226267934,32.28926692926325 56.701198854483664,35.54749137838371 55.82040017284453,41.68060851236805" stroke="#4dd2ff" stroke-linecap="round" stroke-linejoin="round" stroke-width="0.5"><title>2024-05-15 3.1km</title><desc>1715764820000</desc></polyline><polyline fill="none" points="108.49045174848288,54.51322877523489 108.85174756683409,35.252065709326416 101.62583118677139,31.714285714086145 93.31602734792978,35.252065709326416 91.32890034280717,56.08556238375604 99.27740836143494,62.57142857136205 107.04526847135276,57.461353519232944 108.67109965812415,37.02095391997136 100.18064790964127,31.910829172702506 92.2321398910135,38.789840940153226 91.14825243316591,56.871728835161775 94.39991480484605,61.195640112040564 99.81935209035873,62.17834622762166 107.40656429156661,56.08556238375604 108.12915592920035,36.62786775431596 100.18064790964127,32.10737261548638 92.77408361900598,37.80712607642636 91.50954825244844,56.871728835161775 94.39991480484605,60.99909884436056 99.63870418164879,62.37488740659319 107.04526847135276,57.06827041087672 108.30980383884162,36.23478152905591 105.23878937680274,33.09008961217478 99.096760452725,32.50045945844613 92.59343570936471,38.39675503899343 91.32890034280717,56.28210401837714 94.76121062412858,61.195640112040564 101.0838874578476,62.17834622762166 107.40656429156661,55.88902073376812 108.49045174848288,36.43132464913651 100.90323954820633,31.714285714086145 92.59343570936471,37.414040027419105 91.14825243316591,57.06827041087672 99.27740836143494,62.37488740659319 107.40656429156661,57.26481197215617 108.85174756683409,36.62786775431596 104.87749355752021,32.50045945844613 98.19352090544999,32.10737261548638 92.41278779972345,37.80712607642636 91.14825243316591,56.67518724431284 99.63870418164879,62.37488740659319 104.51619773823768,60.80255756271072 107.58721220027655,56.08556238375604 108.49045174848288,37.02095391997136 100.36129581928253,32.10737261548638 92.77408361900598,37.80712607642636 91.32890034280717,56.871728835161775 94.58056271448731,60.99909884436056 101.9871270051226,62.37488740659319" stroke="#4dd2ff" stroke-linecap="round" stroke-linejoin="round" stroke-width="0.5"><title>2024-05-13 3.1km</title><desc>1715589913000</desc></polyline><polyline fill="none" points="129.5132146300748,40.66670517507009 130.56364857405424,58.76192499534227 139.31726477574557,62.00000339793041 143.69407287612557,56.09526910050772 144.39436217211187,36.095260872505605 136.51610759086907,32.47619497869164 132.4894441384822,33.80953564331867 130.73872089851648,38.38098404952325 130.03843160159886,57.047646526712924 137.91668618377298,61.04762782459147 143.16885590460151,55.714318031212315 142.99378358013928,36.4762148775626 136.16596294287592,33.619058448355645 127.58741906564683,38.76193771301769 128.8129253340885,56.66669559897855 135.9908906184137,62.38095352775417 140.01755407173187,61.428578096674755 143.8691452005878,56.2857446144335 145.09465146809816,37.04764577909373 138.0917585073039,32.2857176840771 132.4894441384822,33.80953564331867 129.33814230561256,38.76193771301769 128.98799765761942,57.4285973967053 133.01466111000627,61.80952831171453 138.7920478032902,62.38095352775417 143.8691452005878,56.66669559897855 145.2697237925604,37.42859964212403 144.04421752411872,34.00001282454468 137.3914692113176,32.09524037502706 129.68828695453703,36.85716882604174 128.63785300962627,55.90479357284494 136.16596294287592,62.19047846994363 143.69407287612557,57.047646526712924 144.91957914456725,37.42859964212403 142.64363893214613,33.42858123918995 137.2163968877867,31.714285714086145 129.68828695453703,37.61907655163668 128.46278068609536,56.47622011369094 136.16596294287592,62.57142857136205 143.69407287612557,56.85717107006349 143.8691452005878,37.04764577909373 137.04132456332445,33.42858123918995 130.9137932220474,38.19050719635561 130.03843160159886,57.23812196869403 137.91668618377298,61.04762782459147 142.99378358013928,55.5238424744457 144.04421752411872,35.523829757701606 141.94334963522851,32.66667225910351 135.9908906184137,32.09524037502706 129.16306998208165,38.38098404952325" stroke="#4dd2ff" stroke-linecap="round" stroke-linejoin="round" stroke-width="0.5"><title>2024-05-12 3.1km</title><desc>1715507107000</desc></polyline><polyline fill="none" points="164.79351727850735,41.39499600371346 167.20333641767502,60.15127326827496 174.43279383331537,62.57142857136205 179.6231735162437,56.92439615051262 180.55002703052014,36.35296373232268 172.94982820935547,32.31933112605475 166.64722430799156,38.168096436420456 166.27648290246725,59.74791383976117 173.5059403181076,62.57142857136205 179.43780281208456,56.11767626833171 179.8085442185402,35.94960074336268 175.174276644364,32.72269465820864 168.1301899328828,35.14287458430044 164.79351727850735,54.5042357777711 167.94481922872365,61.3613511917647 172.94982820935547,62.57142857136205 177.95483718905598,59.5462341029197 180.36465632729232,43.00844433857128 179.993914921768,36.95800810260698 176.4718715660274,33.731103224447 171.46686258539557,33.12605813052505 167.3887071199715,35.94960074336268 165.16425868403167,56.52103623910807 170.91075047664344,62.168069505132735 178.88169070333242,58.5378351919353 180.92076843604445,40.58827147400007 176.84261297155172,33.731103224447 172.39371610060334,32.72269465820864 167.57407782319933,35.74791922606528 165.16425868403167,56.319356261054054 170.3546383678913,62.36974904616363 179.06706140749156,57.932795664528385 180.55002703052014,38.97482169023715 174.8035352388397,31.714285714318976 166.83259501121938,34.53782980632968" stroke="#4dd2ff" stroke-linecap="round" stroke-linejoin="round" stroke-width="0.5"><title>2024-05-09 2.0km</title><desc>1715244227000</desc></polyline><polyline fill="none" points="17.624193883500993,74.87674685940146 19.178261353634298,91.99610846932046 29.279699915088713,96.22309536766261 34.91319449711591,90.09396230219863 36.6615204019472,74.03134359838441 34.52467762865126,68.53621623432264 28.696924613788724,66.0 21.315104125998914,68.74756748462096 18.789744487032294,90.09396230219863 25.977306539192796,96.85714285704307 34.136160761117935,92.63015690725297 36.46726196818054,72.34053631708957 29.473958347924054,66.42270286381245 20.926587258465588,69.59297232655808 18.984002919867635,91.78475895873271 25.20027280319482,96.64579370990396 32.97061015851796,93.89825335633941 36.27300353348255,73.39729098649696 30.056733650155365,66.63405427196994 20.149553522467613,70.64972802391276 18.789744487032294,90.93936075712554 24.42323906812817,96.22309536766261 34.136160761117935,91.99610846932046 35.88448666688055,72.12918533594348 29.279699915088713,66.2113514400553 20.926587258465588,70.0156746529974 19.178261353634298,90.51666156109422 24.811755936592817,96.01174617325887 33.553385459817946,92.41880744416267 35.69022823218256,71.91783433873206 30.056733650155365,66.63405427196994 20.3438119571656,67.90216238913126" stroke="#4dd2ff" stroke-linecap="round" stroke-linejoin="round" stroke-width="0.5"><title>2024-05-05 2.0km</title><desc>1714901559000</desc></polyline><polyline fill="none" points="55.67322845105082,78.69443837180734 56.21174209564924,92.75589805049822 60.34034670330584,96.46654839115217 65.90498769842088,96.46654839115217 72.18764688353986,90.2170289887581 72.90566507726908,70.49188524973579 65.18696950469166,66.19529951899312 57.10926483664662,71.66368013061583 56.03223754744977,91.19351738179103 63.39192402269691,96.85714285704307 71.2901241434738,91.19351738179103 73.08516962546855,71.46838102024049 70.93111504707485,67.75769514893182 64.82796040922403,66.0 56.391246642917395,72.4448764261324 53.698678420856595,88.06875323969871 58.36579667311162,95.09946730057709 64.10994221549481,96.46654839115217 71.46962869167328,90.80292206839658 72.90566507726908,72.05427830736153 66.62300589028746,66.39059902378358 58.00678757764399,70.88248360180296 55.85273299925029,91.19351738179103 61.955887638032436,96.85714285704307 70.93111504707485,92.75589805049822 72.90566507726908,81.62391538405791 73.26467417366803,72.05427830736153 70.93111504707485,68.14829390938394 64.46895131189376,66.19529951899312 58.186292125843465,68.92949125659652 55.49372390285134,88.84994462551549 60.519851251505315,96.2712511359714 65.18696950469166,96.46654839115217 70.5721059506759,92.36530297063291 73.4441787218675,73.42137146601453 72.0081423362717,68.92949125659652 67.8795377286151,66.78119798959233 62.67390582989901,66.58589851437137 57.28876938484609,70.68718443298712 54.775705710053444,89.43583801225759 56.92976028751582,94.31827778392471 64.82796040922403,96.66184563143179 71.64913323987275,89.43583801225759 72.54665598087013,70.29658605158329 67.34102408308536,66.78119798959233 61.05836489610374,67.56239574588835 56.57075119204819,73.6166704299394 57.10926483664662,93.92768293828703 66.26399679388851,96.07595386682078 71.11061959527433,92.17000540927984 72.36715143267065,86.11577375140041 72.0081423362717,69.1247905571945 65.72548314929008,66.19529951899312 59.26331941410899,68.14829390938394 56.21174209564924,73.6166704299394 56.03223754744977,93.34179056016728 65.00746495649219,96.46654839115217 71.64913323987275,90.02173126698472 72.7261605290696,69.71068837027997 63.57142857089639,66.19529951899312 56.03223754744977,73.2260724871885 56.391246642917395,93.92768293828703 60.69935580063611,96.85714285704307 66.62300589028746,96.07595386682078 72.36715143267065,87.87345535657369 72.7261605290696,69.71068837027997 68.95656501781195,66.39059902378358 62.314896734431386,66.58589851437137 56.03223754744977,73.2260724871885 56.03223754744977,93.1464930716902 65.18696950469166,96.85714285704307 71.82863778807223,90.2170289887581 73.08516962546855,71.0777827561833 70.03359230607748,67.36709632887505 63.93043766822666,66.58589851437137 56.391246642917395,71.66368013061583 56.21174209564924,92.56060051801614 64.64845586009324,96.85714285704307 71.64913323987275,89.82643352961168 72.54665598087013,70.10128683899529 67.8795377286151,66.39059902378358 61.596878540702164,66.78119798959233 56.21174209564924,73.6166704299394 54.59620116185397,91.38881501648575" stroke="#4dd2ff" stroke-linecap="round" stroke-linejoin="round" stroke-width="0.5"><title>2024-04-29 5.0km</title><desc>1714382183000</desc></polyline><polyline fill="none" points="92.38435390405357,92.09526249626651 98.16174059733748,96.47619275562465 106.56521215010434,92.66668860986829 109.19129701144993,74.19051264692098 107.09042912255973,69.23811280005611 100.96289778221399,67.14286381169222 93.78493249695748,73.04765199869871 92.03420925606042,91.90478709689341 95.01043876446784,95.71429238235578 100.08753616176546,96.47619275562465 106.39013982657343,92.28573788143694 107.26550144702196,73.23812880902551 101.48811475373805,67.90477273403667 93.2597155245021,73.42860560538247 92.38435390405357,91.52383625437506 100.61275313328952,95.52381725376472 106.74028447456658,90.76193439937197 107.26550144702196,71.71431392780505 99.56231918931007,67.71429552487098 92.03420925606042,76.47623240412213 90.80870298855007,81.4286181726493 94.31014946941286,94.38096618070267 100.08753616176546,95.90476749720983 104.46434426214546,93.61906518088654 107.44057377055287,73.23812880902551 102.88869334571064,67.90477273403667 93.9600048204884,71.14288311172277 92.20928158052266,87.90480041271076 97.11130665335804,94.95239178137854 105.5147782061249,91.71431168238632 107.79071841947734,73.04765199869871 103.58898264169693,67.90477273403667 99.03710221685469,67.52381830126978 94.48522179294378,71.71431392780505 92.73449855297804,90.38098338618875 95.88580038491637,94.38096618070267 100.78782545775175,94.95239178137854 107.79071841947734,88.47622746601701 103.41391031816602,65.99999999976717 93.43478784896433,71.33336006477475 91.50899228453636,88.85717876441777 97.46145130135119,96.85714285704307 106.56521215010434,92.66668860986829 108.84115236252546,74.57146608224139 106.56521215010434,69.61906697647646 101.48811475373805,67.14286381169222 96.93623432889581,68.09524992899969 92.5594262285158,73.04765199869871 91.33391996100545,90.38098338618875 97.46145130135119,96.47619275562465 103.06376567017287,95.90476749720983 106.56521215010434,92.28573788143694 108.66608003899455,73.42860560538247 101.8382594017312,66.95238654478453 92.90957087650895,71.52383700362407 91.50899228453636,89.42860560491681 94.83536644093692,94.38096618070267 99.73739151377231,95.71429238235578 107.44057377055287,88.85717876441777 108.49100771546364,72.09526773332618 106.39013982657343,68.85715856659226 99.38724686577916,67.14286381169222 92.5594262285158,72.47622148203664 91.33391996100545,90.38098338618875 97.28637897782028,96.85714285704307 106.21506750304252,92.28573788143694 108.84115236252546,73.42860560538247 106.21506750304252,68.66668142843992 101.1379701057449,66.95238654478453 92.5594262285158,72.47622148203664 91.15884763654321,89.61908118939027 96.93623432889581,96.47619275562465 106.56521215010434,91.33336081239395 108.66608003899455,72.47622148203664 102.18840404972434,66.76190926437266 92.90957087650895,71.52383700362407 91.50899228453636,89.61908118939027 97.6365236248821,96.6666678134352 106.39013982657343,91.52383625437506 107.96579074300826,73.04765199869871 101.66318707820028,67.33334106323309 92.73449855297804,72.47622148203664 91.50899228453636,90.00003231689334 94.13507714495063,94.95239178137854 99.21217454131693,96.28571768361144 106.03999517858028,89.61908118939027 107.44057377055287,72.85717517440207 100.78782545775175,67.33334106323309 93.43478784896433,73.04765199869871 92.38435390405357,90.57145890011452 99.03710221685469,95.3333421102725 105.86492285411805,90.38098338618875 107.26550144702196,72.85717517440207 101.1379701057449,67.71429552487098 93.2597155245021,72.85717517440207 90.80870298855007,89.61908118939027" stroke="#4dd2ff" stroke-linecap="round" stroke-linejoin="round" stroke-width="0.5"><title>2024-04-28 5.8km</title><desc>1714295019000</desc></polyline><polyline fill="none" points="127.16760035138577,79.22453134623356 129.28990622330457,93.28864708915353 133.92039176169783,96.43732006126083 139.9014355810359,95.59767428133637 144.14604732394218,90.769706168212 145.11073181126267,69.98835728759877 136.6215083245188,66.41982734994963 130.06165381334722,72.2974036524538 128.51815863419324,90.97961799800396 131.6051489925012,95.59767428133637 137.20031901728362,96.64723146730103 144.14604732394218,90.769706168212 146.07541629858315,73.55688268691301 145.6895425040275,69.98835728759877 139.9014355810359,66.20991368312389 130.64046450518072,70.61809739354067 128.9040324287489,90.13997058500536 131.21927519794554,94.75802824925631 136.0426976326853,96.43732006126083 143.5672366321087,92.02917691110633 144.91779491398484,70.61809739354067 136.6215083245188,66.0 131.79808588977903,68.51896315696649 129.8687169160694,73.34696955396794 130.06165381334722,93.70847035665065 137.39325591549277,96.85714285704307 142.0237414520234,94.33820513938554 145.49660560581833,73.34696955396794 140.8661200683564,66.62974100094289 135.65682383812964,66.41982734994963 131.0263383006677,70.19827067176811 128.71109553147107,89.09041096409783 134.8850762490183,96.64723146730103 143.5672366321087,91.81926516001113 145.49660560581833,71.66766392323188 139.3226248882711,66.20991368312389 130.83340140338987,70.61809739354067 128.9040324287489,89.30032291985117 134.49920245353132,96.43732006126083 143.76017352938652,91.3994416105561 145.49660560581833,72.08749042497948 142.0237414520234,66.62974100094289 132.37689658254385,67.88922257977538 128.51815863419324,89.51023486000486 134.69213935174048,96.43732006126083 143.37429973483086,91.60935339331627 145.49660560581833,72.2974036524538 140.8661200683564,66.41982734994963 135.84976073540747,66.0 130.64046450518072,70.4081840403378 128.9040324287489,89.30032291985117 134.11332865897566,96.01749720238149 142.6025521447882,92.86882375972345 145.30366870760918,72.9271432403475 139.9014355810359,66.62974100094289 134.11332865897566,67.25948186102323 128.9040324287489,72.2974036524538 126.78172655776143,89.51023486000486" stroke="#4dd2ff" stroke-linecap="round" stroke-linejoin="round" stroke-width="0.5"><title>2024-04-26 3.3km</title><desc>1714123626000</desc></polyline><polyline fill="none" points="163.85775271989405,82.61542936228216 166.9484523627907,93.09892035741359 170.5845695901662,96.06593856425025 175.4933278458193,95.67033632937819 179.3112509343773,91.31870783492923 181.31111540924758,77.27476702537388 180.76569782476872,72.32969968719408 176.22055129148066,67.78022956848145 166.58484063856304,71.73629098525271 164.7667820258066,89.73629569797777 170.22095786686987,95.27473403490148 179.12944507226348,91.51650928566232 180.76569782476872,72.72530541499145 174.2206868166104,66.98901657480747 166.40303477831185,71.53848805534653 164.7667820258066,89.93409726745449 169.4937344212085,95.0769328654278 178.58402748871595,91.71431072149426 180.5838919635862,72.32969968719408 173.67526923306286,67.1868198455777 166.03942305594683,72.13189680152573 165.13039374817163,90.52750188554637 168.58470511436462,95.0769328654278 174.40249267686158,95.47253518924117 178.9476392120123,91.71431072149426 180.76569782476872,72.92310825618915 174.76610440015793,66.79121328960173 166.58484063856304,70.94507917552255 164.94858788698912,89.34069251595065 171.31179303396493,95.47253518924117 179.49305679555982,89.93409726745449 180.5838919635862,72.13189680152573 174.03888095542789,66.59340998902917 165.13039374817163,71.34068511030637 164.7667820258066,75.09893853589892 164.94858788698912,92.3077149395831 169.13012269884348,96.26373966014944 174.94791026134044,95.86813745461404 180.5838919635862,89.93409726745449 180.94750368688256,70.54947318159975 172.58443406410515,66.0 168.22109339106828,66.98901657480747 165.13039374817163,72.13189680152573 163.85775271989405,90.92310488922521 168.22109339106828,95.86813745461404 173.129851648584,96.85714285704307 180.2202802412212,91.12090636999346 181.85653299372643,72.72530541499145 176.58416301384568,66.19780334457755 170.03915200568736,66.0 166.03942305594683,68.96704861498438 164.03955858107656,91.51650928566232" stroke="#4dd2ff" stroke-linecap="round" stroke-linejoin="round" stroke-width="0.5"><title>2024-04-25 3.0km</title><desc>1714037269000</desc></polyline><polyline fill="none" points="18.557171629741788,122.32656523841433 25.309957987628877,130.30321148852818 33.99211187567562,127.57436137553304 36.500289666466415,107.63268384034745 31.869807592593133,101.7551097359974 24.92408448178321,101.96502330899239 22.222969939000905,104.90381167992018 20.100665654987097,124.42568487115204 24.92408448178321,130.5131229260005 34.37798538245261,127.36444971826859 36.693226418457925,108.26242319261655 33.99211187567562,102.80467744311318 24.92408448178321,101.7551097359974 17.206614359281957,110.99129208596423 21.644159680232406,128.41400784649886 27.818135778419673,131.14285714295693 32.44861785136163,129.46356558264233 35.72854265384376,104.90381167992018 26.274641754105687,101.125368922716 17.592487865127623,108.05251009063795 20.67947591468692,127.36444971826859 24.73114772886038,130.72303434740752 31.6768708396703,129.67347708228044 35.72854265384376,124.63559674751014 36.693226418457925,107.42277069110423 32.44861785136163,101.33528254320845 26.081705001182854,101.125368922716 21.837096432223916,104.90381167992018 19.71479214821011,123.16621327959001 24.73114772886038,130.5131229260005 34.57092213537544,126.94462635694072 36.693226418457925,107.0029443462845 29.94044006243348,100.91545528708957 21.258286173455417,105.95337820937857 19.328918643295765,124.00586106954142 24.73114772886038,130.72303434740752 33.41330161690712,129.04374253517017 36.88616317231208,107.63268384034745 31.0980605809018,100.70554163609631 22.415906691923738,103.8542447576765 19.71479214821011,123.37612525024451 24.73114772886038,130.30321148852818 33.79917512368411,127.99418464279734 37.079099926166236,109.10207544243895 35.53560590092093,103.01459093717858 28.20400928426534,100.28571428591385 22.415906691923738,104.27407157374546 20.100665654987097,124.8455086085014 25.8887682473287,130.72303434740752 35.14973239414394,126.94462635694072 36.693226418457925,106.58311793836765 29.94044006243348,100.70554163609631 21.45122292637825,105.11372501705773 19.71479214821011,125.89506767969579 27.432262271642685,130.72303434740752 35.342669147998095,125.89506767969579 36.11441616062075,104.90381167992018 28.78281954396516,100.70554163609631 21.45122292637825,105.74346493463963 20.100665654987097,125.4752440978773 26.467578506097198,130.5131229260005 35.14973239414394,125.89506767969579 36.30735291354358,105.74346493463963 28.011072530411184,100.70554163609631 21.837096432223916,105.11372501705773 20.100665654987097,125.4752440978773 28.589882790111005,131.14285714295693 35.342669147998095,124.63559674751014 36.500289666466415,105.74346493463963 27.818135778419673,100.91545528708957 21.45122292637825,106.79303115000948 20.29360240790993,125.4752440978773 28.20400928426534,130.5131229260005 35.342669147998095,125.05542045435868 36.693226418457925,106.58311793836765 33.22036486491561,101.7551097359974 27.62519902549684,100.91545528708957 21.45122292637825,106.58311793836765 21.45122292637825,126.7347146528773" stroke="#4dd2ff" stroke-linecap="round" stroke-linejoin="round" stroke-width="0.5"><title>2024-04-22 4.9km</title><desc>1713776322000</desc></polyline><polyline fill="none" points="55.08042593766004,109.80956370732747 56.48100369144231,125.23812417150475 64.70939799770713,129.619056396652 69.78649235516787,124.47622214513831 70.13663679361343,105.80955128953792 61.03288139216602,101.23810083093122 55.7807148154825,107.90479667298496 55.7807148154825,126.76192753924988 60.15752029698342,130.3809568840079 65.9349035313353,130.57143196999095 71.01199788972735,124.09527104650624 70.83692567050457,104.47621242026798 61.90824248921126,101.42857809737325 55.95578703377396,107.33336628531106 55.95578703377396,126.76192753924988 58.93201476149261,129.8095315399114 66.28504797071218,130.3809568840079 70.83692567050457,125.23812417150475 71.5372145473957,105.04764344962314 63.834036900661886,100.85714625543915 56.65607591159642,105.80955128953792 54.73028150014579,124.09527104650624 57.53143700771034,129.23810606752522 63.13374802377075,130.761907042237 70.66185345221311,125.4285996418912 71.8873589867726,106.38098201947287 63.48389246221632,101.42857809737325 56.30593147315085,106.38098201947287 55.255498157814145,125.04764868575148 58.40679810382426,129.42858123942278 63.834036900661886,130.761907042237 70.83692567050457,125.04764868575148 71.5372145473957,105.23812043108046 64.18418133910745,100.85714625543915 56.30593147315085,106.76193576864898 55.60564259625971,126.38097678287886 59.107086980715394,130.00000666850246 65.23461465537548,130.761907042237 71.18707010988146,124.66669767303392 71.5372145473957,105.42859739833511 63.6589646814391,101.23810083093122 58.40679810382426,103.14287285297178 56.130859253928065,107.14288946054876 54.905353718437254,124.28574660257436 57.70650922693312,129.04763088189065 62.78360358532518,131.14285714295693 70.83692567050457,125.23812417150475 72.06243120599538,105.80955128953792 64.18418133910745,101.23810083093122 56.30593147315085,106.57145890104584 55.08042593766004,125.23812417150475 62.958675804547966,131.14285714295693 70.31170901283622,126.76192753924988 72.58764786366373,110.00004033301957 71.18707010988146,104.47621242026798 67.51055350527167,102.00000981078483 57.53143700771034,103.90478126262315 54.555209279991686,122.76194175286219 57.70650922693312,128.85715568158776 63.834036900661886,130.761907042237 68.91113125905395,128.09525473811664 72.58764786366373,110.00004033301957 68.56098682060838,102.00000981078483 58.93201476149261,102.38096421537921 55.60564259625971,107.90479667298496 55.60564259625971,126.9524028962478 62.6085313661024,131.14285714295693 68.03577016294003,129.23810606752522 71.18707010988146,124.28574660257436 72.23750342428684,107.52384309563786 64.35925355833024,100.28571428591385 56.48100369144231,106.00002821418457 54.905353718437254,125.04764868575148 63.13374802377075,131.14285714295693 70.83692567050457,126.00002596899867 72.23750342428684,107.14288946054876 64.70939799770713,101.23810083093122 56.130859253928065,105.80955128953792 54.555209279991686,123.14289305103011" stroke="#4dd2ff" stroke-linecap="round" stroke-linejoin="round" stroke-width="0.5"><title>2024-04-21 5.0km</title><desc>1713688153000</desc></polyline><polyline fill="none" points="100.55748389894143,106.27525775396498 101.18465328519233,110.7484380142414 103.06616144441068,111.35496941080783 104.8082986283116,110.36935570684727 105.85358093888499,103.09094791195821 104.8779841158539,101.19552063685842 102.7177340076305,100.74061756324954 101.18465328519233,101.87787486438174 100.27874194970354,109.00465822702972 102.36930657038465,111.27915300620953 105.22641155263409,109.76282372046262 105.85358093888499,102.71186274057254 103.76301631773822,100.66480036464054 100.97559682303108,102.25696034758585 100.34842743701302,109.23210793471662 102.7177340076305,111.35496941080783 105.22641155263409,109.68700719665503 105.85358093888499,102.71186274057254 103.27521790657192,100.66480036464054 100.97559682303108,102.40859450137941 100.34842743701302,109.30792449228466 102.7177340076305,111.35496941080783 105.29609703994356,109.5353741318686 105.85358093888499,102.63604568934534 103.48427436850034,100.66480036464054 100.97559682303108,102.3327774272766 100.41811292432249,109.45955759112258 102.7177340076305,111.35496941080783 105.29609703994356,109.5353741318686 105.85358093888499,102.71186274057254 103.06616144441068,100.66480036464054 100.90591133595444,102.56022863223916 100.41811292432249,109.61119066708488 102.7177340076305,111.35496941080783 105.22641155263409,109.68700719665503 105.78389545134269,102.63604568934534 103.20553241902962,100.66480036464054 100.90591133595444,102.40859450137941 100.34842743701302,109.38374104443938 102.85710498224944,111.35496941080783 105.29609703994356,109.38374104443938 105.78389545134269,102.63604568934534 102.99647595686838,100.66480036464054 100.90591133595444,102.48441156960325 100.55748389894143,109.91445675096475 102.50867754523642,111.35496941080783 104.7386131407693,110.5209886468947 105.78389545134269,104.00075174483936 104.32050021691248,100.89225194393657 101.11496779834852,102.02950907457853 100.27874194970354,108.92884164629504 101.74213718436658,111.05170375795569 103.55395985557698,111.27915300620953 105.01735509047285,110.06608975905692 105.85358093888499,103.01513088907814 104.11144375475124,100.74061756324954 101.3240242600441,101.65042350621661 100.69685487402603,110.14190625445917 103.55395985557698,111.27915300620953 105.36578252725303,108.92884164629504 105.78389545134269,102.48441156960325 102.85710498224944,100.74061756324954 100.83622584864497,102.63604568934534 100.55748389894143,109.91445675096475 102.85710498224944,111.35496941080783 105.22641155263409,109.68700719665503 105.85358093888499,102.71186274057254 103.41458888095804,100.66480036464054 100.90591133595444,102.48441156960325 100.55748389894143,109.91445675096475 103.3449033938814,111.27915300620953 105.36578252725303,108.92884164629504 105.5051535021048,101.95369197236141 103.48427436850034,100.66480036464054 101.25433877273463,101.72624063119292 100.27874194970354,108.92884164629504 101.46339523489587,110.97588733048178 98.39723379071802,114.00854000356048 98.46691927826032,118.10260671831202 93.24050772562623,118.55750199919567 92.12553992820904,119.69473930809181 90.94088664301671,127.27628875867231 88.08378166076727,130.00563267845428 90.24403176922351,131.1428571428405 87.87472519860603,129.85400265362114 91.01057213032618,126.44232109497534 91.98616895335726,119.46729194832733 98.32754830364138,117.72352716169553 99.65157256345265,112.26476582523901 107.80477458494715,113.25037768605398 112.12527480139397,109.23210793471662 108.29257299657911,111.96150044462411 105.57483898918144,111.80986772011966 105.78389545134269,102.18114326230716 104.94766960293055,100.74061756324954 102.92679046955891,100.28571428568102 100.62716938648373,102.40859450137941 100.0696854875423,109.91445675096475 102.99647595686838,111.50660220324062 105.15672606509179,109.23210793471662 105.64452447672375,102.10532617126592 104.7386131407693,100.58898316026898 102.36930657038465,100.51316595001845 100.48779841186479,102.7876797861536 100.0696854875423,110.36935570684727 102.92679046955891,111.43078580999281 104.94766960293055,109.15629137092037 105.57483898918144,102.02950907457853 104.59924216615036,100.66480036464054 102.43899205792695,100.51316595001845 100.13937097485177,103.6974838913302 99.72125805099495,109.30792449228466 100.62716938648373,111.05170375795569 102.85710498224944,111.50660220324062 104.8082986283116,109.91445675096475 105.64452447672375,102.9393138604355 103.83270180528052,100.36153151286999 100.83622584864497,101.72624063119292 99.72125805099495,109.38374104443938 101.81182267167605,111.35496941080783 104.94766960293055,109.30792449228466 105.71420996403322,102.40859450137941 104.66892765369266,100.66480036464054 103.27521790657192,100.36153151286999 100.0,103.24258194083814 99.58188707614318,109.76282372046262 102.6480485200882,111.50660220324062 105.01735509047285,109.23210793471662 105.43546801479533,102.02950907457853 103.13584693172015,100.36153151286999 100.27874194970354,102.56022863223916 99.72125805099495,109.5353741318686 102.36930657038465,111.5824185910169 105.01735509047285,109.15629137092037 105.43546801479533,101.95369197236141 103.06616144441068,100.36153151286999 100.41811292432249,102.10532617126592 99.72125805099495,109.30792449228466 102.36930657038465,111.43078580999281 104.8779841158539,109.68700719665503 105.5051535021048,102.10532617126592 103.06616144441068,100.36153151286999 100.13937097485177,102.63604568934534 99.86062902561389,109.38374104443938 102.43899205792695,111.43078580999281 104.94766960293055,109.30792449228466 105.64452447672375,102.10532617126592 103.41458888095804,100.36153151286999 100.34842743701302,102.10532617126592 99.4425161012914,109.15629137092037 102.22993559576571,111.43078580999281 104.94766960293055,109.76282372046262 105.43546801479533,102.10532617126592 102.85710498224944,100.36153151286999 100.20905646216124,102.56022863223916 99.65157256345265,109.68700719665503 102.36930657038465,111.43078580999281 105.01735509047285,109.30792449228466 105.5051535021048,102.3327774272766 103.13584693172015,100.43734873423818 100.27874194970354,102.02950907457853 99.5122015888337,108.92884164629504 102.22993559576571,111.27915300620953 105.01735509047285,109.23210793471662 105.57483898918144,102.18114326230716 102.99647595686838,100.36153151286999 100.34842743701302,102.10532617126592 99.58188707614318,109.15629137092037 102.29962108354084,111.35496941080783 105.08704057778232,109.45955759112258 105.64452447672375,102.56022863223916 103.3449033938814,100.43734873423818 100.41811292432249,102.10532617126592 99.58188707614318,109.15629137092037 102.0905646213796,111.50660220324062 104.94766960293055,109.38374104443938 105.78389545134269,102.40859450137941 104.8779841158539,100.81643475638703 103.13584693172015,100.43734873423818 100.27874194970354,102.02950907457853 99.58188707614318,109.23210793471662 102.0905646213796,111.35496941080783 105.08704057778232,109.30792449228466 105.43546801479533,102.18114326230716 104.7386131407693,100.89225194393657 102.78741949470714,100.43734873423818 100.0696854875423,102.18114326230716 99.72125805099495,109.38374104443938 102.5783630325459,111.35496941080783 104.8779841158539,109.76282372046262 105.43546801479533,101.87787486438174 102.92679046955891,100.36153151286999 100.41811292432249,100.96806912560714 99.58188707614318,102.25696034758585" stroke="#4dd2ff" stroke-linecap="round" stroke-linejoin="round" stroke-width="0.5"><title>2024-04-18 12.3km</title><desc>1713432540000</desc></polyline><polyline fill="none" points="144.65346551965922,123.53146074223332 143.51899736840278,104.40002000611275 135.76679833978415,100.69714513490908 129.9053795626387,106.25145557220094 128.77091141138226,126.20573755423538 134.63233018945903,130.73143084859475 139.92651489190757,129.7028648450505 143.1408413182944,125.38288342696615 143.89715341851115,104.40002000611275 139.35928081627935,100.69714513490908 134.06509611476213,100.90286053647287 129.52722351253033,106.04574057040736 128.77091141138226,125.58859698218293 132.17431586328894,130.32000449346378 137.27942254114896,131.14285714295693 143.32991934288293,124.56002905406058 144.46438749413937,106.25145557220094 136.71218846552074,100.28571428591385 129.52722351253033,106.4571705579292 128.58183338679373,125.38288342696615 133.8760180901736,130.73143084859475 142.57360724266618,126.41145104682073 144.46438749413937,107.48574525653385 142.57360724266618,102.96001370437443 136.71218846552074,100.28571428591385 129.71630153711885,105.84002555371262 128.58183338679373,125.58859698218293 134.06509611476213,130.93714400357567 139.92651489190757,129.49715159810148 142.76268526818603,125.38288342696615 143.89715341851115,105.84002555371262 135.57772031612694,100.28571428591385 129.9053795626387,106.25145557220094 128.77091141138226,125.79431052110158 136.52311044093221,131.14285714295693 142.95176329370588,124.97145627159625 143.51899736840278,105.42859547398984 139.92651489190757,101.72572198789567 133.11970598902553,101.3142912928015 129.9053795626387,106.4571705579292 129.14906746242195,126.41145104682073 137.84665661584586,130.32000449346378 142.95176329370588,122.70860581495799 143.32991934288293,104.81145023973659 138.22481266595423,101.10857592220418 133.11970598902553,101.93143731262535 129.14906746242195,111.80575479008257 130.66169166285545,129.08572505810298 136.90126649010926,130.5257176789455 141.81729514244944,126.82287798728794 143.89715341851115,107.28003034740686 141.6282171169296,102.96001370437443 136.52311044093221,101.3142912928015 129.9053795626387,103.57715935469605 128.20367733668536,107.691460150294" stroke="#4dd2ff" stroke-linecap="round" stroke-linejoin="round" stroke-width="0.5"><title>2024-04-17 3.1km</title><desc>1713344929000</desc></polyline><polyline fill="none" points="166.20986605156213,107.22860363079235 164.43725890293717,122.27146639954299 168.51425534393638,127.86430325056426 173.3002946441993,129.2142965348903 178.97263751737773,125.1643145615235 180.9225053805858,106.84288804605603 174.54111964814365,101.25000559049658 166.91890891082585,106.4571724042762 165.8553446214646,124.58574518933892 172.41399106942117,129.60000877198763 179.32715894747525,125.1643145615235 180.745244666934,107.22860363079235 174.00933750346303,101.25000559049658 166.91890891082585,107.22860363079235 165.6780839068815,124.00717568653636 172.05946964025497,129.0214403946884 179.32715894747525,124.77860166062601 180.745244666934,107.4214614010416 175.42742322105914,101.82858020067215 167.27343033999205,106.07145670498721 165.6780839068815,124.39288870221935 172.23673035483807,129.2142965348903 179.32715894747525,124.58574518933892 180.9225053805858,107.80717689893208 174.71838036272675,101.63572201156057 167.27343033999205,106.26431456161663 165.8553446214646,123.62146261218004 167.80521248467267,127.28573448397219 172.9457732141018,129.2142965348903 179.32715894747525,124.77860166062601 180.745244666934,106.26431456161663 173.1230339296162,101.44286380871199 167.27343033999205,106.26431456161663 166.03260533697903,124.58574518933892 172.76851250045002,129.79286486888304 179.14989823289216,124.97145811794326 180.9225053805858,106.84288804605603 174.54111964814365,101.44286380871199 167.62795177008957,106.4571724042762 165.6780839068815,123.62146261218004 168.86877677310258,128.25001568975858 173.65481607429683,129.4071526604239 179.32715894747525,124.77860166062601 180.3907232368365,106.65003023250028 173.4775553587824,101.44286380871199 167.62795177008957,106.4571724042762 166.20986605156213,123.62146261218004 170.81864463631064,129.2142965348903 178.97263751737773,124.97145811794326 180.9225053805858,107.80717689893208 174.36385893356055,101.44286380871199 167.62795177008957,106.07145670498721 166.03260533697903,123.23574948078021 170.81864463631064,129.2142965348903 178.97263751737773,125.35717098996975 181.27702681161463,107.61431915708818 175.07290179189295,102.0214383751154 167.62795177008957,106.07145670498721 165.6780839068815,123.81431915634312 171.88220892474055,129.60000877198763 179.14989823289216,124.77860166062601 180.745244666934,106.65003023250028 174.71838036272675,101.63572201156057 170.10960177797824,102.60001281206496 167.62795177008957,106.4571724042762 166.03260533697903,124.97145811794326 172.5912517849356,129.60000877198763 179.50441966205835,124.39288870221935 180.745244666934,106.4571724042762 173.4775553587824,101.82858020067215 167.27343033999205,106.65003023250028 166.20986605156213,124.58574518933892 172.41399106942117,129.2142965348903 179.32715894747525,124.20003220136277 180.745244666934,106.84288804605603 174.54111964814365,101.63572201156057 167.62795177008957,105.87859883368947 165.8553446214646,124.77860166062601 171.70494821108878,129.4071526604239 178.79537680279464,125.35717098996975 180.9225053805858,107.03574584564194 173.65481607429683,101.63572201156057 166.56438748165965,105.30002513271756 164.43725890293717,123.81431915634312 169.57781963329762,129.98572095111012 174.89564107730985,130.17857701936737 179.85894109215587,126.70716558722779 181.45428752619773,111.08575629838742 177.37729108519852,100.86428911215626 172.5912517849356,100.28571428591385 167.62795177008957,103.95001932559535 164.08273747377098,120.72861271980219 166.03260533697903,128.82858423981816 170.46412320714444,131.14285714295693 176.49098751042038,129.98572095111012 181.63154824078083,122.65717967576347" stroke="#4dd2ff" stroke-linecap="round" stroke-linejoin="round" stroke-width="0.5"><title>2024-04-15 5.9km</title><desc>1713172666000</desc></polyline><polyline fill="none" points="30.111785574117675,137.83959398471052 30.32135699270293,144.07188028487144 31.858214063104242,145.5159411674249 33.88407111028209,145.3639348554425 35.70035673887469,143.23584409890464 36.04964243643917,136.31951835594373 32.90607115649618,134.57142857142026 30.530928411521018,137.07955645472975 30.251499853329733,143.6918639219366 31.50892836530693,145.3639348554425 33.255356854293495,145.59194431477226 35.77021387848072,143.53985733707668 35.840071018086746,135.71148746774998 33.255356854293495,134.6474325377494 31.019928388297558,136.09150681545725 30.111785574117675,143.15984077512985 31.788356923731044,145.43993801414035 34.23335680807941,145.3639348554425 35.840071018086746,143.76786720595555 36.32907099486329,136.6995374765247 33.88407111028209,134.7234364981996 30.600785551127046,136.7755412834813 30.041928434511647,142.85582742339466 32.13764262129553,145.59194431477226 35.4907853200566,144.2998900343082 36.32907099486329,136.9275488803396 34.373071087291464,134.8754444021033 31.019928388297558,136.09150681545725 30.111785574117675,143.38785072928295 32.06778548192233,145.59194431477226 35.28121390147135,144.60390295402613 36.398928134469315,137.38357153494144 35.00178534351289,135.02745228342246 33.325213993899524,134.7234364981996 31.089785527903587,135.9394990936271 30.181642713723704,143.00783411064185 31.92807120271027,145.5159411674249 35.28121390147135,144.60390295402613 35.840071018086746,135.71148746774998 32.6266425983049,134.8754444021033 30.670642690500244,136.9275488803396 30.32135699270293,143.76786720595555 33.325213993899524,145.59194431477226 35.77021387848072,143.6158606322715 36.18935671611689,136.7755412834813 33.67449969146401,134.79944045294542 30.670642690500244,136.7755412834813 30.181642713723704,143.76786720595555 32.696499737678096,145.59194431477226 35.56064245989546,143.6918639219366 36.18935671611689,136.85154508473352 33.46492827311158,134.6474325377494 30.740499830106273,136.62353366374737 30.181642713723704,143.84387048421195 32.48692831909284,145.59194431477226 34.51278536627069,145.28793169086566 35.77021387848072,143.6918639219366 36.25921385549009,136.62353366374737 33.60464255232364,134.7234364981996 30.740499830106273,136.6995374765247 30.32135699270293,143.53985733707668 32.6266425983049,145.59194431477226 35.4907853200566,144.22388679004507 36.32907099486329,136.6995374765247 33.60464255232364,134.7234364981996 30.810356969945133,136.39552219142206 30.251499853329733,143.3118474171497 32.34721404011361,145.59194431477226 35.4907853200566,144.14788354031043 36.25921385549009,137.00355267047416 34.02378538972698,134.79944045294542 30.95007124892436,136.16751066799043 30.181642713723704,143.6918639219366 32.48692831909284,145.6679474566481 35.56064245989546,144.22388679004507 36.25921385549009,136.9275488803396 34.02378538972698,134.79944045294542 30.111785574117675,136.31951835594373 29.692642736947164,144.07188028487144 28.016071387566626,146.9599999974016 28.924214201513678,152.12819373002276 22.706928780768067,153.4962406118284 20.89064315217547,160.86846154456725 17.88678615121171,164.13654237246374 21.589214547770098,165.42857142857974" stroke="#4dd2ff" stroke-linecap="round" stroke-linejoin="round" stroke-width="0.5"><title>2024-04-14 5.4km</title><desc>1713087921000</desc></polyline><polyline fill="none" points="54.4069245737046,155.35280698980205 58.8444738779217,164.16910285199992 67.1407617079094,164.58892577374354 71.38537408597767,157.66183953615837 71.5783110121265,137.93004561169073 63.2820231821388,135.2011695727706 57.68685232102871,140.6589189961087 56.14335690997541,159.551046569366 59.42328465729952,163.74927986809053 64.63258166611195,164.79883721098304 70.99950023274869,159.1312228939496 72.35005871672183,139.81926592974924 63.86083396151662,134.78134225378744 57.493915393948555,141.07874543545768 56.14335690997541,159.76095838355832 63.08908625598997,164.58892577374354 70.80656330659986,160.18078196421266 72.92886949609965,141.91839812509716 66.17607707623392,134.78134225378744 58.265663099475205,138.97961261169985 56.529230763204396,159.34113473934121 63.2820231821388,165.00874863239005 70.61362638045102,160.81051721796393 72.54299564380199,141.28865863126703 65.21139244455844,134.99125592107885 58.07272617239505,139.81926592974924 55.95041998382658,158.92131103295833 62.12440162524581,165.42857142863795 70.80656330659986,160.390693731606 72.92886949609965,142.1283112585079 66.94782478176057,135.2011695727706 58.265663099475205,139.609352623811 56.33629383612424,158.50148726301268 62.51027547754347,164.58892577374354 70.61362638045102,161.0204289383255 72.7359325690195,141.28865863126703 65.4043293716386,134.78134225378744 58.265663099475205,139.39943930250593 56.33629383612424,158.71139915543608 60.966780067421496,164.58892577374354 67.52663556020707,164.16910285199992 70.99950023274869,160.6006054827012 72.54299564380199,140.86883222381584 65.4043293716386,134.78134225378744 58.265663099475205,139.1895259649027 56.529230763204396,159.76095838355832 63.08908625598997,165.42857142863795 71.38537408597767,159.76095838355832 72.54299564380199,139.81926592974924 65.01845551840961,134.78134225378744 57.68685232102871,140.23909249459393 55.95041998382658,159.34113473934121 63.2820231821388,165.00874863239005 70.99950023274869,159.551046569366 72.7359325690195,140.86883222381584 65.01845551840961,134.57142857136205 58.07272617239505,139.1895259649027 56.33629383612424,157.8717514909804 60.966780067421496,164.58892577374354 70.99950023274869,160.390693731606 72.54299564380199,139.81926592974924 66.36901400238276,134.78134225378744 58.07272617239505,139.1895259649027 56.529230763204396,159.34113473934121 61.73852777201682,164.79883721098304 70.61362638045102,160.81051721796393 72.7359325690195,142.1283112585079 66.36901400238276,134.57142857136205 58.07272617239505,138.97961261169985 56.33629383612424,158.71139915543608 62.51027547754347,164.79883721098304 70.61362638045102,160.81051721796393 72.92886949609965,140.6589189961087 68.10544633958489,135.4110832081642 61.35265391971916,135.4110832081642 55.37160920538008,148.21578528895043 55.17867227923125,158.71139915543608 54.21398764755577,154.51315831998363" stroke="#4dd2ff" stroke-linecap="round" stroke-linejoin="round" stroke-width="0.5"><title>2024-04-13 4.9km</title><desc>1713000859000</desc></polyline><polyline fill="none" points="91.05792780965567,147.54326526261866 92.50311119295657,161.69428679114208 96.83866134751588,164.4458654592745 103.52263449970633,164.0527829688508 106.41300126817077,156.7807462872006 106.95494503714144,139.2884675061796 99.00643642339855,135.75068909930997 93.04505496285856,142.04006964014843 91.9611674239859,158.9427052407991 95.39347796328366,162.8735351448413 100.63226773124188,163.46315912343562 106.05170542281121,158.74616359150968 107.13559296075255,139.2884675061796 99.18708434607834,135.75068909930997 93.04505496285856,143.02278398978524 92.32246327027678,158.9427052407991 99.36773226968944,163.85624170210212 105.8710574992001,159.33578849607147 107.67753672972322,141.25389789580368 101.17421150021255,135.5541457142681 93.94829457718879,140.07463983795606 92.50311119295657,158.54962192685343 98.82578850071877,163.65970041952096 105.8710574992001,158.9427052407991 107.67753672972322,141.05735492310487 101.35485942289233,135.35760231525637 93.94829457718879,140.4677259165328 92.50311119295657,158.9427052407991 99.18708434607834,163.85624170210212 105.8710574992001,159.53233010158874 107.67753672972322,140.4677259165328 100.270971884951,135.35760231525637 93.76764665544033,140.8608119355049 92.86440704017878,160.12195482989773 101.53550734650344,163.65970041952096 106.41300126817077,157.7634551229421 106.77429711446166,136.9299490971025 97.56125303916633,134.9645154727623 92.50311119295657,141.64698379696347 91.41922365594655,160.12195482989773 95.935421731323,164.64240668271668 100.63226773124188,165.03548908489756 107.49688880611211,159.13924687588587 107.858184652403,137.9126653582789 99.36773226968944,134.57142857159488 92.32246327027678,140.4677259165328 91.05792780965567,160.12195482989773 94.49023834709078,164.8389478912577 100.4516198085621,165.23203026433475 107.67753672972322,158.3530802479945 108.40012842230499,139.0919243863318 98.46449265442789,135.1610589013435 91.78051950223744,141.45044085383415 91.05792780965567,159.9254132679198 98.103196808137,165.42857142863795 106.77429711446166,160.51503790798597 109.30336803663522,141.84352672612295 104.96781788393855,135.1610589013435 95.935421731323,135.9472324687522 91.78051950223744,142.4331554241944 92.50311119295657,160.31849637627602 100.99356357753277,164.24932422162965 106.23235334549099,159.13924687588587 107.858184652403,141.45044085383415 104.60652203857899,136.5368624900002 99.90967603866011,135.1610589013435 93.22570288646966,140.8608119355049 92.68375911656767,158.74616359150968 99.00643642339855,163.65970041952096 106.23235334549099,159.13924687588587 107.67753672972322,141.05735492310487 101.17421150021255,135.35760231525637 93.58699873182923,140.8608119355049 92.68375911656767,158.9427052407991 98.103196808137,164.0527829688508 103.88393034599721,162.8735351448413 106.59364919178188,158.9427052407991 108.0388325760141,141.05735492310487 101.53550734650344,135.35760231525637 92.50311119295657,141.25389789580368 90.69663196336478,157.17382986540906" stroke="#4dd2ff" stroke-linecap="round" stroke-linejoin="round" stroke-width="0.5"><title>2024-04-12 5.1km</title><desc>1712913892000</desc></polyline><polyline fill="none" points="121.28571428614669,141.91791043285048 121.0,146.2698520553531 122.82857142877765,148.32147377345245 125.68571428582072,147.01589690247783 126.42857142863795,141.29620262642857 125.91428571427241,139.9906147190486 124.31428571441211,139.24456356529845 121.97142857150175,140.55015264474787 121.34285714291036,146.33202248474117 122.82857142877765,148.13496291748015 125.74285714281723,146.89155614108313 126.37142857140861,141.29620262642857 124.60000000009313,139.3067345204181 122.08571428596042,140.42581091605825 121.4000000001397,146.2698520553531 123.28571428591385,148.25930349278497 125.62857142882422,147.20240800949978 126.42857142863795,141.54488580481848 124.60000000009313,139.24456356529845 122.08571428596042,140.42581091605825 121.4000000001397,146.20768162119202 122.77142857154831,148.13496291748015 125.62857142882422,147.20240800949978 126.31428571464494,141.17186100932304 124.48571428586729,139.36890547082294 122.08571428596042,140.36364004464122 121.4000000001397,145.95899983815616 122.60000000009313,148.01062232343247 124.31428571441211,148.13496291748015 125.74285714281723,147.01589690247783 126.37142857140861,141.60705658770166 125.8000000002794,139.9284438150935 122.82857142877765,139.49324735760456 121.8000000002794,141.04751937370747 121.0,147.07806727616116 127.05714285722934,149.31619763182243 129.0,148.69449535978492 131.4000000001397,146.33202248474117 134.88571428577416,147.4510894206469 135.68571428582072,149.06751677888678 135.51428571436554,153.54376074805623 138.77142857131548,157.89564149430953 144.37142857164145,159.9472345142276 150.14285714295693,160.75543643475976 151.8571428572759,159.6363874124945 151.68571428582072,149.19185721460963 150.94285714277066,149.50270822271705 150.71428571431898,151.55432196019683" stroke="#4dd2ff" stroke-linecap="round" stroke-linejoin="round" stroke-width="0.5"><title>2024-04-11 3.0km</title><desc>1712828151000</desc></polyline><polyline fill="none" points="165.4465021919459,141.14104380412027 164.7145870635286,159.25717148091644 167.45926879253238,163.835953457281 172.582674684003,165.22949423477985 180.9996986500919,159.8544043591246 182.28055012319237,140.3447276703082 174.59544128458947,134.57142857159488 167.09331122785807,138.3539362924639 164.89756584633142,158.85901615442708 170.56990808341652,164.83133980166167 177.1571442298591,164.03503075614572 180.63374108541757,160.45163710368797 182.46352890413254,141.7382807484828 176.42522910330445,135.16866699024104 170.75288686528802,135.56682586180978 166.9103324469179,139.54841129784472 164.34862950071692,158.65993846813217 171.850759556517,165.42857142863795 180.63374108541757,161.24794722092338 183.01246524974704,144.5253847159911 182.28055012319237,138.75209468742833 178.80395326763391,135.76590527477674 171.850759556517,134.7705080595333 167.64224757347256,136.96038144198246 162.70182046387345,144.5253847159911 164.89756584633142,159.05809382465668 168.55714148283005,164.43318530847318 175.51033519301564,165.0304170253221 180.4507623044774,160.84979219245724 182.09757134132087,143.13183309719898 177.52310179453343,135.16866699024104 172.0337383383885,134.57142857159488 167.09331122785807,137.55761932441965 164.89756584633142,158.85901615442708 169.83799295593053,164.83133980166167 176.42522910330445,164.63226256263442 181.18267743103206,159.05809382465668 182.82948646880686,142.534596465528 180.08480473980308,137.35854004486464 174.77842006646097,134.7705080595333 166.9103324469179,138.15485707274638 164.7145870635286,158.46086076740175 170.02097173780203,164.63226256263442 176.42522910330445,164.43318530847318 181.36565621290356,159.25717148091644 182.64650768600404,142.534596465528 177.7060805754736,135.16866699024104 168.37416270095855,135.9649846733082 165.62948097288609,141.34012280055322 165.4465021919459,161.0488697141409 174.41246250271797,165.0304170253221 180.63374108541757,159.25717148091644 181.36565621290356,141.34012280055322 178.80395326763391,136.76130211842246 173.68054737523198,135.56682586180978 167.09331122785807,140.74288576678373 165.62948097288609,158.65993846813217 173.1316110296175,164.63226256263442 180.26778352167457,159.8544043591246 181.54863499570638,142.73367535742 179.71884717606008,137.9557778381277 174.77842006646097,135.56682586180978 167.09331122785807,140.54380672588013 164.7145870635286,158.85901615442708 171.850759556517,165.42857142863795 176.79118666704744,165.0304170253221 178.9869320495054,161.24794722092338 181.36565621290356,142.33551755873486 175.51033519301564,135.9649846733082 170.93586564715952,136.36314342543483 167.27629000972956,140.74288576678373 165.62948097288609,158.0627053217031 172.0337383383885,164.23410803987645 179.71884717606008,160.84979219245724 181.36565621290356,141.34012280055322 175.14437763020396,135.76590527477674 167.45926879253238,140.74288576678373 165.81245975475758,158.46086076740175 171.850759556517,164.43318530847318 179.9018259588629,159.45624912250787 181.36565621290356,141.34012280055322 174.41246250271797,135.9649846733082 167.09331122785807,140.941964793019 165.62948097288609,158.65993846813217 173.3145898124203,164.63226256263442 179.71884717606008,160.252559537068 181.18267743103206,140.74288576678373 174.96139884833246,135.9649846733082 167.27629000972956,139.7474904130213 165.08054462820292,158.46086076740175 171.11884442903101,164.43318530847318 179.71884717606008,160.84979219245724 182.09757134132087,142.33551755873486 175.14437763020396,135.9649846733082 170.38692930154502,136.76130211842246 165.62948097288609,142.13643863704056 164.1656507179141,158.0627053217031" stroke="#4dd2ff" stroke-linecap="round" stroke-linejoin="round" stroke-width="0.5"><title>2024-04-09 5.6km</title><desc>1712653834000</desc></polyline><polyline fill="none" points="19.026766944676638,174.48520256881602 18.67001572623849,192.72779494547285 21.70240107551217,198.16173383616842 25.983415686525404,198.93800989119336 30.977932731620967,197.96766478568316 34.54544490762055,193.31000322825275 36.15082538686693,174.09706091159023 33.118440037593246,170.02157000638545 27.588796165771782,168.85714285704307 20.275396204553545,174.67927337531 19.026766944676638,193.50407262681983 27.053669339045882,199.32614783174358 34.54544490762055,193.31000322825275 35.7940741693601,175.0674149459228 31.513059558346868,169.827498851344 27.767171774059534,169.43935649702325 20.275396204553545,175.0674149459228 18.313264508731663,192.33965601795353 21.70240107551217,197.77359572146088 26.875293729826808,199.32614783174358 34.72382051683962,193.115933815483 36.32920099515468,175.84369791136123 29.550927861593664,169.05121408496052 22.77265472803265,170.4097122733947 19.740269378758967,174.29113174742088 18.67001572623849,193.89221138041466 26.340166903100908,199.1320788685698 34.3670692993328,193.89221138041466 36.15082538686693,174.29113174742088 33.653566864319146,170.60378338489681 28.12392299156636,169.05121408496052 19.91864498797804,174.67927337531 18.67001572623849,194.28035007533617 26.340166903100908,199.71428571431898 34.18869369011372,194.28035007533617 36.15082538686693,173.90299006155692 27.945547382347286,169.2452852986753 20.275396204553545,173.70891919685528 18.13488889951259,193.50407262681983 24.199659598059952,199.71428571431898 29.015801035799086,199.1320788685698 33.8319424726069,194.28035007533617 35.972449778579175,174.29113174742088 33.653566864319146,170.60378338489681 27.588796165771782,169.05121408496052 19.740269378758967,174.87334416783415 18.491640117950737,194.28035007533617 21.52402546722442,198.35580287128687 26.340166903100908,199.52021678024903 34.18869369011372,194.47441940172575 36.32920099515468,174.87334416783415 34.01031808089465,170.7978544817306 27.945547382347286,169.2452852986753 19.91864498797804,173.70891919685528 17.956513291224837,192.33965601795353 23.842908380553126,199.1320788685698 29.37255225237459,199.1320788685698 33.8319424726069,195.25069656036794 36.50757660437375,178.5606864618603 32.94006442837417,169.827498851344 22.23752790130675,170.60378338489681 19.38351816125214,175.4555564573966 18.848391335457563,194.8625580095686 22.951030337251723,198.93800989119336 27.945547382347286,199.32614783174358 34.902196125127375,192.53372548962943 36.15082538686693,175.4555564573966 33.296815645881,170.7978544817306 26.340166903100908,169.05121408496052 19.740269378758967,174.29113174742088 18.13488889951259,193.50407262681983 26.161791294813156,199.71428571431898 34.3670692993328,194.28035007533617 36.15082538686693,174.67927337531 34.18869369011372,171.1859966327902 28.12392299156636,168.85714285704307 22.77265472803265,170.7978544817306 19.38351816125214,175.84369791136123 19.561893769539893,193.31000322825275 26.518542512319982,198.16173383616842 33.296815645881,193.69814201095141 34.54544490762055,174.87334416783415 28.65904981829226,170.02157000638545 19.205142552033067,176.42590998322703 17.778137682005763,191.17523888638243" stroke="#4dd2ff" stroke-linecap="round" stroke-linejoin="round" stroke-width="0.5"><title>2024-04-08 5.0km</title><desc>1712568268000</desc></polyline><polyline fill="none" points="54.784513449296355,180.21564411045983 56.698494960553944,194.79231268865988 61.396449581719935,197.44260704610497 67.13839411642402,195.9281534673646 70.96635713987052,191.00617307797074 70.44436218310148,171.50746437651105 62.440439496189356,168.8571428572759 56.002501684241,175.67224972718395 55.6545050451532,194.6030058430042 60.004463027231395,198.01052690390497 67.48639075551182,197.0639937366359 70.61836050171405,191.57409438071772 70.79235882125795,171.69677295046858 61.04845294263214,169.61437786044553 55.6545050451532,177.94394793827087 55.480506726540625,194.03508521988988 60.52645798493177,197.8212202989962 67.13839411642402,197.0639937366359 70.96635713987052,191.57409438071772 70.61836050171405,171.31815578858368 61.396449581719935,169.61437786044553 56.17650000285357,175.1043248558417 54.95851176884025,193.08855056506582 62.614437815733254,198.5784466350451 70.44436218310148,192.70993660390377 71.66235041804612,174.91501653729938 68.70437899045646,170.18230396392755 64.0064243702218,169.23576038749889 59.13447143044323,170.560921295546 56.52449664194137,174.7257082038559 55.480506726540625,193.65647140005603 58.612476472742856,197.44260704610497 65.39841092377901,197.8212202989962 70.61836050171405,192.70993660390377 71.14035545941442,173.0219325700309 65.22441260516644,169.04645162913948 56.698494960553944,174.15778311993927 55.13251008838415,192.70993660390377 58.090481515042484,197.0639937366359 62.440439496189356,198.01052690390497 70.27036386355758,193.84577831742354 72.01034705620259,175.67224972718395 69.57437058631331,171.1288471869193 63.658427731134,169.61437786044553 58.26447983458638,172.2646985866595 55.8285033646971,176.9974072650075 55.480506726540625,195.54953993158415 58.26447983458638,198.5784466350451 64.35442100930959,198.7677531838417 70.27036386355758,192.52062960225157 72.01034705620259,174.53639985667542 64.18042268883437,169.4250691307243 56.698494960553944,174.3470914955251 54.61051512975246,193.46716446941718 60.70045630354434,199.52497923653573 70.27036386355758,192.89924359158613 71.83634873665869,174.91501653729938 68.53038067091256,169.99299527704716 64.0064243702218,169.23576038749889 56.35049832239747,174.7257082038559 55.30650840699673,193.46716446941718 63.310431092977524,198.19983349530958 70.27036386355758,192.14201555610634 71.66235041804612,173.5898579088971 64.18042268883437,169.61437786044553 56.35049832239747,175.1043248558417 55.13251008838415,192.70993660390377 58.612476472742856,197.0639937366359 63.83242605160922,198.19983349530958 70.44436218310148,192.14201555610634 71.66235041804612,173.5898579088971 68.53038067091256,170.18230396392755 61.91844453942031,169.61437786044553 55.6545050451532,177.56533171166666 55.13251008838415,195.36023314180784 58.090481515042484,198.7677531838417 65.22441260516644,198.38914007227868 70.61836050171405,191.57409438071772 70.79235882125795,172.07539005530998 62.96243445482105,168.8571428572759 56.17650000285357,175.1043248558417 55.13251008838415,192.89924359158613 60.17846134584397,197.8212202989962 65.22441260516644,197.63191367941909 70.79235882125795,191.384787294548 71.66235041804612,173.96847473015077 68.70437899045646,170.18230396392755 62.78843613527715,169.4250691307243 56.002501684241,175.67224972718395 55.8285033646971,194.22439210815355 60.70045630354434,198.5784466350451 67.13839411642402,197.63191367941909 71.31435377988964,186.65210552350618 69.57437058631331,172.2646985866595 59.6564663881436,170.93953857035376 54.95851176884025,181.54079926898703 55.6545050451532,196.68538036989048 59.6564663881436,199.33567274478264 66.26840252056718,198.01052690390497 70.79235882125795,191.1954801932443 72.18434537574649,176.24017447140068 70.44436218310148,171.50746437651105 64.35442100930959,169.61437786044553 59.13447143044323,171.1288471869193 54.95851176884025,181.35149143170565 55.6545050451532,196.68538036989048 59.48246806953102,199.14636623836122 66.44240084011108,197.8212202989962 70.79235882125795,191.1954801932443 70.61836050171405,172.07539005530998 61.57044790033251,169.4250691307243 55.8285033646971,177.18671542801894 56.17650000285357,194.79231268865988 61.57044790033251,199.14636623836122 67.6603890741244,198.7677531838417 70.96635713987052,194.22439210815355 71.14035545941442,172.8326240950264 60.87445462401956,169.4250691307243 55.480506726540625,176.6187908963766 54.61051512975246,194.41369898268022 57.39448823872954,198.5784466350451 63.48442941252142,199.52497923653573 70.79235882125795,192.33132258593105 71.48835209850222,173.4005494765006 61.74444621987641,169.61437786044553 55.30650840699673,177.37602357706055 54.784513449296355,195.54953993158415 58.090481515042484,198.9570597182028 63.658427731134,199.33567274478264 68.87837730906904,196.68538036989048 71.31435377988964,191.76340145338327 72.01034705620259,173.4005494765006 62.440439496189356,169.23576038749889 55.480506726540625,175.86155798938125 54.784513449296355,194.79231268865988 57.91648319642991,198.38914007227868 64.35442100930959,199.71428571431898 70.61836050171405,194.6030058430042 72.01034705620259,174.15778311993927 69.57437058631331,170.75022993981838 62.96243445482105,169.23576038749889 56.002501684241,174.7257082038559 54.088520172052085,193.08855056506582 56.35049832239747,197.25330039812252 61.396449581719935,199.33567274478264 70.27036386355758,194.6030058430042 72.18434537574649,175.67224972718395 64.52841932792217,169.23576038749889 56.698494960553944,174.15778311993927 54.784513449296355,192.70993660390377 63.136432773433626,199.33567274478264 70.96635713987052,194.79231268865988 72.70634033344686,176.6187908963766 69.40037226676941,171.31815578858368 64.52841932792217,169.61437786044553 56.35049832239747,174.7257082038559 54.61051512975246,193.27785752434283 57.220489918254316,197.44260704610497 63.136432773433626,199.33567274478264 71.14035545941442,193.65647140005603 72.35834369435906,176.6187908963766 70.09636554401368,172.07539005530998 64.18042268883437,169.23576038749889 56.17650000285357,174.91501653729938 54.95851176884025,193.84577831742354 57.74248487688601,197.63191367941909 63.136432773433626,199.14636623836122 70.44436218310148,194.41369898268022 72.01034705620259,175.86155798938125 64.0064243702218,169.61437786044553 56.17650000285357,175.67224972718395 54.784513449296355,194.03508521988988 63.48442941252142,198.7677531838417 70.79235882125795,193.27785752434283 72.35834369435906,175.29363316041417 63.48442941252142,169.4250691307243 56.002501684241,175.67224972718395 54.95851176884025,193.27785752434283 63.310431092977524,198.7677531838417 70.61836050171405,193.65647140005603 71.83634873665869,175.1043248558417 68.18238403275609,170.37161263707094 63.136432773433626,169.61437786044553 56.35049832239747,176.05086623714305 54.61051512975246,193.46716446941718 62.26644117757678,199.33567274478264 70.61836050171405,195.17092633852735 73.05433697160333,176.8080990880262 69.9223672254011,170.93953857035376 60.004463027231395,170.37161263707094 56.002501684241,176.24017447140068 54.95851176884025,191.00617307797074" stroke="#4dd2ff" stroke-linecap="round" stroke-linejoin="round" stroke-width="0.5"><title>2024-04-06 11.8km</title><desc>1712394949000</desc></polyline><polyline fill="none" points="92.63332039117813,195.9072548453696 99.44749902933836,199.71428571431898 105.8933436870575,194.30429286067374 108.10334756970406,176.87201933399774 105.8933436870575,171.06123627908528 99.07916504889727,169.45825942489319 94.65915728360415,172.46384023991413 92.08081942051649,190.49725430225953 96.8691611662507,198.11132600833662 105.8933436870575,194.90540371718816 108.2875145599246,175.87016108608805 104.78834174573421,170.86086422461085 98.71083106845617,170.25974797201343 94.4749902933836,173.46569976164028 92.26498641073704,192.10021856543608 97.05332815647125,198.31169602368027 105.34084271639585,195.7068846495822 107.73501358833164,176.2709044299554 103.68333980347961,170.460120071657 97.78999611735344,170.460120071657 94.29082330316305,174.06681529525667 92.26498641073704,191.49910707911476 96.13249320536852,197.91095597739331 105.52500970568508,195.50651443912648 107.91918057855219,176.2709044299554 102.57833786215633,170.05937585770153 94.1066563129425,173.66607162123546 91.7124854400754,193.30244113365188 98.52666407823563,198.71243601082824 106.07751067634672,194.10392254497856 108.10334756970406,176.47127607930452 105.70917669590563,171.66235235217027 101.10500194132328,169.65863158437423 93.55415534134954,174.26718710944988 91.7124854400754,191.8998480848968 97.78999611735344,198.51206602482125 106.26167766656727,193.90355221461505 107.91918057855219,176.0705327654723 100.92083495110273,169.65863158437423 93.92248932365328,174.06681529525667 92.26498641073704,192.50095948111266 98.52666407823563,198.71243601082824 106.26167766656727,193.90355221461505 107.73501358833164,174.86830246285535 100.3683339804411,169.8590037287213 93.92248932365328,174.26718710944988 92.44915340095758,193.10207074251957 99.6316660195589,198.51206602482125 106.63001164700836,193.50281150848605 108.10334756970406,175.46941768168472 101.47333592083305,169.8590037287213 93.55415534134954,174.86830246285535 92.26498641073704,193.10207074251957 98.8949980577454,198.71243601082824 106.44584465771914,194.10392254497856 108.10334756970406,175.66978939133696 100.73666796088219,169.8590037287213 93.55415534134954,174.86830246285535 92.08081942051649,193.10207074251957 99.6316660195589,198.71243601082824 106.26167766656727,194.10392254497856 107.91918057855219,175.66978939133696 101.65750291198492,169.65863158437423 93.73832233250141,174.06681529525667 92.26498641073704,192.3005890303757 98.15833009779453,198.51206602482125 103.49917281419039,197.51021587080322 106.44584465771914,193.90355221461505 108.10334756970406,175.0686742174439 101.47333592083305,169.65863158437423 94.1066563129425,173.86644346592948 92.08081942051649,192.3005890303757 97.60582912713289,198.51206602482125 106.07751067634672,194.70503344689496 107.91918057855219,175.87016108608805 102.02583689149469,169.25788725097664 94.29082330316305,173.46569976164028 92.08081942051649,192.50095948111266 98.34249708708376,198.51206602482125 104.05167378485203,197.30984579515643 106.8141786372289,193.30244113365188 107.55084659904242,174.66793069359846 100.18416699022055,169.45825942489319 93.55415534134954,174.46755890897475 92.26498641073704,193.70318186865188 99.07916504889727,198.71243601082824 106.44584465771914,193.50281150848605 107.91918057855219,175.66978939133696 100.92083495110273,169.65863158437423 93.36998835206032,175.26904595736414 92.26498641073704,192.50095948111266 98.8949980577454,198.51206602482125 106.26167766656727,194.30429286067374 107.91918057855219,175.87016108608805 100.3683339804411,169.65863158437423 93.73832233250141,174.66793069359846 92.26498641073704,193.30244113365188 96.68499417603016,198.31169602368027 105.8933436870575,194.90540371718816 108.2875145599246,176.0705327654723 100.92083495110273,169.45825942489319 94.1066563129425,173.86644346592948 92.63332039117813,192.90170033695176 99.6316660195589,198.71243601082824 106.44584465771914,193.50281150848605 108.10334756970406,175.87016108608805 104.60417475458235,170.66049215570092 100.18416699022055,169.45825942489319 93.92248932365328,174.66793069359846 92.26498641073704,192.70132991694845 99.6316660195589,198.71243601082824 106.26167766656727,194.90540371718816 107.91918057855219,175.26904595736414 100.92083495110273,169.05751506146044 94.4749902933836,172.66421217424795 92.26498641073704,192.70132991694845 94.84332427382469,197.10947570460849 99.81583300977945,198.71243601082824 106.8141786372289,193.10207074251957 107.91918057855219,175.26904595736414 104.42000776529312,170.25974797201343 99.6316660195589,169.25788725097664 93.92248932365328,174.06681529525667 92.44915340095758,193.30244113365188 100.3683339804411,199.11317593720742 106.44584465771914,194.30429286067374 107.73501358833164,175.26904595736414 100.55250097066164,168.85714285704307 93.73832233250141,174.06681529525667 92.08081942051649,192.10021856543608 97.78999611735344,198.51206602482125 106.26167766656727,194.50466316123493 107.73501358833164,175.46941768168472 101.47333592083305,169.45825942489319 96.68499417603016,170.05937585770153 93.73832233250141,174.86830246285535 92.26498641073704,192.70132991694845 99.26333204004914,198.71243601082824 106.63001164700836,193.90355221461505 107.73501358833164,175.87016108608805 101.10500194132328,169.25788725097664 93.73832233250141,174.66793069359846 92.44915340095758,193.50281150848605 99.07916504889727,199.11317593720742 106.44584465771914,193.90355221461505 107.73501358833164,174.66793069359846 104.78834174573421,170.66049215570092 99.07916504889727,169.45825942489319 93.73832233250141,174.66793069359846 92.63332039117813,193.50281150848605 100.18416699022055,198.71243601082824 106.63001164700836,192.90170033695176 107.91918057855219,174.86830246285535 99.81583300977945,169.25788725097664 94.65915728360415,172.86458409321494 91.89665243029594,179.67722043441609 91.7124854400754,195.1057739725802" stroke="#4dd2ff" stroke-linecap="round" stroke-linejoin="round" stroke-width="0.5"><title>2024-04-03 9.7km</title><desc>1712137473000</desc></polyline><polyline fill="none" points="125.39901625271887,187.61348747229204 130.4040244827047,186.60508516663685 128.55031773168594,192.05045313364826 132.6284725861624,198.3025287182536 142.0823770230636,198.3025287182536 147.45812660455704,178.5378531466704 144.4921958008781,170.06723354454152 137.4481101417914,168.8571428572759 132.44310190994292,171.68068694882095 130.21865380834788,191.84877303498797 132.81384326145053,198.70588793535717 139.3018168946728,198.70588793535717 144.12145445030183,195.2773326651659 146.16053187847137,176.72272261464968 141.71163567248732,170.67227868456393 132.6284725861624,174.3025466722902 130.21865380834788,193.46221340401098 135.9651447404176,199.10924709262326 144.12145445030183,194.8739729351364 145.78979052696377,176.52104136929847 140.59941162075847,170.06723354454152 132.44310190994292,174.3025466722902 130.4040244827047,194.06725329323672 136.70662744157016,199.51260618912056 144.12145445030183,195.07565280771814 146.16053187847137,176.31936010881327 141.1555236466229,170.4705969861243 135.9651447404176,171.07564203510992 132.07236056029797,175.10927222762257 130.03328313305974,193.46221340401098 136.15051541570574,199.71428571431898 143.936083775945,195.07565280771814 145.97516120318323,175.71431623632088 141.1555236466229,170.4705969861243 132.07236056029797,174.90759086143225 130.03328313305974,192.4538132864982 132.44310190994292,197.69748977920972 137.63348081707954,199.51260618912056 144.67756647616625,194.26893322658725 145.97516120318323,175.91599754220806 140.97015297133476,170.2689152727835 136.8919981168583,170.2689152727835 132.07236056029797,174.70590948010795 130.03328313305974,192.6554933397565 135.59440338984132,199.51260618912056 143.75071309972554,195.88237214740366 146.16053187847137,176.72272261464968 142.45311837363988,170.67227868456393 137.63348081707954,170.4705969861243 132.2577312355861,174.70590948010795 130.21865380834788,193.0588534027338 134.48217933811247,198.90756752179004 144.12145445030183,197.89916944061406" stroke="#4dd2ff" stroke-linecap="round" stroke-linejoin="round" stroke-width="0.5"><title>2024-04-02 3.0km</title><desc>1712049520000</desc></polyline><polyline fill="none" points="166.70879803225398,178.5674681616947 165.5187958087772,195.39862125343643 169.08880248107016,199.06693645683117 174.44381248950958,199.2827195590362 178.41048657055944,194.75127102760598 180.3938236106187,173.38863206701353 173.6504776738584,168.85714285704307 167.3037991449237,174.0359870872926 165.32046210486442,194.75127102760598 168.69213507324457,198.8511533390265 174.2454787855968,199.2827195590362 178.41048657055944,194.53548758639954 180.3938236106187,173.60441708983853 173.8488113777712,168.85714285704307 167.3037991449237,173.82020209659822 165.12212840095162,194.10392065602355 172.06380804162472,199.71428571431898 178.41048657055944,194.96705445251428 180.5921573145315,174.46755702025257 174.64214619342238,168.85714285704307 167.3037991449237,173.82020209659822 165.12212840095162,194.31970412959345 171.46880692988634,199.71428571431898 178.21215286664665,195.39862125343643 180.5921573145315,174.68334196251817 174.8404798982665,168.85714285704307 167.3037991449237,173.60441708983853 165.12212840095162,194.10392065602355 171.07213952112943,199.71428571431898 178.21215286664665,195.39862125343643 180.7904910184443,175.11491179838777 175.43548101000488,169.07292821933515 167.5021328497678,173.17284702789038 165.12212840095162,193.67235366185196 171.46880692988634,199.71428571431898 178.21215286664665,195.39862125343643 180.5921573145315,174.68334196251817 174.64214619342238,168.85714285704307 167.5021328497678,173.17284702789038 165.12212840095162,194.10392065602355 171.66714063379914,199.71428571431898 178.41048657055944,194.75127102760598 180.5921573145315,174.89912688871846 174.44381248950958,168.85714285704307 167.3037991449237,174.0359870872926 165.12212840095162,194.31970412959345 171.66714063379914,199.71428571431898 178.41048657055944,194.96705445251428 180.5921573145315,174.2517720621545 174.2454787855968,168.85714285704307 167.3037991449237,174.0359870872926 165.12212840095162,193.888137166854 167.70046655274928,198.20380388759077 173.05547656212002,199.49850264494307 178.41048657055944,194.75127102760598 180.5921573145315,174.46755702025257 173.8488113777712,168.85714285704307 167.3037991449237,174.0359870872926 165.12212840095162,193.67235366185196 171.07213952112943,199.71428571431898 178.21215286664665,195.39862125343643 180.7904910184443,175.54648156953044 175.23714730609208,169.07292821933515 167.70046655274928,172.95706197316758 165.12212840095162,193.67235366185196 169.68380359373987,199.2827195590362 178.21215286664665,195.39862125343643 180.7904910184443,175.11491179838777 175.63381471298635,169.07292821933515 168.09713396057487,172.09392159082927 164.9237946961075,193.02500304835849 167.5021328497678,198.20380388759077 172.8571428572759,199.71428571431898 177.61715175397694,196.47753797424957 180.7904910184443,176.40962091903202 176.82381693739444,169.50449889409356 169.28713618498296,170.58342530042864 165.9154632166028,196.0459713342134 170.08047100063413,199.49850264494307 175.43548101000488,198.635370204458 179.40215509105474,188.2777607771568" stroke="#4dd2ff" stroke-linecap="round" stroke-linejoin="round" stroke-width="0.5"><title>2024-03-30 4.8km</title><desc>1711782999000</desc></polyline><polyline fill="none" points="18.267759862355888,215.7376503145788 19.618318143300712,230.01168090268038 23.669992989860475,233.37026578304358 29.843973707407713,232.95044289296493 34.47445924393833,226.86300392635167 34.08858544938266,205.45190679002553 24.82761437445879,203.7725981438998 19.811255041509867,209.44026079541072 19.811255041509867,229.3819457902573 25.213488169014454,234.0 31.194531988352537,232.53061993955635 34.66739614214748,226.86300392635167 36.01795442402363,211.11956604919396 33.89564855210483,205.0320797227323 27.142857142724097,203.14285714295693 22.51237160526216,206.0816472726874 19.039507451467216,226.4431800628081 20.96887642610818,231.2711507040076 26.5640464508906,234.0 34.47445924393833,228.33238695492037 35.24620683398098,207.1312144305557 26.949920245446265,203.56268449290656 20.19712883606553,209.65017400681973 20.19712883606553,231.06123910937458 27.528730938211083,233.79008861025795 33.12390096206218,230.43150423211046 35.63208062853664,211.32947913510725 34.281522346660495,206.0816472726874 30.036910603754222,203.3527708260808 21.354750220663846,206.92130103055388 18.846570554189384,227.70265146531165 23.669992989860475,233.37026578304358 32.93096406478435,230.01168090268038 35.63208062853664,211.11956604919396 31.5804057829082,204.40233900398016 21.354750220663846,204.40233900398016" stroke="#4dd2ff" stroke-linecap="round" stroke-linejoin="round" stroke-width="0.5"><title>2024-03-28 2.0km</title><desc>1711615120000</desc></polyline><polyline fill="none" points="55.77195711992681,216.2571879858151 53.822089256718755,216.64290258893743 55.77195711992681,218.18576042423956 53.644828542135656,217.22147438512184 55.77195711992681,217.80004605208524 56.30373926460743,229.95002105645835 60.20347499009222,233.42143196915276 66.40760000888258,233.61428799363784 71.7254214528948,227.05717505840585 72.61172502674162,206.80716218263842 68.35746787209064,203.52857370814309 63.03964642714709,203.52857370814309 56.83552140928805,210.47146201413125 55.59469640441239,228.02145741856657 62.33060356788337,234.0 70.83911787904799,228.98573941760696 72.43446431308985,208.73574169073254 69.77555359061807,204.10714844753966 65.52129643503577,203.14285714295693 57.544564267620444,208.54288380453363 56.30373926460743,226.4786054692231 58.78538927156478,231.30001474451274 63.21690714173019,233.03571987641044 69.95281430520117,228.98573941760696 71.7254214528948,210.27860425808467 65.52129643503577,204.30000666575506 58.430867842398584,208.73574169073254 57.19004283845425,227.82860097498633 63.57142857089639,233.03571987641044 70.48459644895047,227.82860097498633 71.54816073831171,208.15716798976064 65.16677500493824,203.91429021558724 58.430867842398584,209.31431526131928 57.012782122939825,227.25003155926242 62.50786428246647,233.03571987641044 70.30733573436737,227.82860097498633 71.54816073831171,209.50717308954336 64.45773214660585,203.52857370814309 58.60812855698168,208.73574169073254 56.65826069377363,227.25003155926242 62.86238571256399,233.03571987641044 70.66185716353357,227.82860097498633 72.07994288299233,209.50717308954336 65.87581786420196,203.91429021558724 58.78538927156478,208.54288380453363 56.83552140928805,227.05717505840585 58.07634641230106,231.10715854680166 62.50786428246647,232.65000772592612 70.48459644895047,228.40717026148923 72.07994288299233,210.66431975597516 66.05307857971638,204.68572305771522 58.60812855698168,208.35002590413205 56.83552140928805,227.82860097498633 63.21690714173019,232.8428638081532 70.48459644895047,228.02145741856657 71.90268216840923,208.73574169073254 65.34403572045267,204.30000666575506 58.60812855698168,209.31431526131928 56.83552140928805,227.442888046382 63.21690714173019,233.03571987641044 68.88925001677126,232.26429551746696 71.54816073831171,228.60002666153014 73.49802860151976,210.08574648783542" stroke="#4dd2ff" stroke-linecap="round" stroke-linejoin="round" stroke-width="0.5"><title>2024-03-26 3.7km</title><desc>1711445960000</desc></polyline><polyline fill="none" points="91.68056129384786,226.80003097001463 98.48737478069961,234.0 106.61773533280939,229.26859390409663 108.13036055210978,208.4914533784613 103.97064119949937,203.1428571427241 94.13857727590948,206.64001739723608 91.49148314259946,226.18288989015855 93.19318651314825,230.91430129529908 99.05460923723876,233.7942868603859 106.23957902751863,229.68002084386535 108.50851685646921,209.5200283851009 104.72695380821824,203.3485725747887 94.70581173244864,207.46287798741832 92.24779575131834,219.3943288726732 94.5167335793376,230.91430129529908 99.4327655415982,233.17714735097252 103.97064119949937,231.32572798943147 107.94128239899874,210.75431788526475 104.72695380821824,204.78858016920276 99.24368738941848,204.1714341493789 95.46212434209883,207.25716286315583 93.00410836096853,225.36003490211442 97.16382771264762,232.5600077023264 104.91603196132928,230.09144772286527 107.94128239899874,209.9314582797233 103.59248489420861,203.96571877924725 95.46212434209883,207.46287798741832 93.00410836096853,225.77146242698655 97.35290586575866,232.5600077023264 104.72695380821824,230.09144772286527 106.61773533280939,206.2285870097112 100.1890781512484,203.5542879914865 94.89488988369703,208.9028834272176 93.19318651314825,228.24002628400922 96.59659325610846,232.14858119306155 101.8907815227285,232.35429445514455" stroke="#4dd2ff" stroke-linecap="round" stroke-linejoin="round" stroke-width="0.5"><title>2024-03-25 2.1km</title><desc>1711359274000</desc></polyline><polyline fill="none" points="140.33739686198533,231.03298268071376 143.97351354546845,210.85717661725357 139.79197935946286,204.52748024417087 130.33807598333806,208.68134519807063 128.33821180835366,225.49454144435003 133.79238683357835,232.81319347210228 141.79184353537858,229.64837345923297 143.97351354546845,210.85717661725357 138.70114435441792,204.72528348537162 130.33807598333806,208.8791481286753 128.33821180835366,226.6813512572553 134.15599850099534,232.81319347210228 141.97364936955273,229.05496928514913 143.97351354546845,210.06596539914608 138.51933852024376,204.72528348537162 130.33807598333806,208.68134519807063 128.52001764252782,226.8791528409347 130.15627015009522,231.03298268071376 135.24683350604028,233.01099459687248 142.1554552037269,228.26376351248473 143.97351354546845,211.25278213713318 139.2465618569404,204.72528348537162 130.33807598333806,207.89013332873583 128.52001764252782,226.8791528409347 134.15599850099534,233.20879570744 141.61003770213574,229.45057208277285 143.97351354546845,210.85717661725357 138.8829501895234,204.32967698853463 130.51988181844354,207.6923303247895 128.33821180835366,227.27475596382283 130.15627015009522,231.23078393912874 135.6104451743886,233.40659680287354 142.33726103790104,228.06596203288063 143.7917077112943,209.86816255748272 138.15572685189545,204.32967698853463 133.0651634959504,205.3186931195669 129.97446431592107,209.27475394424982 128.70182347670197,228.26376351248473 135.79225100856274,233.01099459687248 142.5190668720752,227.47255750373006 143.7917077112943,210.06596539914608 138.51933852024376,204.32967698853463 130.15627015009522,209.27475394424982 128.52001764252782,227.67035902757198 134.88322183862329,232.81319347210228 141.79184353537858,229.05496928514913 143.7917077112943,209.86816255748272 137.42850351613015,204.32967698853463 129.97446431592107,209.07695104391314 128.70182347670197,227.86816053744406 134.88322183862329,233.20879570744 142.1554552037269,229.05496928514913 143.97351354546845,210.06596539914608 140.8828143645078,204.9230867116712 130.7016876526177,207.6923303247895 128.52001764252782,225.69234311650507 132.88335766177624,232.81319347210228 141.61003770213574,229.84617482079193 143.97351354546845,210.46157103776932 138.33753268700093,204.52748024417087 130.33807598333806,208.28573929308914 128.52001764252782,227.0769544094801 133.61058099847287,232.6153923321981 141.42823186703026,230.439578817226 144.1553193796426,211.05497938464396 140.5192026970908,204.9230867116712 134.88322183862329,204.32967698853463 130.51988181844354,208.28573929308914 127.24737680330873,225.49454144435003 128.70182347670197,230.8351814080961 133.79238683357835,234.0 138.51933852024376,233.80219894926995 142.8826785404235,229.64837345923297 145.60976605303586,211.45058487495407 140.70100853126496,203.53846381721087 134.7014160035178,203.1428571427241 129.4290468133986,207.49452730594203 127.24737680330873,226.48354965820909 132.88335766177624,233.40659680287354 142.33726103790104,231.82418762519956" stroke="#4dd2ff" stroke-linecap="round" stroke-linejoin="round" stroke-width="0.5"><title>2024-03-24 4.9km</title><desc>1711273464000</desc></polyline><polyline fill="none" points="164.1572307990864,225.4811944796238 165.7232149699703,230.97109465603717 170.07317099906504,233.81069352221675 175.11911999247968,232.8641609211918 179.29507778119296,228.69941326859407 181.03506019245833,208.82211414258927 179.64307426288724,205.4145614723675 174.42312702909112,203.71078341640532 168.68118506949395,205.03594422596507 165.54921672865748,209.0114224900026 164.50522728264332,227.94218568643555 167.81119386386126,232.2962411902845 173.7271340638399,233.62138703023084 179.99107074551284,226.61703687207773 180.16506898682564,206.361104340991 173.90113230515271,203.71078341640532 167.46319738216698,205.79317866265774 164.8532237643376,210.33658052352257 163.8092343173921,226.99565088981763 169.37717803474516,234.0 175.4671164760366,232.8641609211918 179.12107953894883,228.88872012868524 182.07904963940382,211.47242971346714 179.81707250420004,205.4145614723675 174.94512175116688,203.52147467294708 167.63719562347978,205.79317866265774 165.0272220056504,209.95796401286498 164.8532237643376,230.40317450044677 169.89917275868356,234.0 174.94512175116688,233.62138703023084 180.16506898682564,226.61703687207773 180.16506898682564,206.361104340991 171.81315341126174,203.14285714295693 165.20122024603188,209.76865573669784 163.9832325587049,227.7528787550982 167.28919914085418,232.6748543579597 172.85714285820723,233.43208052404225 179.99107074551284,226.80634388839826 180.68706370983273,207.30764685571194 177.90309185162187,204.08940086164512 171.98715165164322,203.52147467294708 165.0272220056504,210.14727227506228 164.3312290403992,229.26733380672522 173.7271340638399,233.24277400388382 179.81707250420004,226.80634388839826 179.81707250420004,206.361104340991 173.2051393399015,203.33216591505334 165.54921672865748,207.6862637626473 163.6352360760793,228.13149260310456 167.11520089861006,232.48554778145626 173.7271340638399,233.62138703023084 179.81707250420004,227.18495787749998 179.46907602157444,205.22525285626762 172.6831446159631,203.33216591505334 167.81119386386126,205.79317866265774 163.9832325587049,219.99128239275888 166.24520969297737,231.53901468380354 177.03310064598918,232.10693458467722 181.20905843377113,210.90450518252328 177.38109712861478,204.27870956249535 167.63719562347978,205.79317866265774 163.9832325587049,224.53465876192786 165.20122024603188,230.97109465603717 169.72517451643944,233.24277400388382 178.42508657462895,230.02456099237315 181.38305667508394,211.28312155068852 178.94708129856735,205.22525285626762 167.46319738216698,205.22525285626762 164.50522728264332,216.01582137821242 165.7232149699703,230.97109465603717 170.94316220562905,233.62138703023084 177.20709888637066,231.728321331786 179.99107074551284,227.37426485144533 181.38305667508394,211.47242971346714 178.77308305725455,205.22525285626762 170.24716924037784,203.90009214612655 165.0272220056504,210.14727227506228 164.1572307990864,228.88872012868524 169.02918155211955,233.24277400388382 174.94512175116688,232.48554778145626 178.94708129856735,222.45227893884294 178.07709009200335,206.361104340991 172.6831446159631,204.65732692275196 167.11520089861006,207.30764685571194 163.8092343173921,219.23405220499262" stroke="#4dd2ff" stroke-linecap="round" stroke-linejoin="round" stroke-width="0.5"><title>2024-03-22 5.0km</title><desc>1711100044000</desc></polyline><polyline fill="none" points="17.74803363531828,249.00004328181967 20.93872841168195,265.3928728327155 26.256553038954735,268.09285829006694 31.57437766622752,266.550009803148 35.119594084098935,262.50002813269384 36.360419830307364,253.6286174801644 34.05602915864438,240.51430233428255 26.788335501216352,238.00714625464752 21.64777169469744,244.56431854353286 20.93872841168195,263.0785973321181 25.192988113500178,267.5142902156804 30.333551919087768,267.5142902156804 34.587811620905995,261.5357458451763 34.41055080015212,243.02145597618073 28.56094371061772,238.77857915428467 21.825032515451312,244.56431854353286 20.93872841168195,262.50002813269384 24.12942318804562,266.7428659144789 28.915465352125466,267.7071462550666 34.05602915864438,260.76431975513697 34.76507244165987,242.442882274976 29.801769455894828,238.20000450173393 21.825032515451312,242.82859809044749 20.229685127735138,261.3428893443197 27.497378785163164,267.12857809406705 32.10616012848914,266.1642975374125 35.29685490485281,260.76431975513697 35.47411572560668,241.09287646808662 33.34698587376624,238.20000450173393 26.61107468046248,237.42857142863795 20.584206769242883,243.21431384747848 19.52064184471965,262.3071717042476 27.497378785163164,268.285714285681 34.76507244165987,261.1500328287948 36.53768065106124,244.17860298836604 33.87876833695918,237.6214297185652 22.88859744183719,239.16429551760666 18.634337740018964,258.6428968172986" stroke="#4dd2ff" stroke-linecap="round" stroke-linejoin="round" stroke-width="0.5"><title>2024-03-21 2.2km</title><desc>1711013104000</desc></polyline></svg>