<?xml version="1.0" encoding="utf-8" ?>
<svg baseProfile="full" height="200mm" version="1.1" viewBox="0,0,200,200" width="200mm" xmlns="http://www.w3.org/2000/svg" xmlns:ev="http://www.w3.org/2001/xml-events" xmlns:xlink="http://www.w3.org/1999/xlink"><defs /><rect fill="#1a1a1a" height="200" width="200" x="0" y="0" /><text alignment-baseline="middle" fill="#e1ed5e" style="dominant-baseline: central; font-size:9.0px; font-family:Arial;" text-anchor="middle" x="100.0" y="100.0">2024</text><line stroke="#e1ed5e" stroke-width="0.3" x1="100.0" x2="100.0" y1="15.0" y2="10.0" /><path d="M 100.0 14.0 a86.0,86.0 0 0,1 42.35913384403234,11.155469271406648" fill="none" id="id1" stroke="none" /><text fill="#e1ed5e" style="font-size:6.75px; font-family:Arial;" text-anchor="middle"><textPath startOffset="22.145653131862478" xlink:href="#id1">January</textPath></text><line stroke="#e1ed5e" stroke-width="0.3" x1="143.13028292997686" x2="145.6673583964461" y1="26.7553504044142" y2="22.446841604673864" /><path d="M 143.63769802327073 25.89364864446614 a86.0,86.0 0 0,1 29.32050498858742,28.57503671076993" fill="none" id="id2" stroke="none" /><text fill="#e1ed5e" style="font-size:6.75px; font-family:Arial;" text-anchor="middle"><textPath startOffset="20.669276256404974" xlink:href="#id2">February</textPath></text><line stroke="#e1ed5e" stroke-width="0.3" x1="172.87174338648825" x2="177.1583165268699" y1="56.24261187166439" y2="53.66864786411523" /><path d="M 173.72905801456457 55.72781907015455 a86.0,86.0 0 0,1 12.242430191666344,42.057860355516425" fill="none" id="id3" stroke="none" /><text fill="#e1ed5e" style="font-size:6.75px; font-family:Arial;" text-anchor="middle"><textPath startOffset="22.145653131862474" xlink:href="#id3">March</textPath></text><path d="M 120.592083275326 95.88100663000786 l 11.221404093348983 -2.24459509242031 a32.44369332668202,32.44369332668202 0 0,0 0.10455166759415313,0.5470585041820893 l -11.258282053225294 2.0516340232049064" fill="#ff5d08" stroke="none" /><path d="M 120.65975698304385 96.23510406497455 l 25.164354563049482 -4.585783670142947 a46.57878324792286,46.57878324792286 0 0,0 0.13659823177680894,0.7878623013211326 l -25.239367612318524 4.153128335901221" fill="#dfff1b" stroke="none" /><path d="M 120.77682067341334 96.94652285012252 l 25.024177450618723 -3.677692330363193 a46.292980804105845,46.292980804105845 0 0,0 0.1088005927469957,0.7872268901626285 l -25.083622559920933 3.247577132000479" fill="#e2ff1b" stroke="none" /><path d="M 120.82617615685814 97.30363454192243 l 10.510861202656203 -1.360841417456129 a31.598589178988277,31.598589178988277 0 0,0 0.06502976673589718,0.5385397555933013 l -10.532673055651763 1.180207984939415" fill="#ff5107" stroke="none" /><path d="M 120.86939407059847 97.66154086499901 l 18.914185348926615 -2.119373919562526 a40.0325550892273,40.0325550892273 0 0,0 0.07066243047635996,0.683594915069349 l -18.94778017188464 1.7943744822102454" fill="#ffc912" stroke="none" /><path d="M 120.93736805541906 98.37931529534042 l 10.253360801466375 -0.7936749728193102 a31.28403265686797,31.28403265686797 0 0,0 0.03684966889112509,0.5357860982863392 l -10.265474431522566 0.6175454503786368" fill="#ff4c07" stroke="none" /><path d="M 120.98066250479742 99.09900007780936 l 24.866865749545145 -1.0678902108235233 a45.889785087627295,45.889785087627295 0 0,0 0.02704287876698851,0.7873239089319515 l -24.88153331530898 0.6408600373274519" fill="#e7ff1a" stroke="none" /><line stroke="#e1ed5e" stroke-width="0.3" x1="184.99686870605535" x2="189.99668451229388" y1="99.2704041080226" y2="99.22748670261217" /><path d="M 185.99683186730306 99.26182062694052 a86.0,86.0 0 0,1 -10.086455211305974,41.156179273409016" fill="none" id="id4" stroke="none" /><text fill="#e1ed5e" style="font-size:6.75px; font-family:Arial;" text-anchor="middle"><textPath startOffset="21.40746469413373" xlink:href="#id4">April</textPath></text><path d="M 120.99922638620191 100.18025310272382 l 15.572170383568903 0.1336683540697827 a36.572744064029955,36.572744064029955 0 0,0 -0.010777758488792623,0.6277503994930214 l -15.567581193481441 -0.40096566953187507" fill="#ff990e" stroke="none" /><path d="M 120.99303781780057 100.54070618675476 l 49.93754910994288 1.2862141243903324 a70.95411052037397,70.95411052037397 0 0,0 -0.04181330126428686,1.2173486439960224 l -49.90811112168175 -2.1432690329504656" fill="#3cffa1" stroke="none" /><path d="M 120.93736805541906 101.62068470465957 l 60.187322072570154 4.65887937964519 a81.36736614547112,81.36736614547112 0 0,0 -0.11975097705633346,1.3916878738062721 l -60.09847747281608 -5.691388300827119" fill="#49ecff" stroke="none" /><path d="M 120.9064616781168 101.97986365728391 l 6.766002322703854 0.6407474545461465 a27.796274327257642,27.796274327257642 0 0,0 -0.04906387558260609,0.4746484891017925 l -6.754006054639582 -0.7568004659308705" fill="#ff1702" stroke="none" /><path d="M 120.86939407059847 102.33845913500097 l 25.66250814506275 2.8755375645239396 a46.82311059071699,46.82311059071699 0 0,0 -0.09636176926494458,0.7980136831681964 l -25.60936428953814 -3.315644924615545" fill="#dcff1b" stroke="none" /><path d="M 120.82617615685814 102.69636545807757 l 28.74422918028126 3.721515946903827 a49.9841403548836,49.9841403548836 0 0,0 -0.11747578151369081,0.8499962345379468 l -28.676108882212358 -4.214400489641859" fill="#b4ff20" stroke="none" /><path d="M 120.7213421655516 103.40968896794604 l 15.04959444691738 2.4764050391979096 a36.25197937760379,36.25197937760379 0 0,0 -0.10631356029702319,0.6131883640640015 l -15.004866069128122 -2.7343864361824988" fill="#ff940d" stroke="none" /><path d="M 120.65975698304385 103.76489593502545 l 25.679266070397286 4.679617699386494 a47.10217477005831,47.10217477005831 0 0,0 -0.15178946706017046,0.7942266317823894 l -25.595150311054958 -5.119746896202198" fill="#d8ff1c" stroke="none" /><path d="M 120.592083275326 104.11899336999214 l 24.5186830588996 4.904423297547444 a46.0043833522104,46.0043833522104 0 0,0 -0.161546120976452,0.7730566692264025 l -24.430879227098785 -5.324596418059255" fill="#e6ff1a" stroke="none" /><path d="M 120.51834098615036 104.47187691870673 l 27.213168701885248 5.930983459382746 a48.851985846483885,48.851985846483885 0 0,0 -0.18561227913753037,0.8178419496438487 l -27.107345561190055 -6.397259742965612" fill="#c2ff1e" stroke="none" /><path d="M 120.43855184770803 104.8234425847677 l 29.51311924399749 6.96501578152605 a51.32384626572497,51.32384626572497 0 0,0 -0.2097250569885348,0.8557498013644255 l -29.38920666049266 -7.470621407498575" fill="#a4ff21" stroke="none" /><path d="M 120.26092885502905 105.52220625578681 l 15.222000272711707 4.148823863556106 a36.77726312619676,36.77726312619676 0 0,0 -0.1712445831356893,0.6076866135868736 l -15.148537197501437 -4.409518401045988" fill="#ff9c0e" stroke="none" /><path d="M 120.16314734710363 105.8691983318838 l 60.48944204131091 17.60759499565139 a84.0,84.0 0 0,0 -0.41489471998548133,1.3810495856371061 l -60.1782710013218 -18.643382184879222" fill="#4dd2ff" stroke="none" /><path d="M 119.83427380445688 106.89939002012753 l 24.20726382611868 8.420542950203096 a46.630005179935665,46.630005179935665 0 0,0 -0.2694766428327161,0.7537741305887962 l -24.059147013242022 -8.834852037172814" fill="#deff1b" stroke="none" /><path d="M 119.71291397450082 107.23885506374661 l 23.68618320560515 8.697894560921526 a46.23269000012483,46.23269000012483 0 0,0 -0.2799704558445154,0.7426548966186868 l -23.533382065946196 -9.103217737734372" fill="#e3ff1b" stroke="none" /><path d="M 119.31412917781788 108.2440532568976 l 14.080996378808074 6.010340046311702 a36.310083164121096,36.310083164121096 0 0,0 -0.24961646428787118,0.5711713199382243 l -13.975746032503237 -6.251173436025771" fill="#ff950d" stroke="none" /><path d="M 119.16976305983485 108.57439118712176 l 15.623075822804553 6.988003098038528 a38.114692093733275,38.114692093733275 0 0,0 -0.27227599672981717,0.5949721908485932 l -15.500815361219681 -7.255164271101811" fill="#ffaf10" stroke="none" /><path d="M 118.8641267826498 109.22738970284198 l 26.95960246557707 13.187292528821468 a51.01207839091887,51.01207839091887 0 0,0 -0.39153005820467707,0.7833223919975764 l -26.729252494160658 -13.64814677698279" fill="#a8ff21" stroke="none" /><path d="M 118.70294669586154 109.54985784667822 l 23.050530210535488 11.769764967029737 a46.881543817282804,46.881543817282804 0 0,0 -0.37213214611135237,0.7136124576312054 l -22.845089995449186 -12.163723667765444" fill="#dbff1b" stroke="none" /><line stroke="#e1ed5e" stroke-width="0.3" x1="174.33088141563837" x2="178.70328620479359" y1="141.23008692659167" y2="143.65538615756765" /><path d="M 175.20536237346943 141.71514677278685 a86.0,86.0 0 0,1 -30.301960400862466,31.631185727798858" fill="none" id="id5" stroke="none" /><text fill="#e1ed5e" style="font-size:6.75px; font-family:Arial;" text-anchor="middle"><textPath startOffset="22.145653131862474" xlink:href="#id5">May</textPath></text><path d="M 117.62189284568427 111.42229804090321 l 8.692877413682092 5.634618115183367 a31.35929722680341,31.35929722680341 0 0,0 -0.2966821891231841,0.44921464795088323 l -8.59487078563818 -5.783012641473311" fill="#ff4d07" stroke="none" /><path d="M 116.79662413953412 112.60449989151573 l 8.343673382465214 6.261248056184851 a31.431687913963735,31.431687913963735 0 0,0 -0.32756013087559865,0.4287867261376231 l -8.23496127423531 -6.403555695563351" fill="#ff4e07" stroke="none" /><path d="M 116.1254893667686 113.45245675266167 l 12.054871610571418 10.056602643904624 a36.69889124380286,36.69889124380286 0 0,0 -0.4077167066876362,0.48028925528895866 l -11.880460340376667 -10.262058681643138" fill="#ff9b0e" stroke="none" /><path d="M 115.89218393027572 113.72728997021213 l 11.9021434270255 10.280788015458029 a36.72754336748978,36.72754336748978 0 0,0 -0.4162261414020858,0.4735889433366431 l -11.72390622166483 -10.483589236605965" fill="#ff9b0e" stroke="none" /><path d="M 115.6541949942343 113.99807769240083 l 3.983953969551038 3.562476205851804 a26.344448142583268,26.344448142583268 0 0,0 -0.30434398521155087,0.3345273529664974 l -3.9222122834976076 -3.6303411343759726" fill="#ff0000" stroke="none" /><path d="M 115.41159269507618 114.26474011684316 l 11.651901996017237 10.784826534717235 a36.87700549564468,36.87700549564468 0 0,0 -0.43399698940592685,0.4608897630478885 l -11.46504917287505 -10.983257757709621" fill="#ff9d0e" stroke="none" /><path d="M 115.16444852881244 114.52719865689866 l 7.700384385194421 7.376794051274357 a31.663630252154412,31.663630252154412 0 0,0 -0.3793803473772689,0.3892776579935132 l -7.5726172366663445 -7.507894401335607" fill="#ff5107" stroke="none" /><path d="M 113.86319453409587 115.77377054828091 l 10.648875567126742 12.116465608264427 a37.13094199606469,37.13094199606469 0 0,0 -0.4823849005838859,0.4166725880230892 l -10.439311186780001 -12.297482328752233" fill="#ffa10e" stroke="none" /><path d="M 113.59037401385872 116.0094264158162 l 17.111776560153565 20.15762976091076 a47.44131113660168,47.44131113660168 0 0,0 -0.6253796449344031,0.5217139422021078 l -16.763222581057267 -20.448405887024737" fill="#d4ff1c" stroke="none" /><path d="M 113.03279911837588 116.46651593811092 l 8.623251376527776 10.895196414845588 a34.894810873878505,34.894810873878505 0 0,0 -0.47289124564477325,0.3677230928705059 l -8.434950186247772 -11.041620559336886" fill="#ff810b" stroke="none" /><path d="M 112.45986205192187 116.90419585922612 l 15.484681964357685 21.00794500392995 a47.09806753047914,47.09806753047914 0 0,0 -0.6549300044566261,0.47411881646485793 l -15.121770949527091 -21.270664591767886" fill="#d8ff1c" stroke="none" /><path d="M 111.8722381534696 117.32195027204791 l 10.812779675314818 15.776168690119876 a40.12599547333471,40.12599547333471 0 0,0 -0.5715159138036787,0.38454141275195675 l -10.540367473414136 -15.959459776928954" fill="#ffca12" stroke="none" /><path d="M 110.96478420261333 117.91015095944535 l 8.407227661218775 13.732574556913326 a37.10171049636483,37.10171049636483 0 0,0 -0.5460439709578809,0.32788371544260425 l -8.170250933703457 -13.874872272891853" fill="#ffa00e" stroke="none" /><line stroke="#e1ed5e" stroke-width="0.3" x1="143.1302829299769" x2="145.66735839644613" y1="173.24464959558577" y2="177.55315839532614" /><path d="M 143.63769802327073 174.10635135553383 a86.0,86.0 0 0,1 -40.68552437913181,11.842963189579606" fill="none" id="id6" stroke="none" /><text fill="#e1ed5e" style="font-size:6.75px; font-family:Arial;" text-anchor="middle"><textPath startOffset="21.407464694133747" xlink:href="#id6">June</textPath></text><path d="M 110.34350942703117 118.27599006163325 l 10.615190344880542 18.756024211510358 a42.551582547015144,42.551582547015144 0 0,0 -0.6387920810048677,0.3543271992239268 l -10.29165407571958 -18.935484326167426" fill="#ffeb16" stroke="none" /><path d="M 110.02825361518725 118.45085714620011 l 8.193735543187348 15.075550519796977 a38.158366053521604,38.158366053521604 0 0,0 -0.5782104214067275,0.3078644815675803 l -7.933736305994066 -15.213985469087126" fill="#ffaf10" stroke="none" /><path d="M 109.71004243097381 118.62028667847754 l 9.883015995271169 18.951986295437084 a42.37409155274724,42.37409155274724 0 0,0 -0.6478651096287418,0.3308045411981023 l -9.556223663928845 -19.118848788308025" fill="#ffe915" stroke="none" /><path d="M 109.06512990194946 118.94263497670748 l 9.500634962954294 19.852673055626706 a43.00887757594458,43.00887757594458 0 0,0 -0.6687087586792667,0.3129894641465441 l -9.158437490403522 -20.012838751343786" fill="#fff116" stroke="none" /><path d="M 107.74402155503746 119.51999308798841 l 4.443088082950843 11.199484408989937 a33.04862991132471,33.04862991132471 0 0,0 -0.5291364791796846,0.20468135729292333 l -4.250179341277629 -11.274105654420902" fill="#ff6609" stroke="none" /><path d="M 106.0420521117495 120.11202640906438 l 7.608703585505384 25.326899639420308 a47.44511704639159,47.44511704639159 0 0,0 -0.7820310584281525,0.2276378436656682 l -7.172812514695624 -25.453781177388493" fill="#d4ff1c" stroke="none" /><path d="M 103.58742460773223 120.69131181640829 l 2.647766005686767 15.271610704366338 a36.49944380700762,36.49944380700762 0 0,0 -0.6182701565810871,0.101736118986027 l -2.3852183460526075 -15.314812821848037" fill="#ff980e" stroke="none" /><path d="M 103.2317021107853 120.74984581791261 l 3.4622307551433473 22.23000508478249 a43.49800364190823,43.49800364190823 0 0,0 -0.7387926597740061,0.10857707926429205 l -3.080112989761656 -22.286163237345665" fill="#fff817" stroke="none" /><line stroke="#e1ed5e" stroke-width="0.3" x1="101.45913802915013" x2="101.54496967792366" y1="184.9874750549273" y2="189.98673829345242" /><path d="M 101.47630435890484 185.9873277026323 a86.0,86.0 0 0,1 -42.54439059252881,-10.42667462771756" fill="none" id="id7" stroke="none" /><text fill="#e1ed5e" style="font-size:6.75px; font-family:Arial;" text-anchor="middle"><textPath startOffset="22.145653131862474" xlink:href="#id7">July</textPath></text><path d="M 99.27912038922189 120.98762331915562 l -1.8223062497524687 53.05445815101629 a74.0857450712131,74.0857450712131 0 0,0 -1.270656041968778,-0.054567437738595015 l 2.732788052322085 -53.01535814485187" fill="#40ffc4" stroke="none" /><path d="M 98.55909050195518 120.95050786540614 l -2.5726880827869283 37.40632009630045 a58.49468638511602,58.49468638511602 0 0,0 -1.001181139414741,-0.07749775210276004 l 3.2144382169769052 -37.35664457720264" fill="#52ff2b" stroke="none" /><path d="M 98.19965949673042 120.92268563240118 l -3.586252972571677 41.67769563985964 a62.831704773198695,62.831704773198695 0 0,0 -1.0738250607792776,-0.10169234970750446 l 4.30117759673597 -41.60999153464695" fill="#31ff3d" stroke="none" /><path d="M 97.84075906011543 120.88869738790638 l -3.9435448111819067 38.150218752721 a59.35349705774253,59.35349705774253 0 0,0 -1.0125822433443685,-0.11346195241118175 l 4.5978629561270745 -38.07690103980285" fill="#49ff2c" stroke="none" /><path d="M 97.48249496171623 120.84855314841334 l -3.9824461359681966 32.980366936237864 a54.21994100649157,54.21994100649157 0 0,0 -0.9230872097901676,-0.11951212015710158 l 4.548011167649158 -32.90714321988037" fill="#82ff25" stroke="none" /><path d="M 97.12497278360702 120.80226474461374 l -6.858817343746937 49.62698558331489 a71.09871329127553,71.09871329127553 0 0,0 -1.2075774311711995,-0.17747229716948318 l 7.709719880525821 -49.50193221284652" fill="#3cffa2" stroke="none" /><path d="M 96.41257539226777 120.69131181640829 l -6.7018595264137035 38.65454479849042 a60.2312216823576,60.2312216823576 0 0,0 -1.0172343945961286,-0.18537399255597506 l 7.364428654560889 -38.53380263200308" fill="#40ff2d" stroke="none" /><path d="M 95.35216902796893 120.47920084513623 l -10.681432615199611 47.064362959152604 a69.2612397630221,69.2612397630221 0 0,0 -1.157216286902705,-0.2730998927724514 l 11.487781055842204 -46.87406692273393" fill="#39ff8d" stroke="none" /><path d="M 95.00130118170881 120.39639698878247 l -7.269102591972504 29.66041916258977 a51.53817803001914,51.53817803001914 0 0,0 -0.8574841238331794,-0.21796911111281386 l 7.7771920090310624 -29.53126481964169" fill="#a2ff22" stroke="none" /><line stroke="#e1ed5e" stroke-width="0.3" x1="58.13341422392154" x2="55.67067388415222" y1="173.97424548756322" y2="178.32567169271397" /><path d="M 57.64086615596768 174.84453072859336 a86.0,86.0 0 0,1 -31.369924170532247,-30.572349798747897" fill="none" id="id8" stroke="none" /><text fill="#e1ed5e" style="font-size:6.75px; font-family:Arial;" text-anchor="middle"><textPath startOffset="22.145653131862474" xlink:href="#id8">August</textPath></text><line stroke="#e1ed5e" stroke-width="0.3" x1="26.387840678322732" x2="22.057713659400548" y1="142.50000000000003" y2="145.00000000000006" /><path d="M 25.521815274538298 143.00000000000003 a86.0,86.0 0 0,1 -11.493303480769221,-40.785679425670985" fill="none" id="id9" stroke="none" /><text fill="#e1ed5e" style="font-size:6.75px; font-family:Arial;" text-anchor="middle"><textPath startOffset="21.40746469413373" xlink:href="#id9">September</textPath></text><line stroke="#e1ed5e" stroke-width="0.3" x1="15.003131293944662" x2="10.003315487706104" y1="100.72959589197737" y2="100.7725132973878" /><path d="M 14.003168132696942 100.73817937305945 a86.0,86.0 0 0,1 10.791469493833604,-42.45332614584628" fill="none" id="id10" stroke="none" /><text fill="#e1ed5e" style="font-size:6.75px; font-family:Arial;" text-anchor="middle"><textPath startOffset="22.145653131862435" xlink:href="#id10">October</textPath></text><line stroke="#e1ed5e" stroke-width="0.3" x1="26.387840678322718" x2="22.05771365940052" y1="57.49999999999999" y2="54.99999999999999" /><path d="M 25.521815274538284 56.99999999999999 a86.0,86.0 0 0,1 29.574782752854787,-30.34633250058573" fill="none" id="id11" stroke="none" /><text fill="#e1ed5e" style="font-size:6.75px; font-family:Arial;" text-anchor="middle"><textPath startOffset="21.40746469413373" xlink:href="#id11">November</textPath></text><line stroke="#e1ed5e" stroke-width="0.3" x1="56.869717070023135" x2="54.33264160355391" y1="26.7553504044142" y2="22.446841604673864" /><path d="M 56.362301976729285 25.89364864446614 a86.0,86.0 0 0,1 42.16139366436587,-11.88097634709845" fill="none" id="id12" stroke="none" /><text fill="#e1ed5e" style="font-size:6.75px; font-family:Arial;" text-anchor="middle"><textPath startOffset="22.145653131862474" xlink:href="#id12">December</textPath></text></svg>